<?xml version="1.0" encoding="UTF-8" standalone="no"?>
<!DOCTYPE svg PUBLIC "-//W3C//DTD SVG 1.1//EN"
 "http://www.w3.org/Graphics/SVG/1.1/DTD/svg11.dtd">
<!-- Generated by graphviz version 2.34.0 (20130907.0111)
 -->
<!-- Title: FBServer.Core.GameManager Pages: 1 -->
<svg width="157pt" height="234pt"
 viewBox="0.00 0.00 157.00 234.00" xmlns="http://www.w3.org/2000/svg" xmlns:xlink="http://www.w3.org/1999/xlink">
<g id="graph0" class="graph" transform="scale(1 1) rotate(0) translate(4 230)">
<title>FBServer.Core.GameManager</title>
<polygon fill="white" stroke="white" points="-4,4 -4,-230 153,-230 153,4 -4,4"/>
<!-- Node1 -->
<g id="node1" class="node"><title>Node1</title>
<polygon fill="#bfbfbf" stroke="black" points="0,-0.5 0,-19.5 146,-19.5 146,-0.5 0,-0.5"/>
<text text-anchor="middle" x="73" y="-7.5" font-family="Helvetica,sans-Serif" font-size="10.00">FBServer.Core.GameManager</text>
</g>
<!-- Node2 -->
<g id="node2" class="node"><title>Node2</title>
<g id="a_node2"><a xlink:href="class_f_b_library_1_1_core_1_1_base_game_manager.html" target="_top" xlink:title="BaseGameManager">
<polygon fill="white" stroke="black" points="21.5,-58.5 21.5,-77.5 124.5,-77.5 124.5,-58.5 21.5,-58.5"/>
<text text-anchor="middle" x="73" y="-65.5" font-family="Helvetica,sans-Serif" font-size="10.00">BaseGameManager</text>
</a>
</g>
</g>
<!-- Node2&#45;&gt;Node1 -->
<g id="edge1" class="edge"><title>Node2&#45;&gt;Node1</title>
<path fill="none" stroke="midnightblue" d="M73,-47.953C73,-38.2875 73,-27.0312 73,-19.5052"/>
<polygon fill="midnightblue" stroke="midnightblue" points="69.5001,-48.25 73,-58.25 76.5001,-48.25 69.5001,-48.25"/>
</g>
<!-- Node3 -->
<g id="node3" class="node"><title>Node3</title>
<g id="a_node3"><a xlink:href="class_f_b_library_1_1_core_1_1_base_entities_1_1_base_map.html" target="_top" xlink:title="FBLibrary.Core.BaseEntities.\lBaseMap">
<polygon fill="white" stroke="black" points="1.5,-127 1.5,-157 144.5,-157 144.5,-127 1.5,-127"/>
<text text-anchor="start" x="9.5" y="-145" font-family="Helvetica,sans-Serif" font-size="10.00">FBLibrary.Core.BaseEntities.</text>
<text text-anchor="middle" x="73" y="-134" font-family="Helvetica,sans-Serif" font-size="10.00">BaseMap</text>
</a>
</g>
</g>
<!-- Node3&#45;&gt;Node2 -->
<g id="edge2" class="edge"><title>Node3&#45;&gt;Node2</title>
<path fill="none" stroke="#9a32cd" stroke-dasharray="5,2" d="M73,-116.688C73,-103.253 73,-87.3805 73,-77.7589"/>
<polygon fill="#9a32cd" stroke="#9a32cd" points="69.5001,-116.775 73,-126.775 76.5001,-116.775 69.5001,-116.775"/>
<text text-anchor="middle" x="111" y="-99.5" font-family="Helvetica,sans-Serif" font-size="10.00"> BaseCurrentMap</text>
</g>
<!-- Node4 -->
<g id="node4" class="node"><title>Node4</title>
<g id="a_node4"><a xlink:href="interface_f_b_library_1_1_core_1_1_i_entity.html" target="_top" xlink:title="FBLibrary.Core.IEntity">
<polygon fill="white" stroke="black" points="16.5,-206.5 16.5,-225.5 129.5,-225.5 129.5,-206.5 16.5,-206.5"/>
<text text-anchor="middle" x="73" y="-213.5" font-family="Helvetica,sans-Serif" font-size="10.00">FBLibrary.Core.IEntity</text>
</a>
</g>
</g>
<!-- Node4&#45;&gt;Node3 -->
<g id="edge3" class="edge"><title>Node4&#45;&gt;Node3</title>
<path fill="none" stroke="#9a32cd" stroke-dasharray="5,2" d="M73,-196.085C73,-183.915 73,-168.354 73,-157.232"/>
<polygon fill="#9a32cd" stroke="#9a32cd" points="69.5001,-196.458 73,-206.458 76.5001,-196.458 69.5001,-196.458"/>
<text text-anchor="middle" x="87.5" y="-179.5" font-family="Helvetica,sans-Serif" font-size="10.00"> Board</text>
</g>
</g>
</svg>
