<?xml version="1.0" encoding="UTF-8" standalone="no"?>
<!DOCTYPE svg PUBLIC "-//W3C//DTD SVG 1.1//EN"
 "http://www.w3.org/Graphics/SVG/1.1/DTD/svg11.dtd">
<!-- Generated by graphviz version 2.34.0 (20130907.0111)
 -->
<!-- Title: FBLibrary.Core.BaseEntities.BaseEdgeWall Pages: 1 -->
<svg width="345pt" height="708pt"
 viewBox="0.00 0.00 345.00 708.00" xmlns="http://www.w3.org/2000/svg" xmlns:xlink="http://www.w3.org/1999/xlink">
<g id="graph0" class="graph" transform="scale(1 1) rotate(0) translate(4 704)">
<title>FBLibrary.Core.BaseEntities.BaseEdgeWall</title>
<polygon fill="white" stroke="white" points="-4,4 -4,-704 341,-704 341,4 -4,4"/>
<!-- Node1 -->
<g id="node1" class="node"><title>Node1</title>
<polygon fill="#bfbfbf" stroke="black" points="96.5,-139 96.5,-207 239.5,-207 239.5,-139 96.5,-139"/>
<text text-anchor="start" x="104.5" y="-195" font-family="Helvetica,sans-Serif" font-size="10.00">FBLibrary.Core.BaseEntities.</text>
<text text-anchor="middle" x="168" y="-184" font-family="Helvetica,sans-Serif" font-size="10.00">BaseEdgeWall</text>
<polyline fill="none" stroke="black" points="96.5,-177 239.5,-177 "/>
<text text-anchor="middle" x="168" y="-165" font-family="Helvetica,sans-Serif" font-size="10.00"> </text>
<polyline fill="none" stroke="black" points="96.5,-158 239.5,-158 "/>
<text text-anchor="start" x="104.5" y="-146" font-family="Helvetica,sans-Serif" font-size="10.00"># BaseEdgeWall()</text>
</g>
<!-- Node5 -->
<g id="node5" class="node"><title>Node5</title>
<g id="a_node5"><a xlink:href="class_f_b_client_1_1_core_1_1_entities_1_1_edge_wall.html" target="_top" xlink:title="{FBClient.Core.Entities.EdgeWall\n|+ Sprite\l|+ EdgeWall()\l+ Update()\l+ Draw()\l+ Destroy()\l+ Remove()\l}">
<polygon fill="white" stroke="black" points="0,-0.5 0,-101.5 158,-101.5 158,-0.5 0,-0.5"/>
<text text-anchor="middle" x="79" y="-89.5" font-family="Helvetica,sans-Serif" font-size="10.00">FBClient.Core.Entities.EdgeWall</text>
<polyline fill="none" stroke="black" points="0,-82.5 158,-82.5 "/>
<text text-anchor="start" x="8" y="-70.5" font-family="Helvetica,sans-Serif" font-size="10.00">+ Sprite</text>
<polyline fill="none" stroke="black" points="0,-63.5 158,-63.5 "/>
<text text-anchor="start" x="8" y="-51.5" font-family="Helvetica,sans-Serif" font-size="10.00">+ EdgeWall()</text>
<text text-anchor="start" x="8" y="-40.5" font-family="Helvetica,sans-Serif" font-size="10.00">+ Update()</text>
<text text-anchor="start" x="8" y="-29.5" font-family="Helvetica,sans-Serif" font-size="10.00">+ Draw()</text>
<text text-anchor="start" x="8" y="-18.5" font-family="Helvetica,sans-Serif" font-size="10.00">+ Destroy()</text>
<text text-anchor="start" x="8" y="-7.5" font-family="Helvetica,sans-Serif" font-size="10.00">+ Remove()</text>
</a>
</g>
</g>
<!-- Node1&#45;&gt;Node5 -->
<g id="edge4" class="edge"><title>Node1&#45;&gt;Node5</title>
<path fill="none" stroke="midnightblue" d="M137.469,-130.835C130.497,-121.435 123.017,-111.348 115.813,-101.636"/>
<polygon fill="none" stroke="midnightblue" points="134.676,-132.945 143.445,-138.892 140.299,-128.775 134.676,-132.945"/>
</g>
<!-- Node6 -->
<g id="node6" class="node"><title>Node6</title>
<g id="a_node6"><a xlink:href="class_f_b_server_1_1_core_1_1_entities_1_1_edge_wall.html" target="_top" xlink:title="{FBServer.Core.Entities.EdgeWall\n||+ EdgeWall()\l+ Destroy()\l+ Remove()\l}">
<polygon fill="white" stroke="black" points="176.5,-11.5 176.5,-90.5 337.5,-90.5 337.5,-11.5 176.5,-11.5"/>
<text text-anchor="middle" x="257" y="-78.5" font-family="Helvetica,sans-Serif" font-size="10.00">FBServer.Core.Entities.EdgeWall</text>
<polyline fill="none" stroke="black" points="176.5,-71.5 337.5,-71.5 "/>
<text text-anchor="middle" x="257" y="-59.5" font-family="Helvetica,sans-Serif" font-size="10.00"> </text>
<polyline fill="none" stroke="black" points="176.5,-52.5 337.5,-52.5 "/>
<text text-anchor="start" x="184.5" y="-40.5" font-family="Helvetica,sans-Serif" font-size="10.00">+ EdgeWall()</text>
<text text-anchor="start" x="184.5" y="-29.5" font-family="Helvetica,sans-Serif" font-size="10.00">+ Destroy()</text>
<text text-anchor="start" x="184.5" y="-18.5" font-family="Helvetica,sans-Serif" font-size="10.00">+ Remove()</text>
</a>
</g>
</g>
<!-- Node1&#45;&gt;Node6 -->
<g id="edge5" class="edge"><title>Node1&#45;&gt;Node6</title>
<path fill="none" stroke="midnightblue" d="M198.727,-130.57C208.362,-117.58 218.952,-103.301 228.43,-90.5207"/>
<polygon fill="none" stroke="midnightblue" points="195.701,-128.775 192.555,-138.892 201.324,-132.945 195.701,-128.775"/>
</g>
<!-- Node2 -->
<g id="node2" class="node"><title>Node2</title>
<g id="a_node2"><a xlink:href="class_f_b_library_1_1_core_1_1_static_entity.html" target="_top" xlink:title="{StaticEntity\n||+ Update()\l# StaticEntity()\l# StaticEntity()\l}">
<polygon fill="white" stroke="black" points="127,-244.5 127,-323.5 209,-323.5 209,-244.5 127,-244.5"/>
<text text-anchor="middle" x="168" y="-311.5" font-family="Helvetica,sans-Serif" font-size="10.00">StaticEntity</text>
<polyline fill="none" stroke="black" points="127,-304.5 209,-304.5 "/>
<text text-anchor="middle" x="168" y="-292.5" font-family="Helvetica,sans-Serif" font-size="10.00"> </text>
<polyline fill="none" stroke="black" points="127,-285.5 209,-285.5 "/>
<text text-anchor="start" x="135" y="-273.5" font-family="Helvetica,sans-Serif" font-size="10.00">+ Update()</text>
<text text-anchor="start" x="135" y="-262.5" font-family="Helvetica,sans-Serif" font-size="10.00"># StaticEntity()</text>
<text text-anchor="start" x="135" y="-251.5" font-family="Helvetica,sans-Serif" font-size="10.00"># StaticEntity()</text>
</a>
</g>
</g>
<!-- Node2&#45;&gt;Node1 -->
<g id="edge1" class="edge"><title>Node2&#45;&gt;Node1</title>
<path fill="none" stroke="midnightblue" d="M168,-234.125C168,-225.016 168,-215.696 168,-207.196"/>
<polygon fill="none" stroke="midnightblue" points="164.5,-234.264 168,-244.264 171.5,-234.264 164.5,-234.264"/>
</g>
<!-- Node3 -->
<g id="node3" class="node"><title>Node3</title>
<g id="a_node3"><a xlink:href="class_f_b_library_1_1_core_1_1_base_entity.html" target="_top" xlink:title="{BaseEntity\n|+ IsAlive\l+ InDestruction\l+ DestructionTime\l+ Position\l+ PositionX\l+ PositionY\l+ CellPositionX\l+ CellPositionY\l+ CellPosition\l+ Dimension\l|+ Update()\l+ ChangePosition()\l+ ChangePosition()\l+ ChangePosition()\l+ Destroy()\l+ Remove()\l# BaseEntity()\l# BaseEntity()\l}">
<polygon fill="white" stroke="black" points="118,-360.5 118,-593.5 218,-593.5 218,-360.5 118,-360.5"/>
<text text-anchor="middle" x="168" y="-581.5" font-family="Helvetica,sans-Serif" font-size="10.00">BaseEntity</text>
<polyline fill="none" stroke="black" points="118,-574.5 218,-574.5 "/>
<text text-anchor="start" x="126" y="-562.5" font-family="Helvetica,sans-Serif" font-size="10.00">+ IsAlive</text>
<text text-anchor="start" x="126" y="-551.5" font-family="Helvetica,sans-Serif" font-size="10.00">+ InDestruction</text>
<text text-anchor="start" x="126" y="-540.5" font-family="Helvetica,sans-Serif" font-size="10.00">+ DestructionTime</text>
<text text-anchor="start" x="126" y="-529.5" font-family="Helvetica,sans-Serif" font-size="10.00">+ Position</text>
<text text-anchor="start" x="126" y="-518.5" font-family="Helvetica,sans-Serif" font-size="10.00">+ PositionX</text>
<text text-anchor="start" x="126" y="-507.5" font-family="Helvetica,sans-Serif" font-size="10.00">+ PositionY</text>
<text text-anchor="start" x="126" y="-496.5" font-family="Helvetica,sans-Serif" font-size="10.00">+ CellPositionX</text>
<text text-anchor="start" x="126" y="-485.5" font-family="Helvetica,sans-Serif" font-size="10.00">+ CellPositionY</text>
<text text-anchor="start" x="126" y="-474.5" font-family="Helvetica,sans-Serif" font-size="10.00">+ CellPosition</text>
<text text-anchor="start" x="126" y="-463.5" font-family="Helvetica,sans-Serif" font-size="10.00">+ Dimension</text>
<polyline fill="none" stroke="black" points="118,-456.5 218,-456.5 "/>
<text text-anchor="start" x="126" y="-444.5" font-family="Helvetica,sans-Serif" font-size="10.00">+ Update()</text>
<text text-anchor="start" x="126" y="-433.5" font-family="Helvetica,sans-Serif" font-size="10.00">+ ChangePosition()</text>
<text text-anchor="start" x="126" y="-422.5" font-family="Helvetica,sans-Serif" font-size="10.00">+ ChangePosition()</text>
<text text-anchor="start" x="126" y="-411.5" font-family="Helvetica,sans-Serif" font-size="10.00">+ ChangePosition()</text>
<text text-anchor="start" x="126" y="-400.5" font-family="Helvetica,sans-Serif" font-size="10.00">+ Destroy()</text>
<text text-anchor="start" x="126" y="-389.5" font-family="Helvetica,sans-Serif" font-size="10.00">+ Remove()</text>
<text text-anchor="start" x="126" y="-378.5" font-family="Helvetica,sans-Serif" font-size="10.00"># BaseEntity()</text>
<text text-anchor="start" x="126" y="-367.5" font-family="Helvetica,sans-Serif" font-size="10.00"># BaseEntity()</text>
</a>
</g>
</g>
<!-- Node3&#45;&gt;Node2 -->
<g id="edge2" class="edge"><title>Node3&#45;&gt;Node2</title>
<path fill="none" stroke="midnightblue" d="M168,-350.405C168,-340.866 168,-331.774 168,-323.565"/>
<polygon fill="none" stroke="midnightblue" points="164.5,-350.488 168,-360.488 171.5,-350.488 164.5,-350.488"/>
</g>
<!-- Node4 -->
<g id="node4" class="node"><title>Node4</title>
<g id="a_node4"><a xlink:href="interface_f_b_library_1_1_core_1_1_i_entity.html" target="_top" xlink:title="{IEntity\n||+ Destroy()\l+ Remove()\l}">
<polygon fill="white" stroke="black" points="135,-631 135,-699 201,-699 201,-631 135,-631"/>
<text text-anchor="middle" x="168" y="-687" font-family="Helvetica,sans-Serif" font-size="10.00">IEntity</text>
<polyline fill="none" stroke="black" points="135,-680 201,-680 "/>
<text text-anchor="middle" x="168" y="-668" font-family="Helvetica,sans-Serif" font-size="10.00"> </text>
<polyline fill="none" stroke="black" points="135,-661 201,-661 "/>
<text text-anchor="start" x="143" y="-649" font-family="Helvetica,sans-Serif" font-size="10.00">+ Destroy()</text>
<text text-anchor="start" x="143" y="-638" font-family="Helvetica,sans-Serif" font-size="10.00">+ Remove()</text>
</a>
</g>
</g>
<!-- Node4&#45;&gt;Node3 -->
<g id="edge3" class="edge"><title>Node4&#45;&gt;Node3</title>
<path fill="none" stroke="midnightblue" d="M168,-620.601C168,-612.247 168,-603.139 168,-593.698"/>
<polygon fill="none" stroke="midnightblue" points="164.5,-620.747 168,-630.747 171.5,-620.747 164.5,-620.747"/>
</g>
</g>
</svg>
