<?xml version="1.0" encoding="UTF-8" standalone="no"?>
<!DOCTYPE svg PUBLIC "-//W3C//DTD SVG 1.1//EN"
 "http://www.w3.org/Graphics/SVG/1.1/DTD/svg11.dtd">
<!-- Generated by graphviz version 2.34.0 (20130907.0111)
 -->
<!-- Title: FBLibrary.Core.BaseEntities.BasePlayer Pages: 1 -->
<svg width="242pt" height="224pt"
 viewBox="0.00 0.00 242.00 224.00" xmlns="http://www.w3.org/2000/svg" xmlns:xlink="http://www.w3.org/1999/xlink">
<g id="graph0" class="graph" transform="scale(1 1) rotate(0) translate(4 220)">
<title>FBLibrary.Core.BaseEntities.BasePlayer</title>
<polygon fill="white" stroke="white" points="-4,4 -4,-220 238,-220 238,4 -4,4"/>
<!-- Node1 -->
<g id="node1" class="node"><title>Node1</title>
<polygon fill="#bfbfbf" stroke="black" points="62.5,-1 62.5,-31 205.5,-31 205.5,-1 62.5,-1"/>
<text text-anchor="start" x="70.5" y="-19" font-family="Helvetica,sans-Serif" font-size="10.00">FBLibrary.Core.BaseEntities.</text>
<text text-anchor="middle" x="134" y="-8" font-family="Helvetica,sans-Serif" font-size="10.00">BasePlayer</text>
</g>
<!-- Node2 -->
<g id="node2" class="node"><title>Node2</title>
<g id="a_node2"><a xlink:href="class_f_b_library_1_1_core_1_1_dynamic_entity.html" target="_top" xlink:title="DynamicEntity">
<polygon fill="white" stroke="black" points="0,-80.5 0,-99.5 80,-99.5 80,-80.5 0,-80.5"/>
<text text-anchor="middle" x="40" y="-87.5" font-family="Helvetica,sans-Serif" font-size="10.00">DynamicEntity</text>
</a>
</g>
</g>
<!-- Node2&#45;&gt;Node1 -->
<g id="edge1" class="edge"><title>Node2&#45;&gt;Node1</title>
<path fill="none" stroke="midnightblue" d="M59.4755,-74.0826C75.9012,-61.5012 99.2525,-43.6151 115.42,-31.2316"/>
<polygon fill="midnightblue" stroke="midnightblue" points="56.9627,-71.5985 51.1522,-80.4579 61.2192,-77.1557 56.9627,-71.5985"/>
</g>
<!-- Node3 -->
<g id="node3" class="node"><title>Node3</title>
<g id="a_node3"><a xlink:href="class_f_b_library_1_1_core_1_1_base_entity.html" target="_top" xlink:title="BaseEntity">
<polygon fill="white" stroke="black" points="7.5,-138.5 7.5,-157.5 72.5,-157.5 72.5,-138.5 7.5,-138.5"/>
<text text-anchor="middle" x="40" y="-145.5" font-family="Helvetica,sans-Serif" font-size="10.00">BaseEntity</text>
</a>
</g>
</g>
<!-- Node3&#45;&gt;Node2 -->
<g id="edge2" class="edge"><title>Node3&#45;&gt;Node2</title>
<path fill="none" stroke="midnightblue" d="M40,-127.953C40,-118.287 40,-107.031 40,-99.5052"/>
<polygon fill="midnightblue" stroke="midnightblue" points="36.5001,-128.25 40,-138.25 43.5001,-128.25 36.5001,-128.25"/>
</g>
<!-- Node4 -->
<g id="node4" class="node"><title>Node4</title>
<g id="a_node4"><a xlink:href="interface_f_b_library_1_1_core_1_1_i_entity.html" target="_top" xlink:title="IEntity">
<polygon fill="white" stroke="black" points="18,-196.5 18,-215.5 62,-215.5 62,-196.5 18,-196.5"/>
<text text-anchor="middle" x="40" y="-203.5" font-family="Helvetica,sans-Serif" font-size="10.00">IEntity</text>
</a>
</g>
</g>
<!-- Node4&#45;&gt;Node3 -->
<g id="edge3" class="edge"><title>Node4&#45;&gt;Node3</title>
<path fill="none" stroke="midnightblue" d="M40,-185.953C40,-176.287 40,-165.031 40,-157.505"/>
<polygon fill="midnightblue" stroke="midnightblue" points="36.5001,-186.25 40,-196.25 43.5001,-186.25 36.5001,-186.25"/>
</g>
<!-- Node5 -->
<g id="node5" class="node"><title>Node5</title>
<g id="a_node5"><a xlink:href="class_f_b_library_1_1_core_1_1_player_stats.html" target="_top" xlink:title="FBLibrary.Core.PlayerStats">
<polygon fill="white" stroke="black" points="98,-80.5 98,-99.5 234,-99.5 234,-80.5 98,-80.5"/>
<text text-anchor="middle" x="166" y="-87.5" font-family="Helvetica,sans-Serif" font-size="10.00">FBLibrary.Core.PlayerStats</text>
</a>
</g>
</g>
<!-- Node5&#45;&gt;Node1 -->
<g id="edge4" class="edge"><title>Node5&#45;&gt;Node1</title>
<path fill="none" stroke="#9a32cd" stroke-dasharray="5,2" d="M158.091,-71.2038C152.614,-58.8816 145.421,-42.6978 140.325,-31.2316"/>
<polygon fill="#9a32cd" stroke="#9a32cd" points="154.944,-72.7413 162.204,-80.4579 161.34,-69.8983 154.944,-72.7413"/>
<text text-anchor="middle" x="166.5" y="-53.5" font-family="Helvetica,sans-Serif" font-size="10.00"> Stats</text>
</g>
</g>
</svg>
