<?xml version="1.0" encoding="UTF-8" standalone="no"?>
<!DOCTYPE svg PUBLIC "-//W3C//DTD SVG 1.1//EN"
 "http://www.w3.org/Graphics/SVG/1.1/DTD/svg11.dtd">
<!-- Generated by graphviz version 2.34.0 (20130907.0111)
 -->
<!-- Title: FBServer.Core.Entities.Bomb Pages: 1 -->
<svg width="281pt" height="1000pt"
 viewBox="0.00 0.00 281.00 1000.00" xmlns="http://www.w3.org/2000/svg" xmlns:xlink="http://www.w3.org/1999/xlink">
<g id="graph0" class="graph" transform="scale(1 1) rotate(0) translate(4 996)">
<title>FBServer.Core.Entities.Bomb</title>
<polygon fill="white" stroke="white" points="-4,4 -4,-996 277,-996 277,4 -4,4"/>
<!-- Node1 -->
<g id="node1" class="node"><title>Node1</title>
<polygon fill="#bfbfbf" stroke="black" points="70,-1 70,-91 214,-91 214,-1 70,-1"/>
<text text-anchor="middle" x="142" y="-79" font-family="Helvetica,sans-Serif" font-size="10.00">FBServer.Core.Entities.Bomb</text>
<polyline fill="none" stroke="black" points="70,-72 214,-72 "/>
<text text-anchor="middle" x="142" y="-60" font-family="Helvetica,sans-Serif" font-size="10.00"> </text>
<polyline fill="none" stroke="black" points="70,-53 214,-53 "/>
<text text-anchor="start" x="78" y="-41" font-family="Helvetica,sans-Serif" font-size="10.00">+ Bomb()</text>
<text text-anchor="start" x="78" y="-30" font-family="Helvetica,sans-Serif" font-size="10.00">+ Update()</text>
<text text-anchor="start" x="78" y="-19" font-family="Helvetica,sans-Serif" font-size="10.00">+ Destroy()</text>
<text text-anchor="start" x="78" y="-8" font-family="Helvetica,sans-Serif" font-size="10.00">+ Remove()</text>
</g>
<!-- Node2 -->
<g id="node2" class="node"><title>Node2</title>
<g id="a_node2"><a xlink:href="class_f_b_library_1_1_core_1_1_base_entities_1_1_base_bomb.html" target="_top" xlink:title="{BaseBomb\n|+ PlayerId\l+ Timer\l+ TimerLenght\l+ ActionField\l# Power\l# WillExplode\l# HazardMap\l|+ Initialize()\l+ Update()\l+ ChangeSpeed()\l+ ResetTimer()\l+ Destroy()\l# BaseBomb()\l# ComputeActionField()\l}">
<polygon fill="white" stroke="black" points="82.5,-130.5 82.5,-319.5 201.5,-319.5 201.5,-130.5 82.5,-130.5"/>
<text text-anchor="middle" x="142" y="-307.5" font-family="Helvetica,sans-Serif" font-size="10.00">BaseBomb</text>
<polyline fill="none" stroke="black" points="82.5,-300.5 201.5,-300.5 "/>
<text text-anchor="start" x="90.5" y="-288.5" font-family="Helvetica,sans-Serif" font-size="10.00">+ PlayerId</text>
<text text-anchor="start" x="90.5" y="-277.5" font-family="Helvetica,sans-Serif" font-size="10.00">+ Timer</text>
<text text-anchor="start" x="90.5" y="-266.5" font-family="Helvetica,sans-Serif" font-size="10.00">+ TimerLenght</text>
<text text-anchor="start" x="90.5" y="-255.5" font-family="Helvetica,sans-Serif" font-size="10.00">+ ActionField</text>
<text text-anchor="start" x="90.5" y="-244.5" font-family="Helvetica,sans-Serif" font-size="10.00"># Power</text>
<text text-anchor="start" x="90.5" y="-233.5" font-family="Helvetica,sans-Serif" font-size="10.00"># WillExplode</text>
<text text-anchor="start" x="90.5" y="-222.5" font-family="Helvetica,sans-Serif" font-size="10.00"># HazardMap</text>
<polyline fill="none" stroke="black" points="82.5,-215.5 201.5,-215.5 "/>
<text text-anchor="start" x="90.5" y="-203.5" font-family="Helvetica,sans-Serif" font-size="10.00">+ Initialize()</text>
<text text-anchor="start" x="90.5" y="-192.5" font-family="Helvetica,sans-Serif" font-size="10.00">+ Update()</text>
<text text-anchor="start" x="90.5" y="-181.5" font-family="Helvetica,sans-Serif" font-size="10.00">+ ChangeSpeed()</text>
<text text-anchor="start" x="90.5" y="-170.5" font-family="Helvetica,sans-Serif" font-size="10.00">+ ResetTimer()</text>
<text text-anchor="start" x="90.5" y="-159.5" font-family="Helvetica,sans-Serif" font-size="10.00">+ Destroy()</text>
<text text-anchor="start" x="90.5" y="-148.5" font-family="Helvetica,sans-Serif" font-size="10.00"># BaseBomb()</text>
<text text-anchor="start" x="90.5" y="-137.5" font-family="Helvetica,sans-Serif" font-size="10.00"># ComputeActionField()</text>
</a>
</g>
</g>
<!-- Node2&#45;&gt;Node1 -->
<g id="edge1" class="edge"><title>Node2&#45;&gt;Node1</title>
<path fill="none" stroke="midnightblue" d="M142,-120.168C142,-110.091 142,-100.287 142,-91.3006"/>
<polygon fill="none" stroke="midnightblue" points="138.5,-120.317 142,-130.317 145.5,-120.317 138.5,-120.317"/>
</g>
<!-- Node3 -->
<g id="node3" class="node"><title>Node3</title>
<g id="a_node3"><a xlink:href="class_f_b_library_1_1_core_1_1_dynamic_entity.html" target="_top" xlink:title="{DynamicEntity\n|+ CurrentDirection\l+ Speed\l+ Velocity\l# PreviousCellPosition\l# PreviousDirection\l# IsMoving\l|+ Update()\l# DynamicEntity()\l# DynamicEntity()\l# IsChangingCell()\l}">
<polygon fill="white" stroke="black" points="-0.5,-412.5 -0.5,-557.5 112.5,-557.5 112.5,-412.5 -0.5,-412.5"/>
<text text-anchor="middle" x="56" y="-545.5" font-family="Helvetica,sans-Serif" font-size="10.00">DynamicEntity</text>
<polyline fill="none" stroke="black" points="-0.5,-538.5 112.5,-538.5 "/>
<text text-anchor="start" x="7.5" y="-526.5" font-family="Helvetica,sans-Serif" font-size="10.00">+ CurrentDirection</text>
<text text-anchor="start" x="7.5" y="-515.5" font-family="Helvetica,sans-Serif" font-size="10.00">+ Speed</text>
<text text-anchor="start" x="7.5" y="-504.5" font-family="Helvetica,sans-Serif" font-size="10.00">+ Velocity</text>
<text text-anchor="start" x="7.5" y="-493.5" font-family="Helvetica,sans-Serif" font-size="10.00"># PreviousCellPosition</text>
<text text-anchor="start" x="7.5" y="-482.5" font-family="Helvetica,sans-Serif" font-size="10.00"># PreviousDirection</text>
<text text-anchor="start" x="7.5" y="-471.5" font-family="Helvetica,sans-Serif" font-size="10.00"># IsMoving</text>
<polyline fill="none" stroke="black" points="-0.5,-464.5 112.5,-464.5 "/>
<text text-anchor="start" x="7.5" y="-452.5" font-family="Helvetica,sans-Serif" font-size="10.00">+ Update()</text>
<text text-anchor="start" x="7.5" y="-441.5" font-family="Helvetica,sans-Serif" font-size="10.00"># DynamicEntity()</text>
<text text-anchor="start" x="7.5" y="-430.5" font-family="Helvetica,sans-Serif" font-size="10.00"># DynamicEntity()</text>
<text text-anchor="start" x="7.5" y="-419.5" font-family="Helvetica,sans-Serif" font-size="10.00"># IsChangingCell()</text>
</a>
</g>
</g>
<!-- Node3&#45;&gt;Node2 -->
<g id="edge2" class="edge"><title>Node3&#45;&gt;Node2</title>
<path fill="none" stroke="midnightblue" d="M83.0268,-402.92C91.8085,-376.574 101.626,-347.121 110.694,-319.919"/>
<polygon fill="none" stroke="midnightblue" points="79.6835,-401.882 79.8416,-412.475 86.3243,-404.095 79.6835,-401.882"/>
</g>
<!-- Node4 -->
<g id="node4" class="node"><title>Node4</title>
<g id="a_node4"><a xlink:href="class_f_b_library_1_1_core_1_1_base_entity.html" target="_top" xlink:title="{BaseEntity\n|+ IsAlive\l+ InDestruction\l+ DestructionTime\l+ Position\l+ PositionX\l+ PositionY\l+ CellPositionX\l+ CellPositionY\l+ CellPosition\l+ Dimension\l|+ Update()\l+ ChangePosition()\l+ ChangePosition()\l+ ChangePosition()\l+ Destroy()\l+ Remove()\l# BaseEntity()\l# BaseEntity()\l}">
<polygon fill="white" stroke="black" points="6,-650.5 6,-883.5 106,-883.5 106,-650.5 6,-650.5"/>
<text text-anchor="middle" x="56" y="-871.5" font-family="Helvetica,sans-Serif" font-size="10.00">BaseEntity</text>
<polyline fill="none" stroke="black" points="6,-864.5 106,-864.5 "/>
<text text-anchor="start" x="14" y="-852.5" font-family="Helvetica,sans-Serif" font-size="10.00">+ IsAlive</text>
<text text-anchor="start" x="14" y="-841.5" font-family="Helvetica,sans-Serif" font-size="10.00">+ InDestruction</text>
<text text-anchor="start" x="14" y="-830.5" font-family="Helvetica,sans-Serif" font-size="10.00">+ DestructionTime</text>
<text text-anchor="start" x="14" y="-819.5" font-family="Helvetica,sans-Serif" font-size="10.00">+ Position</text>
<text text-anchor="start" x="14" y="-808.5" font-family="Helvetica,sans-Serif" font-size="10.00">+ PositionX</text>
<text text-anchor="start" x="14" y="-797.5" font-family="Helvetica,sans-Serif" font-size="10.00">+ PositionY</text>
<text text-anchor="start" x="14" y="-786.5" font-family="Helvetica,sans-Serif" font-size="10.00">+ CellPositionX</text>
<text text-anchor="start" x="14" y="-775.5" font-family="Helvetica,sans-Serif" font-size="10.00">+ CellPositionY</text>
<text text-anchor="start" x="14" y="-764.5" font-family="Helvetica,sans-Serif" font-size="10.00">+ CellPosition</text>
<text text-anchor="start" x="14" y="-753.5" font-family="Helvetica,sans-Serif" font-size="10.00">+ Dimension</text>
<polyline fill="none" stroke="black" points="6,-746.5 106,-746.5 "/>
<text text-anchor="start" x="14" y="-734.5" font-family="Helvetica,sans-Serif" font-size="10.00">+ Update()</text>
<text text-anchor="start" x="14" y="-723.5" font-family="Helvetica,sans-Serif" font-size="10.00">+ ChangePosition()</text>
<text text-anchor="start" x="14" y="-712.5" font-family="Helvetica,sans-Serif" font-size="10.00">+ ChangePosition()</text>
<text text-anchor="start" x="14" y="-701.5" font-family="Helvetica,sans-Serif" font-size="10.00">+ ChangePosition()</text>
<text text-anchor="start" x="14" y="-690.5" font-family="Helvetica,sans-Serif" font-size="10.00">+ Destroy()</text>
<text text-anchor="start" x="14" y="-679.5" font-family="Helvetica,sans-Serif" font-size="10.00">+ Remove()</text>
<text text-anchor="start" x="14" y="-668.5" font-family="Helvetica,sans-Serif" font-size="10.00"># BaseEntity()</text>
<text text-anchor="start" x="14" y="-657.5" font-family="Helvetica,sans-Serif" font-size="10.00"># BaseEntity()</text>
</a>
</g>
</g>
<!-- Node4&#45;&gt;Node3 -->
<g id="edge3" class="edge"><title>Node4&#45;&gt;Node3</title>
<path fill="none" stroke="midnightblue" d="M56,-640.486C56,-612.066 56,-582.842 56,-557.565"/>
<polygon fill="none" stroke="midnightblue" points="52.5001,-640.497 56,-650.497 59.5001,-640.497 52.5001,-640.497"/>
</g>
<!-- Node5 -->
<g id="node5" class="node"><title>Node5</title>
<g id="a_node5"><a xlink:href="interface_f_b_library_1_1_core_1_1_i_entity.html" target="_top" xlink:title="{IEntity\n||+ Destroy()\l+ Remove()\l}">
<polygon fill="white" stroke="black" points="23,-923 23,-991 89,-991 89,-923 23,-923"/>
<text text-anchor="middle" x="56" y="-979" font-family="Helvetica,sans-Serif" font-size="10.00">IEntity</text>
<polyline fill="none" stroke="black" points="23,-972 89,-972 "/>
<text text-anchor="middle" x="56" y="-960" font-family="Helvetica,sans-Serif" font-size="10.00"> </text>
<polyline fill="none" stroke="black" points="23,-953 89,-953 "/>
<text text-anchor="start" x="31" y="-941" font-family="Helvetica,sans-Serif" font-size="10.00">+ Destroy()</text>
<text text-anchor="start" x="31" y="-930" font-family="Helvetica,sans-Serif" font-size="10.00">+ Remove()</text>
</a>
</g>
</g>
<!-- Node5&#45;&gt;Node4 -->
<g id="edge4" class="edge"><title>Node5&#45;&gt;Node4</title>
<path fill="none" stroke="midnightblue" d="M56,-912.752C56,-903.805 56,-893.982 56,-883.797"/>
<polygon fill="none" stroke="midnightblue" points="52.5001,-912.822 56,-922.822 59.5001,-912.822 52.5001,-912.822"/>
</g>
<!-- Node6 -->
<g id="node6" class="node"><title>Node6</title>
<g id="a_node6"><a xlink:href="class_f_b_library_1_1_core_1_1_base_entities_1_1_base_map.html" target="_top" xlink:title="{FBLibrary.Core.BaseEntities.\lBaseMap\n|+ Name\l+ Loaded\l+ Size\l+ CollisionLayer\l+ PlayerSpawnPoints\l+ PlayerNumber\l|+ Reset()\l+ Parse()\l+ FindEmptyCells()\l+ GetMd5()\l+ DisplayBoard()\l+ DisplayCollisionLayer()\l# BaseMap()\l# AddUnbreakableWall()\l# AddUnbreakableWall()\l# AddEdgeWall()\l# AddEdgeWall()\l}">
<polygon fill="white" stroke="black" points="130.5,-368.5 130.5,-601.5 273.5,-601.5 273.5,-368.5 130.5,-368.5"/>
<text text-anchor="start" x="138.5" y="-589.5" font-family="Helvetica,sans-Serif" font-size="10.00">FBLibrary.Core.BaseEntities.</text>
<text text-anchor="middle" x="202" y="-578.5" font-family="Helvetica,sans-Serif" font-size="10.00">BaseMap</text>
<polyline fill="none" stroke="black" points="130.5,-571.5 273.5,-571.5 "/>
<text text-anchor="start" x="138.5" y="-559.5" font-family="Helvetica,sans-Serif" font-size="10.00">+ Name</text>
<text text-anchor="start" x="138.5" y="-548.5" font-family="Helvetica,sans-Serif" font-size="10.00">+ Loaded</text>
<text text-anchor="start" x="138.5" y="-537.5" font-family="Helvetica,sans-Serif" font-size="10.00">+ Size</text>
<text text-anchor="start" x="138.5" y="-526.5" font-family="Helvetica,sans-Serif" font-size="10.00">+ CollisionLayer</text>
<text text-anchor="start" x="138.5" y="-515.5" font-family="Helvetica,sans-Serif" font-size="10.00">+ PlayerSpawnPoints</text>
<text text-anchor="start" x="138.5" y="-504.5" font-family="Helvetica,sans-Serif" font-size="10.00">+ PlayerNumber</text>
<polyline fill="none" stroke="black" points="130.5,-497.5 273.5,-497.5 "/>
<text text-anchor="start" x="138.5" y="-485.5" font-family="Helvetica,sans-Serif" font-size="10.00">+ Reset()</text>
<text text-anchor="start" x="138.5" y="-474.5" font-family="Helvetica,sans-Serif" font-size="10.00">+ Parse()</text>
<text text-anchor="start" x="138.5" y="-463.5" font-family="Helvetica,sans-Serif" font-size="10.00">+ FindEmptyCells()</text>
<text text-anchor="start" x="138.5" y="-452.5" font-family="Helvetica,sans-Serif" font-size="10.00">+ GetMd5()</text>
<text text-anchor="start" x="138.5" y="-441.5" font-family="Helvetica,sans-Serif" font-size="10.00">+ DisplayBoard()</text>
<text text-anchor="start" x="138.5" y="-430.5" font-family="Helvetica,sans-Serif" font-size="10.00">+ DisplayCollisionLayer()</text>
<text text-anchor="start" x="138.5" y="-419.5" font-family="Helvetica,sans-Serif" font-size="10.00"># BaseMap()</text>
<text text-anchor="start" x="138.5" y="-408.5" font-family="Helvetica,sans-Serif" font-size="10.00"># AddUnbreakableWall()</text>
<text text-anchor="start" x="138.5" y="-397.5" font-family="Helvetica,sans-Serif" font-size="10.00"># AddUnbreakableWall()</text>
<text text-anchor="start" x="138.5" y="-386.5" font-family="Helvetica,sans-Serif" font-size="10.00"># AddEdgeWall()</text>
<text text-anchor="start" x="138.5" y="-375.5" font-family="Helvetica,sans-Serif" font-size="10.00"># AddEdgeWall()</text>
</a>
</g>
</g>
<!-- Node6&#45;&gt;Node2 -->
<g id="edge5" class="edge"><title>Node6&#45;&gt;Node2</title>
<path fill="none" stroke="#404040" d="M175.071,-368.207C172.244,-356.05 169.38,-343.735 166.581,-331.7"/>
<polygon fill="none" stroke="#404040" points="166.526,-331.463 161.271,-326.525 163.808,-319.775 169.063,-324.713 166.526,-331.463"/>
<text text-anchor="middle" x="185" y="-341.5" font-family="Helvetica,sans-Serif" font-size="10.00"> #Map</text>
</g>
<!-- Node7 -->
<g id="node7" class="node"><title>Node7</title>
<g id="a_node7"><a xlink:href="interface_f_b_library_1_1_core_1_1_i_entity.html" target="_top" xlink:title="{FBLibrary.Core.IEntity\n||+ Destroy()\l+ Remove()\l}">
<polygon fill="white" stroke="black" points="145.5,-733 145.5,-801 258.5,-801 258.5,-733 145.5,-733"/>
<text text-anchor="middle" x="202" y="-789" font-family="Helvetica,sans-Serif" font-size="10.00">FBLibrary.Core.IEntity</text>
<polyline fill="none" stroke="black" points="145.5,-782 258.5,-782 "/>
<text text-anchor="middle" x="202" y="-770" font-family="Helvetica,sans-Serif" font-size="10.00"> </text>
<polyline fill="none" stroke="black" points="145.5,-763 258.5,-763 "/>
<text text-anchor="start" x="153.5" y="-751" font-family="Helvetica,sans-Serif" font-size="10.00">+ Destroy()</text>
<text text-anchor="start" x="153.5" y="-740" font-family="Helvetica,sans-Serif" font-size="10.00">+ Remove()</text>
</a>
</g>
</g>
<!-- Node7&#45;&gt;Node6 -->
<g id="edge6" class="edge"><title>Node7&#45;&gt;Node6</title>
<path fill="none" stroke="#404040" d="M202,-732.781C202,-703.057 202,-657.523 202,-613.624"/>
<polygon fill="none" stroke="#404040" points="202,-613.604 198,-607.604 202,-601.604 206,-607.604 202,-613.604"/>
<text text-anchor="middle" x="219.5" y="-623.5" font-family="Helvetica,sans-Serif" font-size="10.00"> +Board</text>
</g>
</g>
</svg>
