<?xml version="1.0" encoding="UTF-8" standalone="no"?>
<!DOCTYPE svg PUBLIC "-//W3C//DTD SVG 1.1//EN"
 "http://www.w3.org/Graphics/SVG/1.1/DTD/svg11.dtd">
<!-- Generated by graphviz version 2.34.0 (20130907.0111)
 -->
<!-- Title: FBServer.Host.HostGame Pages: 1 -->
<svg width="157pt" height="302pt"
 viewBox="0.00 0.00 157.00 302.00" xmlns="http://www.w3.org/2000/svg" xmlns:xlink="http://www.w3.org/1999/xlink">
<g id="graph0" class="graph" transform="scale(1 1) rotate(0) translate(4 298)">
<title>FBServer.Host.HostGame</title>
<polygon fill="white" stroke="white" points="-4,4 -4,-298 153,-298 153,4 -4,4"/>
<!-- Node1 -->
<g id="node1" class="node"><title>Node1</title>
<polygon fill="#bfbfbf" stroke="black" points="8.5,-0.5 8.5,-19.5 137.5,-19.5 137.5,-0.5 8.5,-0.5"/>
<text text-anchor="middle" x="73" y="-7.5" font-family="Helvetica,sans-Serif" font-size="10.00">FBServer.Host.HostGame</text>
</g>
<!-- Node2 -->
<g id="node2" class="node"><title>Node2</title>
<g id="a_node2"><a xlink:href="class_f_b_server_1_1_core_1_1_game_manager.html" target="_top" xlink:title="FBServer.Core.GameManager">
<polygon fill="white" stroke="black" points="0,-68.5 0,-87.5 146,-87.5 146,-68.5 0,-68.5"/>
<text text-anchor="middle" x="73" y="-75.5" font-family="Helvetica,sans-Serif" font-size="10.00">FBServer.Core.GameManager</text>
</a>
</g>
</g>
<!-- Node2&#45;&gt;Node1 -->
<g id="edge1" class="edge"><title>Node2&#45;&gt;Node1</title>
<path fill="none" stroke="#9a32cd" stroke-dasharray="5,2" d="M73,-58.0413C73,-45.4724 73,-29.5631 73,-19.8411"/>
<polygon fill="#9a32cd" stroke="#9a32cd" points="69.5001,-58.3716 73,-68.3717 76.5001,-58.3717 69.5001,-58.3716"/>
<text text-anchor="middle" x="106.5" y="-41.5" font-family="Helvetica,sans-Serif" font-size="10.00"> GameManager</text>
</g>
<!-- Node3 -->
<g id="node3" class="node"><title>Node3</title>
<g id="a_node3"><a xlink:href="class_f_b_library_1_1_core_1_1_base_game_manager.html" target="_top" xlink:title="BaseGameManager">
<polygon fill="white" stroke="black" points="21.5,-126.5 21.5,-145.5 124.5,-145.5 124.5,-126.5 21.5,-126.5"/>
<text text-anchor="middle" x="73" y="-133.5" font-family="Helvetica,sans-Serif" font-size="10.00">BaseGameManager</text>
</a>
</g>
</g>
<!-- Node3&#45;&gt;Node2 -->
<g id="edge2" class="edge"><title>Node3&#45;&gt;Node2</title>
<path fill="none" stroke="midnightblue" d="M73,-115.953C73,-106.287 73,-95.0312 73,-87.5052"/>
<polygon fill="midnightblue" stroke="midnightblue" points="69.5001,-116.25 73,-126.25 76.5001,-116.25 69.5001,-116.25"/>
</g>
<!-- Node4 -->
<g id="node4" class="node"><title>Node4</title>
<g id="a_node4"><a xlink:href="class_f_b_library_1_1_core_1_1_base_entities_1_1_base_map.html" target="_top" xlink:title="FBLibrary.Core.BaseEntities.\lBaseMap">
<polygon fill="white" stroke="black" points="1.5,-195 1.5,-225 144.5,-225 144.5,-195 1.5,-195"/>
<text text-anchor="start" x="9.5" y="-213" font-family="Helvetica,sans-Serif" font-size="10.00">FBLibrary.Core.BaseEntities.</text>
<text text-anchor="middle" x="73" y="-202" font-family="Helvetica,sans-Serif" font-size="10.00">BaseMap</text>
</a>
</g>
</g>
<!-- Node4&#45;&gt;Node3 -->
<g id="edge3" class="edge"><title>Node4&#45;&gt;Node3</title>
<path fill="none" stroke="#9a32cd" stroke-dasharray="5,2" d="M73,-184.688C73,-171.253 73,-155.38 73,-145.759"/>
<polygon fill="#9a32cd" stroke="#9a32cd" points="69.5001,-184.775 73,-194.775 76.5001,-184.775 69.5001,-184.775"/>
<text text-anchor="middle" x="111" y="-167.5" font-family="Helvetica,sans-Serif" font-size="10.00"> BaseCurrentMap</text>
</g>
<!-- Node5 -->
<g id="node5" class="node"><title>Node5</title>
<g id="a_node5"><a xlink:href="interface_f_b_library_1_1_core_1_1_i_entity.html" target="_top" xlink:title="FBLibrary.Core.IEntity">
<polygon fill="white" stroke="black" points="16.5,-274.5 16.5,-293.5 129.5,-293.5 129.5,-274.5 16.5,-274.5"/>
<text text-anchor="middle" x="73" y="-281.5" font-family="Helvetica,sans-Serif" font-size="10.00">FBLibrary.Core.IEntity</text>
</a>
</g>
</g>
<!-- Node5&#45;&gt;Node4 -->
<g id="edge4" class="edge"><title>Node5&#45;&gt;Node4</title>
<path fill="none" stroke="#9a32cd" stroke-dasharray="5,2" d="M73,-264.085C73,-251.915 73,-236.354 73,-225.232"/>
<polygon fill="#9a32cd" stroke="#9a32cd" points="69.5001,-264.458 73,-274.458 76.5001,-264.458 69.5001,-264.458"/>
<text text-anchor="middle" x="87.5" y="-247.5" font-family="Helvetica,sans-Serif" font-size="10.00"> Board</text>
</g>
</g>
</svg>
