<?xml version="1.0" encoding="UTF-8" standalone="no"?>
<!DOCTYPE svg PUBLIC "-//W3C//DTD SVG 1.1//EN"
 "http://www.w3.org/Graphics/SVG/1.1/DTD/svg11.dtd">
<!-- Generated by graphviz version 2.34.0 (20130907.0111)
 -->
<!-- Title: FBLibrary.Core.BaseGameManager Pages: 1 -->
<svg width="178pt" height="176pt"
 viewBox="0.00 0.00 178.00 176.00" xmlns="http://www.w3.org/2000/svg" xmlns:xlink="http://www.w3.org/1999/xlink">
<g id="graph0" class="graph" transform="scale(1 1) rotate(0) translate(4 172)">
<title>FBLibrary.Core.BaseGameManager</title>
<polygon fill="white" stroke="white" points="-4,4 -4,-172 174,-172 174,4 -4,4"/>
<!-- Node1 -->
<g id="node1" class="node"><title>Node1</title>
<polygon fill="#bfbfbf" stroke="black" points="-0.5,-0.5 -0.5,-19.5 170.5,-19.5 170.5,-0.5 -0.5,-0.5"/>
<text text-anchor="middle" x="85" y="-7.5" font-family="Helvetica,sans-Serif" font-size="10.00">FBLibrary.Core.BaseGameManager</text>
</g>
<!-- Node2 -->
<g id="node2" class="node"><title>Node2</title>
<g id="a_node2"><a xlink:href="class_f_b_library_1_1_core_1_1_base_entities_1_1_base_map.html" target="_top" xlink:title="FBLibrary.Core.BaseEntities.\lBaseMap">
<polygon fill="white" stroke="black" points="13.5,-69 13.5,-99 156.5,-99 156.5,-69 13.5,-69"/>
<text text-anchor="start" x="21.5" y="-87" font-family="Helvetica,sans-Serif" font-size="10.00">FBLibrary.Core.BaseEntities.</text>
<text text-anchor="middle" x="85" y="-76" font-family="Helvetica,sans-Serif" font-size="10.00">BaseMap</text>
</a>
</g>
</g>
<!-- Node2&#45;&gt;Node1 -->
<g id="edge1" class="edge"><title>Node2&#45;&gt;Node1</title>
<path fill="none" stroke="#9a32cd" stroke-dasharray="5,2" d="M85,-58.6883C85,-45.2526 85,-29.3805 85,-19.7589"/>
<polygon fill="#9a32cd" stroke="#9a32cd" points="81.5001,-58.7751 85,-68.7751 88.5001,-58.7752 81.5001,-58.7751"/>
<text text-anchor="middle" x="123" y="-41.5" font-family="Helvetica,sans-Serif" font-size="10.00"> BaseCurrentMap</text>
</g>
<!-- Node3 -->
<g id="node3" class="node"><title>Node3</title>
<g id="a_node3"><a xlink:href="interface_f_b_library_1_1_core_1_1_i_entity.html" target="_top" xlink:title="FBLibrary.Core.IEntity">
<polygon fill="white" stroke="black" points="28.5,-148.5 28.5,-167.5 141.5,-167.5 141.5,-148.5 28.5,-148.5"/>
<text text-anchor="middle" x="85" y="-155.5" font-family="Helvetica,sans-Serif" font-size="10.00">FBLibrary.Core.IEntity</text>
</a>
</g>
</g>
<!-- Node3&#45;&gt;Node2 -->
<g id="edge2" class="edge"><title>Node3&#45;&gt;Node2</title>
<path fill="none" stroke="#9a32cd" stroke-dasharray="5,2" d="M85,-138.085C85,-125.915 85,-110.354 85,-99.2316"/>
<polygon fill="#9a32cd" stroke="#9a32cd" points="81.5001,-138.458 85,-148.458 88.5001,-138.458 81.5001,-138.458"/>
<text text-anchor="middle" x="99.5" y="-121.5" font-family="Helvetica,sans-Serif" font-size="10.00"> Board</text>
</g>
</g>
</svg>
