<?xml version="1.0" encoding="UTF-8" standalone="no"?>
<!DOCTYPE svg PUBLIC "-//W3C//DTD SVG 1.1//EN"
 "http://www.w3.org/Graphics/SVG/1.1/DTD/svg11.dtd">
<!-- Generated by graphviz version 2.34.0 (20130907.0111)
 -->
<!-- Title: FBClient.Core.Entities.Bomb Pages: 1 -->
<svg width="150pt" height="918pt"
 viewBox="0.00 0.00 150.00 918.00" xmlns="http://www.w3.org/2000/svg" xmlns:xlink="http://www.w3.org/1999/xlink">
<g id="graph0" class="graph" transform="scale(1 1) rotate(0) translate(4 914)">
<title>FBClient.Core.Entities.Bomb</title>
<polygon fill="white" stroke="white" points="-4,4 -4,-914 146,-914 146,4 -4,4"/>
<!-- Node1 -->
<g id="node1" class="node"><title>Node1</title>
<polygon fill="#bfbfbf" stroke="black" points="0,-1 0,-113 142,-113 142,-1 0,-1"/>
<text text-anchor="middle" x="71" y="-101" font-family="Helvetica,sans-Serif" font-size="10.00">FBClient.Core.Entities.Bomb</text>
<polyline fill="none" stroke="black" points="0,-94 142,-94 "/>
<text text-anchor="start" x="8" y="-82" font-family="Helvetica,sans-Serif" font-size="10.00">+ Sprite</text>
<polyline fill="none" stroke="black" points="0,-75 142,-75 "/>
<text text-anchor="start" x="8" y="-63" font-family="Helvetica,sans-Serif" font-size="10.00">+ Bomb()</text>
<text text-anchor="start" x="8" y="-52" font-family="Helvetica,sans-Serif" font-size="10.00">+ Update()</text>
<text text-anchor="start" x="8" y="-41" font-family="Helvetica,sans-Serif" font-size="10.00">+ Draw()</text>
<text text-anchor="start" x="8" y="-30" font-family="Helvetica,sans-Serif" font-size="10.00">+ ChangeDirection()</text>
<text text-anchor="start" x="8" y="-19" font-family="Helvetica,sans-Serif" font-size="10.00">+ Destroy()</text>
<text text-anchor="start" x="8" y="-8" font-family="Helvetica,sans-Serif" font-size="10.00">+ Remove()</text>
</g>
<!-- Node2 -->
<g id="node2" class="node"><title>Node2</title>
<g id="a_node2"><a xlink:href="class_f_b_library_1_1_core_1_1_base_entities_1_1_base_bomb.html" target="_top" xlink:title="{BaseBomb\n|+ PlayerId\l+ Timer\l+ TimerLenght\l+ ActionField\l# Power\l# WillExplode\l# Map\l# HazardMap\l|+ Initialize()\l+ Update()\l+ ChangeSpeed()\l+ ResetTimer()\l+ Destroy()\l# BaseBomb()\l# ComputeActionField()\l}">
<polygon fill="white" stroke="black" points="11.5,-151 11.5,-351 130.5,-351 130.5,-151 11.5,-151"/>
<text text-anchor="middle" x="71" y="-339" font-family="Helvetica,sans-Serif" font-size="10.00">BaseBomb</text>
<polyline fill="none" stroke="black" points="11.5,-332 130.5,-332 "/>
<text text-anchor="start" x="19.5" y="-320" font-family="Helvetica,sans-Serif" font-size="10.00">+ PlayerId</text>
<text text-anchor="start" x="19.5" y="-309" font-family="Helvetica,sans-Serif" font-size="10.00">+ Timer</text>
<text text-anchor="start" x="19.5" y="-298" font-family="Helvetica,sans-Serif" font-size="10.00">+ TimerLenght</text>
<text text-anchor="start" x="19.5" y="-287" font-family="Helvetica,sans-Serif" font-size="10.00">+ ActionField</text>
<text text-anchor="start" x="19.5" y="-276" font-family="Helvetica,sans-Serif" font-size="10.00"># Power</text>
<text text-anchor="start" x="19.5" y="-265" font-family="Helvetica,sans-Serif" font-size="10.00"># WillExplode</text>
<text text-anchor="start" x="19.5" y="-254" font-family="Helvetica,sans-Serif" font-size="10.00"># Map</text>
<text text-anchor="start" x="19.5" y="-243" font-family="Helvetica,sans-Serif" font-size="10.00"># HazardMap</text>
<polyline fill="none" stroke="black" points="11.5,-236 130.5,-236 "/>
<text text-anchor="start" x="19.5" y="-224" font-family="Helvetica,sans-Serif" font-size="10.00">+ Initialize()</text>
<text text-anchor="start" x="19.5" y="-213" font-family="Helvetica,sans-Serif" font-size="10.00">+ Update()</text>
<text text-anchor="start" x="19.5" y="-202" font-family="Helvetica,sans-Serif" font-size="10.00">+ ChangeSpeed()</text>
<text text-anchor="start" x="19.5" y="-191" font-family="Helvetica,sans-Serif" font-size="10.00">+ ResetTimer()</text>
<text text-anchor="start" x="19.5" y="-180" font-family="Helvetica,sans-Serif" font-size="10.00">+ Destroy()</text>
<text text-anchor="start" x="19.5" y="-169" font-family="Helvetica,sans-Serif" font-size="10.00"># BaseBomb()</text>
<text text-anchor="start" x="19.5" y="-158" font-family="Helvetica,sans-Serif" font-size="10.00"># ComputeActionField()</text>
</a>
</g>
</g>
<!-- Node2&#45;&gt;Node1 -->
<g id="edge1" class="edge"><title>Node2&#45;&gt;Node1</title>
<path fill="none" stroke="midnightblue" d="M71,-140.868C71,-131.281 71,-121.871 71,-113.033"/>
<polygon fill="none" stroke="midnightblue" points="67.5001,-140.907 71,-150.907 74.5001,-140.907 67.5001,-140.907"/>
</g>
<!-- Node3 -->
<g id="node3" class="node"><title>Node3</title>
<g id="a_node3"><a xlink:href="class_f_b_library_1_1_core_1_1_dynamic_entity.html" target="_top" xlink:title="{DynamicEntity\n|+ CurrentDirection\l+ Speed\l+ Velocity\l# PreviousCellPosition\l# PreviousDirection\l# IsMoving\l|+ Update()\l# DynamicEntity()\l# DynamicEntity()\l# IsChangingCell()\l}">
<polygon fill="white" stroke="black" points="14.5,-388.5 14.5,-533.5 127.5,-533.5 127.5,-388.5 14.5,-388.5"/>
<text text-anchor="middle" x="71" y="-521.5" font-family="Helvetica,sans-Serif" font-size="10.00">DynamicEntity</text>
<polyline fill="none" stroke="black" points="14.5,-514.5 127.5,-514.5 "/>
<text text-anchor="start" x="22.5" y="-502.5" font-family="Helvetica,sans-Serif" font-size="10.00">+ CurrentDirection</text>
<text text-anchor="start" x="22.5" y="-491.5" font-family="Helvetica,sans-Serif" font-size="10.00">+ Speed</text>
<text text-anchor="start" x="22.5" y="-480.5" font-family="Helvetica,sans-Serif" font-size="10.00">+ Velocity</text>
<text text-anchor="start" x="22.5" y="-469.5" font-family="Helvetica,sans-Serif" font-size="10.00"># PreviousCellPosition</text>
<text text-anchor="start" x="22.5" y="-458.5" font-family="Helvetica,sans-Serif" font-size="10.00"># PreviousDirection</text>
<text text-anchor="start" x="22.5" y="-447.5" font-family="Helvetica,sans-Serif" font-size="10.00"># IsMoving</text>
<polyline fill="none" stroke="black" points="14.5,-440.5 127.5,-440.5 "/>
<text text-anchor="start" x="22.5" y="-428.5" font-family="Helvetica,sans-Serif" font-size="10.00">+ Update()</text>
<text text-anchor="start" x="22.5" y="-417.5" font-family="Helvetica,sans-Serif" font-size="10.00"># DynamicEntity()</text>
<text text-anchor="start" x="22.5" y="-406.5" font-family="Helvetica,sans-Serif" font-size="10.00"># DynamicEntity()</text>
<text text-anchor="start" x="22.5" y="-395.5" font-family="Helvetica,sans-Serif" font-size="10.00"># IsChangingCell()</text>
</a>
</g>
</g>
<!-- Node3&#45;&gt;Node2 -->
<g id="edge2" class="edge"><title>Node3&#45;&gt;Node2</title>
<path fill="none" stroke="midnightblue" d="M71,-378.169C71,-369.338 71,-360.282 71,-351.274"/>
<polygon fill="none" stroke="midnightblue" points="67.5001,-378.418 71,-388.418 74.5001,-378.418 67.5001,-378.418"/>
</g>
<!-- Node4 -->
<g id="node4" class="node"><title>Node4</title>
<g id="a_node4"><a xlink:href="class_f_b_library_1_1_core_1_1_base_entity.html" target="_top" xlink:title="{BaseEntity\n|+ IsAlive\l+ InDestruction\l+ DestructionTime\l+ Position\l+ PositionX\l+ PositionY\l+ CellPositionX\l+ CellPositionY\l+ CellPosition\l+ Dimension\l|+ Update()\l+ ChangePosition()\l+ ChangePosition()\l+ ChangePosition()\l+ Destroy()\l+ Remove()\l# BaseEntity()\l# BaseEntity()\l}">
<polygon fill="white" stroke="black" points="21,-570.5 21,-803.5 121,-803.5 121,-570.5 21,-570.5"/>
<text text-anchor="middle" x="71" y="-791.5" font-family="Helvetica,sans-Serif" font-size="10.00">BaseEntity</text>
<polyline fill="none" stroke="black" points="21,-784.5 121,-784.5 "/>
<text text-anchor="start" x="29" y="-772.5" font-family="Helvetica,sans-Serif" font-size="10.00">+ IsAlive</text>
<text text-anchor="start" x="29" y="-761.5" font-family="Helvetica,sans-Serif" font-size="10.00">+ InDestruction</text>
<text text-anchor="start" x="29" y="-750.5" font-family="Helvetica,sans-Serif" font-size="10.00">+ DestructionTime</text>
<text text-anchor="start" x="29" y="-739.5" font-family="Helvetica,sans-Serif" font-size="10.00">+ Position</text>
<text text-anchor="start" x="29" y="-728.5" font-family="Helvetica,sans-Serif" font-size="10.00">+ PositionX</text>
<text text-anchor="start" x="29" y="-717.5" font-family="Helvetica,sans-Serif" font-size="10.00">+ PositionY</text>
<text text-anchor="start" x="29" y="-706.5" font-family="Helvetica,sans-Serif" font-size="10.00">+ CellPositionX</text>
<text text-anchor="start" x="29" y="-695.5" font-family="Helvetica,sans-Serif" font-size="10.00">+ CellPositionY</text>
<text text-anchor="start" x="29" y="-684.5" font-family="Helvetica,sans-Serif" font-size="10.00">+ CellPosition</text>
<text text-anchor="start" x="29" y="-673.5" font-family="Helvetica,sans-Serif" font-size="10.00">+ Dimension</text>
<polyline fill="none" stroke="black" points="21,-666.5 121,-666.5 "/>
<text text-anchor="start" x="29" y="-654.5" font-family="Helvetica,sans-Serif" font-size="10.00">+ Update()</text>
<text text-anchor="start" x="29" y="-643.5" font-family="Helvetica,sans-Serif" font-size="10.00">+ ChangePosition()</text>
<text text-anchor="start" x="29" y="-632.5" font-family="Helvetica,sans-Serif" font-size="10.00">+ ChangePosition()</text>
<text text-anchor="start" x="29" y="-621.5" font-family="Helvetica,sans-Serif" font-size="10.00">+ ChangePosition()</text>
<text text-anchor="start" x="29" y="-610.5" font-family="Helvetica,sans-Serif" font-size="10.00">+ Destroy()</text>
<text text-anchor="start" x="29" y="-599.5" font-family="Helvetica,sans-Serif" font-size="10.00">+ Remove()</text>
<text text-anchor="start" x="29" y="-588.5" font-family="Helvetica,sans-Serif" font-size="10.00"># BaseEntity()</text>
<text text-anchor="start" x="29" y="-577.5" font-family="Helvetica,sans-Serif" font-size="10.00"># BaseEntity()</text>
</a>
</g>
</g>
<!-- Node4&#45;&gt;Node3 -->
<g id="edge3" class="edge"><title>Node4&#45;&gt;Node3</title>
<path fill="none" stroke="midnightblue" d="M71,-560.15C71,-551.114 71,-542.201 71,-533.649"/>
<polygon fill="none" stroke="midnightblue" points="67.5001,-560.391 71,-570.391 74.5001,-560.391 67.5001,-560.391"/>
</g>
<!-- Node5 -->
<g id="node5" class="node"><title>Node5</title>
<g id="a_node5"><a xlink:href="interface_f_b_library_1_1_core_1_1_i_entity.html" target="_top" xlink:title="{IEntity\n||+ Destroy()\l+ Remove()\l}">
<polygon fill="white" stroke="black" points="38,-841 38,-909 104,-909 104,-841 38,-841"/>
<text text-anchor="middle" x="71" y="-897" font-family="Helvetica,sans-Serif" font-size="10.00">IEntity</text>
<polyline fill="none" stroke="black" points="38,-890 104,-890 "/>
<text text-anchor="middle" x="71" y="-878" font-family="Helvetica,sans-Serif" font-size="10.00"> </text>
<polyline fill="none" stroke="black" points="38,-871 104,-871 "/>
<text text-anchor="start" x="46" y="-859" font-family="Helvetica,sans-Serif" font-size="10.00">+ Destroy()</text>
<text text-anchor="start" x="46" y="-848" font-family="Helvetica,sans-Serif" font-size="10.00">+ Remove()</text>
</a>
</g>
</g>
<!-- Node5&#45;&gt;Node4 -->
<g id="edge4" class="edge"><title>Node5&#45;&gt;Node4</title>
<path fill="none" stroke="midnightblue" d="M71,-830.601C71,-822.247 71,-813.139 71,-803.698"/>
<polygon fill="none" stroke="midnightblue" points="67.5001,-830.747 71,-840.747 74.5001,-830.747 67.5001,-830.747"/>
</g>
</g>
</svg>
