<?xml version="1.0" encoding="UTF-8" standalone="no"?>
<!DOCTYPE svg PUBLIC "-//W3C//DTD SVG 1.1//EN"
 "http://www.w3.org/Graphics/SVG/1.1/DTD/svg11.dtd">
<!-- Generated by graphviz version 2.34.0 (20130907.0111)
 -->
<!-- Title: FBClient.Entities.Player Pages: 1 -->
<svg width="906pt" height="175pt"
 viewBox="0.00 0.00 906.00 175.00" xmlns="http://www.w3.org/2000/svg" xmlns:xlink="http://www.w3.org/1999/xlink">
<g id="graph0" class="graph" transform="scale(1 1) rotate(0) translate(4 171)">
<title>FBClient.Entities.Player</title>
<polygon fill="white" stroke="white" points="-4,4 -4,-171 902,-171 902,4 -4,4"/>
<!-- Node1 -->
<g id="node1" class="node"><title>Node1</title>
<polygon fill="#bfbfbf" stroke="black" points="402.5,-78.5 402.5,-97.5 523.5,-97.5 523.5,-78.5 402.5,-78.5"/>
<text text-anchor="middle" x="463" y="-85.5" font-family="Helvetica,sans-Serif" font-size="10.00">FBClient.Entities.Player</text>
</g>
<!-- Node6 -->
<g id="node6" class="node"><title>Node6</title>
<polygon fill="white" stroke="#bfbfbf" points="560.5,-147.5 560.5,-166.5 713.5,-166.5 713.5,-147.5 560.5,-147.5"/>
<text text-anchor="middle" x="637" y="-154.5" font-family="Helvetica,sans-Serif" font-size="10.00">FBClient.Core.Players.AIPlayer</text>
</g>
<!-- Node1&#45;&gt;Node6 -->
<g id="edge5" class="edge"><title>Node1&#45;&gt;Node6</title>
<path fill="none" stroke="midnightblue" d="M489.043,-102.666C508.028,-113.314 535.025,-127.467 560,-137 570.58,-141.038 582.288,-144.56 593.281,-147.476"/>
<polygon fill="midnightblue" stroke="midnightblue" points="490.578,-99.5124 480.155,-97.6086 487.116,-105.596 490.578,-99.5124"/>
</g>
<!-- Node7 -->
<g id="node7" class="node"><title>Node7</title>
<g id="a_node7"><a xlink:href="class_f_b_client_1_1_core_1_1_players_1_1_base_human_player.html" target="_top" xlink:title="FBClient.Core.Players.Base\lHumanPlayer">
<polygon fill="white" stroke="black" points="567.5,-98 567.5,-128 706.5,-128 706.5,-98 567.5,-98"/>
<text text-anchor="start" x="575.5" y="-116" font-family="Helvetica,sans-Serif" font-size="10.00">FBClient.Core.Players.Base</text>
<text text-anchor="middle" x="637" y="-105" font-family="Helvetica,sans-Serif" font-size="10.00">HumanPlayer</text>
</a>
</g>
</g>
<!-- Node1&#45;&gt;Node7 -->
<g id="edge6" class="edge"><title>Node1&#45;&gt;Node7</title>
<path fill="none" stroke="midnightblue" d="M533.716,-98.1331C544.789,-99.7425 556.235,-101.406 567.284,-103.012"/>
<polygon fill="midnightblue" stroke="midnightblue" points="534.074,-94.6485 523.675,-96.6736 533.067,-101.576 534.074,-94.6485"/>
</g>
<!-- Node10 -->
<g id="node10" class="node"><title>Node10</title>
<polygon fill="white" stroke="#bfbfbf" points="563.5,-49 563.5,-79 710.5,-79 710.5,-49 563.5,-49"/>
<text text-anchor="start" x="571.5" y="-67" font-family="Helvetica,sans-Serif" font-size="10.00">FBClient.Core.Players.Human</text>
<text text-anchor="middle" x="637" y="-56" font-family="Helvetica,sans-Serif" font-size="10.00">Player_OLD</text>
</g>
<!-- Node1&#45;&gt;Node10 -->
<g id="edge9" class="edge"><title>Node1&#45;&gt;Node10</title>
<path fill="none" stroke="midnightblue" d="M533.73,-78.2702C543.502,-76.9067 553.564,-75.5027 563.388,-74.132"/>
<polygon fill="midnightblue" stroke="midnightblue" points="533.095,-74.8249 523.675,-79.6733 534.062,-81.7577 533.095,-74.8249"/>
</g>
<!-- Node11 -->
<g id="node11" class="node"><title>Node11</title>
<polygon fill="white" stroke="#bfbfbf" points="565,-0 565,-30 709,-30 709,-0 565,-0"/>
<text text-anchor="start" x="573" y="-18" font-family="Helvetica,sans-Serif" font-size="10.00">FBClient.Core.Players.Online</text>
<text text-anchor="middle" x="637" y="-7" font-family="Helvetica,sans-Serif" font-size="10.00">Player</text>
</g>
<!-- Node1&#45;&gt;Node11 -->
<g id="edge10" class="edge"><title>Node1&#45;&gt;Node11</title>
<path fill="none" stroke="midnightblue" d="M489.526,-73.4992C508.562,-63.0511 535.412,-49.0759 560,-39 567.682,-35.852 575.938,-32.8613 584.077,-30.127"/>
<polygon fill="midnightblue" stroke="midnightblue" points="487.64,-70.5431 480.596,-78.4569 491.037,-76.6633 487.64,-70.5431"/>
</g>
<!-- Node2 -->
<g id="node2" class="node"><title>Node2</title>
<g id="a_node2"><a xlink:href="class_f_b_library_1_1_core_1_1_base_entities_1_1_base_player.html" target="_top" xlink:title="BasePlayer">
<polygon fill="white" stroke="black" points="298.5,-78.5 298.5,-97.5 365.5,-97.5 365.5,-78.5 298.5,-78.5"/>
<text text-anchor="middle" x="332" y="-85.5" font-family="Helvetica,sans-Serif" font-size="10.00">BasePlayer</text>
</a>
</g>
</g>
<!-- Node2&#45;&gt;Node1 -->
<g id="edge1" class="edge"><title>Node2&#45;&gt;Node1</title>
<path fill="none" stroke="midnightblue" d="M375.644,-88C384.193,-88 393.323,-88 402.326,-88"/>
<polygon fill="midnightblue" stroke="midnightblue" points="375.552,-84.5001 365.552,-88 375.552,-91.5001 375.552,-84.5001"/>
</g>
<!-- Node3 -->
<g id="node3" class="node"><title>Node3</title>
<g id="a_node3"><a xlink:href="class_f_b_library_1_1_core_1_1_dynamic_entity.html" target="_top" xlink:title="DynamicEntity">
<polygon fill="white" stroke="black" points="182,-78.5 182,-97.5 262,-97.5 262,-78.5 182,-78.5"/>
<text text-anchor="middle" x="222" y="-85.5" font-family="Helvetica,sans-Serif" font-size="10.00">DynamicEntity</text>
</a>
</g>
</g>
<!-- Node3&#45;&gt;Node2 -->
<g id="edge2" class="edge"><title>Node3&#45;&gt;Node2</title>
<path fill="none" stroke="midnightblue" d="M272.456,-88C281.221,-88 290.147,-88 298.301,-88"/>
<polygon fill="midnightblue" stroke="midnightblue" points="272.296,-84.5001 262.296,-88 272.296,-91.5001 272.296,-84.5001"/>
</g>
<!-- Node4 -->
<g id="node4" class="node"><title>Node4</title>
<g id="a_node4"><a xlink:href="class_f_b_library_1_1_core_1_1_base_entity.html" target="_top" xlink:title="BaseEntity">
<polygon fill="white" stroke="black" points="80.5,-78.5 80.5,-97.5 145.5,-97.5 145.5,-78.5 80.5,-78.5"/>
<text text-anchor="middle" x="113" y="-85.5" font-family="Helvetica,sans-Serif" font-size="10.00">BaseEntity</text>
</a>
</g>
</g>
<!-- Node4&#45;&gt;Node3 -->
<g id="edge3" class="edge"><title>Node4&#45;&gt;Node3</title>
<path fill="none" stroke="midnightblue" d="M155.698,-88C164.262,-88 173.251,-88 181.727,-88"/>
<polygon fill="midnightblue" stroke="midnightblue" points="155.525,-84.5001 145.525,-88 155.525,-91.5001 155.525,-84.5001"/>
</g>
<!-- Node5 -->
<g id="node5" class="node"><title>Node5</title>
<g id="a_node5"><a xlink:href="interface_f_b_library_1_1_core_1_1_i_entity.html" target="_top" xlink:title="IEntity">
<polygon fill="white" stroke="black" points="0,-78.5 0,-97.5 44,-97.5 44,-78.5 0,-78.5"/>
<text text-anchor="middle" x="22" y="-85.5" font-family="Helvetica,sans-Serif" font-size="10.00">IEntity</text>
</a>
</g>
</g>
<!-- Node5&#45;&gt;Node4 -->
<g id="edge4" class="edge"><title>Node5&#45;&gt;Node4</title>
<path fill="none" stroke="midnightblue" d="M54.2824,-88C62.7018,-88 71.8155,-88 80.2596,-88"/>
<polygon fill="midnightblue" stroke="midnightblue" points="54.0918,-84.5001 44.0918,-88 54.0917,-91.5001 54.0918,-84.5001"/>
</g>
<!-- Node8 -->
<g id="node8" class="node"><title>Node8</title>
<g id="a_node8"><a xlink:href="class_f_b_client_1_1_core_1_1_players_1_1_human_player.html" target="_top" xlink:title="FBClient.Core.Players.Human\lPlayer">
<polygon fill="white" stroke="black" points="750.5,-123 750.5,-153 897.5,-153 897.5,-123 750.5,-123"/>
<text text-anchor="start" x="758.5" y="-141" font-family="Helvetica,sans-Serif" font-size="10.00">FBClient.Core.Players.Human</text>
<text text-anchor="middle" x="824" y="-130" font-family="Helvetica,sans-Serif" font-size="10.00">Player</text>
</a>
</g>
</g>
<!-- Node7&#45;&gt;Node8 -->
<g id="edge7" class="edge"><title>Node7&#45;&gt;Node8</title>
<path fill="none" stroke="midnightblue" d="M716.79,-123.647C727.963,-125.157 739.409,-126.704 750.457,-128.197"/>
<polygon fill="midnightblue" stroke="midnightblue" points="717.003,-120.144 706.624,-122.274 716.065,-127.081 717.003,-120.144"/>
</g>
<!-- Node9 -->
<g id="node9" class="node"><title>Node9</title>
<g id="a_node9"><a xlink:href="class_f_b_client_1_1_core_1_1_players_1_1_online_human_player.html" target="_top" xlink:title="FBClient.Core.Players.Online\lHumanPlayer">
<polygon fill="white" stroke="black" points="752,-74 752,-104 896,-104 896,-74 752,-74"/>
<text text-anchor="start" x="760" y="-92" font-family="Helvetica,sans-Serif" font-size="10.00">FBClient.Core.Players.Online</text>
<text text-anchor="middle" x="824" y="-81" font-family="Helvetica,sans-Serif" font-size="10.00">HumanPlayer</text>
</a>
</g>
</g>
<!-- Node7&#45;&gt;Node9 -->
<g id="edge8" class="edge"><title>Node7&#45;&gt;Node9</title>
<path fill="none" stroke="midnightblue" d="M716.733,-102.786C728.344,-101.28 740.252,-99.7349 751.701,-98.2496"/>
<polygon fill="midnightblue" stroke="midnightblue" points="716.091,-99.3399 706.624,-104.097 716.991,-106.282 716.091,-99.3399"/>
</g>
</g>
</svg>
