<?xml version="1.0" encoding="UTF-8" standalone="no"?>
<!DOCTYPE svg PUBLIC "-//W3C//DTD SVG 1.1//EN"
 "http://www.w3.org/Graphics/SVG/1.1/DTD/svg11.dtd">
<!-- Generated by graphviz version 2.34.0 (20130907.0111)
 -->
<!-- Title: FBClient.Screens.BaseGameState Pages: 1 -->
<svg width="834pt" height="920pt"
 viewBox="0.00 0.00 834.00 920.00" xmlns="http://www.w3.org/2000/svg" xmlns:xlink="http://www.w3.org/1999/xlink">
<g id="graph0" class="graph" transform="scale(1 1) rotate(0) translate(4 916)">
<title>FBClient.Screens.BaseGameState</title>
<polygon fill="white" stroke="white" points="-4,4 -4,-916 830,-916 830,4 -4,4"/>
<!-- Node1 -->
<g id="node1" class="node"><title>Node1</title>
<polygon fill="#bfbfbf" stroke="black" points="270.5,-171 270.5,-201 415.5,-201 415.5,-171 270.5,-171"/>
<text text-anchor="start" x="278.5" y="-189" font-family="Helvetica,sans-Serif" font-size="10.00">FBClient.Screens.BaseGame</text>
<text text-anchor="middle" x="343" y="-178" font-family="Helvetica,sans-Serif" font-size="10.00">State</text>
</g>
<!-- Node4 -->
<g id="node4" class="node"><title>Node4</title>
<g id="a_node4"><a xlink:href="class_f_b_client_1_1_screens_1_1_base_menu_screen.html" target="_top" xlink:title="FBClient.Screens.BaseMenu\lScreen">
<polygon fill="white" stroke="black" points="461.5,-588 461.5,-618 604.5,-618 604.5,-588 461.5,-588"/>
<text text-anchor="start" x="469.5" y="-606" font-family="Helvetica,sans-Serif" font-size="10.00">FBClient.Screens.BaseMenu</text>
<text text-anchor="middle" x="533" y="-595" font-family="Helvetica,sans-Serif" font-size="10.00">Screen</text>
</a>
</g>
</g>
<!-- Node1&#45;&gt;Node4 -->
<g id="edge3" class="edge"><title>Node1&#45;&gt;Node4</title>
<path fill="none" stroke="midnightblue" d="M355.185,-210.809C390.224,-288.53 497.198,-525.807 525.221,-587.965"/>
<polygon fill="midnightblue" stroke="midnightblue" points="358.215,-209.014 350.914,-201.336 351.833,-211.891 358.215,-209.014"/>
</g>
<!-- Node17 -->
<g id="node17" class="node"><title>Node17</title>
<g id="a_node17"><a xlink:href="class_f_b_client_1_1_screens_1_1_game_screens_1_1_base_game_play_screen.html" target="_top" xlink:title="FBClient.Screens.GameScreens.\lBaseGamePlayScreen">
<polygon fill="white" stroke="black" points="452.5,-294 452.5,-324 613.5,-324 613.5,-294 452.5,-294"/>
<text text-anchor="start" x="460.5" y="-312" font-family="Helvetica,sans-Serif" font-size="10.00">FBClient.Screens.GameScreens.</text>
<text text-anchor="middle" x="533" y="-301" font-family="Helvetica,sans-Serif" font-size="10.00">BaseGamePlayScreen</text>
</a>
</g>
</g>
<!-- Node1&#45;&gt;Node17 -->
<g id="edge16" class="edge"><title>Node1&#45;&gt;Node17</title>
<path fill="none" stroke="midnightblue" d="M363.558,-208.758C383.686,-230.865 416.97,-263.948 452,-284 458.693,-287.831 466.044,-291.148 473.493,-293.998"/>
<polygon fill="midnightblue" stroke="midnightblue" points="366.034,-206.276 356.759,-201.154 360.816,-210.941 366.034,-206.276"/>
</g>
<!-- Node20 -->
<g id="node20" class="node"><title>Node20</title>
<g id="a_node20"><a xlink:href="class_f_b_client_1_1_screens_1_1_game_screens_1_1_game_play_screen.html" target="_top" xlink:title="FBClient.Screens.GameScreens.\lGamePlayScreen">
<polygon fill="white" stroke="black" points="452.5,-245 452.5,-275 613.5,-275 613.5,-245 452.5,-245"/>
<text text-anchor="start" x="460.5" y="-263" font-family="Helvetica,sans-Serif" font-size="10.00">FBClient.Screens.GameScreens.</text>
<text text-anchor="middle" x="533" y="-252" font-family="Helvetica,sans-Serif" font-size="10.00">GamePlayScreen</text>
</a>
</g>
</g>
<!-- Node1&#45;&gt;Node20 -->
<g id="edge19" class="edge"><title>Node1&#45;&gt;Node20</title>
<path fill="none" stroke="midnightblue" d="M383.95,-205.545C404.105,-215.041 429.082,-226.258 452,-235 461.109,-238.475 470.93,-241.843 480.466,-244.923"/>
<polygon fill="midnightblue" stroke="midnightblue" points="385.298,-202.311 374.763,-201.18 382.293,-208.633 385.298,-202.311"/>
</g>
<!-- Node21 -->
<g id="node21" class="node"><title>Node21</title>
<g id="a_node21"><a xlink:href="class_f_b_client_1_1_screens_1_1_menu_screens_1_1_credit_menu_screen.html" target="_top" xlink:title="FBClient.Screens.MenuScreens.\lCreditMenuScreen">
<polygon fill="white" stroke="black" points="453.5,-196 453.5,-226 612.5,-226 612.5,-196 453.5,-196"/>
<text text-anchor="start" x="461.5" y="-214" font-family="Helvetica,sans-Serif" font-size="10.00">FBClient.Screens.MenuScreens.</text>
<text text-anchor="middle" x="533" y="-203" font-family="Helvetica,sans-Serif" font-size="10.00">CreditMenuScreen</text>
</a>
</g>
</g>
<!-- Node1&#45;&gt;Node21 -->
<g id="edge20" class="edge"><title>Node1&#45;&gt;Node21</title>
<path fill="none" stroke="midnightblue" d="M425.55,-196.844C434.784,-198.072 444.181,-199.322 453.376,-200.545"/>
<polygon fill="midnightblue" stroke="midnightblue" points="425.985,-193.372 415.611,-195.523 425.062,-200.31 425.985,-193.372"/>
</g>
<!-- Node22 -->
<g id="node22" class="node"><title>Node22</title>
<g id="a_node22"><a xlink:href="class_f_b_client_1_1_screens_1_1_menu_screens_1_1_item_menu_screen.html" target="_top" xlink:title="FBClient.Screens.MenuScreens.\lItemMenuScreen">
<polygon fill="white" stroke="black" points="453.5,-147 453.5,-177 612.5,-177 612.5,-147 453.5,-147"/>
<text text-anchor="start" x="461.5" y="-165" font-family="Helvetica,sans-Serif" font-size="10.00">FBClient.Screens.MenuScreens.</text>
<text text-anchor="middle" x="533" y="-154" font-family="Helvetica,sans-Serif" font-size="10.00">ItemMenuScreen</text>
</a>
</g>
</g>
<!-- Node1&#45;&gt;Node22 -->
<g id="edge21" class="edge"><title>Node1&#45;&gt;Node22</title>
<path fill="none" stroke="midnightblue" d="M425.55,-175.589C434.784,-174.411 444.181,-173.211 453.376,-172.037"/>
<polygon fill="midnightblue" stroke="midnightblue" points="425.087,-172.12 415.611,-176.858 425.974,-179.064 425.087,-172.12"/>
</g>
<!-- Node23 -->
<g id="node23" class="node"><title>Node23</title>
<g id="a_node23"><a xlink:href="class_f_b_client_1_1_screens_1_1_menu_screens_1_1_lobby_menu_screen.html" target="_top" xlink:title="FBClient.Screens.MenuScreens.\lLobbyMenuScreen">
<polygon fill="white" stroke="black" points="453.5,-98 453.5,-128 612.5,-128 612.5,-98 453.5,-98"/>
<text text-anchor="start" x="461.5" y="-116" font-family="Helvetica,sans-Serif" font-size="10.00">FBClient.Screens.MenuScreens.</text>
<text text-anchor="middle" x="533" y="-105" font-family="Helvetica,sans-Serif" font-size="10.00">LobbyMenuScreen</text>
</a>
</g>
</g>
<!-- Node1&#45;&gt;Node23 -->
<g id="edge22" class="edge"><title>Node1&#45;&gt;Node23</title>
<path fill="none" stroke="midnightblue" d="M383.47,-166.549C403.69,-156.982 428.866,-145.673 452,-137 460.418,-133.844 469.451,-130.809 478.307,-128.021"/>
<polygon fill="midnightblue" stroke="midnightblue" points="381.779,-163.478 374.264,-170.946 384.796,-169.794 381.779,-163.478"/>
</g>
<!-- Node24 -->
<g id="node24" class="node"><title>Node24</title>
<g id="a_node24"><a xlink:href="class_f_b_client_1_1_screens_1_1_menu_screens_1_1_user_login_menu_screen.html" target="_top" xlink:title="FBClient.Screens.MenuScreens.\lUserLoginMenuScreen">
<polygon fill="white" stroke="black" points="453.5,-49 453.5,-79 612.5,-79 612.5,-49 453.5,-49"/>
<text text-anchor="start" x="461.5" y="-67" font-family="Helvetica,sans-Serif" font-size="10.00">FBClient.Screens.MenuScreens.</text>
<text text-anchor="middle" x="533" y="-56" font-family="Helvetica,sans-Serif" font-size="10.00">UserLoginMenuScreen</text>
</a>
</g>
</g>
<!-- Node1&#45;&gt;Node24 -->
<g id="edge23" class="edge"><title>Node1&#45;&gt;Node24</title>
<path fill="none" stroke="midnightblue" d="M363.51,-163.157C383.6,-140.983 416.856,-107.851 452,-88 458.06,-84.5769 464.66,-81.5936 471.385,-79.0057"/>
<polygon fill="midnightblue" stroke="midnightblue" points="360.755,-160.987 356.725,-170.785 365.986,-165.639 360.755,-160.987"/>
</g>
<!-- Node25 -->
<g id="node25" class="node"><title>Node25</title>
<g id="a_node25"><a xlink:href="class_f_b_client_1_1_screens_1_1_menu_screens_1_1_user_registration_menu_screen.html" target="_top" xlink:title="FBClient.Screens.MenuScreens.\lUserRegistrationMenuScreen">
<polygon fill="white" stroke="black" points="453.5,-0 453.5,-30 612.5,-30 612.5,-0 453.5,-0"/>
<text text-anchor="start" x="461.5" y="-18" font-family="Helvetica,sans-Serif" font-size="10.00">FBClient.Screens.MenuScreens.</text>
<text text-anchor="middle" x="533" y="-7" font-family="Helvetica,sans-Serif" font-size="10.00">UserRegistrationMenuScreen</text>
</a>
</g>
</g>
<!-- Node1&#45;&gt;Node25 -->
<g id="edge24" class="edge"><title>Node1&#45;&gt;Node25</title>
<path fill="none" stroke="midnightblue" d="M355.759,-161.213C372.559,-128.437 406.503,-71.0917 452,-39 456.858,-35.5732 462.212,-32.6285 467.779,-30.0993"/>
<polygon fill="midnightblue" stroke="midnightblue" points="352.437,-160.031 351.102,-170.541 358.7,-163.157 352.437,-160.031"/>
</g>
<!-- Node2 -->
<g id="node2" class="node"><title>Node2</title>
<g id="a_node2"><a xlink:href="class_f_b_client_1_1_controls_1_1_game_state.html" target="_top" xlink:title="GameState">
<polygon fill="white" stroke="black" points="168,-176.5 168,-195.5 234,-195.5 234,-176.5 168,-176.5"/>
<text text-anchor="middle" x="201" y="-183.5" font-family="Helvetica,sans-Serif" font-size="10.00">GameState</text>
</a>
</g>
</g>
<!-- Node2&#45;&gt;Node1 -->
<g id="edge1" class="edge"><title>Node2&#45;&gt;Node1</title>
<path fill="none" stroke="midnightblue" d="M244.245,-186C252.535,-186 261.445,-186 270.391,-186"/>
<polygon fill="midnightblue" stroke="midnightblue" points="244.119,-182.5 234.119,-186 244.119,-189.5 244.119,-182.5"/>
</g>
<!-- Node3 -->
<g id="node3" class="node"><title>Node3</title>
<polygon fill="white" stroke="#bfbfbf" points="0,-176.5 0,-195.5 132,-195.5 132,-176.5 0,-176.5"/>
<text text-anchor="middle" x="66" y="-183.5" font-family="Helvetica,sans-Serif" font-size="10.00">DrawableGameComponent</text>
</g>
<!-- Node3&#45;&gt;Node2 -->
<g id="edge2" class="edge"><title>Node3&#45;&gt;Node2</title>
<path fill="none" stroke="midnightblue" d="M142.439,-186C151.342,-186 160.026,-186 167.839,-186"/>
<polygon fill="midnightblue" stroke="midnightblue" points="142.331,-182.5 132.331,-186 142.331,-189.5 142.331,-182.5"/>
</g>
<!-- Node5 -->
<g id="node5" class="node"><title>Node5</title>
<g id="a_node5"><a xlink:href="class_f_b_client_1_1_screens_1_1_menu_screens_1_1_battle_menu_screen.html" target="_top" xlink:title="FBClient.Screens.MenuScreens.\lBattleMenuScreen">
<polygon fill="white" stroke="black" points="658.5,-882 658.5,-912 817.5,-912 817.5,-882 658.5,-882"/>
<text text-anchor="start" x="666.5" y="-900" font-family="Helvetica,sans-Serif" font-size="10.00">FBClient.Screens.MenuScreens.</text>
<text text-anchor="middle" x="738" y="-889" font-family="Helvetica,sans-Serif" font-size="10.00">BattleMenuScreen</text>
</a>
</g>
</g>
<!-- Node4&#45;&gt;Node5 -->
<g id="edge4" class="edge"><title>Node4&#45;&gt;Node5</title>
<path fill="none" stroke="midnightblue" d="M537.542,-628.028C546.393,-681.101 574.459,-805.513 650,-872 654.365,-875.842 659.285,-879.095 664.51,-881.85"/>
<polygon fill="midnightblue" stroke="midnightblue" points="540.994,-627.448 535.977,-618.116 534.08,-628.54 540.994,-627.448"/>
</g>
<!-- Node6 -->
<g id="node6" class="node"><title>Node6</title>
<g id="a_node6"><a xlink:href="class_f_b_client_1_1_screens_1_1_menu_screens_1_1_create_server_menu_screen.html" target="_top" xlink:title="FBClient.Screens.MenuScreens.\lCreateServerMenuScreen">
<polygon fill="white" stroke="black" points="658.5,-833 658.5,-863 817.5,-863 817.5,-833 658.5,-833"/>
<text text-anchor="start" x="666.5" y="-851" font-family="Helvetica,sans-Serif" font-size="10.00">FBClient.Screens.MenuScreens.</text>
<text text-anchor="middle" x="738" y="-840" font-family="Helvetica,sans-Serif" font-size="10.00">CreateServerMenuScreen</text>
</a>
</g>
</g>
<!-- Node4&#45;&gt;Node6 -->
<g id="edge5" class="edge"><title>Node4&#45;&gt;Node6</title>
<path fill="none" stroke="midnightblue" d="M540.148,-627.87C552.735,-673.529 585.819,-770.813 650,-823 654.755,-826.867 660.081,-830.135 665.693,-832.899"/>
<polygon fill="midnightblue" stroke="midnightblue" points="543.525,-626.951 537.574,-618.186 536.76,-628.749 543.525,-626.951"/>
</g>
<!-- Node7 -->
<g id="node7" class="node"><title>Node7</title>
<g id="a_node7"><a xlink:href="class_f_b_client_1_1_screens_1_1_menu_screens_1_1_join_server_menu_screen.html" target="_top" xlink:title="FBClient.Screens.MenuScreens.\lJoinServerMenuScreen">
<polygon fill="white" stroke="black" points="658.5,-784 658.5,-814 817.5,-814 817.5,-784 658.5,-784"/>
<text text-anchor="start" x="666.5" y="-802" font-family="Helvetica,sans-Serif" font-size="10.00">FBClient.Screens.MenuScreens.</text>
<text text-anchor="middle" x="738" y="-791" font-family="Helvetica,sans-Serif" font-size="10.00">JoinServerMenuScreen</text>
</a>
</g>
</g>
<!-- Node4&#45;&gt;Node7 -->
<g id="edge6" class="edge"><title>Node4&#45;&gt;Node7</title>
<path fill="none" stroke="midnightblue" d="M544.127,-627.779C560.668,-665.142 597.036,-735.604 650,-774 655.344,-777.874 661.276,-781.15 667.46,-783.92"/>
<polygon fill="midnightblue" stroke="midnightblue" points="547.16,-625.973 539.99,-618.173 540.731,-628.742 547.16,-625.973"/>
</g>
<!-- Node8 -->
<g id="node8" class="node"><title>Node8</title>
<g id="a_node8"><a xlink:href="class_f_b_client_1_1_screens_1_1_menu_screens_1_1_keys_menu_screen.html" target="_top" xlink:title="FBClient.Screens.MenuScreens.\lKeysMenuScreen">
<polygon fill="white" stroke="black" points="658.5,-735 658.5,-765 817.5,-765 817.5,-735 658.5,-735"/>
<text text-anchor="start" x="666.5" y="-753" font-family="Helvetica,sans-Serif" font-size="10.00">FBClient.Screens.MenuScreens.</text>
<text text-anchor="middle" x="738" y="-742" font-family="Helvetica,sans-Serif" font-size="10.00">KeysMenuScreen</text>
</a>
</g>
</g>
<!-- Node4&#45;&gt;Node8 -->
<g id="edge7" class="edge"><title>Node4&#45;&gt;Node8</title>
<path fill="none" stroke="midnightblue" d="M550.223,-626.505C570.461,-654.08 607.608,-699.288 650,-725 656.315,-728.83 663.244,-732.097 670.349,-734.878"/>
<polygon fill="midnightblue" stroke="midnightblue" points="552.943,-624.292 544.261,-618.219 547.261,-628.381 552.943,-624.292"/>
</g>
<!-- Node9 -->
<g id="node9" class="node"><title>Node9</title>
<g id="a_node9"><a xlink:href="class_f_b_client_1_1_screens_1_1_menu_screens_1_1_multiplayer_game_mode_menu_screen.html" target="_top" xlink:title="FBClient.Screens.MenuScreens.\lMultiplayerGameModeMenuScreen">
<polygon fill="white" stroke="black" points="653.5,-686 653.5,-716 822.5,-716 822.5,-686 653.5,-686"/>
<text text-anchor="start" x="661.5" y="-704" font-family="Helvetica,sans-Serif" font-size="10.00">FBClient.Screens.MenuScreens.</text>
<text text-anchor="middle" x="738" y="-693" font-family="Helvetica,sans-Serif" font-size="10.00">MultiplayerGameModeMenuScreen</text>
</a>
</g>
</g>
<!-- Node4&#45;&gt;Node9 -->
<g id="edge8" class="edge"><title>Node4&#45;&gt;Node9</title>
<path fill="none" stroke="midnightblue" d="M562.138,-623.89C584.878,-639.97 618.223,-661.78 650,-676 658.32,-679.723 667.336,-683.042 676.305,-685.95"/>
<polygon fill="midnightblue" stroke="midnightblue" points="564.134,-621.015 553.967,-618.036 560.057,-626.705 564.134,-621.015"/>
</g>
<!-- Node10 -->
<g id="node10" class="node"><title>Node10</title>
<g id="a_node10"><a xlink:href="class_f_b_client_1_1_screens_1_1_menu_screens_1_1_network_menu_screen.html" target="_top" xlink:title="FBClient.Screens.MenuScreens.\lNetworkMenuScreen">
<polygon fill="white" stroke="black" points="658.5,-637 658.5,-667 817.5,-667 817.5,-637 658.5,-637"/>
<text text-anchor="start" x="666.5" y="-655" font-family="Helvetica,sans-Serif" font-size="10.00">FBClient.Screens.MenuScreens.</text>
<text text-anchor="middle" x="738" y="-644" font-family="Helvetica,sans-Serif" font-size="10.00">NetworkMenuScreen</text>
</a>
</g>
</g>
<!-- Node4&#45;&gt;Node10 -->
<g id="edge9" class="edge"><title>Node4&#45;&gt;Node10</title>
<path fill="none" stroke="midnightblue" d="M606.102,-620.404C628.558,-625.824 653.116,-631.752 674.832,-636.994"/>
<polygon fill="midnightblue" stroke="midnightblue" points="606.828,-616.979 596.286,-618.035 605.186,-623.783 606.828,-616.979"/>
</g>
<!-- Node11 -->
<g id="node11" class="node"><title>Node11</title>
<g id="a_node11"><a xlink:href="class_f_b_client_1_1_screens_1_1_menu_screens_1_1_online_game_menu_screen.html" target="_top" xlink:title="FBClient.Screens.MenuScreens.\lOnlineGameMenuScreen">
<polygon fill="white" stroke="black" points="658.5,-588 658.5,-618 817.5,-618 817.5,-588 658.5,-588"/>
<text text-anchor="start" x="666.5" y="-606" font-family="Helvetica,sans-Serif" font-size="10.00">FBClient.Screens.MenuScreens.</text>
<text text-anchor="middle" x="738" y="-595" font-family="Helvetica,sans-Serif" font-size="10.00">OnlineGameMenuScreen</text>
</a>
</g>
</g>
<!-- Node4&#45;&gt;Node11 -->
<g id="edge10" class="edge"><title>Node4&#45;&gt;Node11</title>
<path fill="none" stroke="midnightblue" d="M614.972,-603C629.219,-603 644.029,-603 658.215,-603"/>
<polygon fill="midnightblue" stroke="midnightblue" points="614.715,-599.5 604.715,-603 614.715,-606.5 614.715,-599.5"/>
</g>
<!-- Node12 -->
<g id="node12" class="node"><title>Node12</title>
<g id="a_node12"><a xlink:href="class_f_b_client_1_1_screens_1_1_menu_screens_1_1_option_menu_screen.html" target="_top" xlink:title="FBClient.Screens.MenuScreens.\lOptionMenuScreen">
<polygon fill="white" stroke="black" points="658.5,-539 658.5,-569 817.5,-569 817.5,-539 658.5,-539"/>
<text text-anchor="start" x="666.5" y="-557" font-family="Helvetica,sans-Serif" font-size="10.00">FBClient.Screens.MenuScreens.</text>
<text text-anchor="middle" x="738" y="-546" font-family="Helvetica,sans-Serif" font-size="10.00">OptionMenuScreen</text>
</a>
</g>
</g>
<!-- Node4&#45;&gt;Node12 -->
<g id="edge11" class="edge"><title>Node4&#45;&gt;Node12</title>
<path fill="none" stroke="midnightblue" d="M606.102,-585.596C628.558,-580.176 653.116,-574.248 674.832,-569.006"/>
<polygon fill="midnightblue" stroke="midnightblue" points="605.186,-582.217 596.286,-587.965 606.828,-589.021 605.186,-582.217"/>
</g>
<!-- Node13 -->
<g id="node13" class="node"><title>Node13</title>
<g id="a_node13"><a xlink:href="class_f_b_client_1_1_screens_1_1_menu_screens_1_1_single_player_game_mode_menu_screen.html" target="_top" xlink:title="FBClient.Screens.MenuScreens.\lSinglePlayerGameModeMenuScreen">
<polygon fill="white" stroke="black" points="650,-490 650,-520 826,-520 826,-490 650,-490"/>
<text text-anchor="start" x="658" y="-508" font-family="Helvetica,sans-Serif" font-size="10.00">FBClient.Screens.MenuScreens.</text>
<text text-anchor="middle" x="738" y="-497" font-family="Helvetica,sans-Serif" font-size="10.00">SinglePlayerGameModeMenuScreen</text>
</a>
</g>
</g>
<!-- Node4&#45;&gt;Node13 -->
<g id="edge12" class="edge"><title>Node4&#45;&gt;Node13</title>
<path fill="none" stroke="midnightblue" d="M562.138,-582.11C584.878,-566.03 618.223,-544.22 650,-530 658.32,-526.277 667.336,-522.958 676.305,-520.05"/>
<polygon fill="midnightblue" stroke="midnightblue" points="560.057,-579.295 553.967,-587.964 564.134,-584.985 560.057,-579.295"/>
</g>
<!-- Node14 -->
<g id="node14" class="node"><title>Node14</title>
<g id="a_node14"><a xlink:href="class_f_b_client_1_1_screens_1_1_menu_screens_1_1_sudden_death_menu_screen.html" target="_top" xlink:title="FBClient.Screens.MenuScreens.\lSuddenDeathMenuScreen">
<polygon fill="white" stroke="black" points="658.5,-441 658.5,-471 817.5,-471 817.5,-441 658.5,-441"/>
<text text-anchor="start" x="666.5" y="-459" font-family="Helvetica,sans-Serif" font-size="10.00">FBClient.Screens.MenuScreens.</text>
<text text-anchor="middle" x="738" y="-448" font-family="Helvetica,sans-Serif" font-size="10.00">SuddenDeathMenuScreen</text>
</a>
</g>
</g>
<!-- Node4&#45;&gt;Node14 -->
<g id="edge13" class="edge"><title>Node4&#45;&gt;Node14</title>
<path fill="none" stroke="midnightblue" d="M550.223,-579.495C570.461,-551.92 607.608,-506.712 650,-481 656.315,-477.17 663.244,-473.903 670.349,-471.122"/>
<polygon fill="midnightblue" stroke="midnightblue" points="547.261,-577.619 544.261,-587.781 552.943,-581.708 547.261,-577.619"/>
</g>
<!-- Node15 -->
<g id="node15" class="node"><title>Node15</title>
<g id="a_node15"><a xlink:href="class_f_b_client_1_1_screens_1_1_menu_screens_1_1_title_screen.html" target="_top" xlink:title="FBClient.Screens.MenuScreens.\lTitleScreen">
<polygon fill="white" stroke="black" points="658.5,-392 658.5,-422 817.5,-422 817.5,-392 658.5,-392"/>
<text text-anchor="start" x="666.5" y="-410" font-family="Helvetica,sans-Serif" font-size="10.00">FBClient.Screens.MenuScreens.</text>
<text text-anchor="middle" x="738" y="-399" font-family="Helvetica,sans-Serif" font-size="10.00">TitleScreen</text>
</a>
</g>
</g>
<!-- Node4&#45;&gt;Node15 -->
<g id="edge14" class="edge"><title>Node4&#45;&gt;Node15</title>
<path fill="none" stroke="midnightblue" d="M544.127,-578.221C560.668,-540.858 597.036,-470.396 650,-432 655.344,-428.126 661.276,-424.85 667.46,-422.08"/>
<polygon fill="midnightblue" stroke="midnightblue" points="540.731,-577.258 539.99,-587.827 547.16,-580.027 540.731,-577.258"/>
</g>
<!-- Node16 -->
<g id="node16" class="node"><title>Node16</title>
<g id="a_node16"><a xlink:href="class_f_b_client_1_1_screens_1_1_menu_screens_1_1_user_menu_screen.html" target="_top" xlink:title="FBClient.Screens.MenuScreens.\lUserMenuScreen">
<polygon fill="white" stroke="black" points="658.5,-343 658.5,-373 817.5,-373 817.5,-343 658.5,-343"/>
<text text-anchor="start" x="666.5" y="-361" font-family="Helvetica,sans-Serif" font-size="10.00">FBClient.Screens.MenuScreens.</text>
<text text-anchor="middle" x="738" y="-350" font-family="Helvetica,sans-Serif" font-size="10.00">UserMenuScreen</text>
</a>
</g>
</g>
<!-- Node4&#45;&gt;Node16 -->
<g id="edge15" class="edge"><title>Node4&#45;&gt;Node16</title>
<path fill="none" stroke="midnightblue" d="M540.148,-578.13C552.735,-532.471 585.819,-435.187 650,-383 654.755,-379.133 660.081,-375.865 665.693,-373.101"/>
<polygon fill="midnightblue" stroke="midnightblue" points="536.76,-577.251 537.574,-587.814 543.525,-579.049 536.76,-577.251"/>
</g>
<!-- Node18 -->
<g id="node18" class="node"><title>Node18</title>
<g id="a_node18"><a xlink:href="class_f_b_client_1_1_screens_1_1_game_screens_1_1_network_game_play_screen.html" target="_top" xlink:title="FBClient.Screens.GameScreens.\lNetworkGamePlayScreen">
<polygon fill="white" stroke="black" points="657.5,-294 657.5,-324 818.5,-324 818.5,-294 657.5,-294"/>
<text text-anchor="start" x="665.5" y="-312" font-family="Helvetica,sans-Serif" font-size="10.00">FBClient.Screens.GameScreens.</text>
<text text-anchor="middle" x="738" y="-301" font-family="Helvetica,sans-Serif" font-size="10.00">NetworkGamePlayScreen</text>
</a>
</g>
</g>
<!-- Node17&#45;&gt;Node18 -->
<g id="edge17" class="edge"><title>Node17&#45;&gt;Node18</title>
<path fill="none" stroke="midnightblue" d="M623.808,-309C634.947,-309 646.275,-309 657.248,-309"/>
<polygon fill="midnightblue" stroke="midnightblue" points="623.648,-305.5 613.648,-309 623.648,-312.5 623.648,-305.5"/>
</g>
<!-- Node19 -->
<g id="node19" class="node"><title>Node19</title>
<g id="a_node19"><a xlink:href="class_f_b_client_1_1_screens_1_1_game_screens_1_1_single_player_game_play_screen.html" target="_top" xlink:title="FBClient.Screens.GameScreens.\lSinglePlayerGamePlayScreen">
<polygon fill="white" stroke="black" points="657.5,-245 657.5,-275 818.5,-275 818.5,-245 657.5,-245"/>
<text text-anchor="start" x="665.5" y="-263" font-family="Helvetica,sans-Serif" font-size="10.00">FBClient.Screens.GameScreens.</text>
<text text-anchor="middle" x="738" y="-252" font-family="Helvetica,sans-Serif" font-size="10.00">SinglePlayerGamePlayScreen</text>
</a>
</g>
</g>
<!-- Node17&#45;&gt;Node19 -->
<g id="edge18" class="edge"><title>Node17&#45;&gt;Node19</title>
<path fill="none" stroke="midnightblue" d="M606.102,-291.596C628.558,-286.176 653.116,-280.248 674.832,-275.006"/>
<polygon fill="midnightblue" stroke="midnightblue" points="605.186,-288.217 596.286,-293.965 606.828,-295.021 605.186,-288.217"/>
</g>
</g>
</svg>
