<?xml version="1.0" encoding="UTF-8" standalone="no"?>
<!DOCTYPE svg PUBLIC "-//W3C//DTD SVG 1.1//EN"
 "http://www.w3.org/Graphics/SVG/1.1/DTD/svg11.dtd">
<!-- Generated by graphviz version 2.34.0 (20130907.0111)
 -->
<!-- Title: FBClient.Screens.MenuScreens.UserMenuScreen Pages: 1 -->
<svg width="423pt" height="886pt"
 viewBox="0.00 0.00 423.00 886.00" xmlns="http://www.w3.org/2000/svg" xmlns:xlink="http://www.w3.org/1999/xlink">
<g id="graph0" class="graph" transform="scale(1 1) rotate(0) translate(4 882)">
<title>FBClient.Screens.MenuScreens.UserMenuScreen</title>
<polygon fill="white" stroke="white" points="-4,4 -4,-882 419,-882 419,4 -4,4"/>
<!-- Node1 -->
<g id="node1" class="node"><title>Node1</title>
<polygon fill="#bfbfbf" stroke="black" points="221.5,-1 221.5,-135 380.5,-135 380.5,-1 221.5,-1"/>
<text text-anchor="start" x="229.5" y="-123" font-family="Helvetica,sans-Serif" font-size="10.00">FBClient.Screens.MenuScreens.</text>
<text text-anchor="middle" x="301" y="-112" font-family="Helvetica,sans-Serif" font-size="10.00">UserMenuScreen</text>
<polyline fill="none" stroke="black" points="221.5,-105 380.5,-105 "/>
<text text-anchor="start" x="229.5" y="-93" font-family="Helvetica,sans-Serif" font-size="10.00">+ VERSION</text>
<text text-anchor="start" x="229.5" y="-82" font-family="Helvetica,sans-Serif" font-size="10.00">+ hasLoggedIn</text>
<text text-anchor="start" x="229.5" y="-71" font-family="Helvetica,sans-Serif" font-size="10.00">+ username</text>
<polyline fill="none" stroke="black" points="221.5,-64 380.5,-64 "/>
<text text-anchor="start" x="229.5" y="-52" font-family="Helvetica,sans-Serif" font-size="10.00">+ UserMenuScreen()</text>
<text text-anchor="start" x="229.5" y="-41" font-family="Helvetica,sans-Serif" font-size="10.00">+ Initialize()</text>
<text text-anchor="start" x="229.5" y="-30" font-family="Helvetica,sans-Serif" font-size="10.00">+ Update()</text>
<text text-anchor="start" x="229.5" y="-19" font-family="Helvetica,sans-Serif" font-size="10.00">+ Draw()</text>
<text text-anchor="start" x="229.5" y="-8" font-family="Helvetica,sans-Serif" font-size="10.00"># LoadContent()</text>
</g>
<!-- Node2 -->
<g id="node2" class="node"><title>Node2</title>
<g id="a_node2"><a xlink:href="class_f_b_client_1_1_screens_1_1_base_menu_screen.html" target="_top" xlink:title="{BaseMenuScreen\n|# MenuString\l# IndexMenu\l# MenuPosition\l|+ Initialize()\l+ Update()\l# BaseMenuScreen()\l}">
<polygon fill="white" stroke="black" points="247,-174.5 247,-275.5 355,-275.5 355,-174.5 247,-174.5"/>
<text text-anchor="middle" x="301" y="-263.5" font-family="Helvetica,sans-Serif" font-size="10.00">BaseMenuScreen</text>
<polyline fill="none" stroke="black" points="247,-256.5 355,-256.5 "/>
<text text-anchor="start" x="255" y="-244.5" font-family="Helvetica,sans-Serif" font-size="10.00"># MenuString</text>
<text text-anchor="start" x="255" y="-233.5" font-family="Helvetica,sans-Serif" font-size="10.00"># IndexMenu</text>
<text text-anchor="start" x="255" y="-222.5" font-family="Helvetica,sans-Serif" font-size="10.00"># MenuPosition</text>
<polyline fill="none" stroke="black" points="247,-215.5 355,-215.5 "/>
<text text-anchor="start" x="255" y="-203.5" font-family="Helvetica,sans-Serif" font-size="10.00">+ Initialize()</text>
<text text-anchor="start" x="255" y="-192.5" font-family="Helvetica,sans-Serif" font-size="10.00">+ Update()</text>
<text text-anchor="start" x="255" y="-181.5" font-family="Helvetica,sans-Serif" font-size="10.00"># BaseMenuScreen()</text>
</a>
</g>
</g>
<!-- Node2&#45;&gt;Node1 -->
<g id="edge1" class="edge"><title>Node2&#45;&gt;Node1</title>
<path fill="none" stroke="midnightblue" d="M301,-164.03C301,-154.587 301,-144.779 301,-135.205"/>
<polygon fill="none" stroke="midnightblue" points="297.5,-164.104 301,-174.104 304.5,-164.104 297.5,-164.104"/>
</g>
<!-- Node3 -->
<g id="node3" class="node"><title>Node3</title>
<g id="a_node3"><a xlink:href="class_f_b_client_1_1_screens_1_1_base_game_state.html" target="_top" xlink:title="{BaseGameState\n|# BigFont\l# playerIndexInControl\l|+ BaseGameState()\l+ Update()\l+ Draw()\l# LoadContent()\l}">
<polygon fill="white" stroke="black" points="244.5,-314.5 244.5,-415.5 357.5,-415.5 357.5,-314.5 244.5,-314.5"/>
<text text-anchor="middle" x="301" y="-403.5" font-family="Helvetica,sans-Serif" font-size="10.00">BaseGameState</text>
<polyline fill="none" stroke="black" points="244.5,-396.5 357.5,-396.5 "/>
<text text-anchor="start" x="252.5" y="-384.5" font-family="Helvetica,sans-Serif" font-size="10.00"># BigFont</text>
<text text-anchor="start" x="252.5" y="-373.5" font-family="Helvetica,sans-Serif" font-size="10.00"># playerIndexInControl</text>
<polyline fill="none" stroke="black" points="244.5,-366.5 357.5,-366.5 "/>
<text text-anchor="start" x="252.5" y="-354.5" font-family="Helvetica,sans-Serif" font-size="10.00">+ BaseGameState()</text>
<text text-anchor="start" x="252.5" y="-343.5" font-family="Helvetica,sans-Serif" font-size="10.00">+ Update()</text>
<text text-anchor="start" x="252.5" y="-332.5" font-family="Helvetica,sans-Serif" font-size="10.00">+ Draw()</text>
<text text-anchor="start" x="252.5" y="-321.5" font-family="Helvetica,sans-Serif" font-size="10.00"># LoadContent()</text>
</a>
</g>
</g>
<!-- Node3&#45;&gt;Node2 -->
<g id="edge2" class="edge"><title>Node3&#45;&gt;Node2</title>
<path fill="none" stroke="midnightblue" d="M301,-304.053C301,-294.607 301,-284.93 301,-275.748"/>
<polygon fill="none" stroke="midnightblue" points="297.5,-304.179 301,-314.179 304.5,-304.179 297.5,-304.179"/>
</g>
<!-- Node4 -->
<g id="node4" class="node"><title>Node4</title>
<g id="a_node4"><a xlink:href="class_f_b_client_1_1_controls_1_1_game_state.html" target="_top" xlink:title="{GameState\n|+ Components\l+ Tag\l|+ Initialize()\l+ Update()\l+ Draw()\l# GameState()\l# StateChange()\l# Show()\l# Hide()\l}">
<polygon fill="white" stroke="black" points="179.5,-470 179.5,-604 266.5,-604 266.5,-470 179.5,-470"/>
<text text-anchor="middle" x="223" y="-592" font-family="Helvetica,sans-Serif" font-size="10.00">GameState</text>
<polyline fill="none" stroke="black" points="179.5,-585 266.5,-585 "/>
<text text-anchor="start" x="187.5" y="-573" font-family="Helvetica,sans-Serif" font-size="10.00">+ Components</text>
<text text-anchor="start" x="187.5" y="-562" font-family="Helvetica,sans-Serif" font-size="10.00">+ Tag</text>
<polyline fill="none" stroke="black" points="179.5,-555 266.5,-555 "/>
<text text-anchor="start" x="187.5" y="-543" font-family="Helvetica,sans-Serif" font-size="10.00">+ Initialize()</text>
<text text-anchor="start" x="187.5" y="-532" font-family="Helvetica,sans-Serif" font-size="10.00">+ Update()</text>
<text text-anchor="start" x="187.5" y="-521" font-family="Helvetica,sans-Serif" font-size="10.00">+ Draw()</text>
<text text-anchor="start" x="187.5" y="-510" font-family="Helvetica,sans-Serif" font-size="10.00"># GameState()</text>
<text text-anchor="start" x="187.5" y="-499" font-family="Helvetica,sans-Serif" font-size="10.00"># StateChange()</text>
<text text-anchor="start" x="187.5" y="-488" font-family="Helvetica,sans-Serif" font-size="10.00"># Show()</text>
<text text-anchor="start" x="187.5" y="-477" font-family="Helvetica,sans-Serif" font-size="10.00"># Hide()</text>
</a>
</g>
</g>
<!-- Node4&#45;&gt;Node3 -->
<g id="edge3" class="edge"><title>Node4&#45;&gt;Node3</title>
<path fill="none" stroke="midnightblue" d="M257.677,-460.422C264.63,-445.269 271.768,-429.712 278.193,-415.708"/>
<polygon fill="none" stroke="midnightblue" points="254.369,-459.238 253.38,-469.787 260.732,-462.157 254.369,-459.238"/>
</g>
<!-- Node5 -->
<g id="node5" class="node"><title>Node5</title>
<polygon fill="white" stroke="#bfbfbf" points="0,-691.5 0,-748.5 132,-748.5 132,-691.5 0,-691.5"/>
<text text-anchor="middle" x="66" y="-736.5" font-family="Helvetica,sans-Serif" font-size="10.00">DrawableGameComponent</text>
<polyline fill="none" stroke="#bfbfbf" points="0,-729.5 132,-729.5 "/>
<text text-anchor="middle" x="66" y="-717.5" font-family="Helvetica,sans-Serif" font-size="10.00"> </text>
<polyline fill="none" stroke="#bfbfbf" points="0,-710.5 132,-710.5 "/>
<text text-anchor="middle" x="66" y="-698.5" font-family="Helvetica,sans-Serif" font-size="10.00"> </text>
</g>
<!-- Node5&#45;&gt;Node4 -->
<g id="edge4" class="edge"><title>Node5&#45;&gt;Node4</title>
<path fill="none" stroke="midnightblue" d="M96.8855,-683.393C120.465,-656.209 153.256,-618.405 179.492,-588.159"/>
<polygon fill="none" stroke="midnightblue" points="94.0957,-681.268 90.1872,-691.115 99.3837,-685.855 94.0957,-681.268"/>
</g>
<!-- Node6 -->
<g id="node6" class="node"><title>Node6</title>
<g id="a_node6"><a xlink:href="class_f_b_client_1_1_controls_1_1_game_state_manager.html" target="_top" xlink:title="{FBClient.Controls.GameState\lManager\n|+ CurrentState\l|+ GameStateManager()\l+ Initialize()\l+ Update()\l+ PopState()\l+ PushState()\l+ ChangeState()\l}">
<polygon fill="white" stroke="black" points="150,-658.5 150,-781.5 296,-781.5 296,-658.5 150,-658.5"/>
<text text-anchor="start" x="158" y="-769.5" font-family="Helvetica,sans-Serif" font-size="10.00">FBClient.Controls.GameState</text>
<text text-anchor="middle" x="223" y="-758.5" font-family="Helvetica,sans-Serif" font-size="10.00">Manager</text>
<polyline fill="none" stroke="black" points="150,-751.5 296,-751.5 "/>
<text text-anchor="start" x="158" y="-739.5" font-family="Helvetica,sans-Serif" font-size="10.00">+ CurrentState</text>
<polyline fill="none" stroke="black" points="150,-732.5 296,-732.5 "/>
<text text-anchor="start" x="158" y="-720.5" font-family="Helvetica,sans-Serif" font-size="10.00">+ GameStateManager()</text>
<text text-anchor="start" x="158" y="-709.5" font-family="Helvetica,sans-Serif" font-size="10.00">+ Initialize()</text>
<text text-anchor="start" x="158" y="-698.5" font-family="Helvetica,sans-Serif" font-size="10.00">+ Update()</text>
<text text-anchor="start" x="158" y="-687.5" font-family="Helvetica,sans-Serif" font-size="10.00">+ PopState()</text>
<text text-anchor="start" x="158" y="-676.5" font-family="Helvetica,sans-Serif" font-size="10.00">+ PushState()</text>
<text text-anchor="start" x="158" y="-665.5" font-family="Helvetica,sans-Serif" font-size="10.00">+ ChangeState()</text>
</a>
</g>
</g>
<!-- Node6&#45;&gt;Node4 -->
<g id="edge5" class="edge"><title>Node6&#45;&gt;Node4</title>
<path fill="none" stroke="#404040" d="M223,-658.478C223,-644.965 223,-630.448 223,-616.332"/>
<polygon fill="none" stroke="#404040" points="223,-616.066 219,-610.066 223,-604.066 227,-610.066 223,-616.066"/>
<text text-anchor="middle" x="258" y="-631.5" font-family="Helvetica,sans-Serif" font-size="10.00"> #StateManager</text>
</g>
<!-- Node7 -->
<g id="node7" class="node"><title>Node7</title>
<polygon fill="white" stroke="#bfbfbf" points="177,-820.5 177,-877.5 269,-877.5 269,-820.5 177,-820.5"/>
<text text-anchor="middle" x="223" y="-865.5" font-family="Helvetica,sans-Serif" font-size="10.00">GameComponent</text>
<polyline fill="none" stroke="#bfbfbf" points="177,-858.5 269,-858.5 "/>
<text text-anchor="middle" x="223" y="-846.5" font-family="Helvetica,sans-Serif" font-size="10.00"> </text>
<polyline fill="none" stroke="#bfbfbf" points="177,-839.5 269,-839.5 "/>
<text text-anchor="middle" x="223" y="-827.5" font-family="Helvetica,sans-Serif" font-size="10.00"> </text>
</g>
<!-- Node7&#45;&gt;Node6 -->
<g id="edge6" class="edge"><title>Node7&#45;&gt;Node6</title>
<path fill="none" stroke="midnightblue" d="M223,-810.283C223,-801.252 223,-791.384 223,-781.607"/>
<polygon fill="none" stroke="midnightblue" points="219.5,-810.443 223,-820.443 226.5,-810.443 219.5,-810.443"/>
</g>
<!-- Node8 -->
<g id="node8" class="node"><title>Node8</title>
<g id="a_node8"><a xlink:href="class_f_b_client_1_1_controls_1_1_control_manager.html" target="_top" xlink:title="{FBClient.Controls.Control\lManager\n|+ SpriteFont\l+ AcceptInput\l|+ ControlManager()\l+ ControlManager()\l+ ControlManager()\l+ Update()\l+ Draw()\l+ NextControl()\l+ PreviousControl()\l}">
<polygon fill="white" stroke="black" points="288.5,-464.5 288.5,-609.5 415.5,-609.5 415.5,-464.5 288.5,-464.5"/>
<text text-anchor="start" x="296.5" y="-597.5" font-family="Helvetica,sans-Serif" font-size="10.00">FBClient.Controls.Control</text>
<text text-anchor="middle" x="352" y="-586.5" font-family="Helvetica,sans-Serif" font-size="10.00">Manager</text>
<polyline fill="none" stroke="black" points="288.5,-579.5 415.5,-579.5 "/>
<text text-anchor="start" x="296.5" y="-567.5" font-family="Helvetica,sans-Serif" font-size="10.00">+ SpriteFont</text>
<text text-anchor="start" x="296.5" y="-556.5" font-family="Helvetica,sans-Serif" font-size="10.00">+ AcceptInput</text>
<polyline fill="none" stroke="black" points="288.5,-549.5 415.5,-549.5 "/>
<text text-anchor="start" x="296.5" y="-537.5" font-family="Helvetica,sans-Serif" font-size="10.00">+ ControlManager()</text>
<text text-anchor="start" x="296.5" y="-526.5" font-family="Helvetica,sans-Serif" font-size="10.00">+ ControlManager()</text>
<text text-anchor="start" x="296.5" y="-515.5" font-family="Helvetica,sans-Serif" font-size="10.00">+ ControlManager()</text>
<text text-anchor="start" x="296.5" y="-504.5" font-family="Helvetica,sans-Serif" font-size="10.00">+ Update()</text>
<text text-anchor="start" x="296.5" y="-493.5" font-family="Helvetica,sans-Serif" font-size="10.00">+ Draw()</text>
<text text-anchor="start" x="296.5" y="-482.5" font-family="Helvetica,sans-Serif" font-size="10.00">+ NextControl()</text>
<text text-anchor="start" x="296.5" y="-471.5" font-family="Helvetica,sans-Serif" font-size="10.00">+ PreviousControl()</text>
</a>
</g>
</g>
<!-- Node8&#45;&gt;Node3 -->
<g id="edge7" class="edge"><title>Node8&#45;&gt;Node3</title>
<path fill="none" stroke="#404040" d="M330.519,-464.397C326.824,-452.079 323.013,-439.376 319.407,-427.358"/>
<polygon fill="none" stroke="#404040" points="319.33,-427.101 313.775,-422.504 315.882,-415.607 321.438,-420.205 319.33,-427.101"/>
<text text-anchor="middle" x="363.5" y="-437.5" font-family="Helvetica,sans-Serif" font-size="10.00"> #ControlManager</text>
</g>
<!-- Node9 -->
<g id="node9" class="node"><title>Node9</title>
<polygon fill="white" stroke="#bfbfbf" points="314.5,-691.5 314.5,-748.5 395.5,-748.5 395.5,-691.5 314.5,-691.5"/>
<text text-anchor="middle" x="355" y="-736.5" font-family="Helvetica,sans-Serif" font-size="10.00">List&lt; Control &gt;</text>
<polyline fill="none" stroke="#bfbfbf" points="314.5,-729.5 395.5,-729.5 "/>
<text text-anchor="middle" x="355" y="-717.5" font-family="Helvetica,sans-Serif" font-size="10.00"> </text>
<polyline fill="none" stroke="#bfbfbf" points="314.5,-710.5 395.5,-710.5 "/>
<text text-anchor="middle" x="355" y="-698.5" font-family="Helvetica,sans-Serif" font-size="10.00"> </text>
</g>
<!-- Node9&#45;&gt;Node8 -->
<g id="edge8" class="edge"><title>Node9&#45;&gt;Node8</title>
<path fill="none" stroke="midnightblue" d="M354.368,-680.86C354.026,-660.208 353.591,-634.009 353.188,-609.704"/>
<polygon fill="none" stroke="midnightblue" points="350.872,-681.175 354.538,-691.115 357.872,-681.059 350.872,-681.175"/>
</g>
</g>
</svg>
