<?xml version="1.0" encoding="UTF-8" standalone="no"?>
<!DOCTYPE svg PUBLIC "-//W3C//DTD SVG 1.1//EN"
 "http://www.w3.org/Graphics/SVG/1.1/DTD/svg11.dtd">
<!-- Generated by graphviz version 2.34.0 (20130907.0111)
 -->
<!-- Title: FBLibrary.Core.StaticEntity Pages: 1 -->
<svg width="1764pt" height="752pt"
 viewBox="0.00 0.00 1764.00 752.00" xmlns="http://www.w3.org/2000/svg" xmlns:xlink="http://www.w3.org/1999/xlink">
<g id="graph0" class="graph" transform="scale(1 1) rotate(0) translate(4 748)">
<title>FBLibrary.Core.StaticEntity</title>
<polygon fill="white" stroke="white" points="-4,4 -4,-748 1760,-748 1760,4 -4,4"/>
<!-- Node1 -->
<g id="node1" class="node"><title>Node1</title>
<polygon fill="#bfbfbf" stroke="black" points="786,-288.5 786,-367.5 922,-367.5 922,-288.5 786,-288.5"/>
<text text-anchor="middle" x="854" y="-355.5" font-family="Helvetica,sans-Serif" font-size="10.00">FBLibrary.Core.StaticEntity</text>
<polyline fill="none" stroke="black" points="786,-348.5 922,-348.5 "/>
<text text-anchor="middle" x="854" y="-336.5" font-family="Helvetica,sans-Serif" font-size="10.00"> </text>
<polyline fill="none" stroke="black" points="786,-329.5 922,-329.5 "/>
<text text-anchor="start" x="794" y="-317.5" font-family="Helvetica,sans-Serif" font-size="10.00">+ Update()</text>
<text text-anchor="start" x="794" y="-306.5" font-family="Helvetica,sans-Serif" font-size="10.00"># StaticEntity()</text>
<text text-anchor="start" x="794" y="-295.5" font-family="Helvetica,sans-Serif" font-size="10.00"># StaticEntity()</text>
</g>
<!-- Node4 -->
<g id="node4" class="node"><title>Node4</title>
<g id="a_node4"><a xlink:href="class_f_b_library_1_1_core_1_1_base_entities_1_1_base_arrow.html" target="_top" xlink:title="{FBLibrary.Core.BaseEntities.\lBaseArrow\n|# Direction\l|# BaseArrow()\l}">
<polygon fill="white" stroke="black" points="92.5,-167 92.5,-235 235.5,-235 235.5,-167 92.5,-167"/>
<text text-anchor="start" x="100.5" y="-223" font-family="Helvetica,sans-Serif" font-size="10.00">FBLibrary.Core.BaseEntities.</text>
<text text-anchor="middle" x="164" y="-212" font-family="Helvetica,sans-Serif" font-size="10.00">BaseArrow</text>
<polyline fill="none" stroke="black" points="92.5,-205 235.5,-205 "/>
<text text-anchor="start" x="100.5" y="-193" font-family="Helvetica,sans-Serif" font-size="10.00"># Direction</text>
<polyline fill="none" stroke="black" points="92.5,-186 235.5,-186 "/>
<text text-anchor="start" x="100.5" y="-174" font-family="Helvetica,sans-Serif" font-size="10.00"># BaseArrow()</text>
</a>
</g>
</g>
<!-- Node1&#45;&gt;Node4 -->
<g id="edge3" class="edge"><title>Node1&#45;&gt;Node4</title>
<path fill="none" stroke="midnightblue" d="M775.521,-319.011C673.691,-307.871 490.848,-285.227 337,-252 303.385,-244.74 266.716,-234.487 235.825,-225.155"/>
<polygon fill="none" stroke="midnightblue" points="775.402,-322.518 785.721,-320.118 776.157,-315.559 775.402,-322.518"/>
</g>
<!-- Node6 -->
<g id="node6" class="node"><title>Node6</title>
<g id="a_node6"><a xlink:href="class_f_b_library_1_1_core_1_1_base_entities_1_1_base_edge_wall.html" target="_top" xlink:title="{FBLibrary.Core.BaseEntities.\lBaseEdgeWall\n||# BaseEdgeWall()\l}">
<polygon fill="white" stroke="black" points="346.5,-167 346.5,-235 489.5,-235 489.5,-167 346.5,-167"/>
<text text-anchor="start" x="354.5" y="-223" font-family="Helvetica,sans-Serif" font-size="10.00">FBLibrary.Core.BaseEntities.</text>
<text text-anchor="middle" x="418" y="-212" font-family="Helvetica,sans-Serif" font-size="10.00">BaseEdgeWall</text>
<polyline fill="none" stroke="black" points="346.5,-205 489.5,-205 "/>
<text text-anchor="middle" x="418" y="-193" font-family="Helvetica,sans-Serif" font-size="10.00"> </text>
<polyline fill="none" stroke="black" points="346.5,-186 489.5,-186 "/>
<text text-anchor="start" x="354.5" y="-174" font-family="Helvetica,sans-Serif" font-size="10.00"># BaseEdgeWall()</text>
</a>
</g>
</g>
<!-- Node1&#45;&gt;Node6 -->
<g id="edge5" class="edge"><title>Node1&#45;&gt;Node6</title>
<path fill="none" stroke="midnightblue" d="M776.194,-304.693C694.927,-281.394 568.516,-245.153 489.63,-222.536"/>
<polygon fill="none" stroke="midnightblue" points="775.298,-308.077 785.875,-307.469 777.227,-301.348 775.298,-308.077"/>
</g>
<!-- Node9 -->
<g id="node9" class="node"><title>Node9</title>
<g id="a_node9"><a xlink:href="class_f_b_library_1_1_core_1_1_base_entities_1_1_base_power_up.html" target="_top" xlink:title="{FBLibrary.Core.BaseEntities.\lBasePowerUp\n|+ Type\l|+ PickUp()\l+ Update()\l+ ApplyEffect()\l# BasePowerUp()\l}">
<polygon fill="white" stroke="black" points="697.5,-150.5 697.5,-251.5 840.5,-251.5 840.5,-150.5 697.5,-150.5"/>
<text text-anchor="start" x="705.5" y="-239.5" font-family="Helvetica,sans-Serif" font-size="10.00">FBLibrary.Core.BaseEntities.</text>
<text text-anchor="middle" x="769" y="-228.5" font-family="Helvetica,sans-Serif" font-size="10.00">BasePowerUp</text>
<polyline fill="none" stroke="black" points="697.5,-221.5 840.5,-221.5 "/>
<text text-anchor="start" x="705.5" y="-209.5" font-family="Helvetica,sans-Serif" font-size="10.00">+ Type</text>
<polyline fill="none" stroke="black" points="697.5,-202.5 840.5,-202.5 "/>
<text text-anchor="start" x="705.5" y="-190.5" font-family="Helvetica,sans-Serif" font-size="10.00">+ PickUp()</text>
<text text-anchor="start" x="705.5" y="-179.5" font-family="Helvetica,sans-Serif" font-size="10.00">+ Update()</text>
<text text-anchor="start" x="705.5" y="-168.5" font-family="Helvetica,sans-Serif" font-size="10.00">+ ApplyEffect()</text>
<text text-anchor="start" x="705.5" y="-157.5" font-family="Helvetica,sans-Serif" font-size="10.00"># BasePowerUp()</text>
</a>
</g>
</g>
<!-- Node1&#45;&gt;Node9 -->
<g id="edge8" class="edge"><title>Node1&#45;&gt;Node9</title>
<path fill="none" stroke="midnightblue" d="M822.119,-280.116C815.807,-270.834 809.162,-261.062 802.79,-251.691"/>
<polygon fill="none" stroke="midnightblue" points="819.286,-282.175 827.804,-288.476 825.075,-278.239 819.286,-282.175"/>
</g>
<!-- Node12 -->
<g id="node12" class="node"><title>Node12</title>
<g id="a_node12"><a xlink:href="class_f_b_library_1_1_core_1_1_base_entities_1_1_base_teleporter.html" target="_top" xlink:title="{FBLibrary.Core.BaseEntities.\lBaseTeleporter\n||# BaseTeleporter()\l}">
<polygon fill="white" stroke="black" points="867.5,-167 867.5,-235 1010.5,-235 1010.5,-167 867.5,-167"/>
<text text-anchor="start" x="875.5" y="-223" font-family="Helvetica,sans-Serif" font-size="10.00">FBLibrary.Core.BaseEntities.</text>
<text text-anchor="middle" x="939" y="-212" font-family="Helvetica,sans-Serif" font-size="10.00">BaseTeleporter</text>
<polyline fill="none" stroke="black" points="867.5,-205 1010.5,-205 "/>
<text text-anchor="middle" x="939" y="-193" font-family="Helvetica,sans-Serif" font-size="10.00"> </text>
<polyline fill="none" stroke="black" points="867.5,-186 1010.5,-186 "/>
<text text-anchor="start" x="875.5" y="-174" font-family="Helvetica,sans-Serif" font-size="10.00"># BaseTeleporter()</text>
</a>
</g>
</g>
<!-- Node1&#45;&gt;Node12 -->
<g id="edge11" class="edge"><title>Node1&#45;&gt;Node12</title>
<path fill="none" stroke="midnightblue" d="M886.046,-279.874C896.179,-264.972 907.157,-248.827 916.477,-235.122"/>
<polygon fill="none" stroke="midnightblue" points="882.925,-278.239 880.196,-288.476 888.714,-282.175 882.925,-278.239"/>
</g>
<!-- Node14 -->
<g id="node14" class="node"><title>Node14</title>
<g id="a_node14"><a xlink:href="class_f_b_library_1_1_core_1_1_base_entities_1_1_base_unbreakable_wall.html" target="_top" xlink:title="{FBLibrary.Core.BaseEntities.\lBaseUnbreakableWall\n||# BaseUnbreakableWall()\l}">
<polygon fill="white" stroke="black" points="1069.5,-167 1069.5,-235 1212.5,-235 1212.5,-167 1069.5,-167"/>
<text text-anchor="start" x="1077.5" y="-223" font-family="Helvetica,sans-Serif" font-size="10.00">FBLibrary.Core.BaseEntities.</text>
<text text-anchor="middle" x="1141" y="-212" font-family="Helvetica,sans-Serif" font-size="10.00">BaseUnbreakableWall</text>
<polyline fill="none" stroke="black" points="1069.5,-205 1212.5,-205 "/>
<text text-anchor="middle" x="1141" y="-193" font-family="Helvetica,sans-Serif" font-size="10.00"> </text>
<polyline fill="none" stroke="black" points="1069.5,-186 1212.5,-186 "/>
<text text-anchor="start" x="1077.5" y="-174" font-family="Helvetica,sans-Serif" font-size="10.00"># BaseUnbreakableWall()</text>
</a>
</g>
</g>
<!-- Node1&#45;&gt;Node14 -->
<g id="edge13" class="edge"><title>Node1&#45;&gt;Node14</title>
<path fill="none" stroke="midnightblue" d="M931.306,-293.33C974.297,-274.606 1027.44,-251.46 1069.47,-233.155"/>
<polygon fill="none" stroke="midnightblue" points="929.786,-290.175 922.015,-297.377 932.581,-296.592 929.786,-290.175"/>
</g>
<!-- Node17 -->
<g id="node17" class="node"><title>Node17</title>
<g id="a_node17"><a xlink:href="class_f_b_library_1_1_core_1_1_base_entities_1_1_base_wall.html" target="_top" xlink:title="{FBLibrary.Core.BaseEntities.\lBaseWall\n||+ Update()\l# BaseWall()\l}">
<polygon fill="white" stroke="black" points="1460.5,-161.5 1460.5,-240.5 1603.5,-240.5 1603.5,-161.5 1460.5,-161.5"/>
<text text-anchor="start" x="1468.5" y="-228.5" font-family="Helvetica,sans-Serif" font-size="10.00">FBLibrary.Core.BaseEntities.</text>
<text text-anchor="middle" x="1532" y="-217.5" font-family="Helvetica,sans-Serif" font-size="10.00">BaseWall</text>
<polyline fill="none" stroke="black" points="1460.5,-210.5 1603.5,-210.5 "/>
<text text-anchor="middle" x="1532" y="-198.5" font-family="Helvetica,sans-Serif" font-size="10.00"> </text>
<polyline fill="none" stroke="black" points="1460.5,-191.5 1603.5,-191.5 "/>
<text text-anchor="start" x="1468.5" y="-179.5" font-family="Helvetica,sans-Serif" font-size="10.00">+ Update()</text>
<text text-anchor="start" x="1468.5" y="-168.5" font-family="Helvetica,sans-Serif" font-size="10.00"># BaseWall()</text>
</a>
</g>
</g>
<!-- Node1&#45;&gt;Node17 -->
<g id="edge16" class="edge"><title>Node1&#45;&gt;Node17</title>
<path fill="none" stroke="midnightblue" d="M932.207,-312.581C1064.92,-288.114 1332.26,-238.825 1460.37,-215.206"/>
<polygon fill="none" stroke="midnightblue" points="931.313,-309.187 922.114,-314.442 932.582,-316.071 931.313,-309.187"/>
</g>
<!-- Node2 -->
<g id="node2" class="node"><title>Node2</title>
<g id="a_node2"><a xlink:href="class_f_b_library_1_1_core_1_1_base_entity.html" target="_top" xlink:title="{BaseEntity\n|+ IsAlive\l+ InDestruction\l+ DestructionTime\l+ Position\l+ PositionX\l+ PositionY\l+ CellPositionX\l+ CellPositionY\l+ CellPosition\l+ Dimension\l|+ Update()\l+ ChangePosition()\l+ ChangePosition()\l+ ChangePosition()\l+ Destroy()\l+ Remove()\l# BaseEntity()\l# BaseEntity()\l}">
<polygon fill="white" stroke="black" points="804,-404.5 804,-637.5 904,-637.5 904,-404.5 804,-404.5"/>
<text text-anchor="middle" x="854" y="-625.5" font-family="Helvetica,sans-Serif" font-size="10.00">BaseEntity</text>
<polyline fill="none" stroke="black" points="804,-618.5 904,-618.5 "/>
<text text-anchor="start" x="812" y="-606.5" font-family="Helvetica,sans-Serif" font-size="10.00">+ IsAlive</text>
<text text-anchor="start" x="812" y="-595.5" font-family="Helvetica,sans-Serif" font-size="10.00">+ InDestruction</text>
<text text-anchor="start" x="812" y="-584.5" font-family="Helvetica,sans-Serif" font-size="10.00">+ DestructionTime</text>
<text text-anchor="start" x="812" y="-573.5" font-family="Helvetica,sans-Serif" font-size="10.00">+ Position</text>
<text text-anchor="start" x="812" y="-562.5" font-family="Helvetica,sans-Serif" font-size="10.00">+ PositionX</text>
<text text-anchor="start" x="812" y="-551.5" font-family="Helvetica,sans-Serif" font-size="10.00">+ PositionY</text>
<text text-anchor="start" x="812" y="-540.5" font-family="Helvetica,sans-Serif" font-size="10.00">+ CellPositionX</text>
<text text-anchor="start" x="812" y="-529.5" font-family="Helvetica,sans-Serif" font-size="10.00">+ CellPositionY</text>
<text text-anchor="start" x="812" y="-518.5" font-family="Helvetica,sans-Serif" font-size="10.00">+ CellPosition</text>
<text text-anchor="start" x="812" y="-507.5" font-family="Helvetica,sans-Serif" font-size="10.00">+ Dimension</text>
<polyline fill="none" stroke="black" points="804,-500.5 904,-500.5 "/>
<text text-anchor="start" x="812" y="-488.5" font-family="Helvetica,sans-Serif" font-size="10.00">+ Update()</text>
<text text-anchor="start" x="812" y="-477.5" font-family="Helvetica,sans-Serif" font-size="10.00">+ ChangePosition()</text>
<text text-anchor="start" x="812" y="-466.5" font-family="Helvetica,sans-Serif" font-size="10.00">+ ChangePosition()</text>
<text text-anchor="start" x="812" y="-455.5" font-family="Helvetica,sans-Serif" font-size="10.00">+ ChangePosition()</text>
<text text-anchor="start" x="812" y="-444.5" font-family="Helvetica,sans-Serif" font-size="10.00">+ Destroy()</text>
<text text-anchor="start" x="812" y="-433.5" font-family="Helvetica,sans-Serif" font-size="10.00">+ Remove()</text>
<text text-anchor="start" x="812" y="-422.5" font-family="Helvetica,sans-Serif" font-size="10.00"># BaseEntity()</text>
<text text-anchor="start" x="812" y="-411.5" font-family="Helvetica,sans-Serif" font-size="10.00"># BaseEntity()</text>
</a>
</g>
</g>
<!-- Node2&#45;&gt;Node1 -->
<g id="edge1" class="edge"><title>Node2&#45;&gt;Node1</title>
<path fill="none" stroke="midnightblue" d="M854,-394.405C854,-384.866 854,-375.774 854,-367.565"/>
<polygon fill="none" stroke="midnightblue" points="850.5,-394.488 854,-404.488 857.5,-394.488 850.5,-394.488"/>
</g>
<!-- Node3 -->
<g id="node3" class="node"><title>Node3</title>
<g id="a_node3"><a xlink:href="interface_f_b_library_1_1_core_1_1_i_entity.html" target="_top" xlink:title="{IEntity\n||+ Destroy()\l+ Remove()\l}">
<polygon fill="white" stroke="black" points="821,-675 821,-743 887,-743 887,-675 821,-675"/>
<text text-anchor="middle" x="854" y="-731" font-family="Helvetica,sans-Serif" font-size="10.00">IEntity</text>
<polyline fill="none" stroke="black" points="821,-724 887,-724 "/>
<text text-anchor="middle" x="854" y="-712" font-family="Helvetica,sans-Serif" font-size="10.00"> </text>
<polyline fill="none" stroke="black" points="821,-705 887,-705 "/>
<text text-anchor="start" x="829" y="-693" font-family="Helvetica,sans-Serif" font-size="10.00">+ Destroy()</text>
<text text-anchor="start" x="829" y="-682" font-family="Helvetica,sans-Serif" font-size="10.00">+ Remove()</text>
</a>
</g>
</g>
<!-- Node3&#45;&gt;Node2 -->
<g id="edge2" class="edge"><title>Node3&#45;&gt;Node2</title>
<path fill="none" stroke="midnightblue" d="M854,-664.601C854,-656.247 854,-647.139 854,-637.698"/>
<polygon fill="none" stroke="midnightblue" points="850.5,-664.747 854,-674.747 857.5,-664.747 850.5,-664.747"/>
</g>
<!-- Node5 -->
<g id="node5" class="node"><title>Node5</title>
<g id="a_node5"><a xlink:href="class_f_b_server_1_1_core_1_1_entities_1_1_arrow.html" target="_top" xlink:title="{FBServer.Core.Entities.Arrow\n||+ Arrow()\l+ Destroy()\l+ Remove()\l}">
<polygon fill="white" stroke="black" points="-0.5,-17.5 -0.5,-96.5 142.5,-96.5 142.5,-17.5 -0.5,-17.5"/>
<text text-anchor="middle" x="71" y="-84.5" font-family="Helvetica,sans-Serif" font-size="10.00">FBServer.Core.Entities.Arrow</text>
<polyline fill="none" stroke="black" points="-0.5,-77.5 142.5,-77.5 "/>
<text text-anchor="middle" x="71" y="-65.5" font-family="Helvetica,sans-Serif" font-size="10.00"> </text>
<polyline fill="none" stroke="black" points="-0.5,-58.5 142.5,-58.5 "/>
<text text-anchor="start" x="7.5" y="-46.5" font-family="Helvetica,sans-Serif" font-size="10.00">+ Arrow()</text>
<text text-anchor="start" x="7.5" y="-35.5" font-family="Helvetica,sans-Serif" font-size="10.00">+ Destroy()</text>
<text text-anchor="start" x="7.5" y="-24.5" font-family="Helvetica,sans-Serif" font-size="10.00">+ Remove()</text>
</a>
</g>
</g>
<!-- Node4&#45;&gt;Node5 -->
<g id="edge4" class="edge"><title>Node4&#45;&gt;Node5</title>
<path fill="none" stroke="midnightblue" d="M136.694,-158.308C123.92,-138.802 108.801,-115.718 96.2898,-96.6146"/>
<polygon fill="none" stroke="midnightblue" points="133.789,-160.259 142.196,-166.707 139.645,-156.424 133.789,-160.259"/>
</g>
<!-- Node7 -->
<g id="node7" class="node"><title>Node7</title>
<g id="a_node7"><a xlink:href="class_f_b_client_1_1_core_1_1_entities_1_1_edge_wall.html" target="_top" xlink:title="{FBClient.Core.Entities.EdgeWall\n|+ Sprite\l|+ EdgeWall()\l+ Update()\l+ Draw()\l+ Destroy()\l+ Remove()\l}">
<polygon fill="white" stroke="black" points="161,-6.5 161,-107.5 319,-107.5 319,-6.5 161,-6.5"/>
<text text-anchor="middle" x="240" y="-95.5" font-family="Helvetica,sans-Serif" font-size="10.00">FBClient.Core.Entities.EdgeWall</text>
<polyline fill="none" stroke="black" points="161,-88.5 319,-88.5 "/>
<text text-anchor="start" x="169" y="-76.5" font-family="Helvetica,sans-Serif" font-size="10.00">+ Sprite</text>
<polyline fill="none" stroke="black" points="161,-69.5 319,-69.5 "/>
<text text-anchor="start" x="169" y="-57.5" font-family="Helvetica,sans-Serif" font-size="10.00">+ EdgeWall()</text>
<text text-anchor="start" x="169" y="-46.5" font-family="Helvetica,sans-Serif" font-size="10.00">+ Update()</text>
<text text-anchor="start" x="169" y="-35.5" font-family="Helvetica,sans-Serif" font-size="10.00">+ Draw()</text>
<text text-anchor="start" x="169" y="-24.5" font-family="Helvetica,sans-Serif" font-size="10.00">+ Destroy()</text>
<text text-anchor="start" x="169" y="-13.5" font-family="Helvetica,sans-Serif" font-size="10.00">+ Remove()</text>
</a>
</g>
</g>
<!-- Node6&#45;&gt;Node7 -->
<g id="edge6" class="edge"><title>Node6&#45;&gt;Node7</title>
<path fill="none" stroke="midnightblue" d="M368.288,-160.342C347.755,-143.962 323.731,-124.796 302.06,-107.508"/>
<polygon fill="none" stroke="midnightblue" points="366.267,-163.207 376.267,-166.707 370.632,-157.735 366.267,-163.207"/>
</g>
<!-- Node8 -->
<g id="node8" class="node"><title>Node8</title>
<g id="a_node8"><a xlink:href="class_f_b_server_1_1_core_1_1_entities_1_1_edge_wall.html" target="_top" xlink:title="{FBServer.Core.Entities.EdgeWall\n||+ EdgeWall()\l+ Destroy()\l+ Remove()\l}">
<polygon fill="white" stroke="black" points="337.5,-17.5 337.5,-96.5 498.5,-96.5 498.5,-17.5 337.5,-17.5"/>
<text text-anchor="middle" x="418" y="-84.5" font-family="Helvetica,sans-Serif" font-size="10.00">FBServer.Core.Entities.EdgeWall</text>
<polyline fill="none" stroke="black" points="337.5,-77.5 498.5,-77.5 "/>
<text text-anchor="middle" x="418" y="-65.5" font-family="Helvetica,sans-Serif" font-size="10.00"> </text>
<polyline fill="none" stroke="black" points="337.5,-58.5 498.5,-58.5 "/>
<text text-anchor="start" x="345.5" y="-46.5" font-family="Helvetica,sans-Serif" font-size="10.00">+ EdgeWall()</text>
<text text-anchor="start" x="345.5" y="-35.5" font-family="Helvetica,sans-Serif" font-size="10.00">+ Destroy()</text>
<text text-anchor="start" x="345.5" y="-24.5" font-family="Helvetica,sans-Serif" font-size="10.00">+ Remove()</text>
</a>
</g>
</g>
<!-- Node6&#45;&gt;Node8 -->
<g id="edge7" class="edge"><title>Node6&#45;&gt;Node8</title>
<path fill="none" stroke="midnightblue" d="M418,-156.461C418,-137.357 418,-115.118 418,-96.6146"/>
<polygon fill="none" stroke="midnightblue" points="414.5,-156.707 418,-166.707 421.5,-156.707 414.5,-156.707"/>
</g>
<!-- Node10 -->
<g id="node10" class="node"><title>Node10</title>
<g id="a_node10"><a xlink:href="class_f_b_client_1_1_core_1_1_entities_1_1_power_up.html" target="_top" xlink:title="{FBClient.Core.Entities.PowerUp\n|+ Sprite\l|+ PowerUp()\l+ Update()\l+ Draw()\l+ PickUp()\l+ Destroy()\l+ Remove()\l}">
<polygon fill="white" stroke="black" points="516.5,-1 516.5,-113 671.5,-113 671.5,-1 516.5,-1"/>
<text text-anchor="middle" x="594" y="-101" font-family="Helvetica,sans-Serif" font-size="10.00">FBClient.Core.Entities.PowerUp</text>
<polyline fill="none" stroke="black" points="516.5,-94 671.5,-94 "/>
<text text-anchor="start" x="524.5" y="-82" font-family="Helvetica,sans-Serif" font-size="10.00">+ Sprite</text>
<polyline fill="none" stroke="black" points="516.5,-75 671.5,-75 "/>
<text text-anchor="start" x="524.5" y="-63" font-family="Helvetica,sans-Serif" font-size="10.00">+ PowerUp()</text>
<text text-anchor="start" x="524.5" y="-52" font-family="Helvetica,sans-Serif" font-size="10.00">+ Update()</text>
<text text-anchor="start" x="524.5" y="-41" font-family="Helvetica,sans-Serif" font-size="10.00">+ Draw()</text>
<text text-anchor="start" x="524.5" y="-30" font-family="Helvetica,sans-Serif" font-size="10.00">+ PickUp()</text>
<text text-anchor="start" x="524.5" y="-19" font-family="Helvetica,sans-Serif" font-size="10.00">+ Destroy()</text>
<text text-anchor="start" x="524.5" y="-8" font-family="Helvetica,sans-Serif" font-size="10.00">+ Remove()</text>
</a>
</g>
</g>
<!-- Node9&#45;&gt;Node10 -->
<g id="edge9" class="edge"><title>Node9&#45;&gt;Node10</title>
<path fill="none" stroke="midnightblue" d="M699.728,-143.791C687.325,-133.727 674.411,-123.248 662.043,-113.212"/>
<polygon fill="none" stroke="midnightblue" points="697.823,-146.752 707.793,-150.335 702.234,-141.317 697.823,-146.752"/>
</g>
<!-- Node11 -->
<g id="node11" class="node"><title>Node11</title>
<g id="a_node11"><a xlink:href="class_f_b_server_1_1_core_1_1_entities_1_1_power_up.html" target="_top" xlink:title="{FBServer.Core.Entities.PowerUp\n||+ PowerUp()\l+ Destroy()\l+ Remove()\l}">
<polygon fill="white" stroke="black" points="690,-17.5 690,-96.5 848,-96.5 848,-17.5 690,-17.5"/>
<text text-anchor="middle" x="769" y="-84.5" font-family="Helvetica,sans-Serif" font-size="10.00">FBServer.Core.Entities.PowerUp</text>
<polyline fill="none" stroke="black" points="690,-77.5 848,-77.5 "/>
<text text-anchor="middle" x="769" y="-65.5" font-family="Helvetica,sans-Serif" font-size="10.00"> </text>
<polyline fill="none" stroke="black" points="690,-58.5 848,-58.5 "/>
<text text-anchor="start" x="698" y="-46.5" font-family="Helvetica,sans-Serif" font-size="10.00">+ PowerUp()</text>
<text text-anchor="start" x="698" y="-35.5" font-family="Helvetica,sans-Serif" font-size="10.00">+ Destroy()</text>
<text text-anchor="start" x="698" y="-24.5" font-family="Helvetica,sans-Serif" font-size="10.00">+ Remove()</text>
</a>
</g>
</g>
<!-- Node9&#45;&gt;Node11 -->
<g id="edge10" class="edge"><title>Node9&#45;&gt;Node11</title>
<path fill="none" stroke="midnightblue" d="M769,-140.267C769,-125.524 769,-110.116 769,-96.6731"/>
<polygon fill="none" stroke="midnightblue" points="765.5,-140.335 769,-150.335 772.5,-140.335 765.5,-140.335"/>
</g>
<!-- Node13 -->
<g id="node13" class="node"><title>Node13</title>
<g id="a_node13"><a xlink:href="class_f_b_server_1_1_core_1_1_entities_1_1_teleporter.html" target="_top" xlink:title="{FBServer.Core.Entities.Teleporter\n||+ Teleporter()\l+ Destroy()\l+ Remove()\l}">
<polygon fill="white" stroke="black" points="866.5,-17.5 866.5,-96.5 1027.5,-96.5 1027.5,-17.5 866.5,-17.5"/>
<text text-anchor="middle" x="947" y="-84.5" font-family="Helvetica,sans-Serif" font-size="10.00">FBServer.Core.Entities.Teleporter</text>
<polyline fill="none" stroke="black" points="866.5,-77.5 1027.5,-77.5 "/>
<text text-anchor="middle" x="947" y="-65.5" font-family="Helvetica,sans-Serif" font-size="10.00"> </text>
<polyline fill="none" stroke="black" points="866.5,-58.5 1027.5,-58.5 "/>
<text text-anchor="start" x="874.5" y="-46.5" font-family="Helvetica,sans-Serif" font-size="10.00">+ Teleporter()</text>
<text text-anchor="start" x="874.5" y="-35.5" font-family="Helvetica,sans-Serif" font-size="10.00">+ Destroy()</text>
<text text-anchor="start" x="874.5" y="-24.5" font-family="Helvetica,sans-Serif" font-size="10.00">+ Remove()</text>
</a>
</g>
</g>
<!-- Node12&#45;&gt;Node13 -->
<g id="edge12" class="edge"><title>Node12&#45;&gt;Node13</title>
<path fill="none" stroke="midnightblue" d="M941.453,-156.461C942.529,-137.357 943.782,-115.118 944.825,-96.6146"/>
<polygon fill="none" stroke="midnightblue" points="937.944,-156.526 940.876,-166.707 944.933,-156.92 937.944,-156.526"/>
</g>
<!-- Node15 -->
<g id="node15" class="node"><title>Node15</title>
<g id="a_node15"><a xlink:href="class_f_b_client_1_1_core_1_1_entities_1_1_unbreakable_wall.html" target="_top" xlink:title="{FBClient.Core.Entities.UnbreakableWall\n|+ Sprite\l|+ UnbreakableWall()\l+ Update()\l+ Draw()\l+ Destroy()\l+ Remove()\l}">
<polygon fill="white" stroke="black" points="1046,-6.5 1046,-107.5 1236,-107.5 1236,-6.5 1046,-6.5"/>
<text text-anchor="middle" x="1141" y="-95.5" font-family="Helvetica,sans-Serif" font-size="10.00">FBClient.Core.Entities.UnbreakableWall</text>
<polyline fill="none" stroke="black" points="1046,-88.5 1236,-88.5 "/>
<text text-anchor="start" x="1054" y="-76.5" font-family="Helvetica,sans-Serif" font-size="10.00">+ Sprite</text>
<polyline fill="none" stroke="black" points="1046,-69.5 1236,-69.5 "/>
<text text-anchor="start" x="1054" y="-57.5" font-family="Helvetica,sans-Serif" font-size="10.00">+ UnbreakableWall()</text>
<text text-anchor="start" x="1054" y="-46.5" font-family="Helvetica,sans-Serif" font-size="10.00">+ Update()</text>
<text text-anchor="start" x="1054" y="-35.5" font-family="Helvetica,sans-Serif" font-size="10.00">+ Draw()</text>
<text text-anchor="start" x="1054" y="-24.5" font-family="Helvetica,sans-Serif" font-size="10.00">+ Destroy()</text>
<text text-anchor="start" x="1054" y="-13.5" font-family="Helvetica,sans-Serif" font-size="10.00">+ Remove()</text>
</a>
</g>
</g>
<!-- Node14&#45;&gt;Node15 -->
<g id="edge14" class="edge"><title>Node14&#45;&gt;Node15</title>
<path fill="none" stroke="midnightblue" d="M1141,-156.378C1141,-140.921 1141,-123.419 1141,-107.508"/>
<polygon fill="none" stroke="midnightblue" points="1137.5,-156.707 1141,-166.707 1144.5,-156.707 1137.5,-156.707"/>
</g>
<!-- Node16 -->
<g id="node16" class="node"><title>Node16</title>
<g id="a_node16"><a xlink:href="class_f_b_server_1_1_core_1_1_entities_1_1_unbreakable_wall.html" target="_top" xlink:title="{FBServer.Core.Entities.UnbreakableWall\n||+ UnbreakableWall()\l+ Destroy()\l+ Remove()\l}">
<polygon fill="white" stroke="black" points="1254,-17.5 1254,-96.5 1446,-96.5 1446,-17.5 1254,-17.5"/>
<text text-anchor="middle" x="1350" y="-84.5" font-family="Helvetica,sans-Serif" font-size="10.00">FBServer.Core.Entities.UnbreakableWall</text>
<polyline fill="none" stroke="black" points="1254,-77.5 1446,-77.5 "/>
<text text-anchor="middle" x="1350" y="-65.5" font-family="Helvetica,sans-Serif" font-size="10.00"> </text>
<polyline fill="none" stroke="black" points="1254,-58.5 1446,-58.5 "/>
<text text-anchor="start" x="1262" y="-46.5" font-family="Helvetica,sans-Serif" font-size="10.00">+ UnbreakableWall()</text>
<text text-anchor="start" x="1262" y="-35.5" font-family="Helvetica,sans-Serif" font-size="10.00">+ Destroy()</text>
<text text-anchor="start" x="1262" y="-24.5" font-family="Helvetica,sans-Serif" font-size="10.00">+ Remove()</text>
</a>
</g>
</g>
<!-- Node14&#45;&gt;Node16 -->
<g id="edge15" class="edge"><title>Node14&#45;&gt;Node16</title>
<path fill="none" stroke="midnightblue" d="M1198.27,-161.089C1227.75,-141.058 1263.59,-116.71 1293.03,-96.7083"/>
<polygon fill="none" stroke="midnightblue" points="1196.04,-158.372 1189.74,-166.887 1199.98,-164.162 1196.04,-158.372"/>
</g>
<!-- Node18 -->
<g id="node18" class="node"><title>Node18</title>
<g id="a_node18"><a xlink:href="class_f_b_client_1_1_core_1_1_entities_1_1_wall.html" target="_top" xlink:title="{FBClient.Core.Entities.Wall\n|+ Sprite\l|+ Wall()\l+ Update()\l+ Draw()\l+ Destroy()\l+ Remove()\l}">
<polygon fill="white" stroke="black" points="1464,-6.5 1464,-107.5 1600,-107.5 1600,-6.5 1464,-6.5"/>
<text text-anchor="middle" x="1532" y="-95.5" font-family="Helvetica,sans-Serif" font-size="10.00">FBClient.Core.Entities.Wall</text>
<polyline fill="none" stroke="black" points="1464,-88.5 1600,-88.5 "/>
<text text-anchor="start" x="1472" y="-76.5" font-family="Helvetica,sans-Serif" font-size="10.00">+ Sprite</text>
<polyline fill="none" stroke="black" points="1464,-69.5 1600,-69.5 "/>
<text text-anchor="start" x="1472" y="-57.5" font-family="Helvetica,sans-Serif" font-size="10.00">+ Wall()</text>
<text text-anchor="start" x="1472" y="-46.5" font-family="Helvetica,sans-Serif" font-size="10.00">+ Update()</text>
<text text-anchor="start" x="1472" y="-35.5" font-family="Helvetica,sans-Serif" font-size="10.00">+ Draw()</text>
<text text-anchor="start" x="1472" y="-24.5" font-family="Helvetica,sans-Serif" font-size="10.00">+ Destroy()</text>
<text text-anchor="start" x="1472" y="-13.5" font-family="Helvetica,sans-Serif" font-size="10.00">+ Remove()</text>
</a>
</g>
</g>
<!-- Node17&#45;&gt;Node18 -->
<g id="edge17" class="edge"><title>Node17&#45;&gt;Node18</title>
<path fill="none" stroke="midnightblue" d="M1532,-150.816C1532,-136.869 1532,-121.679 1532,-107.702"/>
<polygon fill="none" stroke="midnightblue" points="1528.5,-151.198 1532,-161.198 1535.5,-151.198 1528.5,-151.198"/>
</g>
<!-- Node19 -->
<g id="node19" class="node"><title>Node19</title>
<g id="a_node19"><a xlink:href="class_f_b_server_1_1_core_1_1_entities_1_1_wall.html" target="_top" xlink:title="{FBServer.Core.Entities.Wall\n||+ Wall()\l+ Destroy()\l+ Remove()\l}">
<polygon fill="white" stroke="black" points="1618,-17.5 1618,-96.5 1756,-96.5 1756,-17.5 1618,-17.5"/>
<text text-anchor="middle" x="1687" y="-84.5" font-family="Helvetica,sans-Serif" font-size="10.00">FBServer.Core.Entities.Wall</text>
<polyline fill="none" stroke="black" points="1618,-77.5 1756,-77.5 "/>
<text text-anchor="middle" x="1687" y="-65.5" font-family="Helvetica,sans-Serif" font-size="10.00"> </text>
<polyline fill="none" stroke="black" points="1618,-58.5 1756,-58.5 "/>
<text text-anchor="start" x="1626" y="-46.5" font-family="Helvetica,sans-Serif" font-size="10.00">+ Wall()</text>
<text text-anchor="start" x="1626" y="-35.5" font-family="Helvetica,sans-Serif" font-size="10.00">+ Destroy()</text>
<text text-anchor="start" x="1626" y="-24.5" font-family="Helvetica,sans-Serif" font-size="10.00">+ Remove()</text>
</a>
</g>
</g>
<!-- Node17&#45;&gt;Node19 -->
<g id="edge18" class="edge"><title>Node17&#45;&gt;Node19</title>
<path fill="none" stroke="midnightblue" d="M1581.99,-154.205C1602.31,-135.587 1625.53,-114.311 1644.97,-96.5092"/>
<polygon fill="none" stroke="midnightblue" points="1579.36,-151.862 1574.35,-161.198 1584.09,-157.023 1579.36,-151.862"/>
</g>
</g>
</svg>
