<?xml version="1.0" encoding="UTF-8" standalone="no"?>
<!DOCTYPE svg PUBLIC "-//W3C//DTD SVG 1.1//EN"
 "http://www.w3.org/Graphics/SVG/1.1/DTD/svg11.dtd">
<!-- Generated by graphviz version 2.34.0 (20130907.0111)
 -->
<!-- Title: FBClient.Screens.MenuScreens.SinglePlayerGameModeMenuScreen Pages: 1 -->
<svg width="184pt" height="696pt"
 viewBox="0.00 0.00 184.00 696.00" xmlns="http://www.w3.org/2000/svg" xmlns:xlink="http://www.w3.org/1999/xlink">
<g id="graph0" class="graph" transform="scale(1 1) rotate(0) translate(4 692)">
<title>FBClient.Screens.MenuScreens.SinglePlayerGameModeMenuScreen</title>
<polygon fill="white" stroke="white" points="-4,4 -4,-692 180,-692 180,4 -4,4"/>
<!-- Node1 -->
<g id="node1" class="node"><title>Node1</title>
<polygon fill="#bfbfbf" stroke="black" points="0,-0.5 0,-123.5 176,-123.5 176,-0.5 0,-0.5"/>
<text text-anchor="start" x="8" y="-111.5" font-family="Helvetica,sans-Serif" font-size="10.00">FBClient.Screens.MenuScreens.</text>
<text text-anchor="middle" x="88" y="-100.5" font-family="Helvetica,sans-Serif" font-size="10.00">SinglePlayerGameModeMenuScreen</text>
<polyline fill="none" stroke="black" points="0,-93.5 176,-93.5 "/>
<text text-anchor="middle" x="88" y="-81.5" font-family="Helvetica,sans-Serif" font-size="10.00"> </text>
<polyline fill="none" stroke="black" points="0,-74.5 176,-74.5 "/>
<text text-anchor="start" x="8" y="-62.5" font-family="Helvetica,sans-Serif" font-size="10.00">+ SinglePlayerGameModeMenu</text>
<text text-anchor="start" x="8" y="-51.5" font-family="Helvetica,sans-Serif" font-size="10.00">Screen()</text>
<text text-anchor="start" x="8" y="-40.5" font-family="Helvetica,sans-Serif" font-size="10.00">+ Initialize()</text>
<text text-anchor="start" x="8" y="-29.5" font-family="Helvetica,sans-Serif" font-size="10.00">+ Update()</text>
<text text-anchor="start" x="8" y="-18.5" font-family="Helvetica,sans-Serif" font-size="10.00">+ Draw()</text>
<text text-anchor="start" x="8" y="-7.5" font-family="Helvetica,sans-Serif" font-size="10.00"># LoadContent()</text>
</g>
<!-- Node2 -->
<g id="node2" class="node"><title>Node2</title>
<g id="a_node2"><a xlink:href="class_f_b_client_1_1_screens_1_1_base_menu_screen.html" target="_top" xlink:title="{BaseMenuScreen\n|# MenuString\l# IndexMenu\l# MenuPosition\l|+ Initialize()\l+ Update()\l# BaseMenuScreen()\l}">
<polygon fill="white" stroke="black" points="34,-160.5 34,-261.5 142,-261.5 142,-160.5 34,-160.5"/>
<text text-anchor="middle" x="88" y="-249.5" font-family="Helvetica,sans-Serif" font-size="10.00">BaseMenuScreen</text>
<polyline fill="none" stroke="black" points="34,-242.5 142,-242.5 "/>
<text text-anchor="start" x="42" y="-230.5" font-family="Helvetica,sans-Serif" font-size="10.00"># MenuString</text>
<text text-anchor="start" x="42" y="-219.5" font-family="Helvetica,sans-Serif" font-size="10.00"># IndexMenu</text>
<text text-anchor="start" x="42" y="-208.5" font-family="Helvetica,sans-Serif" font-size="10.00"># MenuPosition</text>
<polyline fill="none" stroke="black" points="34,-201.5 142,-201.5 "/>
<text text-anchor="start" x="42" y="-189.5" font-family="Helvetica,sans-Serif" font-size="10.00">+ Initialize()</text>
<text text-anchor="start" x="42" y="-178.5" font-family="Helvetica,sans-Serif" font-size="10.00">+ Update()</text>
<text text-anchor="start" x="42" y="-167.5" font-family="Helvetica,sans-Serif" font-size="10.00"># BaseMenuScreen()</text>
</a>
</g>
</g>
<!-- Node2&#45;&gt;Node1 -->
<g id="edge1" class="edge"><title>Node2&#45;&gt;Node1</title>
<path fill="none" stroke="midnightblue" d="M88,-150.139C88,-141.411 88,-132.417 88,-123.672"/>
<polygon fill="none" stroke="midnightblue" points="84.5001,-150.232 88,-160.233 91.5001,-150.233 84.5001,-150.232"/>
</g>
<!-- Node3 -->
<g id="node3" class="node"><title>Node3</title>
<g id="a_node3"><a xlink:href="class_f_b_client_1_1_screens_1_1_base_game_state.html" target="_top" xlink:title="{BaseGameState\n|# ControlManager\l# BigFont\l# playerIndexInControl\l|+ BaseGameState()\l+ Update()\l+ Draw()\l# LoadContent()\l}">
<polygon fill="white" stroke="black" points="31.5,-299 31.5,-411 144.5,-411 144.5,-299 31.5,-299"/>
<text text-anchor="middle" x="88" y="-399" font-family="Helvetica,sans-Serif" font-size="10.00">BaseGameState</text>
<polyline fill="none" stroke="black" points="31.5,-392 144.5,-392 "/>
<text text-anchor="start" x="39.5" y="-380" font-family="Helvetica,sans-Serif" font-size="10.00"># ControlManager</text>
<text text-anchor="start" x="39.5" y="-369" font-family="Helvetica,sans-Serif" font-size="10.00"># BigFont</text>
<text text-anchor="start" x="39.5" y="-358" font-family="Helvetica,sans-Serif" font-size="10.00"># playerIndexInControl</text>
<polyline fill="none" stroke="black" points="31.5,-351 144.5,-351 "/>
<text text-anchor="start" x="39.5" y="-339" font-family="Helvetica,sans-Serif" font-size="10.00">+ BaseGameState()</text>
<text text-anchor="start" x="39.5" y="-328" font-family="Helvetica,sans-Serif" font-size="10.00">+ Update()</text>
<text text-anchor="start" x="39.5" y="-317" font-family="Helvetica,sans-Serif" font-size="10.00">+ Draw()</text>
<text text-anchor="start" x="39.5" y="-306" font-family="Helvetica,sans-Serif" font-size="10.00"># LoadContent()</text>
</a>
</g>
</g>
<!-- Node3&#45;&gt;Node2 -->
<g id="edge2" class="edge"><title>Node3&#45;&gt;Node2</title>
<path fill="none" stroke="midnightblue" d="M88,-288.613C88,-279.613 88,-270.492 88,-261.833"/>
<polygon fill="none" stroke="midnightblue" points="84.5001,-288.692 88,-298.692 91.5001,-288.693 84.5001,-288.692"/>
</g>
<!-- Node4 -->
<g id="node4" class="node"><title>Node4</title>
<g id="a_node4"><a xlink:href="class_f_b_client_1_1_controls_1_1_game_state.html" target="_top" xlink:title="{GameState\n|+ Components\l+ Tag\l# StateManager\l|+ Initialize()\l+ Update()\l+ Draw()\l# GameState()\l# StateChange()\l# Show()\l# Hide()\l}">
<polygon fill="white" stroke="black" points="44.5,-448.5 44.5,-593.5 131.5,-593.5 131.5,-448.5 44.5,-448.5"/>
<text text-anchor="middle" x="88" y="-581.5" font-family="Helvetica,sans-Serif" font-size="10.00">GameState</text>
<polyline fill="none" stroke="black" points="44.5,-574.5 131.5,-574.5 "/>
<text text-anchor="start" x="52.5" y="-562.5" font-family="Helvetica,sans-Serif" font-size="10.00">+ Components</text>
<text text-anchor="start" x="52.5" y="-551.5" font-family="Helvetica,sans-Serif" font-size="10.00">+ Tag</text>
<text text-anchor="start" x="52.5" y="-540.5" font-family="Helvetica,sans-Serif" font-size="10.00"># StateManager</text>
<polyline fill="none" stroke="black" points="44.5,-533.5 131.5,-533.5 "/>
<text text-anchor="start" x="52.5" y="-521.5" font-family="Helvetica,sans-Serif" font-size="10.00">+ Initialize()</text>
<text text-anchor="start" x="52.5" y="-510.5" font-family="Helvetica,sans-Serif" font-size="10.00">+ Update()</text>
<text text-anchor="start" x="52.5" y="-499.5" font-family="Helvetica,sans-Serif" font-size="10.00">+ Draw()</text>
<text text-anchor="start" x="52.5" y="-488.5" font-family="Helvetica,sans-Serif" font-size="10.00"># GameState()</text>
<text text-anchor="start" x="52.5" y="-477.5" font-family="Helvetica,sans-Serif" font-size="10.00"># StateChange()</text>
<text text-anchor="start" x="52.5" y="-466.5" font-family="Helvetica,sans-Serif" font-size="10.00"># Show()</text>
<text text-anchor="start" x="52.5" y="-455.5" font-family="Helvetica,sans-Serif" font-size="10.00"># Hide()</text>
</a>
</g>
</g>
<!-- Node4&#45;&gt;Node3 -->
<g id="edge3" class="edge"><title>Node4&#45;&gt;Node3</title>
<path fill="none" stroke="midnightblue" d="M88,-437.855C88,-428.789 88,-419.726 88,-411.109"/>
<polygon fill="none" stroke="midnightblue" points="84.5001,-438.067 88,-448.067 91.5001,-438.067 84.5001,-438.067"/>
</g>
<!-- Node5 -->
<g id="node5" class="node"><title>Node5</title>
<polygon fill="white" stroke="#bfbfbf" points="22,-630.5 22,-687.5 154,-687.5 154,-630.5 22,-630.5"/>
<text text-anchor="middle" x="88" y="-675.5" font-family="Helvetica,sans-Serif" font-size="10.00">DrawableGameComponent</text>
<polyline fill="none" stroke="#bfbfbf" points="22,-668.5 154,-668.5 "/>
<text text-anchor="middle" x="88" y="-656.5" font-family="Helvetica,sans-Serif" font-size="10.00"> </text>
<polyline fill="none" stroke="#bfbfbf" points="22,-649.5 154,-649.5 "/>
<text text-anchor="middle" x="88" y="-637.5" font-family="Helvetica,sans-Serif" font-size="10.00"> </text>
</g>
<!-- Node5&#45;&gt;Node4 -->
<g id="edge4" class="edge"><title>Node5&#45;&gt;Node4</title>
<path fill="none" stroke="midnightblue" d="M88,-620.356C88,-611.999 88,-602.872 88,-593.656"/>
<polygon fill="none" stroke="midnightblue" points="84.5001,-620.478 88,-630.478 91.5001,-620.478 84.5001,-620.478"/>
</g>
</g>
</svg>
