<?xml version="1.0" encoding="UTF-8" standalone="no"?>
<!DOCTYPE svg PUBLIC "-//W3C//DTD SVG 1.1//EN"
 "http://www.w3.org/Graphics/SVG/1.1/DTD/svg11.dtd">
<!-- Generated by graphviz version 2.34.0 (20130907.0111)
 -->
<!-- Title: FBClient.Screens.GameScreens.GamePlayScreen Pages: 1 -->
<svg width="423pt" height="856pt"
 viewBox="0.00 0.00 423.00 856.00" xmlns="http://www.w3.org/2000/svg" xmlns:xlink="http://www.w3.org/1999/xlink">
<g id="graph0" class="graph" transform="scale(1 1) rotate(0) translate(4 852)">
<title>FBClient.Screens.GameScreens.GamePlayScreen</title>
<polygon fill="white" stroke="white" points="-4,4 -4,-852 419,-852 419,4 -4,4"/>
<!-- Node1 -->
<g id="node1" class="node"><title>Node1</title>
<polygon fill="#bfbfbf" stroke="black" points="220.5,-1 220.5,-245 381.5,-245 381.5,-1 220.5,-1"/>
<text text-anchor="start" x="228.5" y="-233" font-family="Helvetica,sans-Serif" font-size="10.00">FBClient.Screens.GameScreens.</text>
<text text-anchor="middle" x="301" y="-222" font-family="Helvetica,sans-Serif" font-size="10.00">GamePlayScreen</text>
<polyline fill="none" stroke="black" points="220.5,-215 381.5,-215 "/>
<text text-anchor="start" x="228.5" y="-203" font-family="Helvetica,sans-Serif" font-size="10.00">+ World</text>
<text text-anchor="start" x="228.5" y="-192" font-family="Helvetica,sans-Serif" font-size="10.00">+ PlayerList</text>
<text text-anchor="start" x="228.5" y="-181" font-family="Helvetica,sans-Serif" font-size="10.00">+ BombList</text>
<text text-anchor="start" x="228.5" y="-170" font-family="Helvetica,sans-Serif" font-size="10.00">+ UnbreakableWallList</text>
<text text-anchor="start" x="228.5" y="-159" font-family="Helvetica,sans-Serif" font-size="10.00">+ TeleporterList</text>
<text text-anchor="start" x="228.5" y="-148" font-family="Helvetica,sans-Serif" font-size="10.00">+ ArrowList</text>
<text text-anchor="start" x="228.5" y="-137" font-family="Helvetica,sans-Serif" font-size="10.00">+ SuddenDeath</text>
<text text-anchor="start" x="228.5" y="-126" font-family="Helvetica,sans-Serif" font-size="10.00">+ MapSongHurry</text>
<text text-anchor="start" x="228.5" y="-115" font-family="Helvetica,sans-Serif" font-size="10.00">+ BombExplosionSound</text>
<text text-anchor="start" x="228.5" y="-104" font-family="Helvetica,sans-Serif" font-size="10.00">+ ItemPickUpSound</text>
<text text-anchor="start" x="228.5" y="-93" font-family="Helvetica,sans-Serif" font-size="10.00">+ PlayerDeathSound</text>
<text text-anchor="start" x="228.5" y="-82" font-family="Helvetica,sans-Serif" font-size="10.00">+ Random</text>
<polyline fill="none" stroke="black" points="220.5,-75 381.5,-75 "/>
<text text-anchor="start" x="228.5" y="-63" font-family="Helvetica,sans-Serif" font-size="10.00">+ GamePlayScreen()</text>
<text text-anchor="start" x="228.5" y="-52" font-family="Helvetica,sans-Serif" font-size="10.00">+ Initialize()</text>
<text text-anchor="start" x="228.5" y="-41" font-family="Helvetica,sans-Serif" font-size="10.00">+ Update()</text>
<text text-anchor="start" x="228.5" y="-30" font-family="Helvetica,sans-Serif" font-size="10.00">+ Draw()</text>
<text text-anchor="start" x="228.5" y="-19" font-family="Helvetica,sans-Serif" font-size="10.00">+ AddBomb()</text>
<text text-anchor="start" x="228.5" y="-8" font-family="Helvetica,sans-Serif" font-size="10.00"># LoadContent()</text>
</g>
<!-- Node2 -->
<g id="node2" class="node"><title>Node2</title>
<g id="a_node2"><a xlink:href="class_f_b_client_1_1_screens_1_1_base_game_state.html" target="_top" xlink:title="{BaseGameState\n|# BigFont\l# playerIndexInControl\l|+ BaseGameState()\l+ Update()\l+ Draw()\l# LoadContent()\l}">
<polygon fill="white" stroke="black" points="244.5,-284.5 244.5,-385.5 357.5,-385.5 357.5,-284.5 244.5,-284.5"/>
<text text-anchor="middle" x="301" y="-373.5" font-family="Helvetica,sans-Serif" font-size="10.00">BaseGameState</text>
<polyline fill="none" stroke="black" points="244.5,-366.5 357.5,-366.5 "/>
<text text-anchor="start" x="252.5" y="-354.5" font-family="Helvetica,sans-Serif" font-size="10.00"># BigFont</text>
<text text-anchor="start" x="252.5" y="-343.5" font-family="Helvetica,sans-Serif" font-size="10.00"># playerIndexInControl</text>
<polyline fill="none" stroke="black" points="244.5,-336.5 357.5,-336.5 "/>
<text text-anchor="start" x="252.5" y="-324.5" font-family="Helvetica,sans-Serif" font-size="10.00">+ BaseGameState()</text>
<text text-anchor="start" x="252.5" y="-313.5" font-family="Helvetica,sans-Serif" font-size="10.00">+ Update()</text>
<text text-anchor="start" x="252.5" y="-302.5" font-family="Helvetica,sans-Serif" font-size="10.00">+ Draw()</text>
<text text-anchor="start" x="252.5" y="-291.5" font-family="Helvetica,sans-Serif" font-size="10.00"># LoadContent()</text>
</a>
</g>
</g>
<!-- Node2&#45;&gt;Node1 -->
<g id="edge1" class="edge"><title>Node2&#45;&gt;Node1</title>
<path fill="none" stroke="midnightblue" d="M301,-274.366C301,-265.157 301,-255.372 301,-245.384"/>
<polygon fill="none" stroke="midnightblue" points="297.5,-274.499 301,-284.499 304.5,-274.499 297.5,-274.499"/>
</g>
<!-- Node3 -->
<g id="node3" class="node"><title>Node3</title>
<g id="a_node3"><a xlink:href="class_f_b_client_1_1_controls_1_1_game_state.html" target="_top" xlink:title="{GameState\n|+ Components\l+ Tag\l|+ Initialize()\l+ Update()\l+ Draw()\l# GameState()\l# StateChange()\l# Show()\l# Hide()\l}">
<polygon fill="white" stroke="black" points="179.5,-440 179.5,-574 266.5,-574 266.5,-440 179.5,-440"/>
<text text-anchor="middle" x="223" y="-562" font-family="Helvetica,sans-Serif" font-size="10.00">GameState</text>
<polyline fill="none" stroke="black" points="179.5,-555 266.5,-555 "/>
<text text-anchor="start" x="187.5" y="-543" font-family="Helvetica,sans-Serif" font-size="10.00">+ Components</text>
<text text-anchor="start" x="187.5" y="-532" font-family="Helvetica,sans-Serif" font-size="10.00">+ Tag</text>
<polyline fill="none" stroke="black" points="179.5,-525 266.5,-525 "/>
<text text-anchor="start" x="187.5" y="-513" font-family="Helvetica,sans-Serif" font-size="10.00">+ Initialize()</text>
<text text-anchor="start" x="187.5" y="-502" font-family="Helvetica,sans-Serif" font-size="10.00">+ Update()</text>
<text text-anchor="start" x="187.5" y="-491" font-family="Helvetica,sans-Serif" font-size="10.00">+ Draw()</text>
<text text-anchor="start" x="187.5" y="-480" font-family="Helvetica,sans-Serif" font-size="10.00"># GameState()</text>
<text text-anchor="start" x="187.5" y="-469" font-family="Helvetica,sans-Serif" font-size="10.00"># StateChange()</text>
<text text-anchor="start" x="187.5" y="-458" font-family="Helvetica,sans-Serif" font-size="10.00"># Show()</text>
<text text-anchor="start" x="187.5" y="-447" font-family="Helvetica,sans-Serif" font-size="10.00"># Hide()</text>
</a>
</g>
</g>
<!-- Node3&#45;&gt;Node2 -->
<g id="edge2" class="edge"><title>Node3&#45;&gt;Node2</title>
<path fill="none" stroke="midnightblue" d="M257.677,-430.422C264.63,-415.269 271.768,-399.712 278.193,-385.708"/>
<polygon fill="none" stroke="midnightblue" points="254.369,-429.238 253.38,-439.787 260.732,-432.157 254.369,-429.238"/>
</g>
<!-- Node4 -->
<g id="node4" class="node"><title>Node4</title>
<polygon fill="white" stroke="#bfbfbf" points="0,-661.5 0,-718.5 132,-718.5 132,-661.5 0,-661.5"/>
<text text-anchor="middle" x="66" y="-706.5" font-family="Helvetica,sans-Serif" font-size="10.00">DrawableGameComponent</text>
<polyline fill="none" stroke="#bfbfbf" points="0,-699.5 132,-699.5 "/>
<text text-anchor="middle" x="66" y="-687.5" font-family="Helvetica,sans-Serif" font-size="10.00"> </text>
<polyline fill="none" stroke="#bfbfbf" points="0,-680.5 132,-680.5 "/>
<text text-anchor="middle" x="66" y="-668.5" font-family="Helvetica,sans-Serif" font-size="10.00"> </text>
</g>
<!-- Node4&#45;&gt;Node3 -->
<g id="edge3" class="edge"><title>Node4&#45;&gt;Node3</title>
<path fill="none" stroke="midnightblue" d="M96.8855,-653.393C120.465,-626.209 153.256,-588.405 179.492,-558.159"/>
<polygon fill="none" stroke="midnightblue" points="94.0957,-651.268 90.1872,-661.115 99.3837,-655.855 94.0957,-651.268"/>
</g>
<!-- Node5 -->
<g id="node5" class="node"><title>Node5</title>
<g id="a_node5"><a xlink:href="class_f_b_client_1_1_controls_1_1_game_state_manager.html" target="_top" xlink:title="{FBClient.Controls.GameState\lManager\n|+ CurrentState\l|+ GameStateManager()\l+ Initialize()\l+ Update()\l+ PopState()\l+ PushState()\l+ ChangeState()\l}">
<polygon fill="white" stroke="black" points="150,-628.5 150,-751.5 296,-751.5 296,-628.5 150,-628.5"/>
<text text-anchor="start" x="158" y="-739.5" font-family="Helvetica,sans-Serif" font-size="10.00">FBClient.Controls.GameState</text>
<text text-anchor="middle" x="223" y="-728.5" font-family="Helvetica,sans-Serif" font-size="10.00">Manager</text>
<polyline fill="none" stroke="black" points="150,-721.5 296,-721.5 "/>
<text text-anchor="start" x="158" y="-709.5" font-family="Helvetica,sans-Serif" font-size="10.00">+ CurrentState</text>
<polyline fill="none" stroke="black" points="150,-702.5 296,-702.5 "/>
<text text-anchor="start" x="158" y="-690.5" font-family="Helvetica,sans-Serif" font-size="10.00">+ GameStateManager()</text>
<text text-anchor="start" x="158" y="-679.5" font-family="Helvetica,sans-Serif" font-size="10.00">+ Initialize()</text>
<text text-anchor="start" x="158" y="-668.5" font-family="Helvetica,sans-Serif" font-size="10.00">+ Update()</text>
<text text-anchor="start" x="158" y="-657.5" font-family="Helvetica,sans-Serif" font-size="10.00">+ PopState()</text>
<text text-anchor="start" x="158" y="-646.5" font-family="Helvetica,sans-Serif" font-size="10.00">+ PushState()</text>
<text text-anchor="start" x="158" y="-635.5" font-family="Helvetica,sans-Serif" font-size="10.00">+ ChangeState()</text>
</a>
</g>
</g>
<!-- Node5&#45;&gt;Node3 -->
<g id="edge4" class="edge"><title>Node5&#45;&gt;Node3</title>
<path fill="none" stroke="#404040" d="M223,-628.478C223,-614.965 223,-600.448 223,-586.332"/>
<polygon fill="none" stroke="#404040" points="223,-586.066 219,-580.066 223,-574.066 227,-580.066 223,-586.066"/>
<text text-anchor="middle" x="258" y="-601.5" font-family="Helvetica,sans-Serif" font-size="10.00"> #StateManager</text>
</g>
<!-- Node6 -->
<g id="node6" class="node"><title>Node6</title>
<polygon fill="white" stroke="#bfbfbf" points="177,-790.5 177,-847.5 269,-847.5 269,-790.5 177,-790.5"/>
<text text-anchor="middle" x="223" y="-835.5" font-family="Helvetica,sans-Serif" font-size="10.00">GameComponent</text>
<polyline fill="none" stroke="#bfbfbf" points="177,-828.5 269,-828.5 "/>
<text text-anchor="middle" x="223" y="-816.5" font-family="Helvetica,sans-Serif" font-size="10.00"> </text>
<polyline fill="none" stroke="#bfbfbf" points="177,-809.5 269,-809.5 "/>
<text text-anchor="middle" x="223" y="-797.5" font-family="Helvetica,sans-Serif" font-size="10.00"> </text>
</g>
<!-- Node6&#45;&gt;Node5 -->
<g id="edge5" class="edge"><title>Node6&#45;&gt;Node5</title>
<path fill="none" stroke="midnightblue" d="M223,-780.283C223,-771.252 223,-761.384 223,-751.607"/>
<polygon fill="none" stroke="midnightblue" points="219.5,-780.443 223,-790.443 226.5,-780.443 219.5,-780.443"/>
</g>
<!-- Node7 -->
<g id="node7" class="node"><title>Node7</title>
<g id="a_node7"><a xlink:href="class_f_b_client_1_1_controls_1_1_control_manager.html" target="_top" xlink:title="{FBClient.Controls.Control\lManager\n|+ SpriteFont\l+ AcceptInput\l|+ ControlManager()\l+ ControlManager()\l+ ControlManager()\l+ Update()\l+ Draw()\l+ NextControl()\l+ PreviousControl()\l}">
<polygon fill="white" stroke="black" points="288.5,-434.5 288.5,-579.5 415.5,-579.5 415.5,-434.5 288.5,-434.5"/>
<text text-anchor="start" x="296.5" y="-567.5" font-family="Helvetica,sans-Serif" font-size="10.00">FBClient.Controls.Control</text>
<text text-anchor="middle" x="352" y="-556.5" font-family="Helvetica,sans-Serif" font-size="10.00">Manager</text>
<polyline fill="none" stroke="black" points="288.5,-549.5 415.5,-549.5 "/>
<text text-anchor="start" x="296.5" y="-537.5" font-family="Helvetica,sans-Serif" font-size="10.00">+ SpriteFont</text>
<text text-anchor="start" x="296.5" y="-526.5" font-family="Helvetica,sans-Serif" font-size="10.00">+ AcceptInput</text>
<polyline fill="none" stroke="black" points="288.5,-519.5 415.5,-519.5 "/>
<text text-anchor="start" x="296.5" y="-507.5" font-family="Helvetica,sans-Serif" font-size="10.00">+ ControlManager()</text>
<text text-anchor="start" x="296.5" y="-496.5" font-family="Helvetica,sans-Serif" font-size="10.00">+ ControlManager()</text>
<text text-anchor="start" x="296.5" y="-485.5" font-family="Helvetica,sans-Serif" font-size="10.00">+ ControlManager()</text>
<text text-anchor="start" x="296.5" y="-474.5" font-family="Helvetica,sans-Serif" font-size="10.00">+ Update()</text>
<text text-anchor="start" x="296.5" y="-463.5" font-family="Helvetica,sans-Serif" font-size="10.00">+ Draw()</text>
<text text-anchor="start" x="296.5" y="-452.5" font-family="Helvetica,sans-Serif" font-size="10.00">+ NextControl()</text>
<text text-anchor="start" x="296.5" y="-441.5" font-family="Helvetica,sans-Serif" font-size="10.00">+ PreviousControl()</text>
</a>
</g>
</g>
<!-- Node7&#45;&gt;Node2 -->
<g id="edge6" class="edge"><title>Node7&#45;&gt;Node2</title>
<path fill="none" stroke="#404040" d="M330.519,-434.397C326.824,-422.079 323.013,-409.376 319.407,-397.358"/>
<polygon fill="none" stroke="#404040" points="319.33,-397.101 313.775,-392.504 315.882,-385.607 321.438,-390.205 319.33,-397.101"/>
<text text-anchor="middle" x="363.5" y="-407.5" font-family="Helvetica,sans-Serif" font-size="10.00"> #ControlManager</text>
</g>
<!-- Node8 -->
<g id="node8" class="node"><title>Node8</title>
<polygon fill="white" stroke="#bfbfbf" points="314.5,-661.5 314.5,-718.5 395.5,-718.5 395.5,-661.5 314.5,-661.5"/>
<text text-anchor="middle" x="355" y="-706.5" font-family="Helvetica,sans-Serif" font-size="10.00">List&lt; Control &gt;</text>
<polyline fill="none" stroke="#bfbfbf" points="314.5,-699.5 395.5,-699.5 "/>
<text text-anchor="middle" x="355" y="-687.5" font-family="Helvetica,sans-Serif" font-size="10.00"> </text>
<polyline fill="none" stroke="#bfbfbf" points="314.5,-680.5 395.5,-680.5 "/>
<text text-anchor="middle" x="355" y="-668.5" font-family="Helvetica,sans-Serif" font-size="10.00"> </text>
</g>
<!-- Node8&#45;&gt;Node7 -->
<g id="edge7" class="edge"><title>Node8&#45;&gt;Node7</title>
<path fill="none" stroke="midnightblue" d="M354.368,-650.86C354.026,-630.208 353.591,-604.009 353.188,-579.704"/>
<polygon fill="none" stroke="midnightblue" points="350.872,-651.175 354.538,-661.115 357.872,-651.059 350.872,-651.175"/>
</g>
</g>
</svg>
