<?xml version="1.0" encoding="UTF-8" standalone="no"?>
<!DOCTYPE svg PUBLIC "-//W3C//DTD SVG 1.1//EN"
 "http://www.w3.org/Graphics/SVG/1.1/DTD/svg11.dtd">
<!-- Generated by graphviz version 2.34.0 (20130907.0111)
 -->
<!-- Title: FBClient.Screens.GameScreens.SinglePlayerGamePlayScreen Pages: 1 -->
<svg width="168pt" height="264pt"
 viewBox="0.00 0.00 168.00 264.00" xmlns="http://www.w3.org/2000/svg" xmlns:xlink="http://www.w3.org/1999/xlink">
<g id="graph0" class="graph" transform="scale(1 1) rotate(0) translate(4 260)">
<title>FBClient.Screens.GameScreens.SinglePlayerGamePlayScreen</title>
<polygon fill="white" stroke="white" points="-4,4 -4,-260 164,-260 164,4 -4,4"/>
<!-- Node1 -->
<g id="node1" class="node"><title>Node1</title>
<polygon fill="#bfbfbf" stroke="black" points="-0.5,-1 -0.5,-31 160.5,-31 160.5,-1 -0.5,-1"/>
<text text-anchor="start" x="7.5" y="-19" font-family="Helvetica,sans-Serif" font-size="10.00">FBClient.Screens.GameScreens.</text>
<text text-anchor="middle" x="80" y="-8" font-family="Helvetica,sans-Serif" font-size="10.00">SinglePlayerGamePlayScreen</text>
</g>
<!-- Node2 -->
<g id="node2" class="node"><title>Node2</title>
<g id="a_node2"><a xlink:href="class_f_b_client_1_1_screens_1_1_game_screens_1_1_base_game_play_screen.html" target="_top" xlink:title="BaseGamePlayScreen">
<polygon fill="white" stroke="black" points="22,-68.5 22,-87.5 138,-87.5 138,-68.5 22,-68.5"/>
<text text-anchor="middle" x="80" y="-75.5" font-family="Helvetica,sans-Serif" font-size="10.00">BaseGamePlayScreen</text>
</a>
</g>
</g>
<!-- Node2&#45;&gt;Node1 -->
<g id="edge1" class="edge"><title>Node2&#45;&gt;Node1</title>
<path fill="none" stroke="midnightblue" d="M80,-58.3707C80,-49.5849 80,-39.2721 80,-31.1408"/>
<polygon fill="midnightblue" stroke="midnightblue" points="76.5001,-58.4034 80,-68.4035 83.5001,-58.4035 76.5001,-58.4034"/>
</g>
<!-- Node3 -->
<g id="node3" class="node"><title>Node3</title>
<g id="a_node3"><a xlink:href="class_f_b_client_1_1_screens_1_1_base_game_state.html" target="_top" xlink:title="BaseGameState">
<polygon fill="white" stroke="black" points="35.5,-124.5 35.5,-143.5 124.5,-143.5 124.5,-124.5 35.5,-124.5"/>
<text text-anchor="middle" x="80" y="-131.5" font-family="Helvetica,sans-Serif" font-size="10.00">BaseGameState</text>
</a>
</g>
</g>
<!-- Node3&#45;&gt;Node2 -->
<g id="edge2" class="edge"><title>Node3&#45;&gt;Node2</title>
<path fill="none" stroke="midnightblue" d="M80,-113.805C80,-104.91 80,-94.7798 80,-87.7511"/>
<polygon fill="midnightblue" stroke="midnightblue" points="76.5001,-114.083 80,-124.083 83.5001,-114.083 76.5001,-114.083"/>
</g>
<!-- Node4 -->
<g id="node4" class="node"><title>Node4</title>
<g id="a_node4"><a xlink:href="class_f_b_client_1_1_controls_1_1_game_state.html" target="_top" xlink:title="GameState">
<polygon fill="white" stroke="black" points="47,-180.5 47,-199.5 113,-199.5 113,-180.5 47,-180.5"/>
<text text-anchor="middle" x="80" y="-187.5" font-family="Helvetica,sans-Serif" font-size="10.00">GameState</text>
</a>
</g>
</g>
<!-- Node4&#45;&gt;Node3 -->
<g id="edge3" class="edge"><title>Node4&#45;&gt;Node3</title>
<path fill="none" stroke="midnightblue" d="M80,-169.805C80,-160.91 80,-150.78 80,-143.751"/>
<polygon fill="midnightblue" stroke="midnightblue" points="76.5001,-170.083 80,-180.083 83.5001,-170.083 76.5001,-170.083"/>
</g>
<!-- Node5 -->
<g id="node5" class="node"><title>Node5</title>
<polygon fill="white" stroke="#bfbfbf" points="14,-236.5 14,-255.5 146,-255.5 146,-236.5 14,-236.5"/>
<text text-anchor="middle" x="80" y="-243.5" font-family="Helvetica,sans-Serif" font-size="10.00">DrawableGameComponent</text>
</g>
<!-- Node5&#45;&gt;Node4 -->
<g id="edge4" class="edge"><title>Node5&#45;&gt;Node4</title>
<path fill="none" stroke="midnightblue" d="M80,-225.805C80,-216.91 80,-206.78 80,-199.751"/>
<polygon fill="midnightblue" stroke="midnightblue" points="76.5001,-226.083 80,-236.083 83.5001,-226.083 76.5001,-226.083"/>
</g>
</g>
</svg>
