<?xml version="1.0" encoding="UTF-8" standalone="no"?>
<!DOCTYPE svg PUBLIC "-//W3C//DTD SVG 1.1//EN"
 "http://www.w3.org/Graphics/SVG/1.1/DTD/svg11.dtd">
<!-- Generated by graphviz version 2.34.0 (20130907.0111)
 -->
<!-- Title: FBClient.Core.Entities.PowerUp Pages: 1 -->
<svg width="162pt" height="252pt"
 viewBox="0.00 0.00 162.00 252.00" xmlns="http://www.w3.org/2000/svg" xmlns:xlink="http://www.w3.org/1999/xlink">
<g id="graph0" class="graph" transform="scale(1 1) rotate(0) translate(4 248)">
<title>FBClient.Core.Entities.PowerUp</title>
<polygon fill="white" stroke="white" points="-4,4 -4,-248 158,-248 158,4 -4,4"/>
<!-- Node1 -->
<g id="node1" class="node"><title>Node1</title>
<polygon fill="#bfbfbf" stroke="black" points="-0.5,-0.5 -0.5,-19.5 154.5,-19.5 154.5,-0.5 -0.5,-0.5"/>
<text text-anchor="middle" x="77" y="-7.5" font-family="Helvetica,sans-Serif" font-size="10.00">FBClient.Core.Entities.PowerUp</text>
</g>
<!-- Node2 -->
<g id="node2" class="node"><title>Node2</title>
<g id="a_node2"><a xlink:href="class_f_b_library_1_1_core_1_1_base_entities_1_1_base_power_up.html" target="_top" xlink:title="BasePowerUp">
<polygon fill="white" stroke="black" points="38,-56.5 38,-75.5 116,-75.5 116,-56.5 38,-56.5"/>
<text text-anchor="middle" x="77" y="-63.5" font-family="Helvetica,sans-Serif" font-size="10.00">BasePowerUp</text>
</a>
</g>
</g>
<!-- Node2&#45;&gt;Node1 -->
<g id="edge1" class="edge"><title>Node2&#45;&gt;Node1</title>
<path fill="none" stroke="midnightblue" d="M77,-45.8045C77,-36.9102 77,-26.7798 77,-19.7511"/>
<polygon fill="midnightblue" stroke="midnightblue" points="73.5001,-46.083 77,-56.083 80.5001,-46.083 73.5001,-46.083"/>
</g>
<!-- Node3 -->
<g id="node3" class="node"><title>Node3</title>
<g id="a_node3"><a xlink:href="class_f_b_library_1_1_core_1_1_static_entity.html" target="_top" xlink:title="StaticEntity">
<polygon fill="white" stroke="black" points="43,-112.5 43,-131.5 111,-131.5 111,-112.5 43,-112.5"/>
<text text-anchor="middle" x="77" y="-119.5" font-family="Helvetica,sans-Serif" font-size="10.00">StaticEntity</text>
</a>
</g>
</g>
<!-- Node3&#45;&gt;Node2 -->
<g id="edge2" class="edge"><title>Node3&#45;&gt;Node2</title>
<path fill="none" stroke="midnightblue" d="M77,-101.805C77,-92.9102 77,-82.7798 77,-75.7511"/>
<polygon fill="midnightblue" stroke="midnightblue" points="73.5001,-102.083 77,-112.083 80.5001,-102.083 73.5001,-102.083"/>
</g>
<!-- Node4 -->
<g id="node4" class="node"><title>Node4</title>
<g id="a_node4"><a xlink:href="class_f_b_library_1_1_core_1_1_base_entity.html" target="_top" xlink:title="BaseEntity">
<polygon fill="white" stroke="black" points="44.5,-168.5 44.5,-187.5 109.5,-187.5 109.5,-168.5 44.5,-168.5"/>
<text text-anchor="middle" x="77" y="-175.5" font-family="Helvetica,sans-Serif" font-size="10.00">BaseEntity</text>
</a>
</g>
</g>
<!-- Node4&#45;&gt;Node3 -->
<g id="edge3" class="edge"><title>Node4&#45;&gt;Node3</title>
<path fill="none" stroke="midnightblue" d="M77,-157.805C77,-148.91 77,-138.78 77,-131.751"/>
<polygon fill="midnightblue" stroke="midnightblue" points="73.5001,-158.083 77,-168.083 80.5001,-158.083 73.5001,-158.083"/>
</g>
<!-- Node5 -->
<g id="node5" class="node"><title>Node5</title>
<g id="a_node5"><a xlink:href="interface_f_b_library_1_1_core_1_1_i_entity.html" target="_top" xlink:title="IEntity">
<polygon fill="white" stroke="black" points="55,-224.5 55,-243.5 99,-243.5 99,-224.5 55,-224.5"/>
<text text-anchor="middle" x="77" y="-231.5" font-family="Helvetica,sans-Serif" font-size="10.00">IEntity</text>
</a>
</g>
</g>
<!-- Node5&#45;&gt;Node4 -->
<g id="edge4" class="edge"><title>Node5&#45;&gt;Node4</title>
<path fill="none" stroke="midnightblue" d="M77,-213.805C77,-204.91 77,-194.78 77,-187.751"/>
<polygon fill="midnightblue" stroke="midnightblue" points="73.5001,-214.083 77,-224.083 80.5001,-214.083 73.5001,-214.083"/>
</g>
</g>
</svg>
