<?xml version="1.0" encoding="UTF-8" standalone="no"?>
<!DOCTYPE svg PUBLIC "-//W3C//DTD SVG 1.1//EN"
 "http://www.w3.org/Graphics/SVG/1.1/DTD/svg11.dtd">
<!-- Generated by graphviz version 2.34.0 (20130907.0111)
 -->
<!-- Title: FBLibrary.Core.BaseEntity Pages: 1 -->
<!--zoomable 528 -->
<svg id="main" version="1.1" xmlns="http://www.w3.org/2000/svg" xmlns:xlink="http://www.w3.org/1999/xlink" xml:space="preserve" onload="init(evt)">
<style type="text/css"><![CDATA[
.edge:hover path { stroke: red; }
.edge:hover polygon { stroke: red; fill: red; }
]]></style>
<script type="text/javascript"><![CDATA[
var edges = document.getElementsByTagName('g');
if (edges && edges.length) {
  for (var i=0;i<edges.length;i++) {
    if (edges[i].id.substr(0,4)=='edge') {
      edges[i].setAttribute('class','edge');
    }
  }
}
]]></script>
        <defs>
                <circle id="rim" cx="0" cy="0" r="7"/>
                <circle id="rim2" cx="0" cy="0" r="3.5"/>
                <g id="zoomPlus">
                        <use xlink:href="#rim" fill="#404040">
                                <set attributeName="fill" to="#808080" begin="zoomplus.mouseover" end="zoomplus.mouseout"/>
                        </use>
                        <path d="M-4,0h8M0,-4v8" fill="none" stroke="white" stroke-width="1.5" pointer-events="none"/>
                </g>
                <g id="zoomMin">
                        <use xlink:href="#rim" fill="#404040">
                                <set attributeName="fill" to="#808080" begin="zoomminus.mouseover" end="zoomminus.mouseout"/>
                        </use>
                        <path d="M-4,0h8" fill="none" stroke="white" stroke-width="1.5" pointer-events="none"/>
                </g>
                <g id="dirArrow">
                        <path fill="none" stroke="white" stroke-width="1.5" d="M0,-3.0v7 M-2.5,-0.5L0,-3.0L2.5,-0.5"/>
                </g>
               <g id="resetDef">
                       <use xlink:href="#rim2" fill="#404040">
                               <set attributeName="fill" to="#808080" begin="reset.mouseover" end="reset.mouseout"/>
                       </use>
               </g>
        </defs>

<script type="text/javascript">
var viewWidth = 1200;
var viewHeight = 528;
var sectionId = 'dynsection-0';
</script>
<script xlink:href="svgpan.js"/>
<svg id="graph" class="graph">
<g id="viewport">
<title>FBLibrary.Core.BaseEntity</title>
<polygon fill="white" stroke="white" points="-4,4 -4,-524 1196,-524 1196,4 -4,4"/>
<!-- Node1 -->
<g id="node1" class="node"><title>Node1</title>
<polygon fill="#bfbfbf" stroke="black" points="80.5,-431.5 80.5,-450.5 213.5,-450.5 213.5,-431.5 80.5,-431.5"/>
<text text-anchor="middle" x="147" y="-438.5" font-family="Helvetica,sans-Serif" font-size="10.00">FBLibrary.Core.BaseEntity</text>
</g>
<!-- Node3 -->
<g id="node3" class="node"><title>Node3</title>
<g id="a_node3"><a xlink:href="class_f_b_client_1_1_core_1_1_entities_1_1_teleporter.html" target="_top" xlink:title="FBClient.Core.Entities.Teleporter">
<polygon fill="white" stroke="black" points="250.5,-469.5 250.5,-488.5 409.5,-488.5 409.5,-469.5 250.5,-469.5"/>
<text text-anchor="middle" x="330" y="-476.5" font-family="Helvetica,sans-Serif" font-size="10.00">FBClient.Core.Entities.Teleporter</text>
</a>
</g>
</g>
<!-- Node1&#45;&gt;Node3 -->
<g id="edge2" class="edge"><title>Node1&#45;&gt;Node3</title>
<path fill="none" stroke="midnightblue" d="M203.638,-452.681C229.307,-458.07 259.391,-464.386 283.654,-469.48"/>
<polygon fill="midnightblue" stroke="midnightblue" points="204.18,-449.218 193.674,-450.589 202.741,-456.069 204.18,-449.218"/>
</g>
<!-- Node4 -->
<g id="node4" class="node"><title>Node4</title>
<g id="a_node4"><a xlink:href="class_f_b_library_1_1_core_1_1_dynamic_entity.html" target="_top" xlink:title="FBLibrary.Core.DynamicEntity">
<polygon fill="white" stroke="black" points="255.5,-431.5 255.5,-450.5 404.5,-450.5 404.5,-431.5 255.5,-431.5"/>
<text text-anchor="middle" x="330" y="-438.5" font-family="Helvetica,sans-Serif" font-size="10.00">FBLibrary.Core.DynamicEntity</text>
</a>
</g>
</g>
<!-- Node1&#45;&gt;Node4 -->
<g id="edge3" class="edge"><title>Node1&#45;&gt;Node4</title>
<path fill="none" stroke="midnightblue" d="M223.899,-441C234.306,-441 244.978,-441 255.345,-441"/>
<polygon fill="midnightblue" stroke="midnightblue" points="223.601,-437.5 213.601,-441 223.601,-444.5 223.601,-437.5"/>
</g>
<!-- Node18 -->
<g id="node18" class="node"><title>Node18</title>
<g id="a_node18"><a xlink:href="class_f_b_library_1_1_core_1_1_static_entity.html" target="_top" xlink:title="FBLibrary.Core.StaticEntity">
<polygon fill="white" stroke="black" points="262,-216.5 262,-235.5 398,-235.5 398,-216.5 262,-216.5"/>
<text text-anchor="middle" x="330" y="-223.5" font-family="Helvetica,sans-Serif" font-size="10.00">FBLibrary.Core.StaticEntity</text>
</a>
</g>
</g>
<!-- Node1&#45;&gt;Node18 -->
<g id="edge17" class="edge"><title>Node1&#45;&gt;Node18</title>
<path fill="none" stroke="midnightblue" d="M162.669,-423.575C198.999,-380.421 292.268,-269.632 320.669,-235.896"/>
<polygon fill="midnightblue" stroke="midnightblue" points="159.774,-421.58 156.011,-431.484 165.129,-426.088 159.774,-421.58"/>
</g>
<!-- Node2 -->
<g id="node2" class="node"><title>Node2</title>
<g id="a_node2"><a xlink:href="interface_f_b_library_1_1_core_1_1_i_entity.html" target="_top" xlink:title="IEntity">
<polygon fill="white" stroke="black" points="0,-431.5 0,-450.5 44,-450.5 44,-431.5 0,-431.5"/>
<text text-anchor="middle" x="22" y="-438.5" font-family="Helvetica,sans-Serif" font-size="10.00">IEntity</text>
</a>
</g>
</g>
<!-- Node2&#45;&gt;Node1 -->
<g id="edge1" class="edge"><title>Node2&#45;&gt;Node1</title>
<path fill="none" stroke="midnightblue" d="M54.1742,-441C62.2651,-441 71.29,-441 80.4353,-441"/>
<polygon fill="midnightblue" stroke="midnightblue" points="54.1445,-437.5 44.1445,-441 54.1444,-444.5 54.1445,-437.5"/>
</g>
<!-- Node5 -->
<g id="node5" class="node"><title>Node5</title>
<g id="a_node5"><a xlink:href="class_f_b_client_1_1_core_1_1_entities_1_1_arrow.html" target="_top" xlink:title="FBClient.Core.Entities.Arrow">
<polygon fill="white" stroke="black" points="447.5,-500.5 447.5,-519.5 588.5,-519.5 588.5,-500.5 447.5,-500.5"/>
<text text-anchor="middle" x="518" y="-507.5" font-family="Helvetica,sans-Serif" font-size="10.00">FBClient.Core.Entities.Arrow</text>
</a>
</g>
</g>
<!-- Node4&#45;&gt;Node5 -->
<g id="edge4" class="edge"><title>Node4&#45;&gt;Node5</title>
<path fill="none" stroke="midnightblue" d="M394.822,-453.617C400.067,-455.471 405.194,-457.587 410,-460 428.612,-469.347 427.571,-480.296 446,-490 454.045,-494.236 463.089,-497.661 471.959,-500.399"/>
<polygon fill="midnightblue" stroke="midnightblue" points="395.887,-450.283 385.296,-450.556 393.746,-456.947 395.887,-450.283"/>
</g>
<!-- Node6 -->
<g id="node6" class="node"><title>Node6</title>
<g id="a_node6"><a xlink:href="class_f_b_library_1_1_core_1_1_base_entities_1_1_base_bomb.html" target="_top" xlink:title="FBLibrary.Core.BaseEntities.\lBaseBomb">
<polygon fill="white" stroke="black" points="446.5,-451 446.5,-481 589.5,-481 589.5,-451 446.5,-451"/>
<text text-anchor="start" x="454.5" y="-469" font-family="Helvetica,sans-Serif" font-size="10.00">FBLibrary.Core.BaseEntities.</text>
<text text-anchor="middle" x="518" y="-458" font-family="Helvetica,sans-Serif" font-size="10.00">BaseBomb</text>
</a>
</g>
</g>
<!-- Node4&#45;&gt;Node6 -->
<g id="edge5" class="edge"><title>Node4&#45;&gt;Node6</title>
<path fill="none" stroke="midnightblue" d="M411.859,-451.868C423.343,-453.412 435.078,-454.989 446.348,-456.504"/>
<polygon fill="midnightblue" stroke="midnightblue" points="412.226,-448.386 401.849,-450.523 411.294,-455.324 412.226,-448.386"/>
</g>
<!-- Node9 -->
<g id="node9" class="node"><title>Node9</title>
<g id="a_node9"><a xlink:href="class_f_b_library_1_1_core_1_1_base_entities_1_1_base_player.html" target="_top" xlink:title="FBLibrary.Core.BaseEntities.\lBasePlayer">
<polygon fill="white" stroke="black" points="446.5,-402 446.5,-432 589.5,-432 589.5,-402 446.5,-402"/>
<text text-anchor="start" x="454.5" y="-420" font-family="Helvetica,sans-Serif" font-size="10.00">FBLibrary.Core.BaseEntities.</text>
<text text-anchor="middle" x="518" y="-409" font-family="Helvetica,sans-Serif" font-size="10.00">BasePlayer</text>
</a>
</g>
</g>
<!-- Node4&#45;&gt;Node9 -->
<g id="edge8" class="edge"><title>Node4&#45;&gt;Node9</title>
<path fill="none" stroke="midnightblue" d="M414.633,-430.209C425.261,-428.837 436.054,-427.445 446.449,-426.103"/>
<polygon fill="midnightblue" stroke="midnightblue" points="413.982,-426.764 404.512,-431.515 414.878,-433.706 413.982,-426.764"/>
</g>
<!-- Node7 -->
<g id="node7" class="node"><title>Node7</title>
<g id="a_node7"><a xlink:href="class_f_b_client_1_1_core_1_1_entities_1_1_bomb.html" target="_top" xlink:title="FBClient.Core.Entities.Bomb">
<polygon fill="white" stroke="black" points="651,-494.5 651,-513.5 793,-513.5 793,-494.5 651,-494.5"/>
<text text-anchor="middle" x="722" y="-501.5" font-family="Helvetica,sans-Serif" font-size="10.00">FBClient.Core.Entities.Bomb</text>
</a>
</g>
</g>
<!-- Node6&#45;&gt;Node7 -->
<g id="edge6" class="edge"><title>Node6&#45;&gt;Node7</title>
<path fill="none" stroke="midnightblue" d="M599.762,-481.193C623.621,-485.681 649.05,-490.465 670.426,-494.486"/>
<polygon fill="midnightblue" stroke="midnightblue" points="600.125,-477.7 589.65,-479.291 598.83,-484.579 600.125,-477.7"/>
</g>
<!-- Node8 -->
<g id="node8" class="node"><title>Node8</title>
<g id="a_node8"><a xlink:href="class_f_b_server_1_1_core_1_1_entities_1_1_bomb.html" target="_top" xlink:title="FBServer.Core.Entities.Bomb">
<polygon fill="white" stroke="black" points="650,-456.5 650,-475.5 794,-475.5 794,-456.5 650,-456.5"/>
<text text-anchor="middle" x="722" y="-463.5" font-family="Helvetica,sans-Serif" font-size="10.00">FBServer.Core.Entities.Bomb</text>
</a>
</g>
</g>
<!-- Node6&#45;&gt;Node8 -->
<g id="edge7" class="edge"><title>Node6&#45;&gt;Node8</title>
<path fill="none" stroke="midnightblue" d="M599.811,-466C616.314,-466 633.566,-466 649.707,-466"/>
<polygon fill="midnightblue" stroke="midnightblue" points="599.65,-462.5 589.65,-466 599.65,-469.5 599.65,-462.5"/>
</g>
<!-- Node10 -->
<g id="node10" class="node"><title>Node10</title>
<g id="a_node10"><a xlink:href="class_f_b_client_1_1_entities_1_1_player.html" target="_top" xlink:title="FBClient.Entities.Player">
<polygon fill="white" stroke="black" points="661.5,-418.5 661.5,-437.5 782.5,-437.5 782.5,-418.5 661.5,-418.5"/>
<text text-anchor="middle" x="722" y="-425.5" font-family="Helvetica,sans-Serif" font-size="10.00">FBClient.Entities.Player</text>
</a>
</g>
</g>
<!-- Node9&#45;&gt;Node10 -->
<g id="edge9" class="edge"><title>Node9&#45;&gt;Node10</title>
<path fill="none" stroke="midnightblue" d="M599.664,-421.393C620.289,-422.516 642.094,-423.703 661.443,-424.757"/>
<polygon fill="midnightblue" stroke="midnightblue" points="599.825,-417.896 589.65,-420.847 599.445,-424.886 599.825,-417.896"/>
</g>
<!-- Node17 -->
<g id="node17" class="node"><title>Node17</title>
<g id="a_node17"><a xlink:href="class_f_b_server_1_1_core_1_1_player.html" target="_top" xlink:title="FBServer.Core.Player">
<polygon fill="white" stroke="black" points="667,-380.5 667,-399.5 777,-399.5 777,-380.5 667,-380.5"/>
<text text-anchor="middle" x="722" y="-387.5" font-family="Helvetica,sans-Serif" font-size="10.00">FBServer.Core.Player</text>
</a>
</g>
</g>
<!-- Node9&#45;&gt;Node17 -->
<g id="edge16" class="edge"><title>Node9&#45;&gt;Node17</title>
<path fill="none" stroke="midnightblue" d="M599.586,-406.229C622.214,-403.204 646.269,-399.989 666.947,-397.225"/>
<polygon fill="midnightblue" stroke="midnightblue" points="599.098,-402.763 589.65,-407.557 600.025,-409.701 599.098,-402.763"/>
</g>
<!-- Node11 -->
<g id="node11" class="node"><title>Node11</title>
<polygon fill="white" stroke="#bfbfbf" points="854.5,-487.5 854.5,-506.5 1007.5,-506.5 1007.5,-487.5 854.5,-487.5"/>
<text text-anchor="middle" x="931" y="-494.5" font-family="Helvetica,sans-Serif" font-size="10.00">FBClient.Core.Players.AIPlayer</text>
</g>
<!-- Node10&#45;&gt;Node11 -->
<g id="edge10" class="edge"><title>Node10&#45;&gt;Node11</title>
<path fill="none" stroke="midnightblue" d="M792.462,-437.684C801.281,-440.124 810.007,-443.178 818,-447 836.789,-455.985 835.488,-467.456 854,-477 862.367,-481.314 871.746,-484.756 880.982,-487.481"/>
<polygon fill="midnightblue" stroke="midnightblue" points="793.052,-434.224 782.501,-435.182 791.347,-441.013 793.052,-434.224"/>
</g>
<!-- Node12 -->
<g id="node12" class="node"><title>Node12</title>
<g id="a_node12"><a xlink:href="class_f_b_client_1_1_core_1_1_players_1_1_base_human_player.html" target="_top" xlink:title="FBClient.Core.Players.Base\lHumanPlayer">
<polygon fill="white" stroke="black" points="861.5,-438 861.5,-468 1000.5,-468 1000.5,-438 861.5,-438"/>
<text text-anchor="start" x="869.5" y="-456" font-family="Helvetica,sans-Serif" font-size="10.00">FBClient.Core.Players.Base</text>
<text text-anchor="middle" x="931" y="-445" font-family="Helvetica,sans-Serif" font-size="10.00">HumanPlayer</text>
</a>
</g>
</g>
<!-- Node10&#45;&gt;Node12 -->
<g id="edge11" class="edge"><title>Node10&#45;&gt;Node12</title>
<path fill="none" stroke="midnightblue" d="M792.596,-436.405C814.758,-439.082 839.251,-442.04 861.345,-444.708"/>
<polygon fill="midnightblue" stroke="midnightblue" points="792.943,-432.922 782.595,-435.197 792.103,-439.871 792.943,-432.922"/>
</g>
<!-- Node15 -->
<g id="node15" class="node"><title>Node15</title>
<polygon fill="white" stroke="#bfbfbf" points="857.5,-389 857.5,-419 1004.5,-419 1004.5,-389 857.5,-389"/>
<text text-anchor="start" x="865.5" y="-407" font-family="Helvetica,sans-Serif" font-size="10.00">FBClient.Core.Players.Human</text>
<text text-anchor="middle" x="931" y="-396" font-family="Helvetica,sans-Serif" font-size="10.00">Player_OLD</text>
</g>
<!-- Node10&#45;&gt;Node15 -->
<g id="edge14" class="edge"><title>Node10&#45;&gt;Node15</title>
<path fill="none" stroke="midnightblue" d="M792.62,-419.928C813.41,-417.518 836.251,-414.869 857.237,-412.436"/>
<polygon fill="midnightblue" stroke="midnightblue" points="792.126,-416.462 782.595,-421.09 792.932,-423.415 792.126,-416.462"/>
</g>
<!-- Node16 -->
<g id="node16" class="node"><title>Node16</title>
<polygon fill="white" stroke="#bfbfbf" points="859,-340 859,-370 1003,-370 1003,-340 859,-340"/>
<text text-anchor="start" x="867" y="-358" font-family="Helvetica,sans-Serif" font-size="10.00">FBClient.Core.Players.Online</text>
<text text-anchor="middle" x="931" y="-347" font-family="Helvetica,sans-Serif" font-size="10.00">Player</text>
</g>
<!-- Node10&#45;&gt;Node16 -->
<g id="edge15" class="edge"><title>Node10&#45;&gt;Node16</title>
<path fill="none" stroke="midnightblue" d="M792.462,-418.316C801.281,-415.876 810.007,-412.822 818,-409 836.789,-400.015 835.725,-388.991 854,-379 860.192,-375.615 866.933,-372.626 873.759,-370.01"/>
<polygon fill="midnightblue" stroke="midnightblue" points="791.347,-414.987 782.501,-420.818 793.052,-421.776 791.347,-414.987"/>
</g>
<!-- Node13 -->
<g id="node13" class="node"><title>Node13</title>
<g id="a_node13"><a xlink:href="class_f_b_client_1_1_core_1_1_players_1_1_human_player.html" target="_top" xlink:title="FBClient.Core.Players.Human\lPlayer">
<polygon fill="white" stroke="black" points="1044.5,-463 1044.5,-493 1191.5,-493 1191.5,-463 1044.5,-463"/>
<text text-anchor="start" x="1052.5" y="-481" font-family="Helvetica,sans-Serif" font-size="10.00">FBClient.Core.Players.Human</text>
<text text-anchor="middle" x="1118" y="-470" font-family="Helvetica,sans-Serif" font-size="10.00">Player</text>
</a>
</g>
</g>
<!-- Node12&#45;&gt;Node13 -->
<g id="edge12" class="edge"><title>Node12&#45;&gt;Node13</title>
<path fill="none" stroke="midnightblue" d="M1010.79,-463.647C1021.96,-465.157 1033.41,-466.704 1044.46,-468.197"/>
<polygon fill="midnightblue" stroke="midnightblue" points="1011,-460.144 1000.62,-462.274 1010.07,-467.081 1011,-460.144"/>
</g>
<!-- Node14 -->
<g id="node14" class="node"><title>Node14</title>
<g id="a_node14"><a xlink:href="class_f_b_client_1_1_core_1_1_players_1_1_online_human_player.html" target="_top" xlink:title="FBClient.Core.Players.Online\lHumanPlayer">
<polygon fill="white" stroke="black" points="1046,-414 1046,-444 1190,-444 1190,-414 1046,-414"/>
<text text-anchor="start" x="1054" y="-432" font-family="Helvetica,sans-Serif" font-size="10.00">FBClient.Core.Players.Online</text>
<text text-anchor="middle" x="1118" y="-421" font-family="Helvetica,sans-Serif" font-size="10.00">HumanPlayer</text>
</a>
</g>
</g>
<!-- Node12&#45;&gt;Node14 -->
<g id="edge13" class="edge"><title>Node12&#45;&gt;Node14</title>
<path fill="none" stroke="midnightblue" d="M1010.73,-442.786C1022.34,-441.28 1034.25,-439.735 1045.7,-438.25"/>
<polygon fill="midnightblue" stroke="midnightblue" points="1010.09,-439.34 1000.62,-444.097 1010.99,-446.282 1010.09,-439.34"/>
</g>
<!-- Node19 -->
<g id="node19" class="node"><title>Node19</title>
<g id="a_node19"><a xlink:href="class_f_b_library_1_1_core_1_1_base_entities_1_1_base_arrow.html" target="_top" xlink:title="FBLibrary.Core.BaseEntities.\lBaseArrow">
<polygon fill="white" stroke="black" points="446.5,-324 446.5,-354 589.5,-354 589.5,-324 446.5,-324"/>
<text text-anchor="start" x="454.5" y="-342" font-family="Helvetica,sans-Serif" font-size="10.00">FBLibrary.Core.BaseEntities.</text>
<text text-anchor="middle" x="518" y="-331" font-family="Helvetica,sans-Serif" font-size="10.00">BaseArrow</text>
</a>
</g>
</g>
<!-- Node18&#45;&gt;Node19 -->
<g id="edge18" class="edge"><title>Node18&#45;&gt;Node19</title>
<path fill="none" stroke="midnightblue" d="M353.708,-241.276C376.696,-256.582 413.404,-280.592 446,-300 459.776,-308.202 475.362,-316.833 488.414,-323.884"/>
<polygon fill="midnightblue" stroke="midnightblue" points="355.58,-238.317 345.321,-235.672 351.691,-244.138 355.58,-238.317"/>
</g>
<!-- Node21 -->
<g id="node21" class="node"><title>Node21</title>
<g id="a_node21"><a xlink:href="class_f_b_library_1_1_core_1_1_base_entities_1_1_base_edge_wall.html" target="_top" xlink:title="FBLibrary.Core.BaseEntities.\lBaseEdgeWall">
<polygon fill="white" stroke="black" points="446.5,-261 446.5,-291 589.5,-291 589.5,-261 446.5,-261"/>
<text text-anchor="start" x="454.5" y="-279" font-family="Helvetica,sans-Serif" font-size="10.00">FBLibrary.Core.BaseEntities.</text>
<text text-anchor="middle" x="518" y="-268" font-family="Helvetica,sans-Serif" font-size="10.00">BaseEdgeWall</text>
</a>
</g>
</g>
<!-- Node18&#45;&gt;Node21 -->
<g id="edge20" class="edge"><title>Node18&#45;&gt;Node21</title>
<path fill="none" stroke="midnightblue" d="M376.2,-238.151C401.693,-245.003 433.766,-253.625 460.86,-260.909"/>
<polygon fill="midnightblue" stroke="midnightblue" points="376.989,-234.738 366.423,-235.522 375.172,-241.498 376.989,-234.738"/>
</g>
<!-- Node24 -->
<g id="node24" class="node"><title>Node24</title>
<g id="a_node24"><a xlink:href="class_f_b_library_1_1_core_1_1_base_entities_1_1_base_power_up.html" target="_top" xlink:title="FBLibrary.Core.BaseEntities.\lBasePowerUp">
<polygon fill="white" stroke="black" points="446.5,-211 446.5,-241 589.5,-241 589.5,-211 446.5,-211"/>
<text text-anchor="start" x="454.5" y="-229" font-family="Helvetica,sans-Serif" font-size="10.00">FBLibrary.Core.BaseEntities.</text>
<text text-anchor="middle" x="518" y="-218" font-family="Helvetica,sans-Serif" font-size="10.00">BasePowerUp</text>
</a>
</g>
</g>
<!-- Node18&#45;&gt;Node24 -->
<g id="edge23" class="edge"><title>Node18&#45;&gt;Node24</title>
<path fill="none" stroke="midnightblue" d="M408.217,-226C420.902,-226 433.989,-226 446.499,-226"/>
<polygon fill="midnightblue" stroke="midnightblue" points="408.15,-222.5 398.15,-226 408.15,-229.5 408.15,-222.5"/>
</g>
<!-- Node27 -->
<g id="node27" class="node"><title>Node27</title>
<g id="a_node27"><a xlink:href="class_f_b_library_1_1_core_1_1_base_entities_1_1_base_teleporter.html" target="_top" xlink:title="FBLibrary.Core.BaseEntities.\lBaseTeleporter">
<polygon fill="white" stroke="black" points="446.5,-160 446.5,-190 589.5,-190 589.5,-160 446.5,-160"/>
<text text-anchor="start" x="454.5" y="-178" font-family="Helvetica,sans-Serif" font-size="10.00">FBLibrary.Core.BaseEntities.</text>
<text text-anchor="middle" x="518" y="-167" font-family="Helvetica,sans-Serif" font-size="10.00">BaseTeleporter</text>
</a>
</g>
</g>
<!-- Node18&#45;&gt;Node27 -->
<g id="edge26" class="edge"><title>Node18&#45;&gt;Node27</title>
<path fill="none" stroke="midnightblue" d="M375.914,-213.685C401.829,-206.579 434.617,-197.589 462.061,-190.064"/>
<polygon fill="midnightblue" stroke="midnightblue" points="374.704,-210.387 365.985,-216.407 376.555,-217.138 374.704,-210.387"/>
</g>
<!-- Node29 -->
<g id="node29" class="node"><title>Node29</title>
<g id="a_node29"><a xlink:href="class_f_b_library_1_1_core_1_1_base_entities_1_1_base_unbreakable_wall.html" target="_top" xlink:title="FBLibrary.Core.BaseEntities.\lBaseUnbreakableWall">
<polygon fill="white" stroke="black" points="446.5,-109 446.5,-139 589.5,-139 589.5,-109 446.5,-109"/>
<text text-anchor="start" x="454.5" y="-127" font-family="Helvetica,sans-Serif" font-size="10.00">FBLibrary.Core.BaseEntities.</text>
<text text-anchor="middle" x="518" y="-116" font-family="Helvetica,sans-Serif" font-size="10.00">BaseUnbreakableWall</text>
</a>
</g>
</g>
<!-- Node18&#45;&gt;Node29 -->
<g id="edge28" class="edge"><title>Node18&#45;&gt;Node29</title>
<path fill="none" stroke="midnightblue" d="M351.585,-210.255C373.931,-193.686 411.109,-167.614 446,-150 453.851,-146.036 462.456,-142.367 470.882,-139.108"/>
<polygon fill="midnightblue" stroke="midnightblue" points="349.412,-207.51 343.511,-216.309 353.611,-213.111 349.412,-207.51"/>
</g>
<!-- Node32 -->
<g id="node32" class="node"><title>Node32</title>
<g id="a_node32"><a xlink:href="class_f_b_library_1_1_core_1_1_base_entities_1_1_base_wall.html" target="_top" xlink:title="FBLibrary.Core.BaseEntities.\lBaseWall">
<polygon fill="white" stroke="black" points="446.5,-33 446.5,-63 589.5,-63 589.5,-33 446.5,-33"/>
<text text-anchor="start" x="454.5" y="-51" font-family="Helvetica,sans-Serif" font-size="10.00">FBLibrary.Core.BaseEntities.</text>
<text text-anchor="middle" x="518" y="-40" font-family="Helvetica,sans-Serif" font-size="10.00">BaseWall</text>
</a>
</g>
</g>
<!-- Node18&#45;&gt;Node32 -->
<g id="edge31" class="edge"><title>Node18&#45;&gt;Node32</title>
<path fill="none" stroke="midnightblue" d="M344.898,-208.411C365.524,-182.854 406.109,-134.622 446,-99 460.83,-85.7574 479.074,-72.7132 493.355,-63.1319"/>
<polygon fill="midnightblue" stroke="midnightblue" points="341.983,-206.452 338.468,-216.447 347.449,-210.825 341.983,-206.452"/>
</g>
<!-- Node20 -->
<g id="node20" class="node"><title>Node20</title>
<g id="a_node20"><a xlink:href="class_f_b_server_1_1_core_1_1_entities_1_1_arrow.html" target="_top" xlink:title="FBServer.Core.Entities.Arrow">
<polygon fill="white" stroke="black" points="650.5,-342.5 650.5,-361.5 793.5,-361.5 793.5,-342.5 650.5,-342.5"/>
<text text-anchor="middle" x="722" y="-349.5" font-family="Helvetica,sans-Serif" font-size="10.00">FBServer.Core.Entities.Arrow</text>
</a>
</g>
</g>
<!-- Node19&#45;&gt;Node20 -->
<g id="edge19" class="edge"><title>Node19&#45;&gt;Node20</title>
<path fill="none" stroke="midnightblue" d="M599.932,-344.208C616.631,-345.283 634.092,-346.407 650.39,-347.456"/>
<polygon fill="midnightblue" stroke="midnightblue" points="599.854,-340.696 589.65,-343.547 599.404,-347.682 599.854,-340.696"/>
</g>
<!-- Node22 -->
<g id="node22" class="node"><title>Node22</title>
<g id="a_node22"><a xlink:href="class_f_b_client_1_1_core_1_1_entities_1_1_edge_wall.html" target="_top" xlink:title="FBClient.Core.Entities.EdgeWall">
<polygon fill="white" stroke="black" points="643,-304.5 643,-323.5 801,-323.5 801,-304.5 643,-304.5"/>
<text text-anchor="middle" x="722" y="-311.5" font-family="Helvetica,sans-Serif" font-size="10.00">FBClient.Core.Entities.EdgeWall</text>
</a>
</g>
</g>
<!-- Node21&#45;&gt;Node22 -->
<g id="edge21" class="edge"><title>Node21&#45;&gt;Node22</title>
<path fill="none" stroke="midnightblue" d="M599.762,-291.193C623.621,-295.681 649.05,-300.465 670.426,-304.486"/>
<polygon fill="midnightblue" stroke="midnightblue" points="600.125,-287.7 589.65,-289.291 598.83,-294.579 600.125,-287.7"/>
</g>
<!-- Node23 -->
<g id="node23" class="node"><title>Node23</title>
<g id="a_node23"><a xlink:href="class_f_b_server_1_1_core_1_1_entities_1_1_edge_wall.html" target="_top" xlink:title="FBServer.Core.Entities.EdgeWall">
<polygon fill="white" stroke="black" points="641.5,-266.5 641.5,-285.5 802.5,-285.5 802.5,-266.5 641.5,-266.5"/>
<text text-anchor="middle" x="722" y="-273.5" font-family="Helvetica,sans-Serif" font-size="10.00">FBServer.Core.Entities.EdgeWall</text>
</a>
</g>
</g>
<!-- Node21&#45;&gt;Node23 -->
<g id="edge22" class="edge"><title>Node21&#45;&gt;Node23</title>
<path fill="none" stroke="midnightblue" d="M599.975,-276C613.63,-276 627.794,-276 641.413,-276"/>
<polygon fill="midnightblue" stroke="midnightblue" points="599.65,-272.5 589.65,-276 599.65,-279.5 599.65,-272.5"/>
</g>
<!-- Node25 -->
<g id="node25" class="node"><title>Node25</title>
<g id="a_node25"><a xlink:href="class_f_b_client_1_1_core_1_1_entities_1_1_power_up.html" target="_top" xlink:title="FBClient.Core.Entities.PowerUp">
<polygon fill="white" stroke="black" points="644.5,-228.5 644.5,-247.5 799.5,-247.5 799.5,-228.5 644.5,-228.5"/>
<text text-anchor="middle" x="722" y="-235.5" font-family="Helvetica,sans-Serif" font-size="10.00">FBClient.Core.Entities.PowerUp</text>
</a>
</g>
</g>
<!-- Node24&#45;&gt;Node25 -->
<g id="edge24" class="edge"><title>Node24&#45;&gt;Node25</title>
<path fill="none" stroke="midnightblue" d="M599.697,-230.794C614.37,-231.666 629.639,-232.573 644.196,-233.437"/>
<polygon fill="midnightblue" stroke="midnightblue" points="599.84,-227.296 589.65,-230.197 599.425,-234.284 599.84,-227.296"/>
</g>
<!-- Node26 -->
<g id="node26" class="node"><title>Node26</title>
<g id="a_node26"><a xlink:href="class_f_b_server_1_1_core_1_1_entities_1_1_power_up.html" target="_top" xlink:title="FBServer.Core.Entities.PowerUp">
<polygon fill="white" stroke="black" points="643,-190.5 643,-209.5 801,-209.5 801,-190.5 643,-190.5"/>
<text text-anchor="middle" x="722" y="-197.5" font-family="Helvetica,sans-Serif" font-size="10.00">FBServer.Core.Entities.PowerUp</text>
</a>
</g>
</g>
<!-- Node24&#45;&gt;Node26 -->
<g id="edge25" class="edge"><title>Node24&#45;&gt;Node26</title>
<path fill="none" stroke="midnightblue" d="M599.776,-215.603C615.357,-213.598 631.607,-211.506 646.961,-209.53"/>
<polygon fill="midnightblue" stroke="midnightblue" points="599.121,-212.158 589.65,-216.906 600.015,-219.101 599.121,-212.158"/>
</g>
<!-- Node28 -->
<g id="node28" class="node"><title>Node28</title>
<g id="a_node28"><a xlink:href="class_f_b_server_1_1_core_1_1_entities_1_1_teleporter.html" target="_top" xlink:title="FBServer.Core.Entities.Teleporter">
<polygon fill="white" stroke="black" points="641.5,-152.5 641.5,-171.5 802.5,-171.5 802.5,-152.5 641.5,-152.5"/>
<text text-anchor="middle" x="722" y="-159.5" font-family="Helvetica,sans-Serif" font-size="10.00">FBServer.Core.Entities.Teleporter</text>
</a>
</g>
</g>
<!-- Node27&#45;&gt;Node28 -->
<g id="edge27" class="edge"><title>Node27&#45;&gt;Node28</title>
<path fill="none" stroke="midnightblue" d="M599.975,-169.789C613.63,-168.91 627.794,-167.998 641.413,-167.122"/>
<polygon fill="midnightblue" stroke="midnightblue" points="599.404,-166.318 589.65,-170.453 599.854,-173.304 599.404,-166.318"/>
</g>
<!-- Node30 -->
<g id="node30" class="node"><title>Node30</title>
<g id="a_node30"><a xlink:href="class_f_b_client_1_1_core_1_1_entities_1_1_unbreakable_wall.html" target="_top" xlink:title="FBClient.Core.Entities.UnbreakableWall">
<polygon fill="white" stroke="black" points="627,-114.5 627,-133.5 817,-133.5 817,-114.5 627,-114.5"/>
<text text-anchor="middle" x="722" y="-121.5" font-family="Helvetica,sans-Serif" font-size="10.00">FBClient.Core.Entities.UnbreakableWall</text>
</a>
</g>
</g>
<!-- Node29&#45;&gt;Node30 -->
<g id="edge29" class="edge"><title>Node29&#45;&gt;Node30</title>
<path fill="none" stroke="midnightblue" d="M599.669,-124C608.642,-124 617.838,-124 626.958,-124"/>
<polygon fill="midnightblue" stroke="midnightblue" points="599.65,-120.5 589.65,-124 599.65,-127.5 599.65,-120.5"/>
</g>
<!-- Node31 -->
<g id="node31" class="node"><title>Node31</title>
<g id="a_node31"><a xlink:href="class_f_b_server_1_1_core_1_1_entities_1_1_unbreakable_wall.html" target="_top" xlink:title="FBServer.Core.Entities.UnbreakableWall">
<polygon fill="white" stroke="black" points="626,-76.5 626,-95.5 818,-95.5 818,-76.5 626,-76.5"/>
<text text-anchor="middle" x="722" y="-83.5" font-family="Helvetica,sans-Serif" font-size="10.00">FBServer.Core.Entities.UnbreakableWall</text>
</a>
</g>
</g>
<!-- Node29&#45;&gt;Node31 -->
<g id="edge30" class="edge"><title>Node29&#45;&gt;Node31</title>
<path fill="none" stroke="midnightblue" d="M599.762,-108.807C623.621,-104.319 649.05,-99.5351 670.426,-95.5139"/>
<polygon fill="midnightblue" stroke="midnightblue" points="598.83,-105.421 589.65,-110.709 600.125,-112.3 598.83,-105.421"/>
</g>
<!-- Node33 -->
<g id="node33" class="node"><title>Node33</title>
<g id="a_node33"><a xlink:href="class_f_b_client_1_1_core_1_1_entities_1_1_wall.html" target="_top" xlink:title="FBClient.Core.Entities.Wall">
<polygon fill="white" stroke="black" points="654,-38.5 654,-57.5 790,-57.5 790,-38.5 654,-38.5"/>
<text text-anchor="middle" x="722" y="-45.5" font-family="Helvetica,sans-Serif" font-size="10.00">FBClient.Core.Entities.Wall</text>
</a>
</g>
</g>
<!-- Node32&#45;&gt;Node33 -->
<g id="edge32" class="edge"><title>Node32&#45;&gt;Node33</title>
<path fill="none" stroke="midnightblue" d="M599.783,-48C617.692,-48 636.486,-48 653.785,-48"/>
<polygon fill="midnightblue" stroke="midnightblue" points="599.65,-44.5001 589.65,-48 599.65,-51.5001 599.65,-44.5001"/>
</g>
<!-- Node34 -->
<g id="node34" class="node"><title>Node34</title>
<g id="a_node34"><a xlink:href="class_f_b_server_1_1_core_1_1_entities_1_1_wall.html" target="_top" xlink:title="FBServer.Core.Entities.Wall">
<polygon fill="white" stroke="black" points="653,-0.5 653,-19.5 791,-19.5 791,-0.5 653,-0.5"/>
<text text-anchor="middle" x="722" y="-7.5" font-family="Helvetica,sans-Serif" font-size="10.00">FBServer.Core.Entities.Wall</text>
</a>
</g>
</g>
<!-- Node32&#45;&gt;Node34 -->
<g id="edge33" class="edge"><title>Node32&#45;&gt;Node34</title>
<path fill="none" stroke="midnightblue" d="M599.762,-32.8071C623.621,-28.3189 649.05,-23.5351 670.426,-19.5139"/>
<polygon fill="midnightblue" stroke="midnightblue" points="598.83,-29.4209 589.65,-34.7094 600.125,-36.3003 598.83,-29.4209"/>
</g>
</g>
</svg>
        <g id="navigator" transform="translate(0 0)" fill="#404254">
                <rect fill="#f2f5e9" fill-opacity="0.5" stroke="#606060" stroke-width=".5" x="0" y="0" width="60" height="60"/>
                <use id="zoomplus" xlink:href="#zoomPlus" x="17" y="9" onmousedown="handleZoom(evt,'in')"/>
                <use id="zoomminus" xlink:href="#zoomMin" x="42" y="9" onmousedown="handleZoom(evt,'out')"/>
                <use id="reset" xlink:href="#resetDef" x="30" y="36" onmousedown="handleReset()"/>
                <g id="arrowUp" xlink:href="#dirArrow" transform="translate(30 24)" onmousedown="handlePan(0,-1)">
                  <use xlink:href="#rim" fill="#404040">
                        <set attributeName="fill" to="#808080" begin="arrowUp.mouseover" end="arrowUp.mouseout"/>
                  </use>
                  <path fill="none" stroke="white" stroke-width="1.5" d="M0,-3.0v7 M-2.5,-0.5L0,-3.0L2.5,-0.5"/>
                </g>
                <g id="arrowRight" xlink:href="#dirArrow" transform="rotate(90) translate(36 -43)" onmousedown="handlePan(1,0)">
                  <use xlink:href="#rim" fill="#404040">
                        <set attributeName="fill" to="#808080" begin="arrowRight.mouseover" end="arrowRight.mouseout"/>
                  </use>
                  <path fill="none" stroke="white" stroke-width="1.5" d="M0,-3.0v7 M-2.5,-0.5L0,-3.0L2.5,-0.5"/>
                </g>
                <g id="arrowDown" xlink:href="#dirArrow" transform="rotate(180) translate(-30 -48)" onmousedown="handlePan(0,1)">
                  <use xlink:href="#rim" fill="#404040">
                        <set attributeName="fill" to="#808080" begin="arrowDown.mouseover" end="arrowDown.mouseout"/>
                  </use>
                  <path fill="none" stroke="white" stroke-width="1.5" d="M0,-3.0v7 M-2.5,-0.5L0,-3.0L2.5,-0.5"/>
                </g>
                <g id="arrowLeft" xlink:href="#dirArrow" transform="rotate(270) translate(-36 17)" onmousedown="handlePan(-1,0)">
                  <use xlink:href="#rim" fill="#404040">
                        <set attributeName="fill" to="#808080" begin="arrowLeft.mouseover" end="arrowLeft.mouseout"/>
                  </use>
                  <path fill="none" stroke="white" stroke-width="1.5" d="M0,-3.0v7 M-2.5,-0.5L0,-3.0L2.5,-0.5"/>
                </g>
        </g>
        <svg viewBox="0 0 15 15" width="100%" height="30px" preserveAspectRatio="xMaxYMin meet">
         <g id="arrow_out" transform="scale(0.3 0.3)">
          <a xlink:href="class_f_b_library_1_1_core_1_1_base_entity__inherit__graph_org.svg" target="_base">
           <rect id="button" ry="5" rx="5" y="6" x="6" height="38" width="38"
                fill="#f2f5e9" fill-opacity="0.5" stroke="#606060" stroke-width="1.0"/>
           <path id="arrow"
             d="M 11.500037,31.436501 C 11.940474,20.09759 22.043105,11.32322 32.158766,21.979434 L 37.068811,17.246167 C 37.068811,17.246167 37.088388,32 37.088388,32 L 22.160133,31.978069 C 22.160133,31.978069 26.997745,27.140456 26.997745,27.140456 C 18.528582,18.264221 13.291696,25.230495 11.500037,31.436501 z"
             style="fill:#404040;"/>
          </a>
         </g>
        </svg>
</svg>
