<?xml version="1.0" encoding="UTF-8" standalone="no"?>
<!DOCTYPE svg PUBLIC "-//W3C//DTD SVG 1.1//EN"
 "http://www.w3.org/Graphics/SVG/1.1/DTD/svg11.dtd">
<!-- Generated by graphviz version 2.34.0 (20130907.0111)
 -->
<!-- Title: FBClient.Core.GameManager Pages: 1 -->
<svg width="323pt" height="152pt"
 viewBox="0.00 0.00 323.00 152.00" xmlns="http://www.w3.org/2000/svg" xmlns:xlink="http://www.w3.org/1999/xlink">
<g id="graph0" class="graph" transform="scale(1 1) rotate(0) translate(4 148)">
<title>FBClient.Core.GameManager</title>
<polygon fill="white" stroke="white" points="-4,4 -4,-148 319,-148 319,4 -4,4"/>
<!-- Node1 -->
<g id="node1" class="node"><title>Node1</title>
<polygon fill="#bfbfbf" stroke="black" points="94,-68.5 94,-87.5 238,-87.5 238,-68.5 94,-68.5"/>
<text text-anchor="middle" x="166" y="-75.5" font-family="Helvetica,sans-Serif" font-size="10.00">FBClient.Core.GameManager</text>
</g>
<!-- Node3 -->
<g id="node3" class="node"><title>Node3</title>
<g id="a_node3"><a xlink:href="class_f_b_client_1_1_core_1_1_local_game_manager.html" target="_top" xlink:title="This class is specificaly used for the logic of local games ">
<polygon fill="white" stroke="black" points="-0.5,-6.5 -0.5,-25.5 166.5,-25.5 166.5,-6.5 -0.5,-6.5"/>
<text text-anchor="middle" x="83" y="-13.5" font-family="Helvetica,sans-Serif" font-size="10.00">FBClient.Core.LocalGameManager</text>
</a>
</g>
</g>
<!-- Node1&#45;&gt;Node3 -->
<g id="edge2" class="edge"><title>Node1&#45;&gt;Node3</title>
<path fill="none" stroke="midnightblue" d="M145.93,-62.4918C129.967,-50.952 108.173,-35.1976 94.8698,-25.5806"/>
<polygon fill="midnightblue" stroke="midnightblue" points="143.953,-65.3814 154.108,-68.4035 148.054,-59.7085 143.953,-65.3814"/>
</g>
<!-- Node4 -->
<g id="node4" class="node"><title>Node4</title>
<g id="a_node4"><a xlink:href="class_f_b_client_1_1_network_1_1_network_game_manager.html" target="_top" xlink:title="This class is specificaly used for the logic of network games ">
<polygon fill="white" stroke="black" points="184.5,-1 184.5,-31 315.5,-31 315.5,-1 184.5,-1"/>
<text text-anchor="start" x="192.5" y="-19" font-family="Helvetica,sans-Serif" font-size="10.00">FBClient.Network.Network</text>
<text text-anchor="middle" x="250" y="-8" font-family="Helvetica,sans-Serif" font-size="10.00">GameManager</text>
</a>
</g>
</g>
<!-- Node1&#45;&gt;Node4 -->
<g id="edge3" class="edge"><title>Node1&#45;&gt;Node4</title>
<path fill="none" stroke="midnightblue" d="M186.516,-62.3459C199.815,-52.8461 217.048,-40.5369 230.203,-31.1408"/>
<polygon fill="midnightblue" stroke="midnightblue" points="184.138,-59.743 178.035,-68.4035 188.207,-65.4391 184.138,-59.743"/>
</g>
<!-- Node2 -->
<g id="node2" class="node"><title>Node2</title>
<g id="a_node2"><a xlink:href="class_f_b_library_1_1_core_1_1_base_game_manager.html" target="_top" xlink:title="BaseGameManager">
<polygon fill="white" stroke="black" points="114.5,-124.5 114.5,-143.5 217.5,-143.5 217.5,-124.5 114.5,-124.5"/>
<text text-anchor="middle" x="166" y="-131.5" font-family="Helvetica,sans-Serif" font-size="10.00">BaseGameManager</text>
</a>
</g>
</g>
<!-- Node2&#45;&gt;Node1 -->
<g id="edge1" class="edge"><title>Node2&#45;&gt;Node1</title>
<path fill="none" stroke="midnightblue" d="M166,-113.805C166,-104.91 166,-94.7798 166,-87.7511"/>
<polygon fill="midnightblue" stroke="midnightblue" points="162.5,-114.083 166,-124.083 169.5,-114.083 162.5,-114.083"/>
</g>
</g>
</svg>
