<?xml version="1.0" encoding="UTF-8" standalone="no"?>
<!DOCTYPE svg PUBLIC "-//W3C//DTD SVG 1.1//EN"
 "http://www.w3.org/Graphics/SVG/1.1/DTD/svg11.dtd">
<!-- Generated by graphviz version 2.34.0 (20130907.0111)
 -->
<!-- Title: FBClient.Network.GameServer Pages: 1 -->
<svg width="249pt" height="312pt"
 viewBox="0.00 0.00 249.00 312.00" xmlns="http://www.w3.org/2000/svg" xmlns:xlink="http://www.w3.org/1999/xlink">
<g id="graph0" class="graph" transform="scale(1 1) rotate(0) translate(4 308)">
<title>FBClient.Network.GameServer</title>
<polygon fill="white" stroke="white" points="-4,4 -4,-308 245,-308 245,4 -4,4"/>
<!-- Node1 -->
<g id="node1" class="node"><title>Node1</title>
<polygon fill="#bfbfbf" stroke="black" points="73.5,-0.5 73.5,-19.5 222.5,-19.5 222.5,-0.5 73.5,-0.5"/>
<text text-anchor="middle" x="148" y="-7.5" font-family="Helvetica,sans-Serif" font-size="10.00">FBClient.Network.GameServer</text>
</g>
<!-- Node2 -->
<g id="node2" class="node"><title>Node2</title>
<g id="a_node2"><a xlink:href="class_f_b_client_1_1_core_1_1_game_manager.html" target="_top" xlink:title="This class is used to regroup common behaviors between network and local game logic. ">
<polygon fill="white" stroke="black" points="76,-68.5 76,-87.5 220,-87.5 220,-68.5 76,-68.5"/>
<text text-anchor="middle" x="148" y="-75.5" font-family="Helvetica,sans-Serif" font-size="10.00">FBClient.Core.GameManager</text>
</a>
</g>
</g>
<!-- Node2&#45;&gt;Node1 -->
<g id="edge1" class="edge"><title>Node2&#45;&gt;Node1</title>
<path fill="none" stroke="#9a32cd" stroke-dasharray="5,2" d="M148,-58.0413C148,-45.4724 148,-29.5631 148,-19.8411"/>
<polygon fill="#9a32cd" stroke="#9a32cd" points="144.5,-58.3716 148,-68.3717 151.5,-58.3717 144.5,-58.3716"/>
<text text-anchor="middle" x="181.5" y="-41.5" font-family="Helvetica,sans-Serif" font-size="10.00"> GameManager</text>
</g>
<!-- Node3 -->
<g id="node3" class="node"><title>Node3</title>
<g id="a_node3"><a xlink:href="class_f_b_library_1_1_core_1_1_base_game_manager.html" target="_top" xlink:title="BaseGameManager">
<polygon fill="white" stroke="black" points="25.5,-136.5 25.5,-155.5 128.5,-155.5 128.5,-136.5 25.5,-136.5"/>
<text text-anchor="middle" x="77" y="-143.5" font-family="Helvetica,sans-Serif" font-size="10.00">BaseGameManager</text>
</a>
</g>
</g>
<!-- Node3&#45;&gt;Node2 -->
<g id="edge2" class="edge"><title>Node3&#45;&gt;Node2</title>
<path fill="none" stroke="midnightblue" d="M93.7687,-129.412C107.716,-116.447 127.07,-98.4559 138.489,-87.8411"/>
<polygon fill="midnightblue" stroke="midnightblue" points="91.2233,-127 86.282,-136.372 95.9893,-132.127 91.2233,-127"/>
</g>
<!-- Node4 -->
<g id="node4" class="node"><title>Node4</title>
<g id="a_node4"><a xlink:href="class_f_b_library_1_1_core_1_1_base_entities_1_1_base_map.html" target="_top" xlink:title="FBLibrary.Core.BaseEntities.\lBaseMap">
<polygon fill="white" stroke="black" points="-0.5,-205 -0.5,-235 142.5,-235 142.5,-205 -0.5,-205"/>
<text text-anchor="start" x="7.5" y="-223" font-family="Helvetica,sans-Serif" font-size="10.00">FBLibrary.Core.BaseEntities.</text>
<text text-anchor="middle" x="71" y="-212" font-family="Helvetica,sans-Serif" font-size="10.00">BaseMap</text>
</a>
</g>
</g>
<!-- Node4&#45;&gt;Node3 -->
<g id="edge3" class="edge"><title>Node4&#45;&gt;Node3</title>
<path fill="none" stroke="#9a32cd" stroke-dasharray="5,2" d="M73.026,-194.688C74.1456,-181.253 75.4683,-165.38 76.2701,-155.759"/>
<polygon fill="#9a32cd" stroke="#9a32cd" points="69.528,-194.519 72.1854,-204.775 76.5039,-195.1 69.528,-194.519"/>
<text text-anchor="middle" x="113" y="-177.5" font-family="Helvetica,sans-Serif" font-size="10.00"> BaseCurrentMap</text>
</g>
<!-- Node5 -->
<g id="node5" class="node"><title>Node5</title>
<g id="a_node5"><a xlink:href="interface_f_b_library_1_1_core_1_1_i_entity.html" target="_top" xlink:title="FBLibrary.Core.IEntity">
<polygon fill="white" stroke="black" points="14.5,-284.5 14.5,-303.5 127.5,-303.5 127.5,-284.5 14.5,-284.5"/>
<text text-anchor="middle" x="71" y="-291.5" font-family="Helvetica,sans-Serif" font-size="10.00">FBLibrary.Core.IEntity</text>
</a>
</g>
</g>
<!-- Node5&#45;&gt;Node4 -->
<g id="edge4" class="edge"><title>Node5&#45;&gt;Node4</title>
<path fill="none" stroke="#9a32cd" stroke-dasharray="5,2" d="M71,-274.085C71,-261.915 71,-246.354 71,-235.232"/>
<polygon fill="#9a32cd" stroke="#9a32cd" points="67.5001,-274.458 71,-284.458 74.5001,-274.458 67.5001,-274.458"/>
<text text-anchor="middle" x="85.5" y="-257.5" font-family="Helvetica,sans-Serif" font-size="10.00"> Board</text>
</g>
<!-- Node6 -->
<g id="node6" class="node"><title>Node6</title>
<g id="a_node6"><a xlink:href="class_player_collection.html" target="_top" xlink:title="PlayerCollection">
<polygon fill="white" stroke="black" points="154.5,-136.5 154.5,-155.5 241.5,-155.5 241.5,-136.5 154.5,-136.5"/>
<text text-anchor="middle" x="198" y="-143.5" font-family="Helvetica,sans-Serif" font-size="10.00">PlayerCollection</text>
</a>
</g>
</g>
<!-- Node6&#45;&gt;Node2 -->
<g id="edge5" class="edge"><title>Node6&#45;&gt;Node2</title>
<path fill="none" stroke="#9a32cd" stroke-dasharray="5,2" d="M185.356,-128.31C175.609,-115.444 162.514,-98.1583 154.698,-87.8411"/>
<polygon fill="#9a32cd" stroke="#9a32cd" points="182.635,-130.514 191.463,-136.372 188.215,-126.287 182.635,-130.514"/>
<text text-anchor="middle" x="196.5" y="-109.5" font-family="Helvetica,sans-Serif" font-size="10.00"> Players</text>
</g>
<!-- Node7 -->
<g id="node7" class="node"><title>Node7</title>
<polygon fill="white" stroke="#bfbfbf" points="161,-210.5 161,-229.5 239,-229.5 239,-210.5 161,-210.5"/>
<text text-anchor="middle" x="200" y="-217.5" font-family="Helvetica,sans-Serif" font-size="10.00">List&lt; Player &gt;</text>
</g>
<!-- Node7&#45;&gt;Node6 -->
<g id="edge6" class="edge"><title>Node7&#45;&gt;Node6</title>
<path fill="none" stroke="midnightblue" d="M199.477,-200.156C199.075,-185.712 198.541,-166.459 198.237,-155.531"/>
<polygon fill="midnightblue" stroke="midnightblue" points="195.986,-200.559 199.763,-210.458 202.984,-200.365 195.986,-200.559"/>
</g>
</g>
</svg>
