<?xml version="1.0" encoding="UTF-8" standalone="no"?>
<!DOCTYPE svg PUBLIC "-//W3C//DTD SVG 1.1//EN"
 "http://www.w3.org/Graphics/SVG/1.1/DTD/svg11.dtd">
<!-- Generated by graphviz version 2.34.0 (20130907.0111)
 -->
<!-- Title: FBServer.Host.GameServer Pages: 1 -->
<svg width="158pt" height="154pt"
 viewBox="0.00 0.00 158.00 154.00" xmlns="http://www.w3.org/2000/svg" xmlns:xlink="http://www.w3.org/1999/xlink">
<g id="graph0" class="graph" transform="scale(1 1) rotate(0) translate(4 150)">
<title>FBServer.Host.GameServer</title>
<polygon fill="white" stroke="white" points="-4,4 -4,-150 154,-150 154,4 -4,4"/>
<!-- Node1 -->
<g id="node1" class="node"><title>Node1</title>
<polygon fill="#bfbfbf" stroke="black" points="7,-0.5 7,-19.5 143,-19.5 143,-0.5 7,-0.5"/>
<text text-anchor="middle" x="75" y="-7.5" font-family="Helvetica,sans-Serif" font-size="10.00">FBServer.Host.GameServer</text>
</g>
<!-- Node2 -->
<g id="node2" class="node"><title>Node2</title>
<g id="a_node2"><a xlink:href="class_f_b_server_1_1_host_1_1_client_collection.html" target="_top" xlink:title="FBServer.Host.ClientCollection">
<polygon fill="white" stroke="black" points="0,-68.5 0,-87.5 150,-87.5 150,-68.5 0,-68.5"/>
<text text-anchor="middle" x="75" y="-75.5" font-family="Helvetica,sans-Serif" font-size="10.00">FBServer.Host.ClientCollection</text>
</a>
</g>
</g>
<!-- Node2&#45;&gt;Node1 -->
<g id="edge1" class="edge"><title>Node2&#45;&gt;Node1</title>
<path fill="none" stroke="#9a32cd" stroke-dasharray="5,2" d="M75,-58.0413C75,-45.4724 75,-29.5631 75,-19.8411"/>
<polygon fill="#9a32cd" stroke="#9a32cd" points="71.5001,-58.3716 75,-68.3717 78.5001,-58.3717 71.5001,-58.3716"/>
<text text-anchor="middle" x="92" y="-41.5" font-family="Helvetica,sans-Serif" font-size="10.00"> Clients</text>
</g>
<!-- Node3 -->
<g id="node3" class="node"><title>Node3</title>
<polygon fill="white" stroke="#bfbfbf" points="37.5,-126.5 37.5,-145.5 112.5,-145.5 112.5,-126.5 37.5,-126.5"/>
<text text-anchor="middle" x="75" y="-133.5" font-family="Helvetica,sans-Serif" font-size="10.00">List&lt; Client &gt;</text>
</g>
<!-- Node3&#45;&gt;Node2 -->
<g id="edge2" class="edge"><title>Node3&#45;&gt;Node2</title>
<path fill="none" stroke="midnightblue" d="M75,-115.953C75,-106.287 75,-95.0312 75,-87.5052"/>
<polygon fill="midnightblue" stroke="midnightblue" points="71.5001,-116.25 75,-126.25 78.5001,-116.25 71.5001,-116.25"/>
</g>
</g>
</svg>
