<?xml version="1.0" encoding="UTF-8" standalone="no"?>
<!DOCTYPE svg PUBLIC "-//W3C//DTD SVG 1.1//EN"
 "http://www.w3.org/Graphics/SVG/1.1/DTD/svg11.dtd">
<!-- Generated by graphviz version 2.34.0 (20130907.0111)
 -->
<!-- Title: FBLauncher.MainWindow Pages: 1 -->
<svg width="447pt" height="272pt"
 viewBox="0.00 0.00 447.00 272.00" xmlns="http://www.w3.org/2000/svg" xmlns:xlink="http://www.w3.org/1999/xlink">
<g id="graph0" class="graph" transform="scale(1 1) rotate(0) translate(4 268)">
<title>FBLauncher.MainWindow</title>
<polygon fill="white" stroke="white" points="-4,4 -4,-268 443,-268 443,4 -4,4"/>
<!-- Node1 -->
<g id="node1" class="node"><title>Node1</title>
<polygon fill="#bfbfbf" stroke="black" points="158,-1 158,-157 286,-157 286,-1 158,-1"/>
<text text-anchor="middle" x="222" y="-145" font-family="Helvetica,sans-Serif" font-size="10.00">FBLauncher.MainWindow</text>
<polyline fill="none" stroke="black" points="158,-138 286,-138 "/>
<text text-anchor="start" x="166" y="-126" font-family="Helvetica,sans-Serif" font-size="10.00">+ ApplicationName</text>
<text text-anchor="start" x="166" y="-115" font-family="Helvetica,sans-Serif" font-size="10.00">+ ApplicationID</text>
<text text-anchor="start" x="166" y="-104" font-family="Helvetica,sans-Serif" font-size="10.00">+ ApplicationAssembly</text>
<text text-anchor="start" x="166" y="-93" font-family="Helvetica,sans-Serif" font-size="10.00">+ ApplicationIcon</text>
<text text-anchor="start" x="166" y="-82" font-family="Helvetica,sans-Serif" font-size="10.00">+ UpdateXmlLocation</text>
<text text-anchor="start" x="166" y="-71" font-family="Helvetica,sans-Serif" font-size="10.00">+ Context</text>
<text text-anchor="start" x="166" y="-60" font-family="Helvetica,sans-Serif" font-size="10.00">~ label</text>
<polyline fill="none" stroke="black" points="158,-53 286,-53 "/>
<text text-anchor="start" x="166" y="-41" font-family="Helvetica,sans-Serif" font-size="10.00">+ MainWindow()</text>
<text text-anchor="start" x="166" y="-30" font-family="Helvetica,sans-Serif" font-size="10.00">+ InitializeComponent()</text>
<text text-anchor="start" x="166" y="-19" font-family="Helvetica,sans-Serif" font-size="10.00">+ InitializeComponent()</text>
<text text-anchor="start" x="166" y="-8" font-family="Helvetica,sans-Serif" font-size="10.00">+ InitializeComponent()</text>
</g>
<!-- Node2 -->
<g id="node2" class="node"><title>Node2</title>
<polygon fill="white" stroke="#bfbfbf" points="-0.5,-200.5 -0.5,-257.5 136.5,-257.5 136.5,-200.5 -0.5,-200.5"/>
<text text-anchor="middle" x="68" y="-245.5" font-family="Helvetica,sans-Serif" font-size="10.00">System::Windows::Window</text>
<polyline fill="none" stroke="#bfbfbf" points="-0.5,-238.5 136.5,-238.5 "/>
<text text-anchor="middle" x="68" y="-226.5" font-family="Helvetica,sans-Serif" font-size="10.00"> </text>
<polyline fill="none" stroke="#bfbfbf" points="-0.5,-219.5 136.5,-219.5 "/>
<text text-anchor="middle" x="68" y="-207.5" font-family="Helvetica,sans-Serif" font-size="10.00"> </text>
</g>
<!-- Node2&#45;&gt;Node1 -->
<g id="edge1" class="edge"><title>Node2&#45;&gt;Node1</title>
<path fill="none" stroke="midnightblue" d="M93.1074,-192.615C110.896,-173.661 135.139,-150.012 157.91,-129.285"/>
<polygon fill="none" stroke="midnightblue" points="90.3527,-190.44 86.1433,-200.162 95.4971,-195.187 90.3527,-190.44"/>
</g>
<!-- Node2&#45;&gt;Node1 -->
<g id="edge3" class="edge"><title>Node2&#45;&gt;Node1</title>
<path fill="none" stroke="midnightblue" d="M104.504,-192.919C120.423,-177.619 139.571,-159.218 157.744,-141.752"/>
<polygon fill="none" stroke="midnightblue" points="101.751,-190.71 96.9662,-200.162 106.602,-195.757 101.751,-190.71"/>
</g>
<!-- Node2&#45;&gt;Node1 -->
<g id="edge5" class="edge"><title>Node2&#45;&gt;Node1</title>
<path fill="none" stroke="midnightblue" d="M115.531,-193.489C128.967,-181.764 143.74,-168.169 157.929,-154.549"/>
<polygon fill="none" stroke="midnightblue" points="113.079,-190.982 107.789,-200.162 117.649,-196.284 113.079,-190.982"/>
</g>
<!-- Node3 -->
<g id="node3" class="node"><title>Node3</title>
<polygon fill="white" stroke="#bfbfbf" points="155,-195 155,-263 289,-263 289,-195 155,-195"/>
<text text-anchor="start" x="163" y="-251" font-family="Helvetica,sans-Serif" font-size="10.00">System::Windows::Markup</text>
<text text-anchor="middle" x="222" y="-240" font-family="Helvetica,sans-Serif" font-size="10.00">::IComponentConnector</text>
<polyline fill="none" stroke="#bfbfbf" points="155,-233 289,-233 "/>
<text text-anchor="middle" x="222" y="-221" font-family="Helvetica,sans-Serif" font-size="10.00"> </text>
<polyline fill="none" stroke="#bfbfbf" points="155,-214 289,-214 "/>
<text text-anchor="middle" x="222" y="-202" font-family="Helvetica,sans-Serif" font-size="10.00"> </text>
</g>
<!-- Node3&#45;&gt;Node1 -->
<g id="edge2" class="edge"><title>Node3&#45;&gt;Node1</title>
<path fill="none" stroke="midnightblue" d="M209.584,-184.613C208.936,-175.964 208.578,-166.637 208.512,-157.241"/>
<polygon fill="none" stroke="midnightblue" points="206.118,-185.148 210.519,-194.786 213.089,-184.508 206.118,-185.148"/>
</g>
<!-- Node3&#45;&gt;Node1 -->
<g id="edge4" class="edge"><title>Node3&#45;&gt;Node1</title>
<path fill="none" stroke="midnightblue" d="M222,-184.613C222,-175.964 222,-166.637 222,-157.241"/>
<polygon fill="none" stroke="midnightblue" points="218.5,-184.786 222,-194.786 225.5,-184.786 218.5,-184.786"/>
</g>
<!-- Node3&#45;&gt;Node1 -->
<g id="edge6" class="edge"><title>Node3&#45;&gt;Node1</title>
<path fill="none" stroke="midnightblue" d="M234.416,-184.613C235.064,-175.964 235.422,-166.637 235.488,-157.241"/>
<polygon fill="none" stroke="midnightblue" points="230.911,-184.508 233.481,-194.786 237.882,-185.148 230.911,-184.508"/>
</g>
<!-- Node4 -->
<g id="node4" class="node"><title>Node4</title>
<polygon fill="white" stroke="#bfbfbf" points="307.5,-200.5 307.5,-257.5 358.5,-257.5 358.5,-200.5 307.5,-200.5"/>
<text text-anchor="middle" x="333" y="-245.5" font-family="Helvetica,sans-Serif" font-size="10.00">Window</text>
<polyline fill="none" stroke="#bfbfbf" points="307.5,-238.5 358.5,-238.5 "/>
<text text-anchor="middle" x="333" y="-226.5" font-family="Helvetica,sans-Serif" font-size="10.00"> </text>
<polyline fill="none" stroke="#bfbfbf" points="307.5,-219.5 358.5,-219.5 "/>
<text text-anchor="middle" x="333" y="-207.5" font-family="Helvetica,sans-Serif" font-size="10.00"> </text>
</g>
<!-- Node4&#45;&gt;Node1 -->
<g id="edge7" class="edge"><title>Node4&#45;&gt;Node1</title>
<path fill="none" stroke="midnightblue" d="M305.971,-191.962C297.99,-181.32 288.932,-169.243 279.791,-157.055"/>
<polygon fill="none" stroke="midnightblue" points="303.322,-194.262 312.122,-200.162 308.922,-190.062 303.322,-194.262"/>
</g>
<!-- Node5 -->
<g id="node5" class="node"><title>Node5</title>
<polygon fill="white" stroke="#bfbfbf" points="377,-200.5 377,-257.5 439,-257.5 439,-200.5 377,-200.5"/>
<text text-anchor="middle" x="408" y="-245.5" font-family="Helvetica,sans-Serif" font-size="10.00">IUpdatable</text>
<polyline fill="none" stroke="#bfbfbf" points="377,-238.5 439,-238.5 "/>
<text text-anchor="middle" x="408" y="-226.5" font-family="Helvetica,sans-Serif" font-size="10.00"> </text>
<polyline fill="none" stroke="#bfbfbf" points="377,-219.5 439,-219.5 "/>
<text text-anchor="middle" x="408" y="-207.5" font-family="Helvetica,sans-Serif" font-size="10.00"> </text>
</g>
<!-- Node5&#45;&gt;Node1 -->
<g id="edge8" class="edge"><title>Node5&#45;&gt;Node1</title>
<path fill="none" stroke="midnightblue" d="M368.793,-195.45C368.191,-194.963 367.594,-194.479 367,-194 340.716,-172.776 311.47,-149.684 286.167,-129.868"/>
<polygon fill="none" stroke="midnightblue" points="366.769,-198.317 376.73,-201.927 371.195,-192.893 366.769,-198.317"/>
</g>
</g>
</svg>
