<?xml version="1.0" encoding="UTF-8" standalone="no"?>
<!DOCTYPE svg PUBLIC "-//W3C//DTD SVG 1.1//EN"
 "http://www.w3.org/Graphics/SVG/1.1/DTD/svg11.dtd">
<!-- Generated by graphviz version 2.34.0 (20130907.0111)
 -->
<!-- Title: FBClient.Screens.BaseMenuScreen Pages: 1 -->
<svg width="760pt" height="577pt"
 viewBox="0.00 0.00 760.00 577.00" xmlns="http://www.w3.org/2000/svg" xmlns:xlink="http://www.w3.org/1999/xlink">
<g id="graph0" class="graph" transform="scale(1 1) rotate(0) translate(4 573)">
<title>FBClient.Screens.BaseMenuScreen</title>
<polygon fill="white" stroke="white" points="-4,4 -4,-573 756,-573 756,4 -4,4"/>
<!-- Node1 -->
<g id="node1" class="node"><title>Node1</title>
<polygon fill="#bfbfbf" stroke="black" points="396.5,-269 396.5,-299 539.5,-299 539.5,-269 396.5,-269"/>
<text text-anchor="start" x="404.5" y="-287" font-family="Helvetica,sans-Serif" font-size="10.00">FBClient.Screens.BaseMenu</text>
<text text-anchor="middle" x="468" y="-276" font-family="Helvetica,sans-Serif" font-size="10.00">Screen</text>
</g>
<!-- Node5 -->
<g id="node5" class="node"><title>Node5</title>
<g id="a_node5"><a xlink:href="class_f_b_client_1_1_screens_1_1_menu_screens_1_1_battle_menu_screen.html" target="_top" xlink:title="FBClient.Screens.MenuScreens.\lBattleMenuScreen">
<polygon fill="white" stroke="black" points="584.5,-539 584.5,-569 743.5,-569 743.5,-539 584.5,-539"/>
<text text-anchor="start" x="592.5" y="-557" font-family="Helvetica,sans-Serif" font-size="10.00">FBClient.Screens.MenuScreens.</text>
<text text-anchor="middle" x="664" y="-546" font-family="Helvetica,sans-Serif" font-size="10.00">BattleMenuScreen</text>
</a>
</g>
</g>
<!-- Node1&#45;&gt;Node5 -->
<g id="edge4" class="edge"><title>Node1&#45;&gt;Node5</title>
<path fill="none" stroke="midnightblue" d="M472.773,-309.163C481.551,-358.751 508.021,-469.448 576,-529 580.374,-532.832 585.301,-536.078 590.529,-538.828"/>
<polygon fill="midnightblue" stroke="midnightblue" points="476.221,-308.563 471.117,-299.278 469.318,-309.719 476.221,-308.563"/>
</g>
<!-- Node6 -->
<g id="node6" class="node"><title>Node6</title>
<g id="a_node6"><a xlink:href="class_f_b_client_1_1_screens_1_1_menu_screens_1_1_create_server_menu_screen.html" target="_top" xlink:title="FBClient.Screens.MenuScreens.\lCreateServerMenuScreen">
<polygon fill="white" stroke="black" points="584.5,-490 584.5,-520 743.5,-520 743.5,-490 584.5,-490"/>
<text text-anchor="start" x="592.5" y="-508" font-family="Helvetica,sans-Serif" font-size="10.00">FBClient.Screens.MenuScreens.</text>
<text text-anchor="middle" x="664" y="-497" font-family="Helvetica,sans-Serif" font-size="10.00">CreateServerMenuScreen</text>
</a>
</g>
</g>
<!-- Node1&#45;&gt;Node6 -->
<g id="edge5" class="edge"><title>Node1&#45;&gt;Node6</title>
<path fill="none" stroke="midnightblue" d="M475.678,-308.76C488.208,-350.444 519.24,-434.526 576,-480 580.783,-483.832 586.128,-487.077 591.753,-489.824"/>
<polygon fill="midnightblue" stroke="midnightblue" points="479.031,-307.756 472.886,-299.125 472.307,-309.704 479.031,-307.756"/>
</g>
<!-- Node7 -->
<g id="node7" class="node"><title>Node7</title>
<g id="a_node7"><a xlink:href="class_f_b_client_1_1_screens_1_1_menu_screens_1_1_join_server_menu_screen.html" target="_top" xlink:title="FBClient.Screens.MenuScreens.\lJoinServerMenuScreen">
<polygon fill="white" stroke="black" points="584.5,-441 584.5,-471 743.5,-471 743.5,-441 584.5,-441"/>
<text text-anchor="start" x="592.5" y="-459" font-family="Helvetica,sans-Serif" font-size="10.00">FBClient.Screens.MenuScreens.</text>
<text text-anchor="middle" x="664" y="-448" font-family="Helvetica,sans-Serif" font-size="10.00">JoinServerMenuScreen</text>
</a>
</g>
</g>
<!-- Node1&#45;&gt;Node7 -->
<g id="edge6" class="edge"><title>Node1&#45;&gt;Node7</title>
<path fill="none" stroke="midnightblue" d="M480.282,-308.36C496.706,-341.138 530.301,-399.012 576,-431 581.536,-434.875 587.667,-438.154 594.037,-440.927"/>
<polygon fill="midnightblue" stroke="midnightblue" points="483.27,-306.503 475.741,-299.049 476.979,-309.571 483.27,-306.503"/>
</g>
<!-- Node8 -->
<g id="node8" class="node"><title>Node8</title>
<g id="a_node8"><a xlink:href="class_f_b_client_1_1_screens_1_1_menu_screens_1_1_keys_menu_screen.html" target="_top" xlink:title="FBClient.Screens.MenuScreens.\lKeysMenuScreen">
<polygon fill="white" stroke="black" points="584.5,-392 584.5,-422 743.5,-422 743.5,-392 584.5,-392"/>
<text text-anchor="start" x="592.5" y="-410" font-family="Helvetica,sans-Serif" font-size="10.00">FBClient.Screens.MenuScreens.</text>
<text text-anchor="middle" x="664" y="-399" font-family="Helvetica,sans-Serif" font-size="10.00">KeysMenuScreen</text>
</a>
</g>
</g>
<!-- Node1&#45;&gt;Node8 -->
<g id="edge7" class="edge"><title>Node1&#45;&gt;Node8</title>
<path fill="none" stroke="midnightblue" d="M488.237,-306.939C508.07,-329.185 540.965,-362.372 576,-382 582.855,-385.841 590.351,-389.135 597.977,-391.949"/>
<polygon fill="midnightblue" stroke="midnightblue" points="490.759,-304.506 481.541,-299.283 485.49,-309.114 490.759,-304.506"/>
</g>
<!-- Node9 -->
<g id="node9" class="node"><title>Node9</title>
<g id="a_node9"><a xlink:href="class_f_b_client_1_1_screens_1_1_menu_screens_1_1_multiplayer_game_mode_menu_screen.html" target="_top" xlink:title="FBClient.Screens.MenuScreens.\lMultiplayerGameModeMenuScreen">
<polygon fill="white" stroke="black" points="579.5,-343 579.5,-373 748.5,-373 748.5,-343 579.5,-343"/>
<text text-anchor="start" x="587.5" y="-361" font-family="Helvetica,sans-Serif" font-size="10.00">FBClient.Screens.MenuScreens.</text>
<text text-anchor="middle" x="664" y="-350" font-family="Helvetica,sans-Serif" font-size="10.00">MultiplayerGameModeMenuScreen</text>
</a>
</g>
</g>
<!-- Node1&#45;&gt;Node9 -->
<g id="edge8" class="edge"><title>Node1&#45;&gt;Node9</title>
<path fill="none" stroke="midnightblue" d="M508.044,-303.586C528.062,-313.188 553.008,-324.487 576,-333 585.579,-336.547 595.903,-339.905 605.975,-342.94"/>
<polygon fill="midnightblue" stroke="midnightblue" points="509.457,-300.382 498.932,-299.17 506.404,-306.681 509.457,-300.382"/>
</g>
<!-- Node10 -->
<g id="node10" class="node"><title>Node10</title>
<g id="a_node10"><a xlink:href="class_f_b_client_1_1_screens_1_1_menu_screens_1_1_network_menu_screen.html" target="_top" xlink:title="FBClient.Screens.MenuScreens.\lNetworkMenuScreen">
<polygon fill="white" stroke="black" points="584.5,-294 584.5,-324 743.5,-324 743.5,-294 584.5,-294"/>
<text text-anchor="start" x="592.5" y="-312" font-family="Helvetica,sans-Serif" font-size="10.00">FBClient.Screens.MenuScreens.</text>
<text text-anchor="middle" x="664" y="-301" font-family="Helvetica,sans-Serif" font-size="10.00">NetworkMenuScreen</text>
</a>
</g>
</g>
<!-- Node1&#45;&gt;Node10 -->
<g id="edge9" class="edge"><title>Node1&#45;&gt;Node10</title>
<path fill="none" stroke="midnightblue" d="M549.569,-294.383C561.04,-295.861 572.826,-297.38 584.261,-298.853"/>
<polygon fill="midnightblue" stroke="midnightblue" points="549.953,-290.903 539.587,-293.096 549.058,-297.846 549.953,-290.903"/>
</g>
<!-- Node11 -->
<g id="node11" class="node"><title>Node11</title>
<g id="a_node11"><a xlink:href="class_f_b_client_1_1_screens_1_1_menu_screens_1_1_online_game_menu_screen.html" target="_top" xlink:title="FBClient.Screens.MenuScreens.\lOnlineGameMenuScreen">
<polygon fill="white" stroke="black" points="584.5,-245 584.5,-275 743.5,-275 743.5,-245 584.5,-245"/>
<text text-anchor="start" x="592.5" y="-263" font-family="Helvetica,sans-Serif" font-size="10.00">FBClient.Screens.MenuScreens.</text>
<text text-anchor="middle" x="664" y="-252" font-family="Helvetica,sans-Serif" font-size="10.00">OnlineGameMenuScreen</text>
</a>
</g>
</g>
<!-- Node1&#45;&gt;Node11 -->
<g id="edge10" class="edge"><title>Node1&#45;&gt;Node11</title>
<path fill="none" stroke="midnightblue" d="M549.569,-274.033C561.04,-272.614 572.826,-271.156 584.261,-269.741"/>
<polygon fill="midnightblue" stroke="midnightblue" points="549.082,-270.566 539.587,-275.268 549.941,-277.513 549.082,-270.566"/>
</g>
<!-- Node12 -->
<g id="node12" class="node"><title>Node12</title>
<g id="a_node12"><a xlink:href="class_f_b_client_1_1_screens_1_1_menu_screens_1_1_option_menu_screen.html" target="_top" xlink:title="FBClient.Screens.MenuScreens.\lOptionMenuScreen">
<polygon fill="white" stroke="black" points="584.5,-196 584.5,-226 743.5,-226 743.5,-196 584.5,-196"/>
<text text-anchor="start" x="592.5" y="-214" font-family="Helvetica,sans-Serif" font-size="10.00">FBClient.Screens.MenuScreens.</text>
<text text-anchor="middle" x="664" y="-203" font-family="Helvetica,sans-Serif" font-size="10.00">OptionMenuScreen</text>
</a>
</g>
</g>
<!-- Node1&#45;&gt;Node12 -->
<g id="edge11" class="edge"><title>Node1&#45;&gt;Node12</title>
<path fill="none" stroke="midnightblue" d="M507.575,-264.517C527.655,-254.844 552.798,-243.451 576,-235 584.833,-231.783 594.305,-228.755 603.631,-226.005"/>
<polygon fill="midnightblue" stroke="midnightblue" points="505.901,-261.44 498.443,-268.965 508.966,-267.733 505.901,-261.44"/>
</g>
<!-- Node13 -->
<g id="node13" class="node"><title>Node13</title>
<g id="a_node13"><a xlink:href="class_f_b_client_1_1_screens_1_1_menu_screens_1_1_single_player_game_mode_menu_screen.html" target="_top" xlink:title="FBClient.Screens.MenuScreens.\lSinglePlayerGameModeMenuScreen">
<polygon fill="white" stroke="black" points="576,-147 576,-177 752,-177 752,-147 576,-147"/>
<text text-anchor="start" x="584" y="-165" font-family="Helvetica,sans-Serif" font-size="10.00">FBClient.Screens.MenuScreens.</text>
<text text-anchor="middle" x="664" y="-154" font-family="Helvetica,sans-Serif" font-size="10.00">SinglePlayerGameModeMenuScreen</text>
</a>
</g>
</g>
<!-- Node1&#45;&gt;Node13 -->
<g id="edge12" class="edge"><title>Node1&#45;&gt;Node13</title>
<path fill="none" stroke="midnightblue" d="M488.192,-260.981C507.991,-238.674 540.861,-205.441 576,-186 582.169,-182.587 588.858,-179.632 595.693,-177.08"/>
<polygon fill="midnightblue" stroke="midnightblue" points="485.434,-258.819 481.509,-268.66 490.714,-263.415 485.434,-258.819"/>
</g>
<!-- Node14 -->
<g id="node14" class="node"><title>Node14</title>
<g id="a_node14"><a xlink:href="class_f_b_client_1_1_screens_1_1_menu_screens_1_1_sudden_death_menu_screen.html" target="_top" xlink:title="FBClient.Screens.MenuScreens.\lSuddenDeathMenuScreen">
<polygon fill="white" stroke="black" points="584.5,-98 584.5,-128 743.5,-128 743.5,-98 584.5,-98"/>
<text text-anchor="start" x="592.5" y="-116" font-family="Helvetica,sans-Serif" font-size="10.00">FBClient.Screens.MenuScreens.</text>
<text text-anchor="middle" x="664" y="-105" font-family="Helvetica,sans-Serif" font-size="10.00">SuddenDeathMenuScreen</text>
</a>
</g>
</g>
<!-- Node1&#45;&gt;Node14 -->
<g id="edge13" class="edge"><title>Node1&#45;&gt;Node14</title>
<path fill="none" stroke="midnightblue" d="M480.233,-259.57C496.601,-226.711 530.131,-168.745 576,-137 581.025,-133.523 586.538,-130.548 592.273,-128.003"/>
<polygon fill="midnightblue" stroke="midnightblue" points="476.92,-258.38 475.709,-268.905 483.22,-261.432 476.92,-258.38"/>
</g>
<!-- Node15 -->
<g id="node15" class="node"><title>Node15</title>
<g id="a_node15"><a xlink:href="class_f_b_client_1_1_screens_1_1_menu_screens_1_1_title_screen.html" target="_top" xlink:title="FBClient.Screens.MenuScreens.\lTitleScreen">
<polygon fill="white" stroke="black" points="584.5,-49 584.5,-79 743.5,-79 743.5,-49 584.5,-49"/>
<text text-anchor="start" x="592.5" y="-67" font-family="Helvetica,sans-Serif" font-size="10.00">FBClient.Screens.MenuScreens.</text>
<text text-anchor="middle" x="664" y="-56" font-family="Helvetica,sans-Serif" font-size="10.00">TitleScreen</text>
</a>
</g>
</g>
<!-- Node1&#45;&gt;Node15 -->
<g id="edge14" class="edge"><title>Node1&#45;&gt;Node15</title>
<path fill="none" stroke="midnightblue" d="M475.626,-259.176C488.079,-217.395 518.999,-133.172 576,-88 580.298,-84.594 585.047,-81.6707 590.043,-79.1618"/>
<polygon fill="midnightblue" stroke="midnightblue" points="472.249,-258.256 472.853,-268.834 478.977,-260.188 472.249,-258.256"/>
</g>
<!-- Node16 -->
<g id="node16" class="node"><title>Node16</title>
<g id="a_node16"><a xlink:href="class_f_b_client_1_1_screens_1_1_menu_screens_1_1_user_menu_screen.html" target="_top" xlink:title="FBClient.Screens.MenuScreens.\lUserMenuScreen">
<polygon fill="white" stroke="black" points="584.5,-0 584.5,-30 743.5,-30 743.5,-0 584.5,-0"/>
<text text-anchor="start" x="592.5" y="-18" font-family="Helvetica,sans-Serif" font-size="10.00">FBClient.Screens.MenuScreens.</text>
<text text-anchor="middle" x="664" y="-7" font-family="Helvetica,sans-Serif" font-size="10.00">UserMenuScreen</text>
</a>
</g>
</g>
<!-- Node1&#45;&gt;Node16 -->
<g id="edge15" class="edge"><title>Node1&#45;&gt;Node16</title>
<path fill="none" stroke="midnightblue" d="M472.711,-258.818C481.384,-209.139 507.685,-98.2068 576,-39 579.907,-35.6136 584.253,-32.7015 588.859,-30.1976"/>
<polygon fill="midnightblue" stroke="midnightblue" points="469.208,-258.554 471.035,-268.99 476.114,-259.692 469.208,-258.554"/>
</g>
<!-- Node2 -->
<g id="node2" class="node"><title>Node2</title>
<g id="a_node2"><a xlink:href="class_f_b_client_1_1_screens_1_1_base_game_state.html" target="_top" xlink:title="BaseGameState">
<polygon fill="white" stroke="black" points="270.5,-274.5 270.5,-293.5 359.5,-293.5 359.5,-274.5 270.5,-274.5"/>
<text text-anchor="middle" x="315" y="-281.5" font-family="Helvetica,sans-Serif" font-size="10.00">BaseGameState</text>
</a>
</g>
</g>
<!-- Node2&#45;&gt;Node1 -->
<g id="edge1" class="edge"><title>Node2&#45;&gt;Node1</title>
<path fill="none" stroke="midnightblue" d="M369.915,-284C378.502,-284 387.495,-284 396.398,-284"/>
<polygon fill="midnightblue" stroke="midnightblue" points="369.675,-280.5 359.675,-284 369.675,-287.5 369.675,-280.5"/>
</g>
<!-- Node3 -->
<g id="node3" class="node"><title>Node3</title>
<g id="a_node3"><a xlink:href="class_f_b_client_1_1_controls_1_1_game_state.html" target="_top" xlink:title="GameState">
<polygon fill="white" stroke="black" points="168,-274.5 168,-293.5 234,-293.5 234,-274.5 168,-274.5"/>
<text text-anchor="middle" x="201" y="-281.5" font-family="Helvetica,sans-Serif" font-size="10.00">GameState</text>
</a>
</g>
</g>
<!-- Node3&#45;&gt;Node2 -->
<g id="edge2" class="edge"><title>Node3&#45;&gt;Node2</title>
<path fill="none" stroke="midnightblue" d="M244.188,-284C252.694,-284 261.654,-284 270.213,-284"/>
<polygon fill="midnightblue" stroke="midnightblue" points="244.095,-280.5 234.095,-284 244.095,-287.5 244.095,-280.5"/>
</g>
<!-- Node4 -->
<g id="node4" class="node"><title>Node4</title>
<polygon fill="white" stroke="#bfbfbf" points="0,-274.5 0,-293.5 132,-293.5 132,-274.5 0,-274.5"/>
<text text-anchor="middle" x="66" y="-281.5" font-family="Helvetica,sans-Serif" font-size="10.00">DrawableGameComponent</text>
</g>
<!-- Node4&#45;&gt;Node3 -->
<g id="edge3" class="edge"><title>Node4&#45;&gt;Node3</title>
<path fill="none" stroke="midnightblue" d="M142.439,-284C151.342,-284 160.026,-284 167.839,-284"/>
<polygon fill="midnightblue" stroke="midnightblue" points="142.331,-280.5 132.331,-284 142.331,-287.5 142.331,-280.5"/>
</g>
</g>
</svg>
