<?xml version="1.0" encoding="UTF-8" standalone="no"?>
<!DOCTYPE svg PUBLIC "-//W3C//DTD SVG 1.1//EN"
 "http://www.w3.org/Graphics/SVG/1.1/DTD/svg11.dtd">
<!-- Generated by graphviz version 2.34.0 (20130907.0111)
 -->
<!-- Title: FBServer.Host.GameServer Pages: 1 -->
<svg width="180pt" height="512pt"
 viewBox="0.00 0.00 180.00 512.00" xmlns="http://www.w3.org/2000/svg" xmlns:xlink="http://www.w3.org/1999/xlink">
<g id="graph0" class="graph" transform="scale(1 1) rotate(0) translate(4 508)">
<title>FBServer.Host.GameServer</title>
<polygon fill="white" stroke="white" points="-4,4 -4,-508 176,-508 176,4 -4,4"/>
<!-- Node1 -->
<g id="node1" class="node"><title>Node1</title>
<polygon fill="#bfbfbf" stroke="black" points="-0.5,-1 -0.5,-201 172.5,-201 172.5,-1 -0.5,-1"/>
<text text-anchor="middle" x="86" y="-189" font-family="Helvetica,sans-Serif" font-size="10.00">FBServer.Host.GameServer</text>
<polyline fill="none" stroke="black" points="-0.5,-182 172.5,-182 "/>
<text text-anchor="start" x="7.5" y="-170" font-family="Helvetica,sans-Serif" font-size="10.00">+ HostStarted</text>
<polyline fill="none" stroke="black" points="-0.5,-163 172.5,-163 "/>
<text text-anchor="start" x="7.5" y="-151" font-family="Helvetica,sans-Serif" font-size="10.00">+ DisconnectedClientEventHandler()</text>
<text text-anchor="start" x="7.5" y="-140" font-family="Helvetica,sans-Serif" font-size="10.00">+ ConnectedClientEventHandler()</text>
<text text-anchor="start" x="7.5" y="-129" font-family="Helvetica,sans-Serif" font-size="10.00">+ StartServer()</text>
<text text-anchor="start" x="7.5" y="-118" font-family="Helvetica,sans-Serif" font-size="10.00">+ RunServer()</text>
<text text-anchor="start" x="7.5" y="-107" font-family="Helvetica,sans-Serif" font-size="10.00">+ EndServer()</text>
<text text-anchor="start" x="7.5" y="-96" font-family="Helvetica,sans-Serif" font-size="10.00">+ WriteOutput()</text>
<text text-anchor="start" x="7.5" y="-85" font-family="Helvetica,sans-Serif" font-size="10.00">+ BombPlacingEventHandler()</text>
<text text-anchor="start" x="7.5" y="-74" font-family="Helvetica,sans-Serif" font-size="10.00">+ SendGameInfo()</text>
<text text-anchor="start" x="7.5" y="-63" font-family="Helvetica,sans-Serif" font-size="10.00">+ SendCurrentMap()</text>
<text text-anchor="start" x="7.5" y="-52" font-family="Helvetica,sans-Serif" font-size="10.00">+ SendStartGame()</text>
<text text-anchor="start" x="7.5" y="-41" font-family="Helvetica,sans-Serif" font-size="10.00">and 13 more...</text>
<text text-anchor="start" x="7.5" y="-30" font-family="Helvetica,sans-Serif" font-size="10.00"># OnDisconnectedClient()</text>
<text text-anchor="start" x="7.5" y="-19" font-family="Helvetica,sans-Serif" font-size="10.00"># OnConnectedClient()</text>
<text text-anchor="start" x="7.5" y="-8" font-family="Helvetica,sans-Serif" font-size="10.00"># OnBombPlacing()</text>
</g>
<!-- Node2 -->
<g id="node2" class="node"><title>Node2</title>
<g id="a_node2"><a xlink:href="class_f_b_server_1_1_host_1_1_client_collection.html" target="_top" xlink:title="{FBServer.Host.ClientCollection\n|+ MapName\l+ Hosting\l|+ AddClient()\l+ RemoveClient()\l+ IsClientsReady()\l+ GetClientFromConnection()\l+ GetClientFromPlayer()\l+ GetClientFromUsername()\l+ GetPlayerFromId()\l+ GetAlivePlayers()\l+ GetPlayers()\l}">
<polygon fill="white" stroke="black" points="11,-251 11,-407 161,-407 161,-251 11,-251"/>
<text text-anchor="middle" x="86" y="-395" font-family="Helvetica,sans-Serif" font-size="10.00">FBServer.Host.ClientCollection</text>
<polyline fill="none" stroke="black" points="11,-388 161,-388 "/>
<text text-anchor="start" x="19" y="-376" font-family="Helvetica,sans-Serif" font-size="10.00">+ MapName</text>
<text text-anchor="start" x="19" y="-365" font-family="Helvetica,sans-Serif" font-size="10.00">+ Hosting</text>
<polyline fill="none" stroke="black" points="11,-358 161,-358 "/>
<text text-anchor="start" x="19" y="-346" font-family="Helvetica,sans-Serif" font-size="10.00">+ AddClient()</text>
<text text-anchor="start" x="19" y="-335" font-family="Helvetica,sans-Serif" font-size="10.00">+ RemoveClient()</text>
<text text-anchor="start" x="19" y="-324" font-family="Helvetica,sans-Serif" font-size="10.00">+ IsClientsReady()</text>
<text text-anchor="start" x="19" y="-313" font-family="Helvetica,sans-Serif" font-size="10.00">+ GetClientFromConnection()</text>
<text text-anchor="start" x="19" y="-302" font-family="Helvetica,sans-Serif" font-size="10.00">+ GetClientFromPlayer()</text>
<text text-anchor="start" x="19" y="-291" font-family="Helvetica,sans-Serif" font-size="10.00">+ GetClientFromUsername()</text>
<text text-anchor="start" x="19" y="-280" font-family="Helvetica,sans-Serif" font-size="10.00">+ GetPlayerFromId()</text>
<text text-anchor="start" x="19" y="-269" font-family="Helvetica,sans-Serif" font-size="10.00">+ GetAlivePlayers()</text>
<text text-anchor="start" x="19" y="-258" font-family="Helvetica,sans-Serif" font-size="10.00">+ GetPlayers()</text>
</a>
</g>
</g>
<!-- Node2&#45;&gt;Node1 -->
<g id="edge1" class="edge"><title>Node2&#45;&gt;Node1</title>
<path fill="none" stroke="#404040" d="M86,-250.856C86,-238.743 86,-226.017 86,-213.319"/>
<polygon fill="none" stroke="#404040" points="86.0001,-213.174 82,-207.174 86,-201.174 90,-207.174 86.0001,-213.174"/>
<text text-anchor="middle" x="106" y="-223.5" font-family="Helvetica,sans-Serif" font-size="10.00"> +Clients</text>
</g>
<!-- Node3 -->
<g id="node3" class="node"><title>Node3</title>
<polygon fill="white" stroke="#bfbfbf" points="48.5,-446.5 48.5,-503.5 123.5,-503.5 123.5,-446.5 48.5,-446.5"/>
<text text-anchor="middle" x="86" y="-491.5" font-family="Helvetica,sans-Serif" font-size="10.00">List&lt; Client &gt;</text>
<polyline fill="none" stroke="#bfbfbf" points="48.5,-484.5 123.5,-484.5 "/>
<text text-anchor="middle" x="86" y="-472.5" font-family="Helvetica,sans-Serif" font-size="10.00"> </text>
<polyline fill="none" stroke="#bfbfbf" points="48.5,-465.5 123.5,-465.5 "/>
<text text-anchor="middle" x="86" y="-453.5" font-family="Helvetica,sans-Serif" font-size="10.00"> </text>
</g>
<!-- Node3&#45;&gt;Node2 -->
<g id="edge2" class="edge"><title>Node3&#45;&gt;Node2</title>
<path fill="none" stroke="midnightblue" d="M86,-436.129C86,-427.115 86,-417.174 86,-407.098"/>
<polygon fill="none" stroke="midnightblue" points="82.5001,-436.235 86,-446.235 89.5001,-436.235 82.5001,-436.235"/>
</g>
</g>
</svg>
