<?xml version="1.0" encoding="UTF-8" standalone="no"?>
<!DOCTYPE svg PUBLIC "-//W3C//DTD SVG 1.1//EN"
 "http://www.w3.org/Graphics/SVG/1.1/DTD/svg11.dtd">
<!-- Generated by graphviz version 2.34.0 (20130907.0111)
 -->
<!-- Title: FBServer.Core.Entities.PowerUp Pages: 1 -->
<svg width="166pt" height="252pt"
 viewBox="0.00 0.00 166.00 252.00" xmlns="http://www.w3.org/2000/svg" xmlns:xlink="http://www.w3.org/1999/xlink">
<g id="graph0" class="graph" transform="scale(1 1) rotate(0) translate(4 248)">
<title>FBServer.Core.Entities.PowerUp</title>
<polygon fill="white" stroke="white" points="-4,4 -4,-248 162,-248 162,4 -4,4"/>
<!-- Node1 -->
<g id="node1" class="node"><title>Node1</title>
<polygon fill="#bfbfbf" stroke="black" points="0,-0.5 0,-19.5 158,-19.5 158,-0.5 0,-0.5"/>
<text text-anchor="middle" x="79" y="-7.5" font-family="Helvetica,sans-Serif" font-size="10.00">FBServer.Core.Entities.PowerUp</text>
</g>
<!-- Node2 -->
<g id="node2" class="node"><title>Node2</title>
<g id="a_node2"><a xlink:href="class_f_b_library_1_1_core_1_1_base_entities_1_1_base_power_up.html" target="_top" xlink:title="BasePowerUp">
<polygon fill="white" stroke="black" points="40,-56.5 40,-75.5 118,-75.5 118,-56.5 40,-56.5"/>
<text text-anchor="middle" x="79" y="-63.5" font-family="Helvetica,sans-Serif" font-size="10.00">BasePowerUp</text>
</a>
</g>
</g>
<!-- Node2&#45;&gt;Node1 -->
<g id="edge1" class="edge"><title>Node2&#45;&gt;Node1</title>
<path fill="none" stroke="midnightblue" d="M79,-45.8045C79,-36.9102 79,-26.7798 79,-19.7511"/>
<polygon fill="midnightblue" stroke="midnightblue" points="75.5001,-46.083 79,-56.083 82.5001,-46.083 75.5001,-46.083"/>
</g>
<!-- Node3 -->
<g id="node3" class="node"><title>Node3</title>
<g id="a_node3"><a xlink:href="class_f_b_library_1_1_core_1_1_static_entity.html" target="_top" xlink:title="StaticEntity">
<polygon fill="white" stroke="black" points="45,-112.5 45,-131.5 113,-131.5 113,-112.5 45,-112.5"/>
<text text-anchor="middle" x="79" y="-119.5" font-family="Helvetica,sans-Serif" font-size="10.00">StaticEntity</text>
</a>
</g>
</g>
<!-- Node3&#45;&gt;Node2 -->
<g id="edge2" class="edge"><title>Node3&#45;&gt;Node2</title>
<path fill="none" stroke="midnightblue" d="M79,-101.805C79,-92.9102 79,-82.7798 79,-75.7511"/>
<polygon fill="midnightblue" stroke="midnightblue" points="75.5001,-102.083 79,-112.083 82.5001,-102.083 75.5001,-102.083"/>
</g>
<!-- Node4 -->
<g id="node4" class="node"><title>Node4</title>
<g id="a_node4"><a xlink:href="class_f_b_library_1_1_core_1_1_base_entity.html" target="_top" xlink:title="BaseEntity">
<polygon fill="white" stroke="black" points="46.5,-168.5 46.5,-187.5 111.5,-187.5 111.5,-168.5 46.5,-168.5"/>
<text text-anchor="middle" x="79" y="-175.5" font-family="Helvetica,sans-Serif" font-size="10.00">BaseEntity</text>
</a>
</g>
</g>
<!-- Node4&#45;&gt;Node3 -->
<g id="edge3" class="edge"><title>Node4&#45;&gt;Node3</title>
<path fill="none" stroke="midnightblue" d="M79,-157.805C79,-148.91 79,-138.78 79,-131.751"/>
<polygon fill="midnightblue" stroke="midnightblue" points="75.5001,-158.083 79,-168.083 82.5001,-158.083 75.5001,-158.083"/>
</g>
<!-- Node5 -->
<g id="node5" class="node"><title>Node5</title>
<g id="a_node5"><a xlink:href="interface_f_b_library_1_1_core_1_1_i_entity.html" target="_top" xlink:title="IEntity">
<polygon fill="white" stroke="black" points="57,-224.5 57,-243.5 101,-243.5 101,-224.5 57,-224.5"/>
<text text-anchor="middle" x="79" y="-231.5" font-family="Helvetica,sans-Serif" font-size="10.00">IEntity</text>
</a>
</g>
</g>
<!-- Node5&#45;&gt;Node4 -->
<g id="edge4" class="edge"><title>Node5&#45;&gt;Node4</title>
<path fill="none" stroke="midnightblue" d="M79,-213.805C79,-204.91 79,-194.78 79,-187.751"/>
<polygon fill="midnightblue" stroke="midnightblue" points="75.5001,-214.083 79,-224.083 82.5001,-214.083 75.5001,-214.083"/>
</g>
</g>
</svg>
