<?xml version="1.0" encoding="UTF-8" standalone="no"?>
<!DOCTYPE svg PUBLIC "-//W3C//DTD SVG 1.1//EN"
 "http://www.w3.org/Graphics/SVG/1.1/DTD/svg11.dtd">
<!-- Generated by graphviz version 2.34.0 (20130907.0111)
 -->
<!-- Title: FBClient.Screens.GameScreens.SinglePlayerGamePlayScreen Pages: 1 -->
<svg width="170pt" height="796pt"
 viewBox="0.00 0.00 170.00 796.00" xmlns="http://www.w3.org/2000/svg" xmlns:xlink="http://www.w3.org/1999/xlink">
<g id="graph0" class="graph" transform="scale(1 1) rotate(0) translate(4 792)">
<title>FBClient.Screens.GameScreens.SinglePlayerGamePlayScreen</title>
<polygon fill="white" stroke="white" points="-4,4 -4,-792 166,-792 166,4 -4,4"/>
<!-- Node1 -->
<g id="node1" class="node"><title>Node1</title>
<polygon fill="#bfbfbf" stroke="black" points="-0.5,-0.5 -0.5,-123.5 162.5,-123.5 162.5,-0.5 -0.5,-0.5"/>
<text text-anchor="start" x="7.5" y="-111.5" font-family="Helvetica,sans-Serif" font-size="10.00">FBClient.Screens.GameScreens.</text>
<text text-anchor="middle" x="81" y="-100.5" font-family="Helvetica,sans-Serif" font-size="10.00">SinglePlayerGamePlayScreen</text>
<polyline fill="none" stroke="black" points="-0.5,-93.5 162.5,-93.5 "/>
<text text-anchor="middle" x="81" y="-81.5" font-family="Helvetica,sans-Serif" font-size="10.00"> </text>
<polyline fill="none" stroke="black" points="-0.5,-74.5 162.5,-74.5 "/>
<text text-anchor="start" x="7.5" y="-62.5" font-family="Helvetica,sans-Serif" font-size="10.00">+ SinglePlayerGamePlayScreen()</text>
<text text-anchor="start" x="7.5" y="-51.5" font-family="Helvetica,sans-Serif" font-size="10.00">+ Initialize()</text>
<text text-anchor="start" x="7.5" y="-40.5" font-family="Helvetica,sans-Serif" font-size="10.00">+ Update()</text>
<text text-anchor="start" x="7.5" y="-29.5" font-family="Helvetica,sans-Serif" font-size="10.00">+ Draw()</text>
<text text-anchor="start" x="7.5" y="-18.5" font-family="Helvetica,sans-Serif" font-size="10.00"># LoadContent()</text>
<text text-anchor="start" x="7.5" y="-7.5" font-family="Helvetica,sans-Serif" font-size="10.00"># UnloadContent()</text>
</g>
<!-- Node2 -->
<g id="node2" class="node"><title>Node2</title>
<g id="a_node2"><a xlink:href="class_f_b_client_1_1_screens_1_1_game_screens_1_1_base_game_play_screen.html" target="_top" xlink:title="{BaseGamePlayScreen\n|+ GameManager\l# ItemInfoIcon\l# Cross\l# GameFont\l# SmallFont\l# HudOrigin\l# HudTopSpace\l# HudMarginLeft\l# BadItemTimerBar\l# WindowSkin\l# ScoresWindowBox\l# TimerWindowBox\l# Camera\l|# BaseGamePlayScreen()\l# LoadContent()\l}">
<polygon fill="white" stroke="black" points="16,-161 16,-361 146,-361 146,-161 16,-161"/>
<text text-anchor="middle" x="81" y="-349" font-family="Helvetica,sans-Serif" font-size="10.00">BaseGamePlayScreen</text>
<polyline fill="none" stroke="black" points="16,-342 146,-342 "/>
<text text-anchor="start" x="24" y="-330" font-family="Helvetica,sans-Serif" font-size="10.00">+ GameManager</text>
<text text-anchor="start" x="24" y="-319" font-family="Helvetica,sans-Serif" font-size="10.00"># ItemInfoIcon</text>
<text text-anchor="start" x="24" y="-308" font-family="Helvetica,sans-Serif" font-size="10.00"># Cross</text>
<text text-anchor="start" x="24" y="-297" font-family="Helvetica,sans-Serif" font-size="10.00"># GameFont</text>
<text text-anchor="start" x="24" y="-286" font-family="Helvetica,sans-Serif" font-size="10.00"># SmallFont</text>
<text text-anchor="start" x="24" y="-275" font-family="Helvetica,sans-Serif" font-size="10.00"># HudOrigin</text>
<text text-anchor="start" x="24" y="-264" font-family="Helvetica,sans-Serif" font-size="10.00"># HudTopSpace</text>
<text text-anchor="start" x="24" y="-253" font-family="Helvetica,sans-Serif" font-size="10.00"># HudMarginLeft</text>
<text text-anchor="start" x="24" y="-242" font-family="Helvetica,sans-Serif" font-size="10.00"># BadItemTimerBar</text>
<text text-anchor="start" x="24" y="-231" font-family="Helvetica,sans-Serif" font-size="10.00"># WindowSkin</text>
<text text-anchor="start" x="24" y="-220" font-family="Helvetica,sans-Serif" font-size="10.00"># ScoresWindowBox</text>
<text text-anchor="start" x="24" y="-209" font-family="Helvetica,sans-Serif" font-size="10.00"># TimerWindowBox</text>
<text text-anchor="start" x="24" y="-198" font-family="Helvetica,sans-Serif" font-size="10.00"># Camera</text>
<polyline fill="none" stroke="black" points="16,-191 146,-191 "/>
<text text-anchor="start" x="24" y="-179" font-family="Helvetica,sans-Serif" font-size="10.00"># BaseGamePlayScreen()</text>
<text text-anchor="start" x="24" y="-168" font-family="Helvetica,sans-Serif" font-size="10.00"># LoadContent()</text>
</a>
</g>
</g>
<!-- Node2&#45;&gt;Node1 -->
<g id="edge1" class="edge"><title>Node2&#45;&gt;Node1</title>
<path fill="none" stroke="midnightblue" d="M81,-150.787C81,-141.478 81,-132.298 81,-123.585"/>
<polygon fill="none" stroke="midnightblue" points="77.5001,-150.923 81,-160.923 84.5001,-150.923 77.5001,-150.923"/>
</g>
<!-- Node3 -->
<g id="node3" class="node"><title>Node3</title>
<g id="a_node3"><a xlink:href="class_f_b_client_1_1_screens_1_1_base_game_state.html" target="_top" xlink:title="{BaseGameState\n|# ControlManager\l# BigFont\l# playerIndexInControl\l|+ BaseGameState()\l+ Update()\l+ Draw()\l# LoadContent()\l}">
<polygon fill="white" stroke="black" points="24.5,-399 24.5,-511 137.5,-511 137.5,-399 24.5,-399"/>
<text text-anchor="middle" x="81" y="-499" font-family="Helvetica,sans-Serif" font-size="10.00">BaseGameState</text>
<polyline fill="none" stroke="black" points="24.5,-492 137.5,-492 "/>
<text text-anchor="start" x="32.5" y="-480" font-family="Helvetica,sans-Serif" font-size="10.00"># ControlManager</text>
<text text-anchor="start" x="32.5" y="-469" font-family="Helvetica,sans-Serif" font-size="10.00"># BigFont</text>
<text text-anchor="start" x="32.5" y="-458" font-family="Helvetica,sans-Serif" font-size="10.00"># playerIndexInControl</text>
<polyline fill="none" stroke="black" points="24.5,-451 137.5,-451 "/>
<text text-anchor="start" x="32.5" y="-439" font-family="Helvetica,sans-Serif" font-size="10.00">+ BaseGameState()</text>
<text text-anchor="start" x="32.5" y="-428" font-family="Helvetica,sans-Serif" font-size="10.00">+ Update()</text>
<text text-anchor="start" x="32.5" y="-417" font-family="Helvetica,sans-Serif" font-size="10.00">+ Draw()</text>
<text text-anchor="start" x="32.5" y="-406" font-family="Helvetica,sans-Serif" font-size="10.00"># LoadContent()</text>
</a>
</g>
</g>
<!-- Node3&#45;&gt;Node2 -->
<g id="edge2" class="edge"><title>Node3&#45;&gt;Node2</title>
<path fill="none" stroke="midnightblue" d="M81,-388.754C81,-379.87 81,-370.594 81,-361.277"/>
<polygon fill="none" stroke="midnightblue" points="77.5001,-388.98 81,-398.981 84.5001,-388.981 77.5001,-388.98"/>
</g>
<!-- Node4 -->
<g id="node4" class="node"><title>Node4</title>
<g id="a_node4"><a xlink:href="class_f_b_client_1_1_controls_1_1_game_state.html" target="_top" xlink:title="{GameState\n|+ Components\l+ Tag\l# StateManager\l|+ Initialize()\l+ Update()\l+ Draw()\l# GameState()\l# StateChange()\l# Show()\l# Hide()\l}">
<polygon fill="white" stroke="black" points="37.5,-548.5 37.5,-693.5 124.5,-693.5 124.5,-548.5 37.5,-548.5"/>
<text text-anchor="middle" x="81" y="-681.5" font-family="Helvetica,sans-Serif" font-size="10.00">GameState</text>
<polyline fill="none" stroke="black" points="37.5,-674.5 124.5,-674.5 "/>
<text text-anchor="start" x="45.5" y="-662.5" font-family="Helvetica,sans-Serif" font-size="10.00">+ Components</text>
<text text-anchor="start" x="45.5" y="-651.5" font-family="Helvetica,sans-Serif" font-size="10.00">+ Tag</text>
<text text-anchor="start" x="45.5" y="-640.5" font-family="Helvetica,sans-Serif" font-size="10.00"># StateManager</text>
<polyline fill="none" stroke="black" points="37.5,-633.5 124.5,-633.5 "/>
<text text-anchor="start" x="45.5" y="-621.5" font-family="Helvetica,sans-Serif" font-size="10.00">+ Initialize()</text>
<text text-anchor="start" x="45.5" y="-610.5" font-family="Helvetica,sans-Serif" font-size="10.00">+ Update()</text>
<text text-anchor="start" x="45.5" y="-599.5" font-family="Helvetica,sans-Serif" font-size="10.00">+ Draw()</text>
<text text-anchor="start" x="45.5" y="-588.5" font-family="Helvetica,sans-Serif" font-size="10.00"># GameState()</text>
<text text-anchor="start" x="45.5" y="-577.5" font-family="Helvetica,sans-Serif" font-size="10.00"># StateChange()</text>
<text text-anchor="start" x="45.5" y="-566.5" font-family="Helvetica,sans-Serif" font-size="10.00"># Show()</text>
<text text-anchor="start" x="45.5" y="-555.5" font-family="Helvetica,sans-Serif" font-size="10.00"># Hide()</text>
</a>
</g>
</g>
<!-- Node4&#45;&gt;Node3 -->
<g id="edge3" class="edge"><title>Node4&#45;&gt;Node3</title>
<path fill="none" stroke="midnightblue" d="M81,-537.855C81,-528.789 81,-519.726 81,-511.109"/>
<polygon fill="none" stroke="midnightblue" points="77.5001,-538.067 81,-548.067 84.5001,-538.067 77.5001,-538.067"/>
</g>
<!-- Node5 -->
<g id="node5" class="node"><title>Node5</title>
<polygon fill="white" stroke="#bfbfbf" points="15,-730.5 15,-787.5 147,-787.5 147,-730.5 15,-730.5"/>
<text text-anchor="middle" x="81" y="-775.5" font-family="Helvetica,sans-Serif" font-size="10.00">DrawableGameComponent</text>
<polyline fill="none" stroke="#bfbfbf" points="15,-768.5 147,-768.5 "/>
<text text-anchor="middle" x="81" y="-756.5" font-family="Helvetica,sans-Serif" font-size="10.00"> </text>
<polyline fill="none" stroke="#bfbfbf" points="15,-749.5 147,-749.5 "/>
<text text-anchor="middle" x="81" y="-737.5" font-family="Helvetica,sans-Serif" font-size="10.00"> </text>
</g>
<!-- Node5&#45;&gt;Node4 -->
<g id="edge4" class="edge"><title>Node5&#45;&gt;Node4</title>
<path fill="none" stroke="midnightblue" d="M81,-720.356C81,-711.999 81,-702.872 81,-693.656"/>
<polygon fill="none" stroke="midnightblue" points="77.5001,-720.478 81,-730.478 84.5001,-720.478 77.5001,-720.478"/>
</g>
</g>
</svg>
