<?xml version="1.0" encoding="UTF-8" standalone="no"?>
<!DOCTYPE svg PUBLIC "-//W3C//DTD SVG 1.1//EN"
 "http://www.w3.org/Graphics/SVG/1.1/DTD/svg11.dtd">
<!-- Generated by graphviz version 2.34.0 (20130907.0111)
 -->
<!-- Title: FBLibrary.Core.DynamicEntity Pages: 1 -->
<svg width="1074pt" height="196pt"
 viewBox="0.00 0.00 1074.00 196.00" xmlns="http://www.w3.org/2000/svg" xmlns:xlink="http://www.w3.org/1999/xlink">
<g id="graph0" class="graph" transform="scale(1 1) rotate(0) translate(4 192)">
<title>FBLibrary.Core.DynamicEntity</title>
<polygon fill="white" stroke="white" points="-4,4 -4,-192 1070,-192 1070,4 -4,4"/>
<!-- Node1 -->
<g id="node1" class="node"><title>Node1</title>
<polygon fill="#bfbfbf" stroke="black" points="182.5,-124.5 182.5,-143.5 331.5,-143.5 331.5,-124.5 182.5,-124.5"/>
<text text-anchor="middle" x="257" y="-131.5" font-family="Helvetica,sans-Serif" font-size="10.00">FBLibrary.Core.DynamicEntity</text>
</g>
<!-- Node4 -->
<g id="node4" class="node"><title>Node4</title>
<g id="a_node4"><a xlink:href="class_f_b_client_1_1_core_1_1_entities_1_1_arrow.html" target="_top" xlink:title="FBClient.Core.Entities.Arrow">
<polygon fill="white" stroke="black" points="369.5,-168.5 369.5,-187.5 510.5,-187.5 510.5,-168.5 369.5,-168.5"/>
<text text-anchor="middle" x="440" y="-175.5" font-family="Helvetica,sans-Serif" font-size="10.00">FBClient.Core.Entities.Arrow</text>
</a>
</g>
</g>
<!-- Node1&#45;&gt;Node4 -->
<g id="edge3" class="edge"><title>Node1&#45;&gt;Node4</title>
<path fill="none" stroke="midnightblue" d="M307.236,-145.969C336.329,-153.041 372.662,-161.874 399.802,-168.471"/>
<polygon fill="midnightblue" stroke="midnightblue" points="307.818,-142.509 297.274,-143.547 306.165,-149.311 307.818,-142.509"/>
</g>
<!-- Node5 -->
<g id="node5" class="node"><title>Node5</title>
<g id="a_node5"><a xlink:href="class_f_b_library_1_1_core_1_1_base_entities_1_1_base_bomb.html" target="_top" xlink:title="FBLibrary.Core.BaseEntities.\lBaseBomb">
<polygon fill="white" stroke="black" points="368.5,-119 368.5,-149 511.5,-149 511.5,-119 368.5,-119"/>
<text text-anchor="start" x="376.5" y="-137" font-family="Helvetica,sans-Serif" font-size="10.00">FBLibrary.Core.BaseEntities.</text>
<text text-anchor="middle" x="440" y="-126" font-family="Helvetica,sans-Serif" font-size="10.00">BaseBomb</text>
</a>
</g>
</g>
<!-- Node1&#45;&gt;Node5 -->
<g id="edge4" class="edge"><title>Node1&#45;&gt;Node5</title>
<path fill="none" stroke="midnightblue" d="M341.651,-134C350.585,-134 359.61,-134 368.373,-134"/>
<polygon fill="midnightblue" stroke="midnightblue" points="341.62,-130.5 331.62,-134 341.62,-137.5 341.62,-130.5"/>
</g>
<!-- Node8 -->
<g id="node8" class="node"><title>Node8</title>
<g id="a_node8"><a xlink:href="class_f_b_library_1_1_core_1_1_base_entities_1_1_base_player.html" target="_top" xlink:title="FBLibrary.Core.BaseEntities.\lBasePlayer">
<polygon fill="white" stroke="black" points="368.5,-70 368.5,-100 511.5,-100 511.5,-70 368.5,-70"/>
<text text-anchor="start" x="376.5" y="-88" font-family="Helvetica,sans-Serif" font-size="10.00">FBLibrary.Core.BaseEntities.</text>
<text text-anchor="middle" x="440" y="-77" font-family="Helvetica,sans-Serif" font-size="10.00">BasePlayer</text>
</a>
</g>
</g>
<!-- Node1&#45;&gt;Node8 -->
<g id="edge7" class="edge"><title>Node1&#45;&gt;Node8</title>
<path fill="none" stroke="midnightblue" d="M303.027,-121.81C327.374,-115.219 357.654,-107.022 383.455,-100.037"/>
<polygon fill="midnightblue" stroke="midnightblue" points="302.066,-118.444 293.328,-124.436 303.895,-125.201 302.066,-118.444"/>
</g>
<!-- Node2 -->
<g id="node2" class="node"><title>Node2</title>
<g id="a_node2"><a xlink:href="class_f_b_library_1_1_core_1_1_base_entity.html" target="_top" xlink:title="BaseEntity">
<polygon fill="white" stroke="black" points="80.5,-124.5 80.5,-143.5 145.5,-143.5 145.5,-124.5 80.5,-124.5"/>
<text text-anchor="middle" x="113" y="-131.5" font-family="Helvetica,sans-Serif" font-size="10.00">BaseEntity</text>
</a>
</g>
</g>
<!-- Node2&#45;&gt;Node1 -->
<g id="edge1" class="edge"><title>Node2&#45;&gt;Node1</title>
<path fill="none" stroke="midnightblue" d="M155.786,-134C164.211,-134 173.302,-134 182.449,-134"/>
<polygon fill="midnightblue" stroke="midnightblue" points="155.514,-130.5 145.514,-134 155.514,-137.5 155.514,-130.5"/>
</g>
<!-- Node3 -->
<g id="node3" class="node"><title>Node3</title>
<g id="a_node3"><a xlink:href="interface_f_b_library_1_1_core_1_1_i_entity.html" target="_top" xlink:title="IEntity">
<polygon fill="white" stroke="black" points="0,-124.5 0,-143.5 44,-143.5 44,-124.5 0,-124.5"/>
<text text-anchor="middle" x="22" y="-131.5" font-family="Helvetica,sans-Serif" font-size="10.00">IEntity</text>
</a>
</g>
</g>
<!-- Node3&#45;&gt;Node2 -->
<g id="edge2" class="edge"><title>Node3&#45;&gt;Node2</title>
<path fill="none" stroke="midnightblue" d="M54.2824,-134C62.7018,-134 71.8155,-134 80.2596,-134"/>
<polygon fill="midnightblue" stroke="midnightblue" points="54.0918,-130.5 44.0918,-134 54.0917,-137.5 54.0918,-130.5"/>
</g>
<!-- Node6 -->
<g id="node6" class="node"><title>Node6</title>
<g id="a_node6"><a xlink:href="class_f_b_client_1_1_core_1_1_entities_1_1_bomb.html" target="_top" xlink:title="FBClient.Core.Entities.Bomb">
<polygon fill="white" stroke="black" points="549,-157.5 549,-176.5 691,-176.5 691,-157.5 549,-157.5"/>
<text text-anchor="middle" x="620" y="-164.5" font-family="Helvetica,sans-Serif" font-size="10.00">FBClient.Core.Entities.Bomb</text>
</a>
</g>
</g>
<!-- Node5&#45;&gt;Node6 -->
<g id="edge5" class="edge"><title>Node5&#45;&gt;Node6</title>
<path fill="none" stroke="midnightblue" d="M521.794,-148.979C537.403,-151.872 553.352,-154.829 567.697,-157.489"/>
<polygon fill="midnightblue" stroke="midnightblue" points="522.076,-145.471 511.606,-147.09 520.8,-152.354 522.076,-145.471"/>
</g>
<!-- Node7 -->
<g id="node7" class="node"><title>Node7</title>
<g id="a_node7"><a xlink:href="class_f_b_server_1_1_core_1_1_entities_1_1_bomb.html" target="_top" xlink:title="FBServer.Core.Entities.Bomb">
<polygon fill="white" stroke="black" points="548,-119.5 548,-138.5 692,-138.5 692,-119.5 548,-119.5"/>
<text text-anchor="middle" x="620" y="-126.5" font-family="Helvetica,sans-Serif" font-size="10.00">FBServer.Core.Entities.Bomb</text>
</a>
</g>
</g>
<!-- Node5&#45;&gt;Node7 -->
<g id="edge6" class="edge"><title>Node5&#45;&gt;Node7</title>
<path fill="none" stroke="midnightblue" d="M521.769,-131.731C530.485,-131.486 539.307,-131.239 547.897,-130.997"/>
<polygon fill="midnightblue" stroke="midnightblue" points="521.504,-128.237 511.606,-132.017 521.7,-135.234 521.504,-128.237"/>
</g>
<!-- Node9 -->
<g id="node9" class="node"><title>Node9</title>
<g id="a_node9"><a xlink:href="class_f_b_client_1_1_entities_1_1_player.html" target="_top" xlink:title="FBClient.Entities.Player">
<polygon fill="white" stroke="black" points="559.5,-78.5 559.5,-97.5 680.5,-97.5 680.5,-78.5 559.5,-78.5"/>
<text text-anchor="middle" x="620" y="-85.5" font-family="Helvetica,sans-Serif" font-size="10.00">FBClient.Entities.Player</text>
</a>
</g>
</g>
<!-- Node8&#45;&gt;Node9 -->
<g id="edge8" class="edge"><title>Node8&#45;&gt;Node9</title>
<path fill="none" stroke="midnightblue" d="M521.706,-86.3602C534.386,-86.5739 547.292,-86.7914 559.383,-86.9952"/>
<polygon fill="midnightblue" stroke="midnightblue" points="521.664,-82.8591 511.606,-86.19 521.546,-89.8581 521.664,-82.8591"/>
</g>
<!-- Node16 -->
<g id="node16" class="node"><title>Node16</title>
<g id="a_node16"><a xlink:href="class_f_b_server_1_1_core_1_1_player.html" target="_top" xlink:title="FBServer.Core.Player">
<polygon fill="white" stroke="black" points="565,-40.5 565,-59.5 675,-59.5 675,-40.5 565,-40.5"/>
<text text-anchor="middle" x="620" y="-47.5" font-family="Helvetica,sans-Serif" font-size="10.00">FBServer.Core.Player</text>
</a>
</g>
</g>
<!-- Node8&#45;&gt;Node16 -->
<g id="edge15" class="edge"><title>Node8&#45;&gt;Node16</title>
<path fill="none" stroke="midnightblue" d="M521.436,-69.1839C538.243,-65.8791 555.462,-62.4935 570.664,-59.5043"/>
<polygon fill="midnightblue" stroke="midnightblue" points="520.743,-65.7531 511.606,-71.1168 522.093,-72.6216 520.743,-65.7531"/>
</g>
<!-- Node10 -->
<g id="node10" class="node"><title>Node10</title>
<polygon fill="white" stroke="#bfbfbf" points="728.5,-147.5 728.5,-166.5 881.5,-166.5 881.5,-147.5 728.5,-147.5"/>
<text text-anchor="middle" x="805" y="-154.5" font-family="Helvetica,sans-Serif" font-size="10.00">FBClient.Core.Players.AIPlayer</text>
</g>
<!-- Node9&#45;&gt;Node10 -->
<g id="edge9" class="edge"><title>Node9&#45;&gt;Node10</title>
<path fill="none" stroke="midnightblue" d="M669.824,-100.688C677.422,-103.353 685.05,-106.452 692,-110 709.813,-119.093 709.995,-128.293 728,-137 736.844,-141.277 746.725,-144.73 756.36,-147.484"/>
<polygon fill="midnightblue" stroke="midnightblue" points="670.862,-97.3454 660.269,-97.5445 668.674,-103.995 670.862,-97.3454"/>
</g>
<!-- Node11 -->
<g id="node11" class="node"><title>Node11</title>
<g id="a_node11"><a xlink:href="class_f_b_client_1_1_core_1_1_players_1_1_base_human_player.html" target="_top" xlink:title="FBClient.Core.Players.Base\lHumanPlayer">
<polygon fill="white" stroke="black" points="735.5,-98 735.5,-128 874.5,-128 874.5,-98 735.5,-98"/>
<text text-anchor="start" x="743.5" y="-116" font-family="Helvetica,sans-Serif" font-size="10.00">FBClient.Core.Players.Base</text>
<text text-anchor="middle" x="805" y="-105" font-family="Helvetica,sans-Serif" font-size="10.00">HumanPlayer</text>
</a>
</g>
</g>
<!-- Node9&#45;&gt;Node11 -->
<g id="edge10" class="edge"><title>Node9&#45;&gt;Node11</title>
<path fill="none" stroke="midnightblue" d="M690.631,-97.5125C705.234,-99.5074 720.626,-101.61 735.198,-103.601"/>
<polygon fill="midnightblue" stroke="midnightblue" points="691.05,-94.0372 680.668,-96.1513 690.102,-100.973 691.05,-94.0372"/>
</g>
<!-- Node14 -->
<g id="node14" class="node"><title>Node14</title>
<polygon fill="white" stroke="#bfbfbf" points="731.5,-49 731.5,-79 878.5,-79 878.5,-49 731.5,-49"/>
<text text-anchor="start" x="739.5" y="-67" font-family="Helvetica,sans-Serif" font-size="10.00">FBClient.Core.Players.Human</text>
<text text-anchor="middle" x="805" y="-56" font-family="Helvetica,sans-Serif" font-size="10.00">Player_OLD</text>
</g>
<!-- Node9&#45;&gt;Node14 -->
<g id="edge13" class="edge"><title>Node9&#45;&gt;Node14</title>
<path fill="none" stroke="midnightblue" d="M690.687,-78.8607C703.981,-77.1172 717.928,-75.2881 731.314,-73.5326"/>
<polygon fill="midnightblue" stroke="midnightblue" points="690.128,-75.404 680.668,-80.1747 691.038,-82.3446 690.128,-75.404"/>
</g>
<!-- Node15 -->
<g id="node15" class="node"><title>Node15</title>
<polygon fill="white" stroke="#bfbfbf" points="733,-0 733,-30 877,-30 877,-0 733,-0"/>
<text text-anchor="start" x="741" y="-18" font-family="Helvetica,sans-Serif" font-size="10.00">FBClient.Core.Players.Online</text>
<text text-anchor="middle" x="805" y="-7" font-family="Helvetica,sans-Serif" font-size="10.00">Player</text>
</g>
<!-- Node9&#45;&gt;Node15 -->
<g id="edge14" class="edge"><title>Node9&#45;&gt;Node15</title>
<path fill="none" stroke="midnightblue" d="M677.808,-75.2083C682.714,-73.3861 687.513,-71.3254 692,-69 710.492,-59.4173 709.725,-48.9908 728,-39 734.192,-35.6149 740.933,-32.6261 747.759,-30.0099"/>
<polygon fill="midnightblue" stroke="midnightblue" points="676.647,-71.9063 668.295,-78.4255 678.889,-78.5374 676.647,-71.9063"/>
</g>
<!-- Node12 -->
<g id="node12" class="node"><title>Node12</title>
<g id="a_node12"><a xlink:href="class_f_b_client_1_1_core_1_1_players_1_1_human_player.html" target="_top" xlink:title="FBClient.Core.Players.Human\lPlayer">
<polygon fill="white" stroke="black" points="918.5,-123 918.5,-153 1065.5,-153 1065.5,-123 918.5,-123"/>
<text text-anchor="start" x="926.5" y="-141" font-family="Helvetica,sans-Serif" font-size="10.00">FBClient.Core.Players.Human</text>
<text text-anchor="middle" x="992" y="-130" font-family="Helvetica,sans-Serif" font-size="10.00">Player</text>
</a>
</g>
</g>
<!-- Node11&#45;&gt;Node12 -->
<g id="edge11" class="edge"><title>Node11&#45;&gt;Node12</title>
<path fill="none" stroke="midnightblue" d="M884.79,-123.647C895.963,-125.157 907.409,-126.704 918.457,-128.197"/>
<polygon fill="midnightblue" stroke="midnightblue" points="885.003,-120.144 874.624,-122.274 884.065,-127.081 885.003,-120.144"/>
</g>
<!-- Node13 -->
<g id="node13" class="node"><title>Node13</title>
<g id="a_node13"><a xlink:href="class_f_b_client_1_1_core_1_1_players_1_1_online_human_player.html" target="_top" xlink:title="FBClient.Core.Players.Online\lHumanPlayer">
<polygon fill="white" stroke="black" points="920,-74 920,-104 1064,-104 1064,-74 920,-74"/>
<text text-anchor="start" x="928" y="-92" font-family="Helvetica,sans-Serif" font-size="10.00">FBClient.Core.Players.Online</text>
<text text-anchor="middle" x="992" y="-81" font-family="Helvetica,sans-Serif" font-size="10.00">HumanPlayer</text>
</a>
</g>
</g>
<!-- Node11&#45;&gt;Node13 -->
<g id="edge12" class="edge"><title>Node11&#45;&gt;Node13</title>
<path fill="none" stroke="midnightblue" d="M884.733,-102.786C896.344,-101.28 908.252,-99.7349 919.701,-98.2496"/>
<polygon fill="midnightblue" stroke="midnightblue" points="884.091,-99.3399 874.624,-104.097 884.991,-106.282 884.091,-99.3399"/>
</g>
</g>
</svg>
