<?xml version="1.0" encoding="UTF-8" standalone="no"?>
<!DOCTYPE svg PUBLIC "-//W3C//DTD SVG 1.1//EN"
 "http://www.w3.org/Graphics/SVG/1.1/DTD/svg11.dtd">
<!-- Generated by graphviz version 2.34.0 (20130907.0111)
 -->
<!-- Title: FBServer.Core.Entities.Bomb Pages: 1 -->
<svg width="152pt" height="896pt"
 viewBox="0.00 0.00 152.00 896.00" xmlns="http://www.w3.org/2000/svg" xmlns:xlink="http://www.w3.org/1999/xlink">
<g id="graph0" class="graph" transform="scale(1 1) rotate(0) translate(4 892)">
<title>FBServer.Core.Entities.Bomb</title>
<polygon fill="white" stroke="white" points="-4,4 -4,-892 148,-892 148,4 -4,4"/>
<!-- Node1 -->
<g id="node1" class="node"><title>Node1</title>
<polygon fill="#bfbfbf" stroke="black" points="0,-1 0,-91 144,-91 144,-1 0,-1"/>
<text text-anchor="middle" x="72" y="-79" font-family="Helvetica,sans-Serif" font-size="10.00">FBServer.Core.Entities.Bomb</text>
<polyline fill="none" stroke="black" points="0,-72 144,-72 "/>
<text text-anchor="middle" x="72" y="-60" font-family="Helvetica,sans-Serif" font-size="10.00"> </text>
<polyline fill="none" stroke="black" points="0,-53 144,-53 "/>
<text text-anchor="start" x="8" y="-41" font-family="Helvetica,sans-Serif" font-size="10.00">+ Bomb()</text>
<text text-anchor="start" x="8" y="-30" font-family="Helvetica,sans-Serif" font-size="10.00">+ Update()</text>
<text text-anchor="start" x="8" y="-19" font-family="Helvetica,sans-Serif" font-size="10.00">+ Destroy()</text>
<text text-anchor="start" x="8" y="-8" font-family="Helvetica,sans-Serif" font-size="10.00">+ Remove()</text>
</g>
<!-- Node2 -->
<g id="node2" class="node"><title>Node2</title>
<g id="a_node2"><a xlink:href="class_f_b_library_1_1_core_1_1_base_entities_1_1_base_bomb.html" target="_top" xlink:title="{BaseBomb\n|+ PlayerId\l+ Timer\l+ TimerLenght\l+ ActionField\l# Power\l# WillExplode\l# Map\l# HazardMap\l|+ Initialize()\l+ Update()\l+ ChangeSpeed()\l+ ResetTimer()\l+ Destroy()\l# BaseBomb()\l# ComputeActionField()\l}">
<polygon fill="white" stroke="black" points="12.5,-129 12.5,-329 131.5,-329 131.5,-129 12.5,-129"/>
<text text-anchor="middle" x="72" y="-317" font-family="Helvetica,sans-Serif" font-size="10.00">BaseBomb</text>
<polyline fill="none" stroke="black" points="12.5,-310 131.5,-310 "/>
<text text-anchor="start" x="20.5" y="-298" font-family="Helvetica,sans-Serif" font-size="10.00">+ PlayerId</text>
<text text-anchor="start" x="20.5" y="-287" font-family="Helvetica,sans-Serif" font-size="10.00">+ Timer</text>
<text text-anchor="start" x="20.5" y="-276" font-family="Helvetica,sans-Serif" font-size="10.00">+ TimerLenght</text>
<text text-anchor="start" x="20.5" y="-265" font-family="Helvetica,sans-Serif" font-size="10.00">+ ActionField</text>
<text text-anchor="start" x="20.5" y="-254" font-family="Helvetica,sans-Serif" font-size="10.00"># Power</text>
<text text-anchor="start" x="20.5" y="-243" font-family="Helvetica,sans-Serif" font-size="10.00"># WillExplode</text>
<text text-anchor="start" x="20.5" y="-232" font-family="Helvetica,sans-Serif" font-size="10.00"># Map</text>
<text text-anchor="start" x="20.5" y="-221" font-family="Helvetica,sans-Serif" font-size="10.00"># HazardMap</text>
<polyline fill="none" stroke="black" points="12.5,-214 131.5,-214 "/>
<text text-anchor="start" x="20.5" y="-202" font-family="Helvetica,sans-Serif" font-size="10.00">+ Initialize()</text>
<text text-anchor="start" x="20.5" y="-191" font-family="Helvetica,sans-Serif" font-size="10.00">+ Update()</text>
<text text-anchor="start" x="20.5" y="-180" font-family="Helvetica,sans-Serif" font-size="10.00">+ ChangeSpeed()</text>
<text text-anchor="start" x="20.5" y="-169" font-family="Helvetica,sans-Serif" font-size="10.00">+ ResetTimer()</text>
<text text-anchor="start" x="20.5" y="-158" font-family="Helvetica,sans-Serif" font-size="10.00">+ Destroy()</text>
<text text-anchor="start" x="20.5" y="-147" font-family="Helvetica,sans-Serif" font-size="10.00"># BaseBomb()</text>
<text text-anchor="start" x="20.5" y="-136" font-family="Helvetica,sans-Serif" font-size="10.00"># ComputeActionField()</text>
</a>
</g>
</g>
<!-- Node2&#45;&gt;Node1 -->
<g id="edge1" class="edge"><title>Node2&#45;&gt;Node1</title>
<path fill="none" stroke="midnightblue" d="M72,-118.642C72,-109.016 72,-99.6869 72,-91.1184"/>
<polygon fill="none" stroke="midnightblue" points="68.5001,-118.763 72,-128.763 75.5001,-118.763 68.5001,-118.763"/>
</g>
<!-- Node3 -->
<g id="node3" class="node"><title>Node3</title>
<g id="a_node3"><a xlink:href="class_f_b_library_1_1_core_1_1_dynamic_entity.html" target="_top" xlink:title="{DynamicEntity\n|+ CurrentDirection\l+ Speed\l+ Velocity\l# PreviousCellPosition\l# PreviousDirection\l# IsMoving\l|+ Update()\l# DynamicEntity()\l# DynamicEntity()\l# IsChangingCell()\l}">
<polygon fill="white" stroke="black" points="15.5,-366.5 15.5,-511.5 128.5,-511.5 128.5,-366.5 15.5,-366.5"/>
<text text-anchor="middle" x="72" y="-499.5" font-family="Helvetica,sans-Serif" font-size="10.00">DynamicEntity</text>
<polyline fill="none" stroke="black" points="15.5,-492.5 128.5,-492.5 "/>
<text text-anchor="start" x="23.5" y="-480.5" font-family="Helvetica,sans-Serif" font-size="10.00">+ CurrentDirection</text>
<text text-anchor="start" x="23.5" y="-469.5" font-family="Helvetica,sans-Serif" font-size="10.00">+ Speed</text>
<text text-anchor="start" x="23.5" y="-458.5" font-family="Helvetica,sans-Serif" font-size="10.00">+ Velocity</text>
<text text-anchor="start" x="23.5" y="-447.5" font-family="Helvetica,sans-Serif" font-size="10.00"># PreviousCellPosition</text>
<text text-anchor="start" x="23.5" y="-436.5" font-family="Helvetica,sans-Serif" font-size="10.00"># PreviousDirection</text>
<text text-anchor="start" x="23.5" y="-425.5" font-family="Helvetica,sans-Serif" font-size="10.00"># IsMoving</text>
<polyline fill="none" stroke="black" points="15.5,-418.5 128.5,-418.5 "/>
<text text-anchor="start" x="23.5" y="-406.5" font-family="Helvetica,sans-Serif" font-size="10.00">+ Update()</text>
<text text-anchor="start" x="23.5" y="-395.5" font-family="Helvetica,sans-Serif" font-size="10.00"># DynamicEntity()</text>
<text text-anchor="start" x="23.5" y="-384.5" font-family="Helvetica,sans-Serif" font-size="10.00"># DynamicEntity()</text>
<text text-anchor="start" x="23.5" y="-373.5" font-family="Helvetica,sans-Serif" font-size="10.00"># IsChangingCell()</text>
</a>
</g>
</g>
<!-- Node3&#45;&gt;Node2 -->
<g id="edge2" class="edge"><title>Node3&#45;&gt;Node2</title>
<path fill="none" stroke="midnightblue" d="M72,-356.169C72,-347.338 72,-338.282 72,-329.274"/>
<polygon fill="none" stroke="midnightblue" points="68.5001,-356.418 72,-366.418 75.5001,-356.418 68.5001,-356.418"/>
</g>
<!-- Node4 -->
<g id="node4" class="node"><title>Node4</title>
<g id="a_node4"><a xlink:href="class_f_b_library_1_1_core_1_1_base_entity.html" target="_top" xlink:title="{BaseEntity\n|+ IsAlive\l+ InDestruction\l+ DestructionTime\l+ Position\l+ PositionX\l+ PositionY\l+ CellPositionX\l+ CellPositionY\l+ CellPosition\l+ Dimension\l|+ Update()\l+ ChangePosition()\l+ ChangePosition()\l+ ChangePosition()\l+ Destroy()\l+ Remove()\l# BaseEntity()\l# BaseEntity()\l}">
<polygon fill="white" stroke="black" points="22,-548.5 22,-781.5 122,-781.5 122,-548.5 22,-548.5"/>
<text text-anchor="middle" x="72" y="-769.5" font-family="Helvetica,sans-Serif" font-size="10.00">BaseEntity</text>
<polyline fill="none" stroke="black" points="22,-762.5 122,-762.5 "/>
<text text-anchor="start" x="30" y="-750.5" font-family="Helvetica,sans-Serif" font-size="10.00">+ IsAlive</text>
<text text-anchor="start" x="30" y="-739.5" font-family="Helvetica,sans-Serif" font-size="10.00">+ InDestruction</text>
<text text-anchor="start" x="30" y="-728.5" font-family="Helvetica,sans-Serif" font-size="10.00">+ DestructionTime</text>
<text text-anchor="start" x="30" y="-717.5" font-family="Helvetica,sans-Serif" font-size="10.00">+ Position</text>
<text text-anchor="start" x="30" y="-706.5" font-family="Helvetica,sans-Serif" font-size="10.00">+ PositionX</text>
<text text-anchor="start" x="30" y="-695.5" font-family="Helvetica,sans-Serif" font-size="10.00">+ PositionY</text>
<text text-anchor="start" x="30" y="-684.5" font-family="Helvetica,sans-Serif" font-size="10.00">+ CellPositionX</text>
<text text-anchor="start" x="30" y="-673.5" font-family="Helvetica,sans-Serif" font-size="10.00">+ CellPositionY</text>
<text text-anchor="start" x="30" y="-662.5" font-family="Helvetica,sans-Serif" font-size="10.00">+ CellPosition</text>
<text text-anchor="start" x="30" y="-651.5" font-family="Helvetica,sans-Serif" font-size="10.00">+ Dimension</text>
<polyline fill="none" stroke="black" points="22,-644.5 122,-644.5 "/>
<text text-anchor="start" x="30" y="-632.5" font-family="Helvetica,sans-Serif" font-size="10.00">+ Update()</text>
<text text-anchor="start" x="30" y="-621.5" font-family="Helvetica,sans-Serif" font-size="10.00">+ ChangePosition()</text>
<text text-anchor="start" x="30" y="-610.5" font-family="Helvetica,sans-Serif" font-size="10.00">+ ChangePosition()</text>
<text text-anchor="start" x="30" y="-599.5" font-family="Helvetica,sans-Serif" font-size="10.00">+ ChangePosition()</text>
<text text-anchor="start" x="30" y="-588.5" font-family="Helvetica,sans-Serif" font-size="10.00">+ Destroy()</text>
<text text-anchor="start" x="30" y="-577.5" font-family="Helvetica,sans-Serif" font-size="10.00">+ Remove()</text>
<text text-anchor="start" x="30" y="-566.5" font-family="Helvetica,sans-Serif" font-size="10.00"># BaseEntity()</text>
<text text-anchor="start" x="30" y="-555.5" font-family="Helvetica,sans-Serif" font-size="10.00"># BaseEntity()</text>
</a>
</g>
</g>
<!-- Node4&#45;&gt;Node3 -->
<g id="edge3" class="edge"><title>Node4&#45;&gt;Node3</title>
<path fill="none" stroke="midnightblue" d="M72,-538.15C72,-529.114 72,-520.201 72,-511.649"/>
<polygon fill="none" stroke="midnightblue" points="68.5001,-538.391 72,-548.391 75.5001,-538.391 68.5001,-538.391"/>
</g>
<!-- Node5 -->
<g id="node5" class="node"><title>Node5</title>
<g id="a_node5"><a xlink:href="interface_f_b_library_1_1_core_1_1_i_entity.html" target="_top" xlink:title="{IEntity\n||+ Destroy()\l+ Remove()\l}">
<polygon fill="white" stroke="black" points="39,-819 39,-887 105,-887 105,-819 39,-819"/>
<text text-anchor="middle" x="72" y="-875" font-family="Helvetica,sans-Serif" font-size="10.00">IEntity</text>
<polyline fill="none" stroke="black" points="39,-868 105,-868 "/>
<text text-anchor="middle" x="72" y="-856" font-family="Helvetica,sans-Serif" font-size="10.00"> </text>
<polyline fill="none" stroke="black" points="39,-849 105,-849 "/>
<text text-anchor="start" x="47" y="-837" font-family="Helvetica,sans-Serif" font-size="10.00">+ Destroy()</text>
<text text-anchor="start" x="47" y="-826" font-family="Helvetica,sans-Serif" font-size="10.00">+ Remove()</text>
</a>
</g>
</g>
<!-- Node5&#45;&gt;Node4 -->
<g id="edge4" class="edge"><title>Node5&#45;&gt;Node4</title>
<path fill="none" stroke="midnightblue" d="M72,-808.601C72,-800.247 72,-791.139 72,-781.698"/>
<polygon fill="none" stroke="midnightblue" points="68.5001,-808.747 72,-818.747 75.5001,-808.747 68.5001,-808.747"/>
</g>
</g>
</svg>
