<?xml version="1.0" encoding="UTF-8" standalone="no"?>
<!DOCTYPE svg PUBLIC "-//W3C//DTD SVG 1.1//EN"
 "http://www.w3.org/Graphics/SVG/1.1/DTD/svg11.dtd">
<!-- Generated by graphviz version 2.34.0 (20130907.0111)
 -->
<!-- Title: FBClient.Utils.FrameRateCounter Pages: 1 -->
<svg width="140pt" height="216pt"
 viewBox="0.00 0.00 140.00 216.00" xmlns="http://www.w3.org/2000/svg" xmlns:xlink="http://www.w3.org/1999/xlink">
<g id="graph0" class="graph" transform="scale(1 1) rotate(0) translate(4 212)">
<title>FBClient.Utils.FrameRateCounter</title>
<polygon fill="white" stroke="white" points="-4,4 -4,-212 136,-212 136,4 -4,4"/>
<!-- Node1 -->
<g id="node1" class="node"><title>Node1</title>
<polygon fill="#bfbfbf" stroke="black" points="2,-1 2,-113 130,-113 130,-1 2,-1"/>
<text text-anchor="start" x="10" y="-101" font-family="Helvetica,sans-Serif" font-size="10.00">FBClient.Utils.FrameRate</text>
<text text-anchor="middle" x="66" y="-90" font-family="Helvetica,sans-Serif" font-size="10.00">Counter</text>
<polyline fill="none" stroke="black" points="2,-83 130,-83 "/>
<text text-anchor="middle" x="66" y="-71" font-family="Helvetica,sans-Serif" font-size="10.00"> </text>
<polyline fill="none" stroke="black" points="2,-64 130,-64 "/>
<text text-anchor="start" x="10" y="-52" font-family="Helvetica,sans-Serif" font-size="10.00">+ FrameRateCounter()</text>
<text text-anchor="start" x="10" y="-41" font-family="Helvetica,sans-Serif" font-size="10.00">+ Update()</text>
<text text-anchor="start" x="10" y="-30" font-family="Helvetica,sans-Serif" font-size="10.00">+ Draw()</text>
<text text-anchor="start" x="10" y="-19" font-family="Helvetica,sans-Serif" font-size="10.00"># LoadContent()</text>
<text text-anchor="start" x="10" y="-8" font-family="Helvetica,sans-Serif" font-size="10.00"># UnloadContent()</text>
</g>
<!-- Node2 -->
<g id="node2" class="node"><title>Node2</title>
<polygon fill="white" stroke="#bfbfbf" points="0,-150.5 0,-207.5 132,-207.5 132,-150.5 0,-150.5"/>
<text text-anchor="middle" x="66" y="-195.5" font-family="Helvetica,sans-Serif" font-size="10.00">DrawableGameComponent</text>
<polyline fill="none" stroke="#bfbfbf" points="0,-188.5 132,-188.5 "/>
<text text-anchor="middle" x="66" y="-176.5" font-family="Helvetica,sans-Serif" font-size="10.00"> </text>
<polyline fill="none" stroke="#bfbfbf" points="0,-169.5 132,-169.5 "/>
<text text-anchor="middle" x="66" y="-157.5" font-family="Helvetica,sans-Serif" font-size="10.00"> </text>
</g>
<!-- Node2&#45;&gt;Node1 -->
<g id="edge1" class="edge"><title>Node2&#45;&gt;Node1</title>
<path fill="none" stroke="midnightblue" d="M66,-140.398C66,-131.802 66,-122.49 66,-113.324"/>
<polygon fill="none" stroke="midnightblue" points="62.5001,-140.47 66,-150.47 69.5001,-140.47 62.5001,-140.47"/>
</g>
</g>
</svg>
