<?xml version="1.0" encoding="UTF-8" standalone="no"?>
<!DOCTYPE svg PUBLIC "-//W3C//DTD SVG 1.1//EN"
 "http://www.w3.org/Graphics/SVG/1.1/DTD/svg11.dtd">
<!-- Generated by graphviz version 2.34.0 (20130907.0111)
 -->
<!-- Title: FBClient.Screens.MenuScreens.MultiplayerGameModeMenuScreen Pages: 1 -->
<svg width="192pt" height="686pt"
 viewBox="0.00 0.00 192.00 686.00" xmlns="http://www.w3.org/2000/svg" xmlns:xlink="http://www.w3.org/1999/xlink">
<g id="graph0" class="graph" transform="scale(1 1) rotate(0) translate(4 682)">
<title>FBClient.Screens.MenuScreens.MultiplayerGameModeMenuScreen</title>
<polygon fill="white" stroke="white" points="-4,4 -4,-682 188,-682 188,4 -4,4"/>
<!-- Node1 -->
<g id="node1" class="node"><title>Node1</title>
<polygon fill="#bfbfbf" stroke="black" points="0,-1 0,-113 184,-113 184,-1 0,-1"/>
<text text-anchor="start" x="8" y="-101" font-family="Helvetica,sans-Serif" font-size="10.00">FBClient.Screens.MenuScreens.</text>
<text text-anchor="middle" x="92" y="-90" font-family="Helvetica,sans-Serif" font-size="10.00">MultiplayerGameModeMenuScreen</text>
<polyline fill="none" stroke="black" points="0,-83 184,-83 "/>
<text text-anchor="middle" x="92" y="-71" font-family="Helvetica,sans-Serif" font-size="10.00"> </text>
<polyline fill="none" stroke="black" points="0,-64 184,-64 "/>
<text text-anchor="start" x="8" y="-52" font-family="Helvetica,sans-Serif" font-size="10.00">+ MultiplayerGameModeMenuScreen()</text>
<text text-anchor="start" x="8" y="-41" font-family="Helvetica,sans-Serif" font-size="10.00">+ Initialize()</text>
<text text-anchor="start" x="8" y="-30" font-family="Helvetica,sans-Serif" font-size="10.00">+ Update()</text>
<text text-anchor="start" x="8" y="-19" font-family="Helvetica,sans-Serif" font-size="10.00">+ Draw()</text>
<text text-anchor="start" x="8" y="-8" font-family="Helvetica,sans-Serif" font-size="10.00"># LoadContent()</text>
</g>
<!-- Node2 -->
<g id="node2" class="node"><title>Node2</title>
<g id="a_node2"><a xlink:href="class_f_b_client_1_1_screens_1_1_base_menu_screen.html" target="_top" xlink:title="{BaseMenuScreen\n|# MenuString\l# IndexMenu\l# MenuPosition\l|+ Initialize()\l+ Update()\l# BaseMenuScreen()\l}">
<polygon fill="white" stroke="black" points="38,-150.5 38,-251.5 146,-251.5 146,-150.5 38,-150.5"/>
<text text-anchor="middle" x="92" y="-239.5" font-family="Helvetica,sans-Serif" font-size="10.00">BaseMenuScreen</text>
<polyline fill="none" stroke="black" points="38,-232.5 146,-232.5 "/>
<text text-anchor="start" x="46" y="-220.5" font-family="Helvetica,sans-Serif" font-size="10.00"># MenuString</text>
<text text-anchor="start" x="46" y="-209.5" font-family="Helvetica,sans-Serif" font-size="10.00"># IndexMenu</text>
<text text-anchor="start" x="46" y="-198.5" font-family="Helvetica,sans-Serif" font-size="10.00"># MenuPosition</text>
<polyline fill="none" stroke="black" points="38,-191.5 146,-191.5 "/>
<text text-anchor="start" x="46" y="-179.5" font-family="Helvetica,sans-Serif" font-size="10.00">+ Initialize()</text>
<text text-anchor="start" x="46" y="-168.5" font-family="Helvetica,sans-Serif" font-size="10.00">+ Update()</text>
<text text-anchor="start" x="46" y="-157.5" font-family="Helvetica,sans-Serif" font-size="10.00"># BaseMenuScreen()</text>
</a>
</g>
</g>
<!-- Node2&#45;&gt;Node1 -->
<g id="edge1" class="edge"><title>Node2&#45;&gt;Node1</title>
<path fill="none" stroke="midnightblue" d="M92,-140.325C92,-131.337 92,-122.101 92,-113.212"/>
<polygon fill="none" stroke="midnightblue" points="88.5001,-140.335 92,-150.335 95.5001,-140.335 88.5001,-140.335"/>
</g>
<!-- Node3 -->
<g id="node3" class="node"><title>Node3</title>
<g id="a_node3"><a xlink:href="class_f_b_client_1_1_screens_1_1_base_game_state.html" target="_top" xlink:title="{BaseGameState\n|# ControlManager\l# BigFont\l# playerIndexInControl\l|+ BaseGameState()\l+ Update()\l+ Draw()\l# LoadContent()\l}">
<polygon fill="white" stroke="black" points="35.5,-289 35.5,-401 148.5,-401 148.5,-289 35.5,-289"/>
<text text-anchor="middle" x="92" y="-389" font-family="Helvetica,sans-Serif" font-size="10.00">BaseGameState</text>
<polyline fill="none" stroke="black" points="35.5,-382 148.5,-382 "/>
<text text-anchor="start" x="43.5" y="-370" font-family="Helvetica,sans-Serif" font-size="10.00"># ControlManager</text>
<text text-anchor="start" x="43.5" y="-359" font-family="Helvetica,sans-Serif" font-size="10.00"># BigFont</text>
<text text-anchor="start" x="43.5" y="-348" font-family="Helvetica,sans-Serif" font-size="10.00"># playerIndexInControl</text>
<polyline fill="none" stroke="black" points="35.5,-341 148.5,-341 "/>
<text text-anchor="start" x="43.5" y="-329" font-family="Helvetica,sans-Serif" font-size="10.00">+ BaseGameState()</text>
<text text-anchor="start" x="43.5" y="-318" font-family="Helvetica,sans-Serif" font-size="10.00">+ Update()</text>
<text text-anchor="start" x="43.5" y="-307" font-family="Helvetica,sans-Serif" font-size="10.00">+ Draw()</text>
<text text-anchor="start" x="43.5" y="-296" font-family="Helvetica,sans-Serif" font-size="10.00"># LoadContent()</text>
</a>
</g>
</g>
<!-- Node3&#45;&gt;Node2 -->
<g id="edge2" class="edge"><title>Node3&#45;&gt;Node2</title>
<path fill="none" stroke="midnightblue" d="M92,-278.613C92,-269.613 92,-260.492 92,-251.833"/>
<polygon fill="none" stroke="midnightblue" points="88.5001,-278.692 92,-288.692 95.5001,-278.693 88.5001,-278.692"/>
</g>
<!-- Node4 -->
<g id="node4" class="node"><title>Node4</title>
<g id="a_node4"><a xlink:href="class_f_b_client_1_1_controls_1_1_game_state.html" target="_top" xlink:title="{GameState\n|+ Components\l+ Tag\l# StateManager\l|+ Initialize()\l+ Update()\l+ Draw()\l# GameState()\l# StateChange()\l# Show()\l# Hide()\l}">
<polygon fill="white" stroke="black" points="48.5,-438.5 48.5,-583.5 135.5,-583.5 135.5,-438.5 48.5,-438.5"/>
<text text-anchor="middle" x="92" y="-571.5" font-family="Helvetica,sans-Serif" font-size="10.00">GameState</text>
<polyline fill="none" stroke="black" points="48.5,-564.5 135.5,-564.5 "/>
<text text-anchor="start" x="56.5" y="-552.5" font-family="Helvetica,sans-Serif" font-size="10.00">+ Components</text>
<text text-anchor="start" x="56.5" y="-541.5" font-family="Helvetica,sans-Serif" font-size="10.00">+ Tag</text>
<text text-anchor="start" x="56.5" y="-530.5" font-family="Helvetica,sans-Serif" font-size="10.00"># StateManager</text>
<polyline fill="none" stroke="black" points="48.5,-523.5 135.5,-523.5 "/>
<text text-anchor="start" x="56.5" y="-511.5" font-family="Helvetica,sans-Serif" font-size="10.00">+ Initialize()</text>
<text text-anchor="start" x="56.5" y="-500.5" font-family="Helvetica,sans-Serif" font-size="10.00">+ Update()</text>
<text text-anchor="start" x="56.5" y="-489.5" font-family="Helvetica,sans-Serif" font-size="10.00">+ Draw()</text>
<text text-anchor="start" x="56.5" y="-478.5" font-family="Helvetica,sans-Serif" font-size="10.00"># GameState()</text>
<text text-anchor="start" x="56.5" y="-467.5" font-family="Helvetica,sans-Serif" font-size="10.00"># StateChange()</text>
<text text-anchor="start" x="56.5" y="-456.5" font-family="Helvetica,sans-Serif" font-size="10.00"># Show()</text>
<text text-anchor="start" x="56.5" y="-445.5" font-family="Helvetica,sans-Serif" font-size="10.00"># Hide()</text>
</a>
</g>
</g>
<!-- Node4&#45;&gt;Node3 -->
<g id="edge3" class="edge"><title>Node4&#45;&gt;Node3</title>
<path fill="none" stroke="midnightblue" d="M92,-427.855C92,-418.789 92,-409.726 92,-401.109"/>
<polygon fill="none" stroke="midnightblue" points="88.5001,-428.067 92,-438.067 95.5001,-428.067 88.5001,-428.067"/>
</g>
<!-- Node5 -->
<g id="node5" class="node"><title>Node5</title>
<polygon fill="white" stroke="#bfbfbf" points="26,-620.5 26,-677.5 158,-677.5 158,-620.5 26,-620.5"/>
<text text-anchor="middle" x="92" y="-665.5" font-family="Helvetica,sans-Serif" font-size="10.00">DrawableGameComponent</text>
<polyline fill="none" stroke="#bfbfbf" points="26,-658.5 158,-658.5 "/>
<text text-anchor="middle" x="92" y="-646.5" font-family="Helvetica,sans-Serif" font-size="10.00"> </text>
<polyline fill="none" stroke="#bfbfbf" points="26,-639.5 158,-639.5 "/>
<text text-anchor="middle" x="92" y="-627.5" font-family="Helvetica,sans-Serif" font-size="10.00"> </text>
</g>
<!-- Node5&#45;&gt;Node4 -->
<g id="edge4" class="edge"><title>Node5&#45;&gt;Node4</title>
<path fill="none" stroke="midnightblue" d="M92,-610.356C92,-601.999 92,-592.872 92,-583.656"/>
<polygon fill="none" stroke="midnightblue" points="88.5001,-610.478 92,-620.478 95.5001,-610.478 88.5001,-610.478"/>
</g>
</g>
</svg>
