<?xml version="1.0" encoding="UTF-8" standalone="no"?>
<!DOCTYPE svg PUBLIC "-//W3C//DTD SVG 1.1//EN"
 "http://www.w3.org/Graphics/SVG/1.1/DTD/svg11.dtd">
<!-- Generated by graphviz version 2.34.0 (20130907.0111)
 -->
<!-- Title: FBClient.WorldEngine.Map Pages: 1 -->
<svg width="142pt" height="154pt"
 viewBox="0.00 0.00 142.00 154.00" xmlns="http://www.w3.org/2000/svg" xmlns:xlink="http://www.w3.org/1999/xlink">
<g id="graph0" class="graph" transform="scale(1 1) rotate(0) translate(4 150)">
<title>FBClient.WorldEngine.Map</title>
<polygon fill="white" stroke="white" points="-4,4 -4,-150 138,-150 138,4 -4,4"/>
<!-- Node1 -->
<g id="node1" class="node"><title>Node1</title>
<polygon fill="#bfbfbf" stroke="black" points="0,-0.5 0,-19.5 134,-19.5 134,-0.5 0,-0.5"/>
<text text-anchor="middle" x="67" y="-7.5" font-family="Helvetica,sans-Serif" font-size="10.00">FBClient.WorldEngine.Map</text>
</g>
<!-- Node2 -->
<g id="node2" class="node"><title>Node2</title>
<g id="a_node2"><a xlink:href="class_f_b_library_1_1_core_1_1_base_entities_1_1_base_map.html" target="_top" xlink:title="BaseMap">
<polygon fill="white" stroke="black" points="38,-58.5 38,-77.5 96,-77.5 96,-58.5 38,-58.5"/>
<text text-anchor="middle" x="67" y="-65.5" font-family="Helvetica,sans-Serif" font-size="10.00">BaseMap</text>
</a>
</g>
</g>
<!-- Node2&#45;&gt;Node1 -->
<g id="edge1" class="edge"><title>Node2&#45;&gt;Node1</title>
<path fill="none" stroke="midnightblue" d="M67,-47.953C67,-38.2875 67,-27.0312 67,-19.5052"/>
<polygon fill="midnightblue" stroke="midnightblue" points="63.5001,-48.25 67,-58.25 70.5001,-48.25 63.5001,-48.25"/>
</g>
<!-- Node3 -->
<g id="node3" class="node"><title>Node3</title>
<g id="a_node3"><a xlink:href="interface_f_b_library_1_1_core_1_1_i_entity.html" target="_top" xlink:title="FBLibrary.Core.IEntity">
<polygon fill="white" stroke="black" points="10.5,-126.5 10.5,-145.5 123.5,-145.5 123.5,-126.5 10.5,-126.5"/>
<text text-anchor="middle" x="67" y="-133.5" font-family="Helvetica,sans-Serif" font-size="10.00">FBLibrary.Core.IEntity</text>
</a>
</g>
</g>
<!-- Node3&#45;&gt;Node2 -->
<g id="edge2" class="edge"><title>Node3&#45;&gt;Node2</title>
<path fill="none" stroke="#9a32cd" stroke-dasharray="5,2" d="M67,-116.041C67,-103.472 67,-87.5631 67,-77.8411"/>
<polygon fill="#9a32cd" stroke="#9a32cd" points="63.5001,-116.372 67,-126.372 70.5001,-116.372 63.5001,-116.372"/>
<text text-anchor="middle" x="81.5" y="-99.5" font-family="Helvetica,sans-Serif" font-size="10.00"> Board</text>
</g>
</g>
</svg>
