<?xml version="1.0" encoding="UTF-8" standalone="no"?>
<!DOCTYPE svg PUBLIC "-//W3C//DTD SVG 1.1//EN"
 "http://www.w3.org/Graphics/SVG/1.1/DTD/svg11.dtd">
<!-- Generated by graphviz version 2.34.0 (20130907.0111)
 -->
<!-- Title: FBClient.Network.NetworkGameManager Pages: 1 -->
<svg width="249pt" height="314pt"
 viewBox="0.00 0.00 249.00 314.00" xmlns="http://www.w3.org/2000/svg" xmlns:xlink="http://www.w3.org/1999/xlink">
<g id="graph0" class="graph" transform="scale(1 1) rotate(0) translate(4 310)">
<title>FBClient.Network.NetworkGameManager</title>
<polygon fill="white" stroke="white" points="-4,4 -4,-310 245,-310 245,4 -4,4"/>
<!-- Node1 -->
<g id="node1" class="node"><title>Node1</title>
<polygon fill="#bfbfbf" stroke="black" points="82.5,-1 82.5,-31 213.5,-31 213.5,-1 82.5,-1"/>
<text text-anchor="start" x="90.5" y="-19" font-family="Helvetica,sans-Serif" font-size="10.00">FBClient.Network.Network</text>
<text text-anchor="middle" x="148" y="-8" font-family="Helvetica,sans-Serif" font-size="10.00">GameManager</text>
</g>
<!-- Node2 -->
<g id="node2" class="node"><title>Node2</title>
<g id="a_node2"><a xlink:href="class_f_b_client_1_1_core_1_1_game_manager.html" target="_top" xlink:title="This class is used to regroup common behaviors between network and local game logic. ">
<polygon fill="white" stroke="black" points="108,-70.5 108,-89.5 188,-89.5 188,-70.5 108,-70.5"/>
<text text-anchor="middle" x="148" y="-77.5" font-family="Helvetica,sans-Serif" font-size="10.00">GameManager</text>
</a>
</g>
</g>
<!-- Node2&#45;&gt;Node1 -->
<g id="edge1" class="edge"><title>Node2&#45;&gt;Node1</title>
<path fill="none" stroke="midnightblue" d="M148,-60.1826C148,-50.8859 148,-39.8507 148,-31.263"/>
<polygon fill="midnightblue" stroke="midnightblue" points="144.5,-60.3791 148,-70.3792 151.5,-60.3792 144.5,-60.3791"/>
</g>
<!-- Node3 -->
<g id="node3" class="node"><title>Node3</title>
<g id="a_node3"><a xlink:href="class_f_b_library_1_1_core_1_1_base_game_manager.html" target="_top" xlink:title="BaseGameManager">
<polygon fill="white" stroke="black" points="25.5,-138.5 25.5,-157.5 128.5,-157.5 128.5,-138.5 25.5,-138.5"/>
<text text-anchor="middle" x="77" y="-145.5" font-family="Helvetica,sans-Serif" font-size="10.00">BaseGameManager</text>
</a>
</g>
</g>
<!-- Node3&#45;&gt;Node2 -->
<g id="edge2" class="edge"><title>Node3&#45;&gt;Node2</title>
<path fill="none" stroke="midnightblue" d="M93.7687,-131.412C107.716,-118.447 127.07,-100.456 138.489,-89.8411"/>
<polygon fill="midnightblue" stroke="midnightblue" points="91.2233,-129 86.282,-138.372 95.9893,-134.127 91.2233,-129"/>
</g>
<!-- Node4 -->
<g id="node4" class="node"><title>Node4</title>
<g id="a_node4"><a xlink:href="class_f_b_library_1_1_core_1_1_base_entities_1_1_base_map.html" target="_top" xlink:title="FBLibrary.Core.BaseEntities.\lBaseMap">
<polygon fill="white" stroke="black" points="-0.5,-207 -0.5,-237 142.5,-237 142.5,-207 -0.5,-207"/>
<text text-anchor="start" x="7.5" y="-225" font-family="Helvetica,sans-Serif" font-size="10.00">FBLibrary.Core.BaseEntities.</text>
<text text-anchor="middle" x="71" y="-214" font-family="Helvetica,sans-Serif" font-size="10.00">BaseMap</text>
</a>
</g>
</g>
<!-- Node4&#45;&gt;Node3 -->
<g id="edge3" class="edge"><title>Node4&#45;&gt;Node3</title>
<path fill="none" stroke="#9a32cd" stroke-dasharray="5,2" d="M73.026,-196.688C74.1456,-183.253 75.4683,-167.38 76.2701,-157.759"/>
<polygon fill="#9a32cd" stroke="#9a32cd" points="69.528,-196.519 72.1854,-206.775 76.5039,-197.1 69.528,-196.519"/>
<text text-anchor="middle" x="113" y="-179.5" font-family="Helvetica,sans-Serif" font-size="10.00"> BaseCurrentMap</text>
</g>
<!-- Node5 -->
<g id="node5" class="node"><title>Node5</title>
<g id="a_node5"><a xlink:href="interface_f_b_library_1_1_core_1_1_i_entity.html" target="_top" xlink:title="FBLibrary.Core.IEntity">
<polygon fill="white" stroke="black" points="14.5,-286.5 14.5,-305.5 127.5,-305.5 127.5,-286.5 14.5,-286.5"/>
<text text-anchor="middle" x="71" y="-293.5" font-family="Helvetica,sans-Serif" font-size="10.00">FBLibrary.Core.IEntity</text>
</a>
</g>
</g>
<!-- Node5&#45;&gt;Node4 -->
<g id="edge4" class="edge"><title>Node5&#45;&gt;Node4</title>
<path fill="none" stroke="#9a32cd" stroke-dasharray="5,2" d="M71,-276.085C71,-263.915 71,-248.354 71,-237.232"/>
<polygon fill="#9a32cd" stroke="#9a32cd" points="67.5001,-276.458 71,-286.458 74.5001,-276.458 67.5001,-276.458"/>
<text text-anchor="middle" x="85.5" y="-259.5" font-family="Helvetica,sans-Serif" font-size="10.00"> Board</text>
</g>
<!-- Node6 -->
<g id="node6" class="node"><title>Node6</title>
<g id="a_node6"><a xlink:href="class_player_collection.html" target="_top" xlink:title="PlayerCollection">
<polygon fill="white" stroke="black" points="154.5,-138.5 154.5,-157.5 241.5,-157.5 241.5,-138.5 154.5,-138.5"/>
<text text-anchor="middle" x="198" y="-145.5" font-family="Helvetica,sans-Serif" font-size="10.00">PlayerCollection</text>
</a>
</g>
</g>
<!-- Node6&#45;&gt;Node2 -->
<g id="edge5" class="edge"><title>Node6&#45;&gt;Node2</title>
<path fill="none" stroke="#9a32cd" stroke-dasharray="5,2" d="M185.356,-130.31C175.609,-117.444 162.514,-100.158 154.698,-89.8411"/>
<polygon fill="#9a32cd" stroke="#9a32cd" points="182.635,-132.514 191.463,-138.372 188.215,-128.287 182.635,-132.514"/>
<text text-anchor="middle" x="196.5" y="-111.5" font-family="Helvetica,sans-Serif" font-size="10.00"> Players</text>
</g>
<!-- Node7 -->
<g id="node7" class="node"><title>Node7</title>
<polygon fill="white" stroke="#bfbfbf" points="161,-212.5 161,-231.5 239,-231.5 239,-212.5 161,-212.5"/>
<text text-anchor="middle" x="200" y="-219.5" font-family="Helvetica,sans-Serif" font-size="10.00">List&lt; Player &gt;</text>
</g>
<!-- Node7&#45;&gt;Node6 -->
<g id="edge6" class="edge"><title>Node7&#45;&gt;Node6</title>
<path fill="none" stroke="midnightblue" d="M199.477,-202.156C199.075,-187.712 198.541,-168.459 198.237,-157.531"/>
<polygon fill="midnightblue" stroke="midnightblue" points="195.986,-202.559 199.763,-212.458 202.984,-202.365 195.986,-202.559"/>
</g>
</g>
</svg>
