<?xml version="1.0" encoding="UTF-8" standalone="no"?>
<!DOCTYPE svg PUBLIC "-//W3C//DTD SVG 1.1//EN"
 "http://www.w3.org/Graphics/SVG/1.1/DTD/svg11.dtd">
<!-- Generated by graphviz version 2.34.0 (20130907.0111)
 -->
<!-- Title: FBClient.Screens.MenuScreens.CreateServerMenuScreen Pages: 1 -->
<svg width="166pt" height="264pt"
 viewBox="0.00 0.00 166.00 264.00" xmlns="http://www.w3.org/2000/svg" xmlns:xlink="http://www.w3.org/1999/xlink">
<g id="graph0" class="graph" transform="scale(1 1) rotate(0) translate(4 260)">
<title>FBClient.Screens.MenuScreens.CreateServerMenuScreen</title>
<polygon fill="white" stroke="white" points="-4,4 -4,-260 162,-260 162,4 -4,4"/>
<!-- Node1 -->
<g id="node1" class="node"><title>Node1</title>
<polygon fill="#bfbfbf" stroke="black" points="-0.5,-1 -0.5,-31 158.5,-31 158.5,-1 -0.5,-1"/>
<text text-anchor="start" x="7.5" y="-19" font-family="Helvetica,sans-Serif" font-size="10.00">FBClient.Screens.MenuScreens.</text>
<text text-anchor="middle" x="79" y="-8" font-family="Helvetica,sans-Serif" font-size="10.00">CreateServerMenuScreen</text>
</g>
<!-- Node2 -->
<g id="node2" class="node"><title>Node2</title>
<g id="a_node2"><a xlink:href="class_f_b_client_1_1_screens_1_1_base_menu_screen.html" target="_top" xlink:title="BaseMenuScreen">
<polygon fill="white" stroke="black" points="32,-68.5 32,-87.5 126,-87.5 126,-68.5 32,-68.5"/>
<text text-anchor="middle" x="79" y="-75.5" font-family="Helvetica,sans-Serif" font-size="10.00">BaseMenuScreen</text>
</a>
</g>
</g>
<!-- Node2&#45;&gt;Node1 -->
<g id="edge1" class="edge"><title>Node2&#45;&gt;Node1</title>
<path fill="none" stroke="midnightblue" d="M79,-58.3707C79,-49.5849 79,-39.2721 79,-31.1408"/>
<polygon fill="midnightblue" stroke="midnightblue" points="75.5001,-58.4034 79,-68.4035 82.5001,-58.4035 75.5001,-58.4034"/>
</g>
<!-- Node3 -->
<g id="node3" class="node"><title>Node3</title>
<g id="a_node3"><a xlink:href="class_f_b_client_1_1_screens_1_1_base_game_state.html" target="_top" xlink:title="BaseGameState">
<polygon fill="white" stroke="black" points="34.5,-124.5 34.5,-143.5 123.5,-143.5 123.5,-124.5 34.5,-124.5"/>
<text text-anchor="middle" x="79" y="-131.5" font-family="Helvetica,sans-Serif" font-size="10.00">BaseGameState</text>
</a>
</g>
</g>
<!-- Node3&#45;&gt;Node2 -->
<g id="edge2" class="edge"><title>Node3&#45;&gt;Node2</title>
<path fill="none" stroke="midnightblue" d="M79,-113.805C79,-104.91 79,-94.7798 79,-87.7511"/>
<polygon fill="midnightblue" stroke="midnightblue" points="75.5001,-114.083 79,-124.083 82.5001,-114.083 75.5001,-114.083"/>
</g>
<!-- Node4 -->
<g id="node4" class="node"><title>Node4</title>
<g id="a_node4"><a xlink:href="class_f_b_client_1_1_controls_1_1_game_state.html" target="_top" xlink:title="GameState">
<polygon fill="white" stroke="black" points="46,-180.5 46,-199.5 112,-199.5 112,-180.5 46,-180.5"/>
<text text-anchor="middle" x="79" y="-187.5" font-family="Helvetica,sans-Serif" font-size="10.00">GameState</text>
</a>
</g>
</g>
<!-- Node4&#45;&gt;Node3 -->
<g id="edge3" class="edge"><title>Node4&#45;&gt;Node3</title>
<path fill="none" stroke="midnightblue" d="M79,-169.805C79,-160.91 79,-150.78 79,-143.751"/>
<polygon fill="midnightblue" stroke="midnightblue" points="75.5001,-170.083 79,-180.083 82.5001,-170.083 75.5001,-170.083"/>
</g>
<!-- Node5 -->
<g id="node5" class="node"><title>Node5</title>
<polygon fill="white" stroke="#bfbfbf" points="13,-236.5 13,-255.5 145,-255.5 145,-236.5 13,-236.5"/>
<text text-anchor="middle" x="79" y="-243.5" font-family="Helvetica,sans-Serif" font-size="10.00">DrawableGameComponent</text>
</g>
<!-- Node5&#45;&gt;Node4 -->
<g id="edge4" class="edge"><title>Node5&#45;&gt;Node4</title>
<path fill="none" stroke="midnightblue" d="M79,-225.805C79,-216.91 79,-206.78 79,-199.751"/>
<polygon fill="midnightblue" stroke="midnightblue" points="75.5001,-226.083 79,-236.083 82.5001,-226.083 75.5001,-226.083"/>
</g>
</g>
</svg>
