<?xml version="1.0" encoding="UTF-8" standalone="no"?>
<!DOCTYPE svg PUBLIC "-//W3C//DTD SVG 1.1//EN"
 "http://www.w3.org/Graphics/SVG/1.1/DTD/svg11.dtd">
<!-- Generated by graphviz version 2.34.0 (20130907.0111)
 -->
<!-- Title: Launcher.App Pages: 1 -->
<svg width="158pt" height="216pt"
 viewBox="0.00 0.00 158.00 216.00" xmlns="http://www.w3.org/2000/svg" xmlns:xlink="http://www.w3.org/1999/xlink">
<g id="graph0" class="graph" transform="scale(1 1) rotate(0) translate(4 212)">
<title>Launcher.App</title>
<polygon fill="white" stroke="white" points="-4,4 -4,-212 154,-212 154,4 -4,4"/>
<!-- Node1 -->
<g id="node1" class="node"><title>Node1</title>
<polygon fill="#bfbfbf" stroke="black" points="17,-1 17,-113 133,-113 133,-1 17,-1"/>
<text text-anchor="middle" x="75" y="-101" font-family="Helvetica,sans-Serif" font-size="10.00">Launcher.App</text>
<polyline fill="none" stroke="black" points="17,-94 133,-94 "/>
<text text-anchor="middle" x="75" y="-82" font-family="Helvetica,sans-Serif" font-size="10.00"> </text>
<polyline fill="none" stroke="black" points="17,-75 133,-75 "/>
<text text-anchor="start" x="25" y="-63" font-family="Helvetica,sans-Serif" font-size="10.00">+ InitializeComponent()</text>
<text text-anchor="start" x="25" y="-52" font-family="Helvetica,sans-Serif" font-size="10.00">+ InitializeComponent()</text>
<text text-anchor="start" x="25" y="-41" font-family="Helvetica,sans-Serif" font-size="10.00">+ InitializeComponent()</text>
<text text-anchor="start" x="25" y="-30" font-family="Helvetica,sans-Serif" font-size="10.00">+ Main()</text>
<text text-anchor="start" x="25" y="-19" font-family="Helvetica,sans-Serif" font-size="10.00">+ Main()</text>
<text text-anchor="start" x="25" y="-8" font-family="Helvetica,sans-Serif" font-size="10.00">+ Main()</text>
</g>
<!-- Node2 -->
<g id="node2" class="node"><title>Node2</title>
<polygon fill="white" stroke="#bfbfbf" points="0,-150.5 0,-207.5 150,-207.5 150,-150.5 0,-150.5"/>
<text text-anchor="middle" x="75" y="-195.5" font-family="Helvetica,sans-Serif" font-size="10.00">System::Windows::Application</text>
<polyline fill="none" stroke="#bfbfbf" points="0,-188.5 150,-188.5 "/>
<text text-anchor="middle" x="75" y="-176.5" font-family="Helvetica,sans-Serif" font-size="10.00"> </text>
<polyline fill="none" stroke="#bfbfbf" points="0,-169.5 150,-169.5 "/>
<text text-anchor="middle" x="75" y="-157.5" font-family="Helvetica,sans-Serif" font-size="10.00"> </text>
</g>
<!-- Node2&#45;&gt;Node1 -->
<g id="edge1" class="edge"><title>Node2&#45;&gt;Node1</title>
<path fill="none" stroke="midnightblue" d="M62.3733,-140.398C61.6721,-131.802 61.3931,-122.49 61.5365,-113.324"/>
<polygon fill="none" stroke="midnightblue" points="58.9061,-140.893 63.4382,-150.47 65.8673,-140.157 58.9061,-140.893"/>
</g>
<!-- Node2&#45;&gt;Node1 -->
<g id="edge2" class="edge"><title>Node2&#45;&gt;Node1</title>
<path fill="none" stroke="midnightblue" d="M75,-140.398C75,-131.802 75,-122.49 75,-113.324"/>
<polygon fill="none" stroke="midnightblue" points="71.5001,-140.47 75,-150.47 78.5001,-140.47 71.5001,-140.47"/>
</g>
<!-- Node2&#45;&gt;Node1 -->
<g id="edge3" class="edge"><title>Node2&#45;&gt;Node1</title>
<path fill="none" stroke="midnightblue" d="M87.6267,-140.398C88.3279,-131.802 88.6069,-122.49 88.4635,-113.324"/>
<polygon fill="none" stroke="midnightblue" points="84.1327,-140.157 86.5618,-150.47 91.0939,-140.893 84.1327,-140.157"/>
</g>
</g>
</svg>
