<?xml version="1.0" encoding="UTF-8" standalone="no"?>
<!DOCTYPE svg PUBLIC "-//W3C//DTD SVG 1.1//EN"
 "http://www.w3.org/Graphics/SVG/1.1/DTD/svg11.dtd">
<!-- Generated by graphviz version 2.34.0 (20130907.0111)
 -->
<!-- Title: FBClient.Core.Players.OnlineHumanPlayer Pages: 1 -->
<svg width="152pt" height="376pt"
 viewBox="0.00 0.00 152.00 376.00" xmlns="http://www.w3.org/2000/svg" xmlns:xlink="http://www.w3.org/1999/xlink">
<g id="graph0" class="graph" transform="scale(1 1) rotate(0) translate(4 372)">
<title>FBClient.Core.Players.OnlineHumanPlayer</title>
<polygon fill="white" stroke="white" points="-4,4 -4,-372 148,-372 148,4 -4,4"/>
<!-- Node1 -->
<g id="node1" class="node"><title>Node1</title>
<polygon fill="#bfbfbf" stroke="black" points="0,-1 0,-31 144,-31 144,-1 0,-1"/>
<text text-anchor="start" x="8" y="-19" font-family="Helvetica,sans-Serif" font-size="10.00">FBClient.Core.Players.Online</text>
<text text-anchor="middle" x="72" y="-8" font-family="Helvetica,sans-Serif" font-size="10.00">HumanPlayer</text>
</g>
<!-- Node2 -->
<g id="node2" class="node"><title>Node2</title>
<g id="a_node2"><a xlink:href="class_f_b_client_1_1_core_1_1_players_1_1_base_human_player.html" target="_top" xlink:title="BaseHumanPlayer">
<polygon fill="white" stroke="black" points="23,-68.5 23,-87.5 121,-87.5 121,-68.5 23,-68.5"/>
<text text-anchor="middle" x="72" y="-75.5" font-family="Helvetica,sans-Serif" font-size="10.00">BaseHumanPlayer</text>
</a>
</g>
</g>
<!-- Node2&#45;&gt;Node1 -->
<g id="edge1" class="edge"><title>Node2&#45;&gt;Node1</title>
<path fill="none" stroke="midnightblue" d="M72,-58.3707C72,-49.5849 72,-39.2721 72,-31.1408"/>
<polygon fill="midnightblue" stroke="midnightblue" points="68.5001,-58.4034 72,-68.4035 75.5001,-58.4035 68.5001,-58.4034"/>
</g>
<!-- Node3 -->
<g id="node3" class="node"><title>Node3</title>
<g id="a_node3"><a xlink:href="class_f_b_client_1_1_entities_1_1_player.html" target="_top" xlink:title="Player">
<polygon fill="white" stroke="black" points="50,-124.5 50,-143.5 94,-143.5 94,-124.5 50,-124.5"/>
<text text-anchor="middle" x="72" y="-131.5" font-family="Helvetica,sans-Serif" font-size="10.00">Player</text>
</a>
</g>
</g>
<!-- Node3&#45;&gt;Node2 -->
<g id="edge2" class="edge"><title>Node3&#45;&gt;Node2</title>
<path fill="none" stroke="midnightblue" d="M72,-113.805C72,-104.91 72,-94.7798 72,-87.7511"/>
<polygon fill="midnightblue" stroke="midnightblue" points="68.5001,-114.083 72,-124.083 75.5001,-114.083 68.5001,-114.083"/>
</g>
<!-- Node4 -->
<g id="node4" class="node"><title>Node4</title>
<g id="a_node4"><a xlink:href="class_f_b_library_1_1_core_1_1_base_entities_1_1_base_player.html" target="_top" xlink:title="BasePlayer">
<polygon fill="white" stroke="black" points="38.5,-180.5 38.5,-199.5 105.5,-199.5 105.5,-180.5 38.5,-180.5"/>
<text text-anchor="middle" x="72" y="-187.5" font-family="Helvetica,sans-Serif" font-size="10.00">BasePlayer</text>
</a>
</g>
</g>
<!-- Node4&#45;&gt;Node3 -->
<g id="edge3" class="edge"><title>Node4&#45;&gt;Node3</title>
<path fill="none" stroke="midnightblue" d="M72,-169.805C72,-160.91 72,-150.78 72,-143.751"/>
<polygon fill="midnightblue" stroke="midnightblue" points="68.5001,-170.083 72,-180.083 75.5001,-170.083 68.5001,-170.083"/>
</g>
<!-- Node5 -->
<g id="node5" class="node"><title>Node5</title>
<g id="a_node5"><a xlink:href="class_f_b_library_1_1_core_1_1_dynamic_entity.html" target="_top" xlink:title="DynamicEntity">
<polygon fill="white" stroke="black" points="32,-236.5 32,-255.5 112,-255.5 112,-236.5 32,-236.5"/>
<text text-anchor="middle" x="72" y="-243.5" font-family="Helvetica,sans-Serif" font-size="10.00">DynamicEntity</text>
</a>
</g>
</g>
<!-- Node5&#45;&gt;Node4 -->
<g id="edge4" class="edge"><title>Node5&#45;&gt;Node4</title>
<path fill="none" stroke="midnightblue" d="M72,-225.805C72,-216.91 72,-206.78 72,-199.751"/>
<polygon fill="midnightblue" stroke="midnightblue" points="68.5001,-226.083 72,-236.083 75.5001,-226.083 68.5001,-226.083"/>
</g>
<!-- Node6 -->
<g id="node6" class="node"><title>Node6</title>
<g id="a_node6"><a xlink:href="class_f_b_library_1_1_core_1_1_base_entity.html" target="_top" xlink:title="BaseEntity">
<polygon fill="white" stroke="black" points="39.5,-292.5 39.5,-311.5 104.5,-311.5 104.5,-292.5 39.5,-292.5"/>
<text text-anchor="middle" x="72" y="-299.5" font-family="Helvetica,sans-Serif" font-size="10.00">BaseEntity</text>
</a>
</g>
</g>
<!-- Node6&#45;&gt;Node5 -->
<g id="edge5" class="edge"><title>Node6&#45;&gt;Node5</title>
<path fill="none" stroke="midnightblue" d="M72,-281.805C72,-272.91 72,-262.78 72,-255.751"/>
<polygon fill="midnightblue" stroke="midnightblue" points="68.5001,-282.083 72,-292.083 75.5001,-282.083 68.5001,-282.083"/>
</g>
<!-- Node7 -->
<g id="node7" class="node"><title>Node7</title>
<g id="a_node7"><a xlink:href="interface_f_b_library_1_1_core_1_1_i_entity.html" target="_top" xlink:title="IEntity">
<polygon fill="white" stroke="black" points="50,-348.5 50,-367.5 94,-367.5 94,-348.5 50,-348.5"/>
<text text-anchor="middle" x="72" y="-355.5" font-family="Helvetica,sans-Serif" font-size="10.00">IEntity</text>
</a>
</g>
</g>
<!-- Node7&#45;&gt;Node6 -->
<g id="edge6" class="edge"><title>Node7&#45;&gt;Node6</title>
<path fill="none" stroke="midnightblue" d="M72,-337.805C72,-328.91 72,-318.78 72,-311.751"/>
<polygon fill="midnightblue" stroke="midnightblue" points="68.5001,-338.083 72,-348.083 75.5001,-338.083 68.5001,-338.083"/>
</g>
</g>
</svg>
