<?xml version="1.0" encoding="UTF-8" standalone="no"?>
<!DOCTYPE svg PUBLIC "-//W3C//DTD SVG 1.1//EN"
 "http://www.w3.org/Graphics/SVG/1.1/DTD/svg11.dtd">
<!-- Generated by graphviz version 2.34.0 (20130907.0111)
 -->
<!-- Title: FBLibrary.Core.StaticEntity Pages: 1 -->
<svg width="144pt" height="140pt"
 viewBox="0.00 0.00 144.00 140.00" xmlns="http://www.w3.org/2000/svg" xmlns:xlink="http://www.w3.org/1999/xlink">
<g id="graph0" class="graph" transform="scale(1 1) rotate(0) translate(4 136)">
<title>FBLibrary.Core.StaticEntity</title>
<polygon fill="white" stroke="white" points="-4,4 -4,-136 140,-136 140,4 -4,4"/>
<!-- Node1 -->
<g id="node1" class="node"><title>Node1</title>
<polygon fill="#bfbfbf" stroke="black" points="0,-0.5 0,-19.5 136,-19.5 136,-0.5 0,-0.5"/>
<text text-anchor="middle" x="68" y="-7.5" font-family="Helvetica,sans-Serif" font-size="10.00">FBLibrary.Core.StaticEntity</text>
</g>
<!-- Node2 -->
<g id="node2" class="node"><title>Node2</title>
<g id="a_node2"><a xlink:href="class_f_b_library_1_1_core_1_1_base_entity.html" target="_top" xlink:title="BaseEntity">
<polygon fill="white" stroke="black" points="35.5,-56.5 35.5,-75.5 100.5,-75.5 100.5,-56.5 35.5,-56.5"/>
<text text-anchor="middle" x="68" y="-63.5" font-family="Helvetica,sans-Serif" font-size="10.00">BaseEntity</text>
</a>
</g>
</g>
<!-- Node2&#45;&gt;Node1 -->
<g id="edge1" class="edge"><title>Node2&#45;&gt;Node1</title>
<path fill="none" stroke="midnightblue" d="M68,-45.8045C68,-36.9102 68,-26.7798 68,-19.7511"/>
<polygon fill="midnightblue" stroke="midnightblue" points="64.5001,-46.083 68,-56.083 71.5001,-46.083 64.5001,-46.083"/>
</g>
<!-- Node3 -->
<g id="node3" class="node"><title>Node3</title>
<g id="a_node3"><a xlink:href="interface_f_b_library_1_1_core_1_1_i_entity.html" target="_top" xlink:title="IEntity">
<polygon fill="white" stroke="black" points="46,-112.5 46,-131.5 90,-131.5 90,-112.5 46,-112.5"/>
<text text-anchor="middle" x="68" y="-119.5" font-family="Helvetica,sans-Serif" font-size="10.00">IEntity</text>
</a>
</g>
</g>
<!-- Node3&#45;&gt;Node2 -->
<g id="edge2" class="edge"><title>Node3&#45;&gt;Node2</title>
<path fill="none" stroke="midnightblue" d="M68,-101.805C68,-92.9102 68,-82.7798 68,-75.7511"/>
<polygon fill="midnightblue" stroke="midnightblue" points="64.5001,-102.083 68,-112.083 71.5001,-102.083 64.5001,-102.083"/>
</g>
</g>
</svg>
