<?xml version="1.0" encoding="UTF-8" standalone="no"?>
<!DOCTYPE svg PUBLIC "-//W3C//DTD SVG 1.1//EN"
 "http://www.w3.org/Graphics/SVG/1.1/DTD/svg11.dtd">
<!-- Generated by graphviz version 2.34.0 (20130907.0111)
 -->
<!-- Title: FBClient.Screens.GameScreens.BaseGamePlayScreen Pages: 1 -->
<svg width="764pt" height="87pt"
 viewBox="0.00 0.00 764.00 87.00" xmlns="http://www.w3.org/2000/svg" xmlns:xlink="http://www.w3.org/1999/xlink">
<g id="graph0" class="graph" transform="scale(1 1) rotate(0) translate(4 83)">
<title>FBClient.Screens.GameScreens.BaseGamePlayScreen</title>
<polygon fill="white" stroke="white" points="-4,4 -4,-83 760,-83 760,4 -4,4"/>
<!-- Node1 -->
<g id="node1" class="node"><title>Node1</title>
<polygon fill="#bfbfbf" stroke="black" points="396.5,-24 396.5,-54 557.5,-54 557.5,-24 396.5,-24"/>
<text text-anchor="start" x="404.5" y="-42" font-family="Helvetica,sans-Serif" font-size="10.00">FBClient.Screens.GameScreens.</text>
<text text-anchor="middle" x="477" y="-31" font-family="Helvetica,sans-Serif" font-size="10.00">BaseGamePlayScreen</text>
</g>
<!-- Node5 -->
<g id="node5" class="node"><title>Node5</title>
<g id="a_node5"><a xlink:href="class_f_b_client_1_1_screens_1_1_game_screens_1_1_network_game_play_screen.html" target="_top" xlink:title="FBClient.Screens.GameScreens.\lNetworkGamePlayScreen">
<polygon fill="white" stroke="black" points="594.5,-49 594.5,-79 755.5,-79 755.5,-49 594.5,-49"/>
<text text-anchor="start" x="602.5" y="-67" font-family="Helvetica,sans-Serif" font-size="10.00">FBClient.Screens.GameScreens.</text>
<text text-anchor="middle" x="675" y="-56" font-family="Helvetica,sans-Serif" font-size="10.00">NetworkGamePlayScreen</text>
</a>
</g>
</g>
<!-- Node1&#45;&gt;Node5 -->
<g id="edge4" class="edge"><title>Node1&#45;&gt;Node5</title>
<path fill="none" stroke="midnightblue" d="M567.702,-50.4416C576.592,-51.5755 585.573,-52.721 594.35,-53.8406"/>
<polygon fill="midnightblue" stroke="midnightblue" points="568.083,-46.9619 557.721,-49.1685 567.197,-53.9057 568.083,-46.9619"/>
</g>
<!-- Node6 -->
<g id="node6" class="node"><title>Node6</title>
<g id="a_node6"><a xlink:href="class_f_b_client_1_1_screens_1_1_game_screens_1_1_single_player_game_play_screen.html" target="_top" xlink:title="FBClient.Screens.GameScreens.\lSinglePlayerGamePlayScreen">
<polygon fill="white" stroke="black" points="594.5,-0 594.5,-30 755.5,-30 755.5,-0 594.5,-0"/>
<text text-anchor="start" x="602.5" y="-18" font-family="Helvetica,sans-Serif" font-size="10.00">FBClient.Screens.GameScreens.</text>
<text text-anchor="middle" x="675" y="-7" font-family="Helvetica,sans-Serif" font-size="10.00">SinglePlayerGamePlayScreen</text>
</a>
</g>
</g>
<!-- Node1&#45;&gt;Node6 -->
<g id="edge5" class="edge"><title>Node1&#45;&gt;Node6</title>
<path fill="none" stroke="midnightblue" d="M567.702,-28.016C576.592,-26.9276 585.573,-25.8278 594.35,-24.7531"/>
<polygon fill="midnightblue" stroke="midnightblue" points="567.221,-24.5487 557.721,-29.2383 568.072,-31.4968 567.221,-24.5487"/>
</g>
<!-- Node2 -->
<g id="node2" class="node"><title>Node2</title>
<g id="a_node2"><a xlink:href="class_f_b_client_1_1_screens_1_1_base_game_state.html" target="_top" xlink:title="BaseGameState">
<polygon fill="white" stroke="black" points="270.5,-29.5 270.5,-48.5 359.5,-48.5 359.5,-29.5 270.5,-29.5"/>
<text text-anchor="middle" x="315" y="-36.5" font-family="Helvetica,sans-Serif" font-size="10.00">BaseGameState</text>
</a>
</g>
</g>
<!-- Node2&#45;&gt;Node1 -->
<g id="edge1" class="edge"><title>Node2&#45;&gt;Node1</title>
<path fill="none" stroke="midnightblue" d="M369.871,-39C378.398,-39 387.37,-39 396.337,-39"/>
<polygon fill="midnightblue" stroke="midnightblue" points="369.721,-35.5001 359.721,-39 369.721,-42.5001 369.721,-35.5001"/>
</g>
<!-- Node3 -->
<g id="node3" class="node"><title>Node3</title>
<g id="a_node3"><a xlink:href="class_f_b_client_1_1_controls_1_1_game_state.html" target="_top" xlink:title="GameState">
<polygon fill="white" stroke="black" points="168,-29.5 168,-48.5 234,-48.5 234,-29.5 168,-29.5"/>
<text text-anchor="middle" x="201" y="-36.5" font-family="Helvetica,sans-Serif" font-size="10.00">GameState</text>
</a>
</g>
</g>
<!-- Node3&#45;&gt;Node2 -->
<g id="edge2" class="edge"><title>Node3&#45;&gt;Node2</title>
<path fill="none" stroke="midnightblue" d="M244.188,-39C252.694,-39 261.654,-39 270.213,-39"/>
<polygon fill="midnightblue" stroke="midnightblue" points="244.095,-35.5001 234.095,-39 244.095,-42.5001 244.095,-35.5001"/>
</g>
<!-- Node4 -->
<g id="node4" class="node"><title>Node4</title>
<polygon fill="white" stroke="#bfbfbf" points="0,-29.5 0,-48.5 132,-48.5 132,-29.5 0,-29.5"/>
<text text-anchor="middle" x="66" y="-36.5" font-family="Helvetica,sans-Serif" font-size="10.00">DrawableGameComponent</text>
</g>
<!-- Node4&#45;&gt;Node3 -->
<g id="edge3" class="edge"><title>Node4&#45;&gt;Node3</title>
<path fill="none" stroke="midnightblue" d="M142.439,-39C151.342,-39 160.026,-39 167.839,-39"/>
<polygon fill="midnightblue" stroke="midnightblue" points="142.331,-35.5001 132.331,-39 142.331,-42.5001 142.331,-35.5001"/>
</g>
</g>
</svg>
