<?xml version="1.0" encoding="UTF-8" standalone="no"?>
<!DOCTYPE svg PUBLIC "-//W3C//DTD SVG 1.1//EN"
 "http://www.w3.org/Graphics/SVG/1.1/DTD/svg11.dtd">
<!-- Generated by graphviz version 2.34.0 (20130907.0111)
 -->
<!-- Title: FBClient.Controls.GameState Pages: 1 -->
<svg width="304pt" height="412pt"
 viewBox="0.00 0.00 304.00 412.00" xmlns="http://www.w3.org/2000/svg" xmlns:xlink="http://www.w3.org/1999/xlink">
<g id="graph0" class="graph" transform="scale(1 1) rotate(0) translate(4 408)">
<title>FBClient.Controls.GameState</title>
<polygon fill="white" stroke="white" points="-4,4 -4,-408 300,-408 300,4 -4,4"/>
<!-- Node1 -->
<g id="node1" class="node"><title>Node1</title>
<polygon fill="#bfbfbf" stroke="black" points="40,-1 40,-135 186,-135 186,-1 40,-1"/>
<text text-anchor="middle" x="113" y="-123" font-family="Helvetica,sans-Serif" font-size="10.00">FBClient.Controls.GameState</text>
<polyline fill="none" stroke="black" points="40,-116 186,-116 "/>
<text text-anchor="start" x="48" y="-104" font-family="Helvetica,sans-Serif" font-size="10.00">+ Components</text>
<text text-anchor="start" x="48" y="-93" font-family="Helvetica,sans-Serif" font-size="10.00">+ Tag</text>
<polyline fill="none" stroke="black" points="40,-86 186,-86 "/>
<text text-anchor="start" x="48" y="-74" font-family="Helvetica,sans-Serif" font-size="10.00">+ Initialize()</text>
<text text-anchor="start" x="48" y="-63" font-family="Helvetica,sans-Serif" font-size="10.00">+ Update()</text>
<text text-anchor="start" x="48" y="-52" font-family="Helvetica,sans-Serif" font-size="10.00">+ Draw()</text>
<text text-anchor="start" x="48" y="-41" font-family="Helvetica,sans-Serif" font-size="10.00"># GameState()</text>
<text text-anchor="start" x="48" y="-30" font-family="Helvetica,sans-Serif" font-size="10.00"># StateChange()</text>
<text text-anchor="start" x="48" y="-19" font-family="Helvetica,sans-Serif" font-size="10.00"># Show()</text>
<text text-anchor="start" x="48" y="-8" font-family="Helvetica,sans-Serif" font-size="10.00"># Hide()</text>
</g>
<!-- Node2 -->
<g id="node2" class="node"><title>Node2</title>
<polygon fill="white" stroke="#bfbfbf" points="0,-217.5 0,-274.5 132,-274.5 132,-217.5 0,-217.5"/>
<text text-anchor="middle" x="66" y="-262.5" font-family="Helvetica,sans-Serif" font-size="10.00">DrawableGameComponent</text>
<polyline fill="none" stroke="#bfbfbf" points="0,-255.5 132,-255.5 "/>
<text text-anchor="middle" x="66" y="-243.5" font-family="Helvetica,sans-Serif" font-size="10.00"> </text>
<polyline fill="none" stroke="#bfbfbf" points="0,-236.5 132,-236.5 "/>
<text text-anchor="middle" x="66" y="-224.5" font-family="Helvetica,sans-Serif" font-size="10.00"> </text>
</g>
<!-- Node2&#45;&gt;Node1 -->
<g id="edge1" class="edge"><title>Node2&#45;&gt;Node1</title>
<path fill="none" stroke="midnightblue" d="M76.0687,-207.296C81.6798,-186.284 88.8288,-159.514 95.3393,-135.134"/>
<polygon fill="none" stroke="midnightblue" points="72.6459,-206.548 73.4473,-217.112 79.4089,-208.354 72.6459,-206.548"/>
</g>
<!-- Node3 -->
<g id="node3" class="node"><title>Node3</title>
<g id="a_node3"><a xlink:href="class_f_b_client_1_1_controls_1_1_game_state_manager.html" target="_top" xlink:title="{FBClient.Controls.GameState\lManager\n|+ CurrentState\l|+ GameStateManager()\l+ Initialize()\l+ Update()\l+ PopState()\l+ PushState()\l+ ChangeState()\l}">
<polygon fill="white" stroke="black" points="150,-184.5 150,-307.5 296,-307.5 296,-184.5 150,-184.5"/>
<text text-anchor="start" x="158" y="-295.5" font-family="Helvetica,sans-Serif" font-size="10.00">FBClient.Controls.GameState</text>
<text text-anchor="middle" x="223" y="-284.5" font-family="Helvetica,sans-Serif" font-size="10.00">Manager</text>
<polyline fill="none" stroke="black" points="150,-277.5 296,-277.5 "/>
<text text-anchor="start" x="158" y="-265.5" font-family="Helvetica,sans-Serif" font-size="10.00">+ CurrentState</text>
<polyline fill="none" stroke="black" points="150,-258.5 296,-258.5 "/>
<text text-anchor="start" x="158" y="-246.5" font-family="Helvetica,sans-Serif" font-size="10.00">+ GameStateManager()</text>
<text text-anchor="start" x="158" y="-235.5" font-family="Helvetica,sans-Serif" font-size="10.00">+ Initialize()</text>
<text text-anchor="start" x="158" y="-224.5" font-family="Helvetica,sans-Serif" font-size="10.00">+ Update()</text>
<text text-anchor="start" x="158" y="-213.5" font-family="Helvetica,sans-Serif" font-size="10.00">+ PopState()</text>
<text text-anchor="start" x="158" y="-202.5" font-family="Helvetica,sans-Serif" font-size="10.00">+ PushState()</text>
<text text-anchor="start" x="158" y="-191.5" font-family="Helvetica,sans-Serif" font-size="10.00">+ ChangeState()</text>
</a>
</g>
</g>
<!-- Node3&#45;&gt;Node1 -->
<g id="edge2" class="edge"><title>Node3&#45;&gt;Node1</title>
<path fill="none" stroke="#404040" d="M185.144,-184.431C177.298,-171.877 168.935,-158.496 160.787,-145.459"/>
<polygon fill="none" stroke="#404040" points="160.672,-145.275 154.1,-142.307 154.312,-135.099 160.884,-138.067 160.672,-145.275"/>
<text text-anchor="middle" x="206" y="-157.5" font-family="Helvetica,sans-Serif" font-size="10.00"> #StateManager</text>
</g>
<!-- Node4 -->
<g id="node4" class="node"><title>Node4</title>
<polygon fill="white" stroke="#bfbfbf" points="177,-346.5 177,-403.5 269,-403.5 269,-346.5 177,-346.5"/>
<text text-anchor="middle" x="223" y="-391.5" font-family="Helvetica,sans-Serif" font-size="10.00">GameComponent</text>
<polyline fill="none" stroke="#bfbfbf" points="177,-384.5 269,-384.5 "/>
<text text-anchor="middle" x="223" y="-372.5" font-family="Helvetica,sans-Serif" font-size="10.00"> </text>
<polyline fill="none" stroke="#bfbfbf" points="177,-365.5 269,-365.5 "/>
<text text-anchor="middle" x="223" y="-353.5" font-family="Helvetica,sans-Serif" font-size="10.00"> </text>
</g>
<!-- Node4&#45;&gt;Node3 -->
<g id="edge3" class="edge"><title>Node4&#45;&gt;Node3</title>
<path fill="none" stroke="midnightblue" d="M223,-336.283C223,-327.252 223,-317.384 223,-307.607"/>
<polygon fill="none" stroke="midnightblue" points="219.5,-336.443 223,-346.443 226.5,-336.443 219.5,-336.443"/>
</g>
</g>
</svg>
