<?xml version="1.0" encoding="UTF-8" standalone="no"?>
<!DOCTYPE svg PUBLIC "-//W3C//DTD SVG 1.1//EN"
 "http://www.w3.org/Graphics/SVG/1.1/DTD/svg11.dtd">
<!-- Generated by graphviz version 2.34.0 (20130907.0111)
 -->
<!-- Title: FBLauncher.MainWindow Pages: 1 -->
<svg width="334pt" height="208pt"
 viewBox="0.00 0.00 334.00 208.00" xmlns="http://www.w3.org/2000/svg" xmlns:xlink="http://www.w3.org/1999/xlink">
<g id="graph0" class="graph" transform="scale(1 1) rotate(0) translate(4 204)">
<title>FBLauncher.MainWindow</title>
<polygon fill="white" stroke="white" points="-4,4 -4,-204 330,-204 330,4 -4,4"/>
<!-- Node1 -->
<g id="node1" class="node"><title>Node1</title>
<polygon fill="#bfbfbf" stroke="black" points="198,-119.5 198,-138.5 326,-138.5 326,-119.5 198,-119.5"/>
<text text-anchor="middle" x="262" y="-126.5" font-family="Helvetica,sans-Serif" font-size="10.00">FBLauncher.MainWindow</text>
</g>
<!-- Node2 -->
<g id="node2" class="node"><title>Node2</title>
<polygon fill="white" stroke="#bfbfbf" points="0.5,-180.5 0.5,-199.5 137.5,-199.5 137.5,-180.5 0.5,-180.5"/>
<text text-anchor="middle" x="69" y="-187.5" font-family="Helvetica,sans-Serif" font-size="10.00">System::Windows::Window</text>
</g>
<!-- Node2&#45;&gt;Node1 -->
<g id="edge1" class="edge"><title>Node2&#45;&gt;Node1</title>
<path fill="none" stroke="midnightblue" d="M83.874,-174.648C104.816,-162.537 145.7,-151.118 180,-140 185.826,-138.112 191.863,-136.084 197.895,-134.085"/>
<polygon fill="midnightblue" stroke="midnightblue" points="81.7382,-171.87 75.53,-180.455 85.7371,-177.615 81.7382,-171.87"/>
</g>
<!-- Node2&#45;&gt;Node1 -->
<g id="edge3" class="edge"><title>Node2&#45;&gt;Node1</title>
<path fill="none" stroke="midnightblue" d="M114.653,-177.675C134.716,-171.967 158.635,-164.925 180,-158 198.756,-151.921 219.705,-144.4 235.599,-138.542"/>
<polygon fill="midnightblue" stroke="midnightblue" points="113.516,-174.36 104.844,-180.448 115.419,-181.096 113.516,-174.36"/>
</g>
<!-- Node2&#45;&gt;Node1 -->
<g id="edge5" class="edge"><title>Node2&#45;&gt;Node1</title>
<path fill="none" stroke="midnightblue" d="M147.631,-185.877C158.532,-182.789 169.57,-179.381 180,-176 209.839,-166.328 245.229,-153.01 256.984,-138.6"/>
<polygon fill="midnightblue" stroke="midnightblue" points="146.394,-182.587 137.679,-188.613 148.249,-189.337 146.394,-182.587"/>
</g>
<!-- Node3 -->
<g id="node3" class="node"><title>Node3</title>
<polygon fill="white" stroke="#bfbfbf" points="2,-115 2,-145 136,-145 136,-115 2,-115"/>
<text text-anchor="start" x="10" y="-133" font-family="Helvetica,sans-Serif" font-size="10.00">System::Windows::Markup</text>
<text text-anchor="middle" x="69" y="-122" font-family="Helvetica,sans-Serif" font-size="10.00">::IComponentConnector</text>
</g>
<!-- Node3&#45;&gt;Node1 -->
<g id="edge2" class="edge"><title>Node3&#45;&gt;Node1</title>
<path fill="none" stroke="midnightblue" d="M146.315,-116.346C177.631,-115.372 211.818,-116.39 234.644,-119.476"/>
<polygon fill="midnightblue" stroke="midnightblue" points="146.125,-112.85 136.266,-116.732 146.394,-119.845 146.125,-112.85"/>
</g>
<!-- Node3&#45;&gt;Node1 -->
<g id="edge4" class="edge"><title>Node3&#45;&gt;Node1</title>
<path fill="none" stroke="midnightblue" d="M146.691,-129.598C163.636,-129.51 181.404,-129.417 197.745,-129.331"/>
<polygon fill="midnightblue" stroke="midnightblue" points="146.248,-126.101 136.266,-129.653 146.285,-133.101 146.248,-126.101"/>
</g>
<!-- Node3&#45;&gt;Node1 -->
<g id="edge6" class="edge"><title>Node3&#45;&gt;Node1</title>
<path fill="none" stroke="midnightblue" d="M146.574,-142.861C178.704,-143.512 213.812,-142.036 236.55,-138.513"/>
<polygon fill="midnightblue" stroke="midnightblue" points="146.36,-139.353 136.266,-142.574 146.165,-146.351 146.36,-139.353"/>
</g>
<!-- Node4 -->
<g id="node4" class="node"><title>Node4</title>
<polygon fill="white" stroke="#bfbfbf" points="43.5,-76.5 43.5,-95.5 94.5,-95.5 94.5,-76.5 43.5,-76.5"/>
<text text-anchor="middle" x="69" y="-83.5" font-family="Helvetica,sans-Serif" font-size="10.00">Window</text>
</g>
<!-- Node4&#45;&gt;Node1 -->
<g id="edge7" class="edge"><title>Node4&#45;&gt;Node1</title>
<path fill="none" stroke="midnightblue" d="M104.389,-93.7421C136.433,-100.956 184.305,-111.734 218.68,-119.473"/>
<polygon fill="midnightblue" stroke="midnightblue" points="105.103,-90.3153 94.5789,-91.5335 103.566,-97.1444 105.103,-90.3153"/>
</g>
<!-- Node5 -->
<g id="node5" class="node"><title>Node5</title>
<polygon fill="white" stroke="#bfbfbf" points="38,-38.5 38,-57.5 100,-57.5 100,-38.5 38,-38.5"/>
<text text-anchor="middle" x="69" y="-45.5" font-family="Helvetica,sans-Serif" font-size="10.00">IUpdatable</text>
</g>
<!-- Node5&#45;&gt;Node1 -->
<g id="edge8" class="edge"><title>Node5&#45;&gt;Node1</title>
<path fill="none" stroke="midnightblue" d="M110.034,-57.7889C119.329,-60.4446 129.103,-63.5524 138,-67 177.468,-82.2935 221.158,-106.078 244.365,-119.3"/>
<polygon fill="midnightblue" stroke="midnightblue" points="110.771,-54.3616 100.201,-55.0898 108.918,-61.1119 110.771,-54.3616"/>
</g>
<!-- Node6 -->
<g id="node6" class="node"><title>Node6</title>
<polygon fill="white" stroke="#bfbfbf" points="44,-0.5 44,-19.5 94,-19.5 94,-0.5 44,-0.5"/>
<text text-anchor="middle" x="69" y="-7.5" font-family="Helvetica,sans-Serif" font-size="10.00">System</text>
</g>
<!-- Node6&#45;&gt;Node1 -->
<g id="edge9" class="edge"><title>Node6&#45;&gt;Node1</title>
<path fill="none" stroke="#9a32cd" stroke-dasharray="5,2" d="M103.976,-16.8016C115.15,-19.7358 127.414,-23.7316 138,-29 186.538,-53.1553 233.211,-99.3519 252.146,-119.363"/>
<polygon fill="#9a32cd" stroke="#9a32cd" points="104.644,-13.3621 94.0998,-14.3992 102.989,-20.1637 104.644,-13.3621"/>
<text text-anchor="middle" x="168" y="-57" font-family="Helvetica,sans-Serif" font-size="10.00"> label</text>
</g>
</g>
</svg>
