<?xml version="1.0" encoding="UTF-8" standalone="no"?>
<!DOCTYPE svg PUBLIC "-//W3C//DTD SVG 1.1//EN"
 "http://www.w3.org/Graphics/SVG/1.1/DTD/svg11.dtd">
<!-- Generated by graphviz version 2.34.0 (20130907.0111)
 -->
<!-- Title: FBLibrary.Core.BaseEntities.BaseArrow Pages: 1 -->
<!--zoomable 686 -->
<svg id="main" version="1.1" xmlns="http://www.w3.org/2000/svg" xmlns:xlink="http://www.w3.org/1999/xlink" xml:space="preserve" onload="init(evt)">
<style type="text/css"><![CDATA[
.edge:hover path { stroke: red; }
.edge:hover polygon { stroke: red; fill: red; }
]]></style>
<script type="text/javascript"><![CDATA[
var edges = document.getElementsByTagName('g');
if (edges && edges.length) {
  for (var i=0;i<edges.length;i++) {
    if (edges[i].id.substr(0,4)=='edge') {
      edges[i].setAttribute('class','edge');
    }
  }
}
]]></script>
        <defs>
                <circle id="rim" cx="0" cy="0" r="7"/>
                <circle id="rim2" cx="0" cy="0" r="3.5"/>
                <g id="zoomPlus">
                        <use xlink:href="#rim" fill="#404040">
                                <set attributeName="fill" to="#808080" begin="zoomplus.mouseover" end="zoomplus.mouseout"/>
                        </use>
                        <path d="M-4,0h8M0,-4v8" fill="none" stroke="white" stroke-width="1.5" pointer-events="none"/>
                </g>
                <g id="zoomMin">
                        <use xlink:href="#rim" fill="#404040">
                                <set attributeName="fill" to="#808080" begin="zoomminus.mouseover" end="zoomminus.mouseout"/>
                        </use>
                        <path d="M-4,0h8" fill="none" stroke="white" stroke-width="1.5" pointer-events="none"/>
                </g>
                <g id="dirArrow">
                        <path fill="none" stroke="white" stroke-width="1.5" d="M0,-3.0v7 M-2.5,-0.5L0,-3.0L2.5,-0.5"/>
                </g>
               <g id="resetDef">
                       <use xlink:href="#rim2" fill="#404040">
                               <set attributeName="fill" to="#808080" begin="reset.mouseover" end="reset.mouseout"/>
                       </use>
               </g>
        </defs>

<script type="text/javascript">
var viewWidth = 150;
var viewHeight = 686;
var sectionId = 'dynsection-0';
</script>
<script xlink:href="svgpan.js"/>
<svg id="graph" class="graph">
<g id="viewport">
<title>FBLibrary.Core.BaseEntities.BaseArrow</title>
<polygon fill="white" stroke="white" points="-4,4 -4,-682 146,-682 146,4 -4,4"/>
<!-- Node1 -->
<g id="node1" class="node"><title>Node1</title>
<polygon fill="#bfbfbf" stroke="black" points="-0.5,-117 -0.5,-185 142.5,-185 142.5,-117 -0.5,-117"/>
<text text-anchor="start" x="7.5" y="-173" font-family="Helvetica,sans-Serif" font-size="10.00">FBLibrary.Core.BaseEntities.</text>
<text text-anchor="middle" x="71" y="-162" font-family="Helvetica,sans-Serif" font-size="10.00">BaseArrow</text>
<polyline fill="none" stroke="black" points="-0.5,-155 142.5,-155 "/>
<text text-anchor="start" x="7.5" y="-143" font-family="Helvetica,sans-Serif" font-size="10.00"># Direction</text>
<polyline fill="none" stroke="black" points="-0.5,-136 142.5,-136 "/>
<text text-anchor="start" x="7.5" y="-124" font-family="Helvetica,sans-Serif" font-size="10.00"># BaseArrow()</text>
</g>
<!-- Node5 -->
<g id="node5" class="node"><title>Node5</title>
<g id="a_node5"><a xlink:href="class_f_b_server_1_1_core_1_1_entities_1_1_arrow.html" target="_top" xlink:title="{FBServer.Core.Entities.Arrow\n||+ Arrow()\l+ Destroy()\l+ Remove()\l}">
<polygon fill="white" stroke="black" points="-0.5,-0.5 -0.5,-79.5 142.5,-79.5 142.5,-0.5 -0.5,-0.5"/>
<text text-anchor="middle" x="71" y="-67.5" font-family="Helvetica,sans-Serif" font-size="10.00">FBServer.Core.Entities.Arrow</text>
<polyline fill="none" stroke="black" points="-0.5,-60.5 142.5,-60.5 "/>
<text text-anchor="middle" x="71" y="-48.5" font-family="Helvetica,sans-Serif" font-size="10.00"> </text>
<polyline fill="none" stroke="black" points="-0.5,-41.5 142.5,-41.5 "/>
<text text-anchor="start" x="7.5" y="-29.5" font-family="Helvetica,sans-Serif" font-size="10.00">+ Arrow()</text>
<text text-anchor="start" x="7.5" y="-18.5" font-family="Helvetica,sans-Serif" font-size="10.00">+ Destroy()</text>
<text text-anchor="start" x="7.5" y="-7.5" font-family="Helvetica,sans-Serif" font-size="10.00">+ Remove()</text>
</a>
</g>
</g>
<!-- Node1&#45;&gt;Node5 -->
<g id="edge4" class="edge"><title>Node1&#45;&gt;Node5</title>
<path fill="none" stroke="midnightblue" d="M71,-106.575C71,-97.7367 71,-88.4932 71,-79.8274"/>
<polygon fill="none" stroke="midnightblue" points="67.5001,-106.704 71,-116.704 74.5001,-106.704 67.5001,-106.704"/>
</g>
<!-- Node2 -->
<g id="node2" class="node"><title>Node2</title>
<g id="a_node2"><a xlink:href="class_f_b_library_1_1_core_1_1_static_entity.html" target="_top" xlink:title="{StaticEntity\n||+ Update()\l# StaticEntity()\l# StaticEntity()\l}">
<polygon fill="white" stroke="black" points="30,-222.5 30,-301.5 112,-301.5 112,-222.5 30,-222.5"/>
<text text-anchor="middle" x="71" y="-289.5" font-family="Helvetica,sans-Serif" font-size="10.00">StaticEntity</text>
<polyline fill="none" stroke="black" points="30,-282.5 112,-282.5 "/>
<text text-anchor="middle" x="71" y="-270.5" font-family="Helvetica,sans-Serif" font-size="10.00"> </text>
<polyline fill="none" stroke="black" points="30,-263.5 112,-263.5 "/>
<text text-anchor="start" x="38" y="-251.5" font-family="Helvetica,sans-Serif" font-size="10.00">+ Update()</text>
<text text-anchor="start" x="38" y="-240.5" font-family="Helvetica,sans-Serif" font-size="10.00"># StaticEntity()</text>
<text text-anchor="start" x="38" y="-229.5" font-family="Helvetica,sans-Serif" font-size="10.00"># StaticEntity()</text>
</a>
</g>
</g>
<!-- Node2&#45;&gt;Node1 -->
<g id="edge1" class="edge"><title>Node2&#45;&gt;Node1</title>
<path fill="none" stroke="midnightblue" d="M71,-212.125C71,-203.016 71,-193.696 71,-185.196"/>
<polygon fill="none" stroke="midnightblue" points="67.5001,-212.264 71,-222.264 74.5001,-212.264 67.5001,-212.264"/>
</g>
<!-- Node3 -->
<g id="node3" class="node"><title>Node3</title>
<g id="a_node3"><a xlink:href="class_f_b_library_1_1_core_1_1_base_entity.html" target="_top" xlink:title="{BaseEntity\n|+ IsAlive\l+ InDestruction\l+ DestructionTime\l+ Position\l+ PositionX\l+ PositionY\l+ CellPositionX\l+ CellPositionY\l+ CellPosition\l+ Dimension\l|+ Update()\l+ ChangePosition()\l+ ChangePosition()\l+ ChangePosition()\l+ Destroy()\l+ Remove()\l# BaseEntity()\l# BaseEntity()\l}">
<polygon fill="white" stroke="black" points="21,-338.5 21,-571.5 121,-571.5 121,-338.5 21,-338.5"/>
<text text-anchor="middle" x="71" y="-559.5" font-family="Helvetica,sans-Serif" font-size="10.00">BaseEntity</text>
<polyline fill="none" stroke="black" points="21,-552.5 121,-552.5 "/>
<text text-anchor="start" x="29" y="-540.5" font-family="Helvetica,sans-Serif" font-size="10.00">+ IsAlive</text>
<text text-anchor="start" x="29" y="-529.5" font-family="Helvetica,sans-Serif" font-size="10.00">+ InDestruction</text>
<text text-anchor="start" x="29" y="-518.5" font-family="Helvetica,sans-Serif" font-size="10.00">+ DestructionTime</text>
<text text-anchor="start" x="29" y="-507.5" font-family="Helvetica,sans-Serif" font-size="10.00">+ Position</text>
<text text-anchor="start" x="29" y="-496.5" font-family="Helvetica,sans-Serif" font-size="10.00">+ PositionX</text>
<text text-anchor="start" x="29" y="-485.5" font-family="Helvetica,sans-Serif" font-size="10.00">+ PositionY</text>
<text text-anchor="start" x="29" y="-474.5" font-family="Helvetica,sans-Serif" font-size="10.00">+ CellPositionX</text>
<text text-anchor="start" x="29" y="-463.5" font-family="Helvetica,sans-Serif" font-size="10.00">+ CellPositionY</text>
<text text-anchor="start" x="29" y="-452.5" font-family="Helvetica,sans-Serif" font-size="10.00">+ CellPosition</text>
<text text-anchor="start" x="29" y="-441.5" font-family="Helvetica,sans-Serif" font-size="10.00">+ Dimension</text>
<polyline fill="none" stroke="black" points="21,-434.5 121,-434.5 "/>
<text text-anchor="start" x="29" y="-422.5" font-family="Helvetica,sans-Serif" font-size="10.00">+ Update()</text>
<text text-anchor="start" x="29" y="-411.5" font-family="Helvetica,sans-Serif" font-size="10.00">+ ChangePosition()</text>
<text text-anchor="start" x="29" y="-400.5" font-family="Helvetica,sans-Serif" font-size="10.00">+ ChangePosition()</text>
<text text-anchor="start" x="29" y="-389.5" font-family="Helvetica,sans-Serif" font-size="10.00">+ ChangePosition()</text>
<text text-anchor="start" x="29" y="-378.5" font-family="Helvetica,sans-Serif" font-size="10.00">+ Destroy()</text>
<text text-anchor="start" x="29" y="-367.5" font-family="Helvetica,sans-Serif" font-size="10.00">+ Remove()</text>
<text text-anchor="start" x="29" y="-356.5" font-family="Helvetica,sans-Serif" font-size="10.00"># BaseEntity()</text>
<text text-anchor="start" x="29" y="-345.5" font-family="Helvetica,sans-Serif" font-size="10.00"># BaseEntity()</text>
</a>
</g>
</g>
<!-- Node3&#45;&gt;Node2 -->
<g id="edge2" class="edge"><title>Node3&#45;&gt;Node2</title>
<path fill="none" stroke="midnightblue" d="M71,-328.405C71,-318.866 71,-309.774 71,-301.565"/>
<polygon fill="none" stroke="midnightblue" points="67.5001,-328.488 71,-338.488 74.5001,-328.488 67.5001,-328.488"/>
</g>
<!-- Node4 -->
<g id="node4" class="node"><title>Node4</title>
<g id="a_node4"><a xlink:href="interface_f_b_library_1_1_core_1_1_i_entity.html" target="_top" xlink:title="{IEntity\n||+ Destroy()\l+ Remove()\l}">
<polygon fill="white" stroke="black" points="38,-609 38,-677 104,-677 104,-609 38,-609"/>
<text text-anchor="middle" x="71" y="-665" font-family="Helvetica,sans-Serif" font-size="10.00">IEntity</text>
<polyline fill="none" stroke="black" points="38,-658 104,-658 "/>
<text text-anchor="middle" x="71" y="-646" font-family="Helvetica,sans-Serif" font-size="10.00"> </text>
<polyline fill="none" stroke="black" points="38,-639 104,-639 "/>
<text text-anchor="start" x="46" y="-627" font-family="Helvetica,sans-Serif" font-size="10.00">+ Destroy()</text>
<text text-anchor="start" x="46" y="-616" font-family="Helvetica,sans-Serif" font-size="10.00">+ Remove()</text>
</a>
</g>
</g>
<!-- Node4&#45;&gt;Node3 -->
<g id="edge3" class="edge"><title>Node4&#45;&gt;Node3</title>
<path fill="none" stroke="midnightblue" d="M71,-598.601C71,-590.247 71,-581.139 71,-571.698"/>
<polygon fill="none" stroke="midnightblue" points="67.5001,-598.747 71,-608.747 74.5001,-598.747 67.5001,-598.747"/>
</g>
</g>
</svg>
        <g id="navigator" transform="translate(0 0)" fill="#404254">
                <rect fill="#f2f5e9" fill-opacity="0.5" stroke="#606060" stroke-width=".5" x="0" y="0" width="60" height="60"/>
                <use id="zoomplus" xlink:href="#zoomPlus" x="17" y="9" onmousedown="handleZoom(evt,'in')"/>
                <use id="zoomminus" xlink:href="#zoomMin" x="42" y="9" onmousedown="handleZoom(evt,'out')"/>
                <use id="reset" xlink:href="#resetDef" x="30" y="36" onmousedown="handleReset()"/>
                <g id="arrowUp" xlink:href="#dirArrow" transform="translate(30 24)" onmousedown="handlePan(0,-1)">
                  <use xlink:href="#rim" fill="#404040">
                        <set attributeName="fill" to="#808080" begin="arrowUp.mouseover" end="arrowUp.mouseout"/>
                  </use>
                  <path fill="none" stroke="white" stroke-width="1.5" d="M0,-3.0v7 M-2.5,-0.5L0,-3.0L2.5,-0.5"/>
                </g>
                <g id="arrowRight" xlink:href="#dirArrow" transform="rotate(90) translate(36 -43)" onmousedown="handlePan(1,0)">
                  <use xlink:href="#rim" fill="#404040">
                        <set attributeName="fill" to="#808080" begin="arrowRight.mouseover" end="arrowRight.mouseout"/>
                  </use>
                  <path fill="none" stroke="white" stroke-width="1.5" d="M0,-3.0v7 M-2.5,-0.5L0,-3.0L2.5,-0.5"/>
                </g>
                <g id="arrowDown" xlink:href="#dirArrow" transform="rotate(180) translate(-30 -48)" onmousedown="handlePan(0,1)">
                  <use xlink:href="#rim" fill="#404040">
                        <set attributeName="fill" to="#808080" begin="arrowDown.mouseover" end="arrowDown.mouseout"/>
                  </use>
                  <path fill="none" stroke="white" stroke-width="1.5" d="M0,-3.0v7 M-2.5,-0.5L0,-3.0L2.5,-0.5"/>
                </g>
                <g id="arrowLeft" xlink:href="#dirArrow" transform="rotate(270) translate(-36 17)" onmousedown="handlePan(-1,0)">
                  <use xlink:href="#rim" fill="#404040">
                        <set attributeName="fill" to="#808080" begin="arrowLeft.mouseover" end="arrowLeft.mouseout"/>
                  </use>
                  <path fill="none" stroke="white" stroke-width="1.5" d="M0,-3.0v7 M-2.5,-0.5L0,-3.0L2.5,-0.5"/>
                </g>
        </g>
        <svg viewBox="0 0 15 15" width="100%" height="30px" preserveAspectRatio="xMaxYMin meet">
         <g id="arrow_out" transform="scale(0.3 0.3)">
          <a xlink:href="class_f_b_library_1_1_core_1_1_base_entities_1_1_base_arrow__inherit__graph_org.svg" target="_base">
           <rect id="button" ry="5" rx="5" y="6" x="6" height="38" width="38"
                fill="#f2f5e9" fill-opacity="0.5" stroke="#606060" stroke-width="1.0"/>
           <path id="arrow"
             d="M 11.500037,31.436501 C 11.940474,20.09759 22.043105,11.32322 32.158766,21.979434 L 37.068811,17.246167 C 37.068811,17.246167 37.088388,32 37.088388,32 L 22.160133,31.978069 C 22.160133,31.978069 26.997745,27.140456 26.997745,27.140456 C 18.528582,18.264221 13.291696,25.230495 11.500037,31.436501 z"
             style="fill:#404040;"/>
          </a>
         </g>
        </svg>
</svg>
