<?xml version="1.0" encoding="UTF-8" standalone="no"?>
<!DOCTYPE svg PUBLIC "-//W3C//DTD SVG 1.1//EN"
 "http://www.w3.org/Graphics/SVG/1.1/DTD/svg11.dtd">
<!-- Generated by graphviz version 2.34.0 (20130907.0111)
 -->
<!-- Title: FBClient.Core.Players.BaseHumanPlayer Pages: 1 -->
<svg width="317pt" height="388pt"
 viewBox="0.00 0.00 317.00 388.00" xmlns="http://www.w3.org/2000/svg" xmlns:xlink="http://www.w3.org/1999/xlink">
<g id="graph0" class="graph" transform="scale(1 1) rotate(0) translate(4 384)">
<title>FBClient.Core.Players.BaseHumanPlayer</title>
<polygon fill="white" stroke="white" points="-4,4 -4,-384 313,-384 313,4 -4,4"/>
<!-- Node1 -->
<g id="node1" class="node"><title>Node1</title>
<polygon fill="#bfbfbf" stroke="black" points="85.5,-69 85.5,-99 224.5,-99 224.5,-69 85.5,-69"/>
<text text-anchor="start" x="93.5" y="-87" font-family="Helvetica,sans-Serif" font-size="10.00">FBClient.Core.Players.Base</text>
<text text-anchor="middle" x="155" y="-76" font-family="Helvetica,sans-Serif" font-size="10.00">HumanPlayer</text>
</g>
<!-- Node7 -->
<g id="node7" class="node"><title>Node7</title>
<g id="a_node7"><a xlink:href="class_f_b_client_1_1_core_1_1_players_1_1_human_player.html" target="_top" xlink:title="FBClient.Core.Players.Human\lPlayer">
<polygon fill="white" stroke="black" points="-0.5,-1 -0.5,-31 146.5,-31 146.5,-1 -0.5,-1"/>
<text text-anchor="start" x="7.5" y="-19" font-family="Helvetica,sans-Serif" font-size="10.00">FBClient.Core.Players.Human</text>
<text text-anchor="middle" x="73" y="-8" font-family="Helvetica,sans-Serif" font-size="10.00">Player</text>
</a>
</g>
</g>
<!-- Node1&#45;&gt;Node7 -->
<g id="edge6" class="edge"><title>Node1&#45;&gt;Node7</title>
<path fill="none" stroke="midnightblue" d="M129.294,-62.3094C116.662,-52.1426 101.77,-40.1562 90.4764,-31.0663"/>
<polygon fill="midnightblue" stroke="midnightblue" points="127.223,-65.1354 137.207,-68.679 131.612,-59.6823 127.223,-65.1354"/>
</g>
<!-- Node8 -->
<g id="node8" class="node"><title>Node8</title>
<g id="a_node8"><a xlink:href="class_f_b_client_1_1_core_1_1_players_1_1_online_human_player.html" target="_top" xlink:title="FBClient.Core.Players.Online\lHumanPlayer">
<polygon fill="white" stroke="black" points="165,-1 165,-31 309,-31 309,-1 165,-1"/>
<text text-anchor="start" x="173" y="-19" font-family="Helvetica,sans-Serif" font-size="10.00">FBClient.Core.Players.Online</text>
<text text-anchor="middle" x="237" y="-8" font-family="Helvetica,sans-Serif" font-size="10.00">HumanPlayer</text>
</a>
</g>
</g>
<!-- Node1&#45;&gt;Node8 -->
<g id="edge7" class="edge"><title>Node1&#45;&gt;Node8</title>
<path fill="none" stroke="midnightblue" d="M180.706,-62.3094C193.338,-52.1426 208.23,-40.1562 219.524,-31.0663"/>
<polygon fill="midnightblue" stroke="midnightblue" points="178.388,-59.6823 172.793,-68.679 182.777,-65.1354 178.388,-59.6823"/>
</g>
<!-- Node2 -->
<g id="node2" class="node"><title>Node2</title>
<g id="a_node2"><a xlink:href="class_f_b_client_1_1_entities_1_1_player.html" target="_top" xlink:title="Player">
<polygon fill="white" stroke="black" points="133,-136.5 133,-155.5 177,-155.5 177,-136.5 133,-136.5"/>
<text text-anchor="middle" x="155" y="-143.5" font-family="Helvetica,sans-Serif" font-size="10.00">Player</text>
</a>
</g>
</g>
<!-- Node2&#45;&gt;Node1 -->
<g id="edge1" class="edge"><title>Node2&#45;&gt;Node1</title>
<path fill="none" stroke="midnightblue" d="M155,-126.371C155,-117.585 155,-107.272 155,-99.1408"/>
<polygon fill="midnightblue" stroke="midnightblue" points="151.5,-126.403 155,-136.403 158.5,-126.403 151.5,-126.403"/>
</g>
<!-- Node3 -->
<g id="node3" class="node"><title>Node3</title>
<g id="a_node3"><a xlink:href="class_f_b_library_1_1_core_1_1_base_entities_1_1_base_player.html" target="_top" xlink:title="BasePlayer">
<polygon fill="white" stroke="black" points="121.5,-192.5 121.5,-211.5 188.5,-211.5 188.5,-192.5 121.5,-192.5"/>
<text text-anchor="middle" x="155" y="-199.5" font-family="Helvetica,sans-Serif" font-size="10.00">BasePlayer</text>
</a>
</g>
</g>
<!-- Node3&#45;&gt;Node2 -->
<g id="edge2" class="edge"><title>Node3&#45;&gt;Node2</title>
<path fill="none" stroke="midnightblue" d="M155,-181.805C155,-172.91 155,-162.78 155,-155.751"/>
<polygon fill="midnightblue" stroke="midnightblue" points="151.5,-182.083 155,-192.083 158.5,-182.083 151.5,-182.083"/>
</g>
<!-- Node4 -->
<g id="node4" class="node"><title>Node4</title>
<g id="a_node4"><a xlink:href="class_f_b_library_1_1_core_1_1_dynamic_entity.html" target="_top" xlink:title="DynamicEntity">
<polygon fill="white" stroke="black" points="115,-248.5 115,-267.5 195,-267.5 195,-248.5 115,-248.5"/>
<text text-anchor="middle" x="155" y="-255.5" font-family="Helvetica,sans-Serif" font-size="10.00">DynamicEntity</text>
</a>
</g>
</g>
<!-- Node4&#45;&gt;Node3 -->
<g id="edge3" class="edge"><title>Node4&#45;&gt;Node3</title>
<path fill="none" stroke="midnightblue" d="M155,-237.805C155,-228.91 155,-218.78 155,-211.751"/>
<polygon fill="midnightblue" stroke="midnightblue" points="151.5,-238.083 155,-248.083 158.5,-238.083 151.5,-238.083"/>
</g>
<!-- Node5 -->
<g id="node5" class="node"><title>Node5</title>
<g id="a_node5"><a xlink:href="class_f_b_library_1_1_core_1_1_base_entity.html" target="_top" xlink:title="BaseEntity">
<polygon fill="white" stroke="black" points="122.5,-304.5 122.5,-323.5 187.5,-323.5 187.5,-304.5 122.5,-304.5"/>
<text text-anchor="middle" x="155" y="-311.5" font-family="Helvetica,sans-Serif" font-size="10.00">BaseEntity</text>
</a>
</g>
</g>
<!-- Node5&#45;&gt;Node4 -->
<g id="edge4" class="edge"><title>Node5&#45;&gt;Node4</title>
<path fill="none" stroke="midnightblue" d="M155,-293.805C155,-284.91 155,-274.78 155,-267.751"/>
<polygon fill="midnightblue" stroke="midnightblue" points="151.5,-294.083 155,-304.083 158.5,-294.083 151.5,-294.083"/>
</g>
<!-- Node6 -->
<g id="node6" class="node"><title>Node6</title>
<g id="a_node6"><a xlink:href="interface_f_b_library_1_1_core_1_1_i_entity.html" target="_top" xlink:title="IEntity">
<polygon fill="white" stroke="black" points="133,-360.5 133,-379.5 177,-379.5 177,-360.5 133,-360.5"/>
<text text-anchor="middle" x="155" y="-367.5" font-family="Helvetica,sans-Serif" font-size="10.00">IEntity</text>
</a>
</g>
</g>
<!-- Node6&#45;&gt;Node5 -->
<g id="edge5" class="edge"><title>Node6&#45;&gt;Node5</title>
<path fill="none" stroke="midnightblue" d="M155,-349.805C155,-340.91 155,-330.78 155,-323.751"/>
<polygon fill="midnightblue" stroke="midnightblue" points="151.5,-350.083 155,-360.083 158.5,-350.083 151.5,-350.083"/>
</g>
</g>
</svg>
