<?xml version="1.0" encoding="UTF-8" standalone="no"?>
<!DOCTYPE svg PUBLIC "-//W3C//DTD SVG 1.1//EN"
 "http://www.w3.org/Graphics/SVG/1.1/DTD/svg11.dtd">
<!-- Generated by graphviz version 2.34.0 (20130907.0111)
 -->
<!-- Title: FBLibrary.Core.BaseEntities.BasePowerUp Pages: 1 -->
<svg width="339pt" height="264pt"
 viewBox="0.00 0.00 339.00 264.00" xmlns="http://www.w3.org/2000/svg" xmlns:xlink="http://www.w3.org/1999/xlink">
<g id="graph0" class="graph" transform="scale(1 1) rotate(0) translate(4 260)">
<title>FBLibrary.Core.BaseEntities.BasePowerUp</title>
<polygon fill="white" stroke="white" points="-4,4 -4,-260 335,-260 335,4 -4,4"/>
<!-- Node1 -->
<g id="node1" class="node"><title>Node1</title>
<polygon fill="#bfbfbf" stroke="black" points="92.5,-57 92.5,-87 235.5,-87 235.5,-57 92.5,-57"/>
<text text-anchor="start" x="100.5" y="-75" font-family="Helvetica,sans-Serif" font-size="10.00">FBLibrary.Core.BaseEntities.</text>
<text text-anchor="middle" x="164" y="-64" font-family="Helvetica,sans-Serif" font-size="10.00">BasePowerUp</text>
</g>
<!-- Node5 -->
<g id="node5" class="node"><title>Node5</title>
<g id="a_node5"><a xlink:href="class_f_b_client_1_1_core_1_1_entities_1_1_power_up.html" target="_top" xlink:title="FBClient.Core.Entities.PowerUp">
<polygon fill="white" stroke="black" points="-0.5,-0.5 -0.5,-19.5 154.5,-19.5 154.5,-0.5 -0.5,-0.5"/>
<text text-anchor="middle" x="77" y="-7.5" font-family="Helvetica,sans-Serif" font-size="10.00">FBClient.Core.Entities.PowerUp</text>
</a>
</g>
</g>
<!-- Node1&#45;&gt;Node5 -->
<g id="edge4" class="edge"><title>Node1&#45;&gt;Node5</title>
<path fill="none" stroke="midnightblue" d="M135.109,-51.075C119.591,-40.3732 101.267,-27.736 89.4058,-19.5557"/>
<polygon fill="midnightblue" stroke="midnightblue" points="133.163,-53.9847 143.382,-56.7808 137.137,-48.2222 133.163,-53.9847"/>
</g>
<!-- Node6 -->
<g id="node6" class="node"><title>Node6</title>
<g id="a_node6"><a xlink:href="class_f_b_server_1_1_core_1_1_entities_1_1_power_up.html" target="_top" xlink:title="FBServer.Core.Entities.PowerUp">
<polygon fill="white" stroke="black" points="173,-0.5 173,-19.5 331,-19.5 331,-0.5 173,-0.5"/>
<text text-anchor="middle" x="252" y="-7.5" font-family="Helvetica,sans-Serif" font-size="10.00">FBServer.Core.Entities.PowerUp</text>
</a>
</g>
</g>
<!-- Node1&#45;&gt;Node6 -->
<g id="edge5" class="edge"><title>Node1&#45;&gt;Node6</title>
<path fill="none" stroke="midnightblue" d="M193.223,-51.075C208.919,-40.3732 227.454,-27.736 239.452,-19.5557"/>
<polygon fill="midnightblue" stroke="midnightblue" points="191.145,-48.2556 184.855,-56.7808 195.089,-54.0392 191.145,-48.2556"/>
</g>
<!-- Node2 -->
<g id="node2" class="node"><title>Node2</title>
<g id="a_node2"><a xlink:href="class_f_b_library_1_1_core_1_1_static_entity.html" target="_top" xlink:title="StaticEntity">
<polygon fill="white" stroke="black" points="130,-124.5 130,-143.5 198,-143.5 198,-124.5 130,-124.5"/>
<text text-anchor="middle" x="164" y="-131.5" font-family="Helvetica,sans-Serif" font-size="10.00">StaticEntity</text>
</a>
</g>
</g>
<!-- Node2&#45;&gt;Node1 -->
<g id="edge1" class="edge"><title>Node2&#45;&gt;Node1</title>
<path fill="none" stroke="midnightblue" d="M164,-114.371C164,-105.585 164,-95.2721 164,-87.1408"/>
<polygon fill="midnightblue" stroke="midnightblue" points="160.5,-114.403 164,-124.403 167.5,-114.403 160.5,-114.403"/>
</g>
<!-- Node3 -->
<g id="node3" class="node"><title>Node3</title>
<g id="a_node3"><a xlink:href="class_f_b_library_1_1_core_1_1_base_entity.html" target="_top" xlink:title="BaseEntity">
<polygon fill="white" stroke="black" points="131.5,-180.5 131.5,-199.5 196.5,-199.5 196.5,-180.5 131.5,-180.5"/>
<text text-anchor="middle" x="164" y="-187.5" font-family="Helvetica,sans-Serif" font-size="10.00">BaseEntity</text>
</a>
</g>
</g>
<!-- Node3&#45;&gt;Node2 -->
<g id="edge2" class="edge"><title>Node3&#45;&gt;Node2</title>
<path fill="none" stroke="midnightblue" d="M164,-169.805C164,-160.91 164,-150.78 164,-143.751"/>
<polygon fill="midnightblue" stroke="midnightblue" points="160.5,-170.083 164,-180.083 167.5,-170.083 160.5,-170.083"/>
</g>
<!-- Node4 -->
<g id="node4" class="node"><title>Node4</title>
<g id="a_node4"><a xlink:href="interface_f_b_library_1_1_core_1_1_i_entity.html" target="_top" xlink:title="IEntity">
<polygon fill="white" stroke="black" points="142,-236.5 142,-255.5 186,-255.5 186,-236.5 142,-236.5"/>
<text text-anchor="middle" x="164" y="-243.5" font-family="Helvetica,sans-Serif" font-size="10.00">IEntity</text>
</a>
</g>
</g>
<!-- Node4&#45;&gt;Node3 -->
<g id="edge3" class="edge"><title>Node4&#45;&gt;Node3</title>
<path fill="none" stroke="midnightblue" d="M164,-225.805C164,-216.91 164,-206.78 164,-199.751"/>
<polygon fill="midnightblue" stroke="midnightblue" points="160.5,-226.083 164,-236.083 167.5,-226.083 160.5,-226.083"/>
</g>
</g>
</svg>
