<?xml version="1.0" encoding="UTF-8" standalone="no"?>
<!DOCTYPE svg PUBLIC "-//W3C//DTD SVG 1.1//EN"
 "http://www.w3.org/Graphics/SVG/1.1/DTD/svg11.dtd">
<!-- Generated by graphviz version 2.34.0 (20130907.0111)
 -->
<!-- Title: FBClient.Screens.MenuScreens.LobbyMenuScreen Pages: 1 -->
<!--zoomable 734 -->
<svg id="main" version="1.1" xmlns="http://www.w3.org/2000/svg" xmlns:xlink="http://www.w3.org/1999/xlink" xml:space="preserve" onload="init(evt)">
<style type="text/css"><![CDATA[
.edge:hover path { stroke: red; }
.edge:hover polygon { stroke: red; fill: red; }
]]></style>
<script type="text/javascript"><![CDATA[
var edges = document.getElementsByTagName('g');
if (edges && edges.length) {
  for (var i=0;i<edges.length;i++) {
    if (edges[i].id.substr(0,4)=='edge') {
      edges[i].setAttribute('class','edge');
    }
  }
}
]]></script>
        <defs>
                <circle id="rim" cx="0" cy="0" r="7"/>
                <circle id="rim2" cx="0" cy="0" r="3.5"/>
                <g id="zoomPlus">
                        <use xlink:href="#rim" fill="#404040">
                                <set attributeName="fill" to="#808080" begin="zoomplus.mouseover" end="zoomplus.mouseout"/>
                        </use>
                        <path d="M-4,0h8M0,-4v8" fill="none" stroke="white" stroke-width="1.5" pointer-events="none"/>
                </g>
                <g id="zoomMin">
                        <use xlink:href="#rim" fill="#404040">
                                <set attributeName="fill" to="#808080" begin="zoomminus.mouseover" end="zoomminus.mouseout"/>
                        </use>
                        <path d="M-4,0h8" fill="none" stroke="white" stroke-width="1.5" pointer-events="none"/>
                </g>
                <g id="dirArrow">
                        <path fill="none" stroke="white" stroke-width="1.5" d="M0,-3.0v7 M-2.5,-0.5L0,-3.0L2.5,-0.5"/>
                </g>
               <g id="resetDef">
                       <use xlink:href="#rim2" fill="#404040">
                               <set attributeName="fill" to="#808080" begin="reset.mouseover" end="reset.mouseout"/>
                       </use>
               </g>
        </defs>

<script type="text/javascript">
var viewWidth = 423;
var viewHeight = 734;
var sectionId = 'dynsection-1';
</script>
<script xlink:href="svgpan.js"/>
<svg id="graph" class="graph">
<g id="viewport">
<title>FBClient.Screens.MenuScreens.LobbyMenuScreen</title>
<polygon fill="white" stroke="white" points="-4,4 -4,-730 419,-730 419,4 -4,4"/>
<!-- Node1 -->
<g id="node1" class="node"><title>Node1</title>
<polygon fill="#bfbfbf" stroke="black" points="221.5,-0.5 221.5,-123.5 380.5,-123.5 380.5,-0.5 221.5,-0.5"/>
<text text-anchor="start" x="229.5" y="-111.5" font-family="Helvetica,sans-Serif" font-size="10.00">FBClient.Screens.MenuScreens.</text>
<text text-anchor="middle" x="301" y="-100.5" font-family="Helvetica,sans-Serif" font-size="10.00">LobbyMenuScreen</text>
<polyline fill="none" stroke="black" points="221.5,-93.5 380.5,-93.5 "/>
<text text-anchor="middle" x="301" y="-81.5" font-family="Helvetica,sans-Serif" font-size="10.00"> </text>
<polyline fill="none" stroke="black" points="221.5,-74.5 380.5,-74.5 "/>
<text text-anchor="start" x="229.5" y="-62.5" font-family="Helvetica,sans-Serif" font-size="10.00">+ LobbyMenuScreen()</text>
<text text-anchor="start" x="229.5" y="-51.5" font-family="Helvetica,sans-Serif" font-size="10.00">+ Initialize()</text>
<text text-anchor="start" x="229.5" y="-40.5" font-family="Helvetica,sans-Serif" font-size="10.00">+ Update()</text>
<text text-anchor="start" x="229.5" y="-29.5" font-family="Helvetica,sans-Serif" font-size="10.00">+ Draw()</text>
<text text-anchor="start" x="229.5" y="-18.5" font-family="Helvetica,sans-Serif" font-size="10.00"># UnloadContent()</text>
<text text-anchor="start" x="229.5" y="-7.5" font-family="Helvetica,sans-Serif" font-size="10.00"># LoadContent()</text>
</g>
<!-- Node2 -->
<g id="node2" class="node"><title>Node2</title>
<g id="a_node2"><a xlink:href="class_f_b_client_1_1_screens_1_1_base_game_state.html" target="_top" xlink:title="{BaseGameState\n|# BigFont\l# playerIndexInControl\l|+ BaseGameState()\l+ Update()\l+ Draw()\l# LoadContent()\l}">
<polygon fill="white" stroke="black" points="244.5,-162.5 244.5,-263.5 357.5,-263.5 357.5,-162.5 244.5,-162.5"/>
<text text-anchor="middle" x="301" y="-251.5" font-family="Helvetica,sans-Serif" font-size="10.00">BaseGameState</text>
<polyline fill="none" stroke="black" points="244.5,-244.5 357.5,-244.5 "/>
<text text-anchor="start" x="252.5" y="-232.5" font-family="Helvetica,sans-Serif" font-size="10.00"># BigFont</text>
<text text-anchor="start" x="252.5" y="-221.5" font-family="Helvetica,sans-Serif" font-size="10.00"># playerIndexInControl</text>
<polyline fill="none" stroke="black" points="244.5,-214.5 357.5,-214.5 "/>
<text text-anchor="start" x="252.5" y="-202.5" font-family="Helvetica,sans-Serif" font-size="10.00">+ BaseGameState()</text>
<text text-anchor="start" x="252.5" y="-191.5" font-family="Helvetica,sans-Serif" font-size="10.00">+ Update()</text>
<text text-anchor="start" x="252.5" y="-180.5" font-family="Helvetica,sans-Serif" font-size="10.00">+ Draw()</text>
<text text-anchor="start" x="252.5" y="-169.5" font-family="Helvetica,sans-Serif" font-size="10.00"># LoadContent()</text>
</a>
</g>
</g>
<!-- Node2&#45;&gt;Node1 -->
<g id="edge1" class="edge"><title>Node2&#45;&gt;Node1</title>
<path fill="none" stroke="midnightblue" d="M301,-152.277C301,-142.814 301,-133.02 301,-123.539"/>
<polygon fill="none" stroke="midnightblue" points="297.5,-152.385 301,-162.385 304.5,-152.385 297.5,-152.385"/>
</g>
<!-- Node3 -->
<g id="node3" class="node"><title>Node3</title>
<g id="a_node3"><a xlink:href="class_f_b_client_1_1_controls_1_1_game_state.html" target="_top" xlink:title="{GameState\n|+ Components\l+ Tag\l|+ Initialize()\l+ Update()\l+ Draw()\l# GameState()\l# StateChange()\l# Show()\l# Hide()\l}">
<polygon fill="white" stroke="black" points="179.5,-318 179.5,-452 266.5,-452 266.5,-318 179.5,-318"/>
<text text-anchor="middle" x="223" y="-440" font-family="Helvetica,sans-Serif" font-size="10.00">GameState</text>
<polyline fill="none" stroke="black" points="179.5,-433 266.5,-433 "/>
<text text-anchor="start" x="187.5" y="-421" font-family="Helvetica,sans-Serif" font-size="10.00">+ Components</text>
<text text-anchor="start" x="187.5" y="-410" font-family="Helvetica,sans-Serif" font-size="10.00">+ Tag</text>
<polyline fill="none" stroke="black" points="179.5,-403 266.5,-403 "/>
<text text-anchor="start" x="187.5" y="-391" font-family="Helvetica,sans-Serif" font-size="10.00">+ Initialize()</text>
<text text-anchor="start" x="187.5" y="-380" font-family="Helvetica,sans-Serif" font-size="10.00">+ Update()</text>
<text text-anchor="start" x="187.5" y="-369" font-family="Helvetica,sans-Serif" font-size="10.00">+ Draw()</text>
<text text-anchor="start" x="187.5" y="-358" font-family="Helvetica,sans-Serif" font-size="10.00"># GameState()</text>
<text text-anchor="start" x="187.5" y="-347" font-family="Helvetica,sans-Serif" font-size="10.00"># StateChange()</text>
<text text-anchor="start" x="187.5" y="-336" font-family="Helvetica,sans-Serif" font-size="10.00"># Show()</text>
<text text-anchor="start" x="187.5" y="-325" font-family="Helvetica,sans-Serif" font-size="10.00"># Hide()</text>
</a>
</g>
</g>
<!-- Node3&#45;&gt;Node2 -->
<g id="edge2" class="edge"><title>Node3&#45;&gt;Node2</title>
<path fill="none" stroke="midnightblue" d="M257.677,-308.422C264.63,-293.269 271.768,-277.712 278.193,-263.708"/>
<polygon fill="none" stroke="midnightblue" points="254.369,-307.238 253.38,-317.787 260.732,-310.157 254.369,-307.238"/>
</g>
<!-- Node4 -->
<g id="node4" class="node"><title>Node4</title>
<polygon fill="white" stroke="#bfbfbf" points="0,-539.5 0,-596.5 132,-596.5 132,-539.5 0,-539.5"/>
<text text-anchor="middle" x="66" y="-584.5" font-family="Helvetica,sans-Serif" font-size="10.00">DrawableGameComponent</text>
<polyline fill="none" stroke="#bfbfbf" points="0,-577.5 132,-577.5 "/>
<text text-anchor="middle" x="66" y="-565.5" font-family="Helvetica,sans-Serif" font-size="10.00"> </text>
<polyline fill="none" stroke="#bfbfbf" points="0,-558.5 132,-558.5 "/>
<text text-anchor="middle" x="66" y="-546.5" font-family="Helvetica,sans-Serif" font-size="10.00"> </text>
</g>
<!-- Node4&#45;&gt;Node3 -->
<g id="edge3" class="edge"><title>Node4&#45;&gt;Node3</title>
<path fill="none" stroke="midnightblue" d="M96.8855,-531.393C120.465,-504.209 153.256,-466.405 179.492,-436.159"/>
<polygon fill="none" stroke="midnightblue" points="94.0957,-529.268 90.1872,-539.115 99.3837,-533.855 94.0957,-529.268"/>
</g>
<!-- Node5 -->
<g id="node5" class="node"><title>Node5</title>
<g id="a_node5"><a xlink:href="class_f_b_client_1_1_controls_1_1_game_state_manager.html" target="_top" xlink:title="{FBClient.Controls.GameState\lManager\n|+ CurrentState\l|+ GameStateManager()\l+ Initialize()\l+ Update()\l+ PopState()\l+ PushState()\l+ ChangeState()\l}">
<polygon fill="white" stroke="black" points="150,-506.5 150,-629.5 296,-629.5 296,-506.5 150,-506.5"/>
<text text-anchor="start" x="158" y="-617.5" font-family="Helvetica,sans-Serif" font-size="10.00">FBClient.Controls.GameState</text>
<text text-anchor="middle" x="223" y="-606.5" font-family="Helvetica,sans-Serif" font-size="10.00">Manager</text>
<polyline fill="none" stroke="black" points="150,-599.5 296,-599.5 "/>
<text text-anchor="start" x="158" y="-587.5" font-family="Helvetica,sans-Serif" font-size="10.00">+ CurrentState</text>
<polyline fill="none" stroke="black" points="150,-580.5 296,-580.5 "/>
<text text-anchor="start" x="158" y="-568.5" font-family="Helvetica,sans-Serif" font-size="10.00">+ GameStateManager()</text>
<text text-anchor="start" x="158" y="-557.5" font-family="Helvetica,sans-Serif" font-size="10.00">+ Initialize()</text>
<text text-anchor="start" x="158" y="-546.5" font-family="Helvetica,sans-Serif" font-size="10.00">+ Update()</text>
<text text-anchor="start" x="158" y="-535.5" font-family="Helvetica,sans-Serif" font-size="10.00">+ PopState()</text>
<text text-anchor="start" x="158" y="-524.5" font-family="Helvetica,sans-Serif" font-size="10.00">+ PushState()</text>
<text text-anchor="start" x="158" y="-513.5" font-family="Helvetica,sans-Serif" font-size="10.00">+ ChangeState()</text>
</a>
</g>
</g>
<!-- Node5&#45;&gt;Node3 -->
<g id="edge4" class="edge"><title>Node5&#45;&gt;Node3</title>
<path fill="none" stroke="#404040" d="M223,-506.478C223,-492.965 223,-478.448 223,-464.332"/>
<polygon fill="none" stroke="#404040" points="223,-464.066 219,-458.066 223,-452.066 227,-458.066 223,-464.066"/>
<text text-anchor="middle" x="258" y="-479.5" font-family="Helvetica,sans-Serif" font-size="10.00"> #StateManager</text>
</g>
<!-- Node6 -->
<g id="node6" class="node"><title>Node6</title>
<polygon fill="white" stroke="#bfbfbf" points="177,-668.5 177,-725.5 269,-725.5 269,-668.5 177,-668.5"/>
<text text-anchor="middle" x="223" y="-713.5" font-family="Helvetica,sans-Serif" font-size="10.00">GameComponent</text>
<polyline fill="none" stroke="#bfbfbf" points="177,-706.5 269,-706.5 "/>
<text text-anchor="middle" x="223" y="-694.5" font-family="Helvetica,sans-Serif" font-size="10.00"> </text>
<polyline fill="none" stroke="#bfbfbf" points="177,-687.5 269,-687.5 "/>
<text text-anchor="middle" x="223" y="-675.5" font-family="Helvetica,sans-Serif" font-size="10.00"> </text>
</g>
<!-- Node6&#45;&gt;Node5 -->
<g id="edge5" class="edge"><title>Node6&#45;&gt;Node5</title>
<path fill="none" stroke="midnightblue" d="M223,-658.283C223,-649.252 223,-639.384 223,-629.607"/>
<polygon fill="none" stroke="midnightblue" points="219.5,-658.443 223,-668.443 226.5,-658.443 219.5,-658.443"/>
</g>
<!-- Node7 -->
<g id="node7" class="node"><title>Node7</title>
<g id="a_node7"><a xlink:href="class_f_b_client_1_1_controls_1_1_control_manager.html" target="_top" xlink:title="{FBClient.Controls.Control\lManager\n|+ SpriteFont\l+ AcceptInput\l|+ ControlManager()\l+ ControlManager()\l+ ControlManager()\l+ Update()\l+ Draw()\l+ NextControl()\l+ PreviousControl()\l}">
<polygon fill="white" stroke="black" points="288.5,-312.5 288.5,-457.5 415.5,-457.5 415.5,-312.5 288.5,-312.5"/>
<text text-anchor="start" x="296.5" y="-445.5" font-family="Helvetica,sans-Serif" font-size="10.00">FBClient.Controls.Control</text>
<text text-anchor="middle" x="352" y="-434.5" font-family="Helvetica,sans-Serif" font-size="10.00">Manager</text>
<polyline fill="none" stroke="black" points="288.5,-427.5 415.5,-427.5 "/>
<text text-anchor="start" x="296.5" y="-415.5" font-family="Helvetica,sans-Serif" font-size="10.00">+ SpriteFont</text>
<text text-anchor="start" x="296.5" y="-404.5" font-family="Helvetica,sans-Serif" font-size="10.00">+ AcceptInput</text>
<polyline fill="none" stroke="black" points="288.5,-397.5 415.5,-397.5 "/>
<text text-anchor="start" x="296.5" y="-385.5" font-family="Helvetica,sans-Serif" font-size="10.00">+ ControlManager()</text>
<text text-anchor="start" x="296.5" y="-374.5" font-family="Helvetica,sans-Serif" font-size="10.00">+ ControlManager()</text>
<text text-anchor="start" x="296.5" y="-363.5" font-family="Helvetica,sans-Serif" font-size="10.00">+ ControlManager()</text>
<text text-anchor="start" x="296.5" y="-352.5" font-family="Helvetica,sans-Serif" font-size="10.00">+ Update()</text>
<text text-anchor="start" x="296.5" y="-341.5" font-family="Helvetica,sans-Serif" font-size="10.00">+ Draw()</text>
<text text-anchor="start" x="296.5" y="-330.5" font-family="Helvetica,sans-Serif" font-size="10.00">+ NextControl()</text>
<text text-anchor="start" x="296.5" y="-319.5" font-family="Helvetica,sans-Serif" font-size="10.00">+ PreviousControl()</text>
</a>
</g>
</g>
<!-- Node7&#45;&gt;Node2 -->
<g id="edge6" class="edge"><title>Node7&#45;&gt;Node2</title>
<path fill="none" stroke="#404040" d="M330.519,-312.397C326.824,-300.079 323.013,-287.376 319.407,-275.358"/>
<polygon fill="none" stroke="#404040" points="319.33,-275.101 313.775,-270.504 315.882,-263.607 321.438,-268.205 319.33,-275.101"/>
<text text-anchor="middle" x="363.5" y="-285.5" font-family="Helvetica,sans-Serif" font-size="10.00"> #ControlManager</text>
</g>
<!-- Node8 -->
<g id="node8" class="node"><title>Node8</title>
<polygon fill="white" stroke="#bfbfbf" points="314.5,-539.5 314.5,-596.5 395.5,-596.5 395.5,-539.5 314.5,-539.5"/>
<text text-anchor="middle" x="355" y="-584.5" font-family="Helvetica,sans-Serif" font-size="10.00">List&lt; Control &gt;</text>
<polyline fill="none" stroke="#bfbfbf" points="314.5,-577.5 395.5,-577.5 "/>
<text text-anchor="middle" x="355" y="-565.5" font-family="Helvetica,sans-Serif" font-size="10.00"> </text>
<polyline fill="none" stroke="#bfbfbf" points="314.5,-558.5 395.5,-558.5 "/>
<text text-anchor="middle" x="355" y="-546.5" font-family="Helvetica,sans-Serif" font-size="10.00"> </text>
</g>
<!-- Node8&#45;&gt;Node7 -->
<g id="edge7" class="edge"><title>Node8&#45;&gt;Node7</title>
<path fill="none" stroke="midnightblue" d="M354.368,-528.86C354.026,-508.208 353.591,-482.009 353.188,-457.704"/>
<polygon fill="none" stroke="midnightblue" points="350.872,-529.175 354.538,-539.115 357.872,-529.059 350.872,-529.175"/>
</g>
</g>
</svg>
        <g id="navigator" transform="translate(0 0)" fill="#404254">
                <rect fill="#f2f5e9" fill-opacity="0.5" stroke="#606060" stroke-width=".5" x="0" y="0" width="60" height="60"/>
                <use id="zoomplus" xlink:href="#zoomPlus" x="17" y="9" onmousedown="handleZoom(evt,'in')"/>
                <use id="zoomminus" xlink:href="#zoomMin" x="42" y="9" onmousedown="handleZoom(evt,'out')"/>
                <use id="reset" xlink:href="#resetDef" x="30" y="36" onmousedown="handleReset()"/>
                <g id="arrowUp" xlink:href="#dirArrow" transform="translate(30 24)" onmousedown="handlePan(0,-1)">
                  <use xlink:href="#rim" fill="#404040">
                        <set attributeName="fill" to="#808080" begin="arrowUp.mouseover" end="arrowUp.mouseout"/>
                  </use>
                  <path fill="none" stroke="white" stroke-width="1.5" d="M0,-3.0v7 M-2.5,-0.5L0,-3.0L2.5,-0.5"/>
                </g>
                <g id="arrowRight" xlink:href="#dirArrow" transform="rotate(90) translate(36 -43)" onmousedown="handlePan(1,0)">
                  <use xlink:href="#rim" fill="#404040">
                        <set attributeName="fill" to="#808080" begin="arrowRight.mouseover" end="arrowRight.mouseout"/>
                  </use>
                  <path fill="none" stroke="white" stroke-width="1.5" d="M0,-3.0v7 M-2.5,-0.5L0,-3.0L2.5,-0.5"/>
                </g>
                <g id="arrowDown" xlink:href="#dirArrow" transform="rotate(180) translate(-30 -48)" onmousedown="handlePan(0,1)">
                  <use xlink:href="#rim" fill="#404040">
                        <set attributeName="fill" to="#808080" begin="arrowDown.mouseover" end="arrowDown.mouseout"/>
                  </use>
                  <path fill="none" stroke="white" stroke-width="1.5" d="M0,-3.0v7 M-2.5,-0.5L0,-3.0L2.5,-0.5"/>
                </g>
                <g id="arrowLeft" xlink:href="#dirArrow" transform="rotate(270) translate(-36 17)" onmousedown="handlePan(-1,0)">
                  <use xlink:href="#rim" fill="#404040">
                        <set attributeName="fill" to="#808080" begin="arrowLeft.mouseover" end="arrowLeft.mouseout"/>
                  </use>
                  <path fill="none" stroke="white" stroke-width="1.5" d="M0,-3.0v7 M-2.5,-0.5L0,-3.0L2.5,-0.5"/>
                </g>
        </g>
        <svg viewBox="0 0 15 15" width="100%" height="30px" preserveAspectRatio="xMaxYMin meet">
         <g id="arrow_out" transform="scale(0.3 0.3)">
          <a xlink:href="class_f_b_client_1_1_screens_1_1_menu_screens_1_1_lobby_menu_screen__coll__graph_org.svg" target="_base">
           <rect id="button" ry="5" rx="5" y="6" x="6" height="38" width="38"
                fill="#f2f5e9" fill-opacity="0.5" stroke="#606060" stroke-width="1.0"/>
           <path id="arrow"
             d="M 11.500037,31.436501 C 11.940474,20.09759 22.043105,11.32322 32.158766,21.979434 L 37.068811,17.246167 C 37.068811,17.246167 37.088388,32 37.088388,32 L 22.160133,31.978069 C 22.160133,31.978069 26.997745,27.140456 26.997745,27.140456 C 18.528582,18.264221 13.291696,25.230495 11.500037,31.436501 z"
             style="fill:#404040;"/>
          </a>
         </g>
        </svg>
</svg>
