<?xml version="1.0" encoding="UTF-8" standalone="no"?>
<!DOCTYPE svg PUBLIC "-//W3C//DTD SVG 1.1//EN"
 "http://www.w3.org/Graphics/SVG/1.1/DTD/svg11.dtd">
<!-- Generated by graphviz version 2.34.0 (20130907.0111)
 -->
<!-- Title: FBLibrary.Core.BaseEntities.BaseBomb Pages: 1 -->
<svg width="312pt" height="264pt"
 viewBox="0.00 0.00 312.00 264.00" xmlns="http://www.w3.org/2000/svg" xmlns:xlink="http://www.w3.org/1999/xlink">
<g id="graph0" class="graph" transform="scale(1 1) rotate(0) translate(4 260)">
<title>FBLibrary.Core.BaseEntities.BaseBomb</title>
<polygon fill="white" stroke="white" points="-4,4 -4,-260 308,-260 308,4 -4,4"/>
<!-- Node1 -->
<g id="node1" class="node"><title>Node1</title>
<polygon fill="#bfbfbf" stroke="black" points="79.5,-57 79.5,-87 222.5,-87 222.5,-57 79.5,-57"/>
<text text-anchor="start" x="87.5" y="-75" font-family="Helvetica,sans-Serif" font-size="10.00">FBLibrary.Core.BaseEntities.</text>
<text text-anchor="middle" x="151" y="-64" font-family="Helvetica,sans-Serif" font-size="10.00">BaseBomb</text>
</g>
<!-- Node5 -->
<g id="node5" class="node"><title>Node5</title>
<g id="a_node5"><a xlink:href="class_f_b_client_1_1_core_1_1_entities_1_1_bomb.html" target="_top" xlink:title="FBClient.Core.Entities.Bomb">
<polygon fill="white" stroke="black" points="0,-0.5 0,-19.5 142,-19.5 142,-0.5 0,-0.5"/>
<text text-anchor="middle" x="71" y="-7.5" font-family="Helvetica,sans-Serif" font-size="10.00">FBClient.Core.Entities.Bomb</text>
</a>
</g>
</g>
<!-- Node1&#45;&gt;Node5 -->
<g id="edge4" class="edge"><title>Node1&#45;&gt;Node5</title>
<path fill="none" stroke="midnightblue" d="M123.691,-50.5179C109.685,-40.0137 93.3636,-27.7727 82.6407,-19.7305"/>
<polygon fill="midnightblue" stroke="midnightblue" points="121.941,-53.5808 132.041,-56.7808 126.141,-47.9808 121.941,-53.5808"/>
</g>
<!-- Node6 -->
<g id="node6" class="node"><title>Node6</title>
<g id="a_node6"><a xlink:href="class_f_b_server_1_1_core_1_1_entities_1_1_bomb.html" target="_top" xlink:title="FBServer.Core.Entities.Bomb">
<polygon fill="white" stroke="black" points="160,-0.5 160,-19.5 304,-19.5 304,-0.5 160,-0.5"/>
<text text-anchor="middle" x="232" y="-7.5" font-family="Helvetica,sans-Serif" font-size="10.00">FBServer.Core.Entities.Bomb</text>
</a>
</g>
</g>
<!-- Node1&#45;&gt;Node6 -->
<g id="edge5" class="edge"><title>Node1&#45;&gt;Node6</title>
<path fill="none" stroke="midnightblue" d="M178.25,-50.8148C192.519,-40.245 209.254,-27.8485 220.214,-19.7305"/>
<polygon fill="midnightblue" stroke="midnightblue" points="176.148,-48.0161 170.196,-56.7808 180.315,-53.641 176.148,-48.0161"/>
</g>
<!-- Node2 -->
<g id="node2" class="node"><title>Node2</title>
<g id="a_node2"><a xlink:href="class_f_b_library_1_1_core_1_1_dynamic_entity.html" target="_top" xlink:title="DynamicEntity">
<polygon fill="white" stroke="black" points="111,-124.5 111,-143.5 191,-143.5 191,-124.5 111,-124.5"/>
<text text-anchor="middle" x="151" y="-131.5" font-family="Helvetica,sans-Serif" font-size="10.00">DynamicEntity</text>
</a>
</g>
</g>
<!-- Node2&#45;&gt;Node1 -->
<g id="edge1" class="edge"><title>Node2&#45;&gt;Node1</title>
<path fill="none" stroke="midnightblue" d="M151,-114.371C151,-105.585 151,-95.2721 151,-87.1408"/>
<polygon fill="midnightblue" stroke="midnightblue" points="147.5,-114.403 151,-124.403 154.5,-114.403 147.5,-114.403"/>
</g>
<!-- Node3 -->
<g id="node3" class="node"><title>Node3</title>
<g id="a_node3"><a xlink:href="class_f_b_library_1_1_core_1_1_base_entity.html" target="_top" xlink:title="BaseEntity">
<polygon fill="white" stroke="black" points="118.5,-180.5 118.5,-199.5 183.5,-199.5 183.5,-180.5 118.5,-180.5"/>
<text text-anchor="middle" x="151" y="-187.5" font-family="Helvetica,sans-Serif" font-size="10.00">BaseEntity</text>
</a>
</g>
</g>
<!-- Node3&#45;&gt;Node2 -->
<g id="edge2" class="edge"><title>Node3&#45;&gt;Node2</title>
<path fill="none" stroke="midnightblue" d="M151,-169.805C151,-160.91 151,-150.78 151,-143.751"/>
<polygon fill="midnightblue" stroke="midnightblue" points="147.5,-170.083 151,-180.083 154.5,-170.083 147.5,-170.083"/>
</g>
<!-- Node4 -->
<g id="node4" class="node"><title>Node4</title>
<g id="a_node4"><a xlink:href="interface_f_b_library_1_1_core_1_1_i_entity.html" target="_top" xlink:title="IEntity">
<polygon fill="white" stroke="black" points="129,-236.5 129,-255.5 173,-255.5 173,-236.5 129,-236.5"/>
<text text-anchor="middle" x="151" y="-243.5" font-family="Helvetica,sans-Serif" font-size="10.00">IEntity</text>
</a>
</g>
</g>
<!-- Node4&#45;&gt;Node3 -->
<g id="edge3" class="edge"><title>Node4&#45;&gt;Node3</title>
<path fill="none" stroke="midnightblue" d="M151,-225.805C151,-216.91 151,-206.78 151,-199.751"/>
<polygon fill="midnightblue" stroke="midnightblue" points="147.5,-226.083 151,-236.083 154.5,-226.083 147.5,-226.083"/>
</g>
</g>
</svg>
