<?xml version="1.0" encoding="UTF-8" standalone="no"?>
<!DOCTYPE svg PUBLIC "-//W3C//DTD SVG 1.1//EN"
 "http://www.w3.org/Graphics/SVG/1.1/DTD/svg11.dtd">
<!-- Generated by graphviz version 2.34.0 (20130907.0111)
 -->
<!-- Title: FBClient.Screens.GameScreens.GamePlayScreen Pages: 1 -->
<!--zoomable 680 -->
<svg id="main" version="1.1" xmlns="http://www.w3.org/2000/svg" xmlns:xlink="http://www.w3.org/1999/xlink" xml:space="preserve" onload="init(evt)">
<style type="text/css"><![CDATA[
.edge:hover path { stroke: red; }
.edge:hover polygon { stroke: red; fill: red; }
]]></style>
<script type="text/javascript"><![CDATA[
var edges = document.getElementsByTagName('g');
if (edges && edges.length) {
  for (var i=0;i<edges.length;i++) {
    if (edges[i].id.substr(0,4)=='edge') {
      edges[i].setAttribute('class','edge');
    }
  }
}
]]></script>
        <defs>
                <circle id="rim" cx="0" cy="0" r="7"/>
                <circle id="rim2" cx="0" cy="0" r="3.5"/>
                <g id="zoomPlus">
                        <use xlink:href="#rim" fill="#404040">
                                <set attributeName="fill" to="#808080" begin="zoomplus.mouseover" end="zoomplus.mouseout"/>
                        </use>
                        <path d="M-4,0h8M0,-4v8" fill="none" stroke="white" stroke-width="1.5" pointer-events="none"/>
                </g>
                <g id="zoomMin">
                        <use xlink:href="#rim" fill="#404040">
                                <set attributeName="fill" to="#808080" begin="zoomminus.mouseover" end="zoomminus.mouseout"/>
                        </use>
                        <path d="M-4,0h8" fill="none" stroke="white" stroke-width="1.5" pointer-events="none"/>
                </g>
                <g id="dirArrow">
                        <path fill="none" stroke="white" stroke-width="1.5" d="M0,-3.0v7 M-2.5,-0.5L0,-3.0L2.5,-0.5"/>
                </g>
               <g id="resetDef">
                       <use xlink:href="#rim2" fill="#404040">
                               <set attributeName="fill" to="#808080" begin="reset.mouseover" end="reset.mouseout"/>
                       </use>
               </g>
        </defs>

<script type="text/javascript">
var viewWidth = 168;
var viewHeight = 680;
var sectionId = 'dynsection-0';
</script>
<script xlink:href="svgpan.js"/>
<svg id="graph" class="graph">
<g id="viewport">
<title>FBClient.Screens.GameScreens.GamePlayScreen</title>
<polygon fill="white" stroke="white" points="-4,4 -4,-676 164,-676 164,4 -4,4"/>
<!-- Node1 -->
<g id="node1" class="node"><title>Node1</title>
<polygon fill="#bfbfbf" stroke="black" points="-0.5,-1 -0.5,-245 160.5,-245 160.5,-1 -0.5,-1"/>
<text text-anchor="start" x="7.5" y="-233" font-family="Helvetica,sans-Serif" font-size="10.00">FBClient.Screens.GameScreens.</text>
<text text-anchor="middle" x="80" y="-222" font-family="Helvetica,sans-Serif" font-size="10.00">GamePlayScreen</text>
<polyline fill="none" stroke="black" points="-0.5,-215 160.5,-215 "/>
<text text-anchor="start" x="7.5" y="-203" font-family="Helvetica,sans-Serif" font-size="10.00">+ World</text>
<text text-anchor="start" x="7.5" y="-192" font-family="Helvetica,sans-Serif" font-size="10.00">+ PlayerList</text>
<text text-anchor="start" x="7.5" y="-181" font-family="Helvetica,sans-Serif" font-size="10.00">+ BombList</text>
<text text-anchor="start" x="7.5" y="-170" font-family="Helvetica,sans-Serif" font-size="10.00">+ UnbreakableWallList</text>
<text text-anchor="start" x="7.5" y="-159" font-family="Helvetica,sans-Serif" font-size="10.00">+ TeleporterList</text>
<text text-anchor="start" x="7.5" y="-148" font-family="Helvetica,sans-Serif" font-size="10.00">+ ArrowList</text>
<text text-anchor="start" x="7.5" y="-137" font-family="Helvetica,sans-Serif" font-size="10.00">+ SuddenDeath</text>
<text text-anchor="start" x="7.5" y="-126" font-family="Helvetica,sans-Serif" font-size="10.00">+ MapSongHurry</text>
<text text-anchor="start" x="7.5" y="-115" font-family="Helvetica,sans-Serif" font-size="10.00">+ BombExplosionSound</text>
<text text-anchor="start" x="7.5" y="-104" font-family="Helvetica,sans-Serif" font-size="10.00">+ ItemPickUpSound</text>
<text text-anchor="start" x="7.5" y="-93" font-family="Helvetica,sans-Serif" font-size="10.00">+ PlayerDeathSound</text>
<text text-anchor="start" x="7.5" y="-82" font-family="Helvetica,sans-Serif" font-size="10.00">+ Random</text>
<polyline fill="none" stroke="black" points="-0.5,-75 160.5,-75 "/>
<text text-anchor="start" x="7.5" y="-63" font-family="Helvetica,sans-Serif" font-size="10.00">+ GamePlayScreen()</text>
<text text-anchor="start" x="7.5" y="-52" font-family="Helvetica,sans-Serif" font-size="10.00">+ Initialize()</text>
<text text-anchor="start" x="7.5" y="-41" font-family="Helvetica,sans-Serif" font-size="10.00">+ Update()</text>
<text text-anchor="start" x="7.5" y="-30" font-family="Helvetica,sans-Serif" font-size="10.00">+ Draw()</text>
<text text-anchor="start" x="7.5" y="-19" font-family="Helvetica,sans-Serif" font-size="10.00">+ AddBomb()</text>
<text text-anchor="start" x="7.5" y="-8" font-family="Helvetica,sans-Serif" font-size="10.00"># LoadContent()</text>
</g>
<!-- Node2 -->
<g id="node2" class="node"><title>Node2</title>
<g id="a_node2"><a xlink:href="class_f_b_client_1_1_screens_1_1_base_game_state.html" target="_top" xlink:title="{BaseGameState\n|# ControlManager\l# BigFont\l# playerIndexInControl\l|+ BaseGameState()\l+ Update()\l+ Draw()\l# LoadContent()\l}">
<polygon fill="white" stroke="black" points="23.5,-283 23.5,-395 136.5,-395 136.5,-283 23.5,-283"/>
<text text-anchor="middle" x="80" y="-383" font-family="Helvetica,sans-Serif" font-size="10.00">BaseGameState</text>
<polyline fill="none" stroke="black" points="23.5,-376 136.5,-376 "/>
<text text-anchor="start" x="31.5" y="-364" font-family="Helvetica,sans-Serif" font-size="10.00"># ControlManager</text>
<text text-anchor="start" x="31.5" y="-353" font-family="Helvetica,sans-Serif" font-size="10.00"># BigFont</text>
<text text-anchor="start" x="31.5" y="-342" font-family="Helvetica,sans-Serif" font-size="10.00"># playerIndexInControl</text>
<polyline fill="none" stroke="black" points="23.5,-335 136.5,-335 "/>
<text text-anchor="start" x="31.5" y="-323" font-family="Helvetica,sans-Serif" font-size="10.00">+ BaseGameState()</text>
<text text-anchor="start" x="31.5" y="-312" font-family="Helvetica,sans-Serif" font-size="10.00">+ Update()</text>
<text text-anchor="start" x="31.5" y="-301" font-family="Helvetica,sans-Serif" font-size="10.00">+ Draw()</text>
<text text-anchor="start" x="31.5" y="-290" font-family="Helvetica,sans-Serif" font-size="10.00"># LoadContent()</text>
</a>
</g>
</g>
<!-- Node2&#45;&gt;Node1 -->
<g id="edge1" class="edge"><title>Node2&#45;&gt;Node1</title>
<path fill="none" stroke="midnightblue" d="M80,-272.719C80,-263.863 80,-254.555 80,-245.097"/>
<polygon fill="none" stroke="midnightblue" points="76.5001,-272.89 80,-282.89 83.5001,-272.89 76.5001,-272.89"/>
</g>
<!-- Node3 -->
<g id="node3" class="node"><title>Node3</title>
<g id="a_node3"><a xlink:href="class_f_b_client_1_1_controls_1_1_game_state.html" target="_top" xlink:title="{GameState\n|+ Components\l+ Tag\l# StateManager\l|+ Initialize()\l+ Update()\l+ Draw()\l# GameState()\l# StateChange()\l# Show()\l# Hide()\l}">
<polygon fill="white" stroke="black" points="36.5,-432.5 36.5,-577.5 123.5,-577.5 123.5,-432.5 36.5,-432.5"/>
<text text-anchor="middle" x="80" y="-565.5" font-family="Helvetica,sans-Serif" font-size="10.00">GameState</text>
<polyline fill="none" stroke="black" points="36.5,-558.5 123.5,-558.5 "/>
<text text-anchor="start" x="44.5" y="-546.5" font-family="Helvetica,sans-Serif" font-size="10.00">+ Components</text>
<text text-anchor="start" x="44.5" y="-535.5" font-family="Helvetica,sans-Serif" font-size="10.00">+ Tag</text>
<text text-anchor="start" x="44.5" y="-524.5" font-family="Helvetica,sans-Serif" font-size="10.00"># StateManager</text>
<polyline fill="none" stroke="black" points="36.5,-517.5 123.5,-517.5 "/>
<text text-anchor="start" x="44.5" y="-505.5" font-family="Helvetica,sans-Serif" font-size="10.00">+ Initialize()</text>
<text text-anchor="start" x="44.5" y="-494.5" font-family="Helvetica,sans-Serif" font-size="10.00">+ Update()</text>
<text text-anchor="start" x="44.5" y="-483.5" font-family="Helvetica,sans-Serif" font-size="10.00">+ Draw()</text>
<text text-anchor="start" x="44.5" y="-472.5" font-family="Helvetica,sans-Serif" font-size="10.00"># GameState()</text>
<text text-anchor="start" x="44.5" y="-461.5" font-family="Helvetica,sans-Serif" font-size="10.00"># StateChange()</text>
<text text-anchor="start" x="44.5" y="-450.5" font-family="Helvetica,sans-Serif" font-size="10.00"># Show()</text>
<text text-anchor="start" x="44.5" y="-439.5" font-family="Helvetica,sans-Serif" font-size="10.00"># Hide()</text>
</a>
</g>
</g>
<!-- Node3&#45;&gt;Node2 -->
<g id="edge2" class="edge"><title>Node3&#45;&gt;Node2</title>
<path fill="none" stroke="midnightblue" d="M80,-421.855C80,-412.789 80,-403.726 80,-395.109"/>
<polygon fill="none" stroke="midnightblue" points="76.5001,-422.067 80,-432.067 83.5001,-422.067 76.5001,-422.067"/>
</g>
<!-- Node4 -->
<g id="node4" class="node"><title>Node4</title>
<polygon fill="white" stroke="#bfbfbf" points="14,-614.5 14,-671.5 146,-671.5 146,-614.5 14,-614.5"/>
<text text-anchor="middle" x="80" y="-659.5" font-family="Helvetica,sans-Serif" font-size="10.00">DrawableGameComponent</text>
<polyline fill="none" stroke="#bfbfbf" points="14,-652.5 146,-652.5 "/>
<text text-anchor="middle" x="80" y="-640.5" font-family="Helvetica,sans-Serif" font-size="10.00"> </text>
<polyline fill="none" stroke="#bfbfbf" points="14,-633.5 146,-633.5 "/>
<text text-anchor="middle" x="80" y="-621.5" font-family="Helvetica,sans-Serif" font-size="10.00"> </text>
</g>
<!-- Node4&#45;&gt;Node3 -->
<g id="edge3" class="edge"><title>Node4&#45;&gt;Node3</title>
<path fill="none" stroke="midnightblue" d="M80,-604.356C80,-595.999 80,-586.872 80,-577.656"/>
<polygon fill="none" stroke="midnightblue" points="76.5001,-604.478 80,-614.478 83.5001,-604.478 76.5001,-604.478"/>
</g>
</g>
</svg>
        <g id="navigator" transform="translate(0 0)" fill="#404254">
                <rect fill="#f2f5e9" fill-opacity="0.5" stroke="#606060" stroke-width=".5" x="0" y="0" width="60" height="60"/>
                <use id="zoomplus" xlink:href="#zoomPlus" x="17" y="9" onmousedown="handleZoom(evt,'in')"/>
                <use id="zoomminus" xlink:href="#zoomMin" x="42" y="9" onmousedown="handleZoom(evt,'out')"/>
                <use id="reset" xlink:href="#resetDef" x="30" y="36" onmousedown="handleReset()"/>
                <g id="arrowUp" xlink:href="#dirArrow" transform="translate(30 24)" onmousedown="handlePan(0,-1)">
                  <use xlink:href="#rim" fill="#404040">
                        <set attributeName="fill" to="#808080" begin="arrowUp.mouseover" end="arrowUp.mouseout"/>
                  </use>
                  <path fill="none" stroke="white" stroke-width="1.5" d="M0,-3.0v7 M-2.5,-0.5L0,-3.0L2.5,-0.5"/>
                </g>
                <g id="arrowRight" xlink:href="#dirArrow" transform="rotate(90) translate(36 -43)" onmousedown="handlePan(1,0)">
                  <use xlink:href="#rim" fill="#404040">
                        <set attributeName="fill" to="#808080" begin="arrowRight.mouseover" end="arrowRight.mouseout"/>
                  </use>
                  <path fill="none" stroke="white" stroke-width="1.5" d="M0,-3.0v7 M-2.5,-0.5L0,-3.0L2.5,-0.5"/>
                </g>
                <g id="arrowDown" xlink:href="#dirArrow" transform="rotate(180) translate(-30 -48)" onmousedown="handlePan(0,1)">
                  <use xlink:href="#rim" fill="#404040">
                        <set attributeName="fill" to="#808080" begin="arrowDown.mouseover" end="arrowDown.mouseout"/>
                  </use>
                  <path fill="none" stroke="white" stroke-width="1.5" d="M0,-3.0v7 M-2.5,-0.5L0,-3.0L2.5,-0.5"/>
                </g>
                <g id="arrowLeft" xlink:href="#dirArrow" transform="rotate(270) translate(-36 17)" onmousedown="handlePan(-1,0)">
                  <use xlink:href="#rim" fill="#404040">
                        <set attributeName="fill" to="#808080" begin="arrowLeft.mouseover" end="arrowLeft.mouseout"/>
                  </use>
                  <path fill="none" stroke="white" stroke-width="1.5" d="M0,-3.0v7 M-2.5,-0.5L0,-3.0L2.5,-0.5"/>
                </g>
        </g>
        <svg viewBox="0 0 15 15" width="100%" height="30px" preserveAspectRatio="xMaxYMin meet">
         <g id="arrow_out" transform="scale(0.3 0.3)">
          <a xlink:href="class_f_b_client_1_1_screens_1_1_game_screens_1_1_game_play_screen__inherit__graph_org.svg" target="_base">
           <rect id="button" ry="5" rx="5" y="6" x="6" height="38" width="38"
                fill="#f2f5e9" fill-opacity="0.5" stroke="#606060" stroke-width="1.0"/>
           <path id="arrow"
             d="M 11.500037,31.436501 C 11.940474,20.09759 22.043105,11.32322 32.158766,21.979434 L 37.068811,17.246167 C 37.068811,17.246167 37.088388,32 37.088388,32 L 22.160133,31.978069 C 22.160133,31.978069 26.997745,27.140456 26.997745,27.140456 C 18.528582,18.264221 13.291696,25.230495 11.500037,31.436501 z"
             style="fill:#404040;"/>
          </a>
         </g>
        </svg>
</svg>
