<?xml version="1.0" encoding="UTF-8" standalone="no"?>
<!DOCTYPE svg PUBLIC "-//W3C//DTD SVG 1.1//EN"
 "http://www.w3.org/Graphics/SVG/1.1/DTD/svg11.dtd">
<!-- Generated by graphviz version 2.34.0 (20130907.0111)
 -->
<!-- Title: FBClient.Screens.MenuScreens.MultiplayerGameModeMenuScreen Pages: 1 -->
<svg width="176pt" height="264pt"
 viewBox="0.00 0.00 176.00 264.00" xmlns="http://www.w3.org/2000/svg" xmlns:xlink="http://www.w3.org/1999/xlink">
<g id="graph0" class="graph" transform="scale(1 1) rotate(0) translate(4 260)">
<title>FBClient.Screens.MenuScreens.MultiplayerGameModeMenuScreen</title>
<polygon fill="white" stroke="white" points="-4,4 -4,-260 172,-260 172,4 -4,4"/>
<!-- Node1 -->
<g id="node1" class="node"><title>Node1</title>
<polygon fill="#bfbfbf" stroke="black" points="-0.5,-1 -0.5,-31 168.5,-31 168.5,-1 -0.5,-1"/>
<text text-anchor="start" x="7.5" y="-19" font-family="Helvetica,sans-Serif" font-size="10.00">FBClient.Screens.MenuScreens.</text>
<text text-anchor="middle" x="84" y="-8" font-family="Helvetica,sans-Serif" font-size="10.00">MultiplayerGameModeMenuScreen</text>
</g>
<!-- Node2 -->
<g id="node2" class="node"><title>Node2</title>
<g id="a_node2"><a xlink:href="class_f_b_client_1_1_screens_1_1_base_menu_screen.html" target="_top" xlink:title="BaseMenuScreen">
<polygon fill="white" stroke="black" points="37,-68.5 37,-87.5 131,-87.5 131,-68.5 37,-68.5"/>
<text text-anchor="middle" x="84" y="-75.5" font-family="Helvetica,sans-Serif" font-size="10.00">BaseMenuScreen</text>
</a>
</g>
</g>
<!-- Node2&#45;&gt;Node1 -->
<g id="edge1" class="edge"><title>Node2&#45;&gt;Node1</title>
<path fill="none" stroke="midnightblue" d="M84,-58.3707C84,-49.5849 84,-39.2721 84,-31.1408"/>
<polygon fill="midnightblue" stroke="midnightblue" points="80.5001,-58.4034 84,-68.4035 87.5001,-58.4035 80.5001,-58.4034"/>
</g>
<!-- Node3 -->
<g id="node3" class="node"><title>Node3</title>
<g id="a_node3"><a xlink:href="class_f_b_client_1_1_screens_1_1_base_game_state.html" target="_top" xlink:title="BaseGameState">
<polygon fill="white" stroke="black" points="39.5,-124.5 39.5,-143.5 128.5,-143.5 128.5,-124.5 39.5,-124.5"/>
<text text-anchor="middle" x="84" y="-131.5" font-family="Helvetica,sans-Serif" font-size="10.00">BaseGameState</text>
</a>
</g>
</g>
<!-- Node3&#45;&gt;Node2 -->
<g id="edge2" class="edge"><title>Node3&#45;&gt;Node2</title>
<path fill="none" stroke="midnightblue" d="M84,-113.805C84,-104.91 84,-94.7798 84,-87.7511"/>
<polygon fill="midnightblue" stroke="midnightblue" points="80.5001,-114.083 84,-124.083 87.5001,-114.083 80.5001,-114.083"/>
</g>
<!-- Node4 -->
<g id="node4" class="node"><title>Node4</title>
<g id="a_node4"><a xlink:href="class_f_b_client_1_1_controls_1_1_game_state.html" target="_top" xlink:title="GameState">
<polygon fill="white" stroke="black" points="51,-180.5 51,-199.5 117,-199.5 117,-180.5 51,-180.5"/>
<text text-anchor="middle" x="84" y="-187.5" font-family="Helvetica,sans-Serif" font-size="10.00">GameState</text>
</a>
</g>
</g>
<!-- Node4&#45;&gt;Node3 -->
<g id="edge3" class="edge"><title>Node4&#45;&gt;Node3</title>
<path fill="none" stroke="midnightblue" d="M84,-169.805C84,-160.91 84,-150.78 84,-143.751"/>
<polygon fill="midnightblue" stroke="midnightblue" points="80.5001,-170.083 84,-180.083 87.5001,-170.083 80.5001,-170.083"/>
</g>
<!-- Node5 -->
<g id="node5" class="node"><title>Node5</title>
<polygon fill="white" stroke="#bfbfbf" points="18,-236.5 18,-255.5 150,-255.5 150,-236.5 18,-236.5"/>
<text text-anchor="middle" x="84" y="-243.5" font-family="Helvetica,sans-Serif" font-size="10.00">DrawableGameComponent</text>
</g>
<!-- Node5&#45;&gt;Node4 -->
<g id="edge4" class="edge"><title>Node5&#45;&gt;Node4</title>
<path fill="none" stroke="midnightblue" d="M84,-225.805C84,-216.91 84,-206.78 84,-199.751"/>
<polygon fill="midnightblue" stroke="midnightblue" points="80.5001,-226.083 84,-236.083 87.5001,-226.083 80.5001,-226.083"/>
</g>
</g>
</svg>
