<?xml version="1.0" encoding="UTF-8" standalone="no"?>
<!DOCTYPE svg PUBLIC "-//W3C//DTD SVG 1.1//EN"
 "http://www.w3.org/Graphics/SVG/1.1/DTD/svg11.dtd">
<!-- Generated by graphviz version 2.34.0 (20130907.0111)
 -->
<!-- Title: FBLauncher.MainWindow Pages: 1 -->
<svg width="515pt" height="272pt"
 viewBox="0.00 0.00 515.00 272.00" xmlns="http://www.w3.org/2000/svg" xmlns:xlink="http://www.w3.org/1999/xlink">
<g id="graph0" class="graph" transform="scale(1 1) rotate(0) translate(4 268)">
<title>FBLauncher.MainWindow</title>
<polygon fill="white" stroke="white" points="-4,4 -4,-268 511,-268 511,4 -4,4"/>
<!-- Node1 -->
<g id="node1" class="node"><title>Node1</title>
<polygon fill="#bfbfbf" stroke="black" points="158,-0.5 158,-145.5 286,-145.5 286,-0.5 158,-0.5"/>
<text text-anchor="middle" x="222" y="-133.5" font-family="Helvetica,sans-Serif" font-size="10.00">FBLauncher.MainWindow</text>
<polyline fill="none" stroke="black" points="158,-126.5 286,-126.5 "/>
<text text-anchor="start" x="166" y="-114.5" font-family="Helvetica,sans-Serif" font-size="10.00">+ ApplicationName</text>
<text text-anchor="start" x="166" y="-103.5" font-family="Helvetica,sans-Serif" font-size="10.00">+ ApplicationID</text>
<text text-anchor="start" x="166" y="-92.5" font-family="Helvetica,sans-Serif" font-size="10.00">+ ApplicationAssembly</text>
<text text-anchor="start" x="166" y="-81.5" font-family="Helvetica,sans-Serif" font-size="10.00">+ ApplicationIcon</text>
<text text-anchor="start" x="166" y="-70.5" font-family="Helvetica,sans-Serif" font-size="10.00">+ UpdateXmlLocation</text>
<text text-anchor="start" x="166" y="-59.5" font-family="Helvetica,sans-Serif" font-size="10.00">+ Context</text>
<polyline fill="none" stroke="black" points="158,-52.5 286,-52.5 "/>
<text text-anchor="start" x="166" y="-40.5" font-family="Helvetica,sans-Serif" font-size="10.00">+ MainWindow()</text>
<text text-anchor="start" x="166" y="-29.5" font-family="Helvetica,sans-Serif" font-size="10.00">+ InitializeComponent()</text>
<text text-anchor="start" x="166" y="-18.5" font-family="Helvetica,sans-Serif" font-size="10.00">+ InitializeComponent()</text>
<text text-anchor="start" x="166" y="-7.5" font-family="Helvetica,sans-Serif" font-size="10.00">+ InitializeComponent()</text>
</g>
<!-- Node2 -->
<g id="node2" class="node"><title>Node2</title>
<polygon fill="white" stroke="#bfbfbf" points="-0.5,-200.5 -0.5,-257.5 136.5,-257.5 136.5,-200.5 -0.5,-200.5"/>
<text text-anchor="middle" x="68" y="-245.5" font-family="Helvetica,sans-Serif" font-size="10.00">System::Windows::Window</text>
<polyline fill="none" stroke="#bfbfbf" points="-0.5,-238.5 136.5,-238.5 "/>
<text text-anchor="middle" x="68" y="-226.5" font-family="Helvetica,sans-Serif" font-size="10.00"> </text>
<polyline fill="none" stroke="#bfbfbf" points="-0.5,-219.5 136.5,-219.5 "/>
<text text-anchor="middle" x="68" y="-207.5" font-family="Helvetica,sans-Serif" font-size="10.00"> </text>
</g>
<!-- Node2&#45;&gt;Node1 -->
<g id="edge1" class="edge"><title>Node2&#45;&gt;Node1</title>
<path fill="none" stroke="midnightblue" d="M91.6409,-192.812C109.554,-172.821 134.523,-147.433 157.933,-125.261"/>
<polygon fill="none" stroke="midnightblue" points="88.8817,-190.65 84.9004,-200.468 94.1355,-195.275 88.8817,-190.65"/>
</g>
<!-- Node2&#45;&gt;Node1 -->
<g id="edge3" class="edge"><title>Node2&#45;&gt;Node1</title>
<path fill="none" stroke="midnightblue" d="M102.753,-193.247C119.066,-176.934 139.044,-156.956 157.95,-138.05"/>
<polygon fill="none" stroke="midnightblue" points="100.128,-190.922 95.5321,-200.468 105.078,-195.872 100.128,-190.922"/>
</g>
<!-- Node2&#45;&gt;Node1 -->
<g id="edge5" class="edge"><title>Node2&#45;&gt;Node1</title>
<path fill="none" stroke="midnightblue" d="M113.738,-193.714C129.523,-179.459 147.308,-162.347 163.891,-145.579"/>
<polygon fill="none" stroke="midnightblue" points="111.298,-191.2 106.164,-200.468 115.957,-196.425 111.298,-191.2"/>
</g>
<!-- Node3 -->
<g id="node3" class="node"><title>Node3</title>
<polygon fill="white" stroke="#bfbfbf" points="155,-195 155,-263 289,-263 289,-195 155,-195"/>
<text text-anchor="start" x="163" y="-251" font-family="Helvetica,sans-Serif" font-size="10.00">System::Windows::Markup</text>
<text text-anchor="middle" x="222" y="-240" font-family="Helvetica,sans-Serif" font-size="10.00">::IComponentConnector</text>
<polyline fill="none" stroke="#bfbfbf" points="155,-233 289,-233 "/>
<text text-anchor="middle" x="222" y="-221" font-family="Helvetica,sans-Serif" font-size="10.00"> </text>
<polyline fill="none" stroke="#bfbfbf" points="155,-214 289,-214 "/>
<text text-anchor="middle" x="222" y="-202" font-family="Helvetica,sans-Serif" font-size="10.00"> </text>
</g>
<!-- Node3&#45;&gt;Node1 -->
<g id="edge2" class="edge"><title>Node3&#45;&gt;Node1</title>
<path fill="none" stroke="midnightblue" d="M209.72,-184.671C208.78,-172.504 208.383,-158.94 208.53,-145.593"/>
<polygon fill="none" stroke="midnightblue" points="206.266,-185.334 210.685,-194.963 213.236,-184.68 206.266,-185.334"/>
</g>
<!-- Node3&#45;&gt;Node1 -->
<g id="edge4" class="edge"><title>Node3&#45;&gt;Node1</title>
<path fill="none" stroke="midnightblue" d="M222,-184.671C222,-172.504 222,-158.94 222,-145.593"/>
<polygon fill="none" stroke="midnightblue" points="218.5,-184.963 222,-194.963 225.5,-184.963 218.5,-184.963"/>
</g>
<!-- Node3&#45;&gt;Node1 -->
<g id="edge6" class="edge"><title>Node3&#45;&gt;Node1</title>
<path fill="none" stroke="midnightblue" d="M234.28,-184.671C235.22,-172.504 235.617,-158.94 235.47,-145.593"/>
<polygon fill="none" stroke="midnightblue" points="230.764,-184.68 233.315,-194.963 237.734,-185.334 230.764,-184.68"/>
</g>
<!-- Node4 -->
<g id="node4" class="node"><title>Node4</title>
<polygon fill="white" stroke="#bfbfbf" points="307.5,-200.5 307.5,-257.5 358.5,-257.5 358.5,-200.5 307.5,-200.5"/>
<text text-anchor="middle" x="333" y="-245.5" font-family="Helvetica,sans-Serif" font-size="10.00">Window</text>
<polyline fill="none" stroke="#bfbfbf" points="307.5,-238.5 358.5,-238.5 "/>
<text text-anchor="middle" x="333" y="-226.5" font-family="Helvetica,sans-Serif" font-size="10.00"> </text>
<polyline fill="none" stroke="#bfbfbf" points="307.5,-219.5 358.5,-219.5 "/>
<text text-anchor="middle" x="333" y="-207.5" font-family="Helvetica,sans-Serif" font-size="10.00"> </text>
</g>
<!-- Node4&#45;&gt;Node1 -->
<g id="edge7" class="edge"><title>Node4&#45;&gt;Node1</title>
<path fill="none" stroke="midnightblue" d="M307.158,-192.147C297.116,-178.215 285.239,-161.737 273.593,-145.579"/>
<polygon fill="none" stroke="midnightblue" points="304.469,-194.402 313.155,-200.468 310.148,-190.309 304.469,-194.402"/>
</g>
<!-- Node5 -->
<g id="node5" class="node"><title>Node5</title>
<polygon fill="white" stroke="#bfbfbf" points="377,-200.5 377,-257.5 439,-257.5 439,-200.5 377,-200.5"/>
<text text-anchor="middle" x="408" y="-245.5" font-family="Helvetica,sans-Serif" font-size="10.00">IUpdatable</text>
<polyline fill="none" stroke="#bfbfbf" points="377,-238.5 439,-238.5 "/>
<text text-anchor="middle" x="408" y="-226.5" font-family="Helvetica,sans-Serif" font-size="10.00"> </text>
<polyline fill="none" stroke="#bfbfbf" points="377,-219.5 439,-219.5 "/>
<text text-anchor="middle" x="408" y="-207.5" font-family="Helvetica,sans-Serif" font-size="10.00"> </text>
</g>
<!-- Node5&#45;&gt;Node1 -->
<g id="edge8" class="edge"><title>Node5&#45;&gt;Node1</title>
<path fill="none" stroke="midnightblue" d="M368.776,-195.471C368.18,-194.977 367.587,-194.487 367,-194 340.579,-172.112 311.438,-147.991 286.253,-127.152"/>
<polygon fill="none" stroke="midnightblue" points="366.731,-198.322 376.663,-202.008 371.197,-192.932 366.731,-198.322"/>
</g>
<!-- Node6 -->
<g id="node6" class="node"><title>Node6</title>
<polygon fill="white" stroke="#bfbfbf" points="457,-200.5 457,-257.5 507,-257.5 507,-200.5 457,-200.5"/>
<text text-anchor="middle" x="482" y="-245.5" font-family="Helvetica,sans-Serif" font-size="10.00">System</text>
<polyline fill="none" stroke="#bfbfbf" points="457,-238.5 507,-238.5 "/>
<text text-anchor="middle" x="482" y="-226.5" font-family="Helvetica,sans-Serif" font-size="10.00"> </text>
<polyline fill="none" stroke="#bfbfbf" points="457,-219.5 507,-219.5 "/>
<text text-anchor="middle" x="482" y="-207.5" font-family="Helvetica,sans-Serif" font-size="10.00"> </text>
</g>
<!-- Node6&#45;&gt;Node1 -->
<g id="edge9" class="edge"><title>Node6&#45;&gt;Node1</title>
<path fill="none" stroke="#404040" d="M456.744,-201.161C453.896,-198.622 450.953,-196.184 448,-194 401.144,-159.349 342.964,-128.7 297.369,-107.05"/>
<polygon fill="none" stroke="#404040" points="297.223,-106.982 290.092,-108.052 286.361,-101.882 293.492,-100.811 297.223,-106.982"/>
<text text-anchor="middle" x="435" y="-167.5" font-family="Helvetica,sans-Serif" font-size="10.00"> ~label</text>
</g>
</g>
</svg>
