<?xml version="1.0" encoding="UTF-8" standalone="no"?>
<!DOCTYPE svg PUBLIC "-//W3C//DTD SVG 1.1//EN"
 "http://www.w3.org/Graphics/SVG/1.1/DTD/svg11.dtd">
<!-- Generated by graphviz version 2.34.0 (20130907.0111)
 -->
<!-- Title: FBClient.Screens.GameScreens.SinglePlayerGamePlayScreen Pages: 1 -->
<!--zoomable 1456 -->
<svg id="main" version="1.1" xmlns="http://www.w3.org/2000/svg" xmlns:xlink="http://www.w3.org/1999/xlink" xml:space="preserve" onload="init(evt)">
<style type="text/css"><![CDATA[
.edge:hover path { stroke: red; }
.edge:hover polygon { stroke: red; fill: red; }
]]></style>
<script type="text/javascript"><![CDATA[
var edges = document.getElementsByTagName('g');
if (edges && edges.length) {
  for (var i=0;i<edges.length;i++) {
    if (edges[i].id.substr(0,4)=='edge') {
      edges[i].setAttribute('class','edge');
    }
  }
}
]]></script>
        <defs>
                <circle id="rim" cx="0" cy="0" r="7"/>
                <circle id="rim2" cx="0" cy="0" r="3.5"/>
                <g id="zoomPlus">
                        <use xlink:href="#rim" fill="#404040">
                                <set attributeName="fill" to="#808080" begin="zoomplus.mouseover" end="zoomplus.mouseout"/>
                        </use>
                        <path d="M-4,0h8M0,-4v8" fill="none" stroke="white" stroke-width="1.5" pointer-events="none"/>
                </g>
                <g id="zoomMin">
                        <use xlink:href="#rim" fill="#404040">
                                <set attributeName="fill" to="#808080" begin="zoomminus.mouseover" end="zoomminus.mouseout"/>
                        </use>
                        <path d="M-4,0h8" fill="none" stroke="white" stroke-width="1.5" pointer-events="none"/>
                </g>
                <g id="dirArrow">
                        <path fill="none" stroke="white" stroke-width="1.5" d="M0,-3.0v7 M-2.5,-0.5L0,-3.0L2.5,-0.5"/>
                </g>
               <g id="resetDef">
                       <use xlink:href="#rim2" fill="#404040">
                               <set attributeName="fill" to="#808080" begin="reset.mouseover" end="reset.mouseout"/>
                       </use>
               </g>
        </defs>

<script type="text/javascript">
var viewWidth = 904;
var viewHeight = 1456;
var sectionId = 'dynsection-1';
</script>
<script xlink:href="svgpan.js"/>
<svg id="graph" class="graph">
<g id="viewport">
<title>FBClient.Screens.GameScreens.SinglePlayerGamePlayScreen</title>
<polygon fill="white" stroke="white" points="-4,4 -4,-1452 900,-1452 900,4 -4,4"/>
<!-- Node1 -->
<g id="node1" class="node"><title>Node1</title>
<polygon fill="#bfbfbf" stroke="black" points="523.5,-0.5 523.5,-123.5 686.5,-123.5 686.5,-0.5 523.5,-0.5"/>
<text text-anchor="start" x="531.5" y="-111.5" font-family="Helvetica,sans-Serif" font-size="10.00">FBClient.Screens.GameScreens.</text>
<text text-anchor="middle" x="605" y="-100.5" font-family="Helvetica,sans-Serif" font-size="10.00">SinglePlayerGamePlayScreen</text>
<polyline fill="none" stroke="black" points="523.5,-93.5 686.5,-93.5 "/>
<text text-anchor="middle" x="605" y="-81.5" font-family="Helvetica,sans-Serif" font-size="10.00"> </text>
<polyline fill="none" stroke="black" points="523.5,-74.5 686.5,-74.5 "/>
<text text-anchor="start" x="531.5" y="-62.5" font-family="Helvetica,sans-Serif" font-size="10.00">+ SinglePlayerGamePlayScreen()</text>
<text text-anchor="start" x="531.5" y="-51.5" font-family="Helvetica,sans-Serif" font-size="10.00">+ Initialize()</text>
<text text-anchor="start" x="531.5" y="-40.5" font-family="Helvetica,sans-Serif" font-size="10.00">+ Update()</text>
<text text-anchor="start" x="531.5" y="-29.5" font-family="Helvetica,sans-Serif" font-size="10.00">+ Draw()</text>
<text text-anchor="start" x="531.5" y="-18.5" font-family="Helvetica,sans-Serif" font-size="10.00"># LoadContent()</text>
<text text-anchor="start" x="531.5" y="-7.5" font-family="Helvetica,sans-Serif" font-size="10.00"># UnloadContent()</text>
</g>
<!-- Node2 -->
<g id="node2" class="node"><title>Node2</title>
<g id="a_node2"><a xlink:href="class_f_b_client_1_1_screens_1_1_game_screens_1_1_base_game_play_screen.html" target="_top" xlink:title="{BaseGamePlayScreen\n|# ItemInfoIcon\l# Cross\l# GameFont\l# SmallFont\l# HudOrigin\l# HudTopSpace\l# HudMarginLeft\l# BadItemTimerBar\l# WindowSkin\l|# BaseGamePlayScreen()\l# LoadContent()\l}">
<polygon fill="white" stroke="black" points="540,-163 540,-319 670,-319 670,-163 540,-163"/>
<text text-anchor="middle" x="605" y="-307" font-family="Helvetica,sans-Serif" font-size="10.00">BaseGamePlayScreen</text>
<polyline fill="none" stroke="black" points="540,-300 670,-300 "/>
<text text-anchor="start" x="548" y="-288" font-family="Helvetica,sans-Serif" font-size="10.00"># ItemInfoIcon</text>
<text text-anchor="start" x="548" y="-277" font-family="Helvetica,sans-Serif" font-size="10.00"># Cross</text>
<text text-anchor="start" x="548" y="-266" font-family="Helvetica,sans-Serif" font-size="10.00"># GameFont</text>
<text text-anchor="start" x="548" y="-255" font-family="Helvetica,sans-Serif" font-size="10.00"># SmallFont</text>
<text text-anchor="start" x="548" y="-244" font-family="Helvetica,sans-Serif" font-size="10.00"># HudOrigin</text>
<text text-anchor="start" x="548" y="-233" font-family="Helvetica,sans-Serif" font-size="10.00"># HudTopSpace</text>
<text text-anchor="start" x="548" y="-222" font-family="Helvetica,sans-Serif" font-size="10.00"># HudMarginLeft</text>
<text text-anchor="start" x="548" y="-211" font-family="Helvetica,sans-Serif" font-size="10.00"># BadItemTimerBar</text>
<text text-anchor="start" x="548" y="-200" font-family="Helvetica,sans-Serif" font-size="10.00"># WindowSkin</text>
<polyline fill="none" stroke="black" points="540,-193 670,-193 "/>
<text text-anchor="start" x="548" y="-181" font-family="Helvetica,sans-Serif" font-size="10.00"># BaseGamePlayScreen()</text>
<text text-anchor="start" x="548" y="-170" font-family="Helvetica,sans-Serif" font-size="10.00"># LoadContent()</text>
</a>
</g>
</g>
<!-- Node2&#45;&gt;Node1 -->
<g id="edge1" class="edge"><title>Node2&#45;&gt;Node1</title>
<path fill="none" stroke="midnightblue" d="M605,-152.673C605,-142.852 605,-133.012 605,-123.637"/>
<polygon fill="none" stroke="midnightblue" points="601.5,-152.88 605,-162.88 608.5,-152.88 601.5,-152.88"/>
</g>
<!-- Node3 -->
<g id="node3" class="node"><title>Node3</title>
<g id="a_node3"><a xlink:href="class_f_b_client_1_1_screens_1_1_base_game_state.html" target="_top" xlink:title="{BaseGameState\n|# BigFont\l# playerIndexInControl\l|+ BaseGameState()\l+ Update()\l+ Draw()\l# LoadContent()\l}">
<polygon fill="white" stroke="black" points="294.5,-510.5 294.5,-611.5 407.5,-611.5 407.5,-510.5 294.5,-510.5"/>
<text text-anchor="middle" x="351" y="-599.5" font-family="Helvetica,sans-Serif" font-size="10.00">BaseGameState</text>
<polyline fill="none" stroke="black" points="294.5,-592.5 407.5,-592.5 "/>
<text text-anchor="start" x="302.5" y="-580.5" font-family="Helvetica,sans-Serif" font-size="10.00"># BigFont</text>
<text text-anchor="start" x="302.5" y="-569.5" font-family="Helvetica,sans-Serif" font-size="10.00"># playerIndexInControl</text>
<polyline fill="none" stroke="black" points="294.5,-562.5 407.5,-562.5 "/>
<text text-anchor="start" x="302.5" y="-550.5" font-family="Helvetica,sans-Serif" font-size="10.00">+ BaseGameState()</text>
<text text-anchor="start" x="302.5" y="-539.5" font-family="Helvetica,sans-Serif" font-size="10.00">+ Update()</text>
<text text-anchor="start" x="302.5" y="-528.5" font-family="Helvetica,sans-Serif" font-size="10.00">+ Draw()</text>
<text text-anchor="start" x="302.5" y="-517.5" font-family="Helvetica,sans-Serif" font-size="10.00"># LoadContent()</text>
</a>
</g>
</g>
<!-- Node3&#45;&gt;Node2 -->
<g id="edge2" class="edge"><title>Node3&#45;&gt;Node2</title>
<path fill="none" stroke="midnightblue" d="M363.498,-500.322C373.585,-462.515 390.692,-414.119 418,-378 450.32,-335.252 499.785,-300.104 539.724,-276.255"/>
<polygon fill="none" stroke="midnightblue" points="360.062,-499.631 360.96,-510.187 366.841,-501.375 360.062,-499.631"/>
</g>
<!-- Node4 -->
<g id="node4" class="node"><title>Node4</title>
<g id="a_node4"><a xlink:href="class_f_b_client_1_1_controls_1_1_game_state.html" target="_top" xlink:title="{GameState\n|+ Components\l+ Tag\l|+ Initialize()\l+ Update()\l+ Draw()\l# GameState()\l# StateChange()\l# Show()\l# Hide()\l}">
<polygon fill="white" stroke="black" points="179.5,-853 179.5,-987 266.5,-987 266.5,-853 179.5,-853"/>
<text text-anchor="middle" x="223" y="-975" font-family="Helvetica,sans-Serif" font-size="10.00">GameState</text>
<polyline fill="none" stroke="black" points="179.5,-968 266.5,-968 "/>
<text text-anchor="start" x="187.5" y="-956" font-family="Helvetica,sans-Serif" font-size="10.00">+ Components</text>
<text text-anchor="start" x="187.5" y="-945" font-family="Helvetica,sans-Serif" font-size="10.00">+ Tag</text>
<polyline fill="none" stroke="black" points="179.5,-938 266.5,-938 "/>
<text text-anchor="start" x="187.5" y="-926" font-family="Helvetica,sans-Serif" font-size="10.00">+ Initialize()</text>
<text text-anchor="start" x="187.5" y="-915" font-family="Helvetica,sans-Serif" font-size="10.00">+ Update()</text>
<text text-anchor="start" x="187.5" y="-904" font-family="Helvetica,sans-Serif" font-size="10.00">+ Draw()</text>
<text text-anchor="start" x="187.5" y="-893" font-family="Helvetica,sans-Serif" font-size="10.00"># GameState()</text>
<text text-anchor="start" x="187.5" y="-882" font-family="Helvetica,sans-Serif" font-size="10.00"># StateChange()</text>
<text text-anchor="start" x="187.5" y="-871" font-family="Helvetica,sans-Serif" font-size="10.00"># Show()</text>
<text text-anchor="start" x="187.5" y="-860" font-family="Helvetica,sans-Serif" font-size="10.00"># Hide()</text>
</a>
</g>
</g>
<!-- Node4&#45;&gt;Node3 -->
<g id="edge3" class="edge"><title>Node4&#45;&gt;Node3</title>
<path fill="none" stroke="midnightblue" d="M250.233,-843.046C275.287,-773.168 311.717,-671.562 333.223,-611.581"/>
<polygon fill="none" stroke="midnightblue" points="246.856,-842.093 246.776,-852.688 253.446,-844.456 246.856,-842.093"/>
</g>
<!-- Node5 -->
<g id="node5" class="node"><title>Node5</title>
<polygon fill="white" stroke="#bfbfbf" points="0,-1184.5 0,-1241.5 132,-1241.5 132,-1184.5 0,-1184.5"/>
<text text-anchor="middle" x="66" y="-1229.5" font-family="Helvetica,sans-Serif" font-size="10.00">DrawableGameComponent</text>
<polyline fill="none" stroke="#bfbfbf" points="0,-1222.5 132,-1222.5 "/>
<text text-anchor="middle" x="66" y="-1210.5" font-family="Helvetica,sans-Serif" font-size="10.00"> </text>
<polyline fill="none" stroke="#bfbfbf" points="0,-1203.5 132,-1203.5 "/>
<text text-anchor="middle" x="66" y="-1191.5" font-family="Helvetica,sans-Serif" font-size="10.00"> </text>
</g>
<!-- Node5&#45;&gt;Node4 -->
<g id="edge4" class="edge"><title>Node5&#45;&gt;Node4</title>
<path fill="none" stroke="midnightblue" d="M85.7297,-1175.43C111.15,-1128.31 155.805,-1045.55 187.268,-987.23"/>
<polygon fill="none" stroke="midnightblue" points="82.5797,-1173.9 80.9117,-1184.36 88.7403,-1177.22 82.5797,-1173.9"/>
</g>
<!-- Node6 -->
<g id="node6" class="node"><title>Node6</title>
<g id="a_node6"><a xlink:href="class_f_b_client_1_1_controls_1_1_game_state_manager.html" target="_top" xlink:title="{FBClient.Controls.GameState\lManager\n|+ CurrentState\l|+ GameStateManager()\l+ Initialize()\l+ Update()\l+ PopState()\l+ PushState()\l+ ChangeState()\l}">
<polygon fill="white" stroke="black" points="150,-1151.5 150,-1274.5 296,-1274.5 296,-1151.5 150,-1151.5"/>
<text text-anchor="start" x="158" y="-1262.5" font-family="Helvetica,sans-Serif" font-size="10.00">FBClient.Controls.GameState</text>
<text text-anchor="middle" x="223" y="-1251.5" font-family="Helvetica,sans-Serif" font-size="10.00">Manager</text>
<polyline fill="none" stroke="black" points="150,-1244.5 296,-1244.5 "/>
<text text-anchor="start" x="158" y="-1232.5" font-family="Helvetica,sans-Serif" font-size="10.00">+ CurrentState</text>
<polyline fill="none" stroke="black" points="150,-1225.5 296,-1225.5 "/>
<text text-anchor="start" x="158" y="-1213.5" font-family="Helvetica,sans-Serif" font-size="10.00">+ GameStateManager()</text>
<text text-anchor="start" x="158" y="-1202.5" font-family="Helvetica,sans-Serif" font-size="10.00">+ Initialize()</text>
<text text-anchor="start" x="158" y="-1191.5" font-family="Helvetica,sans-Serif" font-size="10.00">+ Update()</text>
<text text-anchor="start" x="158" y="-1180.5" font-family="Helvetica,sans-Serif" font-size="10.00">+ PopState()</text>
<text text-anchor="start" x="158" y="-1169.5" font-family="Helvetica,sans-Serif" font-size="10.00">+ PushState()</text>
<text text-anchor="start" x="158" y="-1158.5" font-family="Helvetica,sans-Serif" font-size="10.00">+ ChangeState()</text>
</a>
</g>
</g>
<!-- Node6&#45;&gt;Node4 -->
<g id="edge5" class="edge"><title>Node6&#45;&gt;Node4</title>
<path fill="none" stroke="#404040" d="M223,-1151.35C223,-1107.22 223,-1047.08 223,-999.319"/>
<polygon fill="none" stroke="#404040" points="223,-999.146 219,-993.146 223,-987.146 227,-993.146 223,-999.146"/>
<text text-anchor="middle" x="258" y="-1069.5" font-family="Helvetica,sans-Serif" font-size="10.00"> #StateManager</text>
</g>
<!-- Node7 -->
<g id="node7" class="node"><title>Node7</title>
<polygon fill="white" stroke="#bfbfbf" points="177,-1384.5 177,-1441.5 269,-1441.5 269,-1384.5 177,-1384.5"/>
<text text-anchor="middle" x="223" y="-1429.5" font-family="Helvetica,sans-Serif" font-size="10.00">GameComponent</text>
<polyline fill="none" stroke="#bfbfbf" points="177,-1422.5 269,-1422.5 "/>
<text text-anchor="middle" x="223" y="-1410.5" font-family="Helvetica,sans-Serif" font-size="10.00"> </text>
<polyline fill="none" stroke="#bfbfbf" points="177,-1403.5 269,-1403.5 "/>
<text text-anchor="middle" x="223" y="-1391.5" font-family="Helvetica,sans-Serif" font-size="10.00"> </text>
</g>
<!-- Node7&#45;&gt;Node6 -->
<g id="edge6" class="edge"><title>Node7&#45;&gt;Node6</title>
<path fill="none" stroke="midnightblue" d="M223,-1374.26C223,-1346.14 223,-1307.15 223,-1274.67"/>
<polygon fill="none" stroke="midnightblue" points="219.5,-1374.47 223,-1384.47 226.5,-1374.47 219.5,-1374.47"/>
</g>
<!-- Node8 -->
<g id="node8" class="node"><title>Node8</title>
<g id="a_node8"><a xlink:href="class_f_b_client_1_1_controls_1_1_control_manager.html" target="_top" xlink:title="{FBClient.Controls.Control\lManager\n|+ SpriteFont\l+ AcceptInput\l|+ ControlManager()\l+ ControlManager()\l+ ControlManager()\l+ Update()\l+ Draw()\l+ NextControl()\l+ PreviousControl()\l}">
<polygon fill="white" stroke="black" points="287.5,-847.5 287.5,-992.5 414.5,-992.5 414.5,-847.5 287.5,-847.5"/>
<text text-anchor="start" x="295.5" y="-980.5" font-family="Helvetica,sans-Serif" font-size="10.00">FBClient.Controls.Control</text>
<text text-anchor="middle" x="351" y="-969.5" font-family="Helvetica,sans-Serif" font-size="10.00">Manager</text>
<polyline fill="none" stroke="black" points="287.5,-962.5 414.5,-962.5 "/>
<text text-anchor="start" x="295.5" y="-950.5" font-family="Helvetica,sans-Serif" font-size="10.00">+ SpriteFont</text>
<text text-anchor="start" x="295.5" y="-939.5" font-family="Helvetica,sans-Serif" font-size="10.00">+ AcceptInput</text>
<polyline fill="none" stroke="black" points="287.5,-932.5 414.5,-932.5 "/>
<text text-anchor="start" x="295.5" y="-920.5" font-family="Helvetica,sans-Serif" font-size="10.00">+ ControlManager()</text>
<text text-anchor="start" x="295.5" y="-909.5" font-family="Helvetica,sans-Serif" font-size="10.00">+ ControlManager()</text>
<text text-anchor="start" x="295.5" y="-898.5" font-family="Helvetica,sans-Serif" font-size="10.00">+ ControlManager()</text>
<text text-anchor="start" x="295.5" y="-887.5" font-family="Helvetica,sans-Serif" font-size="10.00">+ Update()</text>
<text text-anchor="start" x="295.5" y="-876.5" font-family="Helvetica,sans-Serif" font-size="10.00">+ Draw()</text>
<text text-anchor="start" x="295.5" y="-865.5" font-family="Helvetica,sans-Serif" font-size="10.00">+ NextControl()</text>
<text text-anchor="start" x="295.5" y="-854.5" font-family="Helvetica,sans-Serif" font-size="10.00">+ PreviousControl()</text>
</a>
</g>
</g>
<!-- Node8&#45;&gt;Node3 -->
<g id="edge7" class="edge"><title>Node8&#45;&gt;Node3</title>
<path fill="none" stroke="#404040" d="M351,-847.185C351,-781.752 351,-686.108 351,-623.956"/>
<polygon fill="none" stroke="#404040" points="351,-623.607 347,-617.607 351,-611.607 355,-617.607 351,-623.607"/>
<text text-anchor="middle" x="389.5" y="-765.5" font-family="Helvetica,sans-Serif" font-size="10.00"> #ControlManager</text>
</g>
<!-- Node9 -->
<g id="node9" class="node"><title>Node9</title>
<polygon fill="white" stroke="#bfbfbf" points="314.5,-1184.5 314.5,-1241.5 395.5,-1241.5 395.5,-1184.5 314.5,-1184.5"/>
<text text-anchor="middle" x="355" y="-1229.5" font-family="Helvetica,sans-Serif" font-size="10.00">List&lt; Control &gt;</text>
<polyline fill="none" stroke="#bfbfbf" points="314.5,-1222.5 395.5,-1222.5 "/>
<text text-anchor="middle" x="355" y="-1210.5" font-family="Helvetica,sans-Serif" font-size="10.00"> </text>
<polyline fill="none" stroke="#bfbfbf" points="314.5,-1203.5 395.5,-1203.5 "/>
<text text-anchor="middle" x="355" y="-1191.5" font-family="Helvetica,sans-Serif" font-size="10.00"> </text>
</g>
<!-- Node9&#45;&gt;Node8 -->
<g id="edge8" class="edge"><title>Node9&#45;&gt;Node8</title>
<path fill="none" stroke="midnightblue" d="M354.481,-1174.26C353.851,-1128.4 352.774,-1050.04 351.984,-992.602"/>
<polygon fill="none" stroke="midnightblue" points="350.983,-1174.41 354.62,-1184.36 357.982,-1174.31 350.983,-1174.41"/>
</g>
<!-- Node10 -->
<g id="node10" class="node"><title>Node10</title>
<g id="a_node10"><a xlink:href="class_f_b_client_1_1_core_1_1_game_manager.html" target="_top" xlink:title="{FBClient.Core.GameManager\n|+ BombExplosionSound\l+ PowerUpPickUpSound\l+ PlayerDeathSound\l+ CurrentMap\l+ WallList\l+ BombList\l+ Timer\l|+ GameManager()\l+ Initialize()\l+ Reset()\l+ LoadContent()\l+ Update()\l+ Draw()\l+ AddPlayer()\l+ RemovePlayer()\l+ AddWall()\l+ AddWall()\l+ AddWalls()\l+ AddBomb()\l+ AddPowerUp()\l+ AddPowerUp()\l# UpdateWalls()\l# UpdateBombs()\l# UpdatePowerUps()\l# UpdatePlayers()\l# DestroyPlayer()\l# DestroyWall()\l# DestroyBomb()\l# PickUpPowerUp()\l# DestroyPowerUp()\l}">
<polygon fill="white" stroke="black" points="427,-378.5 427,-743.5 571,-743.5 571,-378.5 427,-378.5"/>
<text text-anchor="middle" x="499" y="-731.5" font-family="Helvetica,sans-Serif" font-size="10.00">FBClient.Core.GameManager</text>
<polyline fill="none" stroke="black" points="427,-724.5 571,-724.5 "/>
<text text-anchor="start" x="435" y="-712.5" font-family="Helvetica,sans-Serif" font-size="10.00">+ BombExplosionSound</text>
<text text-anchor="start" x="435" y="-701.5" font-family="Helvetica,sans-Serif" font-size="10.00">+ PowerUpPickUpSound</text>
<text text-anchor="start" x="435" y="-690.5" font-family="Helvetica,sans-Serif" font-size="10.00">+ PlayerDeathSound</text>
<text text-anchor="start" x="435" y="-679.5" font-family="Helvetica,sans-Serif" font-size="10.00">+ CurrentMap</text>
<text text-anchor="start" x="435" y="-668.5" font-family="Helvetica,sans-Serif" font-size="10.00">+ WallList</text>
<text text-anchor="start" x="435" y="-657.5" font-family="Helvetica,sans-Serif" font-size="10.00">+ BombList</text>
<text text-anchor="start" x="435" y="-646.5" font-family="Helvetica,sans-Serif" font-size="10.00">+ Timer</text>
<polyline fill="none" stroke="black" points="427,-639.5 571,-639.5 "/>
<text text-anchor="start" x="435" y="-627.5" font-family="Helvetica,sans-Serif" font-size="10.00">+ GameManager()</text>
<text text-anchor="start" x="435" y="-616.5" font-family="Helvetica,sans-Serif" font-size="10.00">+ Initialize()</text>
<text text-anchor="start" x="435" y="-605.5" font-family="Helvetica,sans-Serif" font-size="10.00">+ Reset()</text>
<text text-anchor="start" x="435" y="-594.5" font-family="Helvetica,sans-Serif" font-size="10.00">+ LoadContent()</text>
<text text-anchor="start" x="435" y="-583.5" font-family="Helvetica,sans-Serif" font-size="10.00">+ Update()</text>
<text text-anchor="start" x="435" y="-572.5" font-family="Helvetica,sans-Serif" font-size="10.00">+ Draw()</text>
<text text-anchor="start" x="435" y="-561.5" font-family="Helvetica,sans-Serif" font-size="10.00">+ AddPlayer()</text>
<text text-anchor="start" x="435" y="-550.5" font-family="Helvetica,sans-Serif" font-size="10.00">+ RemovePlayer()</text>
<text text-anchor="start" x="435" y="-539.5" font-family="Helvetica,sans-Serif" font-size="10.00">+ AddWall()</text>
<text text-anchor="start" x="435" y="-528.5" font-family="Helvetica,sans-Serif" font-size="10.00">+ AddWall()</text>
<text text-anchor="start" x="435" y="-517.5" font-family="Helvetica,sans-Serif" font-size="10.00">+ AddWalls()</text>
<text text-anchor="start" x="435" y="-506.5" font-family="Helvetica,sans-Serif" font-size="10.00">+ AddBomb()</text>
<text text-anchor="start" x="435" y="-495.5" font-family="Helvetica,sans-Serif" font-size="10.00">+ AddPowerUp()</text>
<text text-anchor="start" x="435" y="-484.5" font-family="Helvetica,sans-Serif" font-size="10.00">+ AddPowerUp()</text>
<text text-anchor="start" x="435" y="-473.5" font-family="Helvetica,sans-Serif" font-size="10.00"># UpdateWalls()</text>
<text text-anchor="start" x="435" y="-462.5" font-family="Helvetica,sans-Serif" font-size="10.00"># UpdateBombs()</text>
<text text-anchor="start" x="435" y="-451.5" font-family="Helvetica,sans-Serif" font-size="10.00"># UpdatePowerUps()</text>
<text text-anchor="start" x="435" y="-440.5" font-family="Helvetica,sans-Serif" font-size="10.00"># UpdatePlayers()</text>
<text text-anchor="start" x="435" y="-429.5" font-family="Helvetica,sans-Serif" font-size="10.00"># DestroyPlayer()</text>
<text text-anchor="start" x="435" y="-418.5" font-family="Helvetica,sans-Serif" font-size="10.00"># DestroyWall()</text>
<text text-anchor="start" x="435" y="-407.5" font-family="Helvetica,sans-Serif" font-size="10.00"># DestroyBomb()</text>
<text text-anchor="start" x="435" y="-396.5" font-family="Helvetica,sans-Serif" font-size="10.00"># PickUpPowerUp()</text>
<text text-anchor="start" x="435" y="-385.5" font-family="Helvetica,sans-Serif" font-size="10.00"># DestroyPowerUp()</text>
</a>
</g>
</g>
<!-- Node10&#45;&gt;Node2 -->
<g id="edge9" class="edge"><title>Node10&#45;&gt;Node2</title>
<path fill="none" stroke="#404040" d="M530.032,-378.443C534.147,-364.576 538.783,-350.949 544,-338 545.074,-335.334 546.223,-332.661 547.435,-329.99"/>
<polygon fill="none" stroke="#404040" points="547.506,-329.845 546.526,-322.7 552.743,-319.048 553.724,-326.192 547.506,-329.845"/>
<text text-anchor="middle" x="580.5" y="-346.5" font-family="Helvetica,sans-Serif" font-size="10.00"> +GameManager</text>
</g>
<!-- Node11 -->
<g id="node11" class="node"><title>Node11</title>
<g id="a_node11"><a xlink:href="class_f_b_library_1_1_core_1_1_base_game_manager.html" target="_top" xlink:title="{BaseGameManager\n|+ HazardMap\l# BasePlayerList\l|+ Update()\l+ AddWall()\l+ AddPowerUp()\l+ Reset()\l+ LoadMap()\l+ GenerateRandomWalls()\l+ DisplayHazardMap()\l# BaseGameManager()\l# UpdateWalls()\l# UpdateBombs()\l# UpdatePowerUps()\l# UpdatePlayers()\l# AddPlayer()\l# DestroyPlayer()\l# DestroyPlayer()\l# RemovePlayer()\l# AddWall()\land 12 more...\l}">
<polygon fill="white" stroke="black" points="433,-792.5 433,-1047.5 565,-1047.5 565,-792.5 433,-792.5"/>
<text text-anchor="middle" x="499" y="-1035.5" font-family="Helvetica,sans-Serif" font-size="10.00">BaseGameManager</text>
<polyline fill="none" stroke="black" points="433,-1028.5 565,-1028.5 "/>
<text text-anchor="start" x="441" y="-1016.5" font-family="Helvetica,sans-Serif" font-size="10.00">+ HazardMap</text>
<text text-anchor="start" x="441" y="-1005.5" font-family="Helvetica,sans-Serif" font-size="10.00"># BasePlayerList</text>
<polyline fill="none" stroke="black" points="433,-998.5 565,-998.5 "/>
<text text-anchor="start" x="441" y="-986.5" font-family="Helvetica,sans-Serif" font-size="10.00">+ Update()</text>
<text text-anchor="start" x="441" y="-975.5" font-family="Helvetica,sans-Serif" font-size="10.00">+ AddWall()</text>
<text text-anchor="start" x="441" y="-964.5" font-family="Helvetica,sans-Serif" font-size="10.00">+ AddPowerUp()</text>
<text text-anchor="start" x="441" y="-953.5" font-family="Helvetica,sans-Serif" font-size="10.00">+ Reset()</text>
<text text-anchor="start" x="441" y="-942.5" font-family="Helvetica,sans-Serif" font-size="10.00">+ LoadMap()</text>
<text text-anchor="start" x="441" y="-931.5" font-family="Helvetica,sans-Serif" font-size="10.00">+ GenerateRandomWalls()</text>
<text text-anchor="start" x="441" y="-920.5" font-family="Helvetica,sans-Serif" font-size="10.00">+ DisplayHazardMap()</text>
<text text-anchor="start" x="441" y="-909.5" font-family="Helvetica,sans-Serif" font-size="10.00"># BaseGameManager()</text>
<text text-anchor="start" x="441" y="-898.5" font-family="Helvetica,sans-Serif" font-size="10.00"># UpdateWalls()</text>
<text text-anchor="start" x="441" y="-887.5" font-family="Helvetica,sans-Serif" font-size="10.00"># UpdateBombs()</text>
<text text-anchor="start" x="441" y="-876.5" font-family="Helvetica,sans-Serif" font-size="10.00"># UpdatePowerUps()</text>
<text text-anchor="start" x="441" y="-865.5" font-family="Helvetica,sans-Serif" font-size="10.00"># UpdatePlayers()</text>
<text text-anchor="start" x="441" y="-854.5" font-family="Helvetica,sans-Serif" font-size="10.00"># AddPlayer()</text>
<text text-anchor="start" x="441" y="-843.5" font-family="Helvetica,sans-Serif" font-size="10.00"># DestroyPlayer()</text>
<text text-anchor="start" x="441" y="-832.5" font-family="Helvetica,sans-Serif" font-size="10.00"># DestroyPlayer()</text>
<text text-anchor="start" x="441" y="-821.5" font-family="Helvetica,sans-Serif" font-size="10.00"># RemovePlayer()</text>
<text text-anchor="start" x="441" y="-810.5" font-family="Helvetica,sans-Serif" font-size="10.00"># AddWall()</text>
<text text-anchor="start" x="441" y="-799.5" font-family="Helvetica,sans-Serif" font-size="10.00">and 12 more...</text>
</a>
</g>
</g>
<!-- Node11&#45;&gt;Node10 -->
<g id="edge10" class="edge"><title>Node11&#45;&gt;Node10</title>
<path fill="none" stroke="midnightblue" d="M499,-782.284C499,-769.606 499,-756.631 499,-743.634"/>
<polygon fill="none" stroke="midnightblue" points="495.5,-782.381 499,-792.381 502.5,-782.381 495.5,-782.381"/>
</g>
<!-- Node12 -->
<g id="node12" class="node"><title>Node12</title>
<g id="a_node12"><a xlink:href="class_f_b_library_1_1_core_1_1_base_entities_1_1_base_map.html" target="_top" xlink:title="{FBLibrary.Core.BaseEntities.\lBaseMap\n|+ Name\l+ Loaded\l+ Size\l+ CollisionLayer\l+ PlayerSpawnPoints\l+ PlayerNumber\l|+ Reset()\l+ Parse()\l+ FindEmptyCells()\l+ GetMd5()\l+ DisplayBoard()\l+ DisplayCollisionLayer()\l# BaseMap()\l# AddUnbreakableWall()\l# AddUnbreakableWall()\l# AddEdgeWall()\l# AddEdgeWall()\l}">
<polygon fill="white" stroke="black" points="427.5,-1096.5 427.5,-1329.5 570.5,-1329.5 570.5,-1096.5 427.5,-1096.5"/>
<text text-anchor="start" x="435.5" y="-1317.5" font-family="Helvetica,sans-Serif" font-size="10.00">FBLibrary.Core.BaseEntities.</text>
<text text-anchor="middle" x="499" y="-1306.5" font-family="Helvetica,sans-Serif" font-size="10.00">BaseMap</text>
<polyline fill="none" stroke="black" points="427.5,-1299.5 570.5,-1299.5 "/>
<text text-anchor="start" x="435.5" y="-1287.5" font-family="Helvetica,sans-Serif" font-size="10.00">+ Name</text>
<text text-anchor="start" x="435.5" y="-1276.5" font-family="Helvetica,sans-Serif" font-size="10.00">+ Loaded</text>
<text text-anchor="start" x="435.5" y="-1265.5" font-family="Helvetica,sans-Serif" font-size="10.00">+ Size</text>
<text text-anchor="start" x="435.5" y="-1254.5" font-family="Helvetica,sans-Serif" font-size="10.00">+ CollisionLayer</text>
<text text-anchor="start" x="435.5" y="-1243.5" font-family="Helvetica,sans-Serif" font-size="10.00">+ PlayerSpawnPoints</text>
<text text-anchor="start" x="435.5" y="-1232.5" font-family="Helvetica,sans-Serif" font-size="10.00">+ PlayerNumber</text>
<polyline fill="none" stroke="black" points="427.5,-1225.5 570.5,-1225.5 "/>
<text text-anchor="start" x="435.5" y="-1213.5" font-family="Helvetica,sans-Serif" font-size="10.00">+ Reset()</text>
<text text-anchor="start" x="435.5" y="-1202.5" font-family="Helvetica,sans-Serif" font-size="10.00">+ Parse()</text>
<text text-anchor="start" x="435.5" y="-1191.5" font-family="Helvetica,sans-Serif" font-size="10.00">+ FindEmptyCells()</text>
<text text-anchor="start" x="435.5" y="-1180.5" font-family="Helvetica,sans-Serif" font-size="10.00">+ GetMd5()</text>
<text text-anchor="start" x="435.5" y="-1169.5" font-family="Helvetica,sans-Serif" font-size="10.00">+ DisplayBoard()</text>
<text text-anchor="start" x="435.5" y="-1158.5" font-family="Helvetica,sans-Serif" font-size="10.00">+ DisplayCollisionLayer()</text>
<text text-anchor="start" x="435.5" y="-1147.5" font-family="Helvetica,sans-Serif" font-size="10.00"># BaseMap()</text>
<text text-anchor="start" x="435.5" y="-1136.5" font-family="Helvetica,sans-Serif" font-size="10.00"># AddUnbreakableWall()</text>
<text text-anchor="start" x="435.5" y="-1125.5" font-family="Helvetica,sans-Serif" font-size="10.00"># AddUnbreakableWall()</text>
<text text-anchor="start" x="435.5" y="-1114.5" font-family="Helvetica,sans-Serif" font-size="10.00"># AddEdgeWall()</text>
<text text-anchor="start" x="435.5" y="-1103.5" font-family="Helvetica,sans-Serif" font-size="10.00"># AddEdgeWall()</text>
</a>
</g>
</g>
<!-- Node12&#45;&gt;Node11 -->
<g id="edge11" class="edge"><title>Node12&#45;&gt;Node11</title>
<path fill="none" stroke="#404040" d="M499,-1096.15C499,-1084.27 499,-1072.1 499,-1060"/>
<polygon fill="none" stroke="#404040" points="499,-1059.93 495,-1053.93 499,-1047.93 503,-1053.93 499,-1059.93"/>
<text text-anchor="middle" x="540" y="-1069.5" font-family="Helvetica,sans-Serif" font-size="10.00"> #BaseCurrentMap</text>
</g>
<!-- Node13 -->
<g id="node13" class="node"><title>Node13</title>
<g id="a_node13"><a xlink:href="interface_f_b_library_1_1_core_1_1_i_entity.html" target="_top" xlink:title="{FBLibrary.Core.IEntity\n||+ Destroy()\l+ Remove()\l}">
<polygon fill="white" stroke="black" points="442.5,-1379 442.5,-1447 555.5,-1447 555.5,-1379 442.5,-1379"/>
<text text-anchor="middle" x="499" y="-1435" font-family="Helvetica,sans-Serif" font-size="10.00">FBLibrary.Core.IEntity</text>
<polyline fill="none" stroke="black" points="442.5,-1428 555.5,-1428 "/>
<text text-anchor="middle" x="499" y="-1416" font-family="Helvetica,sans-Serif" font-size="10.00"> </text>
<polyline fill="none" stroke="black" points="442.5,-1409 555.5,-1409 "/>
<text text-anchor="start" x="450.5" y="-1397" font-family="Helvetica,sans-Serif" font-size="10.00">+ Destroy()</text>
<text text-anchor="start" x="450.5" y="-1386" font-family="Helvetica,sans-Serif" font-size="10.00">+ Remove()</text>
</a>
</g>
</g>
<!-- Node13&#45;&gt;Node12 -->
<g id="edge12" class="edge"><title>Node13&#45;&gt;Node12</title>
<path fill="none" stroke="#404040" d="M499,-1378.86C499,-1368.05 499,-1355.31 499,-1341.8"/>
<polygon fill="none" stroke="#404040" points="499,-1341.74 495,-1335.74 499,-1329.74 503,-1335.74 499,-1341.74"/>
<text text-anchor="middle" x="516.5" y="-1351.5" font-family="Helvetica,sans-Serif" font-size="10.00"> +Board</text>
</g>
<!-- Node14 -->
<g id="node14" class="node"><title>Node14</title>
<g id="a_node14"><a xlink:href="class_player_collection.html" target="_top" xlink:title="{PlayerCollection\n||+ GetPlayerByID()\l}">
<polygon fill="white" stroke="black" points="583,-891.5 583,-948.5 679,-948.5 679,-891.5 583,-891.5"/>
<text text-anchor="middle" x="631" y="-936.5" font-family="Helvetica,sans-Serif" font-size="10.00">PlayerCollection</text>
<polyline fill="none" stroke="black" points="583,-929.5 679,-929.5 "/>
<text text-anchor="middle" x="631" y="-917.5" font-family="Helvetica,sans-Serif" font-size="10.00"> </text>
<polyline fill="none" stroke="black" points="583,-910.5 679,-910.5 "/>
<text text-anchor="start" x="591" y="-898.5" font-family="Helvetica,sans-Serif" font-size="10.00">+ GetPlayerByID()</text>
</a>
</g>
</g>
<!-- Node14&#45;&gt;Node10 -->
<g id="edge13" class="edge"><title>Node14&#45;&gt;Node10</title>
<path fill="none" stroke="#404040" d="M620.752,-891.284C609.47,-860.771 590.285,-808.883 570.439,-755.21"/>
<polygon fill="none" stroke="#404040" points="570.358,-754.991 564.526,-750.751 566.197,-743.736 572.029,-747.977 570.358,-754.991"/>
<text text-anchor="middle" x="598.5" y="-765.5" font-family="Helvetica,sans-Serif" font-size="10.00"> +Players</text>
</g>
<!-- Node15 -->
<g id="node15" class="node"><title>Node15</title>
<polygon fill="white" stroke="#bfbfbf" points="592,-1184.5 592,-1241.5 670,-1241.5 670,-1184.5 592,-1184.5"/>
<text text-anchor="middle" x="631" y="-1229.5" font-family="Helvetica,sans-Serif" font-size="10.00">List&lt; Player &gt;</text>
<polyline fill="none" stroke="#bfbfbf" points="592,-1222.5 670,-1222.5 "/>
<text text-anchor="middle" x="631" y="-1210.5" font-family="Helvetica,sans-Serif" font-size="10.00"> </text>
<polyline fill="none" stroke="#bfbfbf" points="592,-1203.5 670,-1203.5 "/>
<text text-anchor="middle" x="631" y="-1191.5" font-family="Helvetica,sans-Serif" font-size="10.00"> </text>
</g>
<!-- Node15&#45;&gt;Node14 -->
<g id="edge14" class="edge"><title>Node15&#45;&gt;Node14</title>
<path fill="none" stroke="midnightblue" d="M631,-1174.3C631,-1115.02 631,-1001.4 631,-948.88"/>
<polygon fill="none" stroke="midnightblue" points="627.5,-1174.36 631,-1184.36 634.5,-1174.36 627.5,-1174.36"/>
</g>
<!-- Node16 -->
<g id="node16" class="node"><title>Node16</title>
<g id="a_node16"><a xlink:href="class_f_b_client_1_1_g_u_i_1_1_window_box.html" target="_top" xlink:title="{FBClient.GUI.WindowBox\n|+ Position\l+ Size\l|+ WindowBox()\l+ Draw()\l}">
<polygon fill="white" stroke="black" points="589,-521.5 589,-600.5 717,-600.5 717,-521.5 589,-521.5"/>
<text text-anchor="middle" x="653" y="-588.5" font-family="Helvetica,sans-Serif" font-size="10.00">FBClient.GUI.WindowBox</text>
<polyline fill="none" stroke="black" points="589,-581.5 717,-581.5 "/>
<text text-anchor="start" x="597" y="-569.5" font-family="Helvetica,sans-Serif" font-size="10.00">+ Position</text>
<text text-anchor="start" x="597" y="-558.5" font-family="Helvetica,sans-Serif" font-size="10.00">+ Size</text>
<polyline fill="none" stroke="black" points="589,-551.5 717,-551.5 "/>
<text text-anchor="start" x="597" y="-539.5" font-family="Helvetica,sans-Serif" font-size="10.00">+ WindowBox()</text>
<text text-anchor="start" x="597" y="-528.5" font-family="Helvetica,sans-Serif" font-size="10.00">+ Draw()</text>
</a>
</g>
</g>
<!-- Node16&#45;&gt;Node2 -->
<g id="edge15" class="edge"><title>Node16&#45;&gt;Node2</title>
<path fill="none" stroke="#404040" d="M647.162,-521.325C640.074,-474.364 627.895,-393.678 618.444,-331.063"/>
<polygon fill="none" stroke="#404040" points="618.443,-331.062 613.593,-325.726 616.652,-319.196 621.503,-324.532 618.443,-331.062"/>
<text text-anchor="middle" x="667.5" y="-352" font-family="Helvetica,sans-Serif" font-size="10.00"> #ScoresWindowBox</text>
<text text-anchor="middle" x="667.5" y="-341" font-family="Helvetica,sans-Serif" font-size="10.00">#TimerWindowBox</text>
</g>
<!-- Node17 -->
<g id="node17" class="node"><title>Node17</title>
<g id="a_node17"><a xlink:href="class_f_b_client_1_1_world_engine_1_1_camera2_d.html" target="_top" xlink:title="{FBClient.WorldEngine.Camera2D\n|+ Zoom\l+ Rotation\l+ Position\l+ ViewportRectangle\l|+ Camera2D()\l+ Move()\l+ Update()\l+ GetTransformation()\l}">
<polygon fill="white" stroke="black" points="735.5,-499.5 735.5,-622.5 896.5,-622.5 896.5,-499.5 735.5,-499.5"/>
<text text-anchor="middle" x="816" y="-610.5" font-family="Helvetica,sans-Serif" font-size="10.00">FBClient.WorldEngine.Camera2D</text>
<polyline fill="none" stroke="black" points="735.5,-603.5 896.5,-603.5 "/>
<text text-anchor="start" x="743.5" y="-591.5" font-family="Helvetica,sans-Serif" font-size="10.00">+ Zoom</text>
<text text-anchor="start" x="743.5" y="-580.5" font-family="Helvetica,sans-Serif" font-size="10.00">+ Rotation</text>
<text text-anchor="start" x="743.5" y="-569.5" font-family="Helvetica,sans-Serif" font-size="10.00">+ Position</text>
<text text-anchor="start" x="743.5" y="-558.5" font-family="Helvetica,sans-Serif" font-size="10.00">+ ViewportRectangle</text>
<polyline fill="none" stroke="black" points="735.5,-551.5 896.5,-551.5 "/>
<text text-anchor="start" x="743.5" y="-539.5" font-family="Helvetica,sans-Serif" font-size="10.00">+ Camera2D()</text>
<text text-anchor="start" x="743.5" y="-528.5" font-family="Helvetica,sans-Serif" font-size="10.00">+ Move()</text>
<text text-anchor="start" x="743.5" y="-517.5" font-family="Helvetica,sans-Serif" font-size="10.00">+ Update()</text>
<text text-anchor="start" x="743.5" y="-506.5" font-family="Helvetica,sans-Serif" font-size="10.00">+ GetTransformation()</text>
</a>
</g>
</g>
<!-- Node17&#45;&gt;Node2 -->
<g id="edge16" class="edge"><title>Node17&#45;&gt;Node2</title>
<path fill="none" stroke="#404040" d="M797.106,-499.133C780.671,-452.204 753.709,-387.22 717,-338 706.199,-323.517 692.845,-309.727 679.166,-297.346"/>
<polygon fill="none" stroke="#404040" points="679.165,-297.345 672.018,-296.387 670.154,-289.421 677.301,-290.379 679.165,-297.345"/>
<text text-anchor="middle" x="753.5" y="-346.5" font-family="Helvetica,sans-Serif" font-size="10.00"> #Camera</text>
</g>
</g>
</svg>
        <g id="navigator" transform="translate(0 0)" fill="#404254">
                <rect fill="#f2f5e9" fill-opacity="0.5" stroke="#606060" stroke-width=".5" x="0" y="0" width="60" height="60"/>
                <use id="zoomplus" xlink:href="#zoomPlus" x="17" y="9" onmousedown="handleZoom(evt,'in')"/>
                <use id="zoomminus" xlink:href="#zoomMin" x="42" y="9" onmousedown="handleZoom(evt,'out')"/>
                <use id="reset" xlink:href="#resetDef" x="30" y="36" onmousedown="handleReset()"/>
                <g id="arrowUp" xlink:href="#dirArrow" transform="translate(30 24)" onmousedown="handlePan(0,-1)">
                  <use xlink:href="#rim" fill="#404040">
                        <set attributeName="fill" to="#808080" begin="arrowUp.mouseover" end="arrowUp.mouseout"/>
                  </use>
                  <path fill="none" stroke="white" stroke-width="1.5" d="M0,-3.0v7 M-2.5,-0.5L0,-3.0L2.5,-0.5"/>
                </g>
                <g id="arrowRight" xlink:href="#dirArrow" transform="rotate(90) translate(36 -43)" onmousedown="handlePan(1,0)">
                  <use xlink:href="#rim" fill="#404040">
                        <set attributeName="fill" to="#808080" begin="arrowRight.mouseover" end="arrowRight.mouseout"/>
                  </use>
                  <path fill="none" stroke="white" stroke-width="1.5" d="M0,-3.0v7 M-2.5,-0.5L0,-3.0L2.5,-0.5"/>
                </g>
                <g id="arrowDown" xlink:href="#dirArrow" transform="rotate(180) translate(-30 -48)" onmousedown="handlePan(0,1)">
                  <use xlink:href="#rim" fill="#404040">
                        <set attributeName="fill" to="#808080" begin="arrowDown.mouseover" end="arrowDown.mouseout"/>
                  </use>
                  <path fill="none" stroke="white" stroke-width="1.5" d="M0,-3.0v7 M-2.5,-0.5L0,-3.0L2.5,-0.5"/>
                </g>
                <g id="arrowLeft" xlink:href="#dirArrow" transform="rotate(270) translate(-36 17)" onmousedown="handlePan(-1,0)">
                  <use xlink:href="#rim" fill="#404040">
                        <set attributeName="fill" to="#808080" begin="arrowLeft.mouseover" end="arrowLeft.mouseout"/>
                  </use>
                  <path fill="none" stroke="white" stroke-width="1.5" d="M0,-3.0v7 M-2.5,-0.5L0,-3.0L2.5,-0.5"/>
                </g>
        </g>
        <svg viewBox="0 0 15 15" width="100%" height="30px" preserveAspectRatio="xMaxYMin meet">
         <g id="arrow_out" transform="scale(0.3 0.3)">
          <a xlink:href="class_f_b_client_1_1_screens_1_1_game_screens_1_1_single_player_game_play_screen__coll__graph_org.svg" target="_base">
           <rect id="button" ry="5" rx="5" y="6" x="6" height="38" width="38"
                fill="#f2f5e9" fill-opacity="0.5" stroke="#606060" stroke-width="1.0"/>
           <path id="arrow"
             d="M 11.500037,31.436501 C 11.940474,20.09759 22.043105,11.32322 32.158766,21.979434 L 37.068811,17.246167 C 37.068811,17.246167 37.088388,32 37.088388,32 L 22.160133,31.978069 C 22.160133,31.978069 26.997745,27.140456 26.997745,27.140456 C 18.528582,18.264221 13.291696,25.230495 11.500037,31.436501 z"
             style="fill:#404040;"/>
          </a>
         </g>
        </svg>
</svg>
