<?xml version="1.0" encoding="UTF-8" standalone="no"?>
<!DOCTYPE svg PUBLIC "-//W3C//DTD SVG 1.1//EN"
 "http://www.w3.org/Graphics/SVG/1.1/DTD/svg11.dtd">
<!-- Generated by graphviz version 2.34.0 (20130907.0111)
 -->
<!-- Title: FBClient.WorldEngine.World Pages: 1 -->
<svg width="148pt" height="216pt"
 viewBox="0.00 0.00 148.00 216.00" xmlns="http://www.w3.org/2000/svg" xmlns:xlink="http://www.w3.org/1999/xlink">
<g id="graph0" class="graph" transform="scale(1 1) rotate(0) translate(4 212)">
<title>FBClient.WorldEngine.World</title>
<polygon fill="white" stroke="white" points="-4,4 -4,-212 144,-212 144,4 -4,4"/>
<!-- Node1 -->
<g id="node1" class="node"><title>Node1</title>
<polygon fill="#bfbfbf" stroke="black" points="-0.5,-1 -0.5,-113 140.5,-113 140.5,-1 -0.5,-1"/>
<text text-anchor="middle" x="70" y="-101" font-family="Helvetica,sans-Serif" font-size="10.00">FBClient.WorldEngine.World</text>
<polyline fill="none" stroke="black" points="-0.5,-94 140.5,-94 "/>
<text text-anchor="start" x="7.5" y="-82" font-family="Helvetica,sans-Serif" font-size="10.00">+ ScreenRectangle</text>
<text text-anchor="start" x="7.5" y="-71" font-family="Helvetica,sans-Serif" font-size="10.00">+ Levels</text>
<text text-anchor="start" x="7.5" y="-60" font-family="Helvetica,sans-Serif" font-size="10.00">+ CurrentLevel</text>
<polyline fill="none" stroke="black" points="-0.5,-53 140.5,-53 "/>
<text text-anchor="start" x="7.5" y="-41" font-family="Helvetica,sans-Serif" font-size="10.00">+ World()</text>
<text text-anchor="start" x="7.5" y="-30" font-family="Helvetica,sans-Serif" font-size="10.00">+ Update()</text>
<text text-anchor="start" x="7.5" y="-19" font-family="Helvetica,sans-Serif" font-size="10.00">+ Draw()</text>
<text text-anchor="start" x="7.5" y="-8" font-family="Helvetica,sans-Serif" font-size="10.00">+ DrawLevel()</text>
</g>
<!-- Node2 -->
<g id="node2" class="node"><title>Node2</title>
<polygon fill="white" stroke="#bfbfbf" points="4,-150.5 4,-207.5 136,-207.5 136,-150.5 4,-150.5"/>
<text text-anchor="middle" x="70" y="-195.5" font-family="Helvetica,sans-Serif" font-size="10.00">DrawableGameComponent</text>
<polyline fill="none" stroke="#bfbfbf" points="4,-188.5 136,-188.5 "/>
<text text-anchor="middle" x="70" y="-176.5" font-family="Helvetica,sans-Serif" font-size="10.00"> </text>
<polyline fill="none" stroke="#bfbfbf" points="4,-169.5 136,-169.5 "/>
<text text-anchor="middle" x="70" y="-157.5" font-family="Helvetica,sans-Serif" font-size="10.00"> </text>
</g>
<!-- Node2&#45;&gt;Node1 -->
<g id="edge1" class="edge"><title>Node2&#45;&gt;Node1</title>
<path fill="none" stroke="midnightblue" d="M70,-140.398C70,-131.802 70,-122.49 70,-113.324"/>
<polygon fill="none" stroke="midnightblue" points="66.5001,-140.47 70,-150.47 73.5001,-140.47 66.5001,-140.47"/>
</g>
</g>
</svg>
