<?xml version="1.0" encoding="UTF-8" standalone="no"?>
<!DOCTYPE svg PUBLIC "-//W3C//DTD SVG 1.1//EN"
 "http://www.w3.org/Graphics/SVG/1.1/DTD/svg11.dtd">
<!-- Generated by graphviz version 2.34.0 (20130907.0111)
 -->
<!-- Title: FBLibrary.Core.BaseEntities.BaseMap Pages: 1 -->
<svg width="150pt" height="360pt"
 viewBox="0.00 0.00 150.00 360.00" xmlns="http://www.w3.org/2000/svg" xmlns:xlink="http://www.w3.org/1999/xlink">
<g id="graph0" class="graph" transform="scale(1 1) rotate(0) translate(4 356)">
<title>FBLibrary.Core.BaseEntities.BaseMap</title>
<polygon fill="white" stroke="white" points="-4,4 -4,-356 146,-356 146,4 -4,4"/>
<!-- Node1 -->
<g id="node1" class="node"><title>Node1</title>
<polygon fill="#bfbfbf" stroke="black" points="-0.5,-0.5 -0.5,-233.5 142.5,-233.5 142.5,-0.5 -0.5,-0.5"/>
<text text-anchor="start" x="7.5" y="-221.5" font-family="Helvetica,sans-Serif" font-size="10.00">FBLibrary.Core.BaseEntities.</text>
<text text-anchor="middle" x="71" y="-210.5" font-family="Helvetica,sans-Serif" font-size="10.00">BaseMap</text>
<polyline fill="none" stroke="black" points="-0.5,-203.5 142.5,-203.5 "/>
<text text-anchor="start" x="7.5" y="-191.5" font-family="Helvetica,sans-Serif" font-size="10.00">+ Name</text>
<text text-anchor="start" x="7.5" y="-180.5" font-family="Helvetica,sans-Serif" font-size="10.00">+ Loaded</text>
<text text-anchor="start" x="7.5" y="-169.5" font-family="Helvetica,sans-Serif" font-size="10.00">+ Size</text>
<text text-anchor="start" x="7.5" y="-158.5" font-family="Helvetica,sans-Serif" font-size="10.00">+ CollisionLayer</text>
<text text-anchor="start" x="7.5" y="-147.5" font-family="Helvetica,sans-Serif" font-size="10.00">+ PlayerSpawnPoints</text>
<text text-anchor="start" x="7.5" y="-136.5" font-family="Helvetica,sans-Serif" font-size="10.00">+ PlayerNumber</text>
<polyline fill="none" stroke="black" points="-0.5,-129.5 142.5,-129.5 "/>
<text text-anchor="start" x="7.5" y="-117.5" font-family="Helvetica,sans-Serif" font-size="10.00">+ Reset()</text>
<text text-anchor="start" x="7.5" y="-106.5" font-family="Helvetica,sans-Serif" font-size="10.00">+ Parse()</text>
<text text-anchor="start" x="7.5" y="-95.5" font-family="Helvetica,sans-Serif" font-size="10.00">+ FindEmptyCells()</text>
<text text-anchor="start" x="7.5" y="-84.5" font-family="Helvetica,sans-Serif" font-size="10.00">+ GetMd5()</text>
<text text-anchor="start" x="7.5" y="-73.5" font-family="Helvetica,sans-Serif" font-size="10.00">+ DisplayBoard()</text>
<text text-anchor="start" x="7.5" y="-62.5" font-family="Helvetica,sans-Serif" font-size="10.00">+ DisplayCollisionLayer()</text>
<text text-anchor="start" x="7.5" y="-51.5" font-family="Helvetica,sans-Serif" font-size="10.00"># BaseMap()</text>
<text text-anchor="start" x="7.5" y="-40.5" font-family="Helvetica,sans-Serif" font-size="10.00"># AddUnbreakableWall()</text>
<text text-anchor="start" x="7.5" y="-29.5" font-family="Helvetica,sans-Serif" font-size="10.00"># AddUnbreakableWall()</text>
<text text-anchor="start" x="7.5" y="-18.5" font-family="Helvetica,sans-Serif" font-size="10.00"># AddEdgeWall()</text>
<text text-anchor="start" x="7.5" y="-7.5" font-family="Helvetica,sans-Serif" font-size="10.00"># AddEdgeWall()</text>
</g>
<!-- Node2 -->
<g id="node2" class="node"><title>Node2</title>
<g id="a_node2"><a xlink:href="interface_f_b_library_1_1_core_1_1_i_entity.html" target="_top" xlink:title="{FBLibrary.Core.IEntity\n||+ Destroy()\l+ Remove()\l}">
<polygon fill="white" stroke="black" points="14.5,-283 14.5,-351 127.5,-351 127.5,-283 14.5,-283"/>
<text text-anchor="middle" x="71" y="-339" font-family="Helvetica,sans-Serif" font-size="10.00">FBLibrary.Core.IEntity</text>
<polyline fill="none" stroke="black" points="14.5,-332 127.5,-332 "/>
<text text-anchor="middle" x="71" y="-320" font-family="Helvetica,sans-Serif" font-size="10.00"> </text>
<polyline fill="none" stroke="black" points="14.5,-313 127.5,-313 "/>
<text text-anchor="start" x="22.5" y="-301" font-family="Helvetica,sans-Serif" font-size="10.00">+ Destroy()</text>
<text text-anchor="start" x="22.5" y="-290" font-family="Helvetica,sans-Serif" font-size="10.00">+ Remove()</text>
</a>
</g>
</g>
<!-- Node2&#45;&gt;Node1 -->
<g id="edge1" class="edge"><title>Node2&#45;&gt;Node1</title>
<path fill="none" stroke="#404040" d="M71,-282.859C71,-272.046 71,-259.313 71,-245.796"/>
<polygon fill="none" stroke="#404040" points="71.0001,-245.745 67,-239.745 71,-233.745 75,-239.745 71.0001,-245.745"/>
<text text-anchor="middle" x="88.5" y="-255.5" font-family="Helvetica,sans-Serif" font-size="10.00"> +Board</text>
</g>
</g>
</svg>
