<?xml version="1.0" encoding="UTF-8" standalone="no"?>
<!DOCTYPE svg PUBLIC "-//W3C//DTD SVG 1.1//EN"
 "http://www.w3.org/Graphics/SVG/1.1/DTD/svg11.dtd">
<!-- Generated by graphviz version 2.34.0 (20130907.0111)
 -->
<!-- Title: FBLibrary.Core.BaseEntities.BaseWall Pages: 1 -->
<svg width="300pt" height="718pt"
 viewBox="0.00 0.00 300.00 718.00" xmlns="http://www.w3.org/2000/svg" xmlns:xlink="http://www.w3.org/1999/xlink">
<g id="graph0" class="graph" transform="scale(1 1) rotate(0) translate(4 714)">
<title>FBLibrary.Core.BaseEntities.BaseWall</title>
<polygon fill="white" stroke="white" points="-4,4 -4,-714 296,-714 296,4 -4,4"/>
<!-- Node1 -->
<g id="node1" class="node"><title>Node1</title>
<polygon fill="#bfbfbf" stroke="black" points="73.5,-138.5 73.5,-217.5 216.5,-217.5 216.5,-138.5 73.5,-138.5"/>
<text text-anchor="start" x="81.5" y="-205.5" font-family="Helvetica,sans-Serif" font-size="10.00">FBLibrary.Core.BaseEntities.</text>
<text text-anchor="middle" x="145" y="-194.5" font-family="Helvetica,sans-Serif" font-size="10.00">BaseWall</text>
<polyline fill="none" stroke="black" points="73.5,-187.5 216.5,-187.5 "/>
<text text-anchor="middle" x="145" y="-175.5" font-family="Helvetica,sans-Serif" font-size="10.00"> </text>
<polyline fill="none" stroke="black" points="73.5,-168.5 216.5,-168.5 "/>
<text text-anchor="start" x="81.5" y="-156.5" font-family="Helvetica,sans-Serif" font-size="10.00">+ Update()</text>
<text text-anchor="start" x="81.5" y="-145.5" font-family="Helvetica,sans-Serif" font-size="10.00"># BaseWall()</text>
</g>
<!-- Node5 -->
<g id="node5" class="node"><title>Node5</title>
<g id="a_node5"><a xlink:href="class_f_b_client_1_1_core_1_1_entities_1_1_wall.html" target="_top" xlink:title="{FBClient.Core.Entities.Wall\n|+ Sprite\l|+ Wall()\l+ Update()\l+ Draw()\l+ Destroy()\l+ Remove()\l}">
<polygon fill="white" stroke="black" points="0,-0.5 0,-101.5 136,-101.5 136,-0.5 0,-0.5"/>
<text text-anchor="middle" x="68" y="-89.5" font-family="Helvetica,sans-Serif" font-size="10.00">FBClient.Core.Entities.Wall</text>
<polyline fill="none" stroke="black" points="0,-82.5 136,-82.5 "/>
<text text-anchor="start" x="8" y="-70.5" font-family="Helvetica,sans-Serif" font-size="10.00">+ Sprite</text>
<polyline fill="none" stroke="black" points="0,-63.5 136,-63.5 "/>
<text text-anchor="start" x="8" y="-51.5" font-family="Helvetica,sans-Serif" font-size="10.00">+ Wall()</text>
<text text-anchor="start" x="8" y="-40.5" font-family="Helvetica,sans-Serif" font-size="10.00">+ Update()</text>
<text text-anchor="start" x="8" y="-29.5" font-family="Helvetica,sans-Serif" font-size="10.00">+ Draw()</text>
<text text-anchor="start" x="8" y="-18.5" font-family="Helvetica,sans-Serif" font-size="10.00">+ Destroy()</text>
<text text-anchor="start" x="8" y="-7.5" font-family="Helvetica,sans-Serif" font-size="10.00">+ Remove()</text>
</a>
</g>
</g>
<!-- Node1&#45;&gt;Node5 -->
<g id="edge4" class="edge"><title>Node1&#45;&gt;Node5</title>
<path fill="none" stroke="midnightblue" d="M115.944,-129.831C110.279,-120.635 104.323,-110.966 98.6096,-101.691"/>
<polygon fill="none" stroke="midnightblue" points="113.044,-131.797 121.269,-138.476 119.004,-128.126 113.044,-131.797"/>
</g>
<!-- Node6 -->
<g id="node6" class="node"><title>Node6</title>
<g id="a_node6"><a xlink:href="class_f_b_server_1_1_core_1_1_entities_1_1_wall.html" target="_top" xlink:title="{FBServer.Core.Entities.Wall\n||+ Wall()\l+ Destroy()\l+ Remove()\l}">
<polygon fill="white" stroke="black" points="154,-11.5 154,-90.5 292,-90.5 292,-11.5 154,-11.5"/>
<text text-anchor="middle" x="223" y="-78.5" font-family="Helvetica,sans-Serif" font-size="10.00">FBServer.Core.Entities.Wall</text>
<polyline fill="none" stroke="black" points="154,-71.5 292,-71.5 "/>
<text text-anchor="middle" x="223" y="-59.5" font-family="Helvetica,sans-Serif" font-size="10.00"> </text>
<polyline fill="none" stroke="black" points="154,-52.5 292,-52.5 "/>
<text text-anchor="start" x="162" y="-40.5" font-family="Helvetica,sans-Serif" font-size="10.00">+ Wall()</text>
<text text-anchor="start" x="162" y="-29.5" font-family="Helvetica,sans-Serif" font-size="10.00">+ Destroy()</text>
<text text-anchor="start" x="162" y="-18.5" font-family="Helvetica,sans-Serif" font-size="10.00">+ Remove()</text>
</a>
</g>
</g>
<!-- Node1&#45;&gt;Node6 -->
<g id="edge5" class="edge"><title>Node1&#45;&gt;Node6</title>
<path fill="none" stroke="midnightblue" d="M174.506,-129.716C182.561,-116.806 191.191,-102.975 198.906,-90.6121"/>
<polygon fill="none" stroke="midnightblue" points="171.364,-128.139 169.039,-138.476 177.302,-131.845 171.364,-128.139"/>
</g>
<!-- Node2 -->
<g id="node2" class="node"><title>Node2</title>
<g id="a_node2"><a xlink:href="class_f_b_library_1_1_core_1_1_static_entity.html" target="_top" xlink:title="{StaticEntity\n||+ Update()\l# StaticEntity()\l# StaticEntity()\l}">
<polygon fill="white" stroke="black" points="104,-254.5 104,-333.5 186,-333.5 186,-254.5 104,-254.5"/>
<text text-anchor="middle" x="145" y="-321.5" font-family="Helvetica,sans-Serif" font-size="10.00">StaticEntity</text>
<polyline fill="none" stroke="black" points="104,-314.5 186,-314.5 "/>
<text text-anchor="middle" x="145" y="-302.5" font-family="Helvetica,sans-Serif" font-size="10.00"> </text>
<polyline fill="none" stroke="black" points="104,-295.5 186,-295.5 "/>
<text text-anchor="start" x="112" y="-283.5" font-family="Helvetica,sans-Serif" font-size="10.00">+ Update()</text>
<text text-anchor="start" x="112" y="-272.5" font-family="Helvetica,sans-Serif" font-size="10.00"># StaticEntity()</text>
<text text-anchor="start" x="112" y="-261.5" font-family="Helvetica,sans-Serif" font-size="10.00"># StaticEntity()</text>
</a>
</g>
</g>
<!-- Node2&#45;&gt;Node1 -->
<g id="edge1" class="edge"><title>Node2&#45;&gt;Node1</title>
<path fill="none" stroke="midnightblue" d="M145,-244.146C145,-235.256 145,-226.096 145,-217.555"/>
<polygon fill="none" stroke="midnightblue" points="141.5,-244.405 145,-254.405 148.5,-244.405 141.5,-244.405"/>
</g>
<!-- Node3 -->
<g id="node3" class="node"><title>Node3</title>
<g id="a_node3"><a xlink:href="class_f_b_library_1_1_core_1_1_base_entity.html" target="_top" xlink:title="{BaseEntity\n|+ IsAlive\l+ InDestruction\l+ DestructionTime\l+ Position\l+ PositionX\l+ PositionY\l+ CellPositionX\l+ CellPositionY\l+ CellPosition\l+ Dimension\l|+ Update()\l+ ChangePosition()\l+ ChangePosition()\l+ ChangePosition()\l+ Destroy()\l+ Remove()\l# BaseEntity()\l# BaseEntity()\l}">
<polygon fill="white" stroke="black" points="95,-370.5 95,-603.5 195,-603.5 195,-370.5 95,-370.5"/>
<text text-anchor="middle" x="145" y="-591.5" font-family="Helvetica,sans-Serif" font-size="10.00">BaseEntity</text>
<polyline fill="none" stroke="black" points="95,-584.5 195,-584.5 "/>
<text text-anchor="start" x="103" y="-572.5" font-family="Helvetica,sans-Serif" font-size="10.00">+ IsAlive</text>
<text text-anchor="start" x="103" y="-561.5" font-family="Helvetica,sans-Serif" font-size="10.00">+ InDestruction</text>
<text text-anchor="start" x="103" y="-550.5" font-family="Helvetica,sans-Serif" font-size="10.00">+ DestructionTime</text>
<text text-anchor="start" x="103" y="-539.5" font-family="Helvetica,sans-Serif" font-size="10.00">+ Position</text>
<text text-anchor="start" x="103" y="-528.5" font-family="Helvetica,sans-Serif" font-size="10.00">+ PositionX</text>
<text text-anchor="start" x="103" y="-517.5" font-family="Helvetica,sans-Serif" font-size="10.00">+ PositionY</text>
<text text-anchor="start" x="103" y="-506.5" font-family="Helvetica,sans-Serif" font-size="10.00">+ CellPositionX</text>
<text text-anchor="start" x="103" y="-495.5" font-family="Helvetica,sans-Serif" font-size="10.00">+ CellPositionY</text>
<text text-anchor="start" x="103" y="-484.5" font-family="Helvetica,sans-Serif" font-size="10.00">+ CellPosition</text>
<text text-anchor="start" x="103" y="-473.5" font-family="Helvetica,sans-Serif" font-size="10.00">+ Dimension</text>
<polyline fill="none" stroke="black" points="95,-466.5 195,-466.5 "/>
<text text-anchor="start" x="103" y="-454.5" font-family="Helvetica,sans-Serif" font-size="10.00">+ Update()</text>
<text text-anchor="start" x="103" y="-443.5" font-family="Helvetica,sans-Serif" font-size="10.00">+ ChangePosition()</text>
<text text-anchor="start" x="103" y="-432.5" font-family="Helvetica,sans-Serif" font-size="10.00">+ ChangePosition()</text>
<text text-anchor="start" x="103" y="-421.5" font-family="Helvetica,sans-Serif" font-size="10.00">+ ChangePosition()</text>
<text text-anchor="start" x="103" y="-410.5" font-family="Helvetica,sans-Serif" font-size="10.00">+ Destroy()</text>
<text text-anchor="start" x="103" y="-399.5" font-family="Helvetica,sans-Serif" font-size="10.00">+ Remove()</text>
<text text-anchor="start" x="103" y="-388.5" font-family="Helvetica,sans-Serif" font-size="10.00"># BaseEntity()</text>
<text text-anchor="start" x="103" y="-377.5" font-family="Helvetica,sans-Serif" font-size="10.00"># BaseEntity()</text>
</a>
</g>
</g>
<!-- Node3&#45;&gt;Node2 -->
<g id="edge2" class="edge"><title>Node3&#45;&gt;Node2</title>
<path fill="none" stroke="midnightblue" d="M145,-360.405C145,-350.866 145,-341.774 145,-333.565"/>
<polygon fill="none" stroke="midnightblue" points="141.5,-360.488 145,-370.488 148.5,-360.488 141.5,-360.488"/>
</g>
<!-- Node4 -->
<g id="node4" class="node"><title>Node4</title>
<g id="a_node4"><a xlink:href="interface_f_b_library_1_1_core_1_1_i_entity.html" target="_top" xlink:title="{IEntity\n||+ Destroy()\l+ Remove()\l}">
<polygon fill="white" stroke="black" points="112,-641 112,-709 178,-709 178,-641 112,-641"/>
<text text-anchor="middle" x="145" y="-697" font-family="Helvetica,sans-Serif" font-size="10.00">IEntity</text>
<polyline fill="none" stroke="black" points="112,-690 178,-690 "/>
<text text-anchor="middle" x="145" y="-678" font-family="Helvetica,sans-Serif" font-size="10.00"> </text>
<polyline fill="none" stroke="black" points="112,-671 178,-671 "/>
<text text-anchor="start" x="120" y="-659" font-family="Helvetica,sans-Serif" font-size="10.00">+ Destroy()</text>
<text text-anchor="start" x="120" y="-648" font-family="Helvetica,sans-Serif" font-size="10.00">+ Remove()</text>
</a>
</g>
</g>
<!-- Node4&#45;&gt;Node3 -->
<g id="edge3" class="edge"><title>Node4&#45;&gt;Node3</title>
<path fill="none" stroke="midnightblue" d="M145,-630.601C145,-622.247 145,-613.139 145,-603.698"/>
<polygon fill="none" stroke="midnightblue" points="141.5,-630.747 145,-640.747 148.5,-630.747 141.5,-630.747"/>
</g>
</g>
</svg>
