<?xml version="1.0" encoding="UTF-8" standalone="no"?>
<!DOCTYPE svg PUBLIC "-//W3C//DTD SVG 1.1//EN"
 "http://www.w3.org/Graphics/SVG/1.1/DTD/svg11.dtd">
<!-- Generated by graphviz version 2.34.0 (20130907.0111)
 -->
<!-- Title: FBLibrary.Core.BaseEntities.BaseTeleporter Pages: 1 -->
<svg width="168pt" height="264pt"
 viewBox="0.00 0.00 168.00 264.00" xmlns="http://www.w3.org/2000/svg" xmlns:xlink="http://www.w3.org/1999/xlink">
<g id="graph0" class="graph" transform="scale(1 1) rotate(0) translate(4 260)">
<title>FBLibrary.Core.BaseEntities.BaseTeleporter</title>
<polygon fill="white" stroke="white" points="-4,4 -4,-260 164,-260 164,4 -4,4"/>
<!-- Node1 -->
<g id="node1" class="node"><title>Node1</title>
<polygon fill="#bfbfbf" stroke="black" points="8.5,-57 8.5,-87 151.5,-87 151.5,-57 8.5,-57"/>
<text text-anchor="start" x="16.5" y="-75" font-family="Helvetica,sans-Serif" font-size="10.00">FBLibrary.Core.BaseEntities.</text>
<text text-anchor="middle" x="80" y="-64" font-family="Helvetica,sans-Serif" font-size="10.00">BaseTeleporter</text>
</g>
<!-- Node5 -->
<g id="node5" class="node"><title>Node5</title>
<g id="a_node5"><a xlink:href="class_f_b_server_1_1_core_1_1_entities_1_1_teleporter.html" target="_top" xlink:title="FBServer.Core.Entities.Teleporter">
<polygon fill="white" stroke="black" points="-0.5,-0.5 -0.5,-19.5 160.5,-19.5 160.5,-0.5 -0.5,-0.5"/>
<text text-anchor="middle" x="80" y="-7.5" font-family="Helvetica,sans-Serif" font-size="10.00">FBServer.Core.Entities.Teleporter</text>
</a>
</g>
</g>
<!-- Node1&#45;&gt;Node5 -->
<g id="edge4" class="edge"><title>Node1&#45;&gt;Node5</title>
<path fill="none" stroke="midnightblue" d="M80,-46.5858C80,-37.0743 80,-26.7864 80,-19.7305"/>
<polygon fill="midnightblue" stroke="midnightblue" points="76.5001,-46.7808 80,-56.7808 83.5001,-46.7809 76.5001,-46.7808"/>
</g>
<!-- Node2 -->
<g id="node2" class="node"><title>Node2</title>
<g id="a_node2"><a xlink:href="class_f_b_library_1_1_core_1_1_static_entity.html" target="_top" xlink:title="StaticEntity">
<polygon fill="white" stroke="black" points="46,-124.5 46,-143.5 114,-143.5 114,-124.5 46,-124.5"/>
<text text-anchor="middle" x="80" y="-131.5" font-family="Helvetica,sans-Serif" font-size="10.00">StaticEntity</text>
</a>
</g>
</g>
<!-- Node2&#45;&gt;Node1 -->
<g id="edge1" class="edge"><title>Node2&#45;&gt;Node1</title>
<path fill="none" stroke="midnightblue" d="M80,-114.371C80,-105.585 80,-95.2721 80,-87.1408"/>
<polygon fill="midnightblue" stroke="midnightblue" points="76.5001,-114.403 80,-124.403 83.5001,-114.403 76.5001,-114.403"/>
</g>
<!-- Node3 -->
<g id="node3" class="node"><title>Node3</title>
<g id="a_node3"><a xlink:href="class_f_b_library_1_1_core_1_1_base_entity.html" target="_top" xlink:title="BaseEntity">
<polygon fill="white" stroke="black" points="47.5,-180.5 47.5,-199.5 112.5,-199.5 112.5,-180.5 47.5,-180.5"/>
<text text-anchor="middle" x="80" y="-187.5" font-family="Helvetica,sans-Serif" font-size="10.00">BaseEntity</text>
</a>
</g>
</g>
<!-- Node3&#45;&gt;Node2 -->
<g id="edge2" class="edge"><title>Node3&#45;&gt;Node2</title>
<path fill="none" stroke="midnightblue" d="M80,-169.805C80,-160.91 80,-150.78 80,-143.751"/>
<polygon fill="midnightblue" stroke="midnightblue" points="76.5001,-170.083 80,-180.083 83.5001,-170.083 76.5001,-170.083"/>
</g>
<!-- Node4 -->
<g id="node4" class="node"><title>Node4</title>
<g id="a_node4"><a xlink:href="interface_f_b_library_1_1_core_1_1_i_entity.html" target="_top" xlink:title="IEntity">
<polygon fill="white" stroke="black" points="58,-236.5 58,-255.5 102,-255.5 102,-236.5 58,-236.5"/>
<text text-anchor="middle" x="80" y="-243.5" font-family="Helvetica,sans-Serif" font-size="10.00">IEntity</text>
</a>
</g>
</g>
<!-- Node4&#45;&gt;Node3 -->
<g id="edge3" class="edge"><title>Node4&#45;&gt;Node3</title>
<path fill="none" stroke="midnightblue" d="M80,-225.805C80,-216.91 80,-206.78 80,-199.751"/>
<polygon fill="midnightblue" stroke="midnightblue" points="76.5001,-226.083 80,-236.083 83.5001,-226.083 76.5001,-226.083"/>
</g>
</g>
</svg>
