<?xml version="1.0" encoding="UTF-8" standalone="no"?>
<!DOCTYPE svg PUBLIC "-//W3C//DTD SVG 1.1//EN"
 "http://www.w3.org/Graphics/SVG/1.1/DTD/svg11.dtd">
<!-- Generated by graphviz version 2.34.0 (20130907.0111)
 -->
<!-- Title: FBClient.Core.LocalGameManager Pages: 1 -->
<svg width="249pt" height="302pt"
 viewBox="0.00 0.00 249.00 302.00" xmlns="http://www.w3.org/2000/svg" xmlns:xlink="http://www.w3.org/1999/xlink">
<g id="graph0" class="graph" transform="scale(1 1) rotate(0) translate(4 298)">
<title>FBClient.Core.LocalGameManager</title>
<polygon fill="white" stroke="white" points="-4,4 -4,-298 245,-298 245,4 -4,4"/>
<!-- Node1 -->
<g id="node1" class="node"><title>Node1</title>
<polygon fill="#bfbfbf" stroke="black" points="64.5,-0.5 64.5,-19.5 231.5,-19.5 231.5,-0.5 64.5,-0.5"/>
<text text-anchor="middle" x="148" y="-7.5" font-family="Helvetica,sans-Serif" font-size="10.00">FBClient.Core.LocalGameManager</text>
</g>
<!-- Node2 -->
<g id="node2" class="node"><title>Node2</title>
<g id="a_node2"><a xlink:href="class_f_b_client_1_1_core_1_1_game_manager.html" target="_top" xlink:title="This class is used to regroup common behaviors between network and local game logic. ">
<polygon fill="white" stroke="black" points="108,-58.5 108,-77.5 188,-77.5 188,-58.5 108,-58.5"/>
<text text-anchor="middle" x="148" y="-65.5" font-family="Helvetica,sans-Serif" font-size="10.00">GameManager</text>
</a>
</g>
</g>
<!-- Node2&#45;&gt;Node1 -->
<g id="edge1" class="edge"><title>Node2&#45;&gt;Node1</title>
<path fill="none" stroke="midnightblue" d="M148,-47.953C148,-38.2875 148,-27.0312 148,-19.5052"/>
<polygon fill="midnightblue" stroke="midnightblue" points="144.5,-48.25 148,-58.25 151.5,-48.25 144.5,-48.25"/>
</g>
<!-- Node3 -->
<g id="node3" class="node"><title>Node3</title>
<g id="a_node3"><a xlink:href="class_f_b_library_1_1_core_1_1_base_game_manager.html" target="_top" xlink:title="BaseGameManager">
<polygon fill="white" stroke="black" points="25.5,-126.5 25.5,-145.5 128.5,-145.5 128.5,-126.5 25.5,-126.5"/>
<text text-anchor="middle" x="77" y="-133.5" font-family="Helvetica,sans-Serif" font-size="10.00">BaseGameManager</text>
</a>
</g>
</g>
<!-- Node3&#45;&gt;Node2 -->
<g id="edge2" class="edge"><title>Node3&#45;&gt;Node2</title>
<path fill="none" stroke="midnightblue" d="M93.7687,-119.412C107.716,-106.447 127.07,-88.4559 138.489,-77.8411"/>
<polygon fill="midnightblue" stroke="midnightblue" points="91.2233,-117 86.282,-126.372 95.9893,-122.127 91.2233,-117"/>
</g>
<!-- Node4 -->
<g id="node4" class="node"><title>Node4</title>
<g id="a_node4"><a xlink:href="class_f_b_library_1_1_core_1_1_base_entities_1_1_base_map.html" target="_top" xlink:title="FBLibrary.Core.BaseEntities.\lBaseMap">
<polygon fill="white" stroke="black" points="-0.5,-195 -0.5,-225 142.5,-225 142.5,-195 -0.5,-195"/>
<text text-anchor="start" x="7.5" y="-213" font-family="Helvetica,sans-Serif" font-size="10.00">FBLibrary.Core.BaseEntities.</text>
<text text-anchor="middle" x="71" y="-202" font-family="Helvetica,sans-Serif" font-size="10.00">BaseMap</text>
</a>
</g>
</g>
<!-- Node4&#45;&gt;Node3 -->
<g id="edge3" class="edge"><title>Node4&#45;&gt;Node3</title>
<path fill="none" stroke="#9a32cd" stroke-dasharray="5,2" d="M73.026,-184.688C74.1456,-171.253 75.4683,-155.38 76.2701,-145.759"/>
<polygon fill="#9a32cd" stroke="#9a32cd" points="69.528,-184.519 72.1854,-194.775 76.5039,-185.1 69.528,-184.519"/>
<text text-anchor="middle" x="113" y="-167.5" font-family="Helvetica,sans-Serif" font-size="10.00"> BaseCurrentMap</text>
</g>
<!-- Node5 -->
<g id="node5" class="node"><title>Node5</title>
<g id="a_node5"><a xlink:href="interface_f_b_library_1_1_core_1_1_i_entity.html" target="_top" xlink:title="FBLibrary.Core.IEntity">
<polygon fill="white" stroke="black" points="14.5,-274.5 14.5,-293.5 127.5,-293.5 127.5,-274.5 14.5,-274.5"/>
<text text-anchor="middle" x="71" y="-281.5" font-family="Helvetica,sans-Serif" font-size="10.00">FBLibrary.Core.IEntity</text>
</a>
</g>
</g>
<!-- Node5&#45;&gt;Node4 -->
<g id="edge4" class="edge"><title>Node5&#45;&gt;Node4</title>
<path fill="none" stroke="#9a32cd" stroke-dasharray="5,2" d="M71,-264.085C71,-251.915 71,-236.354 71,-225.232"/>
<polygon fill="#9a32cd" stroke="#9a32cd" points="67.5001,-264.458 71,-274.458 74.5001,-264.458 67.5001,-264.458"/>
<text text-anchor="middle" x="85.5" y="-247.5" font-family="Helvetica,sans-Serif" font-size="10.00"> Board</text>
</g>
<!-- Node6 -->
<g id="node6" class="node"><title>Node6</title>
<g id="a_node6"><a xlink:href="class_player_collection.html" target="_top" xlink:title="PlayerCollection">
<polygon fill="white" stroke="black" points="154.5,-126.5 154.5,-145.5 241.5,-145.5 241.5,-126.5 154.5,-126.5"/>
<text text-anchor="middle" x="198" y="-133.5" font-family="Helvetica,sans-Serif" font-size="10.00">PlayerCollection</text>
</a>
</g>
</g>
<!-- Node6&#45;&gt;Node2 -->
<g id="edge5" class="edge"><title>Node6&#45;&gt;Node2</title>
<path fill="none" stroke="#9a32cd" stroke-dasharray="5,2" d="M185.356,-118.31C175.609,-105.444 162.514,-88.1583 154.698,-77.8411"/>
<polygon fill="#9a32cd" stroke="#9a32cd" points="182.635,-120.514 191.463,-126.372 188.215,-116.287 182.635,-120.514"/>
<text text-anchor="middle" x="196.5" y="-99.5" font-family="Helvetica,sans-Serif" font-size="10.00"> Players</text>
</g>
<!-- Node7 -->
<g id="node7" class="node"><title>Node7</title>
<polygon fill="white" stroke="#bfbfbf" points="161,-200.5 161,-219.5 239,-219.5 239,-200.5 161,-200.5"/>
<text text-anchor="middle" x="200" y="-207.5" font-family="Helvetica,sans-Serif" font-size="10.00">List&lt; Player &gt;</text>
</g>
<!-- Node7&#45;&gt;Node6 -->
<g id="edge6" class="edge"><title>Node7&#45;&gt;Node6</title>
<path fill="none" stroke="midnightblue" d="M199.477,-190.156C199.075,-175.712 198.541,-156.459 198.237,-145.531"/>
<polygon fill="midnightblue" stroke="midnightblue" points="195.986,-190.559 199.763,-200.458 202.984,-190.365 195.986,-190.559"/>
</g>
</g>
</svg>
