<?xml version="1.0" encoding="UTF-8" standalone="no"?>
<!DOCTYPE svg PUBLIC "-//W3C//DTD SVG 1.1//EN"
 "http://www.w3.org/Graphics/SVG/1.1/DTD/svg11.dtd">
<!-- Generated by graphviz version 2.34.0 (20130907.0111)
 -->
<!-- Title: FBClient.Screens.MenuScreens.UserLoginMenuScreen Pages: 1 -->
<svg width="418pt" height="316pt"
 viewBox="0.00 0.00 418.00 316.00" xmlns="http://www.w3.org/2000/svg" xmlns:xlink="http://www.w3.org/1999/xlink">
<g id="graph0" class="graph" transform="scale(1 1) rotate(0) translate(4 312)">
<title>FBClient.Screens.MenuScreens.UserLoginMenuScreen</title>
<polygon fill="white" stroke="white" points="-4,4 -4,-312 414,-312 414,4 -4,4"/>
<!-- Node1 -->
<g id="node1" class="node"><title>Node1</title>
<polygon fill="#bfbfbf" stroke="black" points="221.5,-1 221.5,-31 380.5,-31 380.5,-1 221.5,-1"/>
<text text-anchor="start" x="229.5" y="-19" font-family="Helvetica,sans-Serif" font-size="10.00">FBClient.Screens.MenuScreens.</text>
<text text-anchor="middle" x="301" y="-8" font-family="Helvetica,sans-Serif" font-size="10.00">UserLoginMenuScreen</text>
</g>
<!-- Node2 -->
<g id="node2" class="node"><title>Node2</title>
<g id="a_node2"><a xlink:href="class_f_b_client_1_1_screens_1_1_base_game_state.html" target="_top" xlink:title="BaseGameState">
<polygon fill="white" stroke="black" points="256.5,-70.5 256.5,-89.5 345.5,-89.5 345.5,-70.5 256.5,-70.5"/>
<text text-anchor="middle" x="301" y="-77.5" font-family="Helvetica,sans-Serif" font-size="10.00">BaseGameState</text>
</a>
</g>
</g>
<!-- Node2&#45;&gt;Node1 -->
<g id="edge1" class="edge"><title>Node2&#45;&gt;Node1</title>
<path fill="none" stroke="midnightblue" d="M301,-60.1826C301,-50.8859 301,-39.8507 301,-31.263"/>
<polygon fill="midnightblue" stroke="midnightblue" points="297.5,-60.3791 301,-70.3792 304.5,-60.3792 297.5,-60.3791"/>
</g>
<!-- Node3 -->
<g id="node3" class="node"><title>Node3</title>
<g id="a_node3"><a xlink:href="class_f_b_client_1_1_controls_1_1_game_state.html" target="_top" xlink:title="GameState">
<polygon fill="white" stroke="black" points="190,-144.5 190,-163.5 256,-163.5 256,-144.5 190,-144.5"/>
<text text-anchor="middle" x="223" y="-151.5" font-family="Helvetica,sans-Serif" font-size="10.00">GameState</text>
</a>
</g>
</g>
<!-- Node3&#45;&gt;Node2 -->
<g id="edge2" class="edge"><title>Node3&#45;&gt;Node2</title>
<path fill="none" stroke="midnightblue" d="M239.801,-137.491C255.701,-122.815 278.981,-101.325 291.758,-89.531"/>
<polygon fill="midnightblue" stroke="midnightblue" points="237.228,-135.103 232.254,-144.458 241.976,-140.247 237.228,-135.103"/>
</g>
<!-- Node4 -->
<g id="node4" class="node"><title>Node4</title>
<polygon fill="white" stroke="#bfbfbf" points="0,-224.5 0,-243.5 132,-243.5 132,-224.5 0,-224.5"/>
<text text-anchor="middle" x="66" y="-231.5" font-family="Helvetica,sans-Serif" font-size="10.00">DrawableGameComponent</text>
</g>
<!-- Node4&#45;&gt;Node3 -->
<g id="edge3" class="edge"><title>Node4&#45;&gt;Node3</title>
<path fill="none" stroke="midnightblue" d="M92.6688,-219.751C124.874,-203.751 178.122,-177.296 205.52,-163.684"/>
<polygon fill="midnightblue" stroke="midnightblue" points="90.8,-216.771 83.4016,-224.355 93.9145,-223.04 90.8,-216.771"/>
</g>
<!-- Node5 -->
<g id="node5" class="node"><title>Node5</title>
<g id="a_node5"><a xlink:href="class_f_b_client_1_1_controls_1_1_game_state_manager.html" target="_top" xlink:title="FBClient.Controls.GameState\lManager">
<polygon fill="white" stroke="black" points="150,-219 150,-249 296,-249 296,-219 150,-219"/>
<text text-anchor="start" x="158" y="-237" font-family="Helvetica,sans-Serif" font-size="10.00">FBClient.Controls.GameState</text>
<text text-anchor="middle" x="223" y="-226" font-family="Helvetica,sans-Serif" font-size="10.00">Manager</text>
</a>
</g>
</g>
<!-- Node5&#45;&gt;Node3 -->
<g id="edge4" class="edge"><title>Node5&#45;&gt;Node3</title>
<path fill="none" stroke="#9a32cd" stroke-dasharray="5,2" d="M223,-208.394C223,-193.208 223,-174.635 223,-163.876"/>
<polygon fill="#9a32cd" stroke="#9a32cd" points="219.5,-208.694 223,-218.694 226.5,-208.694 219.5,-208.694"/>
<text text-anchor="middle" x="255" y="-191.5" font-family="Helvetica,sans-Serif" font-size="10.00"> StateManager</text>
</g>
<!-- Node6 -->
<g id="node6" class="node"><title>Node6</title>
<polygon fill="white" stroke="#bfbfbf" points="177,-288.5 177,-307.5 269,-307.5 269,-288.5 177,-288.5"/>
<text text-anchor="middle" x="223" y="-295.5" font-family="Helvetica,sans-Serif" font-size="10.00">GameComponent</text>
</g>
<!-- Node6&#45;&gt;Node5 -->
<g id="edge5" class="edge"><title>Node6&#45;&gt;Node5</title>
<path fill="none" stroke="midnightblue" d="M223,-278.183C223,-268.886 223,-257.851 223,-249.263"/>
<polygon fill="midnightblue" stroke="midnightblue" points="219.5,-278.379 223,-288.379 226.5,-278.379 219.5,-278.379"/>
</g>
<!-- Node7 -->
<g id="node7" class="node"><title>Node7</title>
<g id="a_node7"><a xlink:href="class_f_b_client_1_1_controls_1_1_control_manager.html" target="_top" xlink:title="FBClient.Controls.Control\lManager">
<polygon fill="white" stroke="black" points="283.5,-139 283.5,-169 410.5,-169 410.5,-139 283.5,-139"/>
<text text-anchor="start" x="291.5" y="-157" font-family="Helvetica,sans-Serif" font-size="10.00">FBClient.Controls.Control</text>
<text text-anchor="middle" x="347" y="-146" font-family="Helvetica,sans-Serif" font-size="10.00">Manager</text>
</a>
</g>
</g>
<!-- Node7&#45;&gt;Node2 -->
<g id="edge6" class="edge"><title>Node7&#45;&gt;Node2</title>
<path fill="none" stroke="#9a32cd" stroke-dasharray="5,2" d="M332.48,-130.273C323.693,-116.52 312.987,-99.7615 306.596,-89.7589"/>
<polygon fill="#9a32cd" stroke="#9a32cd" points="329.578,-132.233 337.912,-138.775 335.477,-128.464 329.578,-132.233"/>
<text text-anchor="middle" x="362" y="-111.5" font-family="Helvetica,sans-Serif" font-size="10.00"> ControlManager</text>
</g>
<!-- Node8 -->
<g id="node8" class="node"><title>Node8</title>
<polygon fill="white" stroke="#bfbfbf" points="314.5,-224.5 314.5,-243.5 395.5,-243.5 395.5,-224.5 314.5,-224.5"/>
<text text-anchor="middle" x="355" y="-231.5" font-family="Helvetica,sans-Serif" font-size="10.00">List&lt; Control &gt;</text>
</g>
<!-- Node8&#45;&gt;Node7 -->
<g id="edge7" class="edge"><title>Node8&#45;&gt;Node7</title>
<path fill="none" stroke="midnightblue" d="M353.058,-214.062C351.64,-200.242 349.749,-181.802 348.459,-169.227"/>
<polygon fill="midnightblue" stroke="midnightblue" points="349.611,-214.764 354.113,-224.355 356.575,-214.05 349.611,-214.764"/>
</g>
</g>
</svg>
