<?xml version="1.0" encoding="UTF-8" standalone="no"?>
<!DOCTYPE svg PUBLIC "-//W3C//DTD SVG 1.1//EN"
 "http://www.w3.org/Graphics/SVG/1.1/DTD/svg11.dtd">
<!-- Generated by graphviz version 2.34.0 (20130907.0111)
 -->
<!-- Title: FBLibrary.Core.BaseEntities.BaseWall Pages: 1 -->
<svg width="150pt" height="580pt"
 viewBox="0.00 0.00 150.00 580.00" xmlns="http://www.w3.org/2000/svg" xmlns:xlink="http://www.w3.org/1999/xlink">
<g id="graph0" class="graph" transform="scale(1 1) rotate(0) translate(4 576)">
<title>FBLibrary.Core.BaseEntities.BaseWall</title>
<polygon fill="white" stroke="white" points="-4,4 -4,-576 146,-576 146,4 -4,4"/>
<!-- Node1 -->
<g id="node1" class="node"><title>Node1</title>
<polygon fill="#bfbfbf" stroke="black" points="-0.5,-0.5 -0.5,-79.5 142.5,-79.5 142.5,-0.5 -0.5,-0.5"/>
<text text-anchor="start" x="7.5" y="-67.5" font-family="Helvetica,sans-Serif" font-size="10.00">FBLibrary.Core.BaseEntities.</text>
<text text-anchor="middle" x="71" y="-56.5" font-family="Helvetica,sans-Serif" font-size="10.00">BaseWall</text>
<polyline fill="none" stroke="black" points="-0.5,-49.5 142.5,-49.5 "/>
<text text-anchor="middle" x="71" y="-37.5" font-family="Helvetica,sans-Serif" font-size="10.00"> </text>
<polyline fill="none" stroke="black" points="-0.5,-30.5 142.5,-30.5 "/>
<text text-anchor="start" x="7.5" y="-18.5" font-family="Helvetica,sans-Serif" font-size="10.00">+ Update()</text>
<text text-anchor="start" x="7.5" y="-7.5" font-family="Helvetica,sans-Serif" font-size="10.00"># BaseWall()</text>
</g>
<!-- Node2 -->
<g id="node2" class="node"><title>Node2</title>
<g id="a_node2"><a xlink:href="class_f_b_library_1_1_core_1_1_static_entity.html" target="_top" xlink:title="{StaticEntity\n||+ Update()\l# StaticEntity()\l# StaticEntity()\l}">
<polygon fill="white" stroke="black" points="30,-116.5 30,-195.5 112,-195.5 112,-116.5 30,-116.5"/>
<text text-anchor="middle" x="71" y="-183.5" font-family="Helvetica,sans-Serif" font-size="10.00">StaticEntity</text>
<polyline fill="none" stroke="black" points="30,-176.5 112,-176.5 "/>
<text text-anchor="middle" x="71" y="-164.5" font-family="Helvetica,sans-Serif" font-size="10.00"> </text>
<polyline fill="none" stroke="black" points="30,-157.5 112,-157.5 "/>
<text text-anchor="start" x="38" y="-145.5" font-family="Helvetica,sans-Serif" font-size="10.00">+ Update()</text>
<text text-anchor="start" x="38" y="-134.5" font-family="Helvetica,sans-Serif" font-size="10.00"># StaticEntity()</text>
<text text-anchor="start" x="38" y="-123.5" font-family="Helvetica,sans-Serif" font-size="10.00"># StaticEntity()</text>
</a>
</g>
</g>
<!-- Node2&#45;&gt;Node1 -->
<g id="edge1" class="edge"><title>Node2&#45;&gt;Node1</title>
<path fill="none" stroke="midnightblue" d="M71,-106.146C71,-97.256 71,-88.0961 71,-79.5555"/>
<polygon fill="none" stroke="midnightblue" points="67.5001,-106.405 71,-116.405 74.5001,-106.405 67.5001,-106.405"/>
</g>
<!-- Node3 -->
<g id="node3" class="node"><title>Node3</title>
<g id="a_node3"><a xlink:href="class_f_b_library_1_1_core_1_1_base_entity.html" target="_top" xlink:title="{BaseEntity\n|+ IsAlive\l+ InDestruction\l+ DestructionTime\l+ Position\l+ PositionX\l+ PositionY\l+ CellPositionX\l+ CellPositionY\l+ CellPosition\l+ Dimension\l|+ Update()\l+ ChangePosition()\l+ ChangePosition()\l+ ChangePosition()\l+ Destroy()\l+ Remove()\l# BaseEntity()\l# BaseEntity()\l}">
<polygon fill="white" stroke="black" points="21,-232.5 21,-465.5 121,-465.5 121,-232.5 21,-232.5"/>
<text text-anchor="middle" x="71" y="-453.5" font-family="Helvetica,sans-Serif" font-size="10.00">BaseEntity</text>
<polyline fill="none" stroke="black" points="21,-446.5 121,-446.5 "/>
<text text-anchor="start" x="29" y="-434.5" font-family="Helvetica,sans-Serif" font-size="10.00">+ IsAlive</text>
<text text-anchor="start" x="29" y="-423.5" font-family="Helvetica,sans-Serif" font-size="10.00">+ InDestruction</text>
<text text-anchor="start" x="29" y="-412.5" font-family="Helvetica,sans-Serif" font-size="10.00">+ DestructionTime</text>
<text text-anchor="start" x="29" y="-401.5" font-family="Helvetica,sans-Serif" font-size="10.00">+ Position</text>
<text text-anchor="start" x="29" y="-390.5" font-family="Helvetica,sans-Serif" font-size="10.00">+ PositionX</text>
<text text-anchor="start" x="29" y="-379.5" font-family="Helvetica,sans-Serif" font-size="10.00">+ PositionY</text>
<text text-anchor="start" x="29" y="-368.5" font-family="Helvetica,sans-Serif" font-size="10.00">+ CellPositionX</text>
<text text-anchor="start" x="29" y="-357.5" font-family="Helvetica,sans-Serif" font-size="10.00">+ CellPositionY</text>
<text text-anchor="start" x="29" y="-346.5" font-family="Helvetica,sans-Serif" font-size="10.00">+ CellPosition</text>
<text text-anchor="start" x="29" y="-335.5" font-family="Helvetica,sans-Serif" font-size="10.00">+ Dimension</text>
<polyline fill="none" stroke="black" points="21,-328.5 121,-328.5 "/>
<text text-anchor="start" x="29" y="-316.5" font-family="Helvetica,sans-Serif" font-size="10.00">+ Update()</text>
<text text-anchor="start" x="29" y="-305.5" font-family="Helvetica,sans-Serif" font-size="10.00">+ ChangePosition()</text>
<text text-anchor="start" x="29" y="-294.5" font-family="Helvetica,sans-Serif" font-size="10.00">+ ChangePosition()</text>
<text text-anchor="start" x="29" y="-283.5" font-family="Helvetica,sans-Serif" font-size="10.00">+ ChangePosition()</text>
<text text-anchor="start" x="29" y="-272.5" font-family="Helvetica,sans-Serif" font-size="10.00">+ Destroy()</text>
<text text-anchor="start" x="29" y="-261.5" font-family="Helvetica,sans-Serif" font-size="10.00">+ Remove()</text>
<text text-anchor="start" x="29" y="-250.5" font-family="Helvetica,sans-Serif" font-size="10.00"># BaseEntity()</text>
<text text-anchor="start" x="29" y="-239.5" font-family="Helvetica,sans-Serif" font-size="10.00"># BaseEntity()</text>
</a>
</g>
</g>
<!-- Node3&#45;&gt;Node2 -->
<g id="edge2" class="edge"><title>Node3&#45;&gt;Node2</title>
<path fill="none" stroke="midnightblue" d="M71,-222.405C71,-212.866 71,-203.774 71,-195.565"/>
<polygon fill="none" stroke="midnightblue" points="67.5001,-222.488 71,-232.488 74.5001,-222.488 67.5001,-222.488"/>
</g>
<!-- Node4 -->
<g id="node4" class="node"><title>Node4</title>
<g id="a_node4"><a xlink:href="interface_f_b_library_1_1_core_1_1_i_entity.html" target="_top" xlink:title="{IEntity\n||+ Destroy()\l+ Remove()\l}">
<polygon fill="white" stroke="black" points="38,-503 38,-571 104,-571 104,-503 38,-503"/>
<text text-anchor="middle" x="71" y="-559" font-family="Helvetica,sans-Serif" font-size="10.00">IEntity</text>
<polyline fill="none" stroke="black" points="38,-552 104,-552 "/>
<text text-anchor="middle" x="71" y="-540" font-family="Helvetica,sans-Serif" font-size="10.00"> </text>
<polyline fill="none" stroke="black" points="38,-533 104,-533 "/>
<text text-anchor="start" x="46" y="-521" font-family="Helvetica,sans-Serif" font-size="10.00">+ Destroy()</text>
<text text-anchor="start" x="46" y="-510" font-family="Helvetica,sans-Serif" font-size="10.00">+ Remove()</text>
</a>
</g>
</g>
<!-- Node4&#45;&gt;Node3 -->
<g id="edge3" class="edge"><title>Node4&#45;&gt;Node3</title>
<path fill="none" stroke="midnightblue" d="M71,-492.601C71,-484.247 71,-475.139 71,-465.698"/>
<polygon fill="none" stroke="midnightblue" points="67.5001,-492.747 71,-502.747 74.5001,-492.747 67.5001,-492.747"/>
</g>
</g>
</svg>
