<?xml version="1.0" encoding="UTF-8" standalone="no"?>
<!DOCTYPE svg PUBLIC "-//W3C//DTD SVG 1.1//EN"
 "http://www.w3.org/Graphics/SVG/1.1/DTD/svg11.dtd">
<!-- Generated by graphviz version 2.34.0 (20130907.0111)
 -->
<!-- Title: FBClient.Controls.GameState Pages: 1 -->
<svg width="304pt" height="166pt"
 viewBox="0.00 0.00 304.00 166.00" xmlns="http://www.w3.org/2000/svg" xmlns:xlink="http://www.w3.org/1999/xlink">
<g id="graph0" class="graph" transform="scale(1 1) rotate(0) translate(4 162)">
<title>FBClient.Controls.GameState</title>
<polygon fill="white" stroke="white" points="-4,4 -4,-162 300,-162 300,4 -4,4"/>
<!-- Node1 -->
<g id="node1" class="node"><title>Node1</title>
<polygon fill="#bfbfbf" stroke="black" points="40,-0.5 40,-19.5 186,-19.5 186,-0.5 40,-0.5"/>
<text text-anchor="middle" x="113" y="-7.5" font-family="Helvetica,sans-Serif" font-size="10.00">FBClient.Controls.GameState</text>
</g>
<!-- Node2 -->
<g id="node2" class="node"><title>Node2</title>
<polygon fill="white" stroke="#bfbfbf" points="0,-74.5 0,-93.5 132,-93.5 132,-74.5 0,-74.5"/>
<text text-anchor="middle" x="66" y="-81.5" font-family="Helvetica,sans-Serif" font-size="10.00">DrawableGameComponent</text>
</g>
<!-- Node2&#45;&gt;Node1 -->
<g id="edge1" class="edge"><title>Node2&#45;&gt;Node1</title>
<path fill="none" stroke="midnightblue" d="M77.1959,-65.8488C86.7255,-51.2504 100.015,-30.8922 107.431,-19.531"/>
<polygon fill="midnightblue" stroke="midnightblue" points="74.1115,-64.1709 71.5761,-74.4579 79.9732,-67.9973 74.1115,-64.1709"/>
</g>
<!-- Node3 -->
<g id="node3" class="node"><title>Node3</title>
<g id="a_node3"><a xlink:href="class_f_b_client_1_1_controls_1_1_game_state_manager.html" target="_top" xlink:title="FBClient.Controls.GameState\lManager">
<polygon fill="white" stroke="black" points="150,-69 150,-99 296,-99 296,-69 150,-69"/>
<text text-anchor="start" x="158" y="-87" font-family="Helvetica,sans-Serif" font-size="10.00">FBClient.Controls.GameState</text>
<text text-anchor="middle" x="223" y="-76" font-family="Helvetica,sans-Serif" font-size="10.00">Manager</text>
</a>
</g>
</g>
<!-- Node3&#45;&gt;Node1 -->
<g id="edge2" class="edge"><title>Node3&#45;&gt;Node1</title>
<path fill="none" stroke="#9a32cd" stroke-dasharray="5,2" d="M192.92,-63.3115C171.054,-48.9991 142.524,-30.3247 126.135,-19.5972"/>
<polygon fill="#9a32cd" stroke="#9a32cd" points="191.246,-66.3986 201.53,-68.9468 195.08,-60.5417 191.246,-66.3986"/>
<text text-anchor="middle" x="203" y="-41.5" font-family="Helvetica,sans-Serif" font-size="10.00"> StateManager</text>
</g>
<!-- Node4 -->
<g id="node4" class="node"><title>Node4</title>
<polygon fill="white" stroke="#bfbfbf" points="177,-138.5 177,-157.5 269,-157.5 269,-138.5 177,-138.5"/>
<text text-anchor="middle" x="223" y="-145.5" font-family="Helvetica,sans-Serif" font-size="10.00">GameComponent</text>
</g>
<!-- Node4&#45;&gt;Node3 -->
<g id="edge3" class="edge"><title>Node4&#45;&gt;Node3</title>
<path fill="none" stroke="midnightblue" d="M223,-128.183C223,-118.886 223,-107.851 223,-99.263"/>
<polygon fill="midnightblue" stroke="midnightblue" points="219.5,-128.379 223,-138.379 226.5,-128.379 219.5,-128.379"/>
</g>
</g>
</svg>
