<?xml version="1.0" encoding="UTF-8" standalone="no"?>
<!DOCTYPE svg PUBLIC "-//W3C//DTD SVG 1.1//EN"
 "http://www.w3.org/Graphics/SVG/1.1/DTD/svg11.dtd">
<!-- Generated by graphviz version 2.34.0 (20130907.0111)
 -->
<!-- Title: FBClient.Core.Entities.Arrow Pages: 1 -->
<svg width="148pt" height="690pt"
 viewBox="0.00 0.00 148.00 690.00" xmlns="http://www.w3.org/2000/svg" xmlns:xlink="http://www.w3.org/1999/xlink">
<g id="graph0" class="graph" transform="scale(1 1) rotate(0) translate(4 686)">
<title>FBClient.Core.Entities.Arrow</title>
<polygon fill="white" stroke="white" points="-4,4 -4,-686 144,-686 144,4 -4,4"/>
<!-- Node1 -->
<g id="node1" class="node"><title>Node1</title>
<polygon fill="#bfbfbf" stroke="black" points="-0.5,-0.5 -0.5,-123.5 140.5,-123.5 140.5,-0.5 -0.5,-0.5"/>
<text text-anchor="middle" x="70" y="-111.5" font-family="Helvetica,sans-Serif" font-size="10.00">FBClient.Core.Entities.Arrow</text>
<polyline fill="none" stroke="black" points="-0.5,-104.5 140.5,-104.5 "/>
<text text-anchor="start" x="7.5" y="-92.5" font-family="Helvetica,sans-Serif" font-size="10.00">+ Sprite</text>
<polyline fill="none" stroke="black" points="-0.5,-85.5 140.5,-85.5 "/>
<text text-anchor="start" x="7.5" y="-73.5" font-family="Helvetica,sans-Serif" font-size="10.00">+ Arrow()</text>
<text text-anchor="start" x="7.5" y="-62.5" font-family="Helvetica,sans-Serif" font-size="10.00">+ LoadContent()</text>
<text text-anchor="start" x="7.5" y="-51.5" font-family="Helvetica,sans-Serif" font-size="10.00">+ Update()</text>
<text text-anchor="start" x="7.5" y="-40.5" font-family="Helvetica,sans-Serif" font-size="10.00">+ Draw()</text>
<text text-anchor="start" x="7.5" y="-29.5" font-family="Helvetica,sans-Serif" font-size="10.00">+ ChangeDirection()</text>
<text text-anchor="start" x="7.5" y="-18.5" font-family="Helvetica,sans-Serif" font-size="10.00">+ Destroy()</text>
<text text-anchor="start" x="7.5" y="-7.5" font-family="Helvetica,sans-Serif" font-size="10.00">+ Remove()</text>
</g>
<!-- Node2 -->
<g id="node2" class="node"><title>Node2</title>
<g id="a_node2"><a xlink:href="class_f_b_library_1_1_core_1_1_dynamic_entity.html" target="_top" xlink:title="{DynamicEntity\n|+ CurrentDirection\l+ Speed\l+ Velocity\l# PreviousCellPosition\l# PreviousDirection\l# IsMoving\l|+ Update()\l# DynamicEntity()\l# DynamicEntity()\l# IsChangingCell()\l}">
<polygon fill="white" stroke="black" points="13.5,-160.5 13.5,-305.5 126.5,-305.5 126.5,-160.5 13.5,-160.5"/>
<text text-anchor="middle" x="70" y="-293.5" font-family="Helvetica,sans-Serif" font-size="10.00">DynamicEntity</text>
<polyline fill="none" stroke="black" points="13.5,-286.5 126.5,-286.5 "/>
<text text-anchor="start" x="21.5" y="-274.5" font-family="Helvetica,sans-Serif" font-size="10.00">+ CurrentDirection</text>
<text text-anchor="start" x="21.5" y="-263.5" font-family="Helvetica,sans-Serif" font-size="10.00">+ Speed</text>
<text text-anchor="start" x="21.5" y="-252.5" font-family="Helvetica,sans-Serif" font-size="10.00">+ Velocity</text>
<text text-anchor="start" x="21.5" y="-241.5" font-family="Helvetica,sans-Serif" font-size="10.00"># PreviousCellPosition</text>
<text text-anchor="start" x="21.5" y="-230.5" font-family="Helvetica,sans-Serif" font-size="10.00"># PreviousDirection</text>
<text text-anchor="start" x="21.5" y="-219.5" font-family="Helvetica,sans-Serif" font-size="10.00"># IsMoving</text>
<polyline fill="none" stroke="black" points="13.5,-212.5 126.5,-212.5 "/>
<text text-anchor="start" x="21.5" y="-200.5" font-family="Helvetica,sans-Serif" font-size="10.00">+ Update()</text>
<text text-anchor="start" x="21.5" y="-189.5" font-family="Helvetica,sans-Serif" font-size="10.00"># DynamicEntity()</text>
<text text-anchor="start" x="21.5" y="-178.5" font-family="Helvetica,sans-Serif" font-size="10.00"># DynamicEntity()</text>
<text text-anchor="start" x="21.5" y="-167.5" font-family="Helvetica,sans-Serif" font-size="10.00"># IsChangingCell()</text>
</a>
</g>
</g>
<!-- Node2&#45;&gt;Node1 -->
<g id="edge1" class="edge"><title>Node2&#45;&gt;Node1</title>
<path fill="none" stroke="midnightblue" d="M70,-150.232C70,-141.254 70,-132.235 70,-123.58"/>
<polygon fill="none" stroke="midnightblue" points="66.5001,-150.329 70,-160.329 73.5001,-150.329 66.5001,-150.329"/>
</g>
<!-- Node3 -->
<g id="node3" class="node"><title>Node3</title>
<g id="a_node3"><a xlink:href="class_f_b_library_1_1_core_1_1_base_entity.html" target="_top" xlink:title="{BaseEntity\n|+ IsAlive\l+ InDestruction\l+ DestructionTime\l+ Position\l+ PositionX\l+ PositionY\l+ CellPositionX\l+ CellPositionY\l+ CellPosition\l+ Dimension\l|+ Update()\l+ ChangePosition()\l+ ChangePosition()\l+ ChangePosition()\l+ Destroy()\l+ Remove()\l# BaseEntity()\l# BaseEntity()\l}">
<polygon fill="white" stroke="black" points="20,-342.5 20,-575.5 120,-575.5 120,-342.5 20,-342.5"/>
<text text-anchor="middle" x="70" y="-563.5" font-family="Helvetica,sans-Serif" font-size="10.00">BaseEntity</text>
<polyline fill="none" stroke="black" points="20,-556.5 120,-556.5 "/>
<text text-anchor="start" x="28" y="-544.5" font-family="Helvetica,sans-Serif" font-size="10.00">+ IsAlive</text>
<text text-anchor="start" x="28" y="-533.5" font-family="Helvetica,sans-Serif" font-size="10.00">+ InDestruction</text>
<text text-anchor="start" x="28" y="-522.5" font-family="Helvetica,sans-Serif" font-size="10.00">+ DestructionTime</text>
<text text-anchor="start" x="28" y="-511.5" font-family="Helvetica,sans-Serif" font-size="10.00">+ Position</text>
<text text-anchor="start" x="28" y="-500.5" font-family="Helvetica,sans-Serif" font-size="10.00">+ PositionX</text>
<text text-anchor="start" x="28" y="-489.5" font-family="Helvetica,sans-Serif" font-size="10.00">+ PositionY</text>
<text text-anchor="start" x="28" y="-478.5" font-family="Helvetica,sans-Serif" font-size="10.00">+ CellPositionX</text>
<text text-anchor="start" x="28" y="-467.5" font-family="Helvetica,sans-Serif" font-size="10.00">+ CellPositionY</text>
<text text-anchor="start" x="28" y="-456.5" font-family="Helvetica,sans-Serif" font-size="10.00">+ CellPosition</text>
<text text-anchor="start" x="28" y="-445.5" font-family="Helvetica,sans-Serif" font-size="10.00">+ Dimension</text>
<polyline fill="none" stroke="black" points="20,-438.5 120,-438.5 "/>
<text text-anchor="start" x="28" y="-426.5" font-family="Helvetica,sans-Serif" font-size="10.00">+ Update()</text>
<text text-anchor="start" x="28" y="-415.5" font-family="Helvetica,sans-Serif" font-size="10.00">+ ChangePosition()</text>
<text text-anchor="start" x="28" y="-404.5" font-family="Helvetica,sans-Serif" font-size="10.00">+ ChangePosition()</text>
<text text-anchor="start" x="28" y="-393.5" font-family="Helvetica,sans-Serif" font-size="10.00">+ ChangePosition()</text>
<text text-anchor="start" x="28" y="-382.5" font-family="Helvetica,sans-Serif" font-size="10.00">+ Destroy()</text>
<text text-anchor="start" x="28" y="-371.5" font-family="Helvetica,sans-Serif" font-size="10.00">+ Remove()</text>
<text text-anchor="start" x="28" y="-360.5" font-family="Helvetica,sans-Serif" font-size="10.00"># BaseEntity()</text>
<text text-anchor="start" x="28" y="-349.5" font-family="Helvetica,sans-Serif" font-size="10.00"># BaseEntity()</text>
</a>
</g>
</g>
<!-- Node3&#45;&gt;Node2 -->
<g id="edge2" class="edge"><title>Node3&#45;&gt;Node2</title>
<path fill="none" stroke="midnightblue" d="M70,-332.15C70,-323.114 70,-314.201 70,-305.649"/>
<polygon fill="none" stroke="midnightblue" points="66.5001,-332.391 70,-342.391 73.5001,-332.391 66.5001,-332.391"/>
</g>
<!-- Node4 -->
<g id="node4" class="node"><title>Node4</title>
<g id="a_node4"><a xlink:href="interface_f_b_library_1_1_core_1_1_i_entity.html" target="_top" xlink:title="{IEntity\n||+ Destroy()\l+ Remove()\l}">
<polygon fill="white" stroke="black" points="37,-613 37,-681 103,-681 103,-613 37,-613"/>
<text text-anchor="middle" x="70" y="-669" font-family="Helvetica,sans-Serif" font-size="10.00">IEntity</text>
<polyline fill="none" stroke="black" points="37,-662 103,-662 "/>
<text text-anchor="middle" x="70" y="-650" font-family="Helvetica,sans-Serif" font-size="10.00"> </text>
<polyline fill="none" stroke="black" points="37,-643 103,-643 "/>
<text text-anchor="start" x="45" y="-631" font-family="Helvetica,sans-Serif" font-size="10.00">+ Destroy()</text>
<text text-anchor="start" x="45" y="-620" font-family="Helvetica,sans-Serif" font-size="10.00">+ Remove()</text>
</a>
</g>
</g>
<!-- Node4&#45;&gt;Node3 -->
<g id="edge3" class="edge"><title>Node4&#45;&gt;Node3</title>
<path fill="none" stroke="midnightblue" d="M70,-602.601C70,-594.247 70,-585.139 70,-575.698"/>
<polygon fill="none" stroke="midnightblue" points="66.5001,-602.747 70,-612.747 73.5001,-602.747 66.5001,-602.747"/>
</g>
</g>
</svg>
