<?xml version="1.0" encoding="UTF-8" standalone="no"?>
<!DOCTYPE svg PUBLIC "-//W3C//DTD SVG 1.1//EN"
 "http://www.w3.org/Graphics/SVG/1.1/DTD/svg11.dtd">
<!-- Generated by graphviz version 2.34.0 (20130907.0111)
 -->
<!-- Title: FBLibrary.Core.BaseEntities.BasePowerUp Pages: 1 -->
<!--zoomable 602 -->
<svg id="main" version="1.1" xmlns="http://www.w3.org/2000/svg" xmlns:xlink="http://www.w3.org/1999/xlink" xml:space="preserve" onload="init(evt)">
<style type="text/css"><![CDATA[
.edge:hover path { stroke: red; }
.edge:hover polygon { stroke: red; fill: red; }
]]></style>
<script type="text/javascript"><![CDATA[
var edges = document.getElementsByTagName('g');
if (edges && edges.length) {
  for (var i=0;i<edges.length;i++) {
    if (edges[i].id.substr(0,4)=='edge') {
      edges[i].setAttribute('class','edge');
    }
  }
}
]]></script>
        <defs>
                <circle id="rim" cx="0" cy="0" r="7"/>
                <circle id="rim2" cx="0" cy="0" r="3.5"/>
                <g id="zoomPlus">
                        <use xlink:href="#rim" fill="#404040">
                                <set attributeName="fill" to="#808080" begin="zoomplus.mouseover" end="zoomplus.mouseout"/>
                        </use>
                        <path d="M-4,0h8M0,-4v8" fill="none" stroke="white" stroke-width="1.5" pointer-events="none"/>
                </g>
                <g id="zoomMin">
                        <use xlink:href="#rim" fill="#404040">
                                <set attributeName="fill" to="#808080" begin="zoomminus.mouseover" end="zoomminus.mouseout"/>
                        </use>
                        <path d="M-4,0h8" fill="none" stroke="white" stroke-width="1.5" pointer-events="none"/>
                </g>
                <g id="dirArrow">
                        <path fill="none" stroke="white" stroke-width="1.5" d="M0,-3.0v7 M-2.5,-0.5L0,-3.0L2.5,-0.5"/>
                </g>
               <g id="resetDef">
                       <use xlink:href="#rim2" fill="#404040">
                               <set attributeName="fill" to="#808080" begin="reset.mouseover" end="reset.mouseout"/>
                       </use>
               </g>
        </defs>

<script type="text/javascript">
var viewWidth = 150;
var viewHeight = 602;
var sectionId = 'dynsection-1';
</script>
<script xlink:href="svgpan.js"/>
<svg id="graph" class="graph">
<g id="viewport">
<title>FBLibrary.Core.BaseEntities.BasePowerUp</title>
<polygon fill="white" stroke="white" points="-4,4 -4,-598 146,-598 146,4 -4,4"/>
<!-- Node1 -->
<g id="node1" class="node"><title>Node1</title>
<polygon fill="#bfbfbf" stroke="black" points="-0.5,-0.5 -0.5,-101.5 142.5,-101.5 142.5,-0.5 -0.5,-0.5"/>
<text text-anchor="start" x="7.5" y="-89.5" font-family="Helvetica,sans-Serif" font-size="10.00">FBLibrary.Core.BaseEntities.</text>
<text text-anchor="middle" x="71" y="-78.5" font-family="Helvetica,sans-Serif" font-size="10.00">BasePowerUp</text>
<polyline fill="none" stroke="black" points="-0.5,-71.5 142.5,-71.5 "/>
<text text-anchor="start" x="7.5" y="-59.5" font-family="Helvetica,sans-Serif" font-size="10.00">+ Type</text>
<polyline fill="none" stroke="black" points="-0.5,-52.5 142.5,-52.5 "/>
<text text-anchor="start" x="7.5" y="-40.5" font-family="Helvetica,sans-Serif" font-size="10.00">+ PickUp()</text>
<text text-anchor="start" x="7.5" y="-29.5" font-family="Helvetica,sans-Serif" font-size="10.00">+ Update()</text>
<text text-anchor="start" x="7.5" y="-18.5" font-family="Helvetica,sans-Serif" font-size="10.00">+ ApplyEffect()</text>
<text text-anchor="start" x="7.5" y="-7.5" font-family="Helvetica,sans-Serif" font-size="10.00"># BasePowerUp()</text>
</g>
<!-- Node2 -->
<g id="node2" class="node"><title>Node2</title>
<g id="a_node2"><a xlink:href="class_f_b_library_1_1_core_1_1_static_entity.html" target="_top" xlink:title="{StaticEntity\n||+ Update()\l# StaticEntity()\l# StaticEntity()\l}">
<polygon fill="white" stroke="black" points="30,-138.5 30,-217.5 112,-217.5 112,-138.5 30,-138.5"/>
<text text-anchor="middle" x="71" y="-205.5" font-family="Helvetica,sans-Serif" font-size="10.00">StaticEntity</text>
<polyline fill="none" stroke="black" points="30,-198.5 112,-198.5 "/>
<text text-anchor="middle" x="71" y="-186.5" font-family="Helvetica,sans-Serif" font-size="10.00"> </text>
<polyline fill="none" stroke="black" points="30,-179.5 112,-179.5 "/>
<text text-anchor="start" x="38" y="-167.5" font-family="Helvetica,sans-Serif" font-size="10.00">+ Update()</text>
<text text-anchor="start" x="38" y="-156.5" font-family="Helvetica,sans-Serif" font-size="10.00"># StaticEntity()</text>
<text text-anchor="start" x="38" y="-145.5" font-family="Helvetica,sans-Serif" font-size="10.00"># StaticEntity()</text>
</a>
</g>
</g>
<!-- Node2&#45;&gt;Node1 -->
<g id="edge1" class="edge"><title>Node2&#45;&gt;Node1</title>
<path fill="none" stroke="midnightblue" d="M71,-128.406C71,-119.639 71,-110.488 71,-101.691"/>
<polygon fill="none" stroke="midnightblue" points="67.5001,-128.476 71,-138.476 74.5001,-128.476 67.5001,-128.476"/>
</g>
<!-- Node3 -->
<g id="node3" class="node"><title>Node3</title>
<g id="a_node3"><a xlink:href="class_f_b_library_1_1_core_1_1_base_entity.html" target="_top" xlink:title="{BaseEntity\n|+ IsAlive\l+ InDestruction\l+ DestructionTime\l+ Position\l+ PositionX\l+ PositionY\l+ CellPositionX\l+ CellPositionY\l+ CellPosition\l+ Dimension\l|+ Update()\l+ ChangePosition()\l+ ChangePosition()\l+ ChangePosition()\l+ Destroy()\l+ Remove()\l# BaseEntity()\l# BaseEntity()\l}">
<polygon fill="white" stroke="black" points="21,-254.5 21,-487.5 121,-487.5 121,-254.5 21,-254.5"/>
<text text-anchor="middle" x="71" y="-475.5" font-family="Helvetica,sans-Serif" font-size="10.00">BaseEntity</text>
<polyline fill="none" stroke="black" points="21,-468.5 121,-468.5 "/>
<text text-anchor="start" x="29" y="-456.5" font-family="Helvetica,sans-Serif" font-size="10.00">+ IsAlive</text>
<text text-anchor="start" x="29" y="-445.5" font-family="Helvetica,sans-Serif" font-size="10.00">+ InDestruction</text>
<text text-anchor="start" x="29" y="-434.5" font-family="Helvetica,sans-Serif" font-size="10.00">+ DestructionTime</text>
<text text-anchor="start" x="29" y="-423.5" font-family="Helvetica,sans-Serif" font-size="10.00">+ Position</text>
<text text-anchor="start" x="29" y="-412.5" font-family="Helvetica,sans-Serif" font-size="10.00">+ PositionX</text>
<text text-anchor="start" x="29" y="-401.5" font-family="Helvetica,sans-Serif" font-size="10.00">+ PositionY</text>
<text text-anchor="start" x="29" y="-390.5" font-family="Helvetica,sans-Serif" font-size="10.00">+ CellPositionX</text>
<text text-anchor="start" x="29" y="-379.5" font-family="Helvetica,sans-Serif" font-size="10.00">+ CellPositionY</text>
<text text-anchor="start" x="29" y="-368.5" font-family="Helvetica,sans-Serif" font-size="10.00">+ CellPosition</text>
<text text-anchor="start" x="29" y="-357.5" font-family="Helvetica,sans-Serif" font-size="10.00">+ Dimension</text>
<polyline fill="none" stroke="black" points="21,-350.5 121,-350.5 "/>
<text text-anchor="start" x="29" y="-338.5" font-family="Helvetica,sans-Serif" font-size="10.00">+ Update()</text>
<text text-anchor="start" x="29" y="-327.5" font-family="Helvetica,sans-Serif" font-size="10.00">+ ChangePosition()</text>
<text text-anchor="start" x="29" y="-316.5" font-family="Helvetica,sans-Serif" font-size="10.00">+ ChangePosition()</text>
<text text-anchor="start" x="29" y="-305.5" font-family="Helvetica,sans-Serif" font-size="10.00">+ ChangePosition()</text>
<text text-anchor="start" x="29" y="-294.5" font-family="Helvetica,sans-Serif" font-size="10.00">+ Destroy()</text>
<text text-anchor="start" x="29" y="-283.5" font-family="Helvetica,sans-Serif" font-size="10.00">+ Remove()</text>
<text text-anchor="start" x="29" y="-272.5" font-family="Helvetica,sans-Serif" font-size="10.00"># BaseEntity()</text>
<text text-anchor="start" x="29" y="-261.5" font-family="Helvetica,sans-Serif" font-size="10.00"># BaseEntity()</text>
</a>
</g>
</g>
<!-- Node3&#45;&gt;Node2 -->
<g id="edge2" class="edge"><title>Node3&#45;&gt;Node2</title>
<path fill="none" stroke="midnightblue" d="M71,-244.405C71,-234.866 71,-225.774 71,-217.565"/>
<polygon fill="none" stroke="midnightblue" points="67.5001,-244.488 71,-254.488 74.5001,-244.488 67.5001,-244.488"/>
</g>
<!-- Node4 -->
<g id="node4" class="node"><title>Node4</title>
<g id="a_node4"><a xlink:href="interface_f_b_library_1_1_core_1_1_i_entity.html" target="_top" xlink:title="{IEntity\n||+ Destroy()\l+ Remove()\l}">
<polygon fill="white" stroke="black" points="38,-525 38,-593 104,-593 104,-525 38,-525"/>
<text text-anchor="middle" x="71" y="-581" font-family="Helvetica,sans-Serif" font-size="10.00">IEntity</text>
<polyline fill="none" stroke="black" points="38,-574 104,-574 "/>
<text text-anchor="middle" x="71" y="-562" font-family="Helvetica,sans-Serif" font-size="10.00"> </text>
<polyline fill="none" stroke="black" points="38,-555 104,-555 "/>
<text text-anchor="start" x="46" y="-543" font-family="Helvetica,sans-Serif" font-size="10.00">+ Destroy()</text>
<text text-anchor="start" x="46" y="-532" font-family="Helvetica,sans-Serif" font-size="10.00">+ Remove()</text>
</a>
</g>
</g>
<!-- Node4&#45;&gt;Node3 -->
<g id="edge3" class="edge"><title>Node4&#45;&gt;Node3</title>
<path fill="none" stroke="midnightblue" d="M71,-514.601C71,-506.247 71,-497.139 71,-487.698"/>
<polygon fill="none" stroke="midnightblue" points="67.5001,-514.747 71,-524.747 74.5001,-514.747 67.5001,-514.747"/>
</g>
</g>
</svg>
        <g id="navigator" transform="translate(0 0)" fill="#404254">
                <rect fill="#f2f5e9" fill-opacity="0.5" stroke="#606060" stroke-width=".5" x="0" y="0" width="60" height="60"/>
                <use id="zoomplus" xlink:href="#zoomPlus" x="17" y="9" onmousedown="handleZoom(evt,'in')"/>
                <use id="zoomminus" xlink:href="#zoomMin" x="42" y="9" onmousedown="handleZoom(evt,'out')"/>
                <use id="reset" xlink:href="#resetDef" x="30" y="36" onmousedown="handleReset()"/>
                <g id="arrowUp" xlink:href="#dirArrow" transform="translate(30 24)" onmousedown="handlePan(0,-1)">
                  <use xlink:href="#rim" fill="#404040">
                        <set attributeName="fill" to="#808080" begin="arrowUp.mouseover" end="arrowUp.mouseout"/>
                  </use>
                  <path fill="none" stroke="white" stroke-width="1.5" d="M0,-3.0v7 M-2.5,-0.5L0,-3.0L2.5,-0.5"/>
                </g>
                <g id="arrowRight" xlink:href="#dirArrow" transform="rotate(90) translate(36 -43)" onmousedown="handlePan(1,0)">
                  <use xlink:href="#rim" fill="#404040">
                        <set attributeName="fill" to="#808080" begin="arrowRight.mouseover" end="arrowRight.mouseout"/>
                  </use>
                  <path fill="none" stroke="white" stroke-width="1.5" d="M0,-3.0v7 M-2.5,-0.5L0,-3.0L2.5,-0.5"/>
                </g>
                <g id="arrowDown" xlink:href="#dirArrow" transform="rotate(180) translate(-30 -48)" onmousedown="handlePan(0,1)">
                  <use xlink:href="#rim" fill="#404040">
                        <set attributeName="fill" to="#808080" begin="arrowDown.mouseover" end="arrowDown.mouseout"/>
                  </use>
                  <path fill="none" stroke="white" stroke-width="1.5" d="M0,-3.0v7 M-2.5,-0.5L0,-3.0L2.5,-0.5"/>
                </g>
                <g id="arrowLeft" xlink:href="#dirArrow" transform="rotate(270) translate(-36 17)" onmousedown="handlePan(-1,0)">
                  <use xlink:href="#rim" fill="#404040">
                        <set attributeName="fill" to="#808080" begin="arrowLeft.mouseover" end="arrowLeft.mouseout"/>
                  </use>
                  <path fill="none" stroke="white" stroke-width="1.5" d="M0,-3.0v7 M-2.5,-0.5L0,-3.0L2.5,-0.5"/>
                </g>
        </g>
        <svg viewBox="0 0 15 15" width="100%" height="30px" preserveAspectRatio="xMaxYMin meet">
         <g id="arrow_out" transform="scale(0.3 0.3)">
          <a xlink:href="class_f_b_library_1_1_core_1_1_base_entities_1_1_base_power_up__coll__graph_org.svg" target="_base">
           <rect id="button" ry="5" rx="5" y="6" x="6" height="38" width="38"
                fill="#f2f5e9" fill-opacity="0.5" stroke="#606060" stroke-width="1.0"/>
           <path id="arrow"
             d="M 11.500037,31.436501 C 11.940474,20.09759 22.043105,11.32322 32.158766,21.979434 L 37.068811,17.246167 C 37.068811,17.246167 37.088388,32 37.088388,32 L 22.160133,31.978069 C 22.160133,31.978069 26.997745,27.140456 26.997745,27.140456 C 18.528582,18.264221 13.291696,25.230495 11.500037,31.436501 z"
             style="fill:#404040;"/>
          </a>
         </g>
        </svg>
</svg>
