<?xml version="1.0" encoding="UTF-8" standalone="no"?>
<!DOCTYPE svg PUBLIC "-//W3C//DTD SVG 1.1//EN"
 "http://www.w3.org/Graphics/SVG/1.1/DTD/svg11.dtd">
<!-- Generated by graphviz version 2.34.0 (20130907.0111)
 -->
<!-- Title: FBLibrary.Core.BaseEntities.BaseArrow Pages: 1 -->
<svg width="150pt" height="264pt"
 viewBox="0.00 0.00 150.00 264.00" xmlns="http://www.w3.org/2000/svg" xmlns:xlink="http://www.w3.org/1999/xlink">
<g id="graph0" class="graph" transform="scale(1 1) rotate(0) translate(4 260)">
<title>FBLibrary.Core.BaseEntities.BaseArrow</title>
<polygon fill="white" stroke="white" points="-4,4 -4,-260 146,-260 146,4 -4,4"/>
<!-- Node1 -->
<g id="node1" class="node"><title>Node1</title>
<polygon fill="#bfbfbf" stroke="black" points="-0.5,-57 -0.5,-87 142.5,-87 142.5,-57 -0.5,-57"/>
<text text-anchor="start" x="7.5" y="-75" font-family="Helvetica,sans-Serif" font-size="10.00">FBLibrary.Core.BaseEntities.</text>
<text text-anchor="middle" x="71" y="-64" font-family="Helvetica,sans-Serif" font-size="10.00">BaseArrow</text>
</g>
<!-- Node5 -->
<g id="node5" class="node"><title>Node5</title>
<g id="a_node5"><a xlink:href="class_f_b_server_1_1_core_1_1_entities_1_1_arrow.html" target="_top" xlink:title="FBServer.Core.Entities.Arrow">
<polygon fill="white" stroke="black" points="-0.5,-0.5 -0.5,-19.5 142.5,-19.5 142.5,-0.5 -0.5,-0.5"/>
<text text-anchor="middle" x="71" y="-7.5" font-family="Helvetica,sans-Serif" font-size="10.00">FBServer.Core.Entities.Arrow</text>
</a>
</g>
</g>
<!-- Node1&#45;&gt;Node5 -->
<g id="edge4" class="edge"><title>Node1&#45;&gt;Node5</title>
<path fill="none" stroke="midnightblue" d="M71,-46.5858C71,-37.0743 71,-26.7864 71,-19.7305"/>
<polygon fill="midnightblue" stroke="midnightblue" points="67.5001,-46.7808 71,-56.7808 74.5001,-46.7809 67.5001,-46.7808"/>
</g>
<!-- Node2 -->
<g id="node2" class="node"><title>Node2</title>
<g id="a_node2"><a xlink:href="class_f_b_library_1_1_core_1_1_static_entity.html" target="_top" xlink:title="StaticEntity">
<polygon fill="white" stroke="black" points="37,-124.5 37,-143.5 105,-143.5 105,-124.5 37,-124.5"/>
<text text-anchor="middle" x="71" y="-131.5" font-family="Helvetica,sans-Serif" font-size="10.00">StaticEntity</text>
</a>
</g>
</g>
<!-- Node2&#45;&gt;Node1 -->
<g id="edge1" class="edge"><title>Node2&#45;&gt;Node1</title>
<path fill="none" stroke="midnightblue" d="M71,-114.371C71,-105.585 71,-95.2721 71,-87.1408"/>
<polygon fill="midnightblue" stroke="midnightblue" points="67.5001,-114.403 71,-124.403 74.5001,-114.403 67.5001,-114.403"/>
</g>
<!-- Node3 -->
<g id="node3" class="node"><title>Node3</title>
<g id="a_node3"><a xlink:href="class_f_b_library_1_1_core_1_1_base_entity.html" target="_top" xlink:title="BaseEntity">
<polygon fill="white" stroke="black" points="38.5,-180.5 38.5,-199.5 103.5,-199.5 103.5,-180.5 38.5,-180.5"/>
<text text-anchor="middle" x="71" y="-187.5" font-family="Helvetica,sans-Serif" font-size="10.00">BaseEntity</text>
</a>
</g>
</g>
<!-- Node3&#45;&gt;Node2 -->
<g id="edge2" class="edge"><title>Node3&#45;&gt;Node2</title>
<path fill="none" stroke="midnightblue" d="M71,-169.805C71,-160.91 71,-150.78 71,-143.751"/>
<polygon fill="midnightblue" stroke="midnightblue" points="67.5001,-170.083 71,-180.083 74.5001,-170.083 67.5001,-170.083"/>
</g>
<!-- Node4 -->
<g id="node4" class="node"><title>Node4</title>
<g id="a_node4"><a xlink:href="interface_f_b_library_1_1_core_1_1_i_entity.html" target="_top" xlink:title="IEntity">
<polygon fill="white" stroke="black" points="49,-236.5 49,-255.5 93,-255.5 93,-236.5 49,-236.5"/>
<text text-anchor="middle" x="71" y="-243.5" font-family="Helvetica,sans-Serif" font-size="10.00">IEntity</text>
</a>
</g>
</g>
<!-- Node4&#45;&gt;Node3 -->
<g id="edge3" class="edge"><title>Node4&#45;&gt;Node3</title>
<path fill="none" stroke="midnightblue" d="M71,-225.805C71,-216.91 71,-206.78 71,-199.751"/>
<polygon fill="midnightblue" stroke="midnightblue" points="67.5001,-226.083 71,-236.083 74.5001,-226.083 67.5001,-226.083"/>
</g>
</g>
</svg>
