<?xml version="1.0" encoding="UTF-8" standalone="no"?>
<!DOCTYPE svg PUBLIC "-//W3C//DTD SVG 1.1//EN"
 "http://www.w3.org/Graphics/SVG/1.1/DTD/svg11.dtd">
<!-- Generated by graphviz version 2.34.0 (20130907.0111)
 -->
<!-- Title: FBClient.Screens.BaseMenuScreen Pages: 1 -->
<!--zoomable 724 -->
<svg id="main" version="1.1" xmlns="http://www.w3.org/2000/svg" xmlns:xlink="http://www.w3.org/1999/xlink" xml:space="preserve" onload="init(evt)">
<style type="text/css"><![CDATA[
.edge:hover path { stroke: red; }
.edge:hover polygon { stroke: red; fill: red; }
]]></style>
<script type="text/javascript"><![CDATA[
var edges = document.getElementsByTagName('g');
if (edges && edges.length) {
  for (var i=0;i<edges.length;i++) {
    if (edges[i].id.substr(0,4)=='edge') {
      edges[i].setAttribute('class','edge');
    }
  }
}
]]></script>
        <defs>
                <circle id="rim" cx="0" cy="0" r="7"/>
                <circle id="rim2" cx="0" cy="0" r="3.5"/>
                <g id="zoomPlus">
                        <use xlink:href="#rim" fill="#404040">
                                <set attributeName="fill" to="#808080" begin="zoomplus.mouseover" end="zoomplus.mouseout"/>
                        </use>
                        <path d="M-4,0h8M0,-4v8" fill="none" stroke="white" stroke-width="1.5" pointer-events="none"/>
                </g>
                <g id="zoomMin">
                        <use xlink:href="#rim" fill="#404040">
                                <set attributeName="fill" to="#808080" begin="zoomminus.mouseover" end="zoomminus.mouseout"/>
                        </use>
                        <path d="M-4,0h8" fill="none" stroke="white" stroke-width="1.5" pointer-events="none"/>
                </g>
                <g id="dirArrow">
                        <path fill="none" stroke="white" stroke-width="1.5" d="M0,-3.0v7 M-2.5,-0.5L0,-3.0L2.5,-0.5"/>
                </g>
               <g id="resetDef">
                       <use xlink:href="#rim2" fill="#404040">
                               <set attributeName="fill" to="#808080" begin="reset.mouseover" end="reset.mouseout"/>
                       </use>
               </g>
        </defs>

<script type="text/javascript">
var viewWidth = 423;
var viewHeight = 724;
var sectionId = 'dynsection-1';
</script>
<script xlink:href="svgpan.js"/>
<svg id="graph" class="graph">
<g id="viewport">
<title>FBClient.Screens.BaseMenuScreen</title>
<polygon fill="white" stroke="white" points="-4,4 -4,-720 419,-720 419,4 -4,4"/>
<!-- Node1 -->
<g id="node1" class="node"><title>Node1</title>
<polygon fill="#bfbfbf" stroke="black" points="229.5,-1 229.5,-113 372.5,-113 372.5,-1 229.5,-1"/>
<text text-anchor="start" x="237.5" y="-101" font-family="Helvetica,sans-Serif" font-size="10.00">FBClient.Screens.BaseMenu</text>
<text text-anchor="middle" x="301" y="-90" font-family="Helvetica,sans-Serif" font-size="10.00">Screen</text>
<polyline fill="none" stroke="black" points="229.5,-83 372.5,-83 "/>
<text text-anchor="start" x="237.5" y="-71" font-family="Helvetica,sans-Serif" font-size="10.00"># MenuString</text>
<text text-anchor="start" x="237.5" y="-60" font-family="Helvetica,sans-Serif" font-size="10.00"># IndexMenu</text>
<text text-anchor="start" x="237.5" y="-49" font-family="Helvetica,sans-Serif" font-size="10.00"># MenuPosition</text>
<polyline fill="none" stroke="black" points="229.5,-42 372.5,-42 "/>
<text text-anchor="start" x="237.5" y="-30" font-family="Helvetica,sans-Serif" font-size="10.00">+ Initialize()</text>
<text text-anchor="start" x="237.5" y="-19" font-family="Helvetica,sans-Serif" font-size="10.00">+ Update()</text>
<text text-anchor="start" x="237.5" y="-8" font-family="Helvetica,sans-Serif" font-size="10.00"># BaseMenuScreen()</text>
</g>
<!-- Node2 -->
<g id="node2" class="node"><title>Node2</title>
<g id="a_node2"><a xlink:href="class_f_b_client_1_1_screens_1_1_base_game_state.html" target="_top" xlink:title="{BaseGameState\n|# BigFont\l# playerIndexInControl\l|+ BaseGameState()\l+ Update()\l+ Draw()\l# LoadContent()\l}">
<polygon fill="white" stroke="black" points="244.5,-152.5 244.5,-253.5 357.5,-253.5 357.5,-152.5 244.5,-152.5"/>
<text text-anchor="middle" x="301" y="-241.5" font-family="Helvetica,sans-Serif" font-size="10.00">BaseGameState</text>
<polyline fill="none" stroke="black" points="244.5,-234.5 357.5,-234.5 "/>
<text text-anchor="start" x="252.5" y="-222.5" font-family="Helvetica,sans-Serif" font-size="10.00"># BigFont</text>
<text text-anchor="start" x="252.5" y="-211.5" font-family="Helvetica,sans-Serif" font-size="10.00"># playerIndexInControl</text>
<polyline fill="none" stroke="black" points="244.5,-204.5 357.5,-204.5 "/>
<text text-anchor="start" x="252.5" y="-192.5" font-family="Helvetica,sans-Serif" font-size="10.00">+ BaseGameState()</text>
<text text-anchor="start" x="252.5" y="-181.5" font-family="Helvetica,sans-Serif" font-size="10.00">+ Update()</text>
<text text-anchor="start" x="252.5" y="-170.5" font-family="Helvetica,sans-Serif" font-size="10.00">+ Draw()</text>
<text text-anchor="start" x="252.5" y="-159.5" font-family="Helvetica,sans-Serif" font-size="10.00"># LoadContent()</text>
</a>
</g>
</g>
<!-- Node2&#45;&gt;Node1 -->
<g id="edge1" class="edge"><title>Node2&#45;&gt;Node1</title>
<path fill="none" stroke="midnightblue" d="M301,-142.145C301,-132.515 301,-122.587 301,-113.076"/>
<polygon fill="none" stroke="midnightblue" points="297.5,-142.443 301,-152.443 304.5,-142.443 297.5,-142.443"/>
</g>
<!-- Node3 -->
<g id="node3" class="node"><title>Node3</title>
<g id="a_node3"><a xlink:href="class_f_b_client_1_1_controls_1_1_game_state.html" target="_top" xlink:title="{GameState\n|+ Components\l+ Tag\l|+ Initialize()\l+ Update()\l+ Draw()\l# GameState()\l# StateChange()\l# Show()\l# Hide()\l}">
<polygon fill="white" stroke="black" points="179.5,-308 179.5,-442 266.5,-442 266.5,-308 179.5,-308"/>
<text text-anchor="middle" x="223" y="-430" font-family="Helvetica,sans-Serif" font-size="10.00">GameState</text>
<polyline fill="none" stroke="black" points="179.5,-423 266.5,-423 "/>
<text text-anchor="start" x="187.5" y="-411" font-family="Helvetica,sans-Serif" font-size="10.00">+ Components</text>
<text text-anchor="start" x="187.5" y="-400" font-family="Helvetica,sans-Serif" font-size="10.00">+ Tag</text>
<polyline fill="none" stroke="black" points="179.5,-393 266.5,-393 "/>
<text text-anchor="start" x="187.5" y="-381" font-family="Helvetica,sans-Serif" font-size="10.00">+ Initialize()</text>
<text text-anchor="start" x="187.5" y="-370" font-family="Helvetica,sans-Serif" font-size="10.00">+ Update()</text>
<text text-anchor="start" x="187.5" y="-359" font-family="Helvetica,sans-Serif" font-size="10.00">+ Draw()</text>
<text text-anchor="start" x="187.5" y="-348" font-family="Helvetica,sans-Serif" font-size="10.00"># GameState()</text>
<text text-anchor="start" x="187.5" y="-337" font-family="Helvetica,sans-Serif" font-size="10.00"># StateChange()</text>
<text text-anchor="start" x="187.5" y="-326" font-family="Helvetica,sans-Serif" font-size="10.00"># Show()</text>
<text text-anchor="start" x="187.5" y="-315" font-family="Helvetica,sans-Serif" font-size="10.00"># Hide()</text>
</a>
</g>
</g>
<!-- Node3&#45;&gt;Node2 -->
<g id="edge2" class="edge"><title>Node3&#45;&gt;Node2</title>
<path fill="none" stroke="midnightblue" d="M257.677,-298.422C264.63,-283.269 271.768,-267.712 278.193,-253.708"/>
<polygon fill="none" stroke="midnightblue" points="254.369,-297.238 253.38,-307.787 260.732,-300.157 254.369,-297.238"/>
</g>
<!-- Node4 -->
<g id="node4" class="node"><title>Node4</title>
<polygon fill="white" stroke="#bfbfbf" points="0,-529.5 0,-586.5 132,-586.5 132,-529.5 0,-529.5"/>
<text text-anchor="middle" x="66" y="-574.5" font-family="Helvetica,sans-Serif" font-size="10.00">DrawableGameComponent</text>
<polyline fill="none" stroke="#bfbfbf" points="0,-567.5 132,-567.5 "/>
<text text-anchor="middle" x="66" y="-555.5" font-family="Helvetica,sans-Serif" font-size="10.00"> </text>
<polyline fill="none" stroke="#bfbfbf" points="0,-548.5 132,-548.5 "/>
<text text-anchor="middle" x="66" y="-536.5" font-family="Helvetica,sans-Serif" font-size="10.00"> </text>
</g>
<!-- Node4&#45;&gt;Node3 -->
<g id="edge3" class="edge"><title>Node4&#45;&gt;Node3</title>
<path fill="none" stroke="midnightblue" d="M96.8855,-521.393C120.465,-494.209 153.256,-456.405 179.492,-426.159"/>
<polygon fill="none" stroke="midnightblue" points="94.0957,-519.268 90.1872,-529.115 99.3837,-523.855 94.0957,-519.268"/>
</g>
<!-- Node5 -->
<g id="node5" class="node"><title>Node5</title>
<g id="a_node5"><a xlink:href="class_f_b_client_1_1_controls_1_1_game_state_manager.html" target="_top" xlink:title="{FBClient.Controls.GameState\lManager\n|+ CurrentState\l|+ GameStateManager()\l+ Initialize()\l+ Update()\l+ PopState()\l+ PushState()\l+ ChangeState()\l}">
<polygon fill="white" stroke="black" points="150,-496.5 150,-619.5 296,-619.5 296,-496.5 150,-496.5"/>
<text text-anchor="start" x="158" y="-607.5" font-family="Helvetica,sans-Serif" font-size="10.00">FBClient.Controls.GameState</text>
<text text-anchor="middle" x="223" y="-596.5" font-family="Helvetica,sans-Serif" font-size="10.00">Manager</text>
<polyline fill="none" stroke="black" points="150,-589.5 296,-589.5 "/>
<text text-anchor="start" x="158" y="-577.5" font-family="Helvetica,sans-Serif" font-size="10.00">+ CurrentState</text>
<polyline fill="none" stroke="black" points="150,-570.5 296,-570.5 "/>
<text text-anchor="start" x="158" y="-558.5" font-family="Helvetica,sans-Serif" font-size="10.00">+ GameStateManager()</text>
<text text-anchor="start" x="158" y="-547.5" font-family="Helvetica,sans-Serif" font-size="10.00">+ Initialize()</text>
<text text-anchor="start" x="158" y="-536.5" font-family="Helvetica,sans-Serif" font-size="10.00">+ Update()</text>
<text text-anchor="start" x="158" y="-525.5" font-family="Helvetica,sans-Serif" font-size="10.00">+ PopState()</text>
<text text-anchor="start" x="158" y="-514.5" font-family="Helvetica,sans-Serif" font-size="10.00">+ PushState()</text>
<text text-anchor="start" x="158" y="-503.5" font-family="Helvetica,sans-Serif" font-size="10.00">+ ChangeState()</text>
</a>
</g>
</g>
<!-- Node5&#45;&gt;Node3 -->
<g id="edge4" class="edge"><title>Node5&#45;&gt;Node3</title>
<path fill="none" stroke="#404040" d="M223,-496.478C223,-482.965 223,-468.448 223,-454.332"/>
<polygon fill="none" stroke="#404040" points="223,-454.066 219,-448.066 223,-442.066 227,-448.066 223,-454.066"/>
<text text-anchor="middle" x="258" y="-469.5" font-family="Helvetica,sans-Serif" font-size="10.00"> #StateManager</text>
</g>
<!-- Node6 -->
<g id="node6" class="node"><title>Node6</title>
<polygon fill="white" stroke="#bfbfbf" points="177,-658.5 177,-715.5 269,-715.5 269,-658.5 177,-658.5"/>
<text text-anchor="middle" x="223" y="-703.5" font-family="Helvetica,sans-Serif" font-size="10.00">GameComponent</text>
<polyline fill="none" stroke="#bfbfbf" points="177,-696.5 269,-696.5 "/>
<text text-anchor="middle" x="223" y="-684.5" font-family="Helvetica,sans-Serif" font-size="10.00"> </text>
<polyline fill="none" stroke="#bfbfbf" points="177,-677.5 269,-677.5 "/>
<text text-anchor="middle" x="223" y="-665.5" font-family="Helvetica,sans-Serif" font-size="10.00"> </text>
</g>
<!-- Node6&#45;&gt;Node5 -->
<g id="edge5" class="edge"><title>Node6&#45;&gt;Node5</title>
<path fill="none" stroke="midnightblue" d="M223,-648.283C223,-639.252 223,-629.384 223,-619.607"/>
<polygon fill="none" stroke="midnightblue" points="219.5,-648.443 223,-658.443 226.5,-648.443 219.5,-648.443"/>
</g>
<!-- Node7 -->
<g id="node7" class="node"><title>Node7</title>
<g id="a_node7"><a xlink:href="class_f_b_client_1_1_controls_1_1_control_manager.html" target="_top" xlink:title="{FBClient.Controls.Control\lManager\n|+ SpriteFont\l+ AcceptInput\l|+ ControlManager()\l+ ControlManager()\l+ ControlManager()\l+ Update()\l+ Draw()\l+ NextControl()\l+ PreviousControl()\l}">
<polygon fill="white" stroke="black" points="288.5,-302.5 288.5,-447.5 415.5,-447.5 415.5,-302.5 288.5,-302.5"/>
<text text-anchor="start" x="296.5" y="-435.5" font-family="Helvetica,sans-Serif" font-size="10.00">FBClient.Controls.Control</text>
<text text-anchor="middle" x="352" y="-424.5" font-family="Helvetica,sans-Serif" font-size="10.00">Manager</text>
<polyline fill="none" stroke="black" points="288.5,-417.5 415.5,-417.5 "/>
<text text-anchor="start" x="296.5" y="-405.5" font-family="Helvetica,sans-Serif" font-size="10.00">+ SpriteFont</text>
<text text-anchor="start" x="296.5" y="-394.5" font-family="Helvetica,sans-Serif" font-size="10.00">+ AcceptInput</text>
<polyline fill="none" stroke="black" points="288.5,-387.5 415.5,-387.5 "/>
<text text-anchor="start" x="296.5" y="-375.5" font-family="Helvetica,sans-Serif" font-size="10.00">+ ControlManager()</text>
<text text-anchor="start" x="296.5" y="-364.5" font-family="Helvetica,sans-Serif" font-size="10.00">+ ControlManager()</text>
<text text-anchor="start" x="296.5" y="-353.5" font-family="Helvetica,sans-Serif" font-size="10.00">+ ControlManager()</text>
<text text-anchor="start" x="296.5" y="-342.5" font-family="Helvetica,sans-Serif" font-size="10.00">+ Update()</text>
<text text-anchor="start" x="296.5" y="-331.5" font-family="Helvetica,sans-Serif" font-size="10.00">+ Draw()</text>
<text text-anchor="start" x="296.5" y="-320.5" font-family="Helvetica,sans-Serif" font-size="10.00">+ NextControl()</text>
<text text-anchor="start" x="296.5" y="-309.5" font-family="Helvetica,sans-Serif" font-size="10.00">+ PreviousControl()</text>
</a>
</g>
</g>
<!-- Node7&#45;&gt;Node2 -->
<g id="edge6" class="edge"><title>Node7&#45;&gt;Node2</title>
<path fill="none" stroke="#404040" d="M330.519,-302.397C326.824,-290.079 323.013,-277.376 319.407,-265.358"/>
<polygon fill="none" stroke="#404040" points="319.33,-265.101 313.775,-260.504 315.882,-253.607 321.438,-258.205 319.33,-265.101"/>
<text text-anchor="middle" x="363.5" y="-275.5" font-family="Helvetica,sans-Serif" font-size="10.00"> #ControlManager</text>
</g>
<!-- Node8 -->
<g id="node8" class="node"><title>Node8</title>
<polygon fill="white" stroke="#bfbfbf" points="314.5,-529.5 314.5,-586.5 395.5,-586.5 395.5,-529.5 314.5,-529.5"/>
<text text-anchor="middle" x="355" y="-574.5" font-family="Helvetica,sans-Serif" font-size="10.00">List&lt; Control &gt;</text>
<polyline fill="none" stroke="#bfbfbf" points="314.5,-567.5 395.5,-567.5 "/>
<text text-anchor="middle" x="355" y="-555.5" font-family="Helvetica,sans-Serif" font-size="10.00"> </text>
<polyline fill="none" stroke="#bfbfbf" points="314.5,-548.5 395.5,-548.5 "/>
<text text-anchor="middle" x="355" y="-536.5" font-family="Helvetica,sans-Serif" font-size="10.00"> </text>
</g>
<!-- Node8&#45;&gt;Node7 -->
<g id="edge7" class="edge"><title>Node8&#45;&gt;Node7</title>
<path fill="none" stroke="midnightblue" d="M354.368,-518.86C354.026,-498.208 353.591,-472.009 353.188,-447.704"/>
<polygon fill="none" stroke="midnightblue" points="350.872,-519.175 354.538,-529.115 357.872,-519.059 350.872,-519.175"/>
</g>
</g>
</svg>
        <g id="navigator" transform="translate(0 0)" fill="#404254">
                <rect fill="#f2f5e9" fill-opacity="0.5" stroke="#606060" stroke-width=".5" x="0" y="0" width="60" height="60"/>
                <use id="zoomplus" xlink:href="#zoomPlus" x="17" y="9" onmousedown="handleZoom(evt,'in')"/>
                <use id="zoomminus" xlink:href="#zoomMin" x="42" y="9" onmousedown="handleZoom(evt,'out')"/>
                <use id="reset" xlink:href="#resetDef" x="30" y="36" onmousedown="handleReset()"/>
                <g id="arrowUp" xlink:href="#dirArrow" transform="translate(30 24)" onmousedown="handlePan(0,-1)">
                  <use xlink:href="#rim" fill="#404040">
                        <set attributeName="fill" to="#808080" begin="arrowUp.mouseover" end="arrowUp.mouseout"/>
                  </use>
                  <path fill="none" stroke="white" stroke-width="1.5" d="M0,-3.0v7 M-2.5,-0.5L0,-3.0L2.5,-0.5"/>
                </g>
                <g id="arrowRight" xlink:href="#dirArrow" transform="rotate(90) translate(36 -43)" onmousedown="handlePan(1,0)">
                  <use xlink:href="#rim" fill="#404040">
                        <set attributeName="fill" to="#808080" begin="arrowRight.mouseover" end="arrowRight.mouseout"/>
                  </use>
                  <path fill="none" stroke="white" stroke-width="1.5" d="M0,-3.0v7 M-2.5,-0.5L0,-3.0L2.5,-0.5"/>
                </g>
                <g id="arrowDown" xlink:href="#dirArrow" transform="rotate(180) translate(-30 -48)" onmousedown="handlePan(0,1)">
                  <use xlink:href="#rim" fill="#404040">
                        <set attributeName="fill" to="#808080" begin="arrowDown.mouseover" end="arrowDown.mouseout"/>
                  </use>
                  <path fill="none" stroke="white" stroke-width="1.5" d="M0,-3.0v7 M-2.5,-0.5L0,-3.0L2.5,-0.5"/>
                </g>
                <g id="arrowLeft" xlink:href="#dirArrow" transform="rotate(270) translate(-36 17)" onmousedown="handlePan(-1,0)">
                  <use xlink:href="#rim" fill="#404040">
                        <set attributeName="fill" to="#808080" begin="arrowLeft.mouseover" end="arrowLeft.mouseout"/>
                  </use>
                  <path fill="none" stroke="white" stroke-width="1.5" d="M0,-3.0v7 M-2.5,-0.5L0,-3.0L2.5,-0.5"/>
                </g>
        </g>
        <svg viewBox="0 0 15 15" width="100%" height="30px" preserveAspectRatio="xMaxYMin meet">
         <g id="arrow_out" transform="scale(0.3 0.3)">
          <a xlink:href="class_f_b_client_1_1_screens_1_1_base_menu_screen__coll__graph_org.svg" target="_base">
           <rect id="button" ry="5" rx="5" y="6" x="6" height="38" width="38"
                fill="#f2f5e9" fill-opacity="0.5" stroke="#606060" stroke-width="1.0"/>
           <path id="arrow"
             d="M 11.500037,31.436501 C 11.940474,20.09759 22.043105,11.32322 32.158766,21.979434 L 37.068811,17.246167 C 37.068811,17.246167 37.088388,32 37.088388,32 L 22.160133,31.978069 C 22.160133,31.978069 26.997745,27.140456 26.997745,27.140456 C 18.528582,18.264221 13.291696,25.230495 11.500037,31.436501 z"
             style="fill:#404040;"/>
          </a>
         </g>
        </svg>
</svg>
