<?xml version="1.0" encoding="UTF-8" standalone="no"?>
<!DOCTYPE svg PUBLIC "-//W3C//DTD SVG 1.1//EN"
 "http://www.w3.org/Graphics/SVG/1.1/DTD/svg11.dtd">
<!-- Generated by graphviz version 2.34.0 (20130907.0111)
 -->
<!-- Title: FBLibrary.Core.BaseEntities.BaseEdgeWall Pages: 1 -->
<svg width="345pt" height="264pt"
 viewBox="0.00 0.00 345.00 264.00" xmlns="http://www.w3.org/2000/svg" xmlns:xlink="http://www.w3.org/1999/xlink">
<g id="graph0" class="graph" transform="scale(1 1) rotate(0) translate(4 260)">
<title>FBLibrary.Core.BaseEntities.BaseEdgeWall</title>
<polygon fill="white" stroke="white" points="-4,4 -4,-260 341,-260 341,4 -4,4"/>
<!-- Node1 -->
<g id="node1" class="node"><title>Node1</title>
<polygon fill="#bfbfbf" stroke="black" points="96.5,-57 96.5,-87 239.5,-87 239.5,-57 96.5,-57"/>
<text text-anchor="start" x="104.5" y="-75" font-family="Helvetica,sans-Serif" font-size="10.00">FBLibrary.Core.BaseEntities.</text>
<text text-anchor="middle" x="168" y="-64" font-family="Helvetica,sans-Serif" font-size="10.00">BaseEdgeWall</text>
</g>
<!-- Node5 -->
<g id="node5" class="node"><title>Node5</title>
<g id="a_node5"><a xlink:href="class_f_b_client_1_1_core_1_1_entities_1_1_edge_wall.html" target="_top" xlink:title="FBClient.Core.Entities.EdgeWall">
<polygon fill="white" stroke="black" points="0,-0.5 0,-19.5 158,-19.5 158,-0.5 0,-0.5"/>
<text text-anchor="middle" x="79" y="-7.5" font-family="Helvetica,sans-Serif" font-size="10.00">FBClient.Core.Entities.EdgeWall</text>
</a>
</g>
</g>
<!-- Node1&#45;&gt;Node5 -->
<g id="edge4" class="edge"><title>Node1&#45;&gt;Node5</title>
<path fill="none" stroke="midnightblue" d="M138.445,-51.075C122.57,-40.3732 103.825,-27.736 91.6909,-19.5557"/>
<polygon fill="midnightblue" stroke="midnightblue" points="136.66,-54.093 146.908,-56.7808 140.573,-48.2888 136.66,-54.093"/>
</g>
<!-- Node6 -->
<g id="node6" class="node"><title>Node6</title>
<g id="a_node6"><a xlink:href="class_f_b_server_1_1_core_1_1_entities_1_1_edge_wall.html" target="_top" xlink:title="FBServer.Core.Entities.EdgeWall">
<polygon fill="white" stroke="black" points="176.5,-0.5 176.5,-19.5 337.5,-19.5 337.5,-0.5 176.5,-0.5"/>
<text text-anchor="middle" x="257" y="-7.5" font-family="Helvetica,sans-Serif" font-size="10.00">FBServer.Core.Entities.EdgeWall</text>
</a>
</g>
</g>
<!-- Node1&#45;&gt;Node6 -->
<g id="edge5" class="edge"><title>Node1&#45;&gt;Node6</title>
<path fill="none" stroke="midnightblue" d="M197.555,-51.075C213.43,-40.3732 232.175,-27.736 244.309,-19.5557"/>
<polygon fill="midnightblue" stroke="midnightblue" points="195.427,-48.2888 189.092,-56.7808 199.34,-54.093 195.427,-48.2888"/>
</g>
<!-- Node2 -->
<g id="node2" class="node"><title>Node2</title>
<g id="a_node2"><a xlink:href="class_f_b_library_1_1_core_1_1_static_entity.html" target="_top" xlink:title="StaticEntity">
<polygon fill="white" stroke="black" points="134,-124.5 134,-143.5 202,-143.5 202,-124.5 134,-124.5"/>
<text text-anchor="middle" x="168" y="-131.5" font-family="Helvetica,sans-Serif" font-size="10.00">StaticEntity</text>
</a>
</g>
</g>
<!-- Node2&#45;&gt;Node1 -->
<g id="edge1" class="edge"><title>Node2&#45;&gt;Node1</title>
<path fill="none" stroke="midnightblue" d="M168,-114.371C168,-105.585 168,-95.2721 168,-87.1408"/>
<polygon fill="midnightblue" stroke="midnightblue" points="164.5,-114.403 168,-124.403 171.5,-114.403 164.5,-114.403"/>
</g>
<!-- Node3 -->
<g id="node3" class="node"><title>Node3</title>
<g id="a_node3"><a xlink:href="class_f_b_library_1_1_core_1_1_base_entity.html" target="_top" xlink:title="BaseEntity">
<polygon fill="white" stroke="black" points="135.5,-180.5 135.5,-199.5 200.5,-199.5 200.5,-180.5 135.5,-180.5"/>
<text text-anchor="middle" x="168" y="-187.5" font-family="Helvetica,sans-Serif" font-size="10.00">BaseEntity</text>
</a>
</g>
</g>
<!-- Node3&#45;&gt;Node2 -->
<g id="edge2" class="edge"><title>Node3&#45;&gt;Node2</title>
<path fill="none" stroke="midnightblue" d="M168,-169.805C168,-160.91 168,-150.78 168,-143.751"/>
<polygon fill="midnightblue" stroke="midnightblue" points="164.5,-170.083 168,-180.083 171.5,-170.083 164.5,-170.083"/>
</g>
<!-- Node4 -->
<g id="node4" class="node"><title>Node4</title>
<g id="a_node4"><a xlink:href="interface_f_b_library_1_1_core_1_1_i_entity.html" target="_top" xlink:title="IEntity">
<polygon fill="white" stroke="black" points="146,-236.5 146,-255.5 190,-255.5 190,-236.5 146,-236.5"/>
<text text-anchor="middle" x="168" y="-243.5" font-family="Helvetica,sans-Serif" font-size="10.00">IEntity</text>
</a>
</g>
</g>
<!-- Node4&#45;&gt;Node3 -->
<g id="edge3" class="edge"><title>Node4&#45;&gt;Node3</title>
<path fill="none" stroke="midnightblue" d="M168,-225.805C168,-216.91 168,-206.78 168,-199.751"/>
<polygon fill="midnightblue" stroke="midnightblue" points="164.5,-226.083 168,-236.083 171.5,-226.083 164.5,-226.083"/>
</g>
</g>
</svg>
