<?xml version="1.0" encoding="UTF-8" standalone="no"?>
<!DOCTYPE svg PUBLIC "-//W3C//DTD SVG 1.1//EN"
 "http://www.w3.org/Graphics/SVG/1.1/DTD/svg11.dtd">
<!-- Generated by graphviz version 2.34.0 (20130907.0111)
 -->
<!-- Title: FBClient.Core.GameManager Pages: 1 -->
<svg width="249pt" height="244pt"
 viewBox="0.00 0.00 249.00 244.00" xmlns="http://www.w3.org/2000/svg" xmlns:xlink="http://www.w3.org/1999/xlink">
<g id="graph0" class="graph" transform="scale(1 1) rotate(0) translate(4 240)">
<title>FBClient.Core.GameManager</title>
<polygon fill="white" stroke="white" points="-4,4 -4,-240 245,-240 245,4 -4,4"/>
<!-- Node1 -->
<g id="node1" class="node"><title>Node1</title>
<polygon fill="#bfbfbf" stroke="black" points="76,-0.5 76,-19.5 220,-19.5 220,-0.5 76,-0.5"/>
<text text-anchor="middle" x="148" y="-7.5" font-family="Helvetica,sans-Serif" font-size="10.00">FBClient.Core.GameManager</text>
</g>
<!-- Node2 -->
<g id="node2" class="node"><title>Node2</title>
<g id="a_node2"><a xlink:href="class_f_b_library_1_1_core_1_1_base_game_manager.html" target="_top" xlink:title="BaseGameManager">
<polygon fill="white" stroke="black" points="25.5,-68.5 25.5,-87.5 128.5,-87.5 128.5,-68.5 25.5,-68.5"/>
<text text-anchor="middle" x="77" y="-75.5" font-family="Helvetica,sans-Serif" font-size="10.00">BaseGameManager</text>
</a>
</g>
</g>
<!-- Node2&#45;&gt;Node1 -->
<g id="edge1" class="edge"><title>Node2&#45;&gt;Node1</title>
<path fill="none" stroke="midnightblue" d="M93.7687,-61.4122C107.716,-48.4468 127.07,-30.4559 138.489,-19.8411"/>
<polygon fill="midnightblue" stroke="midnightblue" points="91.2233,-58.9997 86.282,-68.3717 95.9893,-64.1267 91.2233,-58.9997"/>
</g>
<!-- Node3 -->
<g id="node3" class="node"><title>Node3</title>
<g id="a_node3"><a xlink:href="class_f_b_library_1_1_core_1_1_base_entities_1_1_base_map.html" target="_top" xlink:title="FBLibrary.Core.BaseEntities.\lBaseMap">
<polygon fill="white" stroke="black" points="-0.5,-137 -0.5,-167 142.5,-167 142.5,-137 -0.5,-137"/>
<text text-anchor="start" x="7.5" y="-155" font-family="Helvetica,sans-Serif" font-size="10.00">FBLibrary.Core.BaseEntities.</text>
<text text-anchor="middle" x="71" y="-144" font-family="Helvetica,sans-Serif" font-size="10.00">BaseMap</text>
</a>
</g>
</g>
<!-- Node3&#45;&gt;Node2 -->
<g id="edge2" class="edge"><title>Node3&#45;&gt;Node2</title>
<path fill="none" stroke="#9a32cd" stroke-dasharray="5,2" d="M73.026,-126.688C74.1456,-113.253 75.4683,-97.3805 76.2701,-87.7589"/>
<polygon fill="#9a32cd" stroke="#9a32cd" points="69.528,-126.519 72.1854,-136.775 76.5039,-127.1 69.528,-126.519"/>
<text text-anchor="middle" x="113" y="-109.5" font-family="Helvetica,sans-Serif" font-size="10.00"> BaseCurrentMap</text>
</g>
<!-- Node4 -->
<g id="node4" class="node"><title>Node4</title>
<g id="a_node4"><a xlink:href="interface_f_b_library_1_1_core_1_1_i_entity.html" target="_top" xlink:title="FBLibrary.Core.IEntity">
<polygon fill="white" stroke="black" points="14.5,-216.5 14.5,-235.5 127.5,-235.5 127.5,-216.5 14.5,-216.5"/>
<text text-anchor="middle" x="71" y="-223.5" font-family="Helvetica,sans-Serif" font-size="10.00">FBLibrary.Core.IEntity</text>
</a>
</g>
</g>
<!-- Node4&#45;&gt;Node3 -->
<g id="edge3" class="edge"><title>Node4&#45;&gt;Node3</title>
<path fill="none" stroke="#9a32cd" stroke-dasharray="5,2" d="M71,-206.085C71,-193.915 71,-178.354 71,-167.232"/>
<polygon fill="#9a32cd" stroke="#9a32cd" points="67.5001,-206.458 71,-216.458 74.5001,-206.458 67.5001,-206.458"/>
<text text-anchor="middle" x="85.5" y="-189.5" font-family="Helvetica,sans-Serif" font-size="10.00"> Board</text>
</g>
<!-- Node5 -->
<g id="node5" class="node"><title>Node5</title>
<g id="a_node5"><a xlink:href="class_player_collection.html" target="_top" xlink:title="PlayerCollection">
<polygon fill="white" stroke="black" points="154.5,-68.5 154.5,-87.5 241.5,-87.5 241.5,-68.5 154.5,-68.5"/>
<text text-anchor="middle" x="198" y="-75.5" font-family="Helvetica,sans-Serif" font-size="10.00">PlayerCollection</text>
</a>
</g>
</g>
<!-- Node5&#45;&gt;Node1 -->
<g id="edge4" class="edge"><title>Node5&#45;&gt;Node1</title>
<path fill="none" stroke="#9a32cd" stroke-dasharray="5,2" d="M185.356,-60.3101C175.609,-47.4437 162.514,-30.1583 154.698,-19.8411"/>
<polygon fill="#9a32cd" stroke="#9a32cd" points="182.635,-62.5142 191.463,-68.3717 188.215,-58.2872 182.635,-62.5142"/>
<text text-anchor="middle" x="196.5" y="-41.5" font-family="Helvetica,sans-Serif" font-size="10.00"> Players</text>
</g>
<!-- Node6 -->
<g id="node6" class="node"><title>Node6</title>
<polygon fill="white" stroke="#bfbfbf" points="161,-142.5 161,-161.5 239,-161.5 239,-142.5 161,-142.5"/>
<text text-anchor="middle" x="200" y="-149.5" font-family="Helvetica,sans-Serif" font-size="10.00">List&lt; Player &gt;</text>
</g>
<!-- Node6&#45;&gt;Node5 -->
<g id="edge5" class="edge"><title>Node6&#45;&gt;Node5</title>
<path fill="none" stroke="midnightblue" d="M199.477,-132.156C199.075,-117.712 198.541,-98.4594 198.237,-87.531"/>
<polygon fill="midnightblue" stroke="midnightblue" points="195.986,-132.559 199.763,-142.458 202.984,-132.365 195.986,-132.559"/>
</g>
</g>
</svg>
