<?xml version="1.0" encoding="UTF-8" standalone="no"?>
<!DOCTYPE svg PUBLIC "-//W3C//DTD SVG 1.1//EN"
 "http://www.w3.org/Graphics/SVG/1.1/DTD/svg11.dtd">
<!-- Generated by graphviz version 2.34.0 (20130907.0111)
 -->
<!-- Title: FBServer.GameValues Pages: 1 -->
<svg width="338pt" height="108pt"
 viewBox="0.00 0.00 338.00 108.00" xmlns="http://www.w3.org/2000/svg" xmlns:xlink="http://www.w3.org/1999/xlink">
<g id="graph0" class="graph" transform="scale(1 1) rotate(0) translate(4 104)">
<title>FBServer.GameValues</title>
<polygon fill="white" stroke="white" points="-4,4 -4,-104 334,-104 334,4 -4,4"/>
<!-- Node1 -->
<g id="node1" class="node"><title>Node1</title>
<polygon fill="#bfbfbf" stroke="black" points="107,-0.5 107,-19.5 223,-19.5 223,-0.5 107,-0.5"/>
<text text-anchor="middle" x="165" y="-7.5" font-family="Helvetica,sans-Serif" font-size="10.00">FBServer.GameValues</text>
</g>
<!-- Node2 -->
<g id="node2" class="node"><title>Node2</title>
<g id="a_node2"><a xlink:href="class_f_b_server_1_1_game_values_1_1_powerup_drops.html" target="_top" xlink:title="FBServer.GameValues.Powerup\lDrops">
<polygon fill="white" stroke="black" points="0,-69 0,-99 156,-99 156,-69 0,-69"/>
<text text-anchor="start" x="8" y="-87" font-family="Helvetica,sans-Serif" font-size="10.00">FBServer.GameValues.Powerup</text>
<text text-anchor="middle" x="78" y="-76" font-family="Helvetica,sans-Serif" font-size="10.00">Drops</text>
</a>
</g>
</g>
<!-- Node2&#45;&gt;Node1 -->
<g id="edge1" class="edge"><title>Node2&#45;&gt;Node1</title>
<path fill="none" stroke="#9a32cd" stroke-dasharray="5,2" d="M103.114,-62.2158C120.133,-48.1309 141.754,-30.2378 154.416,-19.7589"/>
<polygon fill="#9a32cd" stroke="#9a32cd" points="100.661,-59.703 95.1884,-68.7751 105.124,-65.0958 100.661,-59.703"/>
<text text-anchor="middle" x="162.5" y="-41.5" font-family="Helvetica,sans-Serif" font-size="10.00"> PowerupDrop</text>
</g>
<!-- Node3 -->
<g id="node3" class="node"><title>Node3</title>
<g id="a_node3"><a xlink:href="class_f_b_server_1_1_game_values_1_1_powerup_values.html" target="_top" xlink:title="FBServer.GameValues.Powerup\lValues">
<polygon fill="white" stroke="black" points="174,-69 174,-99 330,-99 330,-69 174,-69"/>
<text text-anchor="start" x="182" y="-87" font-family="Helvetica,sans-Serif" font-size="10.00">FBServer.GameValues.Powerup</text>
<text text-anchor="middle" x="252" y="-76" font-family="Helvetica,sans-Serif" font-size="10.00">Values</text>
</a>
</g>
</g>
<!-- Node3&#45;&gt;Node1 -->
<g id="edge2" class="edge"><title>Node3&#45;&gt;Node1</title>
<path fill="none" stroke="#9a32cd" stroke-dasharray="5,2" d="M226.886,-62.2158C209.867,-48.1309 188.246,-30.2378 175.584,-19.7589"/>
<polygon fill="#9a32cd" stroke="#9a32cd" points="224.876,-65.0958 234.812,-68.7751 229.339,-59.703 224.876,-65.0958"/>
<text text-anchor="middle" x="231.5" y="-41.5" font-family="Helvetica,sans-Serif" font-size="10.00"> Powerup</text>
</g>
</g>
</svg>
