<?xml version="1.0" encoding="UTF-8" standalone="no"?>
<!DOCTYPE svg PUBLIC "-//W3C//DTD SVG 1.1//EN"
 "http://www.w3.org/Graphics/SVG/1.1/DTD/svg11.dtd">
<!-- Generated by graphviz version 2.34.0 (20130907.0111)
 -->
<!-- Title: FBLibrary.Core.BaseEntities.BasePlayer Pages: 1 -->
<svg width="982pt" height="175pt"
 viewBox="0.00 0.00 982.00 175.00" xmlns="http://www.w3.org/2000/svg" xmlns:xlink="http://www.w3.org/1999/xlink">
<g id="graph0" class="graph" transform="scale(1 1) rotate(0) translate(4 171)">
<title>FBLibrary.Core.BaseEntities.BasePlayer</title>
<polygon fill="white" stroke="white" points="-4,4 -4,-171 978,-171 978,4 -4,4"/>
<!-- Node1 -->
<g id="node1" class="node"><title>Node1</title>
<polygon fill="#bfbfbf" stroke="black" points="298.5,-54 298.5,-84 441.5,-84 441.5,-54 298.5,-54"/>
<text text-anchor="start" x="306.5" y="-72" font-family="Helvetica,sans-Serif" font-size="10.00">FBLibrary.Core.BaseEntities.</text>
<text text-anchor="middle" x="370" y="-61" font-family="Helvetica,sans-Serif" font-size="10.00">BasePlayer</text>
</g>
<!-- Node5 -->
<g id="node5" class="node"><title>Node5</title>
<g id="a_node5"><a xlink:href="class_f_b_client_1_1_entities_1_1_player.html" target="_top" xlink:title="FBClient.Entities.Player">
<polygon fill="white" stroke="black" points="478.5,-78.5 478.5,-97.5 599.5,-97.5 599.5,-78.5 478.5,-78.5"/>
<text text-anchor="middle" x="539" y="-85.5" font-family="Helvetica,sans-Serif" font-size="10.00">FBClient.Entities.Player</text>
</a>
</g>
</g>
<!-- Node1&#45;&gt;Node5 -->
<g id="edge4" class="edge"><title>Node1&#45;&gt;Node5</title>
<path fill="none" stroke="midnightblue" d="M451.874,-78.2013C460.812,-79.2181 469.789,-80.2394 478.396,-81.2187"/>
<polygon fill="midnightblue" stroke="midnightblue" points="452.155,-74.7107 441.823,-77.0577 451.363,-81.6658 452.155,-74.7107"/>
</g>
<!-- Node12 -->
<g id="node12" class="node"><title>Node12</title>
<g id="a_node12"><a xlink:href="class_f_b_server_1_1_core_1_1_player.html" target="_top" xlink:title="FBServer.Core.Player">
<polygon fill="white" stroke="black" points="484,-40.5 484,-59.5 594,-59.5 594,-40.5 484,-40.5"/>
<text text-anchor="middle" x="539" y="-47.5" font-family="Helvetica,sans-Serif" font-size="10.00">FBServer.Core.Player</text>
</a>
</g>
</g>
<!-- Node1&#45;&gt;Node12 -->
<g id="edge11" class="edge"><title>Node1&#45;&gt;Node12</title>
<path fill="none" stroke="midnightblue" d="M452.091,-59.7741C462.842,-58.5509 473.647,-57.3216 483.791,-56.1675"/>
<polygon fill="midnightblue" stroke="midnightblue" points="451.363,-56.3342 441.823,-60.9423 452.155,-63.2893 451.363,-56.3342"/>
</g>
<!-- Node2 -->
<g id="node2" class="node"><title>Node2</title>
<g id="a_node2"><a xlink:href="class_f_b_library_1_1_core_1_1_dynamic_entity.html" target="_top" xlink:title="DynamicEntity">
<polygon fill="white" stroke="black" points="182,-59.5 182,-78.5 262,-78.5 262,-59.5 182,-59.5"/>
<text text-anchor="middle" x="222" y="-66.5" font-family="Helvetica,sans-Serif" font-size="10.00">DynamicEntity</text>
</a>
</g>
</g>
<!-- Node2&#45;&gt;Node1 -->
<g id="edge1" class="edge"><title>Node2&#45;&gt;Node1</title>
<path fill="none" stroke="midnightblue" d="M272.177,-69C280.641,-69 289.585,-69 298.481,-69"/>
<polygon fill="midnightblue" stroke="midnightblue" points="272.125,-65.5001 262.125,-69 272.125,-72.5001 272.125,-65.5001"/>
</g>
<!-- Node3 -->
<g id="node3" class="node"><title>Node3</title>
<g id="a_node3"><a xlink:href="class_f_b_library_1_1_core_1_1_base_entity.html" target="_top" xlink:title="BaseEntity">
<polygon fill="white" stroke="black" points="80.5,-59.5 80.5,-78.5 145.5,-78.5 145.5,-59.5 80.5,-59.5"/>
<text text-anchor="middle" x="113" y="-66.5" font-family="Helvetica,sans-Serif" font-size="10.00">BaseEntity</text>
</a>
</g>
</g>
<!-- Node3&#45;&gt;Node2 -->
<g id="edge2" class="edge"><title>Node3&#45;&gt;Node2</title>
<path fill="none" stroke="midnightblue" d="M155.698,-69C164.262,-69 173.251,-69 181.727,-69"/>
<polygon fill="midnightblue" stroke="midnightblue" points="155.525,-65.5001 145.525,-69 155.525,-72.5001 155.525,-65.5001"/>
</g>
<!-- Node4 -->
<g id="node4" class="node"><title>Node4</title>
<g id="a_node4"><a xlink:href="interface_f_b_library_1_1_core_1_1_i_entity.html" target="_top" xlink:title="IEntity">
<polygon fill="white" stroke="black" points="0,-59.5 0,-78.5 44,-78.5 44,-59.5 0,-59.5"/>
<text text-anchor="middle" x="22" y="-66.5" font-family="Helvetica,sans-Serif" font-size="10.00">IEntity</text>
</a>
</g>
</g>
<!-- Node4&#45;&gt;Node3 -->
<g id="edge3" class="edge"><title>Node4&#45;&gt;Node3</title>
<path fill="none" stroke="midnightblue" d="M54.2824,-69C62.7018,-69 71.8155,-69 80.2596,-69"/>
<polygon fill="midnightblue" stroke="midnightblue" points="54.0918,-65.5001 44.0918,-69 54.0917,-72.5001 54.0918,-65.5001"/>
</g>
<!-- Node6 -->
<g id="node6" class="node"><title>Node6</title>
<polygon fill="white" stroke="#bfbfbf" points="636.5,-147.5 636.5,-166.5 789.5,-166.5 789.5,-147.5 636.5,-147.5"/>
<text text-anchor="middle" x="713" y="-154.5" font-family="Helvetica,sans-Serif" font-size="10.00">FBClient.Core.Players.AIPlayer</text>
</g>
<!-- Node5&#45;&gt;Node6 -->
<g id="edge5" class="edge"><title>Node5&#45;&gt;Node6</title>
<path fill="none" stroke="midnightblue" d="M565.043,-102.666C584.028,-113.314 611.025,-127.467 636,-137 646.58,-141.038 658.288,-144.56 669.281,-147.476"/>
<polygon fill="midnightblue" stroke="midnightblue" points="566.578,-99.5124 556.155,-97.6086 563.116,-105.596 566.578,-99.5124"/>
</g>
<!-- Node7 -->
<g id="node7" class="node"><title>Node7</title>
<g id="a_node7"><a xlink:href="class_f_b_client_1_1_core_1_1_players_1_1_base_human_player.html" target="_top" xlink:title="FBClient.Core.Players.Base\lHumanPlayer">
<polygon fill="white" stroke="black" points="643.5,-98 643.5,-128 782.5,-128 782.5,-98 643.5,-98"/>
<text text-anchor="start" x="651.5" y="-116" font-family="Helvetica,sans-Serif" font-size="10.00">FBClient.Core.Players.Base</text>
<text text-anchor="middle" x="713" y="-105" font-family="Helvetica,sans-Serif" font-size="10.00">HumanPlayer</text>
</a>
</g>
</g>
<!-- Node5&#45;&gt;Node7 -->
<g id="edge6" class="edge"><title>Node5&#45;&gt;Node7</title>
<path fill="none" stroke="midnightblue" d="M609.716,-98.1331C620.789,-99.7425 632.235,-101.406 643.284,-103.012"/>
<polygon fill="midnightblue" stroke="midnightblue" points="610.074,-94.6485 599.675,-96.6736 609.067,-101.576 610.074,-94.6485"/>
</g>
<!-- Node10 -->
<g id="node10" class="node"><title>Node10</title>
<polygon fill="white" stroke="#bfbfbf" points="639.5,-49 639.5,-79 786.5,-79 786.5,-49 639.5,-49"/>
<text text-anchor="start" x="647.5" y="-67" font-family="Helvetica,sans-Serif" font-size="10.00">FBClient.Core.Players.Human</text>
<text text-anchor="middle" x="713" y="-56" font-family="Helvetica,sans-Serif" font-size="10.00">Player_OLD</text>
</g>
<!-- Node5&#45;&gt;Node10 -->
<g id="edge9" class="edge"><title>Node5&#45;&gt;Node10</title>
<path fill="none" stroke="midnightblue" d="M609.73,-78.2702C619.502,-76.9067 629.564,-75.5027 639.388,-74.132"/>
<polygon fill="midnightblue" stroke="midnightblue" points="609.095,-74.8249 599.675,-79.6733 610.062,-81.7577 609.095,-74.8249"/>
</g>
<!-- Node11 -->
<g id="node11" class="node"><title>Node11</title>
<polygon fill="white" stroke="#bfbfbf" points="641,-0 641,-30 785,-30 785,-0 641,-0"/>
<text text-anchor="start" x="649" y="-18" font-family="Helvetica,sans-Serif" font-size="10.00">FBClient.Core.Players.Online</text>
<text text-anchor="middle" x="713" y="-7" font-family="Helvetica,sans-Serif" font-size="10.00">Player</text>
</g>
<!-- Node5&#45;&gt;Node11 -->
<g id="edge10" class="edge"><title>Node5&#45;&gt;Node11</title>
<path fill="none" stroke="midnightblue" d="M587.545,-74.8625C591.85,-73.104 596.066,-71.153 600,-69 618.271,-59.0019 617.725,-48.9908 636,-39 642.192,-35.6149 648.933,-32.6261 655.759,-30.0099"/>
<polygon fill="midnightblue" stroke="midnightblue" points="586.196,-71.6305 578.052,-78.4083 588.645,-78.188 586.196,-71.6305"/>
</g>
<!-- Node8 -->
<g id="node8" class="node"><title>Node8</title>
<g id="a_node8"><a xlink:href="class_f_b_client_1_1_core_1_1_players_1_1_human_player.html" target="_top" xlink:title="FBClient.Core.Players.Human\lPlayer">
<polygon fill="white" stroke="black" points="826.5,-123 826.5,-153 973.5,-153 973.5,-123 826.5,-123"/>
<text text-anchor="start" x="834.5" y="-141" font-family="Helvetica,sans-Serif" font-size="10.00">FBClient.Core.Players.Human</text>
<text text-anchor="middle" x="900" y="-130" font-family="Helvetica,sans-Serif" font-size="10.00">Player</text>
</a>
</g>
</g>
<!-- Node7&#45;&gt;Node8 -->
<g id="edge7" class="edge"><title>Node7&#45;&gt;Node8</title>
<path fill="none" stroke="midnightblue" d="M792.79,-123.647C803.963,-125.157 815.409,-126.704 826.457,-128.197"/>
<polygon fill="midnightblue" stroke="midnightblue" points="793.003,-120.144 782.624,-122.274 792.065,-127.081 793.003,-120.144"/>
</g>
<!-- Node9 -->
<g id="node9" class="node"><title>Node9</title>
<g id="a_node9"><a xlink:href="class_f_b_client_1_1_core_1_1_players_1_1_online_human_player.html" target="_top" xlink:title="FBClient.Core.Players.Online\lHumanPlayer">
<polygon fill="white" stroke="black" points="828,-74 828,-104 972,-104 972,-74 828,-74"/>
<text text-anchor="start" x="836" y="-92" font-family="Helvetica,sans-Serif" font-size="10.00">FBClient.Core.Players.Online</text>
<text text-anchor="middle" x="900" y="-81" font-family="Helvetica,sans-Serif" font-size="10.00">HumanPlayer</text>
</a>
</g>
</g>
<!-- Node7&#45;&gt;Node9 -->
<g id="edge8" class="edge"><title>Node7&#45;&gt;Node9</title>
<path fill="none" stroke="midnightblue" d="M792.733,-102.786C804.344,-101.28 816.252,-99.7349 827.701,-98.2496"/>
<polygon fill="midnightblue" stroke="midnightblue" points="792.091,-99.3399 782.624,-104.097 792.991,-106.282 792.091,-99.3399"/>
</g>
</g>
</svg>
