<?xml version="1.0" encoding="UTF-8" standalone="no"?>
<!DOCTYPE svg PUBLIC "-//W3C//DTD SVG 1.1//EN"
 "http://www.w3.org/Graphics/SVG/1.1/DTD/svg11.dtd">
<!-- Generated by graphviz version 2.34.0 (20130907.0111)
 -->
<!-- Title: FBClient.Screens.BaseGameState Pages: 1 -->
<svg width="418pt" height="258pt"
 viewBox="0.00 0.00 418.00 258.00" xmlns="http://www.w3.org/2000/svg" xmlns:xlink="http://www.w3.org/1999/xlink">
<g id="graph0" class="graph" transform="scale(1 1) rotate(0) translate(4 254)">
<title>FBClient.Screens.BaseGameState</title>
<polygon fill="white" stroke="white" points="-4,4 -4,-254 414,-254 414,4 -4,4"/>
<!-- Node1 -->
<g id="node1" class="node"><title>Node1</title>
<polygon fill="#bfbfbf" stroke="black" points="228.5,-1 228.5,-31 373.5,-31 373.5,-1 228.5,-1"/>
<text text-anchor="start" x="236.5" y="-19" font-family="Helvetica,sans-Serif" font-size="10.00">FBClient.Screens.BaseGame</text>
<text text-anchor="middle" x="301" y="-8" font-family="Helvetica,sans-Serif" font-size="10.00">State</text>
</g>
<!-- Node2 -->
<g id="node2" class="node"><title>Node2</title>
<g id="a_node2"><a xlink:href="class_f_b_client_1_1_controls_1_1_game_state.html" target="_top" xlink:title="GameState">
<polygon fill="white" stroke="black" points="190,-86.5 190,-105.5 256,-105.5 256,-86.5 190,-86.5"/>
<text text-anchor="middle" x="223" y="-93.5" font-family="Helvetica,sans-Serif" font-size="10.00">GameState</text>
</a>
</g>
</g>
<!-- Node2&#45;&gt;Node1 -->
<g id="edge1" class="edge"><title>Node2&#45;&gt;Node1</title>
<path fill="none" stroke="midnightblue" d="M239.107,-78.8928C253.148,-64.8519 273.317,-44.6827 286.773,-31.227"/>
<polygon fill="midnightblue" stroke="midnightblue" points="236.242,-76.8086 231.645,-86.3546 241.191,-81.7584 236.242,-76.8086"/>
</g>
<!-- Node3 -->
<g id="node3" class="node"><title>Node3</title>
<polygon fill="white" stroke="#bfbfbf" points="0,-166.5 0,-185.5 132,-185.5 132,-166.5 0,-166.5"/>
<text text-anchor="middle" x="66" y="-173.5" font-family="Helvetica,sans-Serif" font-size="10.00">DrawableGameComponent</text>
</g>
<!-- Node3&#45;&gt;Node2 -->
<g id="edge2" class="edge"><title>Node3&#45;&gt;Node2</title>
<path fill="none" stroke="midnightblue" d="M92.6688,-161.751C124.874,-145.751 178.122,-119.296 205.52,-105.684"/>
<polygon fill="midnightblue" stroke="midnightblue" points="90.8,-158.771 83.4016,-166.355 93.9145,-165.04 90.8,-158.771"/>
</g>
<!-- Node4 -->
<g id="node4" class="node"><title>Node4</title>
<g id="a_node4"><a xlink:href="class_f_b_client_1_1_controls_1_1_game_state_manager.html" target="_top" xlink:title="FBClient.Controls.GameState\lManager">
<polygon fill="white" stroke="black" points="150,-161 150,-191 296,-191 296,-161 150,-161"/>
<text text-anchor="start" x="158" y="-179" font-family="Helvetica,sans-Serif" font-size="10.00">FBClient.Controls.GameState</text>
<text text-anchor="middle" x="223" y="-168" font-family="Helvetica,sans-Serif" font-size="10.00">Manager</text>
</a>
</g>
</g>
<!-- Node4&#45;&gt;Node2 -->
<g id="edge3" class="edge"><title>Node4&#45;&gt;Node2</title>
<path fill="none" stroke="#9a32cd" stroke-dasharray="5,2" d="M223,-150.394C223,-135.208 223,-116.635 223,-105.876"/>
<polygon fill="#9a32cd" stroke="#9a32cd" points="219.5,-150.694 223,-160.694 226.5,-150.694 219.5,-150.694"/>
<text text-anchor="middle" x="255" y="-133.5" font-family="Helvetica,sans-Serif" font-size="10.00"> StateManager</text>
</g>
<!-- Node5 -->
<g id="node5" class="node"><title>Node5</title>
<polygon fill="white" stroke="#bfbfbf" points="177,-230.5 177,-249.5 269,-249.5 269,-230.5 177,-230.5"/>
<text text-anchor="middle" x="223" y="-237.5" font-family="Helvetica,sans-Serif" font-size="10.00">GameComponent</text>
</g>
<!-- Node5&#45;&gt;Node4 -->
<g id="edge4" class="edge"><title>Node5&#45;&gt;Node4</title>
<path fill="none" stroke="midnightblue" d="M223,-220.183C223,-210.886 223,-199.851 223,-191.263"/>
<polygon fill="midnightblue" stroke="midnightblue" points="219.5,-220.379 223,-230.379 226.5,-220.379 219.5,-220.379"/>
</g>
<!-- Node6 -->
<g id="node6" class="node"><title>Node6</title>
<g id="a_node6"><a xlink:href="class_f_b_client_1_1_controls_1_1_control_manager.html" target="_top" xlink:title="FBClient.Controls.Control\lManager">
<polygon fill="white" stroke="black" points="283.5,-81 283.5,-111 410.5,-111 410.5,-81 283.5,-81"/>
<text text-anchor="start" x="291.5" y="-99" font-family="Helvetica,sans-Serif" font-size="10.00">FBClient.Controls.Control</text>
<text text-anchor="middle" x="347" y="-88" font-family="Helvetica,sans-Serif" font-size="10.00">Manager</text>
</a>
</g>
</g>
<!-- Node6&#45;&gt;Node1 -->
<g id="edge5" class="edge"><title>Node6&#45;&gt;Node1</title>
<path fill="none" stroke="#9a32cd" stroke-dasharray="5,2" d="M333.272,-71.7221C325.507,-58.5546 316.048,-42.5154 309.384,-31.2157"/>
<polygon fill="#9a32cd" stroke="#9a32cd" points="330.468,-73.8579 338.563,-80.6936 336.498,-70.302 330.468,-73.8579"/>
<text text-anchor="middle" x="363" y="-53.5" font-family="Helvetica,sans-Serif" font-size="10.00"> ControlManager</text>
</g>
<!-- Node7 -->
<g id="node7" class="node"><title>Node7</title>
<polygon fill="white" stroke="#bfbfbf" points="314.5,-166.5 314.5,-185.5 395.5,-185.5 395.5,-166.5 314.5,-166.5"/>
<text text-anchor="middle" x="355" y="-173.5" font-family="Helvetica,sans-Serif" font-size="10.00">List&lt; Control &gt;</text>
</g>
<!-- Node7&#45;&gt;Node6 -->
<g id="edge6" class="edge"><title>Node7&#45;&gt;Node6</title>
<path fill="none" stroke="midnightblue" d="M353.058,-156.062C351.64,-142.242 349.749,-123.802 348.459,-111.227"/>
<polygon fill="midnightblue" stroke="midnightblue" points="349.611,-156.764 354.113,-166.355 356.575,-156.05 349.611,-156.764"/>
</g>
</g>
</svg>
