<?xml version="1.0" encoding="UTF-8" standalone="no"?>
<!DOCTYPE svg PUBLIC "-//W3C//DTD SVG 1.1//EN"
 "http://www.w3.org/Graphics/SVG/1.1/DTD/svg11.dtd">
<!-- Generated by graphviz version 2.34.0 (20130907.0111)
 -->
<!-- Title: FBClient.WorldEngine.Map Pages: 1 -->
<svg width="142pt" height="512pt"
 viewBox="0.00 0.00 142.00 512.00" xmlns="http://www.w3.org/2000/svg" xmlns:xlink="http://www.w3.org/1999/xlink">
<g id="graph0" class="graph" transform="scale(1 1) rotate(0) translate(4 508)">
<title>FBClient.WorldEngine.Map</title>
<polygon fill="white" stroke="white" points="-4,4 -4,-508 138,-508 138,4 -4,4"/>
<!-- Node1 -->
<g id="node1" class="node"><title>Node1</title>
<polygon fill="#bfbfbf" stroke="black" points="0,-0.5 0,-123.5 134,-123.5 134,-0.5 0,-0.5"/>
<text text-anchor="middle" x="67" y="-111.5" font-family="Helvetica,sans-Serif" font-size="10.00">FBClient.WorldEngine.Map</text>
<polyline fill="none" stroke="black" points="0,-104.5 134,-104.5 "/>
<text text-anchor="start" x="8" y="-92.5" font-family="Helvetica,sans-Serif" font-size="10.00">+ TileMap</text>
<text text-anchor="start" x="8" y="-81.5" font-family="Helvetica,sans-Serif" font-size="10.00">+ TeleporterList</text>
<polyline fill="none" stroke="black" points="0,-74.5 134,-74.5 "/>
<text text-anchor="start" x="8" y="-62.5" font-family="Helvetica,sans-Serif" font-size="10.00">+ Map()</text>
<text text-anchor="start" x="8" y="-51.5" font-family="Helvetica,sans-Serif" font-size="10.00">+ LoadContent()</text>
<text text-anchor="start" x="8" y="-40.5" font-family="Helvetica,sans-Serif" font-size="10.00">+ Update()</text>
<text text-anchor="start" x="8" y="-29.5" font-family="Helvetica,sans-Serif" font-size="10.00">+ Draw()</text>
<text text-anchor="start" x="8" y="-18.5" font-family="Helvetica,sans-Serif" font-size="10.00"># AddUnbreakableWall()</text>
<text text-anchor="start" x="8" y="-7.5" font-family="Helvetica,sans-Serif" font-size="10.00"># AddEdgeWall()</text>
</g>
<!-- Node2 -->
<g id="node2" class="node"><title>Node2</title>
<g id="a_node2"><a xlink:href="class_f_b_library_1_1_core_1_1_base_entities_1_1_base_map.html" target="_top" xlink:title="{BaseMap\n|+ Name\l+ Loaded\l+ Size\l+ CollisionLayer\l+ PlayerSpawnPoints\l+ PlayerNumber\l|+ Reset()\l+ Parse()\l+ FindEmptyCells()\l+ GetMd5()\l+ DisplayBoard()\l+ DisplayCollisionLayer()\l# BaseMap()\l# AddUnbreakableWall()\l# AddUnbreakableWall()\l# AddEdgeWall()\l# AddEdgeWall()\l}">
<polygon fill="white" stroke="black" points="4.5,-163 4.5,-385 129.5,-385 129.5,-163 4.5,-163"/>
<text text-anchor="middle" x="67" y="-373" font-family="Helvetica,sans-Serif" font-size="10.00">BaseMap</text>
<polyline fill="none" stroke="black" points="4.5,-366 129.5,-366 "/>
<text text-anchor="start" x="12.5" y="-354" font-family="Helvetica,sans-Serif" font-size="10.00">+ Name</text>
<text text-anchor="start" x="12.5" y="-343" font-family="Helvetica,sans-Serif" font-size="10.00">+ Loaded</text>
<text text-anchor="start" x="12.5" y="-332" font-family="Helvetica,sans-Serif" font-size="10.00">+ Size</text>
<text text-anchor="start" x="12.5" y="-321" font-family="Helvetica,sans-Serif" font-size="10.00">+ CollisionLayer</text>
<text text-anchor="start" x="12.5" y="-310" font-family="Helvetica,sans-Serif" font-size="10.00">+ PlayerSpawnPoints</text>
<text text-anchor="start" x="12.5" y="-299" font-family="Helvetica,sans-Serif" font-size="10.00">+ PlayerNumber</text>
<polyline fill="none" stroke="black" points="4.5,-292 129.5,-292 "/>
<text text-anchor="start" x="12.5" y="-280" font-family="Helvetica,sans-Serif" font-size="10.00">+ Reset()</text>
<text text-anchor="start" x="12.5" y="-269" font-family="Helvetica,sans-Serif" font-size="10.00">+ Parse()</text>
<text text-anchor="start" x="12.5" y="-258" font-family="Helvetica,sans-Serif" font-size="10.00">+ FindEmptyCells()</text>
<text text-anchor="start" x="12.5" y="-247" font-family="Helvetica,sans-Serif" font-size="10.00">+ GetMd5()</text>
<text text-anchor="start" x="12.5" y="-236" font-family="Helvetica,sans-Serif" font-size="10.00">+ DisplayBoard()</text>
<text text-anchor="start" x="12.5" y="-225" font-family="Helvetica,sans-Serif" font-size="10.00">+ DisplayCollisionLayer()</text>
<text text-anchor="start" x="12.5" y="-214" font-family="Helvetica,sans-Serif" font-size="10.00"># BaseMap()</text>
<text text-anchor="start" x="12.5" y="-203" font-family="Helvetica,sans-Serif" font-size="10.00"># AddUnbreakableWall()</text>
<text text-anchor="start" x="12.5" y="-192" font-family="Helvetica,sans-Serif" font-size="10.00"># AddUnbreakableWall()</text>
<text text-anchor="start" x="12.5" y="-181" font-family="Helvetica,sans-Serif" font-size="10.00"># AddEdgeWall()</text>
<text text-anchor="start" x="12.5" y="-170" font-family="Helvetica,sans-Serif" font-size="10.00"># AddEdgeWall()</text>
</a>
</g>
</g>
<!-- Node2&#45;&gt;Node1 -->
<g id="edge1" class="edge"><title>Node2&#45;&gt;Node1</title>
<path fill="none" stroke="midnightblue" d="M67,-152.707C67,-142.692 67,-132.865 67,-123.604"/>
<polygon fill="none" stroke="midnightblue" points="63.5001,-152.772 67,-162.772 70.5001,-152.772 63.5001,-152.772"/>
</g>
<!-- Node3 -->
<g id="node3" class="node"><title>Node3</title>
<g id="a_node3"><a xlink:href="interface_f_b_library_1_1_core_1_1_i_entity.html" target="_top" xlink:title="{FBLibrary.Core.IEntity\n||+ Destroy()\l+ Remove()\l}">
<polygon fill="white" stroke="black" points="10.5,-435 10.5,-503 123.5,-503 123.5,-435 10.5,-435"/>
<text text-anchor="middle" x="67" y="-491" font-family="Helvetica,sans-Serif" font-size="10.00">FBLibrary.Core.IEntity</text>
<polyline fill="none" stroke="black" points="10.5,-484 123.5,-484 "/>
<text text-anchor="middle" x="67" y="-472" font-family="Helvetica,sans-Serif" font-size="10.00"> </text>
<polyline fill="none" stroke="black" points="10.5,-465 123.5,-465 "/>
<text text-anchor="start" x="18.5" y="-453" font-family="Helvetica,sans-Serif" font-size="10.00">+ Destroy()</text>
<text text-anchor="start" x="18.5" y="-442" font-family="Helvetica,sans-Serif" font-size="10.00">+ Remove()</text>
</a>
</g>
</g>
<!-- Node3&#45;&gt;Node2 -->
<g id="edge2" class="edge"><title>Node3&#45;&gt;Node2</title>
<path fill="none" stroke="#404040" d="M67,-434.822C67,-423.902 67,-411.045 67,-397.446"/>
<polygon fill="none" stroke="#404040" points="67.0001,-397.334 63,-391.334 67,-385.334 71,-391.334 67.0001,-397.334"/>
<text text-anchor="middle" x="84.5" y="-407.5" font-family="Helvetica,sans-Serif" font-size="10.00"> +Board</text>
</g>
</g>
</svg>
