<?xml version="1.0" encoding="UTF-8" standalone="no"?>
<!DOCTYPE svg PUBLIC "-//W3C//DTD SVG 1.1//EN"
 "http://www.w3.org/Graphics/SVG/1.1/DTD/svg11.dtd">
<!-- Generated by graphviz version 2.34.0 (20130907.0111)
 -->
<!-- Title: FBClient.Screens.GameScreens.BaseGamePlayScreen Pages: 1 -->
<svg width="349pt" height="806pt"
 viewBox="0.00 0.00 349.00 806.00" xmlns="http://www.w3.org/2000/svg" xmlns:xlink="http://www.w3.org/1999/xlink">
<g id="graph0" class="graph" transform="scale(1 1) rotate(0) translate(4 802)">
<title>FBClient.Screens.GameScreens.BaseGamePlayScreen</title>
<polygon fill="white" stroke="white" points="-4,4 -4,-802 345,-802 345,4 -4,4"/>
<!-- Node1 -->
<g id="node1" class="node"><title>Node1</title>
<polygon fill="#bfbfbf" stroke="black" points="89.5,-160.5 89.5,-371.5 250.5,-371.5 250.5,-160.5 89.5,-160.5"/>
<text text-anchor="start" x="97.5" y="-359.5" font-family="Helvetica,sans-Serif" font-size="10.00">FBClient.Screens.GameScreens.</text>
<text text-anchor="middle" x="170" y="-348.5" font-family="Helvetica,sans-Serif" font-size="10.00">BaseGamePlayScreen</text>
<polyline fill="none" stroke="black" points="89.5,-341.5 250.5,-341.5 "/>
<text text-anchor="start" x="97.5" y="-329.5" font-family="Helvetica,sans-Serif" font-size="10.00">+ GameManager</text>
<text text-anchor="start" x="97.5" y="-318.5" font-family="Helvetica,sans-Serif" font-size="10.00"># ItemInfoIcon</text>
<text text-anchor="start" x="97.5" y="-307.5" font-family="Helvetica,sans-Serif" font-size="10.00"># Cross</text>
<text text-anchor="start" x="97.5" y="-296.5" font-family="Helvetica,sans-Serif" font-size="10.00"># GameFont</text>
<text text-anchor="start" x="97.5" y="-285.5" font-family="Helvetica,sans-Serif" font-size="10.00"># SmallFont</text>
<text text-anchor="start" x="97.5" y="-274.5" font-family="Helvetica,sans-Serif" font-size="10.00"># HudOrigin</text>
<text text-anchor="start" x="97.5" y="-263.5" font-family="Helvetica,sans-Serif" font-size="10.00"># HudTopSpace</text>
<text text-anchor="start" x="97.5" y="-252.5" font-family="Helvetica,sans-Serif" font-size="10.00"># HudMarginLeft</text>
<text text-anchor="start" x="97.5" y="-241.5" font-family="Helvetica,sans-Serif" font-size="10.00"># BadItemTimerBar</text>
<text text-anchor="start" x="97.5" y="-230.5" font-family="Helvetica,sans-Serif" font-size="10.00"># WindowSkin</text>
<text text-anchor="start" x="97.5" y="-219.5" font-family="Helvetica,sans-Serif" font-size="10.00"># ScoresWindowBox</text>
<text text-anchor="start" x="97.5" y="-208.5" font-family="Helvetica,sans-Serif" font-size="10.00"># TimerWindowBox</text>
<text text-anchor="start" x="97.5" y="-197.5" font-family="Helvetica,sans-Serif" font-size="10.00"># Camera</text>
<polyline fill="none" stroke="black" points="89.5,-190.5 250.5,-190.5 "/>
<text text-anchor="start" x="97.5" y="-178.5" font-family="Helvetica,sans-Serif" font-size="10.00"># BaseGamePlayScreen()</text>
<text text-anchor="start" x="97.5" y="-167.5" font-family="Helvetica,sans-Serif" font-size="10.00"># LoadContent()</text>
</g>
<!-- Node5 -->
<g id="node5" class="node"><title>Node5</title>
<g id="a_node5"><a xlink:href="class_f_b_client_1_1_screens_1_1_game_screens_1_1_network_test_screen.html" target="_top" xlink:title="{FBClient.Screens.GameScreens.\lNetworkTestScreen\n|+ NetworkManager\l|+ NetworkTestScreen()\l+ Initialize()\l+ Update()\l+ Draw()\l# LoadContent()\l# UnloadContent()\l}">
<polygon fill="white" stroke="black" points="-0.5,-0.5 -0.5,-123.5 160.5,-123.5 160.5,-0.5 -0.5,-0.5"/>
<text text-anchor="start" x="7.5" y="-111.5" font-family="Helvetica,sans-Serif" font-size="10.00">FBClient.Screens.GameScreens.</text>
<text text-anchor="middle" x="80" y="-100.5" font-family="Helvetica,sans-Serif" font-size="10.00">NetworkTestScreen</text>
<polyline fill="none" stroke="black" points="-0.5,-93.5 160.5,-93.5 "/>
<text text-anchor="start" x="7.5" y="-81.5" font-family="Helvetica,sans-Serif" font-size="10.00">+ NetworkManager</text>
<polyline fill="none" stroke="black" points="-0.5,-74.5 160.5,-74.5 "/>
<text text-anchor="start" x="7.5" y="-62.5" font-family="Helvetica,sans-Serif" font-size="10.00">+ NetworkTestScreen()</text>
<text text-anchor="start" x="7.5" y="-51.5" font-family="Helvetica,sans-Serif" font-size="10.00">+ Initialize()</text>
<text text-anchor="start" x="7.5" y="-40.5" font-family="Helvetica,sans-Serif" font-size="10.00">+ Update()</text>
<text text-anchor="start" x="7.5" y="-29.5" font-family="Helvetica,sans-Serif" font-size="10.00">+ Draw()</text>
<text text-anchor="start" x="7.5" y="-18.5" font-family="Helvetica,sans-Serif" font-size="10.00"># LoadContent()</text>
<text text-anchor="start" x="7.5" y="-7.5" font-family="Helvetica,sans-Serif" font-size="10.00"># UnloadContent()</text>
</a>
</g>
</g>
<!-- Node1&#45;&gt;Node5 -->
<g id="edge4" class="edge"><title>Node1&#45;&gt;Node5</title>
<path fill="none" stroke="midnightblue" d="M119.347,-151.311C115.116,-141.817 110.954,-132.474 107.012,-123.626"/>
<polygon fill="none" stroke="midnightblue" points="116.151,-152.74 123.418,-160.45 122.545,-149.891 116.151,-152.74"/>
</g>
<!-- Node6 -->
<g id="node6" class="node"><title>Node6</title>
<g id="a_node6"><a xlink:href="class_f_b_client_1_1_screens_1_1_game_screens_1_1_single_player_game_play_screen.html" target="_top" xlink:title="{FBClient.Screens.GameScreens.\lSinglePlayerGamePlayScreen\n||+ SinglePlayerGamePlayScreen()\l+ Initialize()\l+ Update()\l+ Draw()\l# LoadContent()\l# UnloadContent()\l}">
<polygon fill="white" stroke="black" points="178.5,-0.5 178.5,-123.5 341.5,-123.5 341.5,-0.5 178.5,-0.5"/>
<text text-anchor="start" x="186.5" y="-111.5" font-family="Helvetica,sans-Serif" font-size="10.00">FBClient.Screens.GameScreens.</text>
<text text-anchor="middle" x="260" y="-100.5" font-family="Helvetica,sans-Serif" font-size="10.00">SinglePlayerGamePlayScreen</text>
<polyline fill="none" stroke="black" points="178.5,-93.5 341.5,-93.5 "/>
<text text-anchor="middle" x="260" y="-81.5" font-family="Helvetica,sans-Serif" font-size="10.00"> </text>
<polyline fill="none" stroke="black" points="178.5,-74.5 341.5,-74.5 "/>
<text text-anchor="start" x="186.5" y="-62.5" font-family="Helvetica,sans-Serif" font-size="10.00">+ SinglePlayerGamePlayScreen()</text>
<text text-anchor="start" x="186.5" y="-51.5" font-family="Helvetica,sans-Serif" font-size="10.00">+ Initialize()</text>
<text text-anchor="start" x="186.5" y="-40.5" font-family="Helvetica,sans-Serif" font-size="10.00">+ Update()</text>
<text text-anchor="start" x="186.5" y="-29.5" font-family="Helvetica,sans-Serif" font-size="10.00">+ Draw()</text>
<text text-anchor="start" x="186.5" y="-18.5" font-family="Helvetica,sans-Serif" font-size="10.00"># LoadContent()</text>
<text text-anchor="start" x="186.5" y="-7.5" font-family="Helvetica,sans-Serif" font-size="10.00"># UnloadContent()</text>
</a>
</g>
</g>
<!-- Node1&#45;&gt;Node6 -->
<g id="edge5" class="edge"><title>Node1&#45;&gt;Node6</title>
<path fill="none" stroke="midnightblue" d="M220.653,-151.311C224.884,-141.817 229.046,-132.474 232.988,-123.626"/>
<polygon fill="none" stroke="midnightblue" points="217.455,-149.891 216.582,-160.45 223.849,-152.74 217.455,-149.891"/>
</g>
<!-- Node2 -->
<g id="node2" class="node"><title>Node2</title>
<g id="a_node2"><a xlink:href="class_f_b_client_1_1_screens_1_1_base_game_state.html" target="_top" xlink:title="{BaseGameState\n|# ControlManager\l# BigFont\l# playerIndexInControl\l|+ BaseGameState()\l+ Update()\l+ Draw()\l# LoadContent()\l}">
<polygon fill="white" stroke="black" points="113.5,-409 113.5,-521 226.5,-521 226.5,-409 113.5,-409"/>
<text text-anchor="middle" x="170" y="-509" font-family="Helvetica,sans-Serif" font-size="10.00">BaseGameState</text>
<polyline fill="none" stroke="black" points="113.5,-502 226.5,-502 "/>
<text text-anchor="start" x="121.5" y="-490" font-family="Helvetica,sans-Serif" font-size="10.00"># ControlManager</text>
<text text-anchor="start" x="121.5" y="-479" font-family="Helvetica,sans-Serif" font-size="10.00"># BigFont</text>
<text text-anchor="start" x="121.5" y="-468" font-family="Helvetica,sans-Serif" font-size="10.00"># playerIndexInControl</text>
<polyline fill="none" stroke="black" points="113.5,-461 226.5,-461 "/>
<text text-anchor="start" x="121.5" y="-449" font-family="Helvetica,sans-Serif" font-size="10.00">+ BaseGameState()</text>
<text text-anchor="start" x="121.5" y="-438" font-family="Helvetica,sans-Serif" font-size="10.00">+ Update()</text>
<text text-anchor="start" x="121.5" y="-427" font-family="Helvetica,sans-Serif" font-size="10.00">+ Draw()</text>
<text text-anchor="start" x="121.5" y="-416" font-family="Helvetica,sans-Serif" font-size="10.00"># LoadContent()</text>
</a>
</g>
</g>
<!-- Node2&#45;&gt;Node1 -->
<g id="edge1" class="edge"><title>Node2&#45;&gt;Node1</title>
<path fill="none" stroke="midnightblue" d="M170,-398.747C170,-389.957 170,-380.766 170,-371.504"/>
<polygon fill="none" stroke="midnightblue" points="166.5,-398.863 170,-408.863 173.5,-398.863 166.5,-398.863"/>
</g>
<!-- Node3 -->
<g id="node3" class="node"><title>Node3</title>
<g id="a_node3"><a xlink:href="class_f_b_client_1_1_controls_1_1_game_state.html" target="_top" xlink:title="{GameState\n|+ Components\l+ Tag\l# StateManager\l|+ Initialize()\l+ Update()\l+ Draw()\l# GameState()\l# StateChange()\l# Show()\l# Hide()\l}">
<polygon fill="white" stroke="black" points="126.5,-558.5 126.5,-703.5 213.5,-703.5 213.5,-558.5 126.5,-558.5"/>
<text text-anchor="middle" x="170" y="-691.5" font-family="Helvetica,sans-Serif" font-size="10.00">GameState</text>
<polyline fill="none" stroke="black" points="126.5,-684.5 213.5,-684.5 "/>
<text text-anchor="start" x="134.5" y="-672.5" font-family="Helvetica,sans-Serif" font-size="10.00">+ Components</text>
<text text-anchor="start" x="134.5" y="-661.5" font-family="Helvetica,sans-Serif" font-size="10.00">+ Tag</text>
<text text-anchor="start" x="134.5" y="-650.5" font-family="Helvetica,sans-Serif" font-size="10.00"># StateManager</text>
<polyline fill="none" stroke="black" points="126.5,-643.5 213.5,-643.5 "/>
<text text-anchor="start" x="134.5" y="-631.5" font-family="Helvetica,sans-Serif" font-size="10.00">+ Initialize()</text>
<text text-anchor="start" x="134.5" y="-620.5" font-family="Helvetica,sans-Serif" font-size="10.00">+ Update()</text>
<text text-anchor="start" x="134.5" y="-609.5" font-family="Helvetica,sans-Serif" font-size="10.00">+ Draw()</text>
<text text-anchor="start" x="134.5" y="-598.5" font-family="Helvetica,sans-Serif" font-size="10.00"># GameState()</text>
<text text-anchor="start" x="134.5" y="-587.5" font-family="Helvetica,sans-Serif" font-size="10.00"># StateChange()</text>
<text text-anchor="start" x="134.5" y="-576.5" font-family="Helvetica,sans-Serif" font-size="10.00"># Show()</text>
<text text-anchor="start" x="134.5" y="-565.5" font-family="Helvetica,sans-Serif" font-size="10.00"># Hide()</text>
</a>
</g>
</g>
<!-- Node3&#45;&gt;Node2 -->
<g id="edge2" class="edge"><title>Node3&#45;&gt;Node2</title>
<path fill="none" stroke="midnightblue" d="M170,-547.855C170,-538.789 170,-529.726 170,-521.109"/>
<polygon fill="none" stroke="midnightblue" points="166.5,-548.067 170,-558.067 173.5,-548.067 166.5,-548.067"/>
</g>
<!-- Node4 -->
<g id="node4" class="node"><title>Node4</title>
<polygon fill="white" stroke="#bfbfbf" points="104,-740.5 104,-797.5 236,-797.5 236,-740.5 104,-740.5"/>
<text text-anchor="middle" x="170" y="-785.5" font-family="Helvetica,sans-Serif" font-size="10.00">DrawableGameComponent</text>
<polyline fill="none" stroke="#bfbfbf" points="104,-778.5 236,-778.5 "/>
<text text-anchor="middle" x="170" y="-766.5" font-family="Helvetica,sans-Serif" font-size="10.00"> </text>
<polyline fill="none" stroke="#bfbfbf" points="104,-759.5 236,-759.5 "/>
<text text-anchor="middle" x="170" y="-747.5" font-family="Helvetica,sans-Serif" font-size="10.00"> </text>
</g>
<!-- Node4&#45;&gt;Node3 -->
<g id="edge3" class="edge"><title>Node4&#45;&gt;Node3</title>
<path fill="none" stroke="midnightblue" d="M170,-730.356C170,-721.999 170,-712.872 170,-703.656"/>
<polygon fill="none" stroke="midnightblue" points="166.5,-730.478 170,-740.478 173.5,-730.478 166.5,-730.478"/>
</g>
</g>
</svg>
