<?xml version="1.0" encoding="UTF-8" standalone="no"?>
<!DOCTYPE svg PUBLIC "-//W3C//DTD SVG 1.1//EN"
 "http://www.w3.org/Graphics/SVG/1.1/DTD/svg11.dtd">
<!-- Generated by graphviz version 2.34.0 (20130907.0111)
 -->
<!-- Title: FBClient.Screens.BaseMenuScreen Pages: 1 -->
<svg width="2157pt" height="720pt"
 viewBox="0.00 0.00 2157.00 720.00" xmlns="http://www.w3.org/2000/svg" xmlns:xlink="http://www.w3.org/1999/xlink">
<g id="graph0" class="graph" transform="scale(1 1) rotate(0) translate(4 716)">
<title>FBClient.Screens.BaseMenuScreen</title>
<polygon fill="white" stroke="white" points="-4,4 -4,-716 2153,-716 2153,4 -4,4"/>
<!-- Node1 -->
<g id="node1" class="node"><title>Node1</title>
<polygon fill="#bfbfbf" stroke="black" points="1006.5,-173 1006.5,-285 1149.5,-285 1149.5,-173 1006.5,-173"/>
<text text-anchor="start" x="1014.5" y="-273" font-family="Helvetica,sans-Serif" font-size="10.00">FBClient.Screens.BaseMenu</text>
<text text-anchor="middle" x="1078" y="-262" font-family="Helvetica,sans-Serif" font-size="10.00">Screen</text>
<polyline fill="none" stroke="black" points="1006.5,-255 1149.5,-255 "/>
<text text-anchor="start" x="1014.5" y="-243" font-family="Helvetica,sans-Serif" font-size="10.00"># MenuString</text>
<text text-anchor="start" x="1014.5" y="-232" font-family="Helvetica,sans-Serif" font-size="10.00"># IndexMenu</text>
<text text-anchor="start" x="1014.5" y="-221" font-family="Helvetica,sans-Serif" font-size="10.00"># MenuPosition</text>
<polyline fill="none" stroke="black" points="1006.5,-214 1149.5,-214 "/>
<text text-anchor="start" x="1014.5" y="-202" font-family="Helvetica,sans-Serif" font-size="10.00">+ Initialize()</text>
<text text-anchor="start" x="1014.5" y="-191" font-family="Helvetica,sans-Serif" font-size="10.00">+ Update()</text>
<text text-anchor="start" x="1014.5" y="-180" font-family="Helvetica,sans-Serif" font-size="10.00"># BaseMenuScreen()</text>
</g>
<!-- Node5 -->
<g id="node5" class="node"><title>Node5</title>
<g id="a_node5"><a xlink:href="class_f_b_client_1_1_screens_1_1_menu_screens_1_1_battle_menu_screen.html" target="_top" xlink:title="{FBClient.Screens.MenuScreens.\lBattleMenuScreen\n||+ BattleMenuScreen()\l+ Initialize()\l+ Update()\l+ Draw()\l# LoadContent()\l}">
<polygon fill="white" stroke="black" points="-0.5,-12 -0.5,-124 158.5,-124 158.5,-12 -0.5,-12"/>
<text text-anchor="start" x="7.5" y="-112" font-family="Helvetica,sans-Serif" font-size="10.00">FBClient.Screens.MenuScreens.</text>
<text text-anchor="middle" x="79" y="-101" font-family="Helvetica,sans-Serif" font-size="10.00">BattleMenuScreen</text>
<polyline fill="none" stroke="black" points="-0.5,-94 158.5,-94 "/>
<text text-anchor="middle" x="79" y="-82" font-family="Helvetica,sans-Serif" font-size="10.00"> </text>
<polyline fill="none" stroke="black" points="-0.5,-75 158.5,-75 "/>
<text text-anchor="start" x="7.5" y="-63" font-family="Helvetica,sans-Serif" font-size="10.00">+ BattleMenuScreen()</text>
<text text-anchor="start" x="7.5" y="-52" font-family="Helvetica,sans-Serif" font-size="10.00">+ Initialize()</text>
<text text-anchor="start" x="7.5" y="-41" font-family="Helvetica,sans-Serif" font-size="10.00">+ Update()</text>
<text text-anchor="start" x="7.5" y="-30" font-family="Helvetica,sans-Serif" font-size="10.00">+ Draw()</text>
<text text-anchor="start" x="7.5" y="-19" font-family="Helvetica,sans-Serif" font-size="10.00"># LoadContent()</text>
</a>
</g>
</g>
<!-- Node1&#45;&gt;Node5 -->
<g id="edge4" class="edge"><title>Node1&#45;&gt;Node5</title>
<path fill="none" stroke="midnightblue" d="M996.306,-225.415C801.951,-218.361 317.09,-195.199 167,-136 158.962,-132.83 151.03,-128.703 143.417,-124.056"/>
<polygon fill="none" stroke="midnightblue" points="996.337,-228.918 1006.46,-225.778 996.588,-221.922 996.337,-228.918"/>
</g>
<!-- Node6 -->
<g id="node6" class="node"><title>Node6</title>
<g id="a_node6"><a xlink:href="class_f_b_client_1_1_screens_1_1_menu_screens_1_1_create_server_menu_screen.html" target="_top" xlink:title="{FBClient.Screens.MenuScreens.\lCreateServerMenuScreen\n||+ CreateServerMenuScreen()\l+ Initialize()\l+ Update()\l+ Draw()\l# LoadContent()\l}">
<polygon fill="white" stroke="black" points="176.5,-12 176.5,-124 335.5,-124 335.5,-12 176.5,-12"/>
<text text-anchor="start" x="184.5" y="-112" font-family="Helvetica,sans-Serif" font-size="10.00">FBClient.Screens.MenuScreens.</text>
<text text-anchor="middle" x="256" y="-101" font-family="Helvetica,sans-Serif" font-size="10.00">CreateServerMenuScreen</text>
<polyline fill="none" stroke="black" points="176.5,-94 335.5,-94 "/>
<text text-anchor="middle" x="256" y="-82" font-family="Helvetica,sans-Serif" font-size="10.00"> </text>
<polyline fill="none" stroke="black" points="176.5,-75 335.5,-75 "/>
<text text-anchor="start" x="184.5" y="-63" font-family="Helvetica,sans-Serif" font-size="10.00">+ CreateServerMenuScreen()</text>
<text text-anchor="start" x="184.5" y="-52" font-family="Helvetica,sans-Serif" font-size="10.00">+ Initialize()</text>
<text text-anchor="start" x="184.5" y="-41" font-family="Helvetica,sans-Serif" font-size="10.00">+ Update()</text>
<text text-anchor="start" x="184.5" y="-30" font-family="Helvetica,sans-Serif" font-size="10.00">+ Draw()</text>
<text text-anchor="start" x="184.5" y="-19" font-family="Helvetica,sans-Serif" font-size="10.00"># LoadContent()</text>
</a>
</g>
</g>
<!-- Node1&#45;&gt;Node6 -->
<g id="edge5" class="edge"><title>Node1&#45;&gt;Node6</title>
<path fill="none" stroke="midnightblue" d="M996.127,-223.113C830.335,-212.347 460.748,-183.678 344,-136 336.089,-132.769 328.27,-128.638 320.749,-124.015"/>
<polygon fill="none" stroke="midnightblue" points="996.065,-226.617 1006.27,-223.766 996.514,-219.631 996.065,-226.617"/>
</g>
<!-- Node7 -->
<g id="node7" class="node"><title>Node7</title>
<g id="a_node7"><a xlink:href="class_f_b_client_1_1_screens_1_1_menu_screens_1_1_join_server_menu_screen.html" target="_top" xlink:title="{FBClient.Screens.MenuScreens.\lJoinServerMenuScreen\n||+ JoinServerMenuScreen()\l+ Initialize()\l+ Update()\l+ Draw()\l# LoadContent()\l}">
<polygon fill="white" stroke="black" points="353.5,-12 353.5,-124 512.5,-124 512.5,-12 353.5,-12"/>
<text text-anchor="start" x="361.5" y="-112" font-family="Helvetica,sans-Serif" font-size="10.00">FBClient.Screens.MenuScreens.</text>
<text text-anchor="middle" x="433" y="-101" font-family="Helvetica,sans-Serif" font-size="10.00">JoinServerMenuScreen</text>
<polyline fill="none" stroke="black" points="353.5,-94 512.5,-94 "/>
<text text-anchor="middle" x="433" y="-82" font-family="Helvetica,sans-Serif" font-size="10.00"> </text>
<polyline fill="none" stroke="black" points="353.5,-75 512.5,-75 "/>
<text text-anchor="start" x="361.5" y="-63" font-family="Helvetica,sans-Serif" font-size="10.00">+ JoinServerMenuScreen()</text>
<text text-anchor="start" x="361.5" y="-52" font-family="Helvetica,sans-Serif" font-size="10.00">+ Initialize()</text>
<text text-anchor="start" x="361.5" y="-41" font-family="Helvetica,sans-Serif" font-size="10.00">+ Update()</text>
<text text-anchor="start" x="361.5" y="-30" font-family="Helvetica,sans-Serif" font-size="10.00">+ Draw()</text>
<text text-anchor="start" x="361.5" y="-19" font-family="Helvetica,sans-Serif" font-size="10.00"># LoadContent()</text>
</a>
</g>
</g>
<!-- Node1&#45;&gt;Node7 -->
<g id="edge6" class="edge"><title>Node1&#45;&gt;Node7</title>
<path fill="none" stroke="midnightblue" d="M996.151,-226.715C884.402,-222.283 679.836,-204.509 521,-136 513.33,-132.692 505.726,-128.573 498.387,-124.016"/>
<polygon fill="none" stroke="midnightblue" points="996.219,-230.22 1006.34,-227.092 996.478,-223.224 996.219,-230.22"/>
</g>
<!-- Node8 -->
<g id="node8" class="node"><title>Node8</title>
<g id="a_node8"><a xlink:href="class_f_b_client_1_1_screens_1_1_menu_screens_1_1_keys_menu_screen.html" target="_top" xlink:title="{FBClient.Screens.MenuScreens.\lKeysMenuScreen\n||+ KeysMenuScreen()\l+ Initialize()\l+ Update()\l+ Draw()\l# LoadContent()\l}">
<polygon fill="white" stroke="black" points="530.5,-12 530.5,-124 689.5,-124 689.5,-12 530.5,-12"/>
<text text-anchor="start" x="538.5" y="-112" font-family="Helvetica,sans-Serif" font-size="10.00">FBClient.Screens.MenuScreens.</text>
<text text-anchor="middle" x="610" y="-101" font-family="Helvetica,sans-Serif" font-size="10.00">KeysMenuScreen</text>
<polyline fill="none" stroke="black" points="530.5,-94 689.5,-94 "/>
<text text-anchor="middle" x="610" y="-82" font-family="Helvetica,sans-Serif" font-size="10.00"> </text>
<polyline fill="none" stroke="black" points="530.5,-75 689.5,-75 "/>
<text text-anchor="start" x="538.5" y="-63" font-family="Helvetica,sans-Serif" font-size="10.00">+ KeysMenuScreen()</text>
<text text-anchor="start" x="538.5" y="-52" font-family="Helvetica,sans-Serif" font-size="10.00">+ Initialize()</text>
<text text-anchor="start" x="538.5" y="-41" font-family="Helvetica,sans-Serif" font-size="10.00">+ Update()</text>
<text text-anchor="start" x="538.5" y="-30" font-family="Helvetica,sans-Serif" font-size="10.00">+ Draw()</text>
<text text-anchor="start" x="538.5" y="-19" font-family="Helvetica,sans-Serif" font-size="10.00"># LoadContent()</text>
</a>
</g>
</g>
<!-- Node1&#45;&gt;Node8 -->
<g id="edge7" class="edge"><title>Node1&#45;&gt;Node8</title>
<path fill="none" stroke="midnightblue" d="M996.409,-217.98C917.403,-206.057 795.708,-181.731 699,-136 691.744,-132.569 684.502,-128.489 677.46,-124.062"/>
<polygon fill="none" stroke="midnightblue" points="995.902,-221.443 1006.31,-219.443 996.925,-214.518 995.902,-221.443"/>
</g>
<!-- Node9 -->
<g id="node9" class="node"><title>Node9</title>
<g id="a_node9"><a xlink:href="class_f_b_client_1_1_screens_1_1_menu_screens_1_1_multiplayer_game_mode_menu_screen.html" target="_top" xlink:title="{FBClient.Screens.MenuScreens.\lMultiplayerGameModeMenuScreen\n||+ MultiplayerGameModeMenuScreen()\l+ Initialize()\l+ Update()\l+ Draw()\l# LoadContent()\l}">
<polygon fill="white" stroke="black" points="708,-12 708,-124 892,-124 892,-12 708,-12"/>
<text text-anchor="start" x="716" y="-112" font-family="Helvetica,sans-Serif" font-size="10.00">FBClient.Screens.MenuScreens.</text>
<text text-anchor="middle" x="800" y="-101" font-family="Helvetica,sans-Serif" font-size="10.00">MultiplayerGameModeMenuScreen</text>
<polyline fill="none" stroke="black" points="708,-94 892,-94 "/>
<text text-anchor="middle" x="800" y="-82" font-family="Helvetica,sans-Serif" font-size="10.00"> </text>
<polyline fill="none" stroke="black" points="708,-75 892,-75 "/>
<text text-anchor="start" x="716" y="-63" font-family="Helvetica,sans-Serif" font-size="10.00">+ MultiplayerGameModeMenuScreen()</text>
<text text-anchor="start" x="716" y="-52" font-family="Helvetica,sans-Serif" font-size="10.00">+ Initialize()</text>
<text text-anchor="start" x="716" y="-41" font-family="Helvetica,sans-Serif" font-size="10.00">+ Update()</text>
<text text-anchor="start" x="716" y="-30" font-family="Helvetica,sans-Serif" font-size="10.00">+ Draw()</text>
<text text-anchor="start" x="716" y="-19" font-family="Helvetica,sans-Serif" font-size="10.00"># LoadContent()</text>
</a>
</g>
</g>
<!-- Node1&#45;&gt;Node9 -->
<g id="edge8" class="edge"><title>Node1&#45;&gt;Node9</title>
<path fill="none" stroke="midnightblue" d="M997.505,-188.445C966.897,-172.812 931.958,-154.244 901,-136 894.564,-132.207 887.972,-128.178 881.389,-124.051"/>
<polygon fill="none" stroke="midnightblue" points="995.934,-191.573 1006.43,-192.985 999.107,-185.333 995.934,-191.573"/>
</g>
<!-- Node10 -->
<g id="node10" class="node"><title>Node10</title>
<g id="a_node10"><a xlink:href="class_f_b_client_1_1_screens_1_1_menu_screens_1_1_network_menu_screen.html" target="_top" xlink:title="{FBClient.Screens.MenuScreens.\lNetworkMenuScreen\n||+ NetworkMenuScreen()\l+ Initialize()\l+ Update()\l+ Draw()\l# LoadContent()\l}">
<polygon fill="white" stroke="black" points="910.5,-12 910.5,-124 1069.5,-124 1069.5,-12 910.5,-12"/>
<text text-anchor="start" x="918.5" y="-112" font-family="Helvetica,sans-Serif" font-size="10.00">FBClient.Screens.MenuScreens.</text>
<text text-anchor="middle" x="990" y="-101" font-family="Helvetica,sans-Serif" font-size="10.00">NetworkMenuScreen</text>
<polyline fill="none" stroke="black" points="910.5,-94 1069.5,-94 "/>
<text text-anchor="middle" x="990" y="-82" font-family="Helvetica,sans-Serif" font-size="10.00"> </text>
<polyline fill="none" stroke="black" points="910.5,-75 1069.5,-75 "/>
<text text-anchor="start" x="918.5" y="-63" font-family="Helvetica,sans-Serif" font-size="10.00">+ NetworkMenuScreen()</text>
<text text-anchor="start" x="918.5" y="-52" font-family="Helvetica,sans-Serif" font-size="10.00">+ Initialize()</text>
<text text-anchor="start" x="918.5" y="-41" font-family="Helvetica,sans-Serif" font-size="10.00">+ Update()</text>
<text text-anchor="start" x="918.5" y="-30" font-family="Helvetica,sans-Serif" font-size="10.00">+ Draw()</text>
<text text-anchor="start" x="918.5" y="-19" font-family="Helvetica,sans-Serif" font-size="10.00"># LoadContent()</text>
</a>
</g>
</g>
<!-- Node1&#45;&gt;Node10 -->
<g id="edge9" class="edge"><title>Node1&#45;&gt;Node10</title>
<path fill="none" stroke="midnightblue" d="M1042.48,-163.825C1035.19,-150.649 1027.57,-136.888 1020.48,-124.067"/>
<polygon fill="none" stroke="midnightblue" points="1039.56,-165.781 1047.47,-172.836 1045.69,-162.392 1039.56,-165.781"/>
</g>
<!-- Node11 -->
<g id="node11" class="node"><title>Node11</title>
<g id="a_node11"><a xlink:href="class_f_b_client_1_1_screens_1_1_menu_screens_1_1_online_game_menu_screen.html" target="_top" xlink:title="{FBClient.Screens.MenuScreens.\lOnlineGameMenuScreen\n||+ OnlineGameMenuScreen()\l+ Initialize()\l+ Update()\l+ Draw()\l# LoadContent()\l}">
<polygon fill="white" stroke="black" points="1087.5,-12 1087.5,-124 1246.5,-124 1246.5,-12 1087.5,-12"/>
<text text-anchor="start" x="1095.5" y="-112" font-family="Helvetica,sans-Serif" font-size="10.00">FBClient.Screens.MenuScreens.</text>
<text text-anchor="middle" x="1167" y="-101" font-family="Helvetica,sans-Serif" font-size="10.00">OnlineGameMenuScreen</text>
<polyline fill="none" stroke="black" points="1087.5,-94 1246.5,-94 "/>
<text text-anchor="middle" x="1167" y="-82" font-family="Helvetica,sans-Serif" font-size="10.00"> </text>
<polyline fill="none" stroke="black" points="1087.5,-75 1246.5,-75 "/>
<text text-anchor="start" x="1095.5" y="-63" font-family="Helvetica,sans-Serif" font-size="10.00">+ OnlineGameMenuScreen()</text>
<text text-anchor="start" x="1095.5" y="-52" font-family="Helvetica,sans-Serif" font-size="10.00">+ Initialize()</text>
<text text-anchor="start" x="1095.5" y="-41" font-family="Helvetica,sans-Serif" font-size="10.00">+ Update()</text>
<text text-anchor="start" x="1095.5" y="-30" font-family="Helvetica,sans-Serif" font-size="10.00">+ Draw()</text>
<text text-anchor="start" x="1095.5" y="-19" font-family="Helvetica,sans-Serif" font-size="10.00"># LoadContent()</text>
</a>
</g>
</g>
<!-- Node1&#45;&gt;Node11 -->
<g id="edge10" class="edge"><title>Node1&#45;&gt;Node11</title>
<path fill="none" stroke="midnightblue" d="M1113.92,-163.825C1121.3,-150.649 1129,-136.888 1136.18,-124.067"/>
<polygon fill="none" stroke="midnightblue" points="1110.71,-162.4 1108.88,-172.836 1116.82,-165.819 1110.71,-162.4"/>
</g>
<!-- Node12 -->
<g id="node12" class="node"><title>Node12</title>
<g id="a_node12"><a xlink:href="class_f_b_client_1_1_screens_1_1_menu_screens_1_1_option_menu_screen.html" target="_top" xlink:title="{FBClient.Screens.MenuScreens.\lOptionMenuScreen\n||+ OptionMenuScreen()\l+ Initialize()\l+ Update()\l+ Draw()\l# LoadContent()\l}">
<polygon fill="white" stroke="black" points="1264.5,-12 1264.5,-124 1423.5,-124 1423.5,-12 1264.5,-12"/>
<text text-anchor="start" x="1272.5" y="-112" font-family="Helvetica,sans-Serif" font-size="10.00">FBClient.Screens.MenuScreens.</text>
<text text-anchor="middle" x="1344" y="-101" font-family="Helvetica,sans-Serif" font-size="10.00">OptionMenuScreen</text>
<polyline fill="none" stroke="black" points="1264.5,-94 1423.5,-94 "/>
<text text-anchor="middle" x="1344" y="-82" font-family="Helvetica,sans-Serif" font-size="10.00"> </text>
<polyline fill="none" stroke="black" points="1264.5,-75 1423.5,-75 "/>
<text text-anchor="start" x="1272.5" y="-63" font-family="Helvetica,sans-Serif" font-size="10.00">+ OptionMenuScreen()</text>
<text text-anchor="start" x="1272.5" y="-52" font-family="Helvetica,sans-Serif" font-size="10.00">+ Initialize()</text>
<text text-anchor="start" x="1272.5" y="-41" font-family="Helvetica,sans-Serif" font-size="10.00">+ Update()</text>
<text text-anchor="start" x="1272.5" y="-30" font-family="Helvetica,sans-Serif" font-size="10.00">+ Draw()</text>
<text text-anchor="start" x="1272.5" y="-19" font-family="Helvetica,sans-Serif" font-size="10.00"># LoadContent()</text>
</a>
</g>
</g>
<!-- Node1&#45;&gt;Node12 -->
<g id="edge11" class="edge"><title>Node1&#45;&gt;Node12</title>
<path fill="none" stroke="midnightblue" d="M1158.68,-189.619C1189.46,-174.064 1224.47,-155.242 1255,-136 1260.89,-132.288 1266.88,-128.295 1272.84,-124.173"/>
<polygon fill="none" stroke="midnightblue" points="1157.07,-186.513 1149.7,-194.127 1160.21,-192.769 1157.07,-186.513"/>
</g>
<!-- Node13 -->
<g id="node13" class="node"><title>Node13</title>
<g id="a_node13"><a xlink:href="class_f_b_client_1_1_screens_1_1_menu_screens_1_1_single_player_game_mode_menu_screen.html" target="_top" xlink:title="{FBClient.Screens.MenuScreens.\lSinglePlayerGameModeMenuScreen\n||+ SinglePlayerGameModeMenu\lScreen()\l+ Initialize()\l+ Update()\l+ Draw()\l# LoadContent()\l}">
<polygon fill="white" stroke="black" points="1442,-6.5 1442,-129.5 1618,-129.5 1618,-6.5 1442,-6.5"/>
<text text-anchor="start" x="1450" y="-117.5" font-family="Helvetica,sans-Serif" font-size="10.00">FBClient.Screens.MenuScreens.</text>
<text text-anchor="middle" x="1530" y="-106.5" font-family="Helvetica,sans-Serif" font-size="10.00">SinglePlayerGameModeMenuScreen</text>
<polyline fill="none" stroke="black" points="1442,-99.5 1618,-99.5 "/>
<text text-anchor="middle" x="1530" y="-87.5" font-family="Helvetica,sans-Serif" font-size="10.00"> </text>
<polyline fill="none" stroke="black" points="1442,-80.5 1618,-80.5 "/>
<text text-anchor="start" x="1450" y="-68.5" font-family="Helvetica,sans-Serif" font-size="10.00">+ SinglePlayerGameModeMenu</text>
<text text-anchor="start" x="1450" y="-57.5" font-family="Helvetica,sans-Serif" font-size="10.00">Screen()</text>
<text text-anchor="start" x="1450" y="-46.5" font-family="Helvetica,sans-Serif" font-size="10.00">+ Initialize()</text>
<text text-anchor="start" x="1450" y="-35.5" font-family="Helvetica,sans-Serif" font-size="10.00">+ Update()</text>
<text text-anchor="start" x="1450" y="-24.5" font-family="Helvetica,sans-Serif" font-size="10.00">+ Draw()</text>
<text text-anchor="start" x="1450" y="-13.5" font-family="Helvetica,sans-Serif" font-size="10.00"># LoadContent()</text>
</a>
</g>
</g>
<!-- Node1&#45;&gt;Node13 -->
<g id="edge12" class="edge"><title>Node1&#45;&gt;Node13</title>
<path fill="none" stroke="midnightblue" d="M1159.75,-215.048C1233.3,-201.488 1343.12,-176.435 1432,-136 1436.31,-134.037 1440.65,-131.886 1444.95,-129.596"/>
<polygon fill="none" stroke="midnightblue" points="1158.84,-211.657 1149.62,-216.886 1160.09,-218.545 1158.84,-211.657"/>
</g>
<!-- Node14 -->
<g id="node14" class="node"><title>Node14</title>
<g id="a_node14"><a xlink:href="class_f_b_client_1_1_screens_1_1_menu_screens_1_1_sudden_death_menu_screen.html" target="_top" xlink:title="{FBClient.Screens.MenuScreens.\lSuddenDeathMenuScreen\n||+ SuddenDeathMenuScreen()\l+ Initialize()\l+ Update()\l+ Draw()\l# LoadContent()\l}">
<polygon fill="white" stroke="black" points="1636.5,-12 1636.5,-124 1795.5,-124 1795.5,-12 1636.5,-12"/>
<text text-anchor="start" x="1644.5" y="-112" font-family="Helvetica,sans-Serif" font-size="10.00">FBClient.Screens.MenuScreens.</text>
<text text-anchor="middle" x="1716" y="-101" font-family="Helvetica,sans-Serif" font-size="10.00">SuddenDeathMenuScreen</text>
<polyline fill="none" stroke="black" points="1636.5,-94 1795.5,-94 "/>
<text text-anchor="middle" x="1716" y="-82" font-family="Helvetica,sans-Serif" font-size="10.00"> </text>
<polyline fill="none" stroke="black" points="1636.5,-75 1795.5,-75 "/>
<text text-anchor="start" x="1644.5" y="-63" font-family="Helvetica,sans-Serif" font-size="10.00">+ SuddenDeathMenuScreen()</text>
<text text-anchor="start" x="1644.5" y="-52" font-family="Helvetica,sans-Serif" font-size="10.00">+ Initialize()</text>
<text text-anchor="start" x="1644.5" y="-41" font-family="Helvetica,sans-Serif" font-size="10.00">+ Update()</text>
<text text-anchor="start" x="1644.5" y="-30" font-family="Helvetica,sans-Serif" font-size="10.00">+ Draw()</text>
<text text-anchor="start" x="1644.5" y="-19" font-family="Helvetica,sans-Serif" font-size="10.00"># LoadContent()</text>
</a>
</g>
</g>
<!-- Node1&#45;&gt;Node14 -->
<g id="edge13" class="edge"><title>Node1&#45;&gt;Node14</title>
<path fill="none" stroke="midnightblue" d="M1159.99,-226.307C1270.37,-221.386 1470.93,-203.032 1627,-136 1634.64,-132.718 1642.23,-128.648 1649.56,-124.148"/>
<polygon fill="none" stroke="midnightblue" points="1159.77,-222.813 1149.92,-226.73 1160.06,-229.807 1159.77,-222.813"/>
</g>
<!-- Node15 -->
<g id="node15" class="node"><title>Node15</title>
<g id="a_node15"><a xlink:href="class_f_b_client_1_1_screens_1_1_menu_screens_1_1_title_screen.html" target="_top" xlink:title="{FBClient.Screens.MenuScreens.\lTitleScreen\n||+ TitleScreen()\l+ Initialize()\l+ Update()\l+ Draw()\l# LoadContent()\l}">
<polygon fill="white" stroke="black" points="1813.5,-12 1813.5,-124 1972.5,-124 1972.5,-12 1813.5,-12"/>
<text text-anchor="start" x="1821.5" y="-112" font-family="Helvetica,sans-Serif" font-size="10.00">FBClient.Screens.MenuScreens.</text>
<text text-anchor="middle" x="1893" y="-101" font-family="Helvetica,sans-Serif" font-size="10.00">TitleScreen</text>
<polyline fill="none" stroke="black" points="1813.5,-94 1972.5,-94 "/>
<text text-anchor="middle" x="1893" y="-82" font-family="Helvetica,sans-Serif" font-size="10.00"> </text>
<polyline fill="none" stroke="black" points="1813.5,-75 1972.5,-75 "/>
<text text-anchor="start" x="1821.5" y="-63" font-family="Helvetica,sans-Serif" font-size="10.00">+ TitleScreen()</text>
<text text-anchor="start" x="1821.5" y="-52" font-family="Helvetica,sans-Serif" font-size="10.00">+ Initialize()</text>
<text text-anchor="start" x="1821.5" y="-41" font-family="Helvetica,sans-Serif" font-size="10.00">+ Update()</text>
<text text-anchor="start" x="1821.5" y="-30" font-family="Helvetica,sans-Serif" font-size="10.00">+ Draw()</text>
<text text-anchor="start" x="1821.5" y="-19" font-family="Helvetica,sans-Serif" font-size="10.00"># LoadContent()</text>
</a>
</g>
</g>
<!-- Node1&#45;&gt;Node15 -->
<g id="edge14" class="edge"><title>Node1&#45;&gt;Node15</title>
<path fill="none" stroke="midnightblue" d="M1159.58,-222.951C1323.82,-211.927 1688.55,-182.872 1804,-136 1811.97,-132.762 1819.87,-128.626 1827.46,-124.001"/>
<polygon fill="none" stroke="midnightblue" points="1159.27,-219.463 1149.53,-223.619 1159.74,-226.448 1159.27,-219.463"/>
</g>
<!-- Node16 -->
<g id="node16" class="node"><title>Node16</title>
<g id="a_node16"><a xlink:href="class_f_b_client_1_1_screens_1_1_menu_screens_1_1_user_menu_screen.html" target="_top" xlink:title="{FBClient.Screens.MenuScreens.\lUserMenuScreen\n|+ VERSION\l+ hasLoggedIn\l+ username\l|+ UserMenuScreen()\l+ Initialize()\l+ Update()\l+ Draw()\l# LoadContent()\l}">
<polygon fill="white" stroke="black" points="1990.5,-1 1990.5,-135 2149.5,-135 2149.5,-1 1990.5,-1"/>
<text text-anchor="start" x="1998.5" y="-123" font-family="Helvetica,sans-Serif" font-size="10.00">FBClient.Screens.MenuScreens.</text>
<text text-anchor="middle" x="2070" y="-112" font-family="Helvetica,sans-Serif" font-size="10.00">UserMenuScreen</text>
<polyline fill="none" stroke="black" points="1990.5,-105 2149.5,-105 "/>
<text text-anchor="start" x="1998.5" y="-93" font-family="Helvetica,sans-Serif" font-size="10.00">+ VERSION</text>
<text text-anchor="start" x="1998.5" y="-82" font-family="Helvetica,sans-Serif" font-size="10.00">+ hasLoggedIn</text>
<text text-anchor="start" x="1998.5" y="-71" font-family="Helvetica,sans-Serif" font-size="10.00">+ username</text>
<polyline fill="none" stroke="black" points="1990.5,-64 2149.5,-64 "/>
<text text-anchor="start" x="1998.5" y="-52" font-family="Helvetica,sans-Serif" font-size="10.00">+ UserMenuScreen()</text>
<text text-anchor="start" x="1998.5" y="-41" font-family="Helvetica,sans-Serif" font-size="10.00">+ Initialize()</text>
<text text-anchor="start" x="1998.5" y="-30" font-family="Helvetica,sans-Serif" font-size="10.00">+ Update()</text>
<text text-anchor="start" x="1998.5" y="-19" font-family="Helvetica,sans-Serif" font-size="10.00">+ Draw()</text>
<text text-anchor="start" x="1998.5" y="-8" font-family="Helvetica,sans-Serif" font-size="10.00"># LoadContent()</text>
</a>
</g>
</g>
<!-- Node1&#45;&gt;Node16 -->
<g id="edge15" class="edge"><title>Node1&#45;&gt;Node16</title>
<path fill="none" stroke="midnightblue" d="M1159.66,-225.278C1352.73,-217.95 1832.26,-194.275 1981,-136 1984.15,-134.765 1987.29,-133.386 1990.4,-131.889"/>
<polygon fill="none" stroke="midnightblue" points="1159.44,-221.784 1149.57,-225.656 1159.7,-228.779 1159.44,-221.784"/>
</g>
<!-- Node2 -->
<g id="node2" class="node"><title>Node2</title>
<g id="a_node2"><a xlink:href="class_f_b_client_1_1_screens_1_1_base_game_state.html" target="_top" xlink:title="{BaseGameState\n|# ControlManager\l# BigFont\l# playerIndexInControl\l|+ BaseGameState()\l+ Update()\l+ Draw()\l# LoadContent()\l}">
<polygon fill="white" stroke="black" points="1021.5,-323 1021.5,-435 1134.5,-435 1134.5,-323 1021.5,-323"/>
<text text-anchor="middle" x="1078" y="-423" font-family="Helvetica,sans-Serif" font-size="10.00">BaseGameState</text>
<polyline fill="none" stroke="black" points="1021.5,-416 1134.5,-416 "/>
<text text-anchor="start" x="1029.5" y="-404" font-family="Helvetica,sans-Serif" font-size="10.00"># ControlManager</text>
<text text-anchor="start" x="1029.5" y="-393" font-family="Helvetica,sans-Serif" font-size="10.00"># BigFont</text>
<text text-anchor="start" x="1029.5" y="-382" font-family="Helvetica,sans-Serif" font-size="10.00"># playerIndexInControl</text>
<polyline fill="none" stroke="black" points="1021.5,-375 1134.5,-375 "/>
<text text-anchor="start" x="1029.5" y="-363" font-family="Helvetica,sans-Serif" font-size="10.00">+ BaseGameState()</text>
<text text-anchor="start" x="1029.5" y="-352" font-family="Helvetica,sans-Serif" font-size="10.00">+ Update()</text>
<text text-anchor="start" x="1029.5" y="-341" font-family="Helvetica,sans-Serif" font-size="10.00">+ Draw()</text>
<text text-anchor="start" x="1029.5" y="-330" font-family="Helvetica,sans-Serif" font-size="10.00"># LoadContent()</text>
</a>
</g>
</g>
<!-- Node2&#45;&gt;Node1 -->
<g id="edge1" class="edge"><title>Node2&#45;&gt;Node1</title>
<path fill="none" stroke="midnightblue" d="M1078,-312.64C1078,-303.467 1078,-294.114 1078,-285.156"/>
<polygon fill="none" stroke="midnightblue" points="1074.5,-312.89 1078,-322.89 1081.5,-312.89 1074.5,-312.89"/>
</g>
<!-- Node3 -->
<g id="node3" class="node"><title>Node3</title>
<g id="a_node3"><a xlink:href="class_f_b_client_1_1_controls_1_1_game_state.html" target="_top" xlink:title="{GameState\n|+ Components\l+ Tag\l# StateManager\l|+ Initialize()\l+ Update()\l+ Draw()\l# GameState()\l# StateChange()\l# Show()\l# Hide()\l}">
<polygon fill="white" stroke="black" points="1034.5,-472.5 1034.5,-617.5 1121.5,-617.5 1121.5,-472.5 1034.5,-472.5"/>
<text text-anchor="middle" x="1078" y="-605.5" font-family="Helvetica,sans-Serif" font-size="10.00">GameState</text>
<polyline fill="none" stroke="black" points="1034.5,-598.5 1121.5,-598.5 "/>
<text text-anchor="start" x="1042.5" y="-586.5" font-family="Helvetica,sans-Serif" font-size="10.00">+ Components</text>
<text text-anchor="start" x="1042.5" y="-575.5" font-family="Helvetica,sans-Serif" font-size="10.00">+ Tag</text>
<text text-anchor="start" x="1042.5" y="-564.5" font-family="Helvetica,sans-Serif" font-size="10.00"># StateManager</text>
<polyline fill="none" stroke="black" points="1034.5,-557.5 1121.5,-557.5 "/>
<text text-anchor="start" x="1042.5" y="-545.5" font-family="Helvetica,sans-Serif" font-size="10.00">+ Initialize()</text>
<text text-anchor="start" x="1042.5" y="-534.5" font-family="Helvetica,sans-Serif" font-size="10.00">+ Update()</text>
<text text-anchor="start" x="1042.5" y="-523.5" font-family="Helvetica,sans-Serif" font-size="10.00">+ Draw()</text>
<text text-anchor="start" x="1042.5" y="-512.5" font-family="Helvetica,sans-Serif" font-size="10.00"># GameState()</text>
<text text-anchor="start" x="1042.5" y="-501.5" font-family="Helvetica,sans-Serif" font-size="10.00"># StateChange()</text>
<text text-anchor="start" x="1042.5" y="-490.5" font-family="Helvetica,sans-Serif" font-size="10.00"># Show()</text>
<text text-anchor="start" x="1042.5" y="-479.5" font-family="Helvetica,sans-Serif" font-size="10.00"># Hide()</text>
</a>
</g>
</g>
<!-- Node3&#45;&gt;Node2 -->
<g id="edge2" class="edge"><title>Node3&#45;&gt;Node2</title>
<path fill="none" stroke="midnightblue" d="M1078,-461.855C1078,-452.789 1078,-443.726 1078,-435.109"/>
<polygon fill="none" stroke="midnightblue" points="1074.5,-462.067 1078,-472.067 1081.5,-462.067 1074.5,-462.067"/>
</g>
<!-- Node4 -->
<g id="node4" class="node"><title>Node4</title>
<polygon fill="white" stroke="#bfbfbf" points="1012,-654.5 1012,-711.5 1144,-711.5 1144,-654.5 1012,-654.5"/>
<text text-anchor="middle" x="1078" y="-699.5" font-family="Helvetica,sans-Serif" font-size="10.00">DrawableGameComponent</text>
<polyline fill="none" stroke="#bfbfbf" points="1012,-692.5 1144,-692.5 "/>
<text text-anchor="middle" x="1078" y="-680.5" font-family="Helvetica,sans-Serif" font-size="10.00"> </text>
<polyline fill="none" stroke="#bfbfbf" points="1012,-673.5 1144,-673.5 "/>
<text text-anchor="middle" x="1078" y="-661.5" font-family="Helvetica,sans-Serif" font-size="10.00"> </text>
</g>
<!-- Node4&#45;&gt;Node3 -->
<g id="edge3" class="edge"><title>Node4&#45;&gt;Node3</title>
<path fill="none" stroke="midnightblue" d="M1078,-644.356C1078,-635.999 1078,-626.872 1078,-617.656"/>
<polygon fill="none" stroke="midnightblue" points="1074.5,-644.478 1078,-654.478 1081.5,-644.478 1074.5,-644.478"/>
</g>
</g>
</svg>
