<?xml version="1.0" encoding="UTF-8" standalone="no"?>
<!DOCTYPE svg PUBLIC "-//W3C//DTD SVG 1.1//EN"
 "http://www.w3.org/Graphics/SVG/1.1/DTD/svg11.dtd">
<!-- Generated by graphviz version 2.34.0 (20130907.0111)
 -->
<!-- Title: FBServer.Core.Entities.Arrow Pages: 1 -->
<svg width="150pt" height="674pt"
 viewBox="0.00 0.00 150.00 674.00" xmlns="http://www.w3.org/2000/svg" xmlns:xlink="http://www.w3.org/1999/xlink">
<g id="graph0" class="graph" transform="scale(1 1) rotate(0) translate(4 670)">
<title>FBServer.Core.Entities.Arrow</title>
<polygon fill="white" stroke="white" points="-4,4 -4,-670 146,-670 146,4 -4,4"/>
<!-- Node1 -->
<g id="node1" class="node"><title>Node1</title>
<polygon fill="#bfbfbf" stroke="black" points="-0.5,-0.5 -0.5,-79.5 142.5,-79.5 142.5,-0.5 -0.5,-0.5"/>
<text text-anchor="middle" x="71" y="-67.5" font-family="Helvetica,sans-Serif" font-size="10.00">FBServer.Core.Entities.Arrow</text>
<polyline fill="none" stroke="black" points="-0.5,-60.5 142.5,-60.5 "/>
<text text-anchor="middle" x="71" y="-48.5" font-family="Helvetica,sans-Serif" font-size="10.00"> </text>
<polyline fill="none" stroke="black" points="-0.5,-41.5 142.5,-41.5 "/>
<text text-anchor="start" x="7.5" y="-29.5" font-family="Helvetica,sans-Serif" font-size="10.00">+ Arrow()</text>
<text text-anchor="start" x="7.5" y="-18.5" font-family="Helvetica,sans-Serif" font-size="10.00">+ Destroy()</text>
<text text-anchor="start" x="7.5" y="-7.5" font-family="Helvetica,sans-Serif" font-size="10.00">+ Remove()</text>
</g>
<!-- Node2 -->
<g id="node2" class="node"><title>Node2</title>
<g id="a_node2"><a xlink:href="class_f_b_library_1_1_core_1_1_base_entities_1_1_base_arrow.html" target="_top" xlink:title="{BaseArrow\n|# Direction\l|# BaseArrow()\l}">
<polygon fill="white" stroke="black" points="32,-116.5 32,-173.5 110,-173.5 110,-116.5 32,-116.5"/>
<text text-anchor="middle" x="71" y="-161.5" font-family="Helvetica,sans-Serif" font-size="10.00">BaseArrow</text>
<polyline fill="none" stroke="black" points="32,-154.5 110,-154.5 "/>
<text text-anchor="start" x="40" y="-142.5" font-family="Helvetica,sans-Serif" font-size="10.00"># Direction</text>
<polyline fill="none" stroke="black" points="32,-135.5 110,-135.5 "/>
<text text-anchor="start" x="40" y="-123.5" font-family="Helvetica,sans-Serif" font-size="10.00"># BaseArrow()</text>
</a>
</g>
</g>
<!-- Node2&#45;&gt;Node1 -->
<g id="edge1" class="edge"><title>Node2&#45;&gt;Node1</title>
<path fill="none" stroke="midnightblue" d="M71,-106.156C71,-97.4733 71,-88.2318 71,-79.5205"/>
<polygon fill="none" stroke="midnightblue" points="67.5001,-106.398 71,-116.398 74.5001,-106.398 67.5001,-106.398"/>
</g>
<!-- Node3 -->
<g id="node3" class="node"><title>Node3</title>
<g id="a_node3"><a xlink:href="class_f_b_library_1_1_core_1_1_static_entity.html" target="_top" xlink:title="{StaticEntity\n||+ Update()\l# StaticEntity()\l# StaticEntity()\l}">
<polygon fill="white" stroke="black" points="30,-210.5 30,-289.5 112,-289.5 112,-210.5 30,-210.5"/>
<text text-anchor="middle" x="71" y="-277.5" font-family="Helvetica,sans-Serif" font-size="10.00">StaticEntity</text>
<polyline fill="none" stroke="black" points="30,-270.5 112,-270.5 "/>
<text text-anchor="middle" x="71" y="-258.5" font-family="Helvetica,sans-Serif" font-size="10.00"> </text>
<polyline fill="none" stroke="black" points="30,-251.5 112,-251.5 "/>
<text text-anchor="start" x="38" y="-239.5" font-family="Helvetica,sans-Serif" font-size="10.00">+ Update()</text>
<text text-anchor="start" x="38" y="-228.5" font-family="Helvetica,sans-Serif" font-size="10.00"># StaticEntity()</text>
<text text-anchor="start" x="38" y="-217.5" font-family="Helvetica,sans-Serif" font-size="10.00"># StaticEntity()</text>
</a>
</g>
</g>
<!-- Node3&#45;&gt;Node2 -->
<g id="edge2" class="edge"><title>Node3&#45;&gt;Node2</title>
<path fill="none" stroke="midnightblue" d="M71,-200.163C71,-191.04 71,-181.806 71,-173.61"/>
<polygon fill="none" stroke="midnightblue" points="67.5001,-200.354 71,-210.354 74.5001,-200.354 67.5001,-200.354"/>
</g>
<!-- Node4 -->
<g id="node4" class="node"><title>Node4</title>
<g id="a_node4"><a xlink:href="class_f_b_library_1_1_core_1_1_base_entity.html" target="_top" xlink:title="{BaseEntity\n|+ IsAlive\l+ InDestruction\l+ DestructionTime\l+ Position\l+ PositionX\l+ PositionY\l+ CellPositionX\l+ CellPositionY\l+ CellPosition\l+ Dimension\l|+ Update()\l+ ChangePosition()\l+ ChangePosition()\l+ ChangePosition()\l+ Destroy()\l+ Remove()\l# BaseEntity()\l# BaseEntity()\l}">
<polygon fill="white" stroke="black" points="21,-326.5 21,-559.5 121,-559.5 121,-326.5 21,-326.5"/>
<text text-anchor="middle" x="71" y="-547.5" font-family="Helvetica,sans-Serif" font-size="10.00">BaseEntity</text>
<polyline fill="none" stroke="black" points="21,-540.5 121,-540.5 "/>
<text text-anchor="start" x="29" y="-528.5" font-family="Helvetica,sans-Serif" font-size="10.00">+ IsAlive</text>
<text text-anchor="start" x="29" y="-517.5" font-family="Helvetica,sans-Serif" font-size="10.00">+ InDestruction</text>
<text text-anchor="start" x="29" y="-506.5" font-family="Helvetica,sans-Serif" font-size="10.00">+ DestructionTime</text>
<text text-anchor="start" x="29" y="-495.5" font-family="Helvetica,sans-Serif" font-size="10.00">+ Position</text>
<text text-anchor="start" x="29" y="-484.5" font-family="Helvetica,sans-Serif" font-size="10.00">+ PositionX</text>
<text text-anchor="start" x="29" y="-473.5" font-family="Helvetica,sans-Serif" font-size="10.00">+ PositionY</text>
<text text-anchor="start" x="29" y="-462.5" font-family="Helvetica,sans-Serif" font-size="10.00">+ CellPositionX</text>
<text text-anchor="start" x="29" y="-451.5" font-family="Helvetica,sans-Serif" font-size="10.00">+ CellPositionY</text>
<text text-anchor="start" x="29" y="-440.5" font-family="Helvetica,sans-Serif" font-size="10.00">+ CellPosition</text>
<text text-anchor="start" x="29" y="-429.5" font-family="Helvetica,sans-Serif" font-size="10.00">+ Dimension</text>
<polyline fill="none" stroke="black" points="21,-422.5 121,-422.5 "/>
<text text-anchor="start" x="29" y="-410.5" font-family="Helvetica,sans-Serif" font-size="10.00">+ Update()</text>
<text text-anchor="start" x="29" y="-399.5" font-family="Helvetica,sans-Serif" font-size="10.00">+ ChangePosition()</text>
<text text-anchor="start" x="29" y="-388.5" font-family="Helvetica,sans-Serif" font-size="10.00">+ ChangePosition()</text>
<text text-anchor="start" x="29" y="-377.5" font-family="Helvetica,sans-Serif" font-size="10.00">+ ChangePosition()</text>
<text text-anchor="start" x="29" y="-366.5" font-family="Helvetica,sans-Serif" font-size="10.00">+ Destroy()</text>
<text text-anchor="start" x="29" y="-355.5" font-family="Helvetica,sans-Serif" font-size="10.00">+ Remove()</text>
<text text-anchor="start" x="29" y="-344.5" font-family="Helvetica,sans-Serif" font-size="10.00"># BaseEntity()</text>
<text text-anchor="start" x="29" y="-333.5" font-family="Helvetica,sans-Serif" font-size="10.00"># BaseEntity()</text>
</a>
</g>
</g>
<!-- Node4&#45;&gt;Node3 -->
<g id="edge3" class="edge"><title>Node4&#45;&gt;Node3</title>
<path fill="none" stroke="midnightblue" d="M71,-316.405C71,-306.866 71,-297.774 71,-289.565"/>
<polygon fill="none" stroke="midnightblue" points="67.5001,-316.488 71,-326.488 74.5001,-316.488 67.5001,-316.488"/>
</g>
<!-- Node5 -->
<g id="node5" class="node"><title>Node5</title>
<g id="a_node5"><a xlink:href="interface_f_b_library_1_1_core_1_1_i_entity.html" target="_top" xlink:title="{IEntity\n||+ Destroy()\l+ Remove()\l}">
<polygon fill="white" stroke="black" points="38,-597 38,-665 104,-665 104,-597 38,-597"/>
<text text-anchor="middle" x="71" y="-653" font-family="Helvetica,sans-Serif" font-size="10.00">IEntity</text>
<polyline fill="none" stroke="black" points="38,-646 104,-646 "/>
<text text-anchor="middle" x="71" y="-634" font-family="Helvetica,sans-Serif" font-size="10.00"> </text>
<polyline fill="none" stroke="black" points="38,-627 104,-627 "/>
<text text-anchor="start" x="46" y="-615" font-family="Helvetica,sans-Serif" font-size="10.00">+ Destroy()</text>
<text text-anchor="start" x="46" y="-604" font-family="Helvetica,sans-Serif" font-size="10.00">+ Remove()</text>
</a>
</g>
</g>
<!-- Node5&#45;&gt;Node4 -->
<g id="edge4" class="edge"><title>Node5&#45;&gt;Node4</title>
<path fill="none" stroke="midnightblue" d="M71,-586.601C71,-578.247 71,-569.139 71,-559.698"/>
<polygon fill="none" stroke="midnightblue" points="67.5001,-586.747 71,-596.747 74.5001,-586.747 67.5001,-586.747"/>
</g>
</g>
</svg>
