<?xml version="1.0" encoding="UTF-8" standalone="no"?>
<!DOCTYPE svg PUBLIC "-//W3C//DTD SVG 1.1//EN"
 "http://www.w3.org/Graphics/SVG/1.1/DTD/svg11.dtd">
<!-- Generated by graphviz version 2.34.0 (20130907.0111)
 -->
<!-- Title: FBLibrary.Core.BaseEntities.BaseUnbreakableWall Pages: 1 -->
<svg width="408pt" height="708pt"
 viewBox="0.00 0.00 408.00 708.00" xmlns="http://www.w3.org/2000/svg" xmlns:xlink="http://www.w3.org/1999/xlink">
<g id="graph0" class="graph" transform="scale(1 1) rotate(0) translate(4 704)">
<title>FBLibrary.Core.BaseEntities.BaseUnbreakableWall</title>
<polygon fill="white" stroke="white" points="-4,4 -4,-704 404,-704 404,4 -4,4"/>
<!-- Node1 -->
<g id="node1" class="node"><title>Node1</title>
<polygon fill="#bfbfbf" stroke="black" points="127.5,-139 127.5,-207 270.5,-207 270.5,-139 127.5,-139"/>
<text text-anchor="start" x="135.5" y="-195" font-family="Helvetica,sans-Serif" font-size="10.00">FBLibrary.Core.BaseEntities.</text>
<text text-anchor="middle" x="199" y="-184" font-family="Helvetica,sans-Serif" font-size="10.00">BaseUnbreakableWall</text>
<polyline fill="none" stroke="black" points="127.5,-177 270.5,-177 "/>
<text text-anchor="middle" x="199" y="-165" font-family="Helvetica,sans-Serif" font-size="10.00"> </text>
<polyline fill="none" stroke="black" points="127.5,-158 270.5,-158 "/>
<text text-anchor="start" x="135.5" y="-146" font-family="Helvetica,sans-Serif" font-size="10.00"># BaseUnbreakableWall()</text>
</g>
<!-- Node5 -->
<g id="node5" class="node"><title>Node5</title>
<g id="a_node5"><a xlink:href="class_f_b_client_1_1_core_1_1_entities_1_1_unbreakable_wall.html" target="_top" xlink:title="{FBClient.Core.Entities.UnbreakableWall\n|+ Sprite\l|+ UnbreakableWall()\l+ Update()\l+ Draw()\l+ Destroy()\l+ Remove()\l}">
<polygon fill="white" stroke="black" points="0,-0.5 0,-101.5 190,-101.5 190,-0.5 0,-0.5"/>
<text text-anchor="middle" x="95" y="-89.5" font-family="Helvetica,sans-Serif" font-size="10.00">FBClient.Core.Entities.UnbreakableWall</text>
<polyline fill="none" stroke="black" points="0,-82.5 190,-82.5 "/>
<text text-anchor="start" x="8" y="-70.5" font-family="Helvetica,sans-Serif" font-size="10.00">+ Sprite</text>
<polyline fill="none" stroke="black" points="0,-63.5 190,-63.5 "/>
<text text-anchor="start" x="8" y="-51.5" font-family="Helvetica,sans-Serif" font-size="10.00">+ UnbreakableWall()</text>
<text text-anchor="start" x="8" y="-40.5" font-family="Helvetica,sans-Serif" font-size="10.00">+ Update()</text>
<text text-anchor="start" x="8" y="-29.5" font-family="Helvetica,sans-Serif" font-size="10.00">+ Draw()</text>
<text text-anchor="start" x="8" y="-18.5" font-family="Helvetica,sans-Serif" font-size="10.00">+ Destroy()</text>
<text text-anchor="start" x="8" y="-7.5" font-family="Helvetica,sans-Serif" font-size="10.00">+ Remove()</text>
</a>
</g>
</g>
<!-- Node1&#45;&gt;Node5 -->
<g id="edge4" class="edge"><title>Node1&#45;&gt;Node5</title>
<path fill="none" stroke="midnightblue" d="M163.57,-131.119C155.353,-121.638 146.52,-111.446 138.017,-101.636"/>
<polygon fill="none" stroke="midnightblue" points="161.112,-133.627 170.306,-138.892 166.402,-129.043 161.112,-133.627"/>
</g>
<!-- Node6 -->
<g id="node6" class="node"><title>Node6</title>
<g id="a_node6"><a xlink:href="class_f_b_server_1_1_core_1_1_entities_1_1_unbreakable_wall.html" target="_top" xlink:title="{FBServer.Core.Entities.UnbreakableWall\n||+ UnbreakableWall()\l+ Destroy()\l+ Remove()\l}">
<polygon fill="white" stroke="black" points="208,-11.5 208,-90.5 400,-90.5 400,-11.5 208,-11.5"/>
<text text-anchor="middle" x="304" y="-78.5" font-family="Helvetica,sans-Serif" font-size="10.00">FBServer.Core.Entities.UnbreakableWall</text>
<polyline fill="none" stroke="black" points="208,-71.5 400,-71.5 "/>
<text text-anchor="middle" x="304" y="-59.5" font-family="Helvetica,sans-Serif" font-size="10.00"> </text>
<polyline fill="none" stroke="black" points="208,-52.5 400,-52.5 "/>
<text text-anchor="start" x="216" y="-40.5" font-family="Helvetica,sans-Serif" font-size="10.00">+ UnbreakableWall()</text>
<text text-anchor="start" x="216" y="-29.5" font-family="Helvetica,sans-Serif" font-size="10.00">+ Destroy()</text>
<text text-anchor="start" x="216" y="-18.5" font-family="Helvetica,sans-Serif" font-size="10.00">+ Remove()</text>
</a>
</g>
</g>
<!-- Node1&#45;&gt;Node6 -->
<g id="edge5" class="edge"><title>Node1&#45;&gt;Node6</title>
<path fill="none" stroke="midnightblue" d="M234.603,-131.311C246.141,-118.124 258.898,-103.545 270.294,-90.5207"/>
<polygon fill="none" stroke="midnightblue" points="231.921,-129.061 227.97,-138.892 237.189,-133.671 231.921,-129.061"/>
</g>
<!-- Node2 -->
<g id="node2" class="node"><title>Node2</title>
<g id="a_node2"><a xlink:href="class_f_b_library_1_1_core_1_1_static_entity.html" target="_top" xlink:title="{StaticEntity\n||+ Update()\l# StaticEntity()\l# StaticEntity()\l}">
<polygon fill="white" stroke="black" points="158,-244.5 158,-323.5 240,-323.5 240,-244.5 158,-244.5"/>
<text text-anchor="middle" x="199" y="-311.5" font-family="Helvetica,sans-Serif" font-size="10.00">StaticEntity</text>
<polyline fill="none" stroke="black" points="158,-304.5 240,-304.5 "/>
<text text-anchor="middle" x="199" y="-292.5" font-family="Helvetica,sans-Serif" font-size="10.00"> </text>
<polyline fill="none" stroke="black" points="158,-285.5 240,-285.5 "/>
<text text-anchor="start" x="166" y="-273.5" font-family="Helvetica,sans-Serif" font-size="10.00">+ Update()</text>
<text text-anchor="start" x="166" y="-262.5" font-family="Helvetica,sans-Serif" font-size="10.00"># StaticEntity()</text>
<text text-anchor="start" x="166" y="-251.5" font-family="Helvetica,sans-Serif" font-size="10.00"># StaticEntity()</text>
</a>
</g>
</g>
<!-- Node2&#45;&gt;Node1 -->
<g id="edge1" class="edge"><title>Node2&#45;&gt;Node1</title>
<path fill="none" stroke="midnightblue" d="M199,-234.125C199,-225.016 199,-215.696 199,-207.196"/>
<polygon fill="none" stroke="midnightblue" points="195.5,-234.264 199,-244.264 202.5,-234.264 195.5,-234.264"/>
</g>
<!-- Node3 -->
<g id="node3" class="node"><title>Node3</title>
<g id="a_node3"><a xlink:href="class_f_b_library_1_1_core_1_1_base_entity.html" target="_top" xlink:title="{BaseEntity\n|+ IsAlive\l+ InDestruction\l+ DestructionTime\l+ Position\l+ PositionX\l+ PositionY\l+ CellPositionX\l+ CellPositionY\l+ CellPosition\l+ Dimension\l|+ Update()\l+ ChangePosition()\l+ ChangePosition()\l+ ChangePosition()\l+ Destroy()\l+ Remove()\l# BaseEntity()\l# BaseEntity()\l}">
<polygon fill="white" stroke="black" points="149,-360.5 149,-593.5 249,-593.5 249,-360.5 149,-360.5"/>
<text text-anchor="middle" x="199" y="-581.5" font-family="Helvetica,sans-Serif" font-size="10.00">BaseEntity</text>
<polyline fill="none" stroke="black" points="149,-574.5 249,-574.5 "/>
<text text-anchor="start" x="157" y="-562.5" font-family="Helvetica,sans-Serif" font-size="10.00">+ IsAlive</text>
<text text-anchor="start" x="157" y="-551.5" font-family="Helvetica,sans-Serif" font-size="10.00">+ InDestruction</text>
<text text-anchor="start" x="157" y="-540.5" font-family="Helvetica,sans-Serif" font-size="10.00">+ DestructionTime</text>
<text text-anchor="start" x="157" y="-529.5" font-family="Helvetica,sans-Serif" font-size="10.00">+ Position</text>
<text text-anchor="start" x="157" y="-518.5" font-family="Helvetica,sans-Serif" font-size="10.00">+ PositionX</text>
<text text-anchor="start" x="157" y="-507.5" font-family="Helvetica,sans-Serif" font-size="10.00">+ PositionY</text>
<text text-anchor="start" x="157" y="-496.5" font-family="Helvetica,sans-Serif" font-size="10.00">+ CellPositionX</text>
<text text-anchor="start" x="157" y="-485.5" font-family="Helvetica,sans-Serif" font-size="10.00">+ CellPositionY</text>
<text text-anchor="start" x="157" y="-474.5" font-family="Helvetica,sans-Serif" font-size="10.00">+ CellPosition</text>
<text text-anchor="start" x="157" y="-463.5" font-family="Helvetica,sans-Serif" font-size="10.00">+ Dimension</text>
<polyline fill="none" stroke="black" points="149,-456.5 249,-456.5 "/>
<text text-anchor="start" x="157" y="-444.5" font-family="Helvetica,sans-Serif" font-size="10.00">+ Update()</text>
<text text-anchor="start" x="157" y="-433.5" font-family="Helvetica,sans-Serif" font-size="10.00">+ ChangePosition()</text>
<text text-anchor="start" x="157" y="-422.5" font-family="Helvetica,sans-Serif" font-size="10.00">+ ChangePosition()</text>
<text text-anchor="start" x="157" y="-411.5" font-family="Helvetica,sans-Serif" font-size="10.00">+ ChangePosition()</text>
<text text-anchor="start" x="157" y="-400.5" font-family="Helvetica,sans-Serif" font-size="10.00">+ Destroy()</text>
<text text-anchor="start" x="157" y="-389.5" font-family="Helvetica,sans-Serif" font-size="10.00">+ Remove()</text>
<text text-anchor="start" x="157" y="-378.5" font-family="Helvetica,sans-Serif" font-size="10.00"># BaseEntity()</text>
<text text-anchor="start" x="157" y="-367.5" font-family="Helvetica,sans-Serif" font-size="10.00"># BaseEntity()</text>
</a>
</g>
</g>
<!-- Node3&#45;&gt;Node2 -->
<g id="edge2" class="edge"><title>Node3&#45;&gt;Node2</title>
<path fill="none" stroke="midnightblue" d="M199,-350.405C199,-340.866 199,-331.774 199,-323.565"/>
<polygon fill="none" stroke="midnightblue" points="195.5,-350.488 199,-360.488 202.5,-350.488 195.5,-350.488"/>
</g>
<!-- Node4 -->
<g id="node4" class="node"><title>Node4</title>
<g id="a_node4"><a xlink:href="interface_f_b_library_1_1_core_1_1_i_entity.html" target="_top" xlink:title="{IEntity\n||+ Destroy()\l+ Remove()\l}">
<polygon fill="white" stroke="black" points="166,-631 166,-699 232,-699 232,-631 166,-631"/>
<text text-anchor="middle" x="199" y="-687" font-family="Helvetica,sans-Serif" font-size="10.00">IEntity</text>
<polyline fill="none" stroke="black" points="166,-680 232,-680 "/>
<text text-anchor="middle" x="199" y="-668" font-family="Helvetica,sans-Serif" font-size="10.00"> </text>
<polyline fill="none" stroke="black" points="166,-661 232,-661 "/>
<text text-anchor="start" x="174" y="-649" font-family="Helvetica,sans-Serif" font-size="10.00">+ Destroy()</text>
<text text-anchor="start" x="174" y="-638" font-family="Helvetica,sans-Serif" font-size="10.00">+ Remove()</text>
</a>
</g>
</g>
<!-- Node4&#45;&gt;Node3 -->
<g id="edge3" class="edge"><title>Node4&#45;&gt;Node3</title>
<path fill="none" stroke="midnightblue" d="M199,-620.601C199,-612.247 199,-603.139 199,-593.698"/>
<polygon fill="none" stroke="midnightblue" points="195.5,-620.747 199,-630.747 202.5,-620.747 195.5,-620.747"/>
</g>
</g>
</svg>
