<?xml version="1.0" encoding="UTF-8" standalone="no"?>
<!DOCTYPE svg PUBLIC "-//W3C//DTD SVG 1.1//EN"
 "http://www.w3.org/Graphics/SVG/1.1/DTD/svg11.dtd">
<!-- Generated by graphviz version 2.34.0 (20130907.0111)
 -->
<!-- Title: FBClient.Screens.MenuScreens.SinglePlayerGameModeMenuScreen Pages: 1 -->
<svg width="184pt" height="264pt"
 viewBox="0.00 0.00 184.00 264.00" xmlns="http://www.w3.org/2000/svg" xmlns:xlink="http://www.w3.org/1999/xlink">
<g id="graph0" class="graph" transform="scale(1 1) rotate(0) translate(4 260)">
<title>FBClient.Screens.MenuScreens.SinglePlayerGameModeMenuScreen</title>
<polygon fill="white" stroke="white" points="-4,4 -4,-260 180,-260 180,4 -4,4"/>
<!-- Node1 -->
<g id="node1" class="node"><title>Node1</title>
<polygon fill="#bfbfbf" stroke="black" points="0,-1 0,-31 176,-31 176,-1 0,-1"/>
<text text-anchor="start" x="8" y="-19" font-family="Helvetica,sans-Serif" font-size="10.00">FBClient.Screens.MenuScreens.</text>
<text text-anchor="middle" x="88" y="-8" font-family="Helvetica,sans-Serif" font-size="10.00">SinglePlayerGameModeMenuScreen</text>
</g>
<!-- Node2 -->
<g id="node2" class="node"><title>Node2</title>
<g id="a_node2"><a xlink:href="class_f_b_client_1_1_screens_1_1_base_menu_screen.html" target="_top" xlink:title="BaseMenuScreen">
<polygon fill="white" stroke="black" points="41,-68.5 41,-87.5 135,-87.5 135,-68.5 41,-68.5"/>
<text text-anchor="middle" x="88" y="-75.5" font-family="Helvetica,sans-Serif" font-size="10.00">BaseMenuScreen</text>
</a>
</g>
</g>
<!-- Node2&#45;&gt;Node1 -->
<g id="edge1" class="edge"><title>Node2&#45;&gt;Node1</title>
<path fill="none" stroke="midnightblue" d="M88,-58.3707C88,-49.5849 88,-39.2721 88,-31.1408"/>
<polygon fill="midnightblue" stroke="midnightblue" points="84.5001,-58.4034 88,-68.4035 91.5001,-58.4035 84.5001,-58.4034"/>
</g>
<!-- Node3 -->
<g id="node3" class="node"><title>Node3</title>
<g id="a_node3"><a xlink:href="class_f_b_client_1_1_screens_1_1_base_game_state.html" target="_top" xlink:title="BaseGameState">
<polygon fill="white" stroke="black" points="43.5,-124.5 43.5,-143.5 132.5,-143.5 132.5,-124.5 43.5,-124.5"/>
<text text-anchor="middle" x="88" y="-131.5" font-family="Helvetica,sans-Serif" font-size="10.00">BaseGameState</text>
</a>
</g>
</g>
<!-- Node3&#45;&gt;Node2 -->
<g id="edge2" class="edge"><title>Node3&#45;&gt;Node2</title>
<path fill="none" stroke="midnightblue" d="M88,-113.805C88,-104.91 88,-94.7798 88,-87.7511"/>
<polygon fill="midnightblue" stroke="midnightblue" points="84.5001,-114.083 88,-124.083 91.5001,-114.083 84.5001,-114.083"/>
</g>
<!-- Node4 -->
<g id="node4" class="node"><title>Node4</title>
<g id="a_node4"><a xlink:href="class_f_b_client_1_1_controls_1_1_game_state.html" target="_top" xlink:title="GameState">
<polygon fill="white" stroke="black" points="55,-180.5 55,-199.5 121,-199.5 121,-180.5 55,-180.5"/>
<text text-anchor="middle" x="88" y="-187.5" font-family="Helvetica,sans-Serif" font-size="10.00">GameState</text>
</a>
</g>
</g>
<!-- Node4&#45;&gt;Node3 -->
<g id="edge3" class="edge"><title>Node4&#45;&gt;Node3</title>
<path fill="none" stroke="midnightblue" d="M88,-169.805C88,-160.91 88,-150.78 88,-143.751"/>
<polygon fill="midnightblue" stroke="midnightblue" points="84.5001,-170.083 88,-180.083 91.5001,-170.083 84.5001,-170.083"/>
</g>
<!-- Node5 -->
<g id="node5" class="node"><title>Node5</title>
<polygon fill="white" stroke="#bfbfbf" points="22,-236.5 22,-255.5 154,-255.5 154,-236.5 22,-236.5"/>
<text text-anchor="middle" x="88" y="-243.5" font-family="Helvetica,sans-Serif" font-size="10.00">DrawableGameComponent</text>
</g>
<!-- Node5&#45;&gt;Node4 -->
<g id="edge4" class="edge"><title>Node5&#45;&gt;Node4</title>
<path fill="none" stroke="midnightblue" d="M88,-225.805C88,-216.91 88,-206.78 88,-199.751"/>
<polygon fill="midnightblue" stroke="midnightblue" points="84.5001,-226.083 88,-236.083 91.5001,-226.083 84.5001,-226.083"/>
</g>
</g>
</svg>
