<?xml version="1.0" encoding="UTF-8" standalone="no"?>
<!DOCTYPE svg PUBLIC "-//W3C//DTD SVG 1.1//EN"
 "http://www.w3.org/Graphics/SVG/1.1/DTD/svg11.dtd">
<!-- Generated by graphviz version 2.34.0 (20130907.0111)
 -->
<!-- Title: FBLibrary.Core.BaseEntities.BaseMap Pages: 1 -->
<svg width="320pt" height="414pt"
 viewBox="0.00 0.00 320.00 414.00" xmlns="http://www.w3.org/2000/svg" xmlns:xlink="http://www.w3.org/1999/xlink">
<g id="graph0" class="graph" transform="scale(1 1) rotate(0) translate(4 410)">
<title>FBLibrary.Core.BaseEntities.BaseMap</title>
<polygon fill="white" stroke="white" points="-4,4 -4,-410 316,-410 316,4 -4,4"/>
<!-- Node1 -->
<g id="node1" class="node"><title>Node1</title>
<polygon fill="#bfbfbf" stroke="black" points="77.5,-161 77.5,-405 220.5,-405 220.5,-161 77.5,-161"/>
<text text-anchor="start" x="85.5" y="-393" font-family="Helvetica,sans-Serif" font-size="10.00">FBLibrary.Core.BaseEntities.</text>
<text text-anchor="middle" x="149" y="-382" font-family="Helvetica,sans-Serif" font-size="10.00">BaseMap</text>
<polyline fill="none" stroke="black" points="77.5,-375 220.5,-375 "/>
<text text-anchor="start" x="85.5" y="-363" font-family="Helvetica,sans-Serif" font-size="10.00">+ Name</text>
<text text-anchor="start" x="85.5" y="-352" font-family="Helvetica,sans-Serif" font-size="10.00">+ Loaded</text>
<text text-anchor="start" x="85.5" y="-341" font-family="Helvetica,sans-Serif" font-size="10.00">+ Size</text>
<text text-anchor="start" x="85.5" y="-330" font-family="Helvetica,sans-Serif" font-size="10.00">+ Board</text>
<text text-anchor="start" x="85.5" y="-319" font-family="Helvetica,sans-Serif" font-size="10.00">+ CollisionLayer</text>
<text text-anchor="start" x="85.5" y="-308" font-family="Helvetica,sans-Serif" font-size="10.00">+ PlayerSpawnPoints</text>
<text text-anchor="start" x="85.5" y="-297" font-family="Helvetica,sans-Serif" font-size="10.00">+ PlayerNumber</text>
<polyline fill="none" stroke="black" points="77.5,-290 220.5,-290 "/>
<text text-anchor="start" x="85.5" y="-278" font-family="Helvetica,sans-Serif" font-size="10.00">+ Reset()</text>
<text text-anchor="start" x="85.5" y="-267" font-family="Helvetica,sans-Serif" font-size="10.00">+ Parse()</text>
<text text-anchor="start" x="85.5" y="-256" font-family="Helvetica,sans-Serif" font-size="10.00">+ FindEmptyCells()</text>
<text text-anchor="start" x="85.5" y="-245" font-family="Helvetica,sans-Serif" font-size="10.00">+ GetMd5()</text>
<text text-anchor="start" x="85.5" y="-234" font-family="Helvetica,sans-Serif" font-size="10.00">+ DisplayBoard()</text>
<text text-anchor="start" x="85.5" y="-223" font-family="Helvetica,sans-Serif" font-size="10.00">+ DisplayCollisionLayer()</text>
<text text-anchor="start" x="85.5" y="-212" font-family="Helvetica,sans-Serif" font-size="10.00"># BaseMap()</text>
<text text-anchor="start" x="85.5" y="-201" font-family="Helvetica,sans-Serif" font-size="10.00"># AddUnbreakableWall()</text>
<text text-anchor="start" x="85.5" y="-190" font-family="Helvetica,sans-Serif" font-size="10.00"># AddUnbreakableWall()</text>
<text text-anchor="start" x="85.5" y="-179" font-family="Helvetica,sans-Serif" font-size="10.00"># AddEdgeWall()</text>
<text text-anchor="start" x="85.5" y="-168" font-family="Helvetica,sans-Serif" font-size="10.00"># AddEdgeWall()</text>
</g>
<!-- Node2 -->
<g id="node2" class="node"><title>Node2</title>
<g id="a_node2"><a xlink:href="class_f_b_client_1_1_world_engine_1_1_map.html" target="_top" xlink:title="{FBClient.WorldEngine.Map\n|+ TileMap\l+ TeleporterList\l|+ Map()\l+ LoadContent()\l+ Update()\l+ Draw()\l# AddUnbreakableWall()\l# AddEdgeWall()\l}">
<polygon fill="white" stroke="black" points="0,-0.5 0,-123.5 134,-123.5 134,-0.5 0,-0.5"/>
<text text-anchor="middle" x="67" y="-111.5" font-family="Helvetica,sans-Serif" font-size="10.00">FBClient.WorldEngine.Map</text>
<polyline fill="none" stroke="black" points="0,-104.5 134,-104.5 "/>
<text text-anchor="start" x="8" y="-92.5" font-family="Helvetica,sans-Serif" font-size="10.00">+ TileMap</text>
<text text-anchor="start" x="8" y="-81.5" font-family="Helvetica,sans-Serif" font-size="10.00">+ TeleporterList</text>
<polyline fill="none" stroke="black" points="0,-74.5 134,-74.5 "/>
<text text-anchor="start" x="8" y="-62.5" font-family="Helvetica,sans-Serif" font-size="10.00">+ Map()</text>
<text text-anchor="start" x="8" y="-51.5" font-family="Helvetica,sans-Serif" font-size="10.00">+ LoadContent()</text>
<text text-anchor="start" x="8" y="-40.5" font-family="Helvetica,sans-Serif" font-size="10.00">+ Update()</text>
<text text-anchor="start" x="8" y="-29.5" font-family="Helvetica,sans-Serif" font-size="10.00">+ Draw()</text>
<text text-anchor="start" x="8" y="-18.5" font-family="Helvetica,sans-Serif" font-size="10.00"># AddUnbreakableWall()</text>
<text text-anchor="start" x="8" y="-7.5" font-family="Helvetica,sans-Serif" font-size="10.00"># AddEdgeWall()</text>
</a>
</g>
</g>
<!-- Node1&#45;&gt;Node2 -->
<g id="edge1" class="edge"><title>Node1&#45;&gt;Node2</title>
<path fill="none" stroke="midnightblue" d="M100.091,-151.377C96.5222,-141.846 93.0367,-132.537 89.748,-123.754"/>
<polygon fill="none" stroke="midnightblue" points="96.8985,-152.832 103.683,-160.97 103.454,-150.378 96.8985,-152.832"/>
</g>
<!-- Node3 -->
<g id="node3" class="node"><title>Node3</title>
<g id="a_node3"><a xlink:href="class_f_b_server_1_1_core_1_1_world_engine_1_1_map.html" target="_top" xlink:title="{FBServer.Core.WorldEngine.Map\n||+ Map()\l# AddUnbreakableWall()\l# AddEdgeWall()\l}">
<polygon fill="white" stroke="black" points="152,-22.5 152,-101.5 312,-101.5 312,-22.5 152,-22.5"/>
<text text-anchor="middle" x="232" y="-89.5" font-family="Helvetica,sans-Serif" font-size="10.00">FBServer.Core.WorldEngine.Map</text>
<polyline fill="none" stroke="black" points="152,-82.5 312,-82.5 "/>
<text text-anchor="middle" x="232" y="-70.5" font-family="Helvetica,sans-Serif" font-size="10.00"> </text>
<polyline fill="none" stroke="black" points="152,-63.5 312,-63.5 "/>
<text text-anchor="start" x="160" y="-51.5" font-family="Helvetica,sans-Serif" font-size="10.00">+ Map()</text>
<text text-anchor="start" x="160" y="-40.5" font-family="Helvetica,sans-Serif" font-size="10.00"># AddUnbreakableWall()</text>
<text text-anchor="start" x="160" y="-29.5" font-family="Helvetica,sans-Serif" font-size="10.00"># AddEdgeWall()</text>
</a>
</g>
</g>
<!-- Node1&#45;&gt;Node3 -->
<g id="edge2" class="edge"><title>Node1&#45;&gt;Node3</title>
<path fill="none" stroke="midnightblue" d="M198.457,-151.505C205.273,-133.521 211.791,-116.322 217.239,-101.948"/>
<polygon fill="none" stroke="midnightblue" points="195.141,-150.379 194.87,-160.97 201.687,-152.86 195.141,-150.379"/>
</g>
</g>
</svg>
