<?xml version="1.0" encoding="UTF-8" standalone="no"?>
<!DOCTYPE svg PUBLIC "-//W3C//DTD SVG 1.1//EN"
 "http://www.w3.org/Graphics/SVG/1.1/DTD/svg11.dtd">
<!-- Generated by graphviz version 2.34.0 (20130907.0111)
 -->
<!-- Title: FBClient.Controls.ControlManager Pages: 1 -->
<svg width="134pt" height="248pt"
 viewBox="0.00 0.00 134.00 248.00" xmlns="http://www.w3.org/2000/svg" xmlns:xlink="http://www.w3.org/1999/xlink">
<g id="graph0" class="graph" transform="scale(1 1) rotate(0) translate(4 244)">
<title>FBClient.Controls.ControlManager</title>
<polygon fill="white" stroke="white" points="-4,4 -4,-244 130,-244 130,4 -4,4"/>
<!-- Node1 -->
<g id="node1" class="node"><title>Node1</title>
<polygon fill="#bfbfbf" stroke="black" points="-0.5,-0.5 -0.5,-145.5 126.5,-145.5 126.5,-0.5 -0.5,-0.5"/>
<text text-anchor="start" x="7.5" y="-133.5" font-family="Helvetica,sans-Serif" font-size="10.00">FBClient.Controls.Control</text>
<text text-anchor="middle" x="63" y="-122.5" font-family="Helvetica,sans-Serif" font-size="10.00">Manager</text>
<polyline fill="none" stroke="black" points="-0.5,-115.5 126.5,-115.5 "/>
<text text-anchor="start" x="7.5" y="-103.5" font-family="Helvetica,sans-Serif" font-size="10.00">+ SpriteFont</text>
<text text-anchor="start" x="7.5" y="-92.5" font-family="Helvetica,sans-Serif" font-size="10.00">+ AcceptInput</text>
<polyline fill="none" stroke="black" points="-0.5,-85.5 126.5,-85.5 "/>
<text text-anchor="start" x="7.5" y="-73.5" font-family="Helvetica,sans-Serif" font-size="10.00">+ ControlManager()</text>
<text text-anchor="start" x="7.5" y="-62.5" font-family="Helvetica,sans-Serif" font-size="10.00">+ ControlManager()</text>
<text text-anchor="start" x="7.5" y="-51.5" font-family="Helvetica,sans-Serif" font-size="10.00">+ ControlManager()</text>
<text text-anchor="start" x="7.5" y="-40.5" font-family="Helvetica,sans-Serif" font-size="10.00">+ Update()</text>
<text text-anchor="start" x="7.5" y="-29.5" font-family="Helvetica,sans-Serif" font-size="10.00">+ Draw()</text>
<text text-anchor="start" x="7.5" y="-18.5" font-family="Helvetica,sans-Serif" font-size="10.00">+ NextControl()</text>
<text text-anchor="start" x="7.5" y="-7.5" font-family="Helvetica,sans-Serif" font-size="10.00">+ PreviousControl()</text>
</g>
<!-- Node2 -->
<g id="node2" class="node"><title>Node2</title>
<polygon fill="white" stroke="#bfbfbf" points="22.5,-182.5 22.5,-239.5 103.5,-239.5 103.5,-182.5 22.5,-182.5"/>
<text text-anchor="middle" x="63" y="-227.5" font-family="Helvetica,sans-Serif" font-size="10.00">List&lt; Control &gt;</text>
<polyline fill="none" stroke="#bfbfbf" points="22.5,-220.5 103.5,-220.5 "/>
<text text-anchor="middle" x="63" y="-208.5" font-family="Helvetica,sans-Serif" font-size="10.00"> </text>
<polyline fill="none" stroke="#bfbfbf" points="22.5,-201.5 103.5,-201.5 "/>
<text text-anchor="middle" x="63" y="-189.5" font-family="Helvetica,sans-Serif" font-size="10.00"> </text>
</g>
<!-- Node2&#45;&gt;Node1 -->
<g id="edge1" class="edge"><title>Node2&#45;&gt;Node1</title>
<path fill="none" stroke="midnightblue" d="M63,-172.356C63,-163.999 63,-154.872 63,-145.656"/>
<polygon fill="none" stroke="midnightblue" points="59.5001,-172.478 63,-182.478 66.5001,-172.478 59.5001,-172.478"/>
</g>
</g>
</svg>
