<?xml version="1.0" encoding="UTF-8" standalone="no"?>
<!DOCTYPE svg PUBLIC "-//W3C//DTD SVG 1.1//EN"
 "http://www.w3.org/Graphics/SVG/1.1/DTD/svg11.dtd">
<!-- Generated by graphviz version 2.34.0 (20130907.0111)
 -->
<!-- Title: FBClient.Screens.GameScreens.BaseGamePlayScreen Pages: 1 -->
<svg width="1128pt" height="239pt"
 viewBox="0.00 0.00 1128.00 239.00" xmlns="http://www.w3.org/2000/svg" xmlns:xlink="http://www.w3.org/1999/xlink">
<g id="graph0" class="graph" transform="scale(1 1) rotate(0) translate(4 235)">
<title>FBClient.Screens.GameScreens.BaseGamePlayScreen</title>
<polygon fill="white" stroke="white" points="-4,4 -4,-235 1124,-235 1124,4 -4,4"/>
<!-- Node1 -->
<g id="node1" class="node"><title>Node1</title>
<polygon fill="#bfbfbf" stroke="black" points="958.5,-55 958.5,-85 1119.5,-85 1119.5,-55 958.5,-55"/>
<text text-anchor="start" x="966.5" y="-73" font-family="Helvetica,sans-Serif" font-size="10.00">FBClient.Screens.GameScreens.</text>
<text text-anchor="middle" x="1039" y="-62" font-family="Helvetica,sans-Serif" font-size="10.00">BaseGamePlayScreen</text>
</g>
<!-- Node2 -->
<g id="node2" class="node"><title>Node2</title>
<g id="a_node2"><a xlink:href="class_f_b_client_1_1_screens_1_1_base_game_state.html" target="_top" xlink:title="BaseGameState">
<polygon fill="white" stroke="black" points="710.5,-123.5 710.5,-142.5 799.5,-142.5 799.5,-123.5 710.5,-123.5"/>
<text text-anchor="middle" x="755" y="-130.5" font-family="Helvetica,sans-Serif" font-size="10.00">BaseGameState</text>
</a>
</g>
</g>
<!-- Node2&#45;&gt;Node1 -->
<g id="edge1" class="edge"><title>Node2&#45;&gt;Node1</title>
<path fill="none" stroke="midnightblue" d="M809.76,-124.094C846.597,-117.669 896.477,-108.335 940,-98 955.925,-94.2186 973.136,-89.5142 988.625,-85.0476"/>
<polygon fill="midnightblue" stroke="midnightblue" points="808.99,-120.675 799.732,-125.827 810.182,-127.573 808.99,-120.675"/>
</g>
<!-- Node3 -->
<g id="node3" class="node"><title>Node3</title>
<g id="a_node3"><a xlink:href="class_f_b_client_1_1_controls_1_1_game_state.html" target="_top" xlink:title="GameState">
<polygon fill="white" stroke="black" points="469,-167.5 469,-186.5 535,-186.5 535,-167.5 469,-167.5"/>
<text text-anchor="middle" x="502" y="-174.5" font-family="Helvetica,sans-Serif" font-size="10.00">GameState</text>
</a>
</g>
</g>
<!-- Node3&#45;&gt;Node2 -->
<g id="edge2" class="edge"><title>Node3&#45;&gt;Node2</title>
<path fill="none" stroke="midnightblue" d="M544.953,-169.646C590.788,-161.611 663.865,-148.801 710.357,-140.651"/>
<polygon fill="midnightblue" stroke="midnightblue" points="544.29,-166.209 535.044,-171.383 545.498,-173.103 544.29,-166.209"/>
</g>
<!-- Node4 -->
<g id="node4" class="node"><title>Node4</title>
<polygon fill="white" stroke="#bfbfbf" points="187,-211.5 187,-230.5 319,-230.5 319,-211.5 187,-211.5"/>
<text text-anchor="middle" x="253" y="-218.5" font-family="Helvetica,sans-Serif" font-size="10.00">DrawableGameComponent</text>
</g>
<!-- Node4&#45;&gt;Node3 -->
<g id="edge3" class="edge"><title>Node4&#45;&gt;Node3</title>
<path fill="none" stroke="midnightblue" d="M319.466,-209.721C350.026,-204.415 386.887,-197.958 420,-192 436.046,-189.113 453.864,-185.822 468.693,-183.06"/>
<polygon fill="midnightblue" stroke="midnightblue" points="318.613,-206.317 309.358,-211.474 319.809,-213.214 318.613,-206.317"/>
</g>
<!-- Node5 -->
<g id="node5" class="node"><title>Node5</title>
<g id="a_node5"><a xlink:href="class_f_b_client_1_1_controls_1_1_game_state_manager.html" target="_top" xlink:title="FBClient.Controls.GameState\lManager">
<polygon fill="white" stroke="black" points="180,-162 180,-192 326,-192 326,-162 180,-162"/>
<text text-anchor="start" x="188" y="-180" font-family="Helvetica,sans-Serif" font-size="10.00">FBClient.Controls.GameState</text>
<text text-anchor="middle" x="253" y="-169" font-family="Helvetica,sans-Serif" font-size="10.00">Manager</text>
</a>
</g>
</g>
<!-- Node5&#45;&gt;Node3 -->
<g id="edge4" class="edge"><title>Node5&#45;&gt;Node3</title>
<path fill="none" stroke="#9a32cd" stroke-dasharray="5,2" d="M336.248,-177C381.633,-177 435.415,-177 468.879,-177"/>
<polygon fill="#9a32cd" stroke="#9a32cd" points="336.107,-173.5 326.107,-177 336.107,-180.5 336.107,-173.5"/>
<text text-anchor="middle" x="382" y="-180" font-family="Helvetica,sans-Serif" font-size="10.00"> StateManager</text>
</g>
<!-- Node6 -->
<g id="node6" class="node"><title>Node6</title>
<polygon fill="white" stroke="#bfbfbf" points="11,-167.5 11,-186.5 103,-186.5 103,-167.5 11,-167.5"/>
<text text-anchor="middle" x="57" y="-174.5" font-family="Helvetica,sans-Serif" font-size="10.00">GameComponent</text>
</g>
<!-- Node6&#45;&gt;Node5 -->
<g id="edge5" class="edge"><title>Node6&#45;&gt;Node5</title>
<path fill="none" stroke="midnightblue" d="M113.652,-177C134.277,-177 157.97,-177 179.853,-177"/>
<polygon fill="midnightblue" stroke="midnightblue" points="113.484,-173.5 103.484,-177 113.484,-180.5 113.484,-173.5"/>
</g>
<!-- Node7 -->
<g id="node7" class="node"><title>Node7</title>
<g id="a_node7"><a xlink:href="class_f_b_client_1_1_controls_1_1_control_manager.html" target="_top" xlink:title="FBClient.Controls.Control\lManager">
<polygon fill="white" stroke="black" points="438.5,-118 438.5,-148 565.5,-148 565.5,-118 438.5,-118"/>
<text text-anchor="start" x="446.5" y="-136" font-family="Helvetica,sans-Serif" font-size="10.00">FBClient.Controls.Control</text>
<text text-anchor="middle" x="502" y="-125" font-family="Helvetica,sans-Serif" font-size="10.00">Manager</text>
</a>
</g>
</g>
<!-- Node7&#45;&gt;Node2 -->
<g id="edge6" class="edge"><title>Node7&#45;&gt;Node2</title>
<path fill="none" stroke="#9a32cd" stroke-dasharray="5,2" d="M575.939,-133C619.434,-133 673.208,-133 710.214,-133"/>
<polygon fill="#9a32cd" stroke="#9a32cd" points="575.69,-129.5 565.69,-133 575.69,-136.5 575.69,-129.5"/>
<text text-anchor="middle" x="620" y="-136" font-family="Helvetica,sans-Serif" font-size="10.00"> ControlManager</text>
</g>
<!-- Node8 -->
<g id="node8" class="node"><title>Node8</title>
<polygon fill="white" stroke="#bfbfbf" points="212.5,-123.5 212.5,-142.5 293.5,-142.5 293.5,-123.5 212.5,-123.5"/>
<text text-anchor="middle" x="253" y="-130.5" font-family="Helvetica,sans-Serif" font-size="10.00">List&lt; Control &gt;</text>
</g>
<!-- Node8&#45;&gt;Node7 -->
<g id="edge7" class="edge"><title>Node8&#45;&gt;Node7</title>
<path fill="none" stroke="midnightblue" d="M303.689,-133C342.451,-133 396.534,-133 438.277,-133"/>
<polygon fill="midnightblue" stroke="midnightblue" points="303.685,-129.5 293.685,-133 303.685,-136.5 303.685,-129.5"/>
</g>
<!-- Node9 -->
<g id="node9" class="node"><title>Node9</title>
<g id="a_node9"><a xlink:href="class_f_b_client_1_1_core_1_1_game_manager.html" target="_top" xlink:title="This class is used to regroup common behaviors between network and local game logic. ">
<polygon fill="white" stroke="black" points="683,-79.5 683,-98.5 827,-98.5 827,-79.5 683,-79.5"/>
<text text-anchor="middle" x="755" y="-86.5" font-family="Helvetica,sans-Serif" font-size="10.00">FBClient.Core.GameManager</text>
</a>
</g>
</g>
<!-- Node9&#45;&gt;Node1 -->
<g id="edge8" class="edge"><title>Node9&#45;&gt;Node1</title>
<path fill="none" stroke="#9a32cd" stroke-dasharray="5,2" d="M837.19,-83.5297C875.279,-80.9634 920.517,-77.9156 958.403,-75.3629"/>
<polygon fill="#9a32cd" stroke="#9a32cd" points="836.903,-80.0411 827.161,-84.2055 837.373,-87.0253 836.903,-80.0411"/>
<text text-anchor="middle" x="897" y="-86" font-family="Helvetica,sans-Serif" font-size="10.00"> GameManager</text>
</g>
<!-- Node10 -->
<g id="node10" class="node"><title>Node10</title>
<g id="a_node10"><a xlink:href="class_f_b_library_1_1_core_1_1_base_game_manager.html" target="_top" xlink:title="BaseGameManager">
<polygon fill="white" stroke="black" points="450.5,-79.5 450.5,-98.5 553.5,-98.5 553.5,-79.5 450.5,-79.5"/>
<text text-anchor="middle" x="502" y="-86.5" font-family="Helvetica,sans-Serif" font-size="10.00">BaseGameManager</text>
</a>
</g>
</g>
<!-- Node10&#45;&gt;Node9 -->
<g id="edge9" class="edge"><title>Node10&#45;&gt;Node9</title>
<path fill="none" stroke="midnightblue" d="M564.108,-89C599.944,-89 645.388,-89 682.834,-89"/>
<polygon fill="midnightblue" stroke="midnightblue" points="563.794,-85.5001 553.794,-89 563.794,-92.5001 563.794,-85.5001"/>
</g>
<!-- Node11 -->
<g id="node11" class="node"><title>Node11</title>
<g id="a_node11"><a xlink:href="class_f_b_library_1_1_core_1_1_base_entities_1_1_base_map.html" target="_top" xlink:title="FBLibrary.Core.BaseEntities.\lBaseMap">
<polygon fill="white" stroke="black" points="181.5,-74 181.5,-104 324.5,-104 324.5,-74 181.5,-74"/>
<text text-anchor="start" x="189.5" y="-92" font-family="Helvetica,sans-Serif" font-size="10.00">FBLibrary.Core.BaseEntities.</text>
<text text-anchor="middle" x="253" y="-81" font-family="Helvetica,sans-Serif" font-size="10.00">BaseMap</text>
</a>
</g>
</g>
<!-- Node11&#45;&gt;Node10 -->
<g id="edge10" class="edge"><title>Node11&#45;&gt;Node10</title>
<path fill="none" stroke="#9a32cd" stroke-dasharray="5,2" d="M334.81,-89C372.818,-89 416.976,-89 450.218,-89"/>
<polygon fill="#9a32cd" stroke="#9a32cd" points="334.78,-85.5001 324.78,-89 334.78,-92.5001 334.78,-85.5001"/>
<text text-anchor="middle" x="382" y="-92" font-family="Helvetica,sans-Serif" font-size="10.00"> BaseCurrentMap</text>
</g>
<!-- Node12 -->
<g id="node12" class="node"><title>Node12</title>
<g id="a_node12"><a xlink:href="interface_f_b_library_1_1_core_1_1_i_entity.html" target="_top" xlink:title="FBLibrary.Core.IEntity">
<polygon fill="white" stroke="black" points="0.5,-79.5 0.5,-98.5 113.5,-98.5 113.5,-79.5 0.5,-79.5"/>
<text text-anchor="middle" x="57" y="-86.5" font-family="Helvetica,sans-Serif" font-size="10.00">FBLibrary.Core.IEntity</text>
</a>
</g>
</g>
<!-- Node12&#45;&gt;Node11 -->
<g id="edge11" class="edge"><title>Node12&#45;&gt;Node11</title>
<path fill="none" stroke="#9a32cd" stroke-dasharray="5,2" d="M123.674,-89C142.173,-89 162.373,-89 181.16,-89"/>
<polygon fill="#9a32cd" stroke="#9a32cd" points="123.593,-85.5001 113.593,-89 123.593,-92.5001 123.593,-85.5001"/>
<text text-anchor="middle" x="147" y="-92" font-family="Helvetica,sans-Serif" font-size="10.00"> Board</text>
</g>
<!-- Node13 -->
<g id="node13" class="node"><title>Node13</title>
<g id="a_node13"><a xlink:href="class_player_collection.html" target="_top" xlink:title="PlayerCollection">
<polygon fill="white" stroke="black" points="458.5,-38.5 458.5,-57.5 545.5,-57.5 545.5,-38.5 458.5,-38.5"/>
<text text-anchor="middle" x="502" y="-45.5" font-family="Helvetica,sans-Serif" font-size="10.00">PlayerCollection</text>
</a>
</g>
</g>
<!-- Node13&#45;&gt;Node9 -->
<g id="edge12" class="edge"><title>Node13&#45;&gt;Node9</title>
<path fill="none" stroke="#9a32cd" stroke-dasharray="5,2" d="M555.627,-56.5964C596.564,-63.2834 653.331,-72.556 695.654,-79.4693"/>
<polygon fill="#9a32cd" stroke="#9a32cd" points="556.012,-53.1131 545.579,-54.9551 554.884,-60.0215 556.012,-53.1131"/>
<text text-anchor="middle" x="620" y="-76" font-family="Helvetica,sans-Serif" font-size="10.00"> Players</text>
</g>
<!-- Node14 -->
<g id="node14" class="node"><title>Node14</title>
<polygon fill="white" stroke="#bfbfbf" points="214,-35.5 214,-54.5 292,-54.5 292,-35.5 214,-35.5"/>
<text text-anchor="middle" x="253" y="-42.5" font-family="Helvetica,sans-Serif" font-size="10.00">List&lt; Player &gt;</text>
</g>
<!-- Node14&#45;&gt;Node13 -->
<g id="edge13" class="edge"><title>Node14&#45;&gt;Node13</title>
<path fill="none" stroke="midnightblue" d="M302.235,-45.5858C347.605,-46.1369 414.884,-46.9541 458.341,-47.4819"/>
<polygon fill="midnightblue" stroke="midnightblue" points="302.094,-42.084 292.052,-45.4622 302.009,-49.0835 302.094,-42.084"/>
</g>
<!-- Node15 -->
<g id="node15" class="node"><title>Node15</title>
<g id="a_node15"><a xlink:href="class_f_b_client_1_1_g_u_i_1_1_window_box.html" target="_top" xlink:title="FBClient.GUI.WindowBox">
<polygon fill="white" stroke="black" points="691,-38.5 691,-57.5 819,-57.5 819,-38.5 691,-38.5"/>
<text text-anchor="middle" x="755" y="-45.5" font-family="Helvetica,sans-Serif" font-size="10.00">FBClient.GUI.WindowBox</text>
</a>
</g>
</g>
<!-- Node15&#45;&gt;Node1 -->
<g id="edge14" class="edge"><title>Node15&#45;&gt;Node1</title>
<path fill="none" stroke="#9a32cd" stroke-dasharray="5,2" d="M829.43,-46.2586C863.192,-46.2111 903.715,-47.2163 940,-51 949.308,-51.9706 959.05,-53.3772 968.628,-54.9925"/>
<polygon fill="#9a32cd" stroke="#9a32cd" points="829.166,-42.7597 819.182,-46.3052 829.198,-49.7596 829.166,-42.7597"/>
<text text-anchor="middle" x="897" y="-65" font-family="Helvetica,sans-Serif" font-size="10.00"> ScoresWindowBox</text>
<text text-anchor="middle" x="897" y="-54" font-family="Helvetica,sans-Serif" font-size="10.00">TimerWindowBox</text>
</g>
<!-- Node16 -->
<g id="node16" class="node"><title>Node16</title>
<g id="a_node16"><a xlink:href="class_f_b_client_1_1_world_engine_1_1_camera2_d.html" target="_top" xlink:title="FBClient.WorldEngine.Camera2D">
<polygon fill="white" stroke="black" points="674.5,-0.5 674.5,-19.5 835.5,-19.5 835.5,-0.5 674.5,-0.5"/>
<text text-anchor="middle" x="755" y="-7.5" font-family="Helvetica,sans-Serif" font-size="10.00">FBClient.WorldEngine.Camera2D</text>
</a>
</g>
</g>
<!-- Node16&#45;&gt;Node1 -->
<g id="edge15" class="edge"><title>Node16&#45;&gt;Node1</title>
<path fill="none" stroke="#9a32cd" stroke-dasharray="5,2" d="M845.698,-16.1741C875.949,-19.4562 909.711,-24.4447 940,-32 962.309,-37.5648 986.398,-46.8572 1005.11,-54.8598"/>
<polygon fill="#9a32cd" stroke="#9a32cd" points="845.891,-12.6755 835.584,-15.1252 845.169,-19.6381 845.891,-12.6755"/>
<text text-anchor="middle" x="897" y="-35" font-family="Helvetica,sans-Serif" font-size="10.00"> Camera</text>
</g>
</g>
</svg>
