<?xml version="1.0" encoding="UTF-8" standalone="no"?>
<!DOCTYPE svg PUBLIC "-//W3C//DTD SVG 1.1//EN"
 "http://www.w3.org/Graphics/SVG/1.1/DTD/svg11.dtd">
<!-- Generated by graphviz version 2.34.0 (20130907.0111)
 -->
<!-- Title: FBLauncher.MainWindow Pages: 1 -->
<svg width="310pt" height="154pt"
 viewBox="0.00 0.00 310.00 154.00" xmlns="http://www.w3.org/2000/svg" xmlns:xlink="http://www.w3.org/1999/xlink">
<g id="graph0" class="graph" transform="scale(1 1) rotate(0) translate(4 150)">
<title>FBLauncher.MainWindow</title>
<polygon fill="white" stroke="white" points="-4,4 -4,-150 306,-150 306,4 -4,4"/>
<!-- Node1 -->
<g id="node1" class="node"><title>Node1</title>
<polygon fill="#bfbfbf" stroke="black" points="174,-82.5 174,-101.5 302,-101.5 302,-82.5 174,-82.5"/>
<text text-anchor="middle" x="238" y="-89.5" font-family="Helvetica,sans-Serif" font-size="10.00">FBLauncher.MainWindow</text>
</g>
<!-- Node2 -->
<g id="node2" class="node"><title>Node2</title>
<polygon fill="white" stroke="#bfbfbf" points="0.5,-126.5 0.5,-145.5 137.5,-145.5 137.5,-126.5 0.5,-126.5"/>
<text text-anchor="middle" x="69" y="-133.5" font-family="Helvetica,sans-Serif" font-size="10.00">System::Windows::Window</text>
</g>
<!-- Node2&#45;&gt;Node1 -->
<g id="edge1" class="edge"><title>Node2&#45;&gt;Node1</title>
<path fill="none" stroke="midnightblue" d="M89.1778,-121.955C109.799,-112.666 143.686,-102.355 173.816,-95.5089"/>
<polygon fill="midnightblue" stroke="midnightblue" points="87.5963,-118.833 80.1952,-126.414 90.7086,-125.103 87.5963,-118.833"/>
</g>
<!-- Node2&#45;&gt;Node1 -->
<g id="edge3" class="edge"><title>Node2&#45;&gt;Node1</title>
<path fill="none" stroke="midnightblue" d="M116.133,-123.845C142.856,-116.805 176.012,-108.069 200.834,-101.529"/>
<polygon fill="midnightblue" stroke="midnightblue" points="115.015,-120.52 106.237,-126.453 116.798,-127.289 115.015,-120.52"/>
</g>
<!-- Node2&#45;&gt;Node1 -->
<g id="edge5" class="edge"><title>Node2&#45;&gt;Node1</title>
<path fill="none" stroke="midnightblue" d="M147.953,-128.935C179.016,-121.048 211.107,-110.389 226.929,-101.516"/>
<polygon fill="midnightblue" stroke="midnightblue" points="146.805,-125.613 137.925,-131.393 148.471,-132.412 146.805,-125.613"/>
</g>
<!-- Node3 -->
<g id="node3" class="node"><title>Node3</title>
<polygon fill="white" stroke="#bfbfbf" points="2,-77 2,-107 136,-107 136,-77 2,-77"/>
<text text-anchor="start" x="10" y="-95" font-family="Helvetica,sans-Serif" font-size="10.00">System::Windows::Markup</text>
<text text-anchor="middle" x="69" y="-84" font-family="Helvetica,sans-Serif" font-size="10.00">::IComponentConnector</text>
</g>
<!-- Node3&#45;&gt;Node1 -->
<g id="edge2" class="edge"><title>Node3&#45;&gt;Node1</title>
<path fill="none" stroke="midnightblue" d="M146.234,-78.5455C171.164,-78.2324 196.965,-79.5346 214.656,-82.4523"/>
<polygon fill="midnightblue" stroke="midnightblue" points="145.925,-75.0513 136.003,-78.767 146.076,-82.0497 145.925,-75.0513"/>
</g>
<!-- Node3&#45;&gt;Node1 -->
<g id="edge4" class="edge"><title>Node3&#45;&gt;Node1</title>
<path fill="none" stroke="midnightblue" d="M146.05,-92C155.374,-92 164.823,-92 173.928,-92"/>
<polygon fill="midnightblue" stroke="midnightblue" points="146.003,-88.5001 136.003,-92 146.003,-95.5001 146.003,-88.5001"/>
</g>
<!-- Node3&#45;&gt;Node1 -->
<g id="edge6" class="edge"><title>Node3&#45;&gt;Node1</title>
<path fill="none" stroke="midnightblue" d="M146.234,-105.454C171.164,-105.768 196.965,-104.465 214.656,-101.548"/>
<polygon fill="midnightblue" stroke="midnightblue" points="146.076,-101.95 136.003,-105.233 145.925,-108.949 146.076,-101.95"/>
</g>
<!-- Node4 -->
<g id="node4" class="node"><title>Node4</title>
<polygon fill="white" stroke="#bfbfbf" points="43.5,-38.5 43.5,-57.5 94.5,-57.5 94.5,-38.5 43.5,-38.5"/>
<text text-anchor="middle" x="69" y="-45.5" font-family="Helvetica,sans-Serif" font-size="10.00">Window</text>
</g>
<!-- Node4&#45;&gt;Node1 -->
<g id="edge7" class="edge"><title>Node4&#45;&gt;Node1</title>
<path fill="none" stroke="midnightblue" d="M104.445,-57.0754C132.583,-64.489 172.236,-74.9364 200.831,-82.4704"/>
<polygon fill="midnightblue" stroke="midnightblue" points="105.203,-53.6557 94.6414,-54.4924 103.42,-60.4247 105.203,-53.6557"/>
</g>
<!-- Node5 -->
<g id="node5" class="node"><title>Node5</title>
<polygon fill="white" stroke="#bfbfbf" points="38,-0.5 38,-19.5 100,-19.5 100,-0.5 38,-0.5"/>
<text text-anchor="middle" x="69" y="-7.5" font-family="Helvetica,sans-Serif" font-size="10.00">IUpdatable</text>
</g>
<!-- Node5&#45;&gt;Node1 -->
<g id="edge8" class="edge"><title>Node5&#45;&gt;Node1</title>
<path fill="none" stroke="midnightblue" d="M110.038,-19.0743C119.401,-21.7709 129.204,-25.076 138,-29 171.303,-43.8563 206.436,-68.7381 224.557,-82.362"/>
<polygon fill="midnightblue" stroke="midnightblue" points="110.686,-15.624 100.119,-16.3867 108.856,-22.3803 110.686,-15.624"/>
</g>
</g>
</svg>
