<?xml version="1.0" encoding="UTF-8" standalone="no"?>
<!DOCTYPE svg PUBLIC "-//W3C//DTD SVG 1.1//EN"
 "http://www.w3.org/Graphics/SVG/1.1/DTD/svg11.dtd">
<!-- Generated by graphviz version 2.34.0 (20130907.0111)
 -->
<!-- Title: FBLibrary.Core.StaticEntity Pages: 1 -->
<!--zoomable 370 -->
<svg id="main" version="1.1" xmlns="http://www.w3.org/2000/svg" xmlns:xlink="http://www.w3.org/1999/xlink" xml:space="preserve" onload="init(evt)">
<style type="text/css"><![CDATA[
.edge:hover path { stroke: red; }
.edge:hover polygon { stroke: red; fill: red; }
]]></style>
<script type="text/javascript"><![CDATA[
var edges = document.getElementsByTagName('g');
if (edges && edges.length) {
  for (var i=0;i<edges.length;i++) {
    if (edges[i].id.substr(0,4)=='edge') {
      edges[i].setAttribute('class','edge');
    }
  }
}
]]></script>
        <defs>
                <circle id="rim" cx="0" cy="0" r="7"/>
                <circle id="rim2" cx="0" cy="0" r="3.5"/>
                <g id="zoomPlus">
                        <use xlink:href="#rim" fill="#404040">
                                <set attributeName="fill" to="#808080" begin="zoomplus.mouseover" end="zoomplus.mouseout"/>
                        </use>
                        <path d="M-4,0h8M0,-4v8" fill="none" stroke="white" stroke-width="1.5" pointer-events="none"/>
                </g>
                <g id="zoomMin">
                        <use xlink:href="#rim" fill="#404040">
                                <set attributeName="fill" to="#808080" begin="zoomminus.mouseover" end="zoomminus.mouseout"/>
                        </use>
                        <path d="M-4,0h8" fill="none" stroke="white" stroke-width="1.5" pointer-events="none"/>
                </g>
                <g id="dirArrow">
                        <path fill="none" stroke="white" stroke-width="1.5" d="M0,-3.0v7 M-2.5,-0.5L0,-3.0L2.5,-0.5"/>
                </g>
               <g id="resetDef">
                       <use xlink:href="#rim2" fill="#404040">
                               <set attributeName="fill" to="#808080" begin="reset.mouseover" end="reset.mouseout"/>
                       </use>
               </g>
        </defs>

<script type="text/javascript">
var viewWidth = 734;
var viewHeight = 370;
var sectionId = 'dynsection-0';
</script>
<script xlink:href="svgpan.js"/>
<svg id="graph" class="graph">
<g id="viewport">
<title>FBLibrary.Core.StaticEntity</title>
<polygon fill="white" stroke="white" points="-4,4 -4,-366 730,-366 730,4 -4,4"/>
<!-- Node1 -->
<g id="node1" class="node"><title>Node1</title>
<polygon fill="#bfbfbf" stroke="black" points="182,-181.5 182,-200.5 318,-200.5 318,-181.5 182,-181.5"/>
<text text-anchor="middle" x="250" y="-188.5" font-family="Helvetica,sans-Serif" font-size="10.00">FBLibrary.Core.StaticEntity</text>
</g>
<!-- Node4 -->
<g id="node4" class="node"><title>Node4</title>
<g id="a_node4"><a xlink:href="class_f_b_library_1_1_core_1_1_base_entities_1_1_base_arrow.html" target="_top" xlink:title="FBLibrary.Core.BaseEntities.\lBaseArrow">
<polygon fill="white" stroke="black" points="354.5,-323 354.5,-353 497.5,-353 497.5,-323 354.5,-323"/>
<text text-anchor="start" x="362.5" y="-341" font-family="Helvetica,sans-Serif" font-size="10.00">FBLibrary.Core.BaseEntities.</text>
<text text-anchor="middle" x="426" y="-330" font-family="Helvetica,sans-Serif" font-size="10.00">BaseArrow</text>
</a>
</g>
</g>
<!-- Node1&#45;&gt;Node4 -->
<g id="edge3" class="edge"><title>Node1&#45;&gt;Node4</title>
<path fill="none" stroke="midnightblue" d="M264.637,-208.647C283.085,-231.704 317.864,-272.383 354,-300 365.441,-308.744 379.17,-316.603 391.492,-322.874"/>
<polygon fill="midnightblue" stroke="midnightblue" points="267.339,-206.421 258.397,-200.737 261.843,-210.756 267.339,-206.421"/>
</g>
<!-- Node6 -->
<g id="node6" class="node"><title>Node6</title>
<g id="a_node6"><a xlink:href="class_f_b_library_1_1_core_1_1_base_entities_1_1_base_edge_wall.html" target="_top" xlink:title="FBLibrary.Core.BaseEntities.\lBaseEdgeWall">
<polygon fill="white" stroke="black" points="354.5,-261 354.5,-291 497.5,-291 497.5,-261 354.5,-261"/>
<text text-anchor="start" x="362.5" y="-279" font-family="Helvetica,sans-Serif" font-size="10.00">FBLibrary.Core.BaseEntities.</text>
<text text-anchor="middle" x="426" y="-268" font-family="Helvetica,sans-Serif" font-size="10.00">BaseEdgeWall</text>
</a>
</g>
</g>
<!-- Node1&#45;&gt;Node6 -->
<g id="edge5" class="edge"><title>Node1&#45;&gt;Node6</title>
<path fill="none" stroke="midnightblue" d="M279.758,-205.048C311.28,-220.447 361.668,-245.062 394.038,-260.875"/>
<polygon fill="midnightblue" stroke="midnightblue" points="281.143,-201.83 270.622,-200.585 278.071,-208.12 281.143,-201.83"/>
</g>
<!-- Node9 -->
<g id="node9" class="node"><title>Node9</title>
<g id="a_node9"><a xlink:href="class_f_b_library_1_1_core_1_1_base_entities_1_1_base_power_up.html" target="_top" xlink:title="FBLibrary.Core.BaseEntities.\lBasePowerUp">
<polygon fill="white" stroke="black" points="354.5,-201 354.5,-231 497.5,-231 497.5,-201 354.5,-201"/>
<text text-anchor="start" x="362.5" y="-219" font-family="Helvetica,sans-Serif" font-size="10.00">FBLibrary.Core.BaseEntities.</text>
<text text-anchor="middle" x="426" y="-208" font-family="Helvetica,sans-Serif" font-size="10.00">BasePowerUp</text>
</a>
</g>
</g>
<!-- Node1&#45;&gt;Node9 -->
<g id="edge8" class="edge"><title>Node1&#45;&gt;Node9</title>
<path fill="none" stroke="midnightblue" d="M327.312,-201.964C336.274,-203.252 345.391,-204.562 354.273,-205.838"/>
<polygon fill="midnightblue" stroke="midnightblue" points="327.674,-198.481 317.278,-200.523 326.679,-205.409 327.674,-198.481"/>
</g>
<!-- Node12 -->
<g id="node12" class="node"><title>Node12</title>
<g id="a_node12"><a xlink:href="class_f_b_library_1_1_core_1_1_base_entities_1_1_base_teleporter.html" target="_top" xlink:title="FBLibrary.Core.BaseEntities.\lBaseTeleporter">
<polygon fill="white" stroke="black" points="354.5,-152 354.5,-182 497.5,-182 497.5,-152 354.5,-152"/>
<text text-anchor="start" x="362.5" y="-170" font-family="Helvetica,sans-Serif" font-size="10.00">FBLibrary.Core.BaseEntities.</text>
<text text-anchor="middle" x="426" y="-159" font-family="Helvetica,sans-Serif" font-size="10.00">BaseTeleporter</text>
</a>
</g>
</g>
<!-- Node1&#45;&gt;Node12 -->
<g id="edge11" class="edge"><title>Node1&#45;&gt;Node12</title>
<path fill="none" stroke="midnightblue" d="M328.38,-180.327C337.058,-179.13 345.865,-177.915 354.451,-176.731"/>
<polygon fill="midnightblue" stroke="midnightblue" points="327.701,-176.887 318.273,-181.721 328.657,-183.822 327.701,-176.887"/>
</g>
<!-- Node14 -->
<g id="node14" class="node"><title>Node14</title>
<g id="a_node14"><a xlink:href="class_f_b_library_1_1_core_1_1_base_entities_1_1_base_unbreakable_wall.html" target="_top" xlink:title="FBLibrary.Core.BaseEntities.\lBaseUnbreakableWall">
<polygon fill="white" stroke="black" points="354.5,-103 354.5,-133 497.5,-133 497.5,-103 354.5,-103"/>
<text text-anchor="start" x="362.5" y="-121" font-family="Helvetica,sans-Serif" font-size="10.00">FBLibrary.Core.BaseEntities.</text>
<text text-anchor="middle" x="426" y="-110" font-family="Helvetica,sans-Serif" font-size="10.00">BaseUnbreakableWall</text>
</a>
</g>
</g>
<!-- Node1&#45;&gt;Node14 -->
<g id="edge13" class="edge"><title>Node1&#45;&gt;Node14</title>
<path fill="none" stroke="midnightblue" d="M278.39,-176.882C298.919,-166.568 327.858,-152.593 354,-142 361.597,-138.921 369.755,-135.905 377.738,-133.105"/>
<polygon fill="midnightblue" stroke="midnightblue" points="276.653,-173.838 269.313,-181.479 279.815,-180.083 276.653,-173.838"/>
</g>
<!-- Node17 -->
<g id="node17" class="node"><title>Node17</title>
<g id="a_node17"><a xlink:href="class_f_b_library_1_1_core_1_1_base_entities_1_1_base_wall.html" target="_top" xlink:title="FBLibrary.Core.BaseEntities.\lBaseWall">
<polygon fill="white" stroke="black" points="354.5,-33 354.5,-63 497.5,-63 497.5,-33 354.5,-33"/>
<text text-anchor="start" x="362.5" y="-51" font-family="Helvetica,sans-Serif" font-size="10.00">FBLibrary.Core.BaseEntities.</text>
<text text-anchor="middle" x="426" y="-40" font-family="Helvetica,sans-Serif" font-size="10.00">BaseWall</text>
</a>
</g>
</g>
<!-- Node1&#45;&gt;Node17 -->
<g id="edge16" class="edge"><title>Node1&#45;&gt;Node17</title>
<path fill="none" stroke="midnightblue" d="M266.731,-174.13C286.199,-153.718 320.847,-118.875 354,-93 368.036,-82.0457 384.818,-71.3122 398.542,-63.0769"/>
<polygon fill="midnightblue" stroke="midnightblue" points="264.146,-171.77 259.82,-181.441 269.233,-176.578 264.146,-171.77"/>
</g>
<!-- Node2 -->
<g id="node2" class="node"><title>Node2</title>
<g id="a_node2"><a xlink:href="class_f_b_library_1_1_core_1_1_base_entity.html" target="_top" xlink:title="BaseEntity">
<polygon fill="white" stroke="black" points="80.5,-181.5 80.5,-200.5 145.5,-200.5 145.5,-181.5 80.5,-181.5"/>
<text text-anchor="middle" x="113" y="-188.5" font-family="Helvetica,sans-Serif" font-size="10.00">BaseEntity</text>
</a>
</g>
</g>
<!-- Node2&#45;&gt;Node1 -->
<g id="edge1" class="edge"><title>Node2&#45;&gt;Node1</title>
<path fill="none" stroke="midnightblue" d="M155.788,-191C164.084,-191 172.99,-191 181.886,-191"/>
<polygon fill="midnightblue" stroke="midnightblue" points="155.652,-187.5 145.652,-191 155.651,-194.5 155.652,-187.5"/>
</g>
<!-- Node3 -->
<g id="node3" class="node"><title>Node3</title>
<g id="a_node3"><a xlink:href="interface_f_b_library_1_1_core_1_1_i_entity.html" target="_top" xlink:title="IEntity">
<polygon fill="white" stroke="black" points="0,-181.5 0,-200.5 44,-200.5 44,-181.5 0,-181.5"/>
<text text-anchor="middle" x="22" y="-188.5" font-family="Helvetica,sans-Serif" font-size="10.00">IEntity</text>
</a>
</g>
</g>
<!-- Node3&#45;&gt;Node2 -->
<g id="edge2" class="edge"><title>Node3&#45;&gt;Node2</title>
<path fill="none" stroke="midnightblue" d="M54.2824,-191C62.7018,-191 71.8155,-191 80.2596,-191"/>
<polygon fill="midnightblue" stroke="midnightblue" points="54.0918,-187.5 44.0918,-191 54.0917,-194.5 54.0918,-187.5"/>
</g>
<!-- Node5 -->
<g id="node5" class="node"><title>Node5</title>
<g id="a_node5"><a xlink:href="class_f_b_server_1_1_core_1_1_entities_1_1_arrow.html" target="_top" xlink:title="FBServer.Core.Entities.Arrow">
<polygon fill="white" stroke="black" points="558.5,-342.5 558.5,-361.5 701.5,-361.5 701.5,-342.5 558.5,-342.5"/>
<text text-anchor="middle" x="630" y="-349.5" font-family="Helvetica,sans-Serif" font-size="10.00">FBServer.Core.Entities.Arrow</text>
</a>
</g>
</g>
<!-- Node4&#45;&gt;Node5 -->
<g id="edge4" class="edge"><title>Node4&#45;&gt;Node5</title>
<path fill="none" stroke="midnightblue" d="M507.932,-343.609C524.631,-344.766 542.092,-345.977 558.39,-347.106"/>
<polygon fill="midnightblue" stroke="midnightblue" points="507.868,-340.096 497.65,-342.897 507.384,-347.08 507.868,-340.096"/>
</g>
<!-- Node7 -->
<g id="node7" class="node"><title>Node7</title>
<g id="a_node7"><a xlink:href="class_f_b_client_1_1_core_1_1_entities_1_1_edge_wall.html" target="_top" xlink:title="FBClient.Core.Entities.EdgeWall">
<polygon fill="white" stroke="black" points="551,-304.5 551,-323.5 709,-323.5 709,-304.5 551,-304.5"/>
<text text-anchor="middle" x="630" y="-311.5" font-family="Helvetica,sans-Serif" font-size="10.00">FBClient.Core.Entities.EdgeWall</text>
</a>
</g>
</g>
<!-- Node6&#45;&gt;Node7 -->
<g id="edge6" class="edge"><title>Node6&#45;&gt;Node7</title>
<path fill="none" stroke="midnightblue" d="M507.762,-291.193C531.621,-295.681 557.05,-300.465 578.426,-304.486"/>
<polygon fill="midnightblue" stroke="midnightblue" points="508.125,-287.7 497.65,-289.291 506.83,-294.579 508.125,-287.7"/>
</g>
<!-- Node8 -->
<g id="node8" class="node"><title>Node8</title>
<g id="a_node8"><a xlink:href="class_f_b_server_1_1_core_1_1_entities_1_1_edge_wall.html" target="_top" xlink:title="FBServer.Core.Entities.EdgeWall">
<polygon fill="white" stroke="black" points="549.5,-266.5 549.5,-285.5 710.5,-285.5 710.5,-266.5 549.5,-266.5"/>
<text text-anchor="middle" x="630" y="-273.5" font-family="Helvetica,sans-Serif" font-size="10.00">FBServer.Core.Entities.EdgeWall</text>
</a>
</g>
</g>
<!-- Node6&#45;&gt;Node8 -->
<g id="edge7" class="edge"><title>Node6&#45;&gt;Node8</title>
<path fill="none" stroke="midnightblue" d="M507.975,-276C521.63,-276 535.794,-276 549.413,-276"/>
<polygon fill="midnightblue" stroke="midnightblue" points="507.65,-272.5 497.65,-276 507.65,-279.5 507.65,-272.5"/>
</g>
<!-- Node10 -->
<g id="node10" class="node"><title>Node10</title>
<g id="a_node10"><a xlink:href="class_f_b_client_1_1_core_1_1_entities_1_1_power_up.html" target="_top" xlink:title="FBClient.Core.Entities.PowerUp">
<polygon fill="white" stroke="black" points="552.5,-228.5 552.5,-247.5 707.5,-247.5 707.5,-228.5 552.5,-228.5"/>
<text text-anchor="middle" x="630" y="-235.5" font-family="Helvetica,sans-Serif" font-size="10.00">FBClient.Core.Entities.PowerUp</text>
</a>
</g>
</g>
<!-- Node9&#45;&gt;Node10 -->
<g id="edge9" class="edge"><title>Node9&#45;&gt;Node10</title>
<path fill="none" stroke="midnightblue" d="M507.697,-224.789C522.37,-226.387 537.639,-228.05 552.196,-229.635"/>
<polygon fill="midnightblue" stroke="midnightblue" points="507.97,-221.298 497.65,-223.695 507.212,-228.257 507.97,-221.298"/>
</g>
<!-- Node11 -->
<g id="node11" class="node"><title>Node11</title>
<g id="a_node11"><a xlink:href="class_f_b_server_1_1_core_1_1_entities_1_1_power_up.html" target="_top" xlink:title="FBServer.Core.Entities.PowerUp">
<polygon fill="white" stroke="black" points="551,-190.5 551,-209.5 709,-209.5 709,-190.5 551,-190.5"/>
<text text-anchor="middle" x="630" y="-197.5" font-family="Helvetica,sans-Serif" font-size="10.00">FBServer.Core.Entities.PowerUp</text>
</a>
</g>
</g>
<!-- Node9&#45;&gt;Node11 -->
<g id="edge10" class="edge"><title>Node9&#45;&gt;Node11</title>
<path fill="none" stroke="midnightblue" d="M507.847,-209.596C522.008,-208.475 536.719,-207.309 550.807,-206.194"/>
<polygon fill="midnightblue" stroke="midnightblue" points="507.342,-206.125 497.65,-210.404 507.895,-213.103 507.342,-206.125"/>
</g>
<!-- Node13 -->
<g id="node13" class="node"><title>Node13</title>
<g id="a_node13"><a xlink:href="class_f_b_server_1_1_core_1_1_entities_1_1_teleporter.html" target="_top" xlink:title="FBServer.Core.Entities.Teleporter">
<polygon fill="white" stroke="black" points="549.5,-152.5 549.5,-171.5 710.5,-171.5 710.5,-152.5 549.5,-152.5"/>
<text text-anchor="middle" x="630" y="-159.5" font-family="Helvetica,sans-Serif" font-size="10.00">FBServer.Core.Entities.Teleporter</text>
</a>
</g>
</g>
<!-- Node12&#45;&gt;Node13 -->
<g id="edge12" class="edge"><title>Node12&#45;&gt;Node13</title>
<path fill="none" stroke="midnightblue" d="M507.975,-164.996C521.63,-164.658 535.794,-164.307 549.413,-163.97"/>
<polygon fill="midnightblue" stroke="midnightblue" points="507.56,-161.505 497.65,-165.251 507.733,-168.503 507.56,-161.505"/>
</g>
<!-- Node15 -->
<g id="node15" class="node"><title>Node15</title>
<g id="a_node15"><a xlink:href="class_f_b_client_1_1_core_1_1_entities_1_1_unbreakable_wall.html" target="_top" xlink:title="FBClient.Core.Entities.UnbreakableWall">
<polygon fill="white" stroke="black" points="535,-114.5 535,-133.5 725,-133.5 725,-114.5 535,-114.5"/>
<text text-anchor="middle" x="630" y="-121.5" font-family="Helvetica,sans-Serif" font-size="10.00">FBClient.Core.Entities.UnbreakableWall</text>
</a>
</g>
</g>
<!-- Node14&#45;&gt;Node15 -->
<g id="edge14" class="edge"><title>Node14&#45;&gt;Node15</title>
<path fill="none" stroke="midnightblue" d="M507.669,-120.396C516.642,-120.663 525.838,-120.936 534.958,-121.207"/>
<polygon fill="midnightblue" stroke="midnightblue" points="507.749,-116.897 497.65,-120.099 507.541,-123.894 507.749,-116.897"/>
</g>
<!-- Node16 -->
<g id="node16" class="node"><title>Node16</title>
<g id="a_node16"><a xlink:href="class_f_b_server_1_1_core_1_1_entities_1_1_unbreakable_wall.html" target="_top" xlink:title="FBServer.Core.Entities.UnbreakableWall">
<polygon fill="white" stroke="black" points="534,-76.5 534,-95.5 726,-95.5 726,-76.5 534,-76.5"/>
<text text-anchor="middle" x="630" y="-83.5" font-family="Helvetica,sans-Serif" font-size="10.00">FBServer.Core.Entities.UnbreakableWall</text>
</a>
</g>
</g>
<!-- Node14&#45;&gt;Node16 -->
<g id="edge15" class="edge"><title>Node14&#45;&gt;Node16</title>
<path fill="none" stroke="midnightblue" d="M507.566,-105.237C527.986,-102.002 549.57,-98.5829 568.787,-95.5388"/>
<polygon fill="midnightblue" stroke="midnightblue" points="506.979,-101.786 497.65,-106.808 508.074,-108.7 506.979,-101.786"/>
</g>
<!-- Node18 -->
<g id="node18" class="node"><title>Node18</title>
<g id="a_node18"><a xlink:href="class_f_b_client_1_1_core_1_1_entities_1_1_wall.html" target="_top" xlink:title="FBClient.Core.Entities.Wall">
<polygon fill="white" stroke="black" points="562,-38.5 562,-57.5 698,-57.5 698,-38.5 562,-38.5"/>
<text text-anchor="middle" x="630" y="-45.5" font-family="Helvetica,sans-Serif" font-size="10.00">FBClient.Core.Entities.Wall</text>
</a>
</g>
</g>
<!-- Node17&#45;&gt;Node18 -->
<g id="edge17" class="edge"><title>Node17&#45;&gt;Node18</title>
<path fill="none" stroke="midnightblue" d="M507.783,-48C525.692,-48 544.486,-48 561.785,-48"/>
<polygon fill="midnightblue" stroke="midnightblue" points="507.65,-44.5001 497.65,-48 507.65,-51.5001 507.65,-44.5001"/>
</g>
<!-- Node19 -->
<g id="node19" class="node"><title>Node19</title>
<g id="a_node19"><a xlink:href="class_f_b_server_1_1_core_1_1_entities_1_1_wall.html" target="_top" xlink:title="FBServer.Core.Entities.Wall">
<polygon fill="white" stroke="black" points="561,-0.5 561,-19.5 699,-19.5 699,-0.5 561,-0.5"/>
<text text-anchor="middle" x="630" y="-7.5" font-family="Helvetica,sans-Serif" font-size="10.00">FBServer.Core.Entities.Wall</text>
</a>
</g>
</g>
<!-- Node17&#45;&gt;Node19 -->
<g id="edge18" class="edge"><title>Node17&#45;&gt;Node19</title>
<path fill="none" stroke="midnightblue" d="M507.762,-32.8071C531.621,-28.3189 557.05,-23.5351 578.426,-19.5139"/>
<polygon fill="midnightblue" stroke="midnightblue" points="506.83,-29.4209 497.65,-34.7094 508.125,-36.3003 506.83,-29.4209"/>
</g>
</g>
</svg>
        <g id="navigator" transform="translate(0 0)" fill="#404254">
                <rect fill="#f2f5e9" fill-opacity="0.5" stroke="#606060" stroke-width=".5" x="0" y="0" width="60" height="60"/>
                <use id="zoomplus" xlink:href="#zoomPlus" x="17" y="9" onmousedown="handleZoom(evt,'in')"/>
                <use id="zoomminus" xlink:href="#zoomMin" x="42" y="9" onmousedown="handleZoom(evt,'out')"/>
                <use id="reset" xlink:href="#resetDef" x="30" y="36" onmousedown="handleReset()"/>
                <g id="arrowUp" xlink:href="#dirArrow" transform="translate(30 24)" onmousedown="handlePan(0,-1)">
                  <use xlink:href="#rim" fill="#404040">
                        <set attributeName="fill" to="#808080" begin="arrowUp.mouseover" end="arrowUp.mouseout"/>
                  </use>
                  <path fill="none" stroke="white" stroke-width="1.5" d="M0,-3.0v7 M-2.5,-0.5L0,-3.0L2.5,-0.5"/>
                </g>
                <g id="arrowRight" xlink:href="#dirArrow" transform="rotate(90) translate(36 -43)" onmousedown="handlePan(1,0)">
                  <use xlink:href="#rim" fill="#404040">
                        <set attributeName="fill" to="#808080" begin="arrowRight.mouseover" end="arrowRight.mouseout"/>
                  </use>
                  <path fill="none" stroke="white" stroke-width="1.5" d="M0,-3.0v7 M-2.5,-0.5L0,-3.0L2.5,-0.5"/>
                </g>
                <g id="arrowDown" xlink:href="#dirArrow" transform="rotate(180) translate(-30 -48)" onmousedown="handlePan(0,1)">
                  <use xlink:href="#rim" fill="#404040">
                        <set attributeName="fill" to="#808080" begin="arrowDown.mouseover" end="arrowDown.mouseout"/>
                  </use>
                  <path fill="none" stroke="white" stroke-width="1.5" d="M0,-3.0v7 M-2.5,-0.5L0,-3.0L2.5,-0.5"/>
                </g>
                <g id="arrowLeft" xlink:href="#dirArrow" transform="rotate(270) translate(-36 17)" onmousedown="handlePan(-1,0)">
                  <use xlink:href="#rim" fill="#404040">
                        <set attributeName="fill" to="#808080" begin="arrowLeft.mouseover" end="arrowLeft.mouseout"/>
                  </use>
                  <path fill="none" stroke="white" stroke-width="1.5" d="M0,-3.0v7 M-2.5,-0.5L0,-3.0L2.5,-0.5"/>
                </g>
        </g>
        <svg viewBox="0 0 15 15" width="100%" height="30px" preserveAspectRatio="xMaxYMin meet">
         <g id="arrow_out" transform="scale(0.3 0.3)">
          <a xlink:href="class_f_b_library_1_1_core_1_1_static_entity__inherit__graph_org.svg" target="_base">
           <rect id="button" ry="5" rx="5" y="6" x="6" height="38" width="38"
                fill="#f2f5e9" fill-opacity="0.5" stroke="#606060" stroke-width="1.0"/>
           <path id="arrow"
             d="M 11.500037,31.436501 C 11.940474,20.09759 22.043105,11.32322 32.158766,21.979434 L 37.068811,17.246167 C 37.068811,17.246167 37.088388,32 37.088388,32 L 22.160133,31.978069 C 22.160133,31.978069 26.997745,27.140456 26.997745,27.140456 C 18.528582,18.264221 13.291696,25.230495 11.500037,31.436501 z"
             style="fill:#404040;"/>
          </a>
         </g>
        </svg>
</svg>
