<?xml version="1.0" encoding="UTF-8" standalone="no"?>
<!DOCTYPE svg PUBLIC "-//W3C//DTD SVG 1.1//EN"
 "http://www.w3.org/Graphics/SVG/1.1/DTD/svg11.dtd">
<!-- Generated by graphviz version 2.34.0 (20130907.0111)
 -->
<!-- Title: FBLibrary.Core.DynamicEntity Pages: 1 -->
<!--zoomable 1514 -->
<svg id="main" version="1.1" xmlns="http://www.w3.org/2000/svg" xmlns:xlink="http://www.w3.org/1999/xlink" xml:space="preserve" onload="init(evt)">
<style type="text/css"><![CDATA[
.edge:hover path { stroke: red; }
.edge:hover polygon { stroke: red; fill: red; }
]]></style>
<script type="text/javascript"><![CDATA[
var edges = document.getElementsByTagName('g');
if (edges && edges.length) {
  for (var i=0;i<edges.length;i++) {
    if (edges[i].id.substr(0,4)=='edge') {
      edges[i].setAttribute('class','edge');
    }
  }
}
]]></script>
        <defs>
                <circle id="rim" cx="0" cy="0" r="7"/>
                <circle id="rim2" cx="0" cy="0" r="3.5"/>
                <g id="zoomPlus">
                        <use xlink:href="#rim" fill="#404040">
                                <set attributeName="fill" to="#808080" begin="zoomplus.mouseover" end="zoomplus.mouseout"/>
                        </use>
                        <path d="M-4,0h8M0,-4v8" fill="none" stroke="white" stroke-width="1.5" pointer-events="none"/>
                </g>
                <g id="zoomMin">
                        <use xlink:href="#rim" fill="#404040">
                                <set attributeName="fill" to="#808080" begin="zoomminus.mouseover" end="zoomminus.mouseout"/>
                        </use>
                        <path d="M-4,0h8" fill="none" stroke="white" stroke-width="1.5" pointer-events="none"/>
                </g>
                <g id="dirArrow">
                        <path fill="none" stroke="white" stroke-width="1.5" d="M0,-3.0v7 M-2.5,-0.5L0,-3.0L2.5,-0.5"/>
                </g>
               <g id="resetDef">
                       <use xlink:href="#rim2" fill="#404040">
                               <set attributeName="fill" to="#808080" begin="reset.mouseover" end="reset.mouseout"/>
                       </use>
               </g>
        </defs>

<script type="text/javascript">
var viewWidth = 714;
var viewHeight = 1514;
var sectionId = 'dynsection-0';
</script>
<script xlink:href="svgpan.js"/>
<svg id="graph" class="graph">
<g id="viewport">
<title>FBLibrary.Core.DynamicEntity</title>
<polygon fill="white" stroke="white" points="-4,4 -4,-1510 710,-1510 710,4 -4,4"/>
<!-- Node1 -->
<g id="node1" class="node"><title>Node1</title>
<polygon fill="#bfbfbf" stroke="black" points="155.5,-984.5 155.5,-1129.5 304.5,-1129.5 304.5,-984.5 155.5,-984.5"/>
<text text-anchor="middle" x="230" y="-1117.5" font-family="Helvetica,sans-Serif" font-size="10.00">FBLibrary.Core.DynamicEntity</text>
<polyline fill="none" stroke="black" points="155.5,-1110.5 304.5,-1110.5 "/>
<text text-anchor="start" x="163.5" y="-1098.5" font-family="Helvetica,sans-Serif" font-size="10.00">+ CurrentDirection</text>
<text text-anchor="start" x="163.5" y="-1087.5" font-family="Helvetica,sans-Serif" font-size="10.00">+ Speed</text>
<text text-anchor="start" x="163.5" y="-1076.5" font-family="Helvetica,sans-Serif" font-size="10.00">+ Velocity</text>
<text text-anchor="start" x="163.5" y="-1065.5" font-family="Helvetica,sans-Serif" font-size="10.00"># PreviousCellPosition</text>
<text text-anchor="start" x="163.5" y="-1054.5" font-family="Helvetica,sans-Serif" font-size="10.00"># PreviousDirection</text>
<text text-anchor="start" x="163.5" y="-1043.5" font-family="Helvetica,sans-Serif" font-size="10.00"># IsMoving</text>
<polyline fill="none" stroke="black" points="155.5,-1036.5 304.5,-1036.5 "/>
<text text-anchor="start" x="163.5" y="-1024.5" font-family="Helvetica,sans-Serif" font-size="10.00">+ Update()</text>
<text text-anchor="start" x="163.5" y="-1013.5" font-family="Helvetica,sans-Serif" font-size="10.00"># DynamicEntity()</text>
<text text-anchor="start" x="163.5" y="-1002.5" font-family="Helvetica,sans-Serif" font-size="10.00"># DynamicEntity()</text>
<text text-anchor="start" x="163.5" y="-991.5" font-family="Helvetica,sans-Serif" font-size="10.00"># IsChangingCell()</text>
</g>
<!-- Node4 -->
<g id="node4" class="node"><title>Node4</title>
<g id="a_node4"><a xlink:href="class_f_b_client_1_1_core_1_1_entities_1_1_arrow.html" target="_top" xlink:title="{FBClient.Core.Entities.Arrow\n|+ Sprite\l|+ Arrow()\l+ LoadContent()\l+ Update()\l+ Draw()\l+ ChangeDirection()\l+ Destroy()\l+ Remove()\l}">
<polygon fill="white" stroke="black" points="-0.5,-719.5 -0.5,-842.5 140.5,-842.5 140.5,-719.5 -0.5,-719.5"/>
<text text-anchor="middle" x="70" y="-830.5" font-family="Helvetica,sans-Serif" font-size="10.00">FBClient.Core.Entities.Arrow</text>
<polyline fill="none" stroke="black" points="-0.5,-823.5 140.5,-823.5 "/>
<text text-anchor="start" x="7.5" y="-811.5" font-family="Helvetica,sans-Serif" font-size="10.00">+ Sprite</text>
<polyline fill="none" stroke="black" points="-0.5,-804.5 140.5,-804.5 "/>
<text text-anchor="start" x="7.5" y="-792.5" font-family="Helvetica,sans-Serif" font-size="10.00">+ Arrow()</text>
<text text-anchor="start" x="7.5" y="-781.5" font-family="Helvetica,sans-Serif" font-size="10.00">+ LoadContent()</text>
<text text-anchor="start" x="7.5" y="-770.5" font-family="Helvetica,sans-Serif" font-size="10.00">+ Update()</text>
<text text-anchor="start" x="7.5" y="-759.5" font-family="Helvetica,sans-Serif" font-size="10.00">+ Draw()</text>
<text text-anchor="start" x="7.5" y="-748.5" font-family="Helvetica,sans-Serif" font-size="10.00">+ ChangeDirection()</text>
<text text-anchor="start" x="7.5" y="-737.5" font-family="Helvetica,sans-Serif" font-size="10.00">+ Destroy()</text>
<text text-anchor="start" x="7.5" y="-726.5" font-family="Helvetica,sans-Serif" font-size="10.00">+ Remove()</text>
</a>
</g>
</g>
<!-- Node1&#45;&gt;Node4 -->
<g id="edge3" class="edge"><title>Node1&#45;&gt;Node4</title>
<path fill="none" stroke="midnightblue" d="M167.301,-976.025C160.854,-966.754 154.617,-957.29 149,-948 128.687,-914.406 109.656,-874.773 95.3651,-842.659"/>
<polygon fill="none" stroke="midnightblue" points="164.642,-978.326 173.27,-984.474 170.359,-974.287 164.642,-978.326"/>
</g>
<!-- Node5 -->
<g id="node5" class="node"><title>Node5</title>
<g id="a_node5"><a xlink:href="class_f_b_library_1_1_core_1_1_base_entities_1_1_base_bomb.html" target="_top" xlink:title="{FBLibrary.Core.BaseEntities.\lBaseBomb\n|+ PlayerId\l+ Timer\l+ TimerLenght\l+ ActionField\l# Power\l# WillExplode\l# Map\l# HazardMap\l|+ Initialize()\l+ Update()\l+ ChangeSpeed()\l+ ResetTimer()\l+ Destroy()\l# BaseBomb()\l# ComputeActionField()\l}">
<polygon fill="white" stroke="black" points="158.5,-675.5 158.5,-886.5 301.5,-886.5 301.5,-675.5 158.5,-675.5"/>
<text text-anchor="start" x="166.5" y="-874.5" font-family="Helvetica,sans-Serif" font-size="10.00">FBLibrary.Core.BaseEntities.</text>
<text text-anchor="middle" x="230" y="-863.5" font-family="Helvetica,sans-Serif" font-size="10.00">BaseBomb</text>
<polyline fill="none" stroke="black" points="158.5,-856.5 301.5,-856.5 "/>
<text text-anchor="start" x="166.5" y="-844.5" font-family="Helvetica,sans-Serif" font-size="10.00">+ PlayerId</text>
<text text-anchor="start" x="166.5" y="-833.5" font-family="Helvetica,sans-Serif" font-size="10.00">+ Timer</text>
<text text-anchor="start" x="166.5" y="-822.5" font-family="Helvetica,sans-Serif" font-size="10.00">+ TimerLenght</text>
<text text-anchor="start" x="166.5" y="-811.5" font-family="Helvetica,sans-Serif" font-size="10.00">+ ActionField</text>
<text text-anchor="start" x="166.5" y="-800.5" font-family="Helvetica,sans-Serif" font-size="10.00"># Power</text>
<text text-anchor="start" x="166.5" y="-789.5" font-family="Helvetica,sans-Serif" font-size="10.00"># WillExplode</text>
<text text-anchor="start" x="166.5" y="-778.5" font-family="Helvetica,sans-Serif" font-size="10.00"># Map</text>
<text text-anchor="start" x="166.5" y="-767.5" font-family="Helvetica,sans-Serif" font-size="10.00"># HazardMap</text>
<polyline fill="none" stroke="black" points="158.5,-760.5 301.5,-760.5 "/>
<text text-anchor="start" x="166.5" y="-748.5" font-family="Helvetica,sans-Serif" font-size="10.00">+ Initialize()</text>
<text text-anchor="start" x="166.5" y="-737.5" font-family="Helvetica,sans-Serif" font-size="10.00">+ Update()</text>
<text text-anchor="start" x="166.5" y="-726.5" font-family="Helvetica,sans-Serif" font-size="10.00">+ ChangeSpeed()</text>
<text text-anchor="start" x="166.5" y="-715.5" font-family="Helvetica,sans-Serif" font-size="10.00">+ ResetTimer()</text>
<text text-anchor="start" x="166.5" y="-704.5" font-family="Helvetica,sans-Serif" font-size="10.00">+ Destroy()</text>
<text text-anchor="start" x="166.5" y="-693.5" font-family="Helvetica,sans-Serif" font-size="10.00"># BaseBomb()</text>
<text text-anchor="start" x="166.5" y="-682.5" font-family="Helvetica,sans-Serif" font-size="10.00"># ComputeActionField()</text>
</a>
</g>
</g>
<!-- Node1&#45;&gt;Node5 -->
<g id="edge4" class="edge"><title>Node1&#45;&gt;Node5</title>
<path fill="none" stroke="midnightblue" d="M230,-974.041C230,-946.616 230,-915.66 230,-886.739"/>
<polygon fill="none" stroke="midnightblue" points="226.5,-974.368 230,-984.368 233.5,-974.368 226.5,-974.368"/>
</g>
<!-- Node8 -->
<g id="node8" class="node"><title>Node8</title>
<g id="a_node8"><a xlink:href="class_f_b_library_1_1_core_1_1_base_entities_1_1_base_player.html" target="_top" xlink:title="{FBLibrary.Core.BaseEntities.\lBasePlayer\n|+ Id\l+ Name\l+ OnEdge\l+ InvincibleTime\l+ CurrentBombAmount\l+ TotalBombAmount\l+ BombPower\l+ BombTimer\l+ Stats\l+ IsInvincible\l+ HasBadEffect\l+ BadEffect\l+ BadEffectTimer\l+ BadEffectTimerLenght\l# InvincibleTimer\l|+ Update()\l+ IncreaseTotalBombNumber()\l+ IncreasePower()\l+ IncreaseSpeed()\l+ ApplyBadItem()\l# BasePlayer()\l# BasePlayer()\l# ComputeWallCollision()\l# GetMovementSpeed()\l# RemoveBadItem()\l# GetTime()\l}">
<polygon fill="white" stroke="black" points="319.5,-615 319.5,-947 468.5,-947 468.5,-615 319.5,-615"/>
<text text-anchor="start" x="327.5" y="-935" font-family="Helvetica,sans-Serif" font-size="10.00">FBLibrary.Core.BaseEntities.</text>
<text text-anchor="middle" x="394" y="-924" font-family="Helvetica,sans-Serif" font-size="10.00">BasePlayer</text>
<polyline fill="none" stroke="black" points="319.5,-917 468.5,-917 "/>
<text text-anchor="start" x="327.5" y="-905" font-family="Helvetica,sans-Serif" font-size="10.00">+ Id</text>
<text text-anchor="start" x="327.5" y="-894" font-family="Helvetica,sans-Serif" font-size="10.00">+ Name</text>
<text text-anchor="start" x="327.5" y="-883" font-family="Helvetica,sans-Serif" font-size="10.00">+ OnEdge</text>
<text text-anchor="start" x="327.5" y="-872" font-family="Helvetica,sans-Serif" font-size="10.00">+ InvincibleTime</text>
<text text-anchor="start" x="327.5" y="-861" font-family="Helvetica,sans-Serif" font-size="10.00">+ CurrentBombAmount</text>
<text text-anchor="start" x="327.5" y="-850" font-family="Helvetica,sans-Serif" font-size="10.00">+ TotalBombAmount</text>
<text text-anchor="start" x="327.5" y="-839" font-family="Helvetica,sans-Serif" font-size="10.00">+ BombPower</text>
<text text-anchor="start" x="327.5" y="-828" font-family="Helvetica,sans-Serif" font-size="10.00">+ BombTimer</text>
<text text-anchor="start" x="327.5" y="-817" font-family="Helvetica,sans-Serif" font-size="10.00">+ Stats</text>
<text text-anchor="start" x="327.5" y="-806" font-family="Helvetica,sans-Serif" font-size="10.00">+ IsInvincible</text>
<text text-anchor="start" x="327.5" y="-795" font-family="Helvetica,sans-Serif" font-size="10.00">+ HasBadEffect</text>
<text text-anchor="start" x="327.5" y="-784" font-family="Helvetica,sans-Serif" font-size="10.00">+ BadEffect</text>
<text text-anchor="start" x="327.5" y="-773" font-family="Helvetica,sans-Serif" font-size="10.00">+ BadEffectTimer</text>
<text text-anchor="start" x="327.5" y="-762" font-family="Helvetica,sans-Serif" font-size="10.00">+ BadEffectTimerLenght</text>
<text text-anchor="start" x="327.5" y="-751" font-family="Helvetica,sans-Serif" font-size="10.00"># InvincibleTimer</text>
<polyline fill="none" stroke="black" points="319.5,-744 468.5,-744 "/>
<text text-anchor="start" x="327.5" y="-732" font-family="Helvetica,sans-Serif" font-size="10.00">+ Update()</text>
<text text-anchor="start" x="327.5" y="-721" font-family="Helvetica,sans-Serif" font-size="10.00">+ IncreaseTotalBombNumber()</text>
<text text-anchor="start" x="327.5" y="-710" font-family="Helvetica,sans-Serif" font-size="10.00">+ IncreasePower()</text>
<text text-anchor="start" x="327.5" y="-699" font-family="Helvetica,sans-Serif" font-size="10.00">+ IncreaseSpeed()</text>
<text text-anchor="start" x="327.5" y="-688" font-family="Helvetica,sans-Serif" font-size="10.00">+ ApplyBadItem()</text>
<text text-anchor="start" x="327.5" y="-677" font-family="Helvetica,sans-Serif" font-size="10.00"># BasePlayer()</text>
<text text-anchor="start" x="327.5" y="-666" font-family="Helvetica,sans-Serif" font-size="10.00"># BasePlayer()</text>
<text text-anchor="start" x="327.5" y="-655" font-family="Helvetica,sans-Serif" font-size="10.00"># ComputeWallCollision()</text>
<text text-anchor="start" x="327.5" y="-644" font-family="Helvetica,sans-Serif" font-size="10.00"># GetMovementSpeed()</text>
<text text-anchor="start" x="327.5" y="-633" font-family="Helvetica,sans-Serif" font-size="10.00"># RemoveBadItem()</text>
<text text-anchor="start" x="327.5" y="-622" font-family="Helvetica,sans-Serif" font-size="10.00"># GetTime()</text>
</a>
</g>
</g>
<!-- Node1&#45;&gt;Node8 -->
<g id="edge7" class="edge"><title>Node1&#45;&gt;Node8</title>
<path fill="none" stroke="midnightblue" d="M291.665,-975.838C298.081,-966.602 304.323,-957.197 310,-948 313.139,-942.915 316.262,-937.699 319.356,-932.395"/>
<polygon fill="none" stroke="midnightblue" points="288.629,-974.07 285.735,-984.262 294.353,-978.1 288.629,-974.07"/>
</g>
<!-- Node2 -->
<g id="node2" class="node"><title>Node2</title>
<g id="a_node2"><a xlink:href="class_f_b_library_1_1_core_1_1_base_entity.html" target="_top" xlink:title="{BaseEntity\n|+ IsAlive\l+ InDestruction\l+ DestructionTime\l+ Position\l+ PositionX\l+ PositionY\l+ CellPositionX\l+ CellPositionY\l+ CellPosition\l+ Dimension\l|+ Update()\l+ ChangePosition()\l+ ChangePosition()\l+ ChangePosition()\l+ Destroy()\l+ Remove()\l# BaseEntity()\l# BaseEntity()\l}">
<polygon fill="white" stroke="black" points="180,-1166.5 180,-1399.5 280,-1399.5 280,-1166.5 180,-1166.5"/>
<text text-anchor="middle" x="230" y="-1387.5" font-family="Helvetica,sans-Serif" font-size="10.00">BaseEntity</text>
<polyline fill="none" stroke="black" points="180,-1380.5 280,-1380.5 "/>
<text text-anchor="start" x="188" y="-1368.5" font-family="Helvetica,sans-Serif" font-size="10.00">+ IsAlive</text>
<text text-anchor="start" x="188" y="-1357.5" font-family="Helvetica,sans-Serif" font-size="10.00">+ InDestruction</text>
<text text-anchor="start" x="188" y="-1346.5" font-family="Helvetica,sans-Serif" font-size="10.00">+ DestructionTime</text>
<text text-anchor="start" x="188" y="-1335.5" font-family="Helvetica,sans-Serif" font-size="10.00">+ Position</text>
<text text-anchor="start" x="188" y="-1324.5" font-family="Helvetica,sans-Serif" font-size="10.00">+ PositionX</text>
<text text-anchor="start" x="188" y="-1313.5" font-family="Helvetica,sans-Serif" font-size="10.00">+ PositionY</text>
<text text-anchor="start" x="188" y="-1302.5" font-family="Helvetica,sans-Serif" font-size="10.00">+ CellPositionX</text>
<text text-anchor="start" x="188" y="-1291.5" font-family="Helvetica,sans-Serif" font-size="10.00">+ CellPositionY</text>
<text text-anchor="start" x="188" y="-1280.5" font-family="Helvetica,sans-Serif" font-size="10.00">+ CellPosition</text>
<text text-anchor="start" x="188" y="-1269.5" font-family="Helvetica,sans-Serif" font-size="10.00">+ Dimension</text>
<polyline fill="none" stroke="black" points="180,-1262.5 280,-1262.5 "/>
<text text-anchor="start" x="188" y="-1250.5" font-family="Helvetica,sans-Serif" font-size="10.00">+ Update()</text>
<text text-anchor="start" x="188" y="-1239.5" font-family="Helvetica,sans-Serif" font-size="10.00">+ ChangePosition()</text>
<text text-anchor="start" x="188" y="-1228.5" font-family="Helvetica,sans-Serif" font-size="10.00">+ ChangePosition()</text>
<text text-anchor="start" x="188" y="-1217.5" font-family="Helvetica,sans-Serif" font-size="10.00">+ ChangePosition()</text>
<text text-anchor="start" x="188" y="-1206.5" font-family="Helvetica,sans-Serif" font-size="10.00">+ Destroy()</text>
<text text-anchor="start" x="188" y="-1195.5" font-family="Helvetica,sans-Serif" font-size="10.00">+ Remove()</text>
<text text-anchor="start" x="188" y="-1184.5" font-family="Helvetica,sans-Serif" font-size="10.00"># BaseEntity()</text>
<text text-anchor="start" x="188" y="-1173.5" font-family="Helvetica,sans-Serif" font-size="10.00"># BaseEntity()</text>
</a>
</g>
</g>
<!-- Node2&#45;&gt;Node1 -->
<g id="edge1" class="edge"><title>Node2&#45;&gt;Node1</title>
<path fill="none" stroke="midnightblue" d="M230,-1156.15C230,-1147.11 230,-1138.2 230,-1129.65"/>
<polygon fill="none" stroke="midnightblue" points="226.5,-1156.39 230,-1166.39 233.5,-1156.39 226.5,-1156.39"/>
</g>
<!-- Node3 -->
<g id="node3" class="node"><title>Node3</title>
<g id="a_node3"><a xlink:href="interface_f_b_library_1_1_core_1_1_i_entity.html" target="_top" xlink:title="{IEntity\n||+ Destroy()\l+ Remove()\l}">
<polygon fill="white" stroke="black" points="197,-1437 197,-1505 263,-1505 263,-1437 197,-1437"/>
<text text-anchor="middle" x="230" y="-1493" font-family="Helvetica,sans-Serif" font-size="10.00">IEntity</text>
<polyline fill="none" stroke="black" points="197,-1486 263,-1486 "/>
<text text-anchor="middle" x="230" y="-1474" font-family="Helvetica,sans-Serif" font-size="10.00"> </text>
<polyline fill="none" stroke="black" points="197,-1467 263,-1467 "/>
<text text-anchor="start" x="205" y="-1455" font-family="Helvetica,sans-Serif" font-size="10.00">+ Destroy()</text>
<text text-anchor="start" x="205" y="-1444" font-family="Helvetica,sans-Serif" font-size="10.00">+ Remove()</text>
</a>
</g>
</g>
<!-- Node3&#45;&gt;Node2 -->
<g id="edge2" class="edge"><title>Node3&#45;&gt;Node2</title>
<path fill="none" stroke="midnightblue" d="M230,-1426.6C230,-1418.25 230,-1409.14 230,-1399.7"/>
<polygon fill="none" stroke="midnightblue" points="226.5,-1426.75 230,-1436.75 233.5,-1426.75 226.5,-1426.75"/>
</g>
<!-- Node6 -->
<g id="node6" class="node"><title>Node6</title>
<g id="a_node6"><a xlink:href="class_f_b_client_1_1_core_1_1_entities_1_1_bomb.html" target="_top" xlink:title="{FBClient.Core.Entities.Bomb\n|+ Sprite\l|+ Bomb()\l+ Update()\l+ Draw()\l+ ChangeDirection()\l+ Destroy()\l+ Remove()\l}">
<polygon fill="white" stroke="black" points="1,-410 1,-522 143,-522 143,-410 1,-410"/>
<text text-anchor="middle" x="72" y="-510" font-family="Helvetica,sans-Serif" font-size="10.00">FBClient.Core.Entities.Bomb</text>
<polyline fill="none" stroke="black" points="1,-503 143,-503 "/>
<text text-anchor="start" x="9" y="-491" font-family="Helvetica,sans-Serif" font-size="10.00">+ Sprite</text>
<polyline fill="none" stroke="black" points="1,-484 143,-484 "/>
<text text-anchor="start" x="9" y="-472" font-family="Helvetica,sans-Serif" font-size="10.00">+ Bomb()</text>
<text text-anchor="start" x="9" y="-461" font-family="Helvetica,sans-Serif" font-size="10.00">+ Update()</text>
<text text-anchor="start" x="9" y="-450" font-family="Helvetica,sans-Serif" font-size="10.00">+ Draw()</text>
<text text-anchor="start" x="9" y="-439" font-family="Helvetica,sans-Serif" font-size="10.00">+ ChangeDirection()</text>
<text text-anchor="start" x="9" y="-428" font-family="Helvetica,sans-Serif" font-size="10.00">+ Destroy()</text>
<text text-anchor="start" x="9" y="-417" font-family="Helvetica,sans-Serif" font-size="10.00">+ Remove()</text>
</a>
</g>
</g>
<!-- Node5&#45;&gt;Node6 -->
<g id="edge5" class="edge"><title>Node5&#45;&gt;Node6</title>
<path fill="none" stroke="midnightblue" d="M174.987,-666.165C166.371,-648.655 157.504,-630.814 149,-614 133.592,-583.535 115.95,-549.776 101.443,-522.301"/>
<polygon fill="none" stroke="midnightblue" points="171.916,-667.852 179.466,-675.284 178.199,-664.765 171.916,-667.852"/>
</g>
<!-- Node7 -->
<g id="node7" class="node"><title>Node7</title>
<g id="a_node7"><a xlink:href="class_f_b_server_1_1_core_1_1_entities_1_1_bomb.html" target="_top" xlink:title="{FBServer.Core.Entities.Bomb\n||+ Bomb()\l+ Update()\l+ Destroy()\l+ Remove()\l}">
<polygon fill="white" stroke="black" points="161,-421 161,-511 305,-511 305,-421 161,-421"/>
<text text-anchor="middle" x="233" y="-499" font-family="Helvetica,sans-Serif" font-size="10.00">FBServer.Core.Entities.Bomb</text>
<polyline fill="none" stroke="black" points="161,-492 305,-492 "/>
<text text-anchor="middle" x="233" y="-480" font-family="Helvetica,sans-Serif" font-size="10.00"> </text>
<polyline fill="none" stroke="black" points="161,-473 305,-473 "/>
<text text-anchor="start" x="169" y="-461" font-family="Helvetica,sans-Serif" font-size="10.00">+ Bomb()</text>
<text text-anchor="start" x="169" y="-450" font-family="Helvetica,sans-Serif" font-size="10.00">+ Update()</text>
<text text-anchor="start" x="169" y="-439" font-family="Helvetica,sans-Serif" font-size="10.00">+ Destroy()</text>
<text text-anchor="start" x="169" y="-428" font-family="Helvetica,sans-Serif" font-size="10.00">+ Remove()</text>
</a>
</g>
</g>
<!-- Node5&#45;&gt;Node7 -->
<g id="edge6" class="edge"><title>Node5&#45;&gt;Node7</title>
<path fill="none" stroke="midnightblue" d="M231.101,-665.103C231.613,-611.664 232.193,-551.248 232.575,-511.338"/>
<polygon fill="none" stroke="midnightblue" points="227.599,-665.307 231.003,-675.34 234.599,-665.374 227.599,-665.307"/>
</g>
<!-- Node9 -->
<g id="node9" class="node"><title>Node9</title>
<g id="a_node9"><a xlink:href="class_f_b_client_1_1_entities_1_1_player.html" target="_top" xlink:title="{FBClient.Entities.Player\n|+ Sprite\l# BombTimerSaved\l# SpeedSaved\l|+ LoadContent()\l+ Update()\l+ Draw()\l+ Destroy()\l+ Remove()\l+ Rebirth()\l+ ChangeLookDirection()\l# Player()\l# Player()\l# Move()\l# UpdatePlayerPosition()\l# GetMovementSpeed()\l# MoveFromEdgeWall()\l# GetTime()\l}">
<polygon fill="white" stroke="black" points="326.5,-355 326.5,-577 451.5,-577 451.5,-355 326.5,-355"/>
<text text-anchor="middle" x="389" y="-565" font-family="Helvetica,sans-Serif" font-size="10.00">FBClient.Entities.Player</text>
<polyline fill="none" stroke="black" points="326.5,-558 451.5,-558 "/>
<text text-anchor="start" x="334.5" y="-546" font-family="Helvetica,sans-Serif" font-size="10.00">+ Sprite</text>
<text text-anchor="start" x="334.5" y="-535" font-family="Helvetica,sans-Serif" font-size="10.00"># BombTimerSaved</text>
<text text-anchor="start" x="334.5" y="-524" font-family="Helvetica,sans-Serif" font-size="10.00"># SpeedSaved</text>
<polyline fill="none" stroke="black" points="326.5,-517 451.5,-517 "/>
<text text-anchor="start" x="334.5" y="-505" font-family="Helvetica,sans-Serif" font-size="10.00">+ LoadContent()</text>
<text text-anchor="start" x="334.5" y="-494" font-family="Helvetica,sans-Serif" font-size="10.00">+ Update()</text>
<text text-anchor="start" x="334.5" y="-483" font-family="Helvetica,sans-Serif" font-size="10.00">+ Draw()</text>
<text text-anchor="start" x="334.5" y="-472" font-family="Helvetica,sans-Serif" font-size="10.00">+ Destroy()</text>
<text text-anchor="start" x="334.5" y="-461" font-family="Helvetica,sans-Serif" font-size="10.00">+ Remove()</text>
<text text-anchor="start" x="334.5" y="-450" font-family="Helvetica,sans-Serif" font-size="10.00">+ Rebirth()</text>
<text text-anchor="start" x="334.5" y="-439" font-family="Helvetica,sans-Serif" font-size="10.00">+ ChangeLookDirection()</text>
<text text-anchor="start" x="334.5" y="-428" font-family="Helvetica,sans-Serif" font-size="10.00"># Player()</text>
<text text-anchor="start" x="334.5" y="-417" font-family="Helvetica,sans-Serif" font-size="10.00"># Player()</text>
<text text-anchor="start" x="334.5" y="-406" font-family="Helvetica,sans-Serif" font-size="10.00"># Move()</text>
<text text-anchor="start" x="334.5" y="-395" font-family="Helvetica,sans-Serif" font-size="10.00"># UpdatePlayerPosition()</text>
<text text-anchor="start" x="334.5" y="-384" font-family="Helvetica,sans-Serif" font-size="10.00"># GetMovementSpeed()</text>
<text text-anchor="start" x="334.5" y="-373" font-family="Helvetica,sans-Serif" font-size="10.00"># MoveFromEdgeWall()</text>
<text text-anchor="start" x="334.5" y="-362" font-family="Helvetica,sans-Serif" font-size="10.00"># GetTime()</text>
</a>
</g>
</g>
<!-- Node8&#45;&gt;Node9 -->
<g id="edge8" class="edge"><title>Node8&#45;&gt;Node9</title>
<path fill="none" stroke="midnightblue" d="M391.199,-604.627C391.049,-595.286 390.902,-586.036 390.757,-577.013"/>
<polygon fill="none" stroke="midnightblue" points="387.702,-604.85 391.361,-614.793 394.701,-604.738 387.702,-604.85"/>
</g>
<!-- Node16 -->
<g id="node16" class="node"><title>Node16</title>
<g id="a_node16"><a xlink:href="class_f_b_server_1_1_core_1_1_player.html" target="_top" xlink:title="{FBServer.Core.Player\n||+ Player()\l+ Player()\l+ SetMovement()\l+ MovePlayer()\l+ Destroy()\l+ Remove()\l# GetMovementSpeed()\l# GetTime()\l}">
<polygon fill="white" stroke="black" points="469.5,-399 469.5,-533 588.5,-533 588.5,-399 469.5,-399"/>
<text text-anchor="middle" x="529" y="-521" font-family="Helvetica,sans-Serif" font-size="10.00">FBServer.Core.Player</text>
<polyline fill="none" stroke="black" points="469.5,-514 588.5,-514 "/>
<text text-anchor="middle" x="529" y="-502" font-family="Helvetica,sans-Serif" font-size="10.00"> </text>
<polyline fill="none" stroke="black" points="469.5,-495 588.5,-495 "/>
<text text-anchor="start" x="477.5" y="-483" font-family="Helvetica,sans-Serif" font-size="10.00">+ Player()</text>
<text text-anchor="start" x="477.5" y="-472" font-family="Helvetica,sans-Serif" font-size="10.00">+ Player()</text>
<text text-anchor="start" x="477.5" y="-461" font-family="Helvetica,sans-Serif" font-size="10.00">+ SetMovement()</text>
<text text-anchor="start" x="477.5" y="-450" font-family="Helvetica,sans-Serif" font-size="10.00">+ MovePlayer()</text>
<text text-anchor="start" x="477.5" y="-439" font-family="Helvetica,sans-Serif" font-size="10.00">+ Destroy()</text>
<text text-anchor="start" x="477.5" y="-428" font-family="Helvetica,sans-Serif" font-size="10.00">+ Remove()</text>
<text text-anchor="start" x="477.5" y="-417" font-family="Helvetica,sans-Serif" font-size="10.00"># GetMovementSpeed()</text>
<text text-anchor="start" x="477.5" y="-406" font-family="Helvetica,sans-Serif" font-size="10.00"># GetTime()</text>
</a>
</g>
</g>
<!-- Node8&#45;&gt;Node16 -->
<g id="edge15" class="edge"><title>Node8&#45;&gt;Node16</title>
<path fill="none" stroke="midnightblue" d="M469.344,-605.313C480.414,-579.648 491.198,-554.646 500.484,-533.115"/>
<polygon fill="none" stroke="midnightblue" points="466.002,-604.224 465.256,-614.793 472.43,-606.996 466.002,-604.224"/>
</g>
<!-- Node10 -->
<g id="node10" class="node"><title>Node10</title>
<polygon fill="white" stroke="#bfbfbf" points="68.5,-194.5 68.5,-295.5 221.5,-295.5 221.5,-194.5 68.5,-194.5"/>
<text text-anchor="middle" x="145" y="-283.5" font-family="Helvetica,sans-Serif" font-size="10.00">FBClient.Core.Players.AIPlayer</text>
<polyline fill="none" stroke="#bfbfbf" points="68.5,-276.5 221.5,-276.5 "/>
<text text-anchor="start" x="76.5" y="-264.5" font-family="Helvetica,sans-Serif" font-size="10.00">+ Path</text>
<polyline fill="none" stroke="#bfbfbf" points="68.5,-257.5 221.5,-257.5 "/>
<text text-anchor="start" x="76.5" y="-245.5" font-family="Helvetica,sans-Serif" font-size="10.00">+ AIPlayer()</text>
<text text-anchor="start" x="76.5" y="-234.5" font-family="Helvetica,sans-Serif" font-size="10.00">+ ApplyBadItem()</text>
<text text-anchor="start" x="76.5" y="-223.5" font-family="Helvetica,sans-Serif" font-size="10.00"># Move()</text>
<text text-anchor="start" x="76.5" y="-212.5" font-family="Helvetica,sans-Serif" font-size="10.00"># MoveFromEdgeWall()</text>
<text text-anchor="start" x="76.5" y="-201.5" font-family="Helvetica,sans-Serif" font-size="10.00"># RemoveBadItem()</text>
</g>
<!-- Node9&#45;&gt;Node10 -->
<g id="edge9" class="edge"><title>Node9&#45;&gt;Node10</title>
<path fill="none" stroke="midnightblue" d="M319.17,-358.481C317.471,-356.94 315.748,-355.445 314,-354 282.693,-328.122 264.546,-339.363 230,-318 219.473,-311.49 208.897,-303.735 198.954,-295.765"/>
<polygon fill="none" stroke="midnightblue" points="316.826,-361.084 326.454,-365.506 321.686,-356.045 316.826,-361.084"/>
</g>
<!-- Node11 -->
<g id="node11" class="node"><title>Node11</title>
<g id="a_node11"><a xlink:href="class_f_b_client_1_1_core_1_1_players_1_1_base_human_player.html" target="_top" xlink:title="{FBClient.Core.Players.Base\lHumanPlayer\n|+ Keys\l+ Buttons\l# GameManager\l# KeysSaved\l# MotionVector\l|+ SetGameManager()\l# BaseHumanPlayer()\l# BaseHumanPlayer()\l# Move()\l}">
<polygon fill="white" stroke="black" points="239.5,-172.5 239.5,-317.5 378.5,-317.5 378.5,-172.5 239.5,-172.5"/>
<text text-anchor="start" x="247.5" y="-305.5" font-family="Helvetica,sans-Serif" font-size="10.00">FBClient.Core.Players.Base</text>
<text text-anchor="middle" x="309" y="-294.5" font-family="Helvetica,sans-Serif" font-size="10.00">HumanPlayer</text>
<polyline fill="none" stroke="black" points="239.5,-287.5 378.5,-287.5 "/>
<text text-anchor="start" x="247.5" y="-275.5" font-family="Helvetica,sans-Serif" font-size="10.00">+ Keys</text>
<text text-anchor="start" x="247.5" y="-264.5" font-family="Helvetica,sans-Serif" font-size="10.00">+ Buttons</text>
<text text-anchor="start" x="247.5" y="-253.5" font-family="Helvetica,sans-Serif" font-size="10.00"># GameManager</text>
<text text-anchor="start" x="247.5" y="-242.5" font-family="Helvetica,sans-Serif" font-size="10.00"># KeysSaved</text>
<text text-anchor="start" x="247.5" y="-231.5" font-family="Helvetica,sans-Serif" font-size="10.00"># MotionVector</text>
<polyline fill="none" stroke="black" points="239.5,-224.5 378.5,-224.5 "/>
<text text-anchor="start" x="247.5" y="-212.5" font-family="Helvetica,sans-Serif" font-size="10.00">+ SetGameManager()</text>
<text text-anchor="start" x="247.5" y="-201.5" font-family="Helvetica,sans-Serif" font-size="10.00"># BaseHumanPlayer()</text>
<text text-anchor="start" x="247.5" y="-190.5" font-family="Helvetica,sans-Serif" font-size="10.00"># BaseHumanPlayer()</text>
<text text-anchor="start" x="247.5" y="-179.5" font-family="Helvetica,sans-Serif" font-size="10.00"># Move()</text>
</a>
</g>
</g>
<!-- Node9&#45;&gt;Node11 -->
<g id="edge10" class="edge"><title>Node9&#45;&gt;Node11</title>
<path fill="none" stroke="midnightblue" d="M345.298,-345.365C341.838,-335.895 338.416,-326.526 335.136,-317.547"/>
<polygon fill="none" stroke="midnightblue" points="342.047,-346.666 348.766,-354.858 348.622,-344.265 342.047,-346.666"/>
</g>
<!-- Node14 -->
<g id="node14" class="node"><title>Node14</title>
<polygon fill="white" stroke="#bfbfbf" points="396.5,-178 396.5,-312 543.5,-312 543.5,-178 396.5,-178"/>
<text text-anchor="start" x="404.5" y="-300" font-family="Helvetica,sans-Serif" font-size="10.00">FBClient.Core.Players.Human</text>
<text text-anchor="middle" x="470" y="-289" font-family="Helvetica,sans-Serif" font-size="10.00">Player_OLD</text>
<polyline fill="none" stroke="#bfbfbf" points="396.5,-282 543.5,-282 "/>
<text text-anchor="start" x="404.5" y="-270" font-family="Helvetica,sans-Serif" font-size="10.00">+ Keys</text>
<text text-anchor="start" x="404.5" y="-259" font-family="Helvetica,sans-Serif" font-size="10.00">+ Buttons</text>
<polyline fill="none" stroke="#bfbfbf" points="396.5,-252 543.5,-252 "/>
<text text-anchor="start" x="404.5" y="-240" font-family="Helvetica,sans-Serif" font-size="10.00">+ HumanPlayer_OLD()</text>
<text text-anchor="start" x="404.5" y="-229" font-family="Helvetica,sans-Serif" font-size="10.00">+ Update()</text>
<text text-anchor="start" x="404.5" y="-218" font-family="Helvetica,sans-Serif" font-size="10.00">+ ApplyBadItem()</text>
<text text-anchor="start" x="404.5" y="-207" font-family="Helvetica,sans-Serif" font-size="10.00"># Move()</text>
<text text-anchor="start" x="404.5" y="-196" font-family="Helvetica,sans-Serif" font-size="10.00"># RemoveBadItem()</text>
<text text-anchor="start" x="404.5" y="-185" font-family="Helvetica,sans-Serif" font-size="10.00"># MoveFromEdgeWall()</text>
</g>
<!-- Node9&#45;&gt;Node14 -->
<g id="edge13" class="edge"><title>Node9&#45;&gt;Node14</title>
<path fill="none" stroke="midnightblue" d="M433.274,-345.295C437.475,-333.939 441.62,-322.73 445.529,-312.163"/>
<polygon fill="none" stroke="midnightblue" points="429.924,-344.265 429.737,-354.858 436.489,-346.694 429.924,-344.265"/>
</g>
<!-- Node15 -->
<g id="node15" class="node"><title>Node15</title>
<polygon fill="white" stroke="#bfbfbf" points="562,-200 562,-290 706,-290 706,-200 562,-200"/>
<text text-anchor="start" x="570" y="-278" font-family="Helvetica,sans-Serif" font-size="10.00">FBClient.Core.Players.Online</text>
<text text-anchor="middle" x="634" y="-267" font-family="Helvetica,sans-Serif" font-size="10.00">Player</text>
<polyline fill="none" stroke="#bfbfbf" points="562,-260 706,-260 "/>
<text text-anchor="middle" x="634" y="-248" font-family="Helvetica,sans-Serif" font-size="10.00"> </text>
<polyline fill="none" stroke="#bfbfbf" points="562,-241 706,-241 "/>
<text text-anchor="start" x="570" y="-229" font-family="Helvetica,sans-Serif" font-size="10.00">+ OnlinePlayer()</text>
<text text-anchor="start" x="570" y="-218" font-family="Helvetica,sans-Serif" font-size="10.00">+ Update()</text>
<text text-anchor="start" x="570" y="-207" font-family="Helvetica,sans-Serif" font-size="10.00"># Move()</text>
</g>
<!-- Node9&#45;&gt;Node15 -->
<g id="edge14" class="edge"><title>Node9&#45;&gt;Node15</title>
<path fill="none" stroke="midnightblue" d="M459.206,-354.657C459.47,-354.437 459.735,-354.218 460,-354 493.937,-326.14 514.494,-340.829 552,-318 564.946,-310.12 577.809,-300.134 589.376,-290.127"/>
<polygon fill="none" stroke="midnightblue" points="456.837,-352.08 451.743,-361.37 461.519,-357.284 456.837,-352.08"/>
</g>
<!-- Node12 -->
<g id="node12" class="node"><title>Node12</title>
<g id="a_node12"><a xlink:href="class_f_b_client_1_1_core_1_1_players_1_1_human_player.html" target="_top" xlink:title="{FBClient.Core.Players.Human\lPlayer\n||+ HumanPlayer()\l+ HumanPlayer()\l+ ApplyBadItem()\l# Move()\l# RemoveBadItem()\l}">
<polygon fill="white" stroke="black" points="153.5,-12 153.5,-124 300.5,-124 300.5,-12 153.5,-12"/>
<text text-anchor="start" x="161.5" y="-112" font-family="Helvetica,sans-Serif" font-size="10.00">FBClient.Core.Players.Human</text>
<text text-anchor="middle" x="227" y="-101" font-family="Helvetica,sans-Serif" font-size="10.00">Player</text>
<polyline fill="none" stroke="black" points="153.5,-94 300.5,-94 "/>
<text text-anchor="middle" x="227" y="-82" font-family="Helvetica,sans-Serif" font-size="10.00"> </text>
<polyline fill="none" stroke="black" points="153.5,-75 300.5,-75 "/>
<text text-anchor="start" x="161.5" y="-63" font-family="Helvetica,sans-Serif" font-size="10.00">+ HumanPlayer()</text>
<text text-anchor="start" x="161.5" y="-52" font-family="Helvetica,sans-Serif" font-size="10.00">+ HumanPlayer()</text>
<text text-anchor="start" x="161.5" y="-41" font-family="Helvetica,sans-Serif" font-size="10.00">+ ApplyBadItem()</text>
<text text-anchor="start" x="161.5" y="-30" font-family="Helvetica,sans-Serif" font-size="10.00"># Move()</text>
<text text-anchor="start" x="161.5" y="-19" font-family="Helvetica,sans-Serif" font-size="10.00"># RemoveBadItem()</text>
</a>
</g>
</g>
<!-- Node11&#45;&gt;Node12 -->
<g id="edge11" class="edge"><title>Node11&#45;&gt;Node12</title>
<path fill="none" stroke="midnightblue" d="M271.152,-163.227C264.968,-150.03 258.688,-136.628 252.879,-124.23"/>
<polygon fill="none" stroke="midnightblue" points="267.998,-164.746 275.411,-172.316 274.337,-161.776 267.998,-164.746"/>
</g>
<!-- Node13 -->
<g id="node13" class="node"><title>Node13</title>
<g id="a_node13"><a xlink:href="class_f_b_client_1_1_core_1_1_players_1_1_online_human_player.html" target="_top" xlink:title="{FBClient.Core.Players.Online\lHumanPlayer\n|+ Ping\l|+ OnlineHumanPlayer()\l+ OnlineHumanPlayer()\l+ ApplyBadItem()\l+ ChangeLookDirection()\l# Move()\l# RemoveBadItem()\l# MoveFromEdgeWall()\l}">
<polygon fill="white" stroke="black" points="319,-1 319,-135 463,-135 463,-1 319,-1"/>
<text text-anchor="start" x="327" y="-123" font-family="Helvetica,sans-Serif" font-size="10.00">FBClient.Core.Players.Online</text>
<text text-anchor="middle" x="391" y="-112" font-family="Helvetica,sans-Serif" font-size="10.00">HumanPlayer</text>
<polyline fill="none" stroke="black" points="319,-105 463,-105 "/>
<text text-anchor="start" x="327" y="-93" font-family="Helvetica,sans-Serif" font-size="10.00">+ Ping</text>
<polyline fill="none" stroke="black" points="319,-86 463,-86 "/>
<text text-anchor="start" x="327" y="-74" font-family="Helvetica,sans-Serif" font-size="10.00">+ OnlineHumanPlayer()</text>
<text text-anchor="start" x="327" y="-63" font-family="Helvetica,sans-Serif" font-size="10.00">+ OnlineHumanPlayer()</text>
<text text-anchor="start" x="327" y="-52" font-family="Helvetica,sans-Serif" font-size="10.00">+ ApplyBadItem()</text>
<text text-anchor="start" x="327" y="-41" font-family="Helvetica,sans-Serif" font-size="10.00">+ ChangeLookDirection()</text>
<text text-anchor="start" x="327" y="-30" font-family="Helvetica,sans-Serif" font-size="10.00"># Move()</text>
<text text-anchor="start" x="327" y="-19" font-family="Helvetica,sans-Serif" font-size="10.00"># RemoveBadItem()</text>
<text text-anchor="start" x="327" y="-8" font-family="Helvetica,sans-Serif" font-size="10.00"># MoveFromEdgeWall()</text>
</a>
</g>
</g>
<!-- Node11&#45;&gt;Node13 -->
<g id="edge12" class="edge"><title>Node11&#45;&gt;Node13</title>
<path fill="none" stroke="midnightblue" d="M346.932,-163.048C351.297,-153.731 355.71,-144.315 359.969,-135.224"/>
<polygon fill="none" stroke="midnightblue" points="343.663,-161.776 342.589,-172.316 350.002,-164.746 343.663,-161.776"/>
</g>
</g>
</svg>
        <g id="navigator" transform="translate(0 0)" fill="#404254">
                <rect fill="#f2f5e9" fill-opacity="0.5" stroke="#606060" stroke-width=".5" x="0" y="0" width="60" height="60"/>
                <use id="zoomplus" xlink:href="#zoomPlus" x="17" y="9" onmousedown="handleZoom(evt,'in')"/>
                <use id="zoomminus" xlink:href="#zoomMin" x="42" y="9" onmousedown="handleZoom(evt,'out')"/>
                <use id="reset" xlink:href="#resetDef" x="30" y="36" onmousedown="handleReset()"/>
                <g id="arrowUp" xlink:href="#dirArrow" transform="translate(30 24)" onmousedown="handlePan(0,-1)">
                  <use xlink:href="#rim" fill="#404040">
                        <set attributeName="fill" to="#808080" begin="arrowUp.mouseover" end="arrowUp.mouseout"/>
                  </use>
                  <path fill="none" stroke="white" stroke-width="1.5" d="M0,-3.0v7 M-2.5,-0.5L0,-3.0L2.5,-0.5"/>
                </g>
                <g id="arrowRight" xlink:href="#dirArrow" transform="rotate(90) translate(36 -43)" onmousedown="handlePan(1,0)">
                  <use xlink:href="#rim" fill="#404040">
                        <set attributeName="fill" to="#808080" begin="arrowRight.mouseover" end="arrowRight.mouseout"/>
                  </use>
                  <path fill="none" stroke="white" stroke-width="1.5" d="M0,-3.0v7 M-2.5,-0.5L0,-3.0L2.5,-0.5"/>
                </g>
                <g id="arrowDown" xlink:href="#dirArrow" transform="rotate(180) translate(-30 -48)" onmousedown="handlePan(0,1)">
                  <use xlink:href="#rim" fill="#404040">
                        <set attributeName="fill" to="#808080" begin="arrowDown.mouseover" end="arrowDown.mouseout"/>
                  </use>
                  <path fill="none" stroke="white" stroke-width="1.5" d="M0,-3.0v7 M-2.5,-0.5L0,-3.0L2.5,-0.5"/>
                </g>
                <g id="arrowLeft" xlink:href="#dirArrow" transform="rotate(270) translate(-36 17)" onmousedown="handlePan(-1,0)">
                  <use xlink:href="#rim" fill="#404040">
                        <set attributeName="fill" to="#808080" begin="arrowLeft.mouseover" end="arrowLeft.mouseout"/>
                  </use>
                  <path fill="none" stroke="white" stroke-width="1.5" d="M0,-3.0v7 M-2.5,-0.5L0,-3.0L2.5,-0.5"/>
                </g>
        </g>
        <svg viewBox="0 0 15 15" width="100%" height="30px" preserveAspectRatio="xMaxYMin meet">
         <g id="arrow_out" transform="scale(0.3 0.3)">
          <a xlink:href="class_f_b_library_1_1_core_1_1_dynamic_entity__inherit__graph_org.svg" target="_base">
           <rect id="button" ry="5" rx="5" y="6" x="6" height="38" width="38"
                fill="#f2f5e9" fill-opacity="0.5" stroke="#606060" stroke-width="1.0"/>
           <path id="arrow"
             d="M 11.500037,31.436501 C 11.940474,20.09759 22.043105,11.32322 32.158766,21.979434 L 37.068811,17.246167 C 37.068811,17.246167 37.088388,32 37.088388,32 L 22.160133,31.978069 C 22.160133,31.978069 26.997745,27.140456 26.997745,27.140456 C 18.528582,18.264221 13.291696,25.230495 11.500037,31.436501 z"
             style="fill:#404040;"/>
          </a>
         </g>
        </svg>
</svg>
