<?xml version="1.0" encoding="UTF-8" standalone="no"?>
<!DOCTYPE svg PUBLIC "-//W3C//DTD SVG 1.1//EN"
 "http://www.w3.org/Graphics/SVG/1.1/DTD/svg11.dtd">
<!-- Generated by graphviz version 2.34.0 (20130907.0111)
 -->
<!-- Title: FBServer.Core.WorldEngine.Map Pages: 1 -->
<svg width="168pt" height="468pt"
 viewBox="0.00 0.00 168.00 468.00" xmlns="http://www.w3.org/2000/svg" xmlns:xlink="http://www.w3.org/1999/xlink">
<g id="graph0" class="graph" transform="scale(1 1) rotate(0) translate(4 464)">
<title>FBServer.Core.WorldEngine.Map</title>
<polygon fill="white" stroke="white" points="-4,4 -4,-464 164,-464 164,4 -4,4"/>
<!-- Node1 -->
<g id="node1" class="node"><title>Node1</title>
<polygon fill="#bfbfbf" stroke="black" points="0,-0.5 0,-79.5 160,-79.5 160,-0.5 0,-0.5"/>
<text text-anchor="middle" x="80" y="-67.5" font-family="Helvetica,sans-Serif" font-size="10.00">FBServer.Core.WorldEngine.Map</text>
<polyline fill="none" stroke="black" points="0,-60.5 160,-60.5 "/>
<text text-anchor="middle" x="80" y="-48.5" font-family="Helvetica,sans-Serif" font-size="10.00"> </text>
<polyline fill="none" stroke="black" points="0,-41.5 160,-41.5 "/>
<text text-anchor="start" x="8" y="-29.5" font-family="Helvetica,sans-Serif" font-size="10.00">+ Map()</text>
<text text-anchor="start" x="8" y="-18.5" font-family="Helvetica,sans-Serif" font-size="10.00"># AddUnbreakableWall()</text>
<text text-anchor="start" x="8" y="-7.5" font-family="Helvetica,sans-Serif" font-size="10.00"># AddEdgeWall()</text>
</g>
<!-- Node2 -->
<g id="node2" class="node"><title>Node2</title>
<g id="a_node2"><a xlink:href="class_f_b_library_1_1_core_1_1_base_entities_1_1_base_map.html" target="_top" xlink:title="{BaseMap\n|+ Name\l+ Loaded\l+ Size\l+ CollisionLayer\l+ PlayerSpawnPoints\l+ PlayerNumber\l|+ Reset()\l+ Parse()\l+ FindEmptyCells()\l+ GetMd5()\l+ DisplayBoard()\l+ DisplayCollisionLayer()\l# BaseMap()\l# AddUnbreakableWall()\l# AddUnbreakableWall()\l# AddEdgeWall()\l# AddEdgeWall()\l}">
<polygon fill="white" stroke="black" points="17.5,-119 17.5,-341 142.5,-341 142.5,-119 17.5,-119"/>
<text text-anchor="middle" x="80" y="-329" font-family="Helvetica,sans-Serif" font-size="10.00">BaseMap</text>
<polyline fill="none" stroke="black" points="17.5,-322 142.5,-322 "/>
<text text-anchor="start" x="25.5" y="-310" font-family="Helvetica,sans-Serif" font-size="10.00">+ Name</text>
<text text-anchor="start" x="25.5" y="-299" font-family="Helvetica,sans-Serif" font-size="10.00">+ Loaded</text>
<text text-anchor="start" x="25.5" y="-288" font-family="Helvetica,sans-Serif" font-size="10.00">+ Size</text>
<text text-anchor="start" x="25.5" y="-277" font-family="Helvetica,sans-Serif" font-size="10.00">+ CollisionLayer</text>
<text text-anchor="start" x="25.5" y="-266" font-family="Helvetica,sans-Serif" font-size="10.00">+ PlayerSpawnPoints</text>
<text text-anchor="start" x="25.5" y="-255" font-family="Helvetica,sans-Serif" font-size="10.00">+ PlayerNumber</text>
<polyline fill="none" stroke="black" points="17.5,-248 142.5,-248 "/>
<text text-anchor="start" x="25.5" y="-236" font-family="Helvetica,sans-Serif" font-size="10.00">+ Reset()</text>
<text text-anchor="start" x="25.5" y="-225" font-family="Helvetica,sans-Serif" font-size="10.00">+ Parse()</text>
<text text-anchor="start" x="25.5" y="-214" font-family="Helvetica,sans-Serif" font-size="10.00">+ FindEmptyCells()</text>
<text text-anchor="start" x="25.5" y="-203" font-family="Helvetica,sans-Serif" font-size="10.00">+ GetMd5()</text>
<text text-anchor="start" x="25.5" y="-192" font-family="Helvetica,sans-Serif" font-size="10.00">+ DisplayBoard()</text>
<text text-anchor="start" x="25.5" y="-181" font-family="Helvetica,sans-Serif" font-size="10.00">+ DisplayCollisionLayer()</text>
<text text-anchor="start" x="25.5" y="-170" font-family="Helvetica,sans-Serif" font-size="10.00"># BaseMap()</text>
<text text-anchor="start" x="25.5" y="-159" font-family="Helvetica,sans-Serif" font-size="10.00"># AddUnbreakableWall()</text>
<text text-anchor="start" x="25.5" y="-148" font-family="Helvetica,sans-Serif" font-size="10.00"># AddUnbreakableWall()</text>
<text text-anchor="start" x="25.5" y="-137" font-family="Helvetica,sans-Serif" font-size="10.00"># AddEdgeWall()</text>
<text text-anchor="start" x="25.5" y="-126" font-family="Helvetica,sans-Serif" font-size="10.00"># AddEdgeWall()</text>
</a>
</g>
</g>
<!-- Node2&#45;&gt;Node1 -->
<g id="edge1" class="edge"><title>Node2&#45;&gt;Node1</title>
<path fill="none" stroke="midnightblue" d="M80,-108.797C80,-98.466 80,-88.5942 80,-79.7373"/>
<polygon fill="none" stroke="midnightblue" points="76.5001,-108.824 80,-118.824 83.5001,-108.824 76.5001,-108.824"/>
</g>
<!-- Node3 -->
<g id="node3" class="node"><title>Node3</title>
<g id="a_node3"><a xlink:href="interface_f_b_library_1_1_core_1_1_i_entity.html" target="_top" xlink:title="{FBLibrary.Core.IEntity\n||+ Destroy()\l+ Remove()\l}">
<polygon fill="white" stroke="black" points="23.5,-391 23.5,-459 136.5,-459 136.5,-391 23.5,-391"/>
<text text-anchor="middle" x="80" y="-447" font-family="Helvetica,sans-Serif" font-size="10.00">FBLibrary.Core.IEntity</text>
<polyline fill="none" stroke="black" points="23.5,-440 136.5,-440 "/>
<text text-anchor="middle" x="80" y="-428" font-family="Helvetica,sans-Serif" font-size="10.00"> </text>
<polyline fill="none" stroke="black" points="23.5,-421 136.5,-421 "/>
<text text-anchor="start" x="31.5" y="-409" font-family="Helvetica,sans-Serif" font-size="10.00">+ Destroy()</text>
<text text-anchor="start" x="31.5" y="-398" font-family="Helvetica,sans-Serif" font-size="10.00">+ Remove()</text>
</a>
</g>
</g>
<!-- Node3&#45;&gt;Node2 -->
<g id="edge2" class="edge"><title>Node3&#45;&gt;Node2</title>
<path fill="none" stroke="#404040" d="M80,-390.822C80,-379.902 80,-367.045 80,-353.446"/>
<polygon fill="none" stroke="#404040" points="80.0001,-353.334 76,-347.334 80,-341.334 84,-347.334 80.0001,-353.334"/>
<text text-anchor="middle" x="97.5" y="-363.5" font-family="Helvetica,sans-Serif" font-size="10.00"> +Board</text>
</g>
</g>
</svg>
