<?xml version="1.0" encoding="UTF-8" standalone="no"?>
<!DOCTYPE svg PUBLIC "-//W3C//DTD SVG 1.1//EN"
 "http://www.w3.org/Graphics/SVG/1.1/DTD/svg11.dtd">
<!-- Generated by graphviz version 2.34.0 (20130907.0111)
 -->
<!-- Title: FBClient.Screens.GameScreens.NetworkGamePlayScreen Pages: 1 -->
<!--zoomable 280 -->
<svg id="main" version="1.1" xmlns="http://www.w3.org/2000/svg" xmlns:xlink="http://www.w3.org/1999/xlink" xml:space="preserve" onload="init(evt)">
<style type="text/css"><![CDATA[
.edge:hover path { stroke: red; }
.edge:hover polygon { stroke: red; fill: red; }
]]></style>
<script type="text/javascript"><![CDATA[
var edges = document.getElementsByTagName('g');
if (edges && edges.length) {
  for (var i=0;i<edges.length;i++) {
    if (edges[i].id.substr(0,4)=='edge') {
      edges[i].setAttribute('class','edge');
    }
  }
}
]]></script>
        <defs>
                <circle id="rim" cx="0" cy="0" r="7"/>
                <circle id="rim2" cx="0" cy="0" r="3.5"/>
                <g id="zoomPlus">
                        <use xlink:href="#rim" fill="#404040">
                                <set attributeName="fill" to="#808080" begin="zoomplus.mouseover" end="zoomplus.mouseout"/>
                        </use>
                        <path d="M-4,0h8M0,-4v8" fill="none" stroke="white" stroke-width="1.5" pointer-events="none"/>
                </g>
                <g id="zoomMin">
                        <use xlink:href="#rim" fill="#404040">
                                <set attributeName="fill" to="#808080" begin="zoomminus.mouseover" end="zoomminus.mouseout"/>
                        </use>
                        <path d="M-4,0h8" fill="none" stroke="white" stroke-width="1.5" pointer-events="none"/>
                </g>
                <g id="dirArrow">
                        <path fill="none" stroke="white" stroke-width="1.5" d="M0,-3.0v7 M-2.5,-0.5L0,-3.0L2.5,-0.5"/>
                </g>
               <g id="resetDef">
                       <use xlink:href="#rim2" fill="#404040">
                               <set attributeName="fill" to="#808080" begin="reset.mouseover" end="reset.mouseout"/>
                       </use>
               </g>
        </defs>

<script type="text/javascript">
var viewWidth = 1806;
var viewHeight = 280;
var sectionId = 'dynsection-1';
</script>
<script xlink:href="svgpan.js"/>
<svg id="graph" class="graph">
<g id="viewport">
<title>FBClient.Screens.GameScreens.NetworkGamePlayScreen</title>
<polygon fill="white" stroke="white" points="-4,4 -4,-276 1802,-276 1802,4 -4,4"/>
<!-- Node1 -->
<g id="node1" class="node"><title>Node1</title>
<polygon fill="#bfbfbf" stroke="black" points="1636.5,-147 1636.5,-177 1797.5,-177 1797.5,-147 1636.5,-147"/>
<text text-anchor="start" x="1644.5" y="-165" font-family="Helvetica,sans-Serif" font-size="10.00">FBClient.Screens.GameScreens.</text>
<text text-anchor="middle" x="1717" y="-154" font-family="Helvetica,sans-Serif" font-size="10.00">NetworkGamePlayScreen</text>
</g>
<!-- Node2 -->
<g id="node2" class="node"><title>Node2</title>
<g id="a_node2"><a xlink:href="class_f_b_client_1_1_screens_1_1_game_screens_1_1_base_game_play_screen.html" target="_top" xlink:title="BaseGamePlayScreen">
<polygon fill="white" stroke="black" points="1040,-178.5 1040,-197.5 1156,-197.5 1156,-178.5 1040,-178.5"/>
<text text-anchor="middle" x="1098" y="-185.5" font-family="Helvetica,sans-Serif" font-size="10.00">BaseGamePlayScreen</text>
</a>
</g>
</g>
<!-- Node2&#45;&gt;Node1 -->
<g id="edge1" class="edge"><title>Node2&#45;&gt;Node1</title>
<path fill="none" stroke="midnightblue" d="M1166.27,-185.165C1280.99,-180.331 1513.89,-170.517 1636.47,-165.351"/>
<polygon fill="midnightblue" stroke="midnightblue" points="1166.06,-181.671 1156.22,-185.589 1166.35,-188.665 1166.06,-181.671"/>
</g>
<!-- Node3 -->
<g id="node3" class="node"><title>Node3</title>
<g id="a_node3"><a xlink:href="class_f_b_client_1_1_screens_1_1_base_game_state.html" target="_top" xlink:title="BaseGameState">
<polygon fill="white" stroke="black" points="792.5,-175.5 792.5,-194.5 881.5,-194.5 881.5,-175.5 792.5,-175.5"/>
<text text-anchor="middle" x="837" y="-182.5" font-family="Helvetica,sans-Serif" font-size="10.00">BaseGameState</text>
</a>
</g>
</g>
<!-- Node3&#45;&gt;Node2 -->
<g id="edge2" class="edge"><title>Node3&#45;&gt;Node2</title>
<path fill="none" stroke="midnightblue" d="M891.674,-185.622C934.848,-186.122 995.379,-186.823 1039.53,-187.334"/>
<polygon fill="midnightblue" stroke="midnightblue" points="891.683,-182.122 881.643,-185.506 891.602,-189.121 891.683,-182.122"/>
</g>
<!-- Node4 -->
<g id="node4" class="node"><title>Node4</title>
<g id="a_node4"><a xlink:href="class_f_b_client_1_1_controls_1_1_game_state.html" target="_top" xlink:title="GameState">
<polygon fill="white" stroke="black" points="551,-175.5 551,-194.5 617,-194.5 617,-175.5 551,-175.5"/>
<text text-anchor="middle" x="584" y="-182.5" font-family="Helvetica,sans-Serif" font-size="10.00">GameState</text>
</a>
</g>
</g>
<!-- Node4&#45;&gt;Node3 -->
<g id="edge3" class="edge"><title>Node4&#45;&gt;Node3</title>
<path fill="none" stroke="midnightblue" d="M627.242,-185C673.095,-185 745.963,-185 792.357,-185"/>
<polygon fill="midnightblue" stroke="midnightblue" points="627.044,-181.5 617.044,-185 627.044,-188.5 627.044,-181.5"/>
</g>
<!-- Node5 -->
<g id="node5" class="node"><title>Node5</title>
<polygon fill="white" stroke="#bfbfbf" points="269,-214.5 269,-233.5 401,-233.5 401,-214.5 269,-214.5"/>
<text text-anchor="middle" x="335" y="-221.5" font-family="Helvetica,sans-Serif" font-size="10.00">DrawableGameComponent</text>
</g>
<!-- Node5&#45;&gt;Node4 -->
<g id="edge4" class="edge"><title>Node5&#45;&gt;Node4</title>
<path fill="none" stroke="midnightblue" d="M410.988,-213.059C439.504,-208.806 472.275,-203.807 502,-199 518.06,-196.403 535.879,-193.343 550.706,-190.747"/>
<polygon fill="midnightblue" stroke="midnightblue" points="410.468,-209.597 401.092,-214.53 411.498,-216.521 410.468,-209.597"/>
</g>
<!-- Node6 -->
<g id="node6" class="node"><title>Node6</title>
<g id="a_node6"><a xlink:href="class_f_b_client_1_1_controls_1_1_game_state_manager.html" target="_top" xlink:title="FBClient.Controls.GameState\lManager">
<polygon fill="white" stroke="black" points="262,-165 262,-195 408,-195 408,-165 262,-165"/>
<text text-anchor="start" x="270" y="-183" font-family="Helvetica,sans-Serif" font-size="10.00">FBClient.Controls.GameState</text>
<text text-anchor="middle" x="335" y="-172" font-family="Helvetica,sans-Serif" font-size="10.00">Manager</text>
</a>
</g>
</g>
<!-- Node6&#45;&gt;Node4 -->
<g id="edge5" class="edge"><title>Node6&#45;&gt;Node4</title>
<path fill="none" stroke="#9a32cd" stroke-dasharray="5,2" d="M418.248,-181.665C463.633,-182.584 517.415,-183.672 550.879,-184.35"/>
<polygon fill="#9a32cd" stroke="#9a32cd" points="418.175,-178.163 408.107,-181.46 418.034,-185.161 418.175,-178.163"/>
<text text-anchor="middle" x="464" y="-187" font-family="Helvetica,sans-Serif" font-size="10.00"> StateManager</text>
</g>
<!-- Node7 -->
<g id="node7" class="node"><title>Node7</title>
<polygon fill="white" stroke="#bfbfbf" points="93,-170.5 93,-189.5 185,-189.5 185,-170.5 93,-170.5"/>
<text text-anchor="middle" x="139" y="-177.5" font-family="Helvetica,sans-Serif" font-size="10.00">GameComponent</text>
</g>
<!-- Node7&#45;&gt;Node6 -->
<g id="edge6" class="edge"><title>Node7&#45;&gt;Node6</title>
<path fill="none" stroke="midnightblue" d="M195.652,-180C216.277,-180 239.97,-180 261.853,-180"/>
<polygon fill="midnightblue" stroke="midnightblue" points="195.484,-176.5 185.484,-180 195.484,-183.5 195.484,-176.5"/>
</g>
<!-- Node8 -->
<g id="node8" class="node"><title>Node8</title>
<g id="a_node8"><a xlink:href="class_f_b_client_1_1_controls_1_1_control_manager.html" target="_top" xlink:title="FBClient.Controls.Control\lManager">
<polygon fill="white" stroke="black" points="520.5,-233 520.5,-263 647.5,-263 647.5,-233 520.5,-233"/>
<text text-anchor="start" x="528.5" y="-251" font-family="Helvetica,sans-Serif" font-size="10.00">FBClient.Controls.Control</text>
<text text-anchor="middle" x="584" y="-240" font-family="Helvetica,sans-Serif" font-size="10.00">Manager</text>
</a>
</g>
</g>
<!-- Node8&#45;&gt;Node3 -->
<g id="edge7" class="edge"><title>Node8&#45;&gt;Node3</title>
<path fill="none" stroke="#9a32cd" stroke-dasharray="5,2" d="M652.297,-230.375C683.764,-222.213 721.764,-212.469 756,-204 768.749,-200.846 782.667,-197.505 795.266,-194.519"/>
<polygon fill="#9a32cd" stroke="#9a32cd" points="651.121,-227.064 642.323,-232.966 652.881,-233.839 651.121,-227.064"/>
<text text-anchor="middle" x="702" y="-230" font-family="Helvetica,sans-Serif" font-size="10.00"> ControlManager</text>
</g>
<!-- Node9 -->
<g id="node9" class="node"><title>Node9</title>
<polygon fill="white" stroke="#bfbfbf" points="294.5,-252.5 294.5,-271.5 375.5,-271.5 375.5,-252.5 294.5,-252.5"/>
<text text-anchor="middle" x="335" y="-259.5" font-family="Helvetica,sans-Serif" font-size="10.00">List&lt; Control &gt;</text>
</g>
<!-- Node9&#45;&gt;Node8 -->
<g id="edge8" class="edge"><title>Node9&#45;&gt;Node8</title>
<path fill="none" stroke="midnightblue" d="M385.689,-259.184C424.451,-256.987 478.534,-253.921 520.277,-251.555"/>
<polygon fill="midnightblue" stroke="midnightblue" points="385.471,-255.69 375.685,-259.751 385.867,-262.679 385.471,-255.69"/>
</g>
<!-- Node10 -->
<g id="node10" class="node"><title>Node10</title>
<g id="a_node10"><a xlink:href="class_f_b_client_1_1_core_1_1_game_manager.html" target="_top" xlink:title="This class is used to regroup common behaviors between network and local game logic. ">
<polygon fill="white" stroke="black" points="765,-120.5 765,-139.5 909,-139.5 909,-120.5 765,-120.5"/>
<text text-anchor="middle" x="837" y="-127.5" font-family="Helvetica,sans-Serif" font-size="10.00">FBClient.Core.GameManager</text>
</a>
</g>
</g>
<!-- Node10&#45;&gt;Node2 -->
<g id="edge9" class="edge"><title>Node10&#45;&gt;Node2</title>
<path fill="none" stroke="#9a32cd" stroke-dasharray="5,2" d="M890.433,-141.742C938.764,-152.565 1009.61,-168.429 1054.5,-178.482"/>
<polygon fill="#9a32cd" stroke="#9a32cd" points="891.002,-138.282 880.479,-139.513 889.472,-145.113 891.002,-138.282"/>
<text text-anchor="middle" x="979" y="-174" font-family="Helvetica,sans-Serif" font-size="10.00"> GameManager</text>
</g>
<!-- Node20 -->
<g id="node20" class="node"><title>Node20</title>
<g id="a_node20"><a xlink:href="class_f_b_client_1_1_core_1_1_players_1_1_base_human_player.html" target="_top" xlink:title="BaseHumanPlayer">
<polygon fill="white" stroke="black" points="1049,-118.5 1049,-137.5 1147,-137.5 1147,-118.5 1049,-118.5"/>
<text text-anchor="middle" x="1098" y="-125.5" font-family="Helvetica,sans-Serif" font-size="10.00">BaseHumanPlayer</text>
</a>
</g>
</g>
<!-- Node10&#45;&gt;Node20 -->
<g id="edge26" class="edge"><title>Node10&#45;&gt;Node20</title>
<path fill="none" stroke="#9a32cd" stroke-dasharray="5,2" d="M919.35,-129.145C924.985,-129.093 930.577,-129.045 936,-129 973.874,-128.689 1016.76,-128.427 1048.74,-128.249"/>
<polygon fill="#9a32cd" stroke="#9a32cd" points="919.155,-125.647 909.189,-129.24 919.221,-132.646 919.155,-125.647"/>
<text text-anchor="middle" x="979" y="-132" font-family="Helvetica,sans-Serif" font-size="10.00"> GameManager</text>
</g>
<!-- Node11 -->
<g id="node11" class="node"><title>Node11</title>
<g id="a_node11"><a xlink:href="class_f_b_library_1_1_core_1_1_base_game_manager.html" target="_top" xlink:title="BaseGameManager">
<polygon fill="white" stroke="black" points="532.5,-84.5 532.5,-103.5 635.5,-103.5 635.5,-84.5 532.5,-84.5"/>
<text text-anchor="middle" x="584" y="-91.5" font-family="Helvetica,sans-Serif" font-size="10.00">BaseGameManager</text>
</a>
</g>
</g>
<!-- Node11&#45;&gt;Node10 -->
<g id="edge10" class="edge"><title>Node11&#45;&gt;Node10</title>
<path fill="none" stroke="midnightblue" d="M646.039,-102.755C683.405,-108.114 731.237,-114.974 769.555,-120.47"/>
<polygon fill="midnightblue" stroke="midnightblue" points="646.189,-99.2404 635.794,-101.285 645.195,-106.17 646.189,-99.2404"/>
</g>
<!-- Node12 -->
<g id="node12" class="node"><title>Node12</title>
<g id="a_node12"><a xlink:href="class_f_b_library_1_1_core_1_1_base_entities_1_1_base_map.html" target="_top" xlink:title="FBLibrary.Core.BaseEntities.\lBaseMap">
<polygon fill="white" stroke="black" points="263.5,-77 263.5,-107 406.5,-107 406.5,-77 263.5,-77"/>
<text text-anchor="start" x="271.5" y="-95" font-family="Helvetica,sans-Serif" font-size="10.00">FBLibrary.Core.BaseEntities.</text>
<text text-anchor="middle" x="335" y="-84" font-family="Helvetica,sans-Serif" font-size="10.00">BaseMap</text>
</a>
</g>
</g>
<!-- Node12&#45;&gt;Node11 -->
<g id="edge11" class="edge"><title>Node12&#45;&gt;Node11</title>
<path fill="none" stroke="#9a32cd" stroke-dasharray="5,2" d="M416.81,-92.6543C454.818,-92.9621 498.976,-93.3196 532.218,-93.5888"/>
<polygon fill="#9a32cd" stroke="#9a32cd" points="416.808,-89.1543 406.78,-92.5731 416.752,-96.1541 416.808,-89.1543"/>
<text text-anchor="middle" x="464" y="-97" font-family="Helvetica,sans-Serif" font-size="10.00"> BaseCurrentMap</text>
</g>
<!-- Node13 -->
<g id="node13" class="node"><title>Node13</title>
<g id="a_node13"><a xlink:href="interface_f_b_library_1_1_core_1_1_i_entity.html" target="_top" xlink:title="FBLibrary.Core.IEntity">
<polygon fill="white" stroke="black" points="82.5,-82.5 82.5,-101.5 195.5,-101.5 195.5,-82.5 82.5,-82.5"/>
<text text-anchor="middle" x="139" y="-89.5" font-family="Helvetica,sans-Serif" font-size="10.00">FBLibrary.Core.IEntity</text>
</a>
</g>
</g>
<!-- Node13&#45;&gt;Node12 -->
<g id="edge12" class="edge"><title>Node13&#45;&gt;Node12</title>
<path fill="none" stroke="#9a32cd" stroke-dasharray="5,2" d="M205.674,-92C224.173,-92 244.373,-92 263.16,-92"/>
<polygon fill="#9a32cd" stroke="#9a32cd" points="205.593,-88.5001 195.593,-92 205.593,-95.5001 205.593,-88.5001"/>
<text text-anchor="middle" x="229" y="-95" font-family="Helvetica,sans-Serif" font-size="10.00"> Board</text>
</g>
<!-- Node14 -->
<g id="node14" class="node"><title>Node14</title>
<g id="a_node14"><a xlink:href="class_player_collection.html" target="_top" xlink:title="PlayerCollection">
<polygon fill="white" stroke="black" points="540.5,-125.5 540.5,-144.5 627.5,-144.5 627.5,-125.5 540.5,-125.5"/>
<text text-anchor="middle" x="584" y="-132.5" font-family="Helvetica,sans-Serif" font-size="10.00">PlayerCollection</text>
</a>
</g>
</g>
<!-- Node14&#45;&gt;Node10 -->
<g id="edge13" class="edge"><title>Node14&#45;&gt;Node10</title>
<path fill="none" stroke="#9a32cd" stroke-dasharray="5,2" d="M637.62,-133.952C674.494,-133.217 724.212,-132.227 764.651,-131.421"/>
<polygon fill="#9a32cd" stroke="#9a32cd" points="637.507,-130.453 627.579,-134.152 637.646,-137.452 637.507,-130.453"/>
<text text-anchor="middle" x="702" y="-137" font-family="Helvetica,sans-Serif" font-size="10.00"> Players</text>
</g>
<!-- Node15 -->
<g id="node15" class="node"><title>Node15</title>
<polygon fill="white" stroke="#bfbfbf" points="296,-126.5 296,-145.5 374,-145.5 374,-126.5 296,-126.5"/>
<text text-anchor="middle" x="335" y="-133.5" font-family="Helvetica,sans-Serif" font-size="10.00">List&lt; Player &gt;</text>
</g>
<!-- Node15&#45;&gt;Node14 -->
<g id="edge14" class="edge"><title>Node15&#45;&gt;Node14</title>
<path fill="none" stroke="midnightblue" d="M384.235,-135.805C429.605,-135.621 496.884,-135.349 540.341,-135.173"/>
<polygon fill="midnightblue" stroke="midnightblue" points="384.038,-132.305 374.052,-135.846 384.067,-139.305 384.038,-132.305"/>
</g>
<!-- Node16 -->
<g id="node16" class="node"><title>Node16</title>
<g id="a_node16"><a xlink:href="class_f_b_client_1_1_g_u_i_1_1_window_box.html" target="_top" xlink:title="FBClient.GUI.WindowBox">
<polygon fill="white" stroke="black" points="773,-251.5 773,-270.5 901,-270.5 901,-251.5 773,-251.5"/>
<text text-anchor="middle" x="837" y="-258.5" font-family="Helvetica,sans-Serif" font-size="10.00">FBClient.GUI.WindowBox</text>
</a>
</g>
</g>
<!-- Node16&#45;&gt;Node2 -->
<g id="edge15" class="edge"><title>Node16&#45;&gt;Node2</title>
<path fill="none" stroke="#9a32cd" stroke-dasharray="5,2" d="M911.35,-253.197C945.607,-248.207 986.556,-240.288 1022,-228 1044.17,-220.315 1067.73,-206.746 1082.41,-197.566"/>
<polygon fill="#9a32cd" stroke="#9a32cd" points="910.83,-249.736 901.413,-254.591 911.802,-256.668 910.83,-249.736"/>
<text text-anchor="middle" x="979" y="-263" font-family="Helvetica,sans-Serif" font-size="10.00"> ScoresWindowBox</text>
<text text-anchor="middle" x="979" y="-252" font-family="Helvetica,sans-Serif" font-size="10.00">TimerWindowBox</text>
</g>
<!-- Node17 -->
<g id="node17" class="node"><title>Node17</title>
<g id="a_node17"><a xlink:href="class_f_b_client_1_1_world_engine_1_1_camera2_d.html" target="_top" xlink:title="FBClient.WorldEngine.Camera2D">
<polygon fill="white" stroke="black" points="756.5,-213.5 756.5,-232.5 917.5,-232.5 917.5,-213.5 756.5,-213.5"/>
<text text-anchor="middle" x="837" y="-220.5" font-family="Helvetica,sans-Serif" font-size="10.00">FBClient.WorldEngine.Camera2D</text>
</a>
</g>
</g>
<!-- Node17&#45;&gt;Node2 -->
<g id="edge16" class="edge"><title>Node17&#45;&gt;Node2</title>
<path fill="none" stroke="#9a32cd" stroke-dasharray="5,2" d="M927.845,-213.216C957.833,-209.696 991.398,-205.478 1022,-201 1029.19,-199.948 1036.75,-198.747 1044.2,-197.511"/>
<polygon fill="#9a32cd" stroke="#9a32cd" points="927.35,-209.75 917.822,-214.383 928.159,-216.703 927.35,-209.75"/>
<text text-anchor="middle" x="979" y="-216" font-family="Helvetica,sans-Serif" font-size="10.00"> Camera</text>
</g>
<!-- Node18 -->
<g id="node18" class="node"><title>Node18</title>
<g id="a_node18"><a xlink:href="class_f_b_client_1_1_network_1_1_network_manager.html" target="_top" xlink:title="FBClient.Network.Network\lManager">
<polygon fill="white" stroke="black" points="1392.5,-121 1392.5,-151 1523.5,-151 1523.5,-121 1392.5,-121"/>
<text text-anchor="start" x="1400.5" y="-139" font-family="Helvetica,sans-Serif" font-size="10.00">FBClient.Network.Network</text>
<text text-anchor="middle" x="1458" y="-128" font-family="Helvetica,sans-Serif" font-size="10.00">Manager</text>
</a>
</g>
</g>
<!-- Node18&#45;&gt;Node1 -->
<g id="edge17" class="edge"><title>Node18&#45;&gt;Node1</title>
<path fill="none" stroke="#9a32cd" stroke-dasharray="5,2" d="M1533.76,-143.563C1565.93,-146.817 1603.57,-150.626 1636.27,-153.934"/>
<polygon fill="#9a32cd" stroke="#9a32cd" points="1533.82,-140.052 1523.52,-142.527 1533.12,-147.016 1533.82,-140.052"/>
<text text-anchor="middle" x="1580" y="-155" font-family="Helvetica,sans-Serif" font-size="10.00"> NetworkManager</text>
</g>
<!-- Node19 -->
<g id="node19" class="node"><title>Node19</title>
<g id="a_node19"><a xlink:href="class_f_b_client_1_1_core_1_1_players_1_1_online_human_player.html" target="_top" xlink:title="FBClient.Core.Players.Online\lHumanPlayer">
<polygon fill="white" stroke="black" points="1194,-119 1194,-149 1338,-149 1338,-119 1194,-119"/>
<text text-anchor="start" x="1202" y="-137" font-family="Helvetica,sans-Serif" font-size="10.00">FBClient.Core.Players.Online</text>
<text text-anchor="middle" x="1266" y="-126" font-family="Helvetica,sans-Serif" font-size="10.00">HumanPlayer</text>
</a>
</g>
</g>
<!-- Node19&#45;&gt;Node18 -->
<g id="edge18" class="edge"><title>Node19&#45;&gt;Node18</title>
<path fill="none" stroke="#9a32cd" stroke-dasharray="5,2" d="M1348.15,-134.854C1362.91,-135.01 1378.13,-135.17 1392.33,-135.319"/>
<polygon fill="#9a32cd" stroke="#9a32cd" points="1348.06,-131.353 1338.02,-134.748 1347.98,-138.353 1348.06,-131.353"/>
<text text-anchor="middle" x="1365" y="-139" font-family="Helvetica,sans-Serif" font-size="10.00"> Me</text>
</g>
<!-- Node20&#45;&gt;Node19 -->
<g id="edge19" class="edge"><title>Node20&#45;&gt;Node19</title>
<path fill="none" stroke="midnightblue" d="M1157.22,-130.104C1169.08,-130.533 1181.68,-130.989 1193.93,-131.431"/>
<polygon fill="midnightblue" stroke="midnightblue" points="1157.13,-126.599 1147.01,-129.735 1156.88,-133.594 1157.13,-126.599"/>
</g>
<!-- Node21 -->
<g id="node21" class="node"><title>Node21</title>
<g id="a_node21"><a xlink:href="class_f_b_client_1_1_entities_1_1_player.html" target="_top" xlink:title="Player">
<polygon fill="white" stroke="black" points="815,-53.5 815,-72.5 859,-72.5 859,-53.5 815,-53.5"/>
<text text-anchor="middle" x="837" y="-60.5" font-family="Helvetica,sans-Serif" font-size="10.00">Player</text>
</a>
</g>
</g>
<!-- Node21&#45;&gt;Node20 -->
<g id="edge20" class="edge"><title>Node21&#45;&gt;Node20</title>
<path fill="none" stroke="midnightblue" d="M868.931,-70.7626C916.494,-82.6993 1007.48,-105.533 1058.99,-118.46"/>
<polygon fill="midnightblue" stroke="midnightblue" points="869.746,-67.3587 859.195,-68.3192 868.042,-74.1482 869.746,-67.3587"/>
</g>
<!-- Node22 -->
<g id="node22" class="node"><title>Node22</title>
<g id="a_node22"><a xlink:href="class_f_b_library_1_1_core_1_1_base_entities_1_1_base_player.html" target="_top" xlink:title="BasePlayer">
<polygon fill="white" stroke="black" points="550.5,-38.5 550.5,-57.5 617.5,-57.5 617.5,-38.5 550.5,-38.5"/>
<text text-anchor="middle" x="584" y="-45.5" font-family="Helvetica,sans-Serif" font-size="10.00">BasePlayer</text>
</a>
</g>
</g>
<!-- Node22&#45;&gt;Node21 -->
<g id="edge21" class="edge"><title>Node22&#45;&gt;Node21</title>
<path fill="none" stroke="midnightblue" d="M627.564,-50.5437C681.862,-53.7885 773.66,-59.2745 814.868,-61.7371"/>
<polygon fill="midnightblue" stroke="midnightblue" points="627.748,-47.0485 617.557,-49.9456 627.33,-54.036 627.748,-47.0485"/>
</g>
<!-- Node23 -->
<g id="node23" class="node"><title>Node23</title>
<g id="a_node23"><a xlink:href="class_f_b_library_1_1_core_1_1_dynamic_entity.html" target="_top" xlink:title="DynamicEntity">
<polygon fill="white" stroke="black" points="295,-0.5 295,-19.5 375,-19.5 375,-0.5 295,-0.5"/>
<text text-anchor="middle" x="335" y="-7.5" font-family="Helvetica,sans-Serif" font-size="10.00">DynamicEntity</text>
</a>
</g>
</g>
<!-- Node23&#45;&gt;Node22 -->
<g id="edge22" class="edge"><title>Node23&#45;&gt;Node22</title>
<path fill="none" stroke="midnightblue" d="M385.204,-17.5698C434.239,-25.1136 508.143,-36.4836 550.356,-42.9778"/>
<polygon fill="midnightblue" stroke="midnightblue" points="385.554,-14.0826 375.138,-16.0212 384.489,-21.0012 385.554,-14.0826"/>
</g>
<!-- Node24 -->
<g id="node24" class="node"><title>Node24</title>
<g id="a_node24"><a xlink:href="class_f_b_library_1_1_core_1_1_base_entity.html" target="_top" xlink:title="BaseEntity">
<polygon fill="white" stroke="black" points="106.5,-0.5 106.5,-19.5 171.5,-19.5 171.5,-0.5 106.5,-0.5"/>
<text text-anchor="middle" x="139" y="-7.5" font-family="Helvetica,sans-Serif" font-size="10.00">BaseEntity</text>
</a>
</g>
</g>
<!-- Node24&#45;&gt;Node23 -->
<g id="edge23" class="edge"><title>Node24&#45;&gt;Node23</title>
<path fill="none" stroke="midnightblue" d="M181.974,-10C215.438,-10 261.96,-10 294.702,-10"/>
<polygon fill="midnightblue" stroke="midnightblue" points="181.601,-6.5001 171.601,-10 181.601,-13.5001 181.601,-6.5001"/>
</g>
<!-- Node25 -->
<g id="node25" class="node"><title>Node25</title>
<g id="a_node25"><a xlink:href="interface_f_b_library_1_1_core_1_1_i_entity.html" target="_top" xlink:title="IEntity">
<polygon fill="white" stroke="black" points="0,-0.5 0,-19.5 44,-19.5 44,-0.5 0,-0.5"/>
<text text-anchor="middle" x="22" y="-7.5" font-family="Helvetica,sans-Serif" font-size="10.00">IEntity</text>
</a>
</g>
</g>
<!-- Node25&#45;&gt;Node24 -->
<g id="edge24" class="edge"><title>Node25&#45;&gt;Node24</title>
<path fill="none" stroke="midnightblue" d="M54.1172,-10C70.2593,-10 89.9432,-10 106.186,-10"/>
<polygon fill="midnightblue" stroke="midnightblue" points="54.0928,-6.5001 44.0928,-10 54.0927,-13.5001 54.0928,-6.5001"/>
</g>
<!-- Node26 -->
<g id="node26" class="node"><title>Node26</title>
<g id="a_node26"><a xlink:href="class_f_b_library_1_1_core_1_1_player_stats.html" target="_top" xlink:title="FBLibrary.Core.PlayerStats">
<polygon fill="white" stroke="black" points="267,-38.5 267,-57.5 403,-57.5 403,-38.5 267,-38.5"/>
<text text-anchor="middle" x="335" y="-45.5" font-family="Helvetica,sans-Serif" font-size="10.00">FBLibrary.Core.PlayerStats</text>
</a>
</g>
</g>
<!-- Node26&#45;&gt;Node22 -->
<g id="edge25" class="edge"><title>Node26&#45;&gt;Node22</title>
<path fill="none" stroke="#9a32cd" stroke-dasharray="5,2" d="M413.43,-48C459.477,-48 515.497,-48 550.207,-48"/>
<polygon fill="#9a32cd" stroke="#9a32cd" points="413.168,-44.5001 403.168,-48 413.168,-51.5001 413.168,-44.5001"/>
<text text-anchor="middle" x="464" y="-51" font-family="Helvetica,sans-Serif" font-size="10.00"> Stats</text>
</g>
</g>
</svg>
        <g id="navigator" transform="translate(0 0)" fill="#404254">
                <rect fill="#f2f5e9" fill-opacity="0.5" stroke="#606060" stroke-width=".5" x="0" y="0" width="60" height="60"/>
                <use id="zoomplus" xlink:href="#zoomPlus" x="17" y="9" onmousedown="handleZoom(evt,'in')"/>
                <use id="zoomminus" xlink:href="#zoomMin" x="42" y="9" onmousedown="handleZoom(evt,'out')"/>
                <use id="reset" xlink:href="#resetDef" x="30" y="36" onmousedown="handleReset()"/>
                <g id="arrowUp" xlink:href="#dirArrow" transform="translate(30 24)" onmousedown="handlePan(0,-1)">
                  <use xlink:href="#rim" fill="#404040">
                        <set attributeName="fill" to="#808080" begin="arrowUp.mouseover" end="arrowUp.mouseout"/>
                  </use>
                  <path fill="none" stroke="white" stroke-width="1.5" d="M0,-3.0v7 M-2.5,-0.5L0,-3.0L2.5,-0.5"/>
                </g>
                <g id="arrowRight" xlink:href="#dirArrow" transform="rotate(90) translate(36 -43)" onmousedown="handlePan(1,0)">
                  <use xlink:href="#rim" fill="#404040">
                        <set attributeName="fill" to="#808080" begin="arrowRight.mouseover" end="arrowRight.mouseout"/>
                  </use>
                  <path fill="none" stroke="white" stroke-width="1.5" d="M0,-3.0v7 M-2.5,-0.5L0,-3.0L2.5,-0.5"/>
                </g>
                <g id="arrowDown" xlink:href="#dirArrow" transform="rotate(180) translate(-30 -48)" onmousedown="handlePan(0,1)">
                  <use xlink:href="#rim" fill="#404040">
                        <set attributeName="fill" to="#808080" begin="arrowDown.mouseover" end="arrowDown.mouseout"/>
                  </use>
                  <path fill="none" stroke="white" stroke-width="1.5" d="M0,-3.0v7 M-2.5,-0.5L0,-3.0L2.5,-0.5"/>
                </g>
                <g id="arrowLeft" xlink:href="#dirArrow" transform="rotate(270) translate(-36 17)" onmousedown="handlePan(-1,0)">
                  <use xlink:href="#rim" fill="#404040">
                        <set attributeName="fill" to="#808080" begin="arrowLeft.mouseover" end="arrowLeft.mouseout"/>
                  </use>
                  <path fill="none" stroke="white" stroke-width="1.5" d="M0,-3.0v7 M-2.5,-0.5L0,-3.0L2.5,-0.5"/>
                </g>
        </g>
        <svg viewBox="0 0 15 15" width="100%" height="30px" preserveAspectRatio="xMaxYMin meet">
         <g id="arrow_out" transform="scale(0.3 0.3)">
          <a xlink:href="class_f_b_client_1_1_screens_1_1_game_screens_1_1_network_game_play_screen__coll__graph_org.svg" target="_base">
           <rect id="button" ry="5" rx="5" y="6" x="6" height="38" width="38"
                fill="#f2f5e9" fill-opacity="0.5" stroke="#606060" stroke-width="1.0"/>
           <path id="arrow"
             d="M 11.500037,31.436501 C 11.940474,20.09759 22.043105,11.32322 32.158766,21.979434 L 37.068811,17.246167 C 37.068811,17.246167 37.088388,32 37.088388,32 L 22.160133,31.978069 C 22.160133,31.978069 26.997745,27.140456 26.997745,27.140456 C 18.528582,18.264221 13.291696,25.230495 11.500037,31.436501 z"
             style="fill:#404040;"/>
          </a>
         </g>
        </svg>
</svg>
