<?xml version="1.0" encoding="UTF-8" standalone="no"?>
<!DOCTYPE svg PUBLIC "-//W3C//DTD SVG 1.1//EN"
 "http://www.w3.org/Graphics/SVG/1.1/DTD/svg11.dtd">
<!-- Generated by graphviz version 2.34.0 (20130907.0111)
 -->
<!-- Title: FBClient.Core.EntityCollection Pages: 1 -->
<svg width="156pt" height="160pt"
 viewBox="0.00 0.00 156.00 160.00" xmlns="http://www.w3.org/2000/svg" xmlns:xlink="http://www.w3.org/1999/xlink">
<g id="graph0" class="graph" transform="scale(1 1) rotate(0) translate(4 156)">
<title>FBClient.Core.EntityCollection</title>
<polygon fill="white" stroke="white" points="-4,4 -4,-156 152,-156 152,4 -4,4"/>
<!-- Node1 -->
<g id="node1" class="node"><title>Node1</title>
<polygon fill="#bfbfbf" stroke="black" points="-0.5,-0.5 -0.5,-57.5 148.5,-57.5 148.5,-0.5 -0.5,-0.5"/>
<text text-anchor="middle" x="74" y="-45.5" font-family="Helvetica,sans-Serif" font-size="10.00">FBClient.Core.EntityCollection</text>
<polyline fill="none" stroke="black" points="-0.5,-38.5 148.5,-38.5 "/>
<text text-anchor="middle" x="74" y="-26.5" font-family="Helvetica,sans-Serif" font-size="10.00"> </text>
<polyline fill="none" stroke="black" points="-0.5,-19.5 148.5,-19.5 "/>
<text text-anchor="middle" x="74" y="-7.5" font-family="Helvetica,sans-Serif" font-size="10.00"> </text>
</g>
<!-- Node2 -->
<g id="node2" class="node"><title>Node2</title>
<polygon fill="white" stroke="#bfbfbf" points="35,-94.5 35,-151.5 113,-151.5 113,-94.5 35,-94.5"/>
<text text-anchor="middle" x="74" y="-139.5" font-family="Helvetica,sans-Serif" font-size="10.00">List&lt; IEntity &gt;</text>
<polyline fill="none" stroke="#bfbfbf" points="35,-132.5 113,-132.5 "/>
<text text-anchor="middle" x="74" y="-120.5" font-family="Helvetica,sans-Serif" font-size="10.00"> </text>
<polyline fill="none" stroke="#bfbfbf" points="35,-113.5 113,-113.5 "/>
<text text-anchor="middle" x="74" y="-101.5" font-family="Helvetica,sans-Serif" font-size="10.00"> </text>
</g>
<!-- Node2&#45;&gt;Node1 -->
<g id="edge1" class="edge"><title>Node2&#45;&gt;Node1</title>
<path fill="none" stroke="midnightblue" d="M74,-84.2092C74,-75.2929 74,-65.9513 74,-57.5836"/>
<polygon fill="none" stroke="midnightblue" points="70.5001,-84.3969 74,-94.397 77.5001,-84.397 70.5001,-84.3969"/>
</g>
</g>
</svg>
