<?xml version="1.0" encoding="UTF-8" standalone="no"?>
<!DOCTYPE svg PUBLIC "-//W3C//DTD SVG 1.1//EN"
 "http://www.w3.org/Graphics/SVG/1.1/DTD/svg11.dtd">
<!-- Generated by graphviz version 2.34.0 (20130907.0111)
 -->
<!-- Title: FBLibrary.Core.BaseEntities.BasePlayer Pages: 1 -->
<!--zoomable 1514 -->
<svg id="main" version="1.1" xmlns="http://www.w3.org/2000/svg" xmlns:xlink="http://www.w3.org/1999/xlink" xml:space="preserve" onload="init(evt)">
<style type="text/css"><![CDATA[
.edge:hover path { stroke: red; }
.edge:hover polygon { stroke: red; fill: red; }
]]></style>
<script type="text/javascript"><![CDATA[
var edges = document.getElementsByTagName('g');
if (edges && edges.length) {
  for (var i=0;i<edges.length;i++) {
    if (edges[i].id.substr(0,4)=='edge') {
      edges[i].setAttribute('class','edge');
    }
  }
}
]]></script>
        <defs>
                <circle id="rim" cx="0" cy="0" r="7"/>
                <circle id="rim2" cx="0" cy="0" r="3.5"/>
                <g id="zoomPlus">
                        <use xlink:href="#rim" fill="#404040">
                                <set attributeName="fill" to="#808080" begin="zoomplus.mouseover" end="zoomplus.mouseout"/>
                        </use>
                        <path d="M-4,0h8M0,-4v8" fill="none" stroke="white" stroke-width="1.5" pointer-events="none"/>
                </g>
                <g id="zoomMin">
                        <use xlink:href="#rim" fill="#404040">
                                <set attributeName="fill" to="#808080" begin="zoomminus.mouseover" end="zoomminus.mouseout"/>
                        </use>
                        <path d="M-4,0h8" fill="none" stroke="white" stroke-width="1.5" pointer-events="none"/>
                </g>
                <g id="dirArrow">
                        <path fill="none" stroke="white" stroke-width="1.5" d="M0,-3.0v7 M-2.5,-0.5L0,-3.0L2.5,-0.5"/>
                </g>
               <g id="resetDef">
                       <use xlink:href="#rim2" fill="#404040">
                               <set attributeName="fill" to="#808080" begin="reset.mouseover" end="reset.mouseout"/>
                       </use>
               </g>
        </defs>

<script type="text/javascript">
var viewWidth = 645;
var viewHeight = 1514;
var sectionId = 'dynsection-0';
</script>
<script xlink:href="svgpan.js"/>
<svg id="graph" class="graph">
<g id="viewport">
<title>FBLibrary.Core.BaseEntities.BasePlayer</title>
<polygon fill="white" stroke="white" points="-4,4 -4,-1510 641,-1510 641,4 -4,4"/>
<!-- Node1 -->
<g id="node1" class="node"><title>Node1</title>
<polygon fill="#bfbfbf" stroke="black" points="315.5,-615 315.5,-947 464.5,-947 464.5,-615 315.5,-615"/>
<text text-anchor="start" x="323.5" y="-935" font-family="Helvetica,sans-Serif" font-size="10.00">FBLibrary.Core.BaseEntities.</text>
<text text-anchor="middle" x="390" y="-924" font-family="Helvetica,sans-Serif" font-size="10.00">BasePlayer</text>
<polyline fill="none" stroke="black" points="315.5,-917 464.5,-917 "/>
<text text-anchor="start" x="323.5" y="-905" font-family="Helvetica,sans-Serif" font-size="10.00">+ Id</text>
<text text-anchor="start" x="323.5" y="-894" font-family="Helvetica,sans-Serif" font-size="10.00">+ Name</text>
<text text-anchor="start" x="323.5" y="-883" font-family="Helvetica,sans-Serif" font-size="10.00">+ OnEdge</text>
<text text-anchor="start" x="323.5" y="-872" font-family="Helvetica,sans-Serif" font-size="10.00">+ InvincibleTime</text>
<text text-anchor="start" x="323.5" y="-861" font-family="Helvetica,sans-Serif" font-size="10.00">+ CurrentBombAmount</text>
<text text-anchor="start" x="323.5" y="-850" font-family="Helvetica,sans-Serif" font-size="10.00">+ TotalBombAmount</text>
<text text-anchor="start" x="323.5" y="-839" font-family="Helvetica,sans-Serif" font-size="10.00">+ BombPower</text>
<text text-anchor="start" x="323.5" y="-828" font-family="Helvetica,sans-Serif" font-size="10.00">+ BombTimer</text>
<text text-anchor="start" x="323.5" y="-817" font-family="Helvetica,sans-Serif" font-size="10.00">+ Stats</text>
<text text-anchor="start" x="323.5" y="-806" font-family="Helvetica,sans-Serif" font-size="10.00">+ IsInvincible</text>
<text text-anchor="start" x="323.5" y="-795" font-family="Helvetica,sans-Serif" font-size="10.00">+ HasBadEffect</text>
<text text-anchor="start" x="323.5" y="-784" font-family="Helvetica,sans-Serif" font-size="10.00">+ BadEffect</text>
<text text-anchor="start" x="323.5" y="-773" font-family="Helvetica,sans-Serif" font-size="10.00">+ BadEffectTimer</text>
<text text-anchor="start" x="323.5" y="-762" font-family="Helvetica,sans-Serif" font-size="10.00">+ BadEffectTimerLenght</text>
<text text-anchor="start" x="323.5" y="-751" font-family="Helvetica,sans-Serif" font-size="10.00"># InvincibleTimer</text>
<polyline fill="none" stroke="black" points="315.5,-744 464.5,-744 "/>
<text text-anchor="start" x="323.5" y="-732" font-family="Helvetica,sans-Serif" font-size="10.00">+ Update()</text>
<text text-anchor="start" x="323.5" y="-721" font-family="Helvetica,sans-Serif" font-size="10.00">+ IncreaseTotalBombNumber()</text>
<text text-anchor="start" x="323.5" y="-710" font-family="Helvetica,sans-Serif" font-size="10.00">+ IncreasePower()</text>
<text text-anchor="start" x="323.5" y="-699" font-family="Helvetica,sans-Serif" font-size="10.00">+ IncreaseSpeed()</text>
<text text-anchor="start" x="323.5" y="-688" font-family="Helvetica,sans-Serif" font-size="10.00">+ ApplyBadItem()</text>
<text text-anchor="start" x="323.5" y="-677" font-family="Helvetica,sans-Serif" font-size="10.00"># BasePlayer()</text>
<text text-anchor="start" x="323.5" y="-666" font-family="Helvetica,sans-Serif" font-size="10.00"># BasePlayer()</text>
<text text-anchor="start" x="323.5" y="-655" font-family="Helvetica,sans-Serif" font-size="10.00"># ComputeWallCollision()</text>
<text text-anchor="start" x="323.5" y="-644" font-family="Helvetica,sans-Serif" font-size="10.00"># GetMovementSpeed()</text>
<text text-anchor="start" x="323.5" y="-633" font-family="Helvetica,sans-Serif" font-size="10.00"># RemoveBadItem()</text>
<text text-anchor="start" x="323.5" y="-622" font-family="Helvetica,sans-Serif" font-size="10.00"># GetTime()</text>
</g>
<!-- Node5 -->
<g id="node5" class="node"><title>Node5</title>
<g id="a_node5"><a xlink:href="class_f_b_client_1_1_entities_1_1_player.html" target="_top" xlink:title="{FBClient.Entities.Player\n|+ Sprite\l# BombTimerSaved\l# SpeedSaved\l|+ LoadContent()\l+ Update()\l+ Draw()\l+ Destroy()\l+ Remove()\l+ Rebirth()\l+ ChangeLookDirection()\l# Player()\l# Player()\l# Move()\l# UpdatePlayerPosition()\l# GetMovementSpeed()\l# MoveFromEdgeWall()\l# GetTime()\l}">
<polygon fill="white" stroke="black" points="257.5,-355 257.5,-577 382.5,-577 382.5,-355 257.5,-355"/>
<text text-anchor="middle" x="320" y="-565" font-family="Helvetica,sans-Serif" font-size="10.00">FBClient.Entities.Player</text>
<polyline fill="none" stroke="black" points="257.5,-558 382.5,-558 "/>
<text text-anchor="start" x="265.5" y="-546" font-family="Helvetica,sans-Serif" font-size="10.00">+ Sprite</text>
<text text-anchor="start" x="265.5" y="-535" font-family="Helvetica,sans-Serif" font-size="10.00"># BombTimerSaved</text>
<text text-anchor="start" x="265.5" y="-524" font-family="Helvetica,sans-Serif" font-size="10.00"># SpeedSaved</text>
<polyline fill="none" stroke="black" points="257.5,-517 382.5,-517 "/>
<text text-anchor="start" x="265.5" y="-505" font-family="Helvetica,sans-Serif" font-size="10.00">+ LoadContent()</text>
<text text-anchor="start" x="265.5" y="-494" font-family="Helvetica,sans-Serif" font-size="10.00">+ Update()</text>
<text text-anchor="start" x="265.5" y="-483" font-family="Helvetica,sans-Serif" font-size="10.00">+ Draw()</text>
<text text-anchor="start" x="265.5" y="-472" font-family="Helvetica,sans-Serif" font-size="10.00">+ Destroy()</text>
<text text-anchor="start" x="265.5" y="-461" font-family="Helvetica,sans-Serif" font-size="10.00">+ Remove()</text>
<text text-anchor="start" x="265.5" y="-450" font-family="Helvetica,sans-Serif" font-size="10.00">+ Rebirth()</text>
<text text-anchor="start" x="265.5" y="-439" font-family="Helvetica,sans-Serif" font-size="10.00">+ ChangeLookDirection()</text>
<text text-anchor="start" x="265.5" y="-428" font-family="Helvetica,sans-Serif" font-size="10.00"># Player()</text>
<text text-anchor="start" x="265.5" y="-417" font-family="Helvetica,sans-Serif" font-size="10.00"># Player()</text>
<text text-anchor="start" x="265.5" y="-406" font-family="Helvetica,sans-Serif" font-size="10.00"># Move()</text>
<text text-anchor="start" x="265.5" y="-395" font-family="Helvetica,sans-Serif" font-size="10.00"># UpdatePlayerPosition()</text>
<text text-anchor="start" x="265.5" y="-384" font-family="Helvetica,sans-Serif" font-size="10.00"># GetMovementSpeed()</text>
<text text-anchor="start" x="265.5" y="-373" font-family="Helvetica,sans-Serif" font-size="10.00"># MoveFromEdgeWall()</text>
<text text-anchor="start" x="265.5" y="-362" font-family="Helvetica,sans-Serif" font-size="10.00"># GetTime()</text>
</a>
</g>
</g>
<!-- Node1&#45;&gt;Node5 -->
<g id="edge4" class="edge"><title>Node1&#45;&gt;Node5</title>
<path fill="none" stroke="midnightblue" d="M350.846,-604.925C348.734,-595.483 346.643,-586.132 344.603,-577.013"/>
<polygon fill="none" stroke="midnightblue" points="347.454,-605.798 353.053,-614.793 354.286,-604.27 347.454,-605.798"/>
</g>
<!-- Node12 -->
<g id="node12" class="node"><title>Node12</title>
<g id="a_node12"><a xlink:href="class_f_b_server_1_1_core_1_1_player.html" target="_top" xlink:title="{FBServer.Core.Player\n||+ Player()\l+ Player()\l+ SetMovement()\l+ MovePlayer()\l+ Destroy()\l+ Remove()\l# GetMovementSpeed()\l# GetTime()\l}">
<polygon fill="white" stroke="black" points="400.5,-399 400.5,-533 519.5,-533 519.5,-399 400.5,-399"/>
<text text-anchor="middle" x="460" y="-521" font-family="Helvetica,sans-Serif" font-size="10.00">FBServer.Core.Player</text>
<polyline fill="none" stroke="black" points="400.5,-514 519.5,-514 "/>
<text text-anchor="middle" x="460" y="-502" font-family="Helvetica,sans-Serif" font-size="10.00"> </text>
<polyline fill="none" stroke="black" points="400.5,-495 519.5,-495 "/>
<text text-anchor="start" x="408.5" y="-483" font-family="Helvetica,sans-Serif" font-size="10.00">+ Player()</text>
<text text-anchor="start" x="408.5" y="-472" font-family="Helvetica,sans-Serif" font-size="10.00">+ Player()</text>
<text text-anchor="start" x="408.5" y="-461" font-family="Helvetica,sans-Serif" font-size="10.00">+ SetMovement()</text>
<text text-anchor="start" x="408.5" y="-450" font-family="Helvetica,sans-Serif" font-size="10.00">+ MovePlayer()</text>
<text text-anchor="start" x="408.5" y="-439" font-family="Helvetica,sans-Serif" font-size="10.00">+ Destroy()</text>
<text text-anchor="start" x="408.5" y="-428" font-family="Helvetica,sans-Serif" font-size="10.00">+ Remove()</text>
<text text-anchor="start" x="408.5" y="-417" font-family="Helvetica,sans-Serif" font-size="10.00"># GetMovementSpeed()</text>
<text text-anchor="start" x="408.5" y="-406" font-family="Helvetica,sans-Serif" font-size="10.00"># GetTime()</text>
</a>
</g>
</g>
<!-- Node1&#45;&gt;Node12 -->
<g id="edge11" class="edge"><title>Node1&#45;&gt;Node12</title>
<path fill="none" stroke="midnightblue" d="M429.143,-604.975C434.856,-579.429 440.42,-554.551 445.214,-533.115"/>
<polygon fill="none" stroke="midnightblue" points="425.714,-604.27 426.947,-614.793 432.546,-605.798 425.714,-604.27"/>
</g>
<!-- Node2 -->
<g id="node2" class="node"><title>Node2</title>
<g id="a_node2"><a xlink:href="class_f_b_library_1_1_core_1_1_dynamic_entity.html" target="_top" xlink:title="{DynamicEntity\n|+ CurrentDirection\l+ Speed\l+ Velocity\l# PreviousCellPosition\l# PreviousDirection\l# IsMoving\l|+ Update()\l# DynamicEntity()\l# DynamicEntity()\l# IsChangingCell()\l}">
<polygon fill="white" stroke="black" points="333.5,-984.5 333.5,-1129.5 446.5,-1129.5 446.5,-984.5 333.5,-984.5"/>
<text text-anchor="middle" x="390" y="-1117.5" font-family="Helvetica,sans-Serif" font-size="10.00">DynamicEntity</text>
<polyline fill="none" stroke="black" points="333.5,-1110.5 446.5,-1110.5 "/>
<text text-anchor="start" x="341.5" y="-1098.5" font-family="Helvetica,sans-Serif" font-size="10.00">+ CurrentDirection</text>
<text text-anchor="start" x="341.5" y="-1087.5" font-family="Helvetica,sans-Serif" font-size="10.00">+ Speed</text>
<text text-anchor="start" x="341.5" y="-1076.5" font-family="Helvetica,sans-Serif" font-size="10.00">+ Velocity</text>
<text text-anchor="start" x="341.5" y="-1065.5" font-family="Helvetica,sans-Serif" font-size="10.00"># PreviousCellPosition</text>
<text text-anchor="start" x="341.5" y="-1054.5" font-family="Helvetica,sans-Serif" font-size="10.00"># PreviousDirection</text>
<text text-anchor="start" x="341.5" y="-1043.5" font-family="Helvetica,sans-Serif" font-size="10.00"># IsMoving</text>
<polyline fill="none" stroke="black" points="333.5,-1036.5 446.5,-1036.5 "/>
<text text-anchor="start" x="341.5" y="-1024.5" font-family="Helvetica,sans-Serif" font-size="10.00">+ Update()</text>
<text text-anchor="start" x="341.5" y="-1013.5" font-family="Helvetica,sans-Serif" font-size="10.00"># DynamicEntity()</text>
<text text-anchor="start" x="341.5" y="-1002.5" font-family="Helvetica,sans-Serif" font-size="10.00"># DynamicEntity()</text>
<text text-anchor="start" x="341.5" y="-991.5" font-family="Helvetica,sans-Serif" font-size="10.00"># IsChangingCell()</text>
</a>
</g>
</g>
<!-- Node2&#45;&gt;Node1 -->
<g id="edge1" class="edge"><title>Node2&#45;&gt;Node1</title>
<path fill="none" stroke="midnightblue" d="M390,-974.28C390,-965.536 390,-956.432 390,-947.147"/>
<polygon fill="none" stroke="midnightblue" points="386.5,-974.368 390,-984.368 393.5,-974.368 386.5,-974.368"/>
</g>
<!-- Node3 -->
<g id="node3" class="node"><title>Node3</title>
<g id="a_node3"><a xlink:href="class_f_b_library_1_1_core_1_1_base_entity.html" target="_top" xlink:title="{BaseEntity\n|+ IsAlive\l+ InDestruction\l+ DestructionTime\l+ Position\l+ PositionX\l+ PositionY\l+ CellPositionX\l+ CellPositionY\l+ CellPosition\l+ Dimension\l|+ Update()\l+ ChangePosition()\l+ ChangePosition()\l+ ChangePosition()\l+ Destroy()\l+ Remove()\l# BaseEntity()\l# BaseEntity()\l}">
<polygon fill="white" stroke="black" points="340,-1166.5 340,-1399.5 440,-1399.5 440,-1166.5 340,-1166.5"/>
<text text-anchor="middle" x="390" y="-1387.5" font-family="Helvetica,sans-Serif" font-size="10.00">BaseEntity</text>
<polyline fill="none" stroke="black" points="340,-1380.5 440,-1380.5 "/>
<text text-anchor="start" x="348" y="-1368.5" font-family="Helvetica,sans-Serif" font-size="10.00">+ IsAlive</text>
<text text-anchor="start" x="348" y="-1357.5" font-family="Helvetica,sans-Serif" font-size="10.00">+ InDestruction</text>
<text text-anchor="start" x="348" y="-1346.5" font-family="Helvetica,sans-Serif" font-size="10.00">+ DestructionTime</text>
<text text-anchor="start" x="348" y="-1335.5" font-family="Helvetica,sans-Serif" font-size="10.00">+ Position</text>
<text text-anchor="start" x="348" y="-1324.5" font-family="Helvetica,sans-Serif" font-size="10.00">+ PositionX</text>
<text text-anchor="start" x="348" y="-1313.5" font-family="Helvetica,sans-Serif" font-size="10.00">+ PositionY</text>
<text text-anchor="start" x="348" y="-1302.5" font-family="Helvetica,sans-Serif" font-size="10.00">+ CellPositionX</text>
<text text-anchor="start" x="348" y="-1291.5" font-family="Helvetica,sans-Serif" font-size="10.00">+ CellPositionY</text>
<text text-anchor="start" x="348" y="-1280.5" font-family="Helvetica,sans-Serif" font-size="10.00">+ CellPosition</text>
<text text-anchor="start" x="348" y="-1269.5" font-family="Helvetica,sans-Serif" font-size="10.00">+ Dimension</text>
<polyline fill="none" stroke="black" points="340,-1262.5 440,-1262.5 "/>
<text text-anchor="start" x="348" y="-1250.5" font-family="Helvetica,sans-Serif" font-size="10.00">+ Update()</text>
<text text-anchor="start" x="348" y="-1239.5" font-family="Helvetica,sans-Serif" font-size="10.00">+ ChangePosition()</text>
<text text-anchor="start" x="348" y="-1228.5" font-family="Helvetica,sans-Serif" font-size="10.00">+ ChangePosition()</text>
<text text-anchor="start" x="348" y="-1217.5" font-family="Helvetica,sans-Serif" font-size="10.00">+ ChangePosition()</text>
<text text-anchor="start" x="348" y="-1206.5" font-family="Helvetica,sans-Serif" font-size="10.00">+ Destroy()</text>
<text text-anchor="start" x="348" y="-1195.5" font-family="Helvetica,sans-Serif" font-size="10.00">+ Remove()</text>
<text text-anchor="start" x="348" y="-1184.5" font-family="Helvetica,sans-Serif" font-size="10.00"># BaseEntity()</text>
<text text-anchor="start" x="348" y="-1173.5" font-family="Helvetica,sans-Serif" font-size="10.00"># BaseEntity()</text>
</a>
</g>
</g>
<!-- Node3&#45;&gt;Node2 -->
<g id="edge2" class="edge"><title>Node3&#45;&gt;Node2</title>
<path fill="none" stroke="midnightblue" d="M390,-1156.15C390,-1147.11 390,-1138.2 390,-1129.65"/>
<polygon fill="none" stroke="midnightblue" points="386.5,-1156.39 390,-1166.39 393.5,-1156.39 386.5,-1156.39"/>
</g>
<!-- Node4 -->
<g id="node4" class="node"><title>Node4</title>
<g id="a_node4"><a xlink:href="interface_f_b_library_1_1_core_1_1_i_entity.html" target="_top" xlink:title="{IEntity\n||+ Destroy()\l+ Remove()\l}">
<polygon fill="white" stroke="black" points="357,-1437 357,-1505 423,-1505 423,-1437 357,-1437"/>
<text text-anchor="middle" x="390" y="-1493" font-family="Helvetica,sans-Serif" font-size="10.00">IEntity</text>
<polyline fill="none" stroke="black" points="357,-1486 423,-1486 "/>
<text text-anchor="middle" x="390" y="-1474" font-family="Helvetica,sans-Serif" font-size="10.00"> </text>
<polyline fill="none" stroke="black" points="357,-1467 423,-1467 "/>
<text text-anchor="start" x="365" y="-1455" font-family="Helvetica,sans-Serif" font-size="10.00">+ Destroy()</text>
<text text-anchor="start" x="365" y="-1444" font-family="Helvetica,sans-Serif" font-size="10.00">+ Remove()</text>
</a>
</g>
</g>
<!-- Node4&#45;&gt;Node3 -->
<g id="edge3" class="edge"><title>Node4&#45;&gt;Node3</title>
<path fill="none" stroke="midnightblue" d="M390,-1426.6C390,-1418.25 390,-1409.14 390,-1399.7"/>
<polygon fill="none" stroke="midnightblue" points="386.5,-1426.75 390,-1436.75 393.5,-1426.75 386.5,-1426.75"/>
</g>
<!-- Node6 -->
<g id="node6" class="node"><title>Node6</title>
<polygon fill="white" stroke="#bfbfbf" points="-0.5,-194.5 -0.5,-295.5 152.5,-295.5 152.5,-194.5 -0.5,-194.5"/>
<text text-anchor="middle" x="76" y="-283.5" font-family="Helvetica,sans-Serif" font-size="10.00">FBClient.Core.Players.AIPlayer</text>
<polyline fill="none" stroke="#bfbfbf" points="-0.5,-276.5 152.5,-276.5 "/>
<text text-anchor="start" x="7.5" y="-264.5" font-family="Helvetica,sans-Serif" font-size="10.00">+ Path</text>
<polyline fill="none" stroke="#bfbfbf" points="-0.5,-257.5 152.5,-257.5 "/>
<text text-anchor="start" x="7.5" y="-245.5" font-family="Helvetica,sans-Serif" font-size="10.00">+ AIPlayer()</text>
<text text-anchor="start" x="7.5" y="-234.5" font-family="Helvetica,sans-Serif" font-size="10.00">+ ApplyBadItem()</text>
<text text-anchor="start" x="7.5" y="-223.5" font-family="Helvetica,sans-Serif" font-size="10.00"># Move()</text>
<text text-anchor="start" x="7.5" y="-212.5" font-family="Helvetica,sans-Serif" font-size="10.00"># MoveFromEdgeWall()</text>
<text text-anchor="start" x="7.5" y="-201.5" font-family="Helvetica,sans-Serif" font-size="10.00"># RemoveBadItem()</text>
</g>
<!-- Node5&#45;&gt;Node6 -->
<g id="edge5" class="edge"><title>Node5&#45;&gt;Node6</title>
<path fill="none" stroke="midnightblue" d="M249.582,-401.797C211.964,-368.033 166.326,-327.071 131.289,-295.624"/>
<polygon fill="none" stroke="midnightblue" points="247.701,-404.812 257.481,-408.886 252.377,-399.602 247.701,-404.812"/>
</g>
<!-- Node7 -->
<g id="node7" class="node"><title>Node7</title>
<g id="a_node7"><a xlink:href="class_f_b_client_1_1_core_1_1_players_1_1_base_human_player.html" target="_top" xlink:title="{FBClient.Core.Players.Base\lHumanPlayer\n|+ Keys\l+ Buttons\l# GameManager\l# KeysSaved\l# MotionVector\l|+ SetGameManager()\l# BaseHumanPlayer()\l# BaseHumanPlayer()\l# Move()\l}">
<polygon fill="white" stroke="black" points="170.5,-172.5 170.5,-317.5 309.5,-317.5 309.5,-172.5 170.5,-172.5"/>
<text text-anchor="start" x="178.5" y="-305.5" font-family="Helvetica,sans-Serif" font-size="10.00">FBClient.Core.Players.Base</text>
<text text-anchor="middle" x="240" y="-294.5" font-family="Helvetica,sans-Serif" font-size="10.00">HumanPlayer</text>
<polyline fill="none" stroke="black" points="170.5,-287.5 309.5,-287.5 "/>
<text text-anchor="start" x="178.5" y="-275.5" font-family="Helvetica,sans-Serif" font-size="10.00">+ Keys</text>
<text text-anchor="start" x="178.5" y="-264.5" font-family="Helvetica,sans-Serif" font-size="10.00">+ Buttons</text>
<text text-anchor="start" x="178.5" y="-253.5" font-family="Helvetica,sans-Serif" font-size="10.00"># GameManager</text>
<text text-anchor="start" x="178.5" y="-242.5" font-family="Helvetica,sans-Serif" font-size="10.00"># KeysSaved</text>
<text text-anchor="start" x="178.5" y="-231.5" font-family="Helvetica,sans-Serif" font-size="10.00"># MotionVector</text>
<polyline fill="none" stroke="black" points="170.5,-224.5 309.5,-224.5 "/>
<text text-anchor="start" x="178.5" y="-212.5" font-family="Helvetica,sans-Serif" font-size="10.00">+ SetGameManager()</text>
<text text-anchor="start" x="178.5" y="-201.5" font-family="Helvetica,sans-Serif" font-size="10.00"># BaseHumanPlayer()</text>
<text text-anchor="start" x="178.5" y="-190.5" font-family="Helvetica,sans-Serif" font-size="10.00"># BaseHumanPlayer()</text>
<text text-anchor="start" x="178.5" y="-179.5" font-family="Helvetica,sans-Serif" font-size="10.00"># Move()</text>
</a>
</g>
</g>
<!-- Node5&#45;&gt;Node7 -->
<g id="edge6" class="edge"><title>Node5&#45;&gt;Node7</title>
<path fill="none" stroke="midnightblue" d="M276.298,-345.365C272.838,-335.895 269.416,-326.526 266.136,-317.547"/>
<polygon fill="none" stroke="midnightblue" points="273.047,-346.666 279.766,-354.858 279.622,-344.265 273.047,-346.666"/>
</g>
<!-- Node10 -->
<g id="node10" class="node"><title>Node10</title>
<polygon fill="white" stroke="#bfbfbf" points="327.5,-178 327.5,-312 474.5,-312 474.5,-178 327.5,-178"/>
<text text-anchor="start" x="335.5" y="-300" font-family="Helvetica,sans-Serif" font-size="10.00">FBClient.Core.Players.Human</text>
<text text-anchor="middle" x="401" y="-289" font-family="Helvetica,sans-Serif" font-size="10.00">Player_OLD</text>
<polyline fill="none" stroke="#bfbfbf" points="327.5,-282 474.5,-282 "/>
<text text-anchor="start" x="335.5" y="-270" font-family="Helvetica,sans-Serif" font-size="10.00">+ Keys</text>
<text text-anchor="start" x="335.5" y="-259" font-family="Helvetica,sans-Serif" font-size="10.00">+ Buttons</text>
<polyline fill="none" stroke="#bfbfbf" points="327.5,-252 474.5,-252 "/>
<text text-anchor="start" x="335.5" y="-240" font-family="Helvetica,sans-Serif" font-size="10.00">+ HumanPlayer_OLD()</text>
<text text-anchor="start" x="335.5" y="-229" font-family="Helvetica,sans-Serif" font-size="10.00">+ Update()</text>
<text text-anchor="start" x="335.5" y="-218" font-family="Helvetica,sans-Serif" font-size="10.00">+ ApplyBadItem()</text>
<text text-anchor="start" x="335.5" y="-207" font-family="Helvetica,sans-Serif" font-size="10.00"># Move()</text>
<text text-anchor="start" x="335.5" y="-196" font-family="Helvetica,sans-Serif" font-size="10.00"># RemoveBadItem()</text>
<text text-anchor="start" x="335.5" y="-185" font-family="Helvetica,sans-Serif" font-size="10.00"># MoveFromEdgeWall()</text>
</g>
<!-- Node5&#45;&gt;Node10 -->
<g id="edge9" class="edge"><title>Node5&#45;&gt;Node10</title>
<path fill="none" stroke="midnightblue" d="M364.274,-345.295C368.475,-333.939 372.62,-322.73 376.529,-312.163"/>
<polygon fill="none" stroke="midnightblue" points="360.924,-344.265 360.737,-354.858 367.489,-346.694 360.924,-344.265"/>
</g>
<!-- Node11 -->
<g id="node11" class="node"><title>Node11</title>
<polygon fill="white" stroke="#bfbfbf" points="493,-200 493,-290 637,-290 637,-200 493,-200"/>
<text text-anchor="start" x="501" y="-278" font-family="Helvetica,sans-Serif" font-size="10.00">FBClient.Core.Players.Online</text>
<text text-anchor="middle" x="565" y="-267" font-family="Helvetica,sans-Serif" font-size="10.00">Player</text>
<polyline fill="none" stroke="#bfbfbf" points="493,-260 637,-260 "/>
<text text-anchor="middle" x="565" y="-248" font-family="Helvetica,sans-Serif" font-size="10.00"> </text>
<polyline fill="none" stroke="#bfbfbf" points="493,-241 637,-241 "/>
<text text-anchor="start" x="501" y="-229" font-family="Helvetica,sans-Serif" font-size="10.00">+ OnlinePlayer()</text>
<text text-anchor="start" x="501" y="-218" font-family="Helvetica,sans-Serif" font-size="10.00">+ Update()</text>
<text text-anchor="start" x="501" y="-207" font-family="Helvetica,sans-Serif" font-size="10.00"># Move()</text>
</g>
<!-- Node5&#45;&gt;Node11 -->
<g id="edge10" class="edge"><title>Node5&#45;&gt;Node11</title>
<path fill="none" stroke="midnightblue" d="M390.206,-354.657C390.47,-354.437 390.735,-354.218 391,-354 424.937,-326.14 445.494,-340.829 483,-318 495.946,-310.12 508.809,-300.134 520.376,-290.127"/>
<polygon fill="none" stroke="midnightblue" points="387.837,-352.08 382.743,-361.37 392.519,-357.284 387.837,-352.08"/>
</g>
<!-- Node8 -->
<g id="node8" class="node"><title>Node8</title>
<g id="a_node8"><a xlink:href="class_f_b_client_1_1_core_1_1_players_1_1_human_player.html" target="_top" xlink:title="{FBClient.Core.Players.Human\lPlayer\n||+ HumanPlayer()\l+ HumanPlayer()\l+ ApplyBadItem()\l# Move()\l# RemoveBadItem()\l}">
<polygon fill="white" stroke="black" points="84.5,-12 84.5,-124 231.5,-124 231.5,-12 84.5,-12"/>
<text text-anchor="start" x="92.5" y="-112" font-family="Helvetica,sans-Serif" font-size="10.00">FBClient.Core.Players.Human</text>
<text text-anchor="middle" x="158" y="-101" font-family="Helvetica,sans-Serif" font-size="10.00">Player</text>
<polyline fill="none" stroke="black" points="84.5,-94 231.5,-94 "/>
<text text-anchor="middle" x="158" y="-82" font-family="Helvetica,sans-Serif" font-size="10.00"> </text>
<polyline fill="none" stroke="black" points="84.5,-75 231.5,-75 "/>
<text text-anchor="start" x="92.5" y="-63" font-family="Helvetica,sans-Serif" font-size="10.00">+ HumanPlayer()</text>
<text text-anchor="start" x="92.5" y="-52" font-family="Helvetica,sans-Serif" font-size="10.00">+ HumanPlayer()</text>
<text text-anchor="start" x="92.5" y="-41" font-family="Helvetica,sans-Serif" font-size="10.00">+ ApplyBadItem()</text>
<text text-anchor="start" x="92.5" y="-30" font-family="Helvetica,sans-Serif" font-size="10.00"># Move()</text>
<text text-anchor="start" x="92.5" y="-19" font-family="Helvetica,sans-Serif" font-size="10.00"># RemoveBadItem()</text>
</a>
</g>
</g>
<!-- Node7&#45;&gt;Node8 -->
<g id="edge7" class="edge"><title>Node7&#45;&gt;Node8</title>
<path fill="none" stroke="midnightblue" d="M202.152,-163.227C195.968,-150.03 189.688,-136.628 183.879,-124.23"/>
<polygon fill="none" stroke="midnightblue" points="198.998,-164.746 206.411,-172.316 205.337,-161.776 198.998,-164.746"/>
</g>
<!-- Node9 -->
<g id="node9" class="node"><title>Node9</title>
<g id="a_node9"><a xlink:href="class_f_b_client_1_1_core_1_1_players_1_1_online_human_player.html" target="_top" xlink:title="{FBClient.Core.Players.Online\lHumanPlayer\n|+ Ping\l|+ OnlineHumanPlayer()\l+ OnlineHumanPlayer()\l+ ApplyBadItem()\l+ ChangeLookDirection()\l# Move()\l# RemoveBadItem()\l# MoveFromEdgeWall()\l}">
<polygon fill="white" stroke="black" points="250,-1 250,-135 394,-135 394,-1 250,-1"/>
<text text-anchor="start" x="258" y="-123" font-family="Helvetica,sans-Serif" font-size="10.00">FBClient.Core.Players.Online</text>
<text text-anchor="middle" x="322" y="-112" font-family="Helvetica,sans-Serif" font-size="10.00">HumanPlayer</text>
<polyline fill="none" stroke="black" points="250,-105 394,-105 "/>
<text text-anchor="start" x="258" y="-93" font-family="Helvetica,sans-Serif" font-size="10.00">+ Ping</text>
<polyline fill="none" stroke="black" points="250,-86 394,-86 "/>
<text text-anchor="start" x="258" y="-74" font-family="Helvetica,sans-Serif" font-size="10.00">+ OnlineHumanPlayer()</text>
<text text-anchor="start" x="258" y="-63" font-family="Helvetica,sans-Serif" font-size="10.00">+ OnlineHumanPlayer()</text>
<text text-anchor="start" x="258" y="-52" font-family="Helvetica,sans-Serif" font-size="10.00">+ ApplyBadItem()</text>
<text text-anchor="start" x="258" y="-41" font-family="Helvetica,sans-Serif" font-size="10.00">+ ChangeLookDirection()</text>
<text text-anchor="start" x="258" y="-30" font-family="Helvetica,sans-Serif" font-size="10.00"># Move()</text>
<text text-anchor="start" x="258" y="-19" font-family="Helvetica,sans-Serif" font-size="10.00"># RemoveBadItem()</text>
<text text-anchor="start" x="258" y="-8" font-family="Helvetica,sans-Serif" font-size="10.00"># MoveFromEdgeWall()</text>
</a>
</g>
</g>
<!-- Node7&#45;&gt;Node9 -->
<g id="edge8" class="edge"><title>Node7&#45;&gt;Node9</title>
<path fill="none" stroke="midnightblue" d="M277.932,-163.048C282.297,-153.731 286.71,-144.315 290.969,-135.224"/>
<polygon fill="none" stroke="midnightblue" points="274.663,-161.776 273.589,-172.316 281.002,-164.746 274.663,-161.776"/>
</g>
</g>
</svg>
        <g id="navigator" transform="translate(0 0)" fill="#404254">
                <rect fill="#f2f5e9" fill-opacity="0.5" stroke="#606060" stroke-width=".5" x="0" y="0" width="60" height="60"/>
                <use id="zoomplus" xlink:href="#zoomPlus" x="17" y="9" onmousedown="handleZoom(evt,'in')"/>
                <use id="zoomminus" xlink:href="#zoomMin" x="42" y="9" onmousedown="handleZoom(evt,'out')"/>
                <use id="reset" xlink:href="#resetDef" x="30" y="36" onmousedown="handleReset()"/>
                <g id="arrowUp" xlink:href="#dirArrow" transform="translate(30 24)" onmousedown="handlePan(0,-1)">
                  <use xlink:href="#rim" fill="#404040">
                        <set attributeName="fill" to="#808080" begin="arrowUp.mouseover" end="arrowUp.mouseout"/>
                  </use>
                  <path fill="none" stroke="white" stroke-width="1.5" d="M0,-3.0v7 M-2.5,-0.5L0,-3.0L2.5,-0.5"/>
                </g>
                <g id="arrowRight" xlink:href="#dirArrow" transform="rotate(90) translate(36 -43)" onmousedown="handlePan(1,0)">
                  <use xlink:href="#rim" fill="#404040">
                        <set attributeName="fill" to="#808080" begin="arrowRight.mouseover" end="arrowRight.mouseout"/>
                  </use>
                  <path fill="none" stroke="white" stroke-width="1.5" d="M0,-3.0v7 M-2.5,-0.5L0,-3.0L2.5,-0.5"/>
                </g>
                <g id="arrowDown" xlink:href="#dirArrow" transform="rotate(180) translate(-30 -48)" onmousedown="handlePan(0,1)">
                  <use xlink:href="#rim" fill="#404040">
                        <set attributeName="fill" to="#808080" begin="arrowDown.mouseover" end="arrowDown.mouseout"/>
                  </use>
                  <path fill="none" stroke="white" stroke-width="1.5" d="M0,-3.0v7 M-2.5,-0.5L0,-3.0L2.5,-0.5"/>
                </g>
                <g id="arrowLeft" xlink:href="#dirArrow" transform="rotate(270) translate(-36 17)" onmousedown="handlePan(-1,0)">
                  <use xlink:href="#rim" fill="#404040">
                        <set attributeName="fill" to="#808080" begin="arrowLeft.mouseover" end="arrowLeft.mouseout"/>
                  </use>
                  <path fill="none" stroke="white" stroke-width="1.5" d="M0,-3.0v7 M-2.5,-0.5L0,-3.0L2.5,-0.5"/>
                </g>
        </g>
        <svg viewBox="0 0 15 15" width="100%" height="30px" preserveAspectRatio="xMaxYMin meet">
         <g id="arrow_out" transform="scale(0.3 0.3)">
          <a xlink:href="class_f_b_library_1_1_core_1_1_base_entities_1_1_base_player__inherit__graph_org.svg" target="_base">
           <rect id="button" ry="5" rx="5" y="6" x="6" height="38" width="38"
                fill="#f2f5e9" fill-opacity="0.5" stroke="#606060" stroke-width="1.0"/>
           <path id="arrow"
             d="M 11.500037,31.436501 C 11.940474,20.09759 22.043105,11.32322 32.158766,21.979434 L 37.068811,17.246167 C 37.068811,17.246167 37.088388,32 37.088388,32 L 22.160133,31.978069 C 22.160133,31.978069 26.997745,27.140456 26.997745,27.140456 C 18.528582,18.264221 13.291696,25.230495 11.500037,31.436501 z"
             style="fill:#404040;"/>
          </a>
         </g>
        </svg>
</svg>
