<?xml version="1.0" encoding="UTF-8" standalone="no"?>
<!DOCTYPE svg PUBLIC "-//W3C//DTD SVG 1.1//EN"
 "http://www.w3.org/Graphics/SVG/1.1/DTD/svg11.dtd">
<!-- Generated by graphviz version 2.34.0 (20130907.0111)
 -->
<!-- Title: FBLibrary.Core.BaseEntities.BaseMap Pages: 1 -->
<svg width="320pt" height="96pt"
 viewBox="0.00 0.00 320.00 96.00" xmlns="http://www.w3.org/2000/svg" xmlns:xlink="http://www.w3.org/1999/xlink">
<g id="graph0" class="graph" transform="scale(1 1) rotate(0) translate(4 92)">
<title>FBLibrary.Core.BaseEntities.BaseMap</title>
<polygon fill="white" stroke="white" points="-4,4 -4,-92 316,-92 316,4 -4,4"/>
<!-- Node1 -->
<g id="node1" class="node"><title>Node1</title>
<polygon fill="#bfbfbf" stroke="black" points="77.5,-57 77.5,-87 220.5,-87 220.5,-57 77.5,-57"/>
<text text-anchor="start" x="85.5" y="-75" font-family="Helvetica,sans-Serif" font-size="10.00">FBLibrary.Core.BaseEntities.</text>
<text text-anchor="middle" x="149" y="-64" font-family="Helvetica,sans-Serif" font-size="10.00">BaseMap</text>
</g>
<!-- Node2 -->
<g id="node2" class="node"><title>Node2</title>
<g id="a_node2"><a xlink:href="class_f_b_client_1_1_world_engine_1_1_map.html" target="_top" xlink:title="FBClient.WorldEngine.Map">
<polygon fill="white" stroke="black" points="0,-0.5 0,-19.5 134,-19.5 134,-0.5 0,-0.5"/>
<text text-anchor="middle" x="67" y="-7.5" font-family="Helvetica,sans-Serif" font-size="10.00">FBClient.WorldEngine.Map</text>
</a>
</g>
</g>
<!-- Node1&#45;&gt;Node2 -->
<g id="edge1" class="edge"><title>Node1&#45;&gt;Node2</title>
<path fill="none" stroke="midnightblue" d="M121.414,-50.8148C106.968,-40.245 90.0263,-27.8485 78.9317,-19.7305"/>
<polygon fill="midnightblue" stroke="midnightblue" points="119.43,-53.7003 129.567,-56.7808 123.564,-48.0511 119.43,-53.7003"/>
</g>
<!-- Node3 -->
<g id="node3" class="node"><title>Node3</title>
<g id="a_node3"><a xlink:href="class_f_b_server_1_1_core_1_1_world_engine_1_1_map.html" target="_top" xlink:title="FBServer.Core.WorldEngine.Map">
<polygon fill="white" stroke="black" points="152,-0.5 152,-19.5 312,-19.5 312,-0.5 152,-0.5"/>
<text text-anchor="middle" x="232" y="-7.5" font-family="Helvetica,sans-Serif" font-size="10.00">FBServer.Core.WorldEngine.Map</text>
</a>
</g>
</g>
<!-- Node1&#45;&gt;Node3 -->
<g id="edge2" class="edge"><title>Node1&#45;&gt;Node3</title>
<path fill="none" stroke="midnightblue" d="M176.923,-50.8148C191.544,-40.245 208.693,-27.8485 219.923,-19.7305"/>
<polygon fill="midnightblue" stroke="midnightblue" points="174.724,-48.0858 168.67,-56.7808 178.825,-53.7588 174.724,-48.0858"/>
</g>
</g>
</svg>
