<?xml version="1.0" encoding="UTF-8" standalone="no"?>
<!DOCTYPE svg PUBLIC "-//W3C//DTD SVG 1.1//EN"
 "http://www.w3.org/Graphics/SVG/1.1/DTD/svg11.dtd">
<!-- Generated by graphviz version 2.34.0 (20130907.0111)
 -->
<!-- Title: FBClient.Screens.GameScreens.BaseGamePlayScreen Pages: 1 -->
<svg width="904pt" height="1304pt"
 viewBox="0.00 0.00 904.00 1304.00" xmlns="http://www.w3.org/2000/svg" xmlns:xlink="http://www.w3.org/1999/xlink">
<g id="graph0" class="graph" transform="scale(1 1) rotate(0) translate(4 1300)">
<title>FBClient.Screens.GameScreens.BaseGamePlayScreen</title>
<polygon fill="white" stroke="white" points="-4,4 -4,-1300 900,-1300 900,4 -4,4"/>
<!-- Node1 -->
<g id="node1" class="node"><title>Node1</title>
<polygon fill="#bfbfbf" stroke="black" points="524.5,-0.5 524.5,-167.5 685.5,-167.5 685.5,-0.5 524.5,-0.5"/>
<text text-anchor="start" x="532.5" y="-155.5" font-family="Helvetica,sans-Serif" font-size="10.00">FBClient.Screens.GameScreens.</text>
<text text-anchor="middle" x="605" y="-144.5" font-family="Helvetica,sans-Serif" font-size="10.00">BaseGamePlayScreen</text>
<polyline fill="none" stroke="black" points="524.5,-137.5 685.5,-137.5 "/>
<text text-anchor="start" x="532.5" y="-125.5" font-family="Helvetica,sans-Serif" font-size="10.00"># ItemInfoIcon</text>
<text text-anchor="start" x="532.5" y="-114.5" font-family="Helvetica,sans-Serif" font-size="10.00"># Cross</text>
<text text-anchor="start" x="532.5" y="-103.5" font-family="Helvetica,sans-Serif" font-size="10.00"># GameFont</text>
<text text-anchor="start" x="532.5" y="-92.5" font-family="Helvetica,sans-Serif" font-size="10.00"># SmallFont</text>
<text text-anchor="start" x="532.5" y="-81.5" font-family="Helvetica,sans-Serif" font-size="10.00"># HudOrigin</text>
<text text-anchor="start" x="532.5" y="-70.5" font-family="Helvetica,sans-Serif" font-size="10.00"># HudTopSpace</text>
<text text-anchor="start" x="532.5" y="-59.5" font-family="Helvetica,sans-Serif" font-size="10.00"># HudMarginLeft</text>
<text text-anchor="start" x="532.5" y="-48.5" font-family="Helvetica,sans-Serif" font-size="10.00"># BadItemTimerBar</text>
<text text-anchor="start" x="532.5" y="-37.5" font-family="Helvetica,sans-Serif" font-size="10.00"># WindowSkin</text>
<polyline fill="none" stroke="black" points="524.5,-30.5 685.5,-30.5 "/>
<text text-anchor="start" x="532.5" y="-18.5" font-family="Helvetica,sans-Serif" font-size="10.00"># BaseGamePlayScreen()</text>
<text text-anchor="start" x="532.5" y="-7.5" font-family="Helvetica,sans-Serif" font-size="10.00"># LoadContent()</text>
</g>
<!-- Node2 -->
<g id="node2" class="node"><title>Node2</title>
<g id="a_node2"><a xlink:href="class_f_b_client_1_1_screens_1_1_base_game_state.html" target="_top" xlink:title="{BaseGameState\n|# BigFont\l# playerIndexInControl\l|+ BaseGameState()\l+ Update()\l+ Draw()\l# LoadContent()\l}">
<polygon fill="white" stroke="black" points="294.5,-358.5 294.5,-459.5 407.5,-459.5 407.5,-358.5 294.5,-358.5"/>
<text text-anchor="middle" x="351" y="-447.5" font-family="Helvetica,sans-Serif" font-size="10.00">BaseGameState</text>
<polyline fill="none" stroke="black" points="294.5,-440.5 407.5,-440.5 "/>
<text text-anchor="start" x="302.5" y="-428.5" font-family="Helvetica,sans-Serif" font-size="10.00"># BigFont</text>
<text text-anchor="start" x="302.5" y="-417.5" font-family="Helvetica,sans-Serif" font-size="10.00"># playerIndexInControl</text>
<polyline fill="none" stroke="black" points="294.5,-410.5 407.5,-410.5 "/>
<text text-anchor="start" x="302.5" y="-398.5" font-family="Helvetica,sans-Serif" font-size="10.00">+ BaseGameState()</text>
<text text-anchor="start" x="302.5" y="-387.5" font-family="Helvetica,sans-Serif" font-size="10.00">+ Update()</text>
<text text-anchor="start" x="302.5" y="-376.5" font-family="Helvetica,sans-Serif" font-size="10.00">+ Draw()</text>
<text text-anchor="start" x="302.5" y="-365.5" font-family="Helvetica,sans-Serif" font-size="10.00"># LoadContent()</text>
</a>
</g>
</g>
<!-- Node2&#45;&gt;Node1 -->
<g id="edge1" class="edge"><title>Node2&#45;&gt;Node1</title>
<path fill="none" stroke="midnightblue" d="M363.71,-348.48C373.882,-310.738 391.005,-262.354 418,-226 446.24,-187.97 487.504,-155.353 524.09,-131.098"/>
<polygon fill="none" stroke="midnightblue" points="360.278,-347.768 361.147,-358.328 367.053,-349.531 360.278,-347.768"/>
</g>
<!-- Node3 -->
<g id="node3" class="node"><title>Node3</title>
<g id="a_node3"><a xlink:href="class_f_b_client_1_1_controls_1_1_game_state.html" target="_top" xlink:title="{GameState\n|+ Components\l+ Tag\l|+ Initialize()\l+ Update()\l+ Draw()\l# GameState()\l# StateChange()\l# Show()\l# Hide()\l}">
<polygon fill="white" stroke="black" points="179.5,-701 179.5,-835 266.5,-835 266.5,-701 179.5,-701"/>
<text text-anchor="middle" x="223" y="-823" font-family="Helvetica,sans-Serif" font-size="10.00">GameState</text>
<polyline fill="none" stroke="black" points="179.5,-816 266.5,-816 "/>
<text text-anchor="start" x="187.5" y="-804" font-family="Helvetica,sans-Serif" font-size="10.00">+ Components</text>
<text text-anchor="start" x="187.5" y="-793" font-family="Helvetica,sans-Serif" font-size="10.00">+ Tag</text>
<polyline fill="none" stroke="black" points="179.5,-786 266.5,-786 "/>
<text text-anchor="start" x="187.5" y="-774" font-family="Helvetica,sans-Serif" font-size="10.00">+ Initialize()</text>
<text text-anchor="start" x="187.5" y="-763" font-family="Helvetica,sans-Serif" font-size="10.00">+ Update()</text>
<text text-anchor="start" x="187.5" y="-752" font-family="Helvetica,sans-Serif" font-size="10.00">+ Draw()</text>
<text text-anchor="start" x="187.5" y="-741" font-family="Helvetica,sans-Serif" font-size="10.00"># GameState()</text>
<text text-anchor="start" x="187.5" y="-730" font-family="Helvetica,sans-Serif" font-size="10.00"># StateChange()</text>
<text text-anchor="start" x="187.5" y="-719" font-family="Helvetica,sans-Serif" font-size="10.00"># Show()</text>
<text text-anchor="start" x="187.5" y="-708" font-family="Helvetica,sans-Serif" font-size="10.00"># Hide()</text>
</a>
</g>
</g>
<!-- Node3&#45;&gt;Node2 -->
<g id="edge2" class="edge"><title>Node3&#45;&gt;Node2</title>
<path fill="none" stroke="midnightblue" d="M250.233,-691.046C275.287,-621.168 311.717,-519.562 333.223,-459.581"/>
<polygon fill="none" stroke="midnightblue" points="246.856,-690.093 246.776,-700.688 253.446,-692.456 246.856,-690.093"/>
</g>
<!-- Node4 -->
<g id="node4" class="node"><title>Node4</title>
<polygon fill="white" stroke="#bfbfbf" points="0,-1032.5 0,-1089.5 132,-1089.5 132,-1032.5 0,-1032.5"/>
<text text-anchor="middle" x="66" y="-1077.5" font-family="Helvetica,sans-Serif" font-size="10.00">DrawableGameComponent</text>
<polyline fill="none" stroke="#bfbfbf" points="0,-1070.5 132,-1070.5 "/>
<text text-anchor="middle" x="66" y="-1058.5" font-family="Helvetica,sans-Serif" font-size="10.00"> </text>
<polyline fill="none" stroke="#bfbfbf" points="0,-1051.5 132,-1051.5 "/>
<text text-anchor="middle" x="66" y="-1039.5" font-family="Helvetica,sans-Serif" font-size="10.00"> </text>
</g>
<!-- Node4&#45;&gt;Node3 -->
<g id="edge3" class="edge"><title>Node4&#45;&gt;Node3</title>
<path fill="none" stroke="midnightblue" d="M85.7297,-1023.43C111.15,-976.314 155.805,-893.545 187.268,-835.23"/>
<polygon fill="none" stroke="midnightblue" points="82.5797,-1021.9 80.9117,-1032.36 88.7403,-1025.22 82.5797,-1021.9"/>
</g>
<!-- Node5 -->
<g id="node5" class="node"><title>Node5</title>
<g id="a_node5"><a xlink:href="class_f_b_client_1_1_controls_1_1_game_state_manager.html" target="_top" xlink:title="{FBClient.Controls.GameState\lManager\n|+ CurrentState\l|+ GameStateManager()\l+ Initialize()\l+ Update()\l+ PopState()\l+ PushState()\l+ ChangeState()\l}">
<polygon fill="white" stroke="black" points="150,-999.5 150,-1122.5 296,-1122.5 296,-999.5 150,-999.5"/>
<text text-anchor="start" x="158" y="-1110.5" font-family="Helvetica,sans-Serif" font-size="10.00">FBClient.Controls.GameState</text>
<text text-anchor="middle" x="223" y="-1099.5" font-family="Helvetica,sans-Serif" font-size="10.00">Manager</text>
<polyline fill="none" stroke="black" points="150,-1092.5 296,-1092.5 "/>
<text text-anchor="start" x="158" y="-1080.5" font-family="Helvetica,sans-Serif" font-size="10.00">+ CurrentState</text>
<polyline fill="none" stroke="black" points="150,-1073.5 296,-1073.5 "/>
<text text-anchor="start" x="158" y="-1061.5" font-family="Helvetica,sans-Serif" font-size="10.00">+ GameStateManager()</text>
<text text-anchor="start" x="158" y="-1050.5" font-family="Helvetica,sans-Serif" font-size="10.00">+ Initialize()</text>
<text text-anchor="start" x="158" y="-1039.5" font-family="Helvetica,sans-Serif" font-size="10.00">+ Update()</text>
<text text-anchor="start" x="158" y="-1028.5" font-family="Helvetica,sans-Serif" font-size="10.00">+ PopState()</text>
<text text-anchor="start" x="158" y="-1017.5" font-family="Helvetica,sans-Serif" font-size="10.00">+ PushState()</text>
<text text-anchor="start" x="158" y="-1006.5" font-family="Helvetica,sans-Serif" font-size="10.00">+ ChangeState()</text>
</a>
</g>
</g>
<!-- Node5&#45;&gt;Node3 -->
<g id="edge4" class="edge"><title>Node5&#45;&gt;Node3</title>
<path fill="none" stroke="#404040" d="M223,-999.351C223,-955.22 223,-895.082 223,-847.319"/>
<polygon fill="none" stroke="#404040" points="223,-847.146 219,-841.146 223,-835.146 227,-841.146 223,-847.146"/>
<text text-anchor="middle" x="258" y="-917.5" font-family="Helvetica,sans-Serif" font-size="10.00"> #StateManager</text>
</g>
<!-- Node6 -->
<g id="node6" class="node"><title>Node6</title>
<polygon fill="white" stroke="#bfbfbf" points="177,-1232.5 177,-1289.5 269,-1289.5 269,-1232.5 177,-1232.5"/>
<text text-anchor="middle" x="223" y="-1277.5" font-family="Helvetica,sans-Serif" font-size="10.00">GameComponent</text>
<polyline fill="none" stroke="#bfbfbf" points="177,-1270.5 269,-1270.5 "/>
<text text-anchor="middle" x="223" y="-1258.5" font-family="Helvetica,sans-Serif" font-size="10.00"> </text>
<polyline fill="none" stroke="#bfbfbf" points="177,-1251.5 269,-1251.5 "/>
<text text-anchor="middle" x="223" y="-1239.5" font-family="Helvetica,sans-Serif" font-size="10.00"> </text>
</g>
<!-- Node6&#45;&gt;Node5 -->
<g id="edge5" class="edge"><title>Node6&#45;&gt;Node5</title>
<path fill="none" stroke="midnightblue" d="M223,-1222.26C223,-1194.14 223,-1155.15 223,-1122.67"/>
<polygon fill="none" stroke="midnightblue" points="219.5,-1222.47 223,-1232.47 226.5,-1222.47 219.5,-1222.47"/>
</g>
<!-- Node7 -->
<g id="node7" class="node"><title>Node7</title>
<g id="a_node7"><a xlink:href="class_f_b_client_1_1_controls_1_1_control_manager.html" target="_top" xlink:title="{FBClient.Controls.Control\lManager\n|+ SpriteFont\l+ AcceptInput\l|+ ControlManager()\l+ ControlManager()\l+ ControlManager()\l+ Update()\l+ Draw()\l+ NextControl()\l+ PreviousControl()\l}">
<polygon fill="white" stroke="black" points="287.5,-695.5 287.5,-840.5 414.5,-840.5 414.5,-695.5 287.5,-695.5"/>
<text text-anchor="start" x="295.5" y="-828.5" font-family="Helvetica,sans-Serif" font-size="10.00">FBClient.Controls.Control</text>
<text text-anchor="middle" x="351" y="-817.5" font-family="Helvetica,sans-Serif" font-size="10.00">Manager</text>
<polyline fill="none" stroke="black" points="287.5,-810.5 414.5,-810.5 "/>
<text text-anchor="start" x="295.5" y="-798.5" font-family="Helvetica,sans-Serif" font-size="10.00">+ SpriteFont</text>
<text text-anchor="start" x="295.5" y="-787.5" font-family="Helvetica,sans-Serif" font-size="10.00">+ AcceptInput</text>
<polyline fill="none" stroke="black" points="287.5,-780.5 414.5,-780.5 "/>
<text text-anchor="start" x="295.5" y="-768.5" font-family="Helvetica,sans-Serif" font-size="10.00">+ ControlManager()</text>
<text text-anchor="start" x="295.5" y="-757.5" font-family="Helvetica,sans-Serif" font-size="10.00">+ ControlManager()</text>
<text text-anchor="start" x="295.5" y="-746.5" font-family="Helvetica,sans-Serif" font-size="10.00">+ ControlManager()</text>
<text text-anchor="start" x="295.5" y="-735.5" font-family="Helvetica,sans-Serif" font-size="10.00">+ Update()</text>
<text text-anchor="start" x="295.5" y="-724.5" font-family="Helvetica,sans-Serif" font-size="10.00">+ Draw()</text>
<text text-anchor="start" x="295.5" y="-713.5" font-family="Helvetica,sans-Serif" font-size="10.00">+ NextControl()</text>
<text text-anchor="start" x="295.5" y="-702.5" font-family="Helvetica,sans-Serif" font-size="10.00">+ PreviousControl()</text>
</a>
</g>
</g>
<!-- Node7&#45;&gt;Node2 -->
<g id="edge6" class="edge"><title>Node7&#45;&gt;Node2</title>
<path fill="none" stroke="#404040" d="M351,-695.185C351,-629.752 351,-534.108 351,-471.956"/>
<polygon fill="none" stroke="#404040" points="351,-471.607 347,-465.607 351,-459.607 355,-465.607 351,-471.607"/>
<text text-anchor="middle" x="389.5" y="-613.5" font-family="Helvetica,sans-Serif" font-size="10.00"> #ControlManager</text>
</g>
<!-- Node8 -->
<g id="node8" class="node"><title>Node8</title>
<polygon fill="white" stroke="#bfbfbf" points="314.5,-1032.5 314.5,-1089.5 395.5,-1089.5 395.5,-1032.5 314.5,-1032.5"/>
<text text-anchor="middle" x="355" y="-1077.5" font-family="Helvetica,sans-Serif" font-size="10.00">List&lt; Control &gt;</text>
<polyline fill="none" stroke="#bfbfbf" points="314.5,-1070.5 395.5,-1070.5 "/>
<text text-anchor="middle" x="355" y="-1058.5" font-family="Helvetica,sans-Serif" font-size="10.00"> </text>
<polyline fill="none" stroke="#bfbfbf" points="314.5,-1051.5 395.5,-1051.5 "/>
<text text-anchor="middle" x="355" y="-1039.5" font-family="Helvetica,sans-Serif" font-size="10.00"> </text>
</g>
<!-- Node8&#45;&gt;Node7 -->
<g id="edge7" class="edge"><title>Node8&#45;&gt;Node7</title>
<path fill="none" stroke="midnightblue" d="M354.481,-1022.26C353.851,-976.401 352.774,-898.042 351.984,-840.602"/>
<polygon fill="none" stroke="midnightblue" points="350.983,-1022.41 354.62,-1032.36 357.982,-1022.31 350.983,-1022.41"/>
</g>
<!-- Node9 -->
<g id="node9" class="node"><title>Node9</title>
<g id="a_node9"><a xlink:href="class_f_b_client_1_1_core_1_1_game_manager.html" target="_top" xlink:title="{FBClient.Core.GameManager\n|+ BombExplosionSound\l+ PowerUpPickUpSound\l+ PlayerDeathSound\l+ CurrentMap\l+ WallList\l+ BombList\l+ Timer\l|+ GameManager()\l+ Initialize()\l+ Reset()\l+ LoadContent()\l+ Update()\l+ Draw()\l+ AddPlayer()\l+ RemovePlayer()\l+ AddWall()\l+ AddWall()\l+ AddWalls()\l+ AddBomb()\l+ AddPowerUp()\l+ AddPowerUp()\l# UpdateWalls()\l# UpdateBombs()\l# UpdatePowerUps()\l# UpdatePlayers()\l# DestroyPlayer()\l# DestroyWall()\l# DestroyBomb()\l# PickUpPowerUp()\l# DestroyPowerUp()\l}">
<polygon fill="white" stroke="black" points="427,-226.5 427,-591.5 571,-591.5 571,-226.5 427,-226.5"/>
<text text-anchor="middle" x="499" y="-579.5" font-family="Helvetica,sans-Serif" font-size="10.00">FBClient.Core.GameManager</text>
<polyline fill="none" stroke="black" points="427,-572.5 571,-572.5 "/>
<text text-anchor="start" x="435" y="-560.5" font-family="Helvetica,sans-Serif" font-size="10.00">+ BombExplosionSound</text>
<text text-anchor="start" x="435" y="-549.5" font-family="Helvetica,sans-Serif" font-size="10.00">+ PowerUpPickUpSound</text>
<text text-anchor="start" x="435" y="-538.5" font-family="Helvetica,sans-Serif" font-size="10.00">+ PlayerDeathSound</text>
<text text-anchor="start" x="435" y="-527.5" font-family="Helvetica,sans-Serif" font-size="10.00">+ CurrentMap</text>
<text text-anchor="start" x="435" y="-516.5" font-family="Helvetica,sans-Serif" font-size="10.00">+ WallList</text>
<text text-anchor="start" x="435" y="-505.5" font-family="Helvetica,sans-Serif" font-size="10.00">+ BombList</text>
<text text-anchor="start" x="435" y="-494.5" font-family="Helvetica,sans-Serif" font-size="10.00">+ Timer</text>
<polyline fill="none" stroke="black" points="427,-487.5 571,-487.5 "/>
<text text-anchor="start" x="435" y="-475.5" font-family="Helvetica,sans-Serif" font-size="10.00">+ GameManager()</text>
<text text-anchor="start" x="435" y="-464.5" font-family="Helvetica,sans-Serif" font-size="10.00">+ Initialize()</text>
<text text-anchor="start" x="435" y="-453.5" font-family="Helvetica,sans-Serif" font-size="10.00">+ Reset()</text>
<text text-anchor="start" x="435" y="-442.5" font-family="Helvetica,sans-Serif" font-size="10.00">+ LoadContent()</text>
<text text-anchor="start" x="435" y="-431.5" font-family="Helvetica,sans-Serif" font-size="10.00">+ Update()</text>
<text text-anchor="start" x="435" y="-420.5" font-family="Helvetica,sans-Serif" font-size="10.00">+ Draw()</text>
<text text-anchor="start" x="435" y="-409.5" font-family="Helvetica,sans-Serif" font-size="10.00">+ AddPlayer()</text>
<text text-anchor="start" x="435" y="-398.5" font-family="Helvetica,sans-Serif" font-size="10.00">+ RemovePlayer()</text>
<text text-anchor="start" x="435" y="-387.5" font-family="Helvetica,sans-Serif" font-size="10.00">+ AddWall()</text>
<text text-anchor="start" x="435" y="-376.5" font-family="Helvetica,sans-Serif" font-size="10.00">+ AddWall()</text>
<text text-anchor="start" x="435" y="-365.5" font-family="Helvetica,sans-Serif" font-size="10.00">+ AddWalls()</text>
<text text-anchor="start" x="435" y="-354.5" font-family="Helvetica,sans-Serif" font-size="10.00">+ AddBomb()</text>
<text text-anchor="start" x="435" y="-343.5" font-family="Helvetica,sans-Serif" font-size="10.00">+ AddPowerUp()</text>
<text text-anchor="start" x="435" y="-332.5" font-family="Helvetica,sans-Serif" font-size="10.00">+ AddPowerUp()</text>
<text text-anchor="start" x="435" y="-321.5" font-family="Helvetica,sans-Serif" font-size="10.00"># UpdateWalls()</text>
<text text-anchor="start" x="435" y="-310.5" font-family="Helvetica,sans-Serif" font-size="10.00"># UpdateBombs()</text>
<text text-anchor="start" x="435" y="-299.5" font-family="Helvetica,sans-Serif" font-size="10.00"># UpdatePowerUps()</text>
<text text-anchor="start" x="435" y="-288.5" font-family="Helvetica,sans-Serif" font-size="10.00"># UpdatePlayers()</text>
<text text-anchor="start" x="435" y="-277.5" font-family="Helvetica,sans-Serif" font-size="10.00"># DestroyPlayer()</text>
<text text-anchor="start" x="435" y="-266.5" font-family="Helvetica,sans-Serif" font-size="10.00"># DestroyWall()</text>
<text text-anchor="start" x="435" y="-255.5" font-family="Helvetica,sans-Serif" font-size="10.00"># DestroyBomb()</text>
<text text-anchor="start" x="435" y="-244.5" font-family="Helvetica,sans-Serif" font-size="10.00"># PickUpPowerUp()</text>
<text text-anchor="start" x="435" y="-233.5" font-family="Helvetica,sans-Serif" font-size="10.00"># DestroyPowerUp()</text>
</a>
</g>
</g>
<!-- Node9&#45;&gt;Node1 -->
<g id="edge8" class="edge"><title>Node9&#45;&gt;Node1</title>
<path fill="none" stroke="#404040" d="M530.445,-226.28C534.465,-212.484 538.966,-198.916 544,-186 544.967,-183.519 545.993,-181.029 547.07,-178.538"/>
<polygon fill="none" stroke="#404040" points="547.072,-178.533 545.947,-171.41 552.089,-167.632 553.214,-174.755 547.072,-178.533"/>
<text text-anchor="middle" x="580.5" y="-194.5" font-family="Helvetica,sans-Serif" font-size="10.00"> +GameManager</text>
</g>
<!-- Node10 -->
<g id="node10" class="node"><title>Node10</title>
<g id="a_node10"><a xlink:href="class_f_b_library_1_1_core_1_1_base_game_manager.html" target="_top" xlink:title="{BaseGameManager\n|+ HazardMap\l# BasePlayerList\l|+ Update()\l+ AddWall()\l+ AddPowerUp()\l+ Reset()\l+ LoadMap()\l+ GenerateRandomWalls()\l+ DisplayHazardMap()\l# BaseGameManager()\l# UpdateWalls()\l# UpdateBombs()\l# UpdatePowerUps()\l# UpdatePlayers()\l# AddPlayer()\l# DestroyPlayer()\l# DestroyPlayer()\l# RemovePlayer()\l# AddWall()\land 12 more...\l}">
<polygon fill="white" stroke="black" points="433,-640.5 433,-895.5 565,-895.5 565,-640.5 433,-640.5"/>
<text text-anchor="middle" x="499" y="-883.5" font-family="Helvetica,sans-Serif" font-size="10.00">BaseGameManager</text>
<polyline fill="none" stroke="black" points="433,-876.5 565,-876.5 "/>
<text text-anchor="start" x="441" y="-864.5" font-family="Helvetica,sans-Serif" font-size="10.00">+ HazardMap</text>
<text text-anchor="start" x="441" y="-853.5" font-family="Helvetica,sans-Serif" font-size="10.00"># BasePlayerList</text>
<polyline fill="none" stroke="black" points="433,-846.5 565,-846.5 "/>
<text text-anchor="start" x="441" y="-834.5" font-family="Helvetica,sans-Serif" font-size="10.00">+ Update()</text>
<text text-anchor="start" x="441" y="-823.5" font-family="Helvetica,sans-Serif" font-size="10.00">+ AddWall()</text>
<text text-anchor="start" x="441" y="-812.5" font-family="Helvetica,sans-Serif" font-size="10.00">+ AddPowerUp()</text>
<text text-anchor="start" x="441" y="-801.5" font-family="Helvetica,sans-Serif" font-size="10.00">+ Reset()</text>
<text text-anchor="start" x="441" y="-790.5" font-family="Helvetica,sans-Serif" font-size="10.00">+ LoadMap()</text>
<text text-anchor="start" x="441" y="-779.5" font-family="Helvetica,sans-Serif" font-size="10.00">+ GenerateRandomWalls()</text>
<text text-anchor="start" x="441" y="-768.5" font-family="Helvetica,sans-Serif" font-size="10.00">+ DisplayHazardMap()</text>
<text text-anchor="start" x="441" y="-757.5" font-family="Helvetica,sans-Serif" font-size="10.00"># BaseGameManager()</text>
<text text-anchor="start" x="441" y="-746.5" font-family="Helvetica,sans-Serif" font-size="10.00"># UpdateWalls()</text>
<text text-anchor="start" x="441" y="-735.5" font-family="Helvetica,sans-Serif" font-size="10.00"># UpdateBombs()</text>
<text text-anchor="start" x="441" y="-724.5" font-family="Helvetica,sans-Serif" font-size="10.00"># UpdatePowerUps()</text>
<text text-anchor="start" x="441" y="-713.5" font-family="Helvetica,sans-Serif" font-size="10.00"># UpdatePlayers()</text>
<text text-anchor="start" x="441" y="-702.5" font-family="Helvetica,sans-Serif" font-size="10.00"># AddPlayer()</text>
<text text-anchor="start" x="441" y="-691.5" font-family="Helvetica,sans-Serif" font-size="10.00"># DestroyPlayer()</text>
<text text-anchor="start" x="441" y="-680.5" font-family="Helvetica,sans-Serif" font-size="10.00"># DestroyPlayer()</text>
<text text-anchor="start" x="441" y="-669.5" font-family="Helvetica,sans-Serif" font-size="10.00"># RemovePlayer()</text>
<text text-anchor="start" x="441" y="-658.5" font-family="Helvetica,sans-Serif" font-size="10.00"># AddWall()</text>
<text text-anchor="start" x="441" y="-647.5" font-family="Helvetica,sans-Serif" font-size="10.00">and 12 more...</text>
</a>
</g>
</g>
<!-- Node10&#45;&gt;Node9 -->
<g id="edge9" class="edge"><title>Node10&#45;&gt;Node9</title>
<path fill="none" stroke="midnightblue" d="M499,-630.284C499,-617.606 499,-604.631 499,-591.634"/>
<polygon fill="none" stroke="midnightblue" points="495.5,-630.381 499,-640.381 502.5,-630.381 495.5,-630.381"/>
</g>
<!-- Node11 -->
<g id="node11" class="node"><title>Node11</title>
<g id="a_node11"><a xlink:href="class_f_b_library_1_1_core_1_1_base_entities_1_1_base_map.html" target="_top" xlink:title="{FBLibrary.Core.BaseEntities.\lBaseMap\n|+ Name\l+ Loaded\l+ Size\l+ CollisionLayer\l+ PlayerSpawnPoints\l+ PlayerNumber\l|+ Reset()\l+ Parse()\l+ FindEmptyCells()\l+ GetMd5()\l+ DisplayBoard()\l+ DisplayCollisionLayer()\l# BaseMap()\l# AddUnbreakableWall()\l# AddUnbreakableWall()\l# AddEdgeWall()\l# AddEdgeWall()\l}">
<polygon fill="white" stroke="black" points="427.5,-944.5 427.5,-1177.5 570.5,-1177.5 570.5,-944.5 427.5,-944.5"/>
<text text-anchor="start" x="435.5" y="-1165.5" font-family="Helvetica,sans-Serif" font-size="10.00">FBLibrary.Core.BaseEntities.</text>
<text text-anchor="middle" x="499" y="-1154.5" font-family="Helvetica,sans-Serif" font-size="10.00">BaseMap</text>
<polyline fill="none" stroke="black" points="427.5,-1147.5 570.5,-1147.5 "/>
<text text-anchor="start" x="435.5" y="-1135.5" font-family="Helvetica,sans-Serif" font-size="10.00">+ Name</text>
<text text-anchor="start" x="435.5" y="-1124.5" font-family="Helvetica,sans-Serif" font-size="10.00">+ Loaded</text>
<text text-anchor="start" x="435.5" y="-1113.5" font-family="Helvetica,sans-Serif" font-size="10.00">+ Size</text>
<text text-anchor="start" x="435.5" y="-1102.5" font-family="Helvetica,sans-Serif" font-size="10.00">+ CollisionLayer</text>
<text text-anchor="start" x="435.5" y="-1091.5" font-family="Helvetica,sans-Serif" font-size="10.00">+ PlayerSpawnPoints</text>
<text text-anchor="start" x="435.5" y="-1080.5" font-family="Helvetica,sans-Serif" font-size="10.00">+ PlayerNumber</text>
<polyline fill="none" stroke="black" points="427.5,-1073.5 570.5,-1073.5 "/>
<text text-anchor="start" x="435.5" y="-1061.5" font-family="Helvetica,sans-Serif" font-size="10.00">+ Reset()</text>
<text text-anchor="start" x="435.5" y="-1050.5" font-family="Helvetica,sans-Serif" font-size="10.00">+ Parse()</text>
<text text-anchor="start" x="435.5" y="-1039.5" font-family="Helvetica,sans-Serif" font-size="10.00">+ FindEmptyCells()</text>
<text text-anchor="start" x="435.5" y="-1028.5" font-family="Helvetica,sans-Serif" font-size="10.00">+ GetMd5()</text>
<text text-anchor="start" x="435.5" y="-1017.5" font-family="Helvetica,sans-Serif" font-size="10.00">+ DisplayBoard()</text>
<text text-anchor="start" x="435.5" y="-1006.5" font-family="Helvetica,sans-Serif" font-size="10.00">+ DisplayCollisionLayer()</text>
<text text-anchor="start" x="435.5" y="-995.5" font-family="Helvetica,sans-Serif" font-size="10.00"># BaseMap()</text>
<text text-anchor="start" x="435.5" y="-984.5" font-family="Helvetica,sans-Serif" font-size="10.00"># AddUnbreakableWall()</text>
<text text-anchor="start" x="435.5" y="-973.5" font-family="Helvetica,sans-Serif" font-size="10.00"># AddUnbreakableWall()</text>
<text text-anchor="start" x="435.5" y="-962.5" font-family="Helvetica,sans-Serif" font-size="10.00"># AddEdgeWall()</text>
<text text-anchor="start" x="435.5" y="-951.5" font-family="Helvetica,sans-Serif" font-size="10.00"># AddEdgeWall()</text>
</a>
</g>
</g>
<!-- Node11&#45;&gt;Node10 -->
<g id="edge10" class="edge"><title>Node11&#45;&gt;Node10</title>
<path fill="none" stroke="#404040" d="M499,-944.153C499,-932.266 499,-920.103 499,-908"/>
<polygon fill="none" stroke="#404040" points="499,-907.929 495,-901.929 499,-895.929 503,-901.929 499,-907.929"/>
<text text-anchor="middle" x="540" y="-917.5" font-family="Helvetica,sans-Serif" font-size="10.00"> #BaseCurrentMap</text>
</g>
<!-- Node12 -->
<g id="node12" class="node"><title>Node12</title>
<g id="a_node12"><a xlink:href="interface_f_b_library_1_1_core_1_1_i_entity.html" target="_top" xlink:title="{FBLibrary.Core.IEntity\n||+ Destroy()\l+ Remove()\l}">
<polygon fill="white" stroke="black" points="442.5,-1227 442.5,-1295 555.5,-1295 555.5,-1227 442.5,-1227"/>
<text text-anchor="middle" x="499" y="-1283" font-family="Helvetica,sans-Serif" font-size="10.00">FBLibrary.Core.IEntity</text>
<polyline fill="none" stroke="black" points="442.5,-1276 555.5,-1276 "/>
<text text-anchor="middle" x="499" y="-1264" font-family="Helvetica,sans-Serif" font-size="10.00"> </text>
<polyline fill="none" stroke="black" points="442.5,-1257 555.5,-1257 "/>
<text text-anchor="start" x="450.5" y="-1245" font-family="Helvetica,sans-Serif" font-size="10.00">+ Destroy()</text>
<text text-anchor="start" x="450.5" y="-1234" font-family="Helvetica,sans-Serif" font-size="10.00">+ Remove()</text>
</a>
</g>
</g>
<!-- Node12&#45;&gt;Node11 -->
<g id="edge11" class="edge"><title>Node12&#45;&gt;Node11</title>
<path fill="none" stroke="#404040" d="M499,-1226.86C499,-1216.05 499,-1203.31 499,-1189.8"/>
<polygon fill="none" stroke="#404040" points="499,-1189.74 495,-1183.74 499,-1177.74 503,-1183.74 499,-1189.74"/>
<text text-anchor="middle" x="516.5" y="-1199.5" font-family="Helvetica,sans-Serif" font-size="10.00"> +Board</text>
</g>
<!-- Node13 -->
<g id="node13" class="node"><title>Node13</title>
<g id="a_node13"><a xlink:href="class_player_collection.html" target="_top" xlink:title="{PlayerCollection\n||+ GetPlayerByID()\l}">
<polygon fill="white" stroke="black" points="583,-739.5 583,-796.5 679,-796.5 679,-739.5 583,-739.5"/>
<text text-anchor="middle" x="631" y="-784.5" font-family="Helvetica,sans-Serif" font-size="10.00">PlayerCollection</text>
<polyline fill="none" stroke="black" points="583,-777.5 679,-777.5 "/>
<text text-anchor="middle" x="631" y="-765.5" font-family="Helvetica,sans-Serif" font-size="10.00"> </text>
<polyline fill="none" stroke="black" points="583,-758.5 679,-758.5 "/>
<text text-anchor="start" x="591" y="-746.5" font-family="Helvetica,sans-Serif" font-size="10.00">+ GetPlayerByID()</text>
</a>
</g>
</g>
<!-- Node13&#45;&gt;Node9 -->
<g id="edge12" class="edge"><title>Node13&#45;&gt;Node9</title>
<path fill="none" stroke="#404040" d="M620.752,-739.284C609.47,-708.771 590.285,-656.883 570.439,-603.21"/>
<polygon fill="none" stroke="#404040" points="570.358,-602.991 564.526,-598.751 566.197,-591.736 572.029,-595.977 570.358,-602.991"/>
<text text-anchor="middle" x="598.5" y="-613.5" font-family="Helvetica,sans-Serif" font-size="10.00"> +Players</text>
</g>
<!-- Node14 -->
<g id="node14" class="node"><title>Node14</title>
<polygon fill="white" stroke="#bfbfbf" points="592,-1032.5 592,-1089.5 670,-1089.5 670,-1032.5 592,-1032.5"/>
<text text-anchor="middle" x="631" y="-1077.5" font-family="Helvetica,sans-Serif" font-size="10.00">List&lt; Player &gt;</text>
<polyline fill="none" stroke="#bfbfbf" points="592,-1070.5 670,-1070.5 "/>
<text text-anchor="middle" x="631" y="-1058.5" font-family="Helvetica,sans-Serif" font-size="10.00"> </text>
<polyline fill="none" stroke="#bfbfbf" points="592,-1051.5 670,-1051.5 "/>
<text text-anchor="middle" x="631" y="-1039.5" font-family="Helvetica,sans-Serif" font-size="10.00"> </text>
</g>
<!-- Node14&#45;&gt;Node13 -->
<g id="edge13" class="edge"><title>Node14&#45;&gt;Node13</title>
<path fill="none" stroke="midnightblue" d="M631,-1022.3C631,-963.024 631,-849.398 631,-796.88"/>
<polygon fill="none" stroke="midnightblue" points="627.5,-1022.36 631,-1032.36 634.5,-1022.36 627.5,-1022.36"/>
</g>
<!-- Node15 -->
<g id="node15" class="node"><title>Node15</title>
<g id="a_node15"><a xlink:href="class_f_b_client_1_1_g_u_i_1_1_window_box.html" target="_top" xlink:title="{FBClient.GUI.WindowBox\n|+ Position\l+ Size\l|+ WindowBox()\l+ Draw()\l}">
<polygon fill="white" stroke="black" points="589,-369.5 589,-448.5 717,-448.5 717,-369.5 589,-369.5"/>
<text text-anchor="middle" x="653" y="-436.5" font-family="Helvetica,sans-Serif" font-size="10.00">FBClient.GUI.WindowBox</text>
<polyline fill="none" stroke="black" points="589,-429.5 717,-429.5 "/>
<text text-anchor="start" x="597" y="-417.5" font-family="Helvetica,sans-Serif" font-size="10.00">+ Position</text>
<text text-anchor="start" x="597" y="-406.5" font-family="Helvetica,sans-Serif" font-size="10.00">+ Size</text>
<polyline fill="none" stroke="black" points="589,-399.5 717,-399.5 "/>
<text text-anchor="start" x="597" y="-387.5" font-family="Helvetica,sans-Serif" font-size="10.00">+ WindowBox()</text>
<text text-anchor="start" x="597" y="-376.5" font-family="Helvetica,sans-Serif" font-size="10.00">+ Draw()</text>
</a>
</g>
</g>
<!-- Node15&#45;&gt;Node1 -->
<g id="edge14" class="edge"><title>Node15&#45;&gt;Node1</title>
<path fill="none" stroke="#404040" d="M647.258,-369.359C640.338,-322.795 628.47,-242.93 619.069,-179.673"/>
<polygon fill="none" stroke="#404040" points="619.048,-179.533 614.21,-174.186 617.284,-167.663 622.123,-173.01 619.048,-179.533"/>
<text text-anchor="middle" x="667.5" y="-200" font-family="Helvetica,sans-Serif" font-size="10.00"> #ScoresWindowBox</text>
<text text-anchor="middle" x="667.5" y="-189" font-family="Helvetica,sans-Serif" font-size="10.00">#TimerWindowBox</text>
</g>
<!-- Node16 -->
<g id="node16" class="node"><title>Node16</title>
<g id="a_node16"><a xlink:href="class_f_b_client_1_1_world_engine_1_1_camera2_d.html" target="_top" xlink:title="{FBClient.WorldEngine.Camera2D\n|+ Zoom\l+ Rotation\l+ Position\l+ ViewportRectangle\l|+ Camera2D()\l+ Move()\l+ Update()\l+ GetTransformation()\l}">
<polygon fill="white" stroke="black" points="735.5,-347.5 735.5,-470.5 896.5,-470.5 896.5,-347.5 735.5,-347.5"/>
<text text-anchor="middle" x="816" y="-458.5" font-family="Helvetica,sans-Serif" font-size="10.00">FBClient.WorldEngine.Camera2D</text>
<polyline fill="none" stroke="black" points="735.5,-451.5 896.5,-451.5 "/>
<text text-anchor="start" x="743.5" y="-439.5" font-family="Helvetica,sans-Serif" font-size="10.00">+ Zoom</text>
<text text-anchor="start" x="743.5" y="-428.5" font-family="Helvetica,sans-Serif" font-size="10.00">+ Rotation</text>
<text text-anchor="start" x="743.5" y="-417.5" font-family="Helvetica,sans-Serif" font-size="10.00">+ Position</text>
<text text-anchor="start" x="743.5" y="-406.5" font-family="Helvetica,sans-Serif" font-size="10.00">+ ViewportRectangle</text>
<polyline fill="none" stroke="black" points="735.5,-399.5 896.5,-399.5 "/>
<text text-anchor="start" x="743.5" y="-387.5" font-family="Helvetica,sans-Serif" font-size="10.00">+ Camera2D()</text>
<text text-anchor="start" x="743.5" y="-376.5" font-family="Helvetica,sans-Serif" font-size="10.00">+ Move()</text>
<text text-anchor="start" x="743.5" y="-365.5" font-family="Helvetica,sans-Serif" font-size="10.00">+ Update()</text>
<text text-anchor="start" x="743.5" y="-354.5" font-family="Helvetica,sans-Serif" font-size="10.00">+ GetTransformation()</text>
</a>
</g>
</g>
<!-- Node16&#45;&gt;Node1 -->
<g id="edge15" class="edge"><title>Node16&#45;&gt;Node1</title>
<path fill="none" stroke="#404040" d="M796.759,-347.389C780.133,-300.599 753.087,-235.678 717,-186 710.262,-176.724 702.551,-167.666 694.399,-159.023"/>
<polygon fill="none" stroke="#404040" points="694.146,-158.764 687.093,-157.263 685.766,-150.175 692.819,-151.676 694.146,-158.764"/>
<text text-anchor="middle" x="753.5" y="-194.5" font-family="Helvetica,sans-Serif" font-size="10.00"> #Camera</text>
</g>
</g>
</svg>
