<?xml version="1.0" encoding="UTF-8" standalone="no"?>
<!DOCTYPE svg PUBLIC "-//W3C//DTD SVG 1.1//EN"
 "http://www.w3.org/Graphics/SVG/1.1/DTD/svg11.dtd">
<!-- Generated by graphviz version 2.34.0 (20130907.0111)
 -->
<!-- Title: FBClient.Screens.MenuScreens.OptionMenuScreen Pages: 1 -->
<svg width="418pt" height="374pt"
 viewBox="0.00 0.00 418.00 374.00" xmlns="http://www.w3.org/2000/svg" xmlns:xlink="http://www.w3.org/1999/xlink">
<g id="graph0" class="graph" transform="scale(1 1) rotate(0) translate(4 370)">
<title>FBClient.Screens.MenuScreens.OptionMenuScreen</title>
<polygon fill="white" stroke="white" points="-4,4 -4,-370 414,-370 414,4 -4,4"/>
<!-- Node1 -->
<g id="node1" class="node"><title>Node1</title>
<polygon fill="#bfbfbf" stroke="black" points="221.5,-1 221.5,-31 380.5,-31 380.5,-1 221.5,-1"/>
<text text-anchor="start" x="229.5" y="-19" font-family="Helvetica,sans-Serif" font-size="10.00">FBClient.Screens.MenuScreens.</text>
<text text-anchor="middle" x="301" y="-8" font-family="Helvetica,sans-Serif" font-size="10.00">OptionMenuScreen</text>
</g>
<!-- Node2 -->
<g id="node2" class="node"><title>Node2</title>
<g id="a_node2"><a xlink:href="class_f_b_client_1_1_screens_1_1_base_menu_screen.html" target="_top" xlink:title="BaseMenuScreen">
<polygon fill="white" stroke="black" points="254,-70.5 254,-89.5 348,-89.5 348,-70.5 254,-70.5"/>
<text text-anchor="middle" x="301" y="-77.5" font-family="Helvetica,sans-Serif" font-size="10.00">BaseMenuScreen</text>
</a>
</g>
</g>
<!-- Node2&#45;&gt;Node1 -->
<g id="edge1" class="edge"><title>Node2&#45;&gt;Node1</title>
<path fill="none" stroke="midnightblue" d="M301,-60.1826C301,-50.8859 301,-39.8507 301,-31.263"/>
<polygon fill="midnightblue" stroke="midnightblue" points="297.5,-60.3791 301,-70.3792 304.5,-60.3792 297.5,-60.3791"/>
</g>
<!-- Node3 -->
<g id="node3" class="node"><title>Node3</title>
<g id="a_node3"><a xlink:href="class_f_b_client_1_1_screens_1_1_base_game_state.html" target="_top" xlink:title="BaseGameState">
<polygon fill="white" stroke="black" points="256.5,-128.5 256.5,-147.5 345.5,-147.5 345.5,-128.5 256.5,-128.5"/>
<text text-anchor="middle" x="301" y="-135.5" font-family="Helvetica,sans-Serif" font-size="10.00">BaseGameState</text>
</a>
</g>
</g>
<!-- Node3&#45;&gt;Node2 -->
<g id="edge2" class="edge"><title>Node3&#45;&gt;Node2</title>
<path fill="none" stroke="midnightblue" d="M301,-117.953C301,-108.287 301,-97.0312 301,-89.5052"/>
<polygon fill="midnightblue" stroke="midnightblue" points="297.5,-118.25 301,-128.25 304.5,-118.25 297.5,-118.25"/>
</g>
<!-- Node4 -->
<g id="node4" class="node"><title>Node4</title>
<g id="a_node4"><a xlink:href="class_f_b_client_1_1_controls_1_1_game_state.html" target="_top" xlink:title="GameState">
<polygon fill="white" stroke="black" points="190,-202.5 190,-221.5 256,-221.5 256,-202.5 190,-202.5"/>
<text text-anchor="middle" x="223" y="-209.5" font-family="Helvetica,sans-Serif" font-size="10.00">GameState</text>
</a>
</g>
</g>
<!-- Node4&#45;&gt;Node3 -->
<g id="edge3" class="edge"><title>Node4&#45;&gt;Node3</title>
<path fill="none" stroke="midnightblue" d="M239.801,-195.491C255.701,-180.815 278.981,-159.325 291.758,-147.531"/>
<polygon fill="midnightblue" stroke="midnightblue" points="237.228,-193.103 232.254,-202.458 241.976,-198.247 237.228,-193.103"/>
</g>
<!-- Node5 -->
<g id="node5" class="node"><title>Node5</title>
<polygon fill="white" stroke="#bfbfbf" points="0,-282.5 0,-301.5 132,-301.5 132,-282.5 0,-282.5"/>
<text text-anchor="middle" x="66" y="-289.5" font-family="Helvetica,sans-Serif" font-size="10.00">DrawableGameComponent</text>
</g>
<!-- Node5&#45;&gt;Node4 -->
<g id="edge4" class="edge"><title>Node5&#45;&gt;Node4</title>
<path fill="none" stroke="midnightblue" d="M92.6688,-277.751C124.874,-261.751 178.122,-235.296 205.52,-221.684"/>
<polygon fill="midnightblue" stroke="midnightblue" points="90.8,-274.771 83.4016,-282.355 93.9145,-281.04 90.8,-274.771"/>
</g>
<!-- Node6 -->
<g id="node6" class="node"><title>Node6</title>
<g id="a_node6"><a xlink:href="class_f_b_client_1_1_controls_1_1_game_state_manager.html" target="_top" xlink:title="FBClient.Controls.GameState\lManager">
<polygon fill="white" stroke="black" points="150,-277 150,-307 296,-307 296,-277 150,-277"/>
<text text-anchor="start" x="158" y="-295" font-family="Helvetica,sans-Serif" font-size="10.00">FBClient.Controls.GameState</text>
<text text-anchor="middle" x="223" y="-284" font-family="Helvetica,sans-Serif" font-size="10.00">Manager</text>
</a>
</g>
</g>
<!-- Node6&#45;&gt;Node4 -->
<g id="edge5" class="edge"><title>Node6&#45;&gt;Node4</title>
<path fill="none" stroke="#9a32cd" stroke-dasharray="5,2" d="M223,-266.394C223,-251.208 223,-232.635 223,-221.876"/>
<polygon fill="#9a32cd" stroke="#9a32cd" points="219.5,-266.694 223,-276.694 226.5,-266.694 219.5,-266.694"/>
<text text-anchor="middle" x="255" y="-249.5" font-family="Helvetica,sans-Serif" font-size="10.00"> StateManager</text>
</g>
<!-- Node7 -->
<g id="node7" class="node"><title>Node7</title>
<polygon fill="white" stroke="#bfbfbf" points="177,-346.5 177,-365.5 269,-365.5 269,-346.5 177,-346.5"/>
<text text-anchor="middle" x="223" y="-353.5" font-family="Helvetica,sans-Serif" font-size="10.00">GameComponent</text>
</g>
<!-- Node7&#45;&gt;Node6 -->
<g id="edge6" class="edge"><title>Node7&#45;&gt;Node6</title>
<path fill="none" stroke="midnightblue" d="M223,-336.183C223,-326.886 223,-315.851 223,-307.263"/>
<polygon fill="midnightblue" stroke="midnightblue" points="219.5,-336.379 223,-346.379 226.5,-336.379 219.5,-336.379"/>
</g>
<!-- Node8 -->
<g id="node8" class="node"><title>Node8</title>
<g id="a_node8"><a xlink:href="class_f_b_client_1_1_controls_1_1_control_manager.html" target="_top" xlink:title="FBClient.Controls.Control\lManager">
<polygon fill="white" stroke="black" points="283.5,-197 283.5,-227 410.5,-227 410.5,-197 283.5,-197"/>
<text text-anchor="start" x="291.5" y="-215" font-family="Helvetica,sans-Serif" font-size="10.00">FBClient.Controls.Control</text>
<text text-anchor="middle" x="347" y="-204" font-family="Helvetica,sans-Serif" font-size="10.00">Manager</text>
</a>
</g>
</g>
<!-- Node8&#45;&gt;Node3 -->
<g id="edge7" class="edge"><title>Node8&#45;&gt;Node3</title>
<path fill="none" stroke="#9a32cd" stroke-dasharray="5,2" d="M332.48,-188.273C323.693,-174.52 312.987,-157.762 306.596,-147.759"/>
<polygon fill="#9a32cd" stroke="#9a32cd" points="329.578,-190.233 337.912,-196.775 335.477,-186.464 329.578,-190.233"/>
<text text-anchor="middle" x="362" y="-169.5" font-family="Helvetica,sans-Serif" font-size="10.00"> ControlManager</text>
</g>
<!-- Node9 -->
<g id="node9" class="node"><title>Node9</title>
<polygon fill="white" stroke="#bfbfbf" points="314.5,-282.5 314.5,-301.5 395.5,-301.5 395.5,-282.5 314.5,-282.5"/>
<text text-anchor="middle" x="355" y="-289.5" font-family="Helvetica,sans-Serif" font-size="10.00">List&lt; Control &gt;</text>
</g>
<!-- Node9&#45;&gt;Node8 -->
<g id="edge8" class="edge"><title>Node9&#45;&gt;Node8</title>
<path fill="none" stroke="midnightblue" d="M353.058,-272.062C351.64,-258.242 349.749,-239.802 348.459,-227.227"/>
<polygon fill="midnightblue" stroke="midnightblue" points="349.611,-272.764 354.113,-282.355 356.575,-272.05 349.611,-272.764"/>
</g>
</g>
</svg>
