<?xml version="1.0" encoding="UTF-8" standalone="no"?>
<!DOCTYPE svg PUBLIC "-//W3C//DTD SVG 1.1//EN"
 "http://www.w3.org/Graphics/SVG/1.1/DTD/svg11.dtd">
<!-- Generated by graphviz version 2.34.0 (20130907.0111)
 -->
<!-- Title: FBServer.Host.ClientCollection Pages: 1 -->
<svg width="158pt" height="260pt"
 viewBox="0.00 0.00 158.00 260.00" xmlns="http://www.w3.org/2000/svg" xmlns:xlink="http://www.w3.org/1999/xlink">
<g id="graph0" class="graph" transform="scale(1 1) rotate(0) translate(4 256)">
<title>FBServer.Host.ClientCollection</title>
<polygon fill="white" stroke="white" points="-4,4 -4,-256 154,-256 154,4 -4,4"/>
<!-- Node1 -->
<g id="node1" class="node"><title>Node1</title>
<polygon fill="#bfbfbf" stroke="black" points="0,-1 0,-157 150,-157 150,-1 0,-1"/>
<text text-anchor="middle" x="75" y="-145" font-family="Helvetica,sans-Serif" font-size="10.00">FBServer.Host.ClientCollection</text>
<polyline fill="none" stroke="black" points="0,-138 150,-138 "/>
<text text-anchor="start" x="8" y="-126" font-family="Helvetica,sans-Serif" font-size="10.00">+ MapName</text>
<text text-anchor="start" x="8" y="-115" font-family="Helvetica,sans-Serif" font-size="10.00">+ Hosting</text>
<polyline fill="none" stroke="black" points="0,-108 150,-108 "/>
<text text-anchor="start" x="8" y="-96" font-family="Helvetica,sans-Serif" font-size="10.00">+ AddClient()</text>
<text text-anchor="start" x="8" y="-85" font-family="Helvetica,sans-Serif" font-size="10.00">+ RemoveClient()</text>
<text text-anchor="start" x="8" y="-74" font-family="Helvetica,sans-Serif" font-size="10.00">+ IsClientsReady()</text>
<text text-anchor="start" x="8" y="-63" font-family="Helvetica,sans-Serif" font-size="10.00">+ GetClientFromConnection()</text>
<text text-anchor="start" x="8" y="-52" font-family="Helvetica,sans-Serif" font-size="10.00">+ GetClientFromPlayer()</text>
<text text-anchor="start" x="8" y="-41" font-family="Helvetica,sans-Serif" font-size="10.00">+ GetClientFromUsername()</text>
<text text-anchor="start" x="8" y="-30" font-family="Helvetica,sans-Serif" font-size="10.00">+ GetPlayerFromId()</text>
<text text-anchor="start" x="8" y="-19" font-family="Helvetica,sans-Serif" font-size="10.00">+ GetAlivePlayers()</text>
<text text-anchor="start" x="8" y="-8" font-family="Helvetica,sans-Serif" font-size="10.00">+ GetPlayers()</text>
</g>
<!-- Node2 -->
<g id="node2" class="node"><title>Node2</title>
<polygon fill="white" stroke="#bfbfbf" points="37.5,-194.5 37.5,-251.5 112.5,-251.5 112.5,-194.5 37.5,-194.5"/>
<text text-anchor="middle" x="75" y="-239.5" font-family="Helvetica,sans-Serif" font-size="10.00">List&lt; Client &gt;</text>
<polyline fill="none" stroke="#bfbfbf" points="37.5,-232.5 112.5,-232.5 "/>
<text text-anchor="middle" x="75" y="-220.5" font-family="Helvetica,sans-Serif" font-size="10.00"> </text>
<polyline fill="none" stroke="#bfbfbf" points="37.5,-213.5 112.5,-213.5 "/>
<text text-anchor="middle" x="75" y="-201.5" font-family="Helvetica,sans-Serif" font-size="10.00"> </text>
</g>
<!-- Node2&#45;&gt;Node1 -->
<g id="edge1" class="edge"><title>Node2&#45;&gt;Node1</title>
<path fill="none" stroke="midnightblue" d="M75,-184.128C75,-175.734 75,-166.545 75,-157.212"/>
<polygon fill="none" stroke="midnightblue" points="71.5001,-184.284 75,-194.284 78.5001,-184.284 71.5001,-184.284"/>
</g>
</g>
</svg>
