<?xml version="1.0" encoding="UTF-8" standalone="no"?>
<!DOCTYPE svg PUBLIC "-//W3C//DTD SVG 1.1//EN"
 "http://www.w3.org/Graphics/SVG/1.1/DTD/svg11.dtd">
<!-- Generated by graphviz version 2.34.0 (20130907.0111)
 -->
<!-- Title: FBClient.Screens.MenuScreens.UserMenuScreen Pages: 1 -->
<svg width="166pt" height="708pt"
 viewBox="0.00 0.00 166.00 708.00" xmlns="http://www.w3.org/2000/svg" xmlns:xlink="http://www.w3.org/1999/xlink">
<g id="graph0" class="graph" transform="scale(1 1) rotate(0) translate(4 704)">
<title>FBClient.Screens.MenuScreens.UserMenuScreen</title>
<polygon fill="white" stroke="white" points="-4,4 -4,-704 162,-704 162,4 -4,4"/>
<!-- Node1 -->
<g id="node1" class="node"><title>Node1</title>
<polygon fill="#bfbfbf" stroke="black" points="-0.5,-1 -0.5,-135 158.5,-135 158.5,-1 -0.5,-1"/>
<text text-anchor="start" x="7.5" y="-123" font-family="Helvetica,sans-Serif" font-size="10.00">FBClient.Screens.MenuScreens.</text>
<text text-anchor="middle" x="79" y="-112" font-family="Helvetica,sans-Serif" font-size="10.00">UserMenuScreen</text>
<polyline fill="none" stroke="black" points="-0.5,-105 158.5,-105 "/>
<text text-anchor="start" x="7.5" y="-93" font-family="Helvetica,sans-Serif" font-size="10.00">+ VERSION</text>
<text text-anchor="start" x="7.5" y="-82" font-family="Helvetica,sans-Serif" font-size="10.00">+ hasLoggedIn</text>
<text text-anchor="start" x="7.5" y="-71" font-family="Helvetica,sans-Serif" font-size="10.00">+ username</text>
<polyline fill="none" stroke="black" points="-0.5,-64 158.5,-64 "/>
<text text-anchor="start" x="7.5" y="-52" font-family="Helvetica,sans-Serif" font-size="10.00">+ UserMenuScreen()</text>
<text text-anchor="start" x="7.5" y="-41" font-family="Helvetica,sans-Serif" font-size="10.00">+ Initialize()</text>
<text text-anchor="start" x="7.5" y="-30" font-family="Helvetica,sans-Serif" font-size="10.00">+ Update()</text>
<text text-anchor="start" x="7.5" y="-19" font-family="Helvetica,sans-Serif" font-size="10.00">+ Draw()</text>
<text text-anchor="start" x="7.5" y="-8" font-family="Helvetica,sans-Serif" font-size="10.00"># LoadContent()</text>
</g>
<!-- Node2 -->
<g id="node2" class="node"><title>Node2</title>
<g id="a_node2"><a xlink:href="class_f_b_client_1_1_screens_1_1_base_menu_screen.html" target="_top" xlink:title="{BaseMenuScreen\n|# MenuString\l# IndexMenu\l# MenuPosition\l|+ Initialize()\l+ Update()\l# BaseMenuScreen()\l}">
<polygon fill="white" stroke="black" points="25,-172.5 25,-273.5 133,-273.5 133,-172.5 25,-172.5"/>
<text text-anchor="middle" x="79" y="-261.5" font-family="Helvetica,sans-Serif" font-size="10.00">BaseMenuScreen</text>
<polyline fill="none" stroke="black" points="25,-254.5 133,-254.5 "/>
<text text-anchor="start" x="33" y="-242.5" font-family="Helvetica,sans-Serif" font-size="10.00"># MenuString</text>
<text text-anchor="start" x="33" y="-231.5" font-family="Helvetica,sans-Serif" font-size="10.00"># IndexMenu</text>
<text text-anchor="start" x="33" y="-220.5" font-family="Helvetica,sans-Serif" font-size="10.00"># MenuPosition</text>
<polyline fill="none" stroke="black" points="25,-213.5 133,-213.5 "/>
<text text-anchor="start" x="33" y="-201.5" font-family="Helvetica,sans-Serif" font-size="10.00">+ Initialize()</text>
<text text-anchor="start" x="33" y="-190.5" font-family="Helvetica,sans-Serif" font-size="10.00">+ Update()</text>
<text text-anchor="start" x="33" y="-179.5" font-family="Helvetica,sans-Serif" font-size="10.00"># BaseMenuScreen()</text>
</a>
</g>
</g>
<!-- Node2&#45;&gt;Node1 -->
<g id="edge1" class="edge"><title>Node2&#45;&gt;Node1</title>
<path fill="none" stroke="midnightblue" d="M79,-162.109C79,-153.258 79,-144.096 79,-135.128"/>
<polygon fill="none" stroke="midnightblue" points="75.5001,-162.325 79,-172.325 82.5001,-162.325 75.5001,-162.325"/>
</g>
<!-- Node3 -->
<g id="node3" class="node"><title>Node3</title>
<g id="a_node3"><a xlink:href="class_f_b_client_1_1_screens_1_1_base_game_state.html" target="_top" xlink:title="{BaseGameState\n|# ControlManager\l# BigFont\l# playerIndexInControl\l|+ BaseGameState()\l+ Update()\l+ Draw()\l# LoadContent()\l}">
<polygon fill="white" stroke="black" points="22.5,-311 22.5,-423 135.5,-423 135.5,-311 22.5,-311"/>
<text text-anchor="middle" x="79" y="-411" font-family="Helvetica,sans-Serif" font-size="10.00">BaseGameState</text>
<polyline fill="none" stroke="black" points="22.5,-404 135.5,-404 "/>
<text text-anchor="start" x="30.5" y="-392" font-family="Helvetica,sans-Serif" font-size="10.00"># ControlManager</text>
<text text-anchor="start" x="30.5" y="-381" font-family="Helvetica,sans-Serif" font-size="10.00"># BigFont</text>
<text text-anchor="start" x="30.5" y="-370" font-family="Helvetica,sans-Serif" font-size="10.00"># playerIndexInControl</text>
<polyline fill="none" stroke="black" points="22.5,-363 135.5,-363 "/>
<text text-anchor="start" x="30.5" y="-351" font-family="Helvetica,sans-Serif" font-size="10.00">+ BaseGameState()</text>
<text text-anchor="start" x="30.5" y="-340" font-family="Helvetica,sans-Serif" font-size="10.00">+ Update()</text>
<text text-anchor="start" x="30.5" y="-329" font-family="Helvetica,sans-Serif" font-size="10.00">+ Draw()</text>
<text text-anchor="start" x="30.5" y="-318" font-family="Helvetica,sans-Serif" font-size="10.00"># LoadContent()</text>
</a>
</g>
</g>
<!-- Node3&#45;&gt;Node2 -->
<g id="edge2" class="edge"><title>Node3&#45;&gt;Node2</title>
<path fill="none" stroke="midnightblue" d="M79,-300.613C79,-291.613 79,-282.492 79,-273.833"/>
<polygon fill="none" stroke="midnightblue" points="75.5001,-300.692 79,-310.692 82.5001,-300.693 75.5001,-300.692"/>
</g>
<!-- Node4 -->
<g id="node4" class="node"><title>Node4</title>
<g id="a_node4"><a xlink:href="class_f_b_client_1_1_controls_1_1_game_state.html" target="_top" xlink:title="{GameState\n|+ Components\l+ Tag\l# StateManager\l|+ Initialize()\l+ Update()\l+ Draw()\l# GameState()\l# StateChange()\l# Show()\l# Hide()\l}">
<polygon fill="white" stroke="black" points="35.5,-460.5 35.5,-605.5 122.5,-605.5 122.5,-460.5 35.5,-460.5"/>
<text text-anchor="middle" x="79" y="-593.5" font-family="Helvetica,sans-Serif" font-size="10.00">GameState</text>
<polyline fill="none" stroke="black" points="35.5,-586.5 122.5,-586.5 "/>
<text text-anchor="start" x="43.5" y="-574.5" font-family="Helvetica,sans-Serif" font-size="10.00">+ Components</text>
<text text-anchor="start" x="43.5" y="-563.5" font-family="Helvetica,sans-Serif" font-size="10.00">+ Tag</text>
<text text-anchor="start" x="43.5" y="-552.5" font-family="Helvetica,sans-Serif" font-size="10.00"># StateManager</text>
<polyline fill="none" stroke="black" points="35.5,-545.5 122.5,-545.5 "/>
<text text-anchor="start" x="43.5" y="-533.5" font-family="Helvetica,sans-Serif" font-size="10.00">+ Initialize()</text>
<text text-anchor="start" x="43.5" y="-522.5" font-family="Helvetica,sans-Serif" font-size="10.00">+ Update()</text>
<text text-anchor="start" x="43.5" y="-511.5" font-family="Helvetica,sans-Serif" font-size="10.00">+ Draw()</text>
<text text-anchor="start" x="43.5" y="-500.5" font-family="Helvetica,sans-Serif" font-size="10.00"># GameState()</text>
<text text-anchor="start" x="43.5" y="-489.5" font-family="Helvetica,sans-Serif" font-size="10.00"># StateChange()</text>
<text text-anchor="start" x="43.5" y="-478.5" font-family="Helvetica,sans-Serif" font-size="10.00"># Show()</text>
<text text-anchor="start" x="43.5" y="-467.5" font-family="Helvetica,sans-Serif" font-size="10.00"># Hide()</text>
</a>
</g>
</g>
<!-- Node4&#45;&gt;Node3 -->
<g id="edge3" class="edge"><title>Node4&#45;&gt;Node3</title>
<path fill="none" stroke="midnightblue" d="M79,-449.855C79,-440.789 79,-431.726 79,-423.109"/>
<polygon fill="none" stroke="midnightblue" points="75.5001,-450.067 79,-460.067 82.5001,-450.067 75.5001,-450.067"/>
</g>
<!-- Node5 -->
<g id="node5" class="node"><title>Node5</title>
<polygon fill="white" stroke="#bfbfbf" points="13,-642.5 13,-699.5 145,-699.5 145,-642.5 13,-642.5"/>
<text text-anchor="middle" x="79" y="-687.5" font-family="Helvetica,sans-Serif" font-size="10.00">DrawableGameComponent</text>
<polyline fill="none" stroke="#bfbfbf" points="13,-680.5 145,-680.5 "/>
<text text-anchor="middle" x="79" y="-668.5" font-family="Helvetica,sans-Serif" font-size="10.00"> </text>
<polyline fill="none" stroke="#bfbfbf" points="13,-661.5 145,-661.5 "/>
<text text-anchor="middle" x="79" y="-649.5" font-family="Helvetica,sans-Serif" font-size="10.00"> </text>
</g>
<!-- Node5&#45;&gt;Node4 -->
<g id="edge4" class="edge"><title>Node5&#45;&gt;Node4</title>
<path fill="none" stroke="midnightblue" d="M79,-632.356C79,-623.999 79,-614.872 79,-605.656"/>
<polygon fill="none" stroke="midnightblue" points="75.5001,-632.478 79,-642.478 82.5001,-632.478 75.5001,-632.478"/>
</g>
</g>
</svg>
