<?xml version="1.0" encoding="UTF-8" standalone="no"?>
<!DOCTYPE svg PUBLIC "-//W3C//DTD SVG 1.1//EN"
 "http://www.w3.org/Graphics/SVG/1.1/DTD/svg11.dtd">
<!-- Generated by graphviz version 2.34.0 (20130907.0111)
 -->
<!-- Title: FBLibrary.Core.BaseEntities.BaseWall Pages: 1 -->
<svg width="300pt" height="264pt"
 viewBox="0.00 0.00 300.00 264.00" xmlns="http://www.w3.org/2000/svg" xmlns:xlink="http://www.w3.org/1999/xlink">
<g id="graph0" class="graph" transform="scale(1 1) rotate(0) translate(4 260)">
<title>FBLibrary.Core.BaseEntities.BaseWall</title>
<polygon fill="white" stroke="white" points="-4,4 -4,-260 296,-260 296,4 -4,4"/>
<!-- Node1 -->
<g id="node1" class="node"><title>Node1</title>
<polygon fill="#bfbfbf" stroke="black" points="73.5,-57 73.5,-87 216.5,-87 216.5,-57 73.5,-57"/>
<text text-anchor="start" x="81.5" y="-75" font-family="Helvetica,sans-Serif" font-size="10.00">FBLibrary.Core.BaseEntities.</text>
<text text-anchor="middle" x="145" y="-64" font-family="Helvetica,sans-Serif" font-size="10.00">BaseWall</text>
</g>
<!-- Node5 -->
<g id="node5" class="node"><title>Node5</title>
<g id="a_node5"><a xlink:href="class_f_b_client_1_1_core_1_1_entities_1_1_wall.html" target="_top" xlink:title="FBClient.Core.Entities.Wall">
<polygon fill="white" stroke="black" points="0,-0.5 0,-19.5 136,-19.5 136,-0.5 0,-0.5"/>
<text text-anchor="middle" x="68" y="-7.5" font-family="Helvetica,sans-Serif" font-size="10.00">FBClient.Core.Entities.Wall</text>
</a>
</g>
</g>
<!-- Node1&#45;&gt;Node5 -->
<g id="edge4" class="edge"><title>Node1&#45;&gt;Node5</title>
<path fill="none" stroke="midnightblue" d="M118.715,-50.5179C105.234,-40.0137 89.5249,-27.7727 79.2042,-19.7305"/>
<polygon fill="midnightblue" stroke="midnightblue" points="116.713,-53.3951 126.752,-56.7808 121.015,-47.8735 116.713,-53.3951"/>
</g>
<!-- Node6 -->
<g id="node6" class="node"><title>Node6</title>
<g id="a_node6"><a xlink:href="class_f_b_server_1_1_core_1_1_entities_1_1_wall.html" target="_top" xlink:title="FBServer.Core.Entities.Wall">
<polygon fill="white" stroke="black" points="154,-0.5 154,-19.5 292,-19.5 292,-0.5 154,-0.5"/>
<text text-anchor="middle" x="223" y="-7.5" font-family="Helvetica,sans-Serif" font-size="10.00">FBServer.Core.Entities.Wall</text>
</a>
</g>
</g>
<!-- Node1&#45;&gt;Node6 -->
<g id="edge5" class="edge"><title>Node1&#45;&gt;Node6</title>
<path fill="none" stroke="midnightblue" d="M171.627,-50.5179C185.282,-40.0137 201.196,-27.7727 211.65,-19.7305"/>
<polygon fill="midnightblue" stroke="midnightblue" points="169.277,-47.9095 163.485,-56.7808 173.545,-53.4579 169.277,-47.9095"/>
</g>
<!-- Node2 -->
<g id="node2" class="node"><title>Node2</title>
<g id="a_node2"><a xlink:href="class_f_b_library_1_1_core_1_1_static_entity.html" target="_top" xlink:title="StaticEntity">
<polygon fill="white" stroke="black" points="111,-124.5 111,-143.5 179,-143.5 179,-124.5 111,-124.5"/>
<text text-anchor="middle" x="145" y="-131.5" font-family="Helvetica,sans-Serif" font-size="10.00">StaticEntity</text>
</a>
</g>
</g>
<!-- Node2&#45;&gt;Node1 -->
<g id="edge1" class="edge"><title>Node2&#45;&gt;Node1</title>
<path fill="none" stroke="midnightblue" d="M145,-114.371C145,-105.585 145,-95.2721 145,-87.1408"/>
<polygon fill="midnightblue" stroke="midnightblue" points="141.5,-114.403 145,-124.403 148.5,-114.403 141.5,-114.403"/>
</g>
<!-- Node3 -->
<g id="node3" class="node"><title>Node3</title>
<g id="a_node3"><a xlink:href="class_f_b_library_1_1_core_1_1_base_entity.html" target="_top" xlink:title="BaseEntity">
<polygon fill="white" stroke="black" points="112.5,-180.5 112.5,-199.5 177.5,-199.5 177.5,-180.5 112.5,-180.5"/>
<text text-anchor="middle" x="145" y="-187.5" font-family="Helvetica,sans-Serif" font-size="10.00">BaseEntity</text>
</a>
</g>
</g>
<!-- Node3&#45;&gt;Node2 -->
<g id="edge2" class="edge"><title>Node3&#45;&gt;Node2</title>
<path fill="none" stroke="midnightblue" d="M145,-169.805C145,-160.91 145,-150.78 145,-143.751"/>
<polygon fill="midnightblue" stroke="midnightblue" points="141.5,-170.083 145,-180.083 148.5,-170.083 141.5,-170.083"/>
</g>
<!-- Node4 -->
<g id="node4" class="node"><title>Node4</title>
<g id="a_node4"><a xlink:href="interface_f_b_library_1_1_core_1_1_i_entity.html" target="_top" xlink:title="IEntity">
<polygon fill="white" stroke="black" points="123,-236.5 123,-255.5 167,-255.5 167,-236.5 123,-236.5"/>
<text text-anchor="middle" x="145" y="-243.5" font-family="Helvetica,sans-Serif" font-size="10.00">IEntity</text>
</a>
</g>
</g>
<!-- Node4&#45;&gt;Node3 -->
<g id="edge3" class="edge"><title>Node4&#45;&gt;Node3</title>
<path fill="none" stroke="midnightblue" d="M145,-225.805C145,-216.91 145,-206.78 145,-199.751"/>
<polygon fill="midnightblue" stroke="midnightblue" points="141.5,-226.083 145,-236.083 148.5,-226.083 141.5,-226.083"/>
</g>
</g>
</svg>
