<?xml version="1.0" encoding="UTF-8" standalone="no"?>
<!DOCTYPE svg PUBLIC "-//W3C//DTD SVG 1.1//EN"
 "http://www.w3.org/Graphics/SVG/1.1/DTD/svg11.dtd">
<!-- Generated by graphviz version 2.34.0 (20130907.0111)
 -->
<!-- Title: FBClient.Core.Players.BaseHumanPlayer Pages: 1 -->
<svg width="1092pt" height="154pt"
 viewBox="0.00 0.00 1092.00 154.00" xmlns="http://www.w3.org/2000/svg" xmlns:xlink="http://www.w3.org/1999/xlink">
<g id="graph0" class="graph" transform="scale(1 1) rotate(0) translate(4 150)">
<title>FBClient.Core.Players.BaseHumanPlayer</title>
<polygon fill="white" stroke="white" points="-4,4 -4,-150 1088,-150 1088,4 -4,4"/>
<!-- Node1 -->
<g id="node1" class="node"><title>Node1</title>
<polygon fill="#bfbfbf" stroke="black" points="944.5,-59 944.5,-89 1083.5,-89 1083.5,-59 944.5,-59"/>
<text text-anchor="start" x="952.5" y="-77" font-family="Helvetica,sans-Serif" font-size="10.00">FBClient.Core.Players.Base</text>
<text text-anchor="middle" x="1014" y="-66" font-family="Helvetica,sans-Serif" font-size="10.00">HumanPlayer</text>
</g>
<!-- Node2 -->
<g id="node2" class="node"><title>Node2</title>
<g id="a_node2"><a xlink:href="class_f_b_client_1_1_entities_1_1_player.html" target="_top" xlink:title="Player">
<polygon fill="white" stroke="black" points="746,-83.5 746,-102.5 790,-102.5 790,-83.5 746,-83.5"/>
<text text-anchor="middle" x="768" y="-90.5" font-family="Helvetica,sans-Serif" font-size="10.00">Player</text>
</a>
</g>
</g>
<!-- Node2&#45;&gt;Node1 -->
<g id="edge1" class="edge"><title>Node2&#45;&gt;Node1</title>
<path fill="none" stroke="midnightblue" d="M800.638,-90.5364C836.816,-87.7193 897.119,-83.0236 944.24,-79.3543"/>
<polygon fill="midnightblue" stroke="midnightblue" points="799.925,-87.0812 790.227,-91.3471 800.468,-94.0601 799.925,-87.0812"/>
</g>
<!-- Node3 -->
<g id="node3" class="node"><title>Node3</title>
<g id="a_node3"><a xlink:href="class_f_b_library_1_1_core_1_1_base_entities_1_1_base_player.html" target="_top" xlink:title="BasePlayer">
<polygon fill="white" stroke="black" points="536.5,-88.5 536.5,-107.5 603.5,-107.5 603.5,-88.5 536.5,-88.5"/>
<text text-anchor="middle" x="570" y="-95.5" font-family="Helvetica,sans-Serif" font-size="10.00">BasePlayer</text>
</a>
</g>
</g>
<!-- Node3&#45;&gt;Node2 -->
<g id="edge2" class="edge"><title>Node3&#45;&gt;Node2</title>
<path fill="none" stroke="midnightblue" d="M614.009,-96.9028C654.837,-95.8613 714.494,-94.3395 745.886,-93.5386"/>
<polygon fill="midnightblue" stroke="midnightblue" points="613.713,-93.4091 603.806,-97.1631 613.892,-100.407 613.713,-93.4091"/>
</g>
<!-- Node4 -->
<g id="node4" class="node"><title>Node4</title>
<g id="a_node4"><a xlink:href="class_f_b_library_1_1_core_1_1_dynamic_entity.html" target="_top" xlink:title="DynamicEntity">
<polygon fill="white" stroke="black" points="294,-126.5 294,-145.5 374,-145.5 374,-126.5 294,-126.5"/>
<text text-anchor="middle" x="334" y="-133.5" font-family="Helvetica,sans-Serif" font-size="10.00">DynamicEntity</text>
</a>
</g>
</g>
<!-- Node4&#45;&gt;Node3 -->
<g id="edge3" class="edge"><title>Node4&#45;&gt;Node3</title>
<path fill="none" stroke="midnightblue" d="M384.392,-130.106C417.256,-125.941 461.331,-119.888 500,-113 511.948,-110.872 524.974,-108.146 536.458,-105.604"/>
<polygon fill="midnightblue" stroke="midnightblue" points="383.624,-126.674 374.137,-131.39 384.494,-133.62 383.624,-126.674"/>
</g>
<!-- Node5 -->
<g id="node5" class="node"><title>Node5</title>
<g id="a_node5"><a xlink:href="class_f_b_library_1_1_core_1_1_base_entity.html" target="_top" xlink:title="BaseEntity">
<polygon fill="white" stroke="black" points="106.5,-126.5 106.5,-145.5 171.5,-145.5 171.5,-126.5 106.5,-126.5"/>
<text text-anchor="middle" x="139" y="-133.5" font-family="Helvetica,sans-Serif" font-size="10.00">BaseEntity</text>
</a>
</g>
</g>
<!-- Node5&#45;&gt;Node4 -->
<g id="edge4" class="edge"><title>Node5&#45;&gt;Node4</title>
<path fill="none" stroke="midnightblue" d="M182.17,-136C215.375,-136 261.311,-136 293.74,-136"/>
<polygon fill="midnightblue" stroke="midnightblue" points="181.87,-132.5 171.87,-136 181.87,-139.5 181.87,-132.5"/>
</g>
<!-- Node6 -->
<g id="node6" class="node"><title>Node6</title>
<g id="a_node6"><a xlink:href="interface_f_b_library_1_1_core_1_1_i_entity.html" target="_top" xlink:title="IEntity">
<polygon fill="white" stroke="black" points="0,-126.5 0,-145.5 44,-145.5 44,-126.5 0,-126.5"/>
<text text-anchor="middle" x="22" y="-133.5" font-family="Helvetica,sans-Serif" font-size="10.00">IEntity</text>
</a>
</g>
</g>
<!-- Node6&#45;&gt;Node5 -->
<g id="edge5" class="edge"><title>Node6&#45;&gt;Node5</title>
<path fill="none" stroke="midnightblue" d="M54.1172,-136C70.2593,-136 89.9432,-136 106.186,-136"/>
<polygon fill="midnightblue" stroke="midnightblue" points="54.0928,-132.5 44.0928,-136 54.0927,-139.5 54.0928,-132.5"/>
</g>
<!-- Node7 -->
<g id="node7" class="node"><title>Node7</title>
<g id="a_node7"><a xlink:href="class_f_b_library_1_1_core_1_1_player_stats.html" target="_top" xlink:title="FBLibrary.Core.PlayerStats">
<polygon fill="white" stroke="black" points="266,-88.5 266,-107.5 402,-107.5 402,-88.5 266,-88.5"/>
<text text-anchor="middle" x="334" y="-95.5" font-family="Helvetica,sans-Serif" font-size="10.00">FBLibrary.Core.PlayerStats</text>
</a>
</g>
</g>
<!-- Node7&#45;&gt;Node3 -->
<g id="edge6" class="edge"><title>Node7&#45;&gt;Node3</title>
<path fill="none" stroke="#9a32cd" stroke-dasharray="5,2" d="M412.304,-98C454.437,-98 504.361,-98 536.342,-98"/>
<polygon fill="#9a32cd" stroke="#9a32cd" points="412.055,-94.5001 402.055,-98 412.055,-101.5 412.055,-94.5001"/>
<text text-anchor="middle" x="462" y="-101" font-family="Helvetica,sans-Serif" font-size="10.00"> Stats</text>
</g>
<!-- Node8 -->
<g id="node8" class="node"><title>Node8</title>
<g id="a_node8"><a xlink:href="class_f_b_client_1_1_core_1_1_game_manager.html" target="_top" xlink:title="This class is used to regroup common behaviors between network and local game logic. ">
<polygon fill="white" stroke="black" points="696,-44.5 696,-63.5 840,-63.5 840,-44.5 696,-44.5"/>
<text text-anchor="middle" x="768" y="-51.5" font-family="Helvetica,sans-Serif" font-size="10.00">FBClient.Core.GameManager</text>
</a>
</g>
</g>
<!-- Node8&#45;&gt;Node1 -->
<g id="edge7" class="edge"><title>Node8&#45;&gt;Node1</title>
<path fill="none" stroke="#9a32cd" stroke-dasharray="5,2" d="M850.388,-60.6712C880.807,-63.1645 915.028,-65.9695 944.201,-68.3608"/>
<polygon fill="#9a32cd" stroke="#9a32cd" points="850.483,-57.1673 840.231,-59.8386 849.911,-64.1439 850.483,-57.1673"/>
<text text-anchor="middle" x="892" y="-70" font-family="Helvetica,sans-Serif" font-size="10.00"> GameManager</text>
</g>
<!-- Node9 -->
<g id="node9" class="node"><title>Node9</title>
<g id="a_node9"><a xlink:href="class_f_b_library_1_1_core_1_1_base_game_manager.html" target="_top" xlink:title="BaseGameManager">
<polygon fill="white" stroke="black" points="518.5,-44.5 518.5,-63.5 621.5,-63.5 621.5,-44.5 518.5,-44.5"/>
<text text-anchor="middle" x="570" y="-51.5" font-family="Helvetica,sans-Serif" font-size="10.00">BaseGameManager</text>
</a>
</g>
</g>
<!-- Node9&#45;&gt;Node8 -->
<g id="edge8" class="edge"><title>Node9&#45;&gt;Node8</title>
<path fill="none" stroke="midnightblue" d="M631.772,-54C652.047,-54 674.82,-54 695.813,-54"/>
<polygon fill="midnightblue" stroke="midnightblue" points="631.73,-50.5001 621.73,-54 631.73,-57.5001 631.73,-50.5001"/>
</g>
<!-- Node10 -->
<g id="node10" class="node"><title>Node10</title>
<g id="a_node10"><a xlink:href="class_f_b_library_1_1_core_1_1_base_entities_1_1_base_map.html" target="_top" xlink:title="FBLibrary.Core.BaseEntities.\lBaseMap">
<polygon fill="white" stroke="black" points="262.5,-39 262.5,-69 405.5,-69 405.5,-39 262.5,-39"/>
<text text-anchor="start" x="270.5" y="-57" font-family="Helvetica,sans-Serif" font-size="10.00">FBLibrary.Core.BaseEntities.</text>
<text text-anchor="middle" x="334" y="-46" font-family="Helvetica,sans-Serif" font-size="10.00">BaseMap</text>
</a>
</g>
</g>
<!-- Node10&#45;&gt;Node9 -->
<g id="edge9" class="edge"><title>Node10&#45;&gt;Node9</title>
<path fill="none" stroke="#9a32cd" stroke-dasharray="5,2" d="M415.918,-54C449.918,-54 488.425,-54 518.312,-54"/>
<polygon fill="#9a32cd" stroke="#9a32cd" points="415.525,-50.5001 405.525,-54 415.525,-57.5001 415.525,-50.5001"/>
<text text-anchor="middle" x="462" y="-57" font-family="Helvetica,sans-Serif" font-size="10.00"> BaseCurrentMap</text>
</g>
<!-- Node11 -->
<g id="node11" class="node"><title>Node11</title>
<g id="a_node11"><a xlink:href="interface_f_b_library_1_1_core_1_1_i_entity.html" target="_top" xlink:title="FBLibrary.Core.IEntity">
<polygon fill="white" stroke="black" points="82.5,-44.5 82.5,-63.5 195.5,-63.5 195.5,-44.5 82.5,-44.5"/>
<text text-anchor="middle" x="139" y="-51.5" font-family="Helvetica,sans-Serif" font-size="10.00">FBLibrary.Core.IEntity</text>
</a>
</g>
</g>
<!-- Node11&#45;&gt;Node10 -->
<g id="edge10" class="edge"><title>Node11&#45;&gt;Node10</title>
<path fill="none" stroke="#9a32cd" stroke-dasharray="5,2" d="M205.79,-54C224.009,-54 243.86,-54 262.345,-54"/>
<polygon fill="#9a32cd" stroke="#9a32cd" points="205.565,-50.5001 195.565,-54 205.565,-57.5001 205.565,-50.5001"/>
<text text-anchor="middle" x="229" y="-57" font-family="Helvetica,sans-Serif" font-size="10.00"> Board</text>
</g>
<!-- Node12 -->
<g id="node12" class="node"><title>Node12</title>
<g id="a_node12"><a xlink:href="class_player_collection.html" target="_top" xlink:title="PlayerCollection">
<polygon fill="white" stroke="black" points="526.5,-3.5 526.5,-22.5 613.5,-22.5 613.5,-3.5 526.5,-3.5"/>
<text text-anchor="middle" x="570" y="-10.5" font-family="Helvetica,sans-Serif" font-size="10.00">PlayerCollection</text>
</a>
</g>
</g>
<!-- Node12&#45;&gt;Node8 -->
<g id="edge11" class="edge"><title>Node12&#45;&gt;Node8</title>
<path fill="none" stroke="#9a32cd" stroke-dasharray="5,2" d="M623.574,-23.9977C654.12,-30.3873 692.226,-38.3585 721.481,-44.4782"/>
<polygon fill="#9a32cd" stroke="#9a32cd" points="624.034,-20.5181 613.529,-21.8964 622.601,-27.3698 624.034,-20.5181"/>
<text text-anchor="middle" x="659" y="-38" font-family="Helvetica,sans-Serif" font-size="10.00"> Players</text>
</g>
<!-- Node13 -->
<g id="node13" class="node"><title>Node13</title>
<polygon fill="white" stroke="#bfbfbf" points="295,-0.5 295,-19.5 373,-19.5 373,-0.5 295,-0.5"/>
<text text-anchor="middle" x="334" y="-7.5" font-family="Helvetica,sans-Serif" font-size="10.00">List&lt; Player &gt;</text>
</g>
<!-- Node13&#45;&gt;Node12 -->
<g id="edge12" class="edge"><title>Node13&#45;&gt;Node12</title>
<path fill="none" stroke="midnightblue" d="M383.125,-10.617C425.192,-11.1563 485.706,-11.9321 526.136,-12.4505"/>
<polygon fill="midnightblue" stroke="midnightblue" points="383.161,-7.11726 373.117,-10.4887 383.071,-14.1167 383.161,-7.11726"/>
</g>
</g>
</svg>
