<?xml version="1.0" encoding="UTF-8" standalone="no"?>
<!DOCTYPE svg PUBLIC "-//W3C//DTD SVG 1.1//EN"
 "http://www.w3.org/Graphics/SVG/1.1/DTD/svg11.dtd">
<!-- Generated by graphviz version 2.34.0 (20130907.0111)
 -->
<!-- Title: FBClient.Entities.Player Pages: 1 -->
<svg width="242pt" height="270pt"
 viewBox="0.00 0.00 242.00 270.00" xmlns="http://www.w3.org/2000/svg" xmlns:xlink="http://www.w3.org/1999/xlink">
<g id="graph0" class="graph" transform="scale(1 1) rotate(0) translate(4 266)">
<title>FBClient.Entities.Player</title>
<polygon fill="white" stroke="white" points="-4,4 -4,-266 238,-266 238,4 -4,4"/>
<!-- Node1 -->
<g id="node1" class="node"><title>Node1</title>
<polygon fill="#bfbfbf" stroke="black" points="73.5,-0.5 73.5,-19.5 194.5,-19.5 194.5,-0.5 73.5,-0.5"/>
<text text-anchor="middle" x="134" y="-7.5" font-family="Helvetica,sans-Serif" font-size="10.00">FBClient.Entities.Player</text>
</g>
<!-- Node2 -->
<g id="node2" class="node"><title>Node2</title>
<g id="a_node2"><a xlink:href="class_f_b_library_1_1_core_1_1_base_entities_1_1_base_player.html" target="_top" xlink:title="BasePlayer">
<polygon fill="white" stroke="black" points="100.5,-58.5 100.5,-77.5 167.5,-77.5 167.5,-58.5 100.5,-58.5"/>
<text text-anchor="middle" x="134" y="-65.5" font-family="Helvetica,sans-Serif" font-size="10.00">BasePlayer</text>
</a>
</g>
</g>
<!-- Node2&#45;&gt;Node1 -->
<g id="edge1" class="edge"><title>Node2&#45;&gt;Node1</title>
<path fill="none" stroke="midnightblue" d="M134,-47.953C134,-38.2875 134,-27.0312 134,-19.5052"/>
<polygon fill="midnightblue" stroke="midnightblue" points="130.5,-48.25 134,-58.25 137.5,-48.25 130.5,-48.25"/>
</g>
<!-- Node3 -->
<g id="node3" class="node"><title>Node3</title>
<g id="a_node3"><a xlink:href="class_f_b_library_1_1_core_1_1_dynamic_entity.html" target="_top" xlink:title="DynamicEntity">
<polygon fill="white" stroke="black" points="0,-126.5 0,-145.5 80,-145.5 80,-126.5 0,-126.5"/>
<text text-anchor="middle" x="40" y="-133.5" font-family="Helvetica,sans-Serif" font-size="10.00">DynamicEntity</text>
</a>
</g>
</g>
<!-- Node3&#45;&gt;Node2 -->
<g id="edge2" class="edge"><title>Node3&#45;&gt;Node2</title>
<path fill="none" stroke="midnightblue" d="M60.7154,-120.455C79.3902,-107.343 106.225,-88.5016 121.708,-77.6305"/>
<polygon fill="midnightblue" stroke="midnightblue" points="58.4618,-117.761 52.2889,-126.372 62.4842,-123.49 58.4618,-117.761"/>
</g>
<!-- Node4 -->
<g id="node4" class="node"><title>Node4</title>
<g id="a_node4"><a xlink:href="class_f_b_library_1_1_core_1_1_base_entity.html" target="_top" xlink:title="BaseEntity">
<polygon fill="white" stroke="black" points="7.5,-184.5 7.5,-203.5 72.5,-203.5 72.5,-184.5 7.5,-184.5"/>
<text text-anchor="middle" x="40" y="-191.5" font-family="Helvetica,sans-Serif" font-size="10.00">BaseEntity</text>
</a>
</g>
</g>
<!-- Node4&#45;&gt;Node3 -->
<g id="edge3" class="edge"><title>Node4&#45;&gt;Node3</title>
<path fill="none" stroke="midnightblue" d="M40,-173.953C40,-164.287 40,-153.031 40,-145.505"/>
<polygon fill="midnightblue" stroke="midnightblue" points="36.5001,-174.25 40,-184.25 43.5001,-174.25 36.5001,-174.25"/>
</g>
<!-- Node5 -->
<g id="node5" class="node"><title>Node5</title>
<g id="a_node5"><a xlink:href="interface_f_b_library_1_1_core_1_1_i_entity.html" target="_top" xlink:title="IEntity">
<polygon fill="white" stroke="black" points="18,-242.5 18,-261.5 62,-261.5 62,-242.5 18,-242.5"/>
<text text-anchor="middle" x="40" y="-249.5" font-family="Helvetica,sans-Serif" font-size="10.00">IEntity</text>
</a>
</g>
</g>
<!-- Node5&#45;&gt;Node4 -->
<g id="edge4" class="edge"><title>Node5&#45;&gt;Node4</title>
<path fill="none" stroke="midnightblue" d="M40,-231.953C40,-222.287 40,-211.031 40,-203.505"/>
<polygon fill="midnightblue" stroke="midnightblue" points="36.5001,-232.25 40,-242.25 43.5001,-232.25 36.5001,-232.25"/>
</g>
<!-- Node6 -->
<g id="node6" class="node"><title>Node6</title>
<g id="a_node6"><a xlink:href="class_f_b_library_1_1_core_1_1_player_stats.html" target="_top" xlink:title="FBLibrary.Core.PlayerStats">
<polygon fill="white" stroke="black" points="98,-126.5 98,-145.5 234,-145.5 234,-126.5 98,-126.5"/>
<text text-anchor="middle" x="166" y="-133.5" font-family="Helvetica,sans-Serif" font-size="10.00">FBLibrary.Core.PlayerStats</text>
</a>
</g>
</g>
<!-- Node6&#45;&gt;Node2 -->
<g id="edge5" class="edge"><title>Node6&#45;&gt;Node2</title>
<path fill="none" stroke="#9a32cd" stroke-dasharray="5,2" d="M157.363,-117.186C151.189,-104.452 143.145,-87.8607 138.287,-77.8411"/>
<polygon fill="#9a32cd" stroke="#9a32cd" points="154.304,-118.9 161.817,-126.372 160.603,-115.847 154.304,-118.9"/>
<text text-anchor="middle" x="165.5" y="-99.5" font-family="Helvetica,sans-Serif" font-size="10.00"> Stats</text>
</g>
</g>
</svg>
