<?xml version="1.0" encoding="UTF-8" standalone="no"?>
<!DOCTYPE svg PUBLIC "-//W3C//DTD SVG 1.1//EN"
 "http://www.w3.org/Graphics/SVG/1.1/DTD/svg11.dtd">
<!-- Generated by graphviz version 2.34.0 (20130907.0111)
 -->
<!-- Title: FBLibrary.Core.DynamicEntity Pages: 1 -->
<svg width="156pt" height="530pt"
 viewBox="0.00 0.00 156.00 530.00" xmlns="http://www.w3.org/2000/svg" xmlns:xlink="http://www.w3.org/1999/xlink">
<g id="graph0" class="graph" transform="scale(1 1) rotate(0) translate(4 526)">
<title>FBLibrary.Core.DynamicEntity</title>
<polygon fill="white" stroke="white" points="-4,4 -4,-526 152,-526 152,4 -4,4"/>
<!-- Node1 -->
<g id="node1" class="node"><title>Node1</title>
<polygon fill="#bfbfbf" stroke="black" points="-0.5,-0.5 -0.5,-145.5 148.5,-145.5 148.5,-0.5 -0.5,-0.5"/>
<text text-anchor="middle" x="74" y="-133.5" font-family="Helvetica,sans-Serif" font-size="10.00">FBLibrary.Core.DynamicEntity</text>
<polyline fill="none" stroke="black" points="-0.5,-126.5 148.5,-126.5 "/>
<text text-anchor="start" x="7.5" y="-114.5" font-family="Helvetica,sans-Serif" font-size="10.00">+ CurrentDirection</text>
<text text-anchor="start" x="7.5" y="-103.5" font-family="Helvetica,sans-Serif" font-size="10.00">+ Speed</text>
<text text-anchor="start" x="7.5" y="-92.5" font-family="Helvetica,sans-Serif" font-size="10.00">+ Velocity</text>
<text text-anchor="start" x="7.5" y="-81.5" font-family="Helvetica,sans-Serif" font-size="10.00"># PreviousCellPosition</text>
<text text-anchor="start" x="7.5" y="-70.5" font-family="Helvetica,sans-Serif" font-size="10.00"># PreviousDirection</text>
<text text-anchor="start" x="7.5" y="-59.5" font-family="Helvetica,sans-Serif" font-size="10.00"># IsMoving</text>
<polyline fill="none" stroke="black" points="-0.5,-52.5 148.5,-52.5 "/>
<text text-anchor="start" x="7.5" y="-40.5" font-family="Helvetica,sans-Serif" font-size="10.00">+ Update()</text>
<text text-anchor="start" x="7.5" y="-29.5" font-family="Helvetica,sans-Serif" font-size="10.00"># DynamicEntity()</text>
<text text-anchor="start" x="7.5" y="-18.5" font-family="Helvetica,sans-Serif" font-size="10.00"># DynamicEntity()</text>
<text text-anchor="start" x="7.5" y="-7.5" font-family="Helvetica,sans-Serif" font-size="10.00"># IsChangingCell()</text>
</g>
<!-- Node2 -->
<g id="node2" class="node"><title>Node2</title>
<g id="a_node2"><a xlink:href="class_f_b_library_1_1_core_1_1_base_entity.html" target="_top" xlink:title="{BaseEntity\n|+ IsAlive\l+ InDestruction\l+ DestructionTime\l+ Position\l+ PositionX\l+ PositionY\l+ CellPositionX\l+ CellPositionY\l+ CellPosition\l+ Dimension\l|+ Update()\l+ ChangePosition()\l+ ChangePosition()\l+ ChangePosition()\l+ Destroy()\l+ Remove()\l# BaseEntity()\l# BaseEntity()\l}">
<polygon fill="white" stroke="black" points="24,-182.5 24,-415.5 124,-415.5 124,-182.5 24,-182.5"/>
<text text-anchor="middle" x="74" y="-403.5" font-family="Helvetica,sans-Serif" font-size="10.00">BaseEntity</text>
<polyline fill="none" stroke="black" points="24,-396.5 124,-396.5 "/>
<text text-anchor="start" x="32" y="-384.5" font-family="Helvetica,sans-Serif" font-size="10.00">+ IsAlive</text>
<text text-anchor="start" x="32" y="-373.5" font-family="Helvetica,sans-Serif" font-size="10.00">+ InDestruction</text>
<text text-anchor="start" x="32" y="-362.5" font-family="Helvetica,sans-Serif" font-size="10.00">+ DestructionTime</text>
<text text-anchor="start" x="32" y="-351.5" font-family="Helvetica,sans-Serif" font-size="10.00">+ Position</text>
<text text-anchor="start" x="32" y="-340.5" font-family="Helvetica,sans-Serif" font-size="10.00">+ PositionX</text>
<text text-anchor="start" x="32" y="-329.5" font-family="Helvetica,sans-Serif" font-size="10.00">+ PositionY</text>
<text text-anchor="start" x="32" y="-318.5" font-family="Helvetica,sans-Serif" font-size="10.00">+ CellPositionX</text>
<text text-anchor="start" x="32" y="-307.5" font-family="Helvetica,sans-Serif" font-size="10.00">+ CellPositionY</text>
<text text-anchor="start" x="32" y="-296.5" font-family="Helvetica,sans-Serif" font-size="10.00">+ CellPosition</text>
<text text-anchor="start" x="32" y="-285.5" font-family="Helvetica,sans-Serif" font-size="10.00">+ Dimension</text>
<polyline fill="none" stroke="black" points="24,-278.5 124,-278.5 "/>
<text text-anchor="start" x="32" y="-266.5" font-family="Helvetica,sans-Serif" font-size="10.00">+ Update()</text>
<text text-anchor="start" x="32" y="-255.5" font-family="Helvetica,sans-Serif" font-size="10.00">+ ChangePosition()</text>
<text text-anchor="start" x="32" y="-244.5" font-family="Helvetica,sans-Serif" font-size="10.00">+ ChangePosition()</text>
<text text-anchor="start" x="32" y="-233.5" font-family="Helvetica,sans-Serif" font-size="10.00">+ ChangePosition()</text>
<text text-anchor="start" x="32" y="-222.5" font-family="Helvetica,sans-Serif" font-size="10.00">+ Destroy()</text>
<text text-anchor="start" x="32" y="-211.5" font-family="Helvetica,sans-Serif" font-size="10.00">+ Remove()</text>
<text text-anchor="start" x="32" y="-200.5" font-family="Helvetica,sans-Serif" font-size="10.00"># BaseEntity()</text>
<text text-anchor="start" x="32" y="-189.5" font-family="Helvetica,sans-Serif" font-size="10.00"># BaseEntity()</text>
</a>
</g>
</g>
<!-- Node2&#45;&gt;Node1 -->
<g id="edge1" class="edge"><title>Node2&#45;&gt;Node1</title>
<path fill="none" stroke="midnightblue" d="M74,-172.15C74,-163.114 74,-154.201 74,-145.649"/>
<polygon fill="none" stroke="midnightblue" points="70.5001,-172.391 74,-182.391 77.5001,-172.391 70.5001,-172.391"/>
</g>
<!-- Node3 -->
<g id="node3" class="node"><title>Node3</title>
<g id="a_node3"><a xlink:href="interface_f_b_library_1_1_core_1_1_i_entity.html" target="_top" xlink:title="{IEntity\n||+ Destroy()\l+ Remove()\l}">
<polygon fill="white" stroke="black" points="41,-453 41,-521 107,-521 107,-453 41,-453"/>
<text text-anchor="middle" x="74" y="-509" font-family="Helvetica,sans-Serif" font-size="10.00">IEntity</text>
<polyline fill="none" stroke="black" points="41,-502 107,-502 "/>
<text text-anchor="middle" x="74" y="-490" font-family="Helvetica,sans-Serif" font-size="10.00"> </text>
<polyline fill="none" stroke="black" points="41,-483 107,-483 "/>
<text text-anchor="start" x="49" y="-471" font-family="Helvetica,sans-Serif" font-size="10.00">+ Destroy()</text>
<text text-anchor="start" x="49" y="-460" font-family="Helvetica,sans-Serif" font-size="10.00">+ Remove()</text>
</a>
</g>
</g>
<!-- Node3&#45;&gt;Node2 -->
<g id="edge2" class="edge"><title>Node3&#45;&gt;Node2</title>
<path fill="none" stroke="midnightblue" d="M74,-442.601C74,-434.247 74,-425.139 74,-415.698"/>
<polygon fill="none" stroke="midnightblue" points="70.5001,-442.747 74,-452.747 77.5001,-442.747 70.5001,-442.747"/>
</g>
</g>
</svg>
