<?xml version="1.0" encoding="UTF-8" standalone="no"?>
<!DOCTYPE svg PUBLIC "-//W3C//DTD SVG 1.1//EN"
 "http://www.w3.org/Graphics/SVG/1.1/DTD/svg11.dtd">
<!-- Generated by graphviz version 2.34.0 (20130907.0111)
 -->
<!-- Title: FBClient.Core.Players.HumanPlayer Pages: 1 -->
<svg width="154pt" height="376pt"
 viewBox="0.00 0.00 154.00 376.00" xmlns="http://www.w3.org/2000/svg" xmlns:xlink="http://www.w3.org/1999/xlink">
<g id="graph0" class="graph" transform="scale(1 1) rotate(0) translate(4 372)">
<title>FBClient.Core.Players.HumanPlayer</title>
<polygon fill="white" stroke="white" points="-4,4 -4,-372 150,-372 150,4 -4,4"/>
<!-- Node1 -->
<g id="node1" class="node"><title>Node1</title>
<polygon fill="#bfbfbf" stroke="black" points="-0.5,-1 -0.5,-31 146.5,-31 146.5,-1 -0.5,-1"/>
<text text-anchor="start" x="7.5" y="-19" font-family="Helvetica,sans-Serif" font-size="10.00">FBClient.Core.Players.Human</text>
<text text-anchor="middle" x="73" y="-8" font-family="Helvetica,sans-Serif" font-size="10.00">Player</text>
</g>
<!-- Node2 -->
<g id="node2" class="node"><title>Node2</title>
<g id="a_node2"><a xlink:href="class_f_b_client_1_1_core_1_1_players_1_1_base_human_player.html" target="_top" xlink:title="BaseHumanPlayer">
<polygon fill="white" stroke="black" points="24,-68.5 24,-87.5 122,-87.5 122,-68.5 24,-68.5"/>
<text text-anchor="middle" x="73" y="-75.5" font-family="Helvetica,sans-Serif" font-size="10.00">BaseHumanPlayer</text>
</a>
</g>
</g>
<!-- Node2&#45;&gt;Node1 -->
<g id="edge1" class="edge"><title>Node2&#45;&gt;Node1</title>
<path fill="none" stroke="midnightblue" d="M73,-58.3707C73,-49.5849 73,-39.2721 73,-31.1408"/>
<polygon fill="midnightblue" stroke="midnightblue" points="69.5001,-58.4034 73,-68.4035 76.5001,-58.4035 69.5001,-58.4034"/>
</g>
<!-- Node3 -->
<g id="node3" class="node"><title>Node3</title>
<g id="a_node3"><a xlink:href="class_f_b_client_1_1_entities_1_1_player.html" target="_top" xlink:title="Player">
<polygon fill="white" stroke="black" points="51,-124.5 51,-143.5 95,-143.5 95,-124.5 51,-124.5"/>
<text text-anchor="middle" x="73" y="-131.5" font-family="Helvetica,sans-Serif" font-size="10.00">Player</text>
</a>
</g>
</g>
<!-- Node3&#45;&gt;Node2 -->
<g id="edge2" class="edge"><title>Node3&#45;&gt;Node2</title>
<path fill="none" stroke="midnightblue" d="M73,-113.805C73,-104.91 73,-94.7798 73,-87.7511"/>
<polygon fill="midnightblue" stroke="midnightblue" points="69.5001,-114.083 73,-124.083 76.5001,-114.083 69.5001,-114.083"/>
</g>
<!-- Node4 -->
<g id="node4" class="node"><title>Node4</title>
<g id="a_node4"><a xlink:href="class_f_b_library_1_1_core_1_1_base_entities_1_1_base_player.html" target="_top" xlink:title="BasePlayer">
<polygon fill="white" stroke="black" points="39.5,-180.5 39.5,-199.5 106.5,-199.5 106.5,-180.5 39.5,-180.5"/>
<text text-anchor="middle" x="73" y="-187.5" font-family="Helvetica,sans-Serif" font-size="10.00">BasePlayer</text>
</a>
</g>
</g>
<!-- Node4&#45;&gt;Node3 -->
<g id="edge3" class="edge"><title>Node4&#45;&gt;Node3</title>
<path fill="none" stroke="midnightblue" d="M73,-169.805C73,-160.91 73,-150.78 73,-143.751"/>
<polygon fill="midnightblue" stroke="midnightblue" points="69.5001,-170.083 73,-180.083 76.5001,-170.083 69.5001,-170.083"/>
</g>
<!-- Node5 -->
<g id="node5" class="node"><title>Node5</title>
<g id="a_node5"><a xlink:href="class_f_b_library_1_1_core_1_1_dynamic_entity.html" target="_top" xlink:title="DynamicEntity">
<polygon fill="white" stroke="black" points="33,-236.5 33,-255.5 113,-255.5 113,-236.5 33,-236.5"/>
<text text-anchor="middle" x="73" y="-243.5" font-family="Helvetica,sans-Serif" font-size="10.00">DynamicEntity</text>
</a>
</g>
</g>
<!-- Node5&#45;&gt;Node4 -->
<g id="edge4" class="edge"><title>Node5&#45;&gt;Node4</title>
<path fill="none" stroke="midnightblue" d="M73,-225.805C73,-216.91 73,-206.78 73,-199.751"/>
<polygon fill="midnightblue" stroke="midnightblue" points="69.5001,-226.083 73,-236.083 76.5001,-226.083 69.5001,-226.083"/>
</g>
<!-- Node6 -->
<g id="node6" class="node"><title>Node6</title>
<g id="a_node6"><a xlink:href="class_f_b_library_1_1_core_1_1_base_entity.html" target="_top" xlink:title="BaseEntity">
<polygon fill="white" stroke="black" points="40.5,-292.5 40.5,-311.5 105.5,-311.5 105.5,-292.5 40.5,-292.5"/>
<text text-anchor="middle" x="73" y="-299.5" font-family="Helvetica,sans-Serif" font-size="10.00">BaseEntity</text>
</a>
</g>
</g>
<!-- Node6&#45;&gt;Node5 -->
<g id="edge5" class="edge"><title>Node6&#45;&gt;Node5</title>
<path fill="none" stroke="midnightblue" d="M73,-281.805C73,-272.91 73,-262.78 73,-255.751"/>
<polygon fill="midnightblue" stroke="midnightblue" points="69.5001,-282.083 73,-292.083 76.5001,-282.083 69.5001,-282.083"/>
</g>
<!-- Node7 -->
<g id="node7" class="node"><title>Node7</title>
<g id="a_node7"><a xlink:href="interface_f_b_library_1_1_core_1_1_i_entity.html" target="_top" xlink:title="IEntity">
<polygon fill="white" stroke="black" points="51,-348.5 51,-367.5 95,-367.5 95,-348.5 51,-348.5"/>
<text text-anchor="middle" x="73" y="-355.5" font-family="Helvetica,sans-Serif" font-size="10.00">IEntity</text>
</a>
</g>
</g>
<!-- Node7&#45;&gt;Node6 -->
<g id="edge6" class="edge"><title>Node7&#45;&gt;Node6</title>
<path fill="none" stroke="midnightblue" d="M73,-337.805C73,-328.91 73,-318.78 73,-311.751"/>
<polygon fill="midnightblue" stroke="midnightblue" points="69.5001,-338.083 73,-348.083 76.5001,-338.083 69.5001,-338.083"/>
</g>
</g>
</svg>
