<?xml version="1.0" encoding="UTF-8" standalone="no"?>
<!DOCTYPE svg PUBLIC "-//W3C//DTD SVG 1.1//EN"
 "http://www.w3.org/Graphics/SVG/1.1/DTD/svg11.dtd">
<!-- Generated by graphviz version 2.34.0 (20130907.0111)
 -->
<!-- Title: FBServer.GameValues Pages: 1 -->
<svg width="338pt" height="238pt"
 viewBox="0.00 0.00 338.00 238.00" xmlns="http://www.w3.org/2000/svg" xmlns:xlink="http://www.w3.org/1999/xlink">
<g id="graph0" class="graph" transform="scale(1 1) rotate(0) translate(4 234)">
<title>FBServer.GameValues</title>
<polygon fill="white" stroke="white" points="-4,4 -4,-234 334,-234 334,4 -4,4"/>
<!-- Node1 -->
<g id="node1" class="node"><title>Node1</title>
<polygon fill="#bfbfbf" stroke="black" points="107,-0.5 107,-57.5 223,-57.5 223,-0.5 107,-0.5"/>
<text text-anchor="middle" x="165" y="-45.5" font-family="Helvetica,sans-Serif" font-size="10.00">FBServer.GameValues</text>
<polyline fill="none" stroke="black" points="107,-38.5 223,-38.5 "/>
<text text-anchor="start" x="115" y="-26.5" font-family="Helvetica,sans-Serif" font-size="10.00">+ RecievedValues</text>
<polyline fill="none" stroke="black" points="107,-19.5 223,-19.5 "/>
<text text-anchor="middle" x="165" y="-7.5" font-family="Helvetica,sans-Serif" font-size="10.00"> </text>
</g>
<!-- Node2 -->
<g id="node2" class="node"><title>Node2</title>
<g id="a_node2"><a xlink:href="class_f_b_server_1_1_game_values_1_1_powerup_drops.html" target="_top" xlink:title="{FBServer.GameValues.Powerup\lDrops\n|+ Powerups\l+ MovementSpeed\l+ Tickrate\l+ Lifes\l+ BombRange\l+ BombAmount\l|+ SetValues()\l}">
<polygon fill="white" stroke="black" points="0,-106.5 0,-229.5 156,-229.5 156,-106.5 0,-106.5"/>
<text text-anchor="start" x="8" y="-217.5" font-family="Helvetica,sans-Serif" font-size="10.00">FBServer.GameValues.Powerup</text>
<text text-anchor="middle" x="78" y="-206.5" font-family="Helvetica,sans-Serif" font-size="10.00">Drops</text>
<polyline fill="none" stroke="black" points="0,-199.5 156,-199.5 "/>
<text text-anchor="start" x="8" y="-187.5" font-family="Helvetica,sans-Serif" font-size="10.00">+ Powerups</text>
<text text-anchor="start" x="8" y="-176.5" font-family="Helvetica,sans-Serif" font-size="10.00">+ MovementSpeed</text>
<text text-anchor="start" x="8" y="-165.5" font-family="Helvetica,sans-Serif" font-size="10.00">+ Tickrate</text>
<text text-anchor="start" x="8" y="-154.5" font-family="Helvetica,sans-Serif" font-size="10.00">+ Lifes</text>
<text text-anchor="start" x="8" y="-143.5" font-family="Helvetica,sans-Serif" font-size="10.00">+ BombRange</text>
<text text-anchor="start" x="8" y="-132.5" font-family="Helvetica,sans-Serif" font-size="10.00">+ BombAmount</text>
<polyline fill="none" stroke="black" points="0,-125.5 156,-125.5 "/>
<text text-anchor="start" x="8" y="-113.5" font-family="Helvetica,sans-Serif" font-size="10.00">+ SetValues()</text>
</a>
</g>
</g>
<!-- Node2&#45;&gt;Node1 -->
<g id="edge1" class="edge"><title>Node2&#45;&gt;Node1</title>
<path fill="none" stroke="#404040" d="M116.666,-106.112C124.866,-93.1994 133.298,-79.9215 140.777,-68.1443"/>
<polygon fill="none" stroke="#404040" points="140.911,-67.934 140.75,-60.7246 147.343,-57.8039 147.504,-65.0133 140.911,-67.934"/>
<text text-anchor="middle" x="168.5" y="-79.5" font-family="Helvetica,sans-Serif" font-size="10.00"> +PowerupDrop</text>
</g>
<!-- Node3 -->
<g id="node3" class="node"><title>Node3</title>
<g id="a_node3"><a xlink:href="class_f_b_server_1_1_game_values_1_1_powerup_values.html" target="_top" xlink:title="{FBServer.GameValues.Powerup\lValues\n|+ MovementSpeed\l+ Tickrate\l+ Lifes\l+ BombRange\l+ BombAmount\l|}">
<polygon fill="white" stroke="black" points="174,-112 174,-224 330,-224 330,-112 174,-112"/>
<text text-anchor="start" x="182" y="-212" font-family="Helvetica,sans-Serif" font-size="10.00">FBServer.GameValues.Powerup</text>
<text text-anchor="middle" x="252" y="-201" font-family="Helvetica,sans-Serif" font-size="10.00">Values</text>
<polyline fill="none" stroke="black" points="174,-194 330,-194 "/>
<text text-anchor="start" x="182" y="-182" font-family="Helvetica,sans-Serif" font-size="10.00">+ MovementSpeed</text>
<text text-anchor="start" x="182" y="-171" font-family="Helvetica,sans-Serif" font-size="10.00">+ Tickrate</text>
<text text-anchor="start" x="182" y="-160" font-family="Helvetica,sans-Serif" font-size="10.00">+ Lifes</text>
<text text-anchor="start" x="182" y="-149" font-family="Helvetica,sans-Serif" font-size="10.00">+ BombRange</text>
<text text-anchor="start" x="182" y="-138" font-family="Helvetica,sans-Serif" font-size="10.00">+ BombAmount</text>
<polyline fill="none" stroke="black" points="174,-131 330,-131 "/>
<text text-anchor="middle" x="252" y="-119" font-family="Helvetica,sans-Serif" font-size="10.00"> </text>
</a>
</g>
</g>
<!-- Node3&#45;&gt;Node1 -->
<g id="edge2" class="edge"><title>Node3&#45;&gt;Node1</title>
<path fill="none" stroke="#404040" d="M226.99,-111.79C220.706,-99.6563 213.574,-87.119 206,-76 204.024,-73.0989 201.881,-70.1858 199.646,-67.3115"/>
<polygon fill="none" stroke="#404040" points="199.419,-67.0353 192.52,-64.937 191.803,-57.7616 198.702,-59.8599 199.419,-67.0353"/>
<text text-anchor="middle" x="236.5" y="-79.5" font-family="Helvetica,sans-Serif" font-size="10.00"> +Powerup</text>
</g>
</g>
</svg>
