<?xml version="1.0" encoding="UTF-8" standalone="no"?>
<!DOCTYPE svg PUBLIC "-//W3C//DTD SVG 1.1//EN"
 "http://www.w3.org/Graphics/SVG/1.1/DTD/svg11.dtd">
<!-- Generated by graphviz version 2.34.0 (20130907.0111)
 -->
<!-- Title: FBClient.Screens.MenuScreens.CreditMenuScreen Pages: 1 -->
<svg width="166pt" height="548pt"
 viewBox="0.00 0.00 166.00 548.00" xmlns="http://www.w3.org/2000/svg" xmlns:xlink="http://www.w3.org/1999/xlink">
<g id="graph0" class="graph" transform="scale(1 1) rotate(0) translate(4 544)">
<title>FBClient.Screens.MenuScreens.CreditMenuScreen</title>
<polygon fill="white" stroke="white" points="-4,4 -4,-544 162,-544 162,4 -4,4"/>
<!-- Node1 -->
<g id="node1" class="node"><title>Node1</title>
<polygon fill="#bfbfbf" stroke="black" points="-0.5,-1 -0.5,-113 158.5,-113 158.5,-1 -0.5,-1"/>
<text text-anchor="start" x="7.5" y="-101" font-family="Helvetica,sans-Serif" font-size="10.00">FBClient.Screens.MenuScreens.</text>
<text text-anchor="middle" x="79" y="-90" font-family="Helvetica,sans-Serif" font-size="10.00">CreditMenuScreen</text>
<polyline fill="none" stroke="black" points="-0.5,-83 158.5,-83 "/>
<text text-anchor="middle" x="79" y="-71" font-family="Helvetica,sans-Serif" font-size="10.00"> </text>
<polyline fill="none" stroke="black" points="-0.5,-64 158.5,-64 "/>
<text text-anchor="start" x="7.5" y="-52" font-family="Helvetica,sans-Serif" font-size="10.00">+ CreditMenuScreen()</text>
<text text-anchor="start" x="7.5" y="-41" font-family="Helvetica,sans-Serif" font-size="10.00">+ Initialize()</text>
<text text-anchor="start" x="7.5" y="-30" font-family="Helvetica,sans-Serif" font-size="10.00">+ Update()</text>
<text text-anchor="start" x="7.5" y="-19" font-family="Helvetica,sans-Serif" font-size="10.00">+ Draw()</text>
<text text-anchor="start" x="7.5" y="-8" font-family="Helvetica,sans-Serif" font-size="10.00"># LoadContent()</text>
</g>
<!-- Node2 -->
<g id="node2" class="node"><title>Node2</title>
<g id="a_node2"><a xlink:href="class_f_b_client_1_1_screens_1_1_base_game_state.html" target="_top" xlink:title="{BaseGameState\n|# ControlManager\l# BigFont\l# playerIndexInControl\l|+ BaseGameState()\l+ Update()\l+ Draw()\l# LoadContent()\l}">
<polygon fill="white" stroke="black" points="22.5,-151 22.5,-263 135.5,-263 135.5,-151 22.5,-151"/>
<text text-anchor="middle" x="79" y="-251" font-family="Helvetica,sans-Serif" font-size="10.00">BaseGameState</text>
<polyline fill="none" stroke="black" points="22.5,-244 135.5,-244 "/>
<text text-anchor="start" x="30.5" y="-232" font-family="Helvetica,sans-Serif" font-size="10.00"># ControlManager</text>
<text text-anchor="start" x="30.5" y="-221" font-family="Helvetica,sans-Serif" font-size="10.00"># BigFont</text>
<text text-anchor="start" x="30.5" y="-210" font-family="Helvetica,sans-Serif" font-size="10.00"># playerIndexInControl</text>
<polyline fill="none" stroke="black" points="22.5,-203 135.5,-203 "/>
<text text-anchor="start" x="30.5" y="-191" font-family="Helvetica,sans-Serif" font-size="10.00">+ BaseGameState()</text>
<text text-anchor="start" x="30.5" y="-180" font-family="Helvetica,sans-Serif" font-size="10.00">+ Update()</text>
<text text-anchor="start" x="30.5" y="-169" font-family="Helvetica,sans-Serif" font-size="10.00">+ Draw()</text>
<text text-anchor="start" x="30.5" y="-158" font-family="Helvetica,sans-Serif" font-size="10.00"># LoadContent()</text>
</a>
</g>
</g>
<!-- Node2&#45;&gt;Node1 -->
<g id="edge1" class="edge"><title>Node2&#45;&gt;Node1</title>
<path fill="none" stroke="midnightblue" d="M79,-140.64C79,-131.467 79,-122.114 79,-113.156"/>
<polygon fill="none" stroke="midnightblue" points="75.5001,-140.89 79,-150.89 82.5001,-140.89 75.5001,-140.89"/>
</g>
<!-- Node3 -->
<g id="node3" class="node"><title>Node3</title>
<g id="a_node3"><a xlink:href="class_f_b_client_1_1_controls_1_1_game_state.html" target="_top" xlink:title="{GameState\n|+ Components\l+ Tag\l# StateManager\l|+ Initialize()\l+ Update()\l+ Draw()\l# GameState()\l# StateChange()\l# Show()\l# Hide()\l}">
<polygon fill="white" stroke="black" points="35.5,-300.5 35.5,-445.5 122.5,-445.5 122.5,-300.5 35.5,-300.5"/>
<text text-anchor="middle" x="79" y="-433.5" font-family="Helvetica,sans-Serif" font-size="10.00">GameState</text>
<polyline fill="none" stroke="black" points="35.5,-426.5 122.5,-426.5 "/>
<text text-anchor="start" x="43.5" y="-414.5" font-family="Helvetica,sans-Serif" font-size="10.00">+ Components</text>
<text text-anchor="start" x="43.5" y="-403.5" font-family="Helvetica,sans-Serif" font-size="10.00">+ Tag</text>
<text text-anchor="start" x="43.5" y="-392.5" font-family="Helvetica,sans-Serif" font-size="10.00"># StateManager</text>
<polyline fill="none" stroke="black" points="35.5,-385.5 122.5,-385.5 "/>
<text text-anchor="start" x="43.5" y="-373.5" font-family="Helvetica,sans-Serif" font-size="10.00">+ Initialize()</text>
<text text-anchor="start" x="43.5" y="-362.5" font-family="Helvetica,sans-Serif" font-size="10.00">+ Update()</text>
<text text-anchor="start" x="43.5" y="-351.5" font-family="Helvetica,sans-Serif" font-size="10.00">+ Draw()</text>
<text text-anchor="start" x="43.5" y="-340.5" font-family="Helvetica,sans-Serif" font-size="10.00"># GameState()</text>
<text text-anchor="start" x="43.5" y="-329.5" font-family="Helvetica,sans-Serif" font-size="10.00"># StateChange()</text>
<text text-anchor="start" x="43.5" y="-318.5" font-family="Helvetica,sans-Serif" font-size="10.00"># Show()</text>
<text text-anchor="start" x="43.5" y="-307.5" font-family="Helvetica,sans-Serif" font-size="10.00"># Hide()</text>
</a>
</g>
</g>
<!-- Node3&#45;&gt;Node2 -->
<g id="edge2" class="edge"><title>Node3&#45;&gt;Node2</title>
<path fill="none" stroke="midnightblue" d="M79,-289.855C79,-280.789 79,-271.726 79,-263.109"/>
<polygon fill="none" stroke="midnightblue" points="75.5001,-290.067 79,-300.067 82.5001,-290.067 75.5001,-290.067"/>
</g>
<!-- Node4 -->
<g id="node4" class="node"><title>Node4</title>
<polygon fill="white" stroke="#bfbfbf" points="13,-482.5 13,-539.5 145,-539.5 145,-482.5 13,-482.5"/>
<text text-anchor="middle" x="79" y="-527.5" font-family="Helvetica,sans-Serif" font-size="10.00">DrawableGameComponent</text>
<polyline fill="none" stroke="#bfbfbf" points="13,-520.5 145,-520.5 "/>
<text text-anchor="middle" x="79" y="-508.5" font-family="Helvetica,sans-Serif" font-size="10.00"> </text>
<polyline fill="none" stroke="#bfbfbf" points="13,-501.5 145,-501.5 "/>
<text text-anchor="middle" x="79" y="-489.5" font-family="Helvetica,sans-Serif" font-size="10.00"> </text>
</g>
<!-- Node4&#45;&gt;Node3 -->
<g id="edge3" class="edge"><title>Node4&#45;&gt;Node3</title>
<path fill="none" stroke="midnightblue" d="M79,-472.356C79,-463.999 79,-454.872 79,-445.656"/>
<polygon fill="none" stroke="midnightblue" points="75.5001,-472.478 79,-482.478 82.5001,-472.478 75.5001,-472.478"/>
</g>
</g>
</svg>
