<?xml version="1.0" encoding="UTF-8" standalone="no"?>
<!DOCTYPE svg PUBLIC "-//W3C//DTD SVG 1.1//EN"
 "http://www.w3.org/Graphics/SVG/1.1/DTD/svg11.dtd">
<!-- Generated by graphviz version 2.34.0 (20130907.0111)
 -->
<!-- Title: FBLibrary.Core.BaseEntities.BaseUnbreakableWall Pages: 1 -->
<svg width="408pt" height="264pt"
 viewBox="0.00 0.00 408.00 264.00" xmlns="http://www.w3.org/2000/svg" xmlns:xlink="http://www.w3.org/1999/xlink">
<g id="graph0" class="graph" transform="scale(1 1) rotate(0) translate(4 260)">
<title>FBLibrary.Core.BaseEntities.BaseUnbreakableWall</title>
<polygon fill="white" stroke="white" points="-4,4 -4,-260 404,-260 404,4 -4,4"/>
<!-- Node1 -->
<g id="node1" class="node"><title>Node1</title>
<polygon fill="#bfbfbf" stroke="black" points="127.5,-57 127.5,-87 270.5,-87 270.5,-57 127.5,-57"/>
<text text-anchor="start" x="135.5" y="-75" font-family="Helvetica,sans-Serif" font-size="10.00">FBLibrary.Core.BaseEntities.</text>
<text text-anchor="middle" x="199" y="-64" font-family="Helvetica,sans-Serif" font-size="10.00">BaseUnbreakableWall</text>
</g>
<!-- Node5 -->
<g id="node5" class="node"><title>Node5</title>
<g id="a_node5"><a xlink:href="class_f_b_client_1_1_core_1_1_entities_1_1_unbreakable_wall.html" target="_top" xlink:title="FBClient.Core.Entities.UnbreakableWall">
<polygon fill="white" stroke="black" points="0,-0.5 0,-19.5 190,-19.5 190,-0.5 0,-0.5"/>
<text text-anchor="middle" x="95" y="-7.5" font-family="Helvetica,sans-Serif" font-size="10.00">FBClient.Core.Entities.UnbreakableWall</text>
</a>
</g>
</g>
<!-- Node1&#45;&gt;Node5 -->
<g id="edge4" class="edge"><title>Node1&#45;&gt;Node5</title>
<path fill="none" stroke="midnightblue" d="M165.751,-51.8177C146.969,-40.9819 124.418,-27.972 109.907,-19.6"/>
<polygon fill="midnightblue" stroke="midnightblue" points="164.206,-54.967 174.617,-56.9327 167.704,-48.9037 164.206,-54.967"/>
</g>
<!-- Node6 -->
<g id="node6" class="node"><title>Node6</title>
<g id="a_node6"><a xlink:href="class_f_b_server_1_1_core_1_1_entities_1_1_unbreakable_wall.html" target="_top" xlink:title="FBServer.Core.Entities.UnbreakableWall">
<polygon fill="white" stroke="black" points="208,-0.5 208,-19.5 400,-19.5 400,-0.5 208,-0.5"/>
<text text-anchor="middle" x="304" y="-7.5" font-family="Helvetica,sans-Serif" font-size="10.00">FBServer.Core.Entities.UnbreakableWall</text>
</a>
</g>
</g>
<!-- Node1&#45;&gt;Node6 -->
<g id="edge5" class="edge"><title>Node1&#45;&gt;Node6</title>
<path fill="none" stroke="midnightblue" d="M232.311,-51.9654C251.325,-41.1003 274.232,-28.0101 288.95,-19.6"/>
<polygon fill="midnightblue" stroke="midnightblue" points="230.564,-48.9324 223.618,-56.9327 234.037,-55.0101 230.564,-48.9324"/>
</g>
<!-- Node2 -->
<g id="node2" class="node"><title>Node2</title>
<g id="a_node2"><a xlink:href="class_f_b_library_1_1_core_1_1_static_entity.html" target="_top" xlink:title="StaticEntity">
<polygon fill="white" stroke="black" points="165,-124.5 165,-143.5 233,-143.5 233,-124.5 165,-124.5"/>
<text text-anchor="middle" x="199" y="-131.5" font-family="Helvetica,sans-Serif" font-size="10.00">StaticEntity</text>
</a>
</g>
</g>
<!-- Node2&#45;&gt;Node1 -->
<g id="edge1" class="edge"><title>Node2&#45;&gt;Node1</title>
<path fill="none" stroke="midnightblue" d="M199,-114.371C199,-105.585 199,-95.2721 199,-87.1408"/>
<polygon fill="midnightblue" stroke="midnightblue" points="195.5,-114.403 199,-124.403 202.5,-114.403 195.5,-114.403"/>
</g>
<!-- Node3 -->
<g id="node3" class="node"><title>Node3</title>
<g id="a_node3"><a xlink:href="class_f_b_library_1_1_core_1_1_base_entity.html" target="_top" xlink:title="BaseEntity">
<polygon fill="white" stroke="black" points="166.5,-180.5 166.5,-199.5 231.5,-199.5 231.5,-180.5 166.5,-180.5"/>
<text text-anchor="middle" x="199" y="-187.5" font-family="Helvetica,sans-Serif" font-size="10.00">BaseEntity</text>
</a>
</g>
</g>
<!-- Node3&#45;&gt;Node2 -->
<g id="edge2" class="edge"><title>Node3&#45;&gt;Node2</title>
<path fill="none" stroke="midnightblue" d="M199,-169.805C199,-160.91 199,-150.78 199,-143.751"/>
<polygon fill="midnightblue" stroke="midnightblue" points="195.5,-170.083 199,-180.083 202.5,-170.083 195.5,-170.083"/>
</g>
<!-- Node4 -->
<g id="node4" class="node"><title>Node4</title>
<g id="a_node4"><a xlink:href="interface_f_b_library_1_1_core_1_1_i_entity.html" target="_top" xlink:title="IEntity">
<polygon fill="white" stroke="black" points="177,-236.5 177,-255.5 221,-255.5 221,-236.5 177,-236.5"/>
<text text-anchor="middle" x="199" y="-243.5" font-family="Helvetica,sans-Serif" font-size="10.00">IEntity</text>
</a>
</g>
</g>
<!-- Node4&#45;&gt;Node3 -->
<g id="edge3" class="edge"><title>Node4&#45;&gt;Node3</title>
<path fill="none" stroke="midnightblue" d="M199,-225.805C199,-216.91 199,-206.78 199,-199.751"/>
<polygon fill="midnightblue" stroke="midnightblue" points="195.5,-226.083 199,-236.083 202.5,-226.083 195.5,-226.083"/>
</g>
</g>
</svg>
