<?xml version="1.0" encoding="UTF-8" standalone="no"?>
<!DOCTYPE svg PUBLIC "-//W3C//DTD SVG 1.1//EN"
 "http://www.w3.org/Graphics/SVG/1.1/DTD/svg11.dtd">
<!-- Generated by graphviz version 2.34.0 (20130907.0111)
 -->
<!-- Title: D:/Projets/Final&#45;Bomber/Final&#45;Bomber/1 &#45; Final&#45;Bomber/Final&#45;Bomber Pages: 1 -->
<svg width="884pt" height="111pt"
 viewBox="0.00 0.00 884.00 111.00" xmlns="http://www.w3.org/2000/svg" xmlns:xlink="http://www.w3.org/1999/xlink">
<g id="graph0" class="graph" transform="scale(1 1) rotate(0) translate(4 107)">
<title>D:/Projets/Final&#45;Bomber/Final&#45;Bomber/1 &#45; Final&#45;Bomber/Final&#45;Bomber</title>
<polygon fill="white" stroke="white" points="-4,4 -4,-107 880,-107 880,4 -4,4"/>
<g id="clust1" class="cluster"><title>clusterdir_e189fd6bc21e1e1c5f41cb7391e47c2c</title>
<g id="a_clust1"><a xlink:href="dir_e189fd6bc21e1e1c5f41cb7391e47c2c.html" target="_top" xlink:title="1 &#45; Final&#45;Bomber">
<polygon fill="#ddddee" stroke="black" points="8,-8 8,-95 868,-95 868,-8 8,-8"/>
<text text-anchor="middle" x="438" y="-83" font-family="Helvetica,sans-Serif" font-size="10.00">1 &#45; Final&#45;Bomber</text>
</a>
</g>
</g>
<g id="clust2" class="cluster"><title>clusterdir_c0ac4e292e1706cfe63b0fa58a2c3008</title>
<g id="a_clust2"><a xlink:href="dir_c0ac4e292e1706cfe63b0fa58a2c3008.html" target="_top">
<polygon fill="#eeeeff" stroke="black" points="16,-16 16,-68 860,-68 860,-16 16,-16"/>
</a>
</g>
</g>
<!-- dir_c0ac4e292e1706cfe63b0fa58a2c3008 -->
<g id="node1" class="node"><title>dir_c0ac4e292e1706cfe63b0fa58a2c3008</title>
<text text-anchor="middle" x="815" y="-39.5" font-family="Helvetica,sans-Serif" font-size="10.00">Final&#45;Bomber</text>
</g>
<!-- dir_6b6dde5602a25d94408009a8e5706b77 -->
<g id="node2" class="node"><title>dir_6b6dde5602a25d94408009a8e5706b77</title>
<g id="a_node2"><a xlink:href="dir_6b6dde5602a25d94408009a8e5706b77.html" target="_top" xlink:title="Controls">
<polygon fill="white" stroke="black" points="760,-60 706,-60 706,-24 760,-24 760,-60"/>
<text text-anchor="middle" x="733" y="-39.5" font-family="Helvetica,sans-Serif" font-size="10.00">Controls</text>
</a>
</g>
</g>
<!-- dir_3200730fb3b811e0a6993e4b73750277 -->
<g id="node3" class="node"><title>dir_3200730fb3b811e0a6993e4b73750277</title>
<g id="a_node3"><a xlink:href="dir_3200730fb3b811e0a6993e4b73750277.html" target="_top" xlink:title="Core">
<polygon fill="white" stroke="red" points="688,-60 634,-60 634,-24 688,-24 688,-60"/>
<text text-anchor="middle" x="661" y="-39.5" font-family="Helvetica,sans-Serif" font-size="10.00">Core</text>
</a>
</g>
</g>
<!-- dir_99e8cac753eecc453a16bb44945cc122 -->
<g id="node4" class="node"><title>dir_99e8cac753eecc453a16bb44945cc122</title>
<g id="a_node4"><a xlink:href="dir_99e8cac753eecc453a16bb44945cc122.html" target="_top" xlink:title="GUI">
<polygon fill="white" stroke="black" points="616,-60 562,-60 562,-24 616,-24 616,-60"/>
<text text-anchor="middle" x="589" y="-39.5" font-family="Helvetica,sans-Serif" font-size="10.00">GUI</text>
</a>
</g>
</g>
<!-- dir_03532af5fe4c4ab5dfcb37313a8b50c3 -->
<g id="node5" class="node"><title>dir_03532af5fe4c4ab5dfcb37313a8b50c3</title>
<g id="a_node5"><a xlink:href="dir_03532af5fe4c4ab5dfcb37313a8b50c3.html" target="_top" xlink:title="Network">
<polygon fill="white" stroke="black" points="544,-60 490,-60 490,-24 544,-24 544,-60"/>
<text text-anchor="middle" x="517" y="-39.5" font-family="Helvetica,sans-Serif" font-size="10.00">Network</text>
</a>
</g>
</g>
<!-- dir_fc10203358a5fc46909aad85e94d7a16 -->
<g id="node6" class="node"><title>dir_fc10203358a5fc46909aad85e94d7a16</title>
<g id="a_node6"><a xlink:href="dir_fc10203358a5fc46909aad85e94d7a16.html" target="_top" xlink:title="Properties">
<polygon fill="white" stroke="black" points="471.25,-60 410.75,-60 410.75,-24 471.25,-24 471.25,-60"/>
<text text-anchor="middle" x="441" y="-39.5" font-family="Helvetica,sans-Serif" font-size="10.00">Properties</text>
</a>
</g>
</g>
<!-- dir_d680b1b1f89dab51b6a26eb5b3d10071 -->
<g id="node7" class="node"><title>dir_d680b1b1f89dab51b6a26eb5b3d10071</title>
<g id="a_node7"><a xlink:href="dir_d680b1b1f89dab51b6a26eb5b3d10071.html" target="_top" xlink:title="Screens">
<polygon fill="white" stroke="red" points="392,-60 338,-60 338,-24 392,-24 392,-60"/>
<text text-anchor="middle" x="365" y="-39.5" font-family="Helvetica,sans-Serif" font-size="10.00">Screens</text>
</a>
</g>
</g>
<!-- dir_aa003c90f052a34f48ed3cc1e0640f42 -->
<g id="node8" class="node"><title>dir_aa003c90f052a34f48ed3cc1e0640f42</title>
<g id="a_node8"><a xlink:href="dir_aa003c90f052a34f48ed3cc1e0640f42.html" target="_top" xlink:title="Sprites">
<polygon fill="white" stroke="black" points="320,-60 266,-60 266,-24 320,-24 320,-60"/>
<text text-anchor="middle" x="293" y="-39.5" font-family="Helvetica,sans-Serif" font-size="10.00">Sprites</text>
</a>
</g>
</g>
<!-- dir_a091963a66e0532e405b10822f6f83cf -->
<g id="node9" class="node"><title>dir_a091963a66e0532e405b10822f6f83cf</title>
<g id="a_node9"><a xlink:href="dir_a091963a66e0532e405b10822f6f83cf.html" target="_top" xlink:title="TileEngine">
<polygon fill="white" stroke="black" points="248,-60 186,-60 186,-24 248,-24 248,-60"/>
<text text-anchor="middle" x="217" y="-39.5" font-family="Helvetica,sans-Serif" font-size="10.00">TileEngine</text>
</a>
</g>
</g>
<!-- dir_97356d1ff2a411bc730aed9bf4b2d07a -->
<g id="node10" class="node"><title>dir_97356d1ff2a411bc730aed9bf4b2d07a</title>
<g id="a_node10"><a xlink:href="dir_97356d1ff2a411bc730aed9bf4b2d07a.html" target="_top" xlink:title="Utils">
<polygon fill="white" stroke="black" points="168,-60 114,-60 114,-24 168,-24 168,-60"/>
<text text-anchor="middle" x="141" y="-39.5" font-family="Helvetica,sans-Serif" font-size="10.00">Utils</text>
</a>
</g>
</g>
<!-- dir_5ffe06f102ab94e4ea9b7708a19652e4 -->
<g id="node11" class="node"><title>dir_5ffe06f102ab94e4ea9b7708a19652e4</title>
<g id="a_node11"><a xlink:href="dir_5ffe06f102ab94e4ea9b7708a19652e4.html" target="_top" xlink:title="WorldEngine">
<polygon fill="white" stroke="black" points="96,-60 24,-60 24,-24 96,-24 96,-60"/>
<text text-anchor="middle" x="60" y="-39.5" font-family="Helvetica,sans-Serif" font-size="10.00">WorldEngine</text>
</a>
</g>
</g>
</g>
</svg>
