<?xml version="1.0" encoding="UTF-8" standalone="no"?>
<!DOCTYPE svg PUBLIC "-//W3C//DTD SVG 1.1//EN"
 "http://www.w3.org/Graphics/SVG/1.1/DTD/svg11.dtd">
<!-- Generated by graphviz version 2.34.0 (20130907.0111)
 -->
<!-- Title: D:/Projets/Final&#45;Bomber/Site web/d3 Pages: 1 -->
<svg width="1406pt" height="111pt"
 viewBox="0.00 0.00 1406.00 111.00" xmlns="http://www.w3.org/2000/svg" xmlns:xlink="http://www.w3.org/1999/xlink">
<g id="graph0" class="graph" transform="scale(1 1) rotate(0) translate(4 107)">
<title>D:/Projets/Final&#45;Bomber/Site web/d3</title>
<polygon fill="white" stroke="white" points="-4,4 -4,-107 1402,-107 1402,4 -4,4"/>
<g id="clust1" class="cluster"><title>clusterdir_f1660b4b119ee78966fd57f74fde339b</title>
<g id="a_clust1"><a xlink:href="dir_f1660b4b119ee78966fd57f74fde339b.html" target="_top" xlink:title="Site web">
<polygon fill="#ddddee" stroke="black" points="8,-8 8,-95 1390,-95 1390,-8 8,-8"/>
<text text-anchor="middle" x="699" y="-83" font-family="Helvetica,sans-Serif" font-size="10.00">Site web</text>
</a>
</g>
</g>
<g id="clust2" class="cluster"><title>clusterdir_8e112d2fcfd6eccfe50f26224250aaf2</title>
<g id="a_clust2"><a xlink:href="dir_8e112d2fcfd6eccfe50f26224250aaf2.html" target="_top">
<polygon fill="#eeeeff" stroke="black" points="16,-16 16,-68 1382,-68 1382,-16 16,-16"/>
</a>
</g>
</g>
<!-- dir_8e112d2fcfd6eccfe50f26224250aaf2 -->
<g id="node1" class="node"><title>dir_8e112d2fcfd6eccfe50f26224250aaf2</title>
<text text-anchor="middle" x="1347" y="-39.5" font-family="Helvetica,sans-Serif" font-size="10.00">d3</text>
</g>
<!-- dir_8ce12d9db278c0bb6a82023051aa0449 -->
<g id="node2" class="node"><title>dir_8ce12d9db278c0bb6a82023051aa0449</title>
<g id="a_node2"><a xlink:href="dir_8ce12d9db278c0bb6a82023051aa0449.html" target="_top" xlink:title="d05">
<polygon fill="white" stroke="black" points="1302,-60 1248,-60 1248,-24 1302,-24 1302,-60"/>
<text text-anchor="middle" x="1275" y="-39.5" font-family="Helvetica,sans-Serif" font-size="10.00">d05</text>
</a>
</g>
</g>
<!-- dir_cfd18c008534fd054f460353fe287841 -->
<g id="node3" class="node"><title>dir_cfd18c008534fd054f460353fe287841</title>
<g id="a_node3"><a xlink:href="dir_cfd18c008534fd054f460353fe287841.html" target="_top" xlink:title="d0e">
<polygon fill="white" stroke="black" points="1230,-60 1176,-60 1176,-24 1230,-24 1230,-60"/>
<text text-anchor="middle" x="1203" y="-39.5" font-family="Helvetica,sans-Serif" font-size="10.00">d0e</text>
</a>
</g>
</g>
<!-- dir_c089c8c0f047f77bc43d42874e148183 -->
<g id="node4" class="node"><title>dir_c089c8c0f047f77bc43d42874e148183</title>
<g id="a_node4"><a xlink:href="dir_c089c8c0f047f77bc43d42874e148183.html" target="_top" xlink:title="d1b">
<polygon fill="white" stroke="black" points="1158,-60 1104,-60 1104,-24 1158,-24 1158,-60"/>
<text text-anchor="middle" x="1131" y="-39.5" font-family="Helvetica,sans-Serif" font-size="10.00">d1b</text>
</a>
</g>
</g>
<!-- dir_f82512067180001c2ca80c8018342ecc -->
<g id="node5" class="node"><title>dir_f82512067180001c2ca80c8018342ecc</title>
<g id="a_node5"><a xlink:href="dir_f82512067180001c2ca80c8018342ecc.html" target="_top" xlink:title="d4d">
<polygon fill="white" stroke="black" points="1086,-60 1032,-60 1032,-24 1086,-24 1086,-60"/>
<text text-anchor="middle" x="1059" y="-39.5" font-family="Helvetica,sans-Serif" font-size="10.00">d4d</text>
</a>
</g>
</g>
<!-- dir_9f8c0c0c7b1102744d4c248720c4641d -->
<g id="node6" class="node"><title>dir_9f8c0c0c7b1102744d4c248720c4641d</title>
<g id="a_node6"><a xlink:href="dir_9f8c0c0c7b1102744d4c248720c4641d.html" target="_top" xlink:title="d5b">
<polygon fill="white" stroke="black" points="1014,-60 960,-60 960,-24 1014,-24 1014,-60"/>
<text text-anchor="middle" x="987" y="-39.5" font-family="Helvetica,sans-Serif" font-size="10.00">d5b</text>
</a>
</g>
</g>
<!-- dir_e2c542905685a134ac8af763d6caeda5 -->
<g id="node7" class="node"><title>dir_e2c542905685a134ac8af763d6caeda5</title>
<g id="a_node7"><a xlink:href="dir_e2c542905685a134ac8af763d6caeda5.html" target="_top" xlink:title="d5f">
<polygon fill="white" stroke="black" points="942,-60 888,-60 888,-24 942,-24 942,-60"/>
<text text-anchor="middle" x="915" y="-39.5" font-family="Helvetica,sans-Serif" font-size="10.00">d5f</text>
</a>
</g>
</g>
<!-- dir_72d6d328f5909c70f2f32a3618983f2d -->
<g id="node8" class="node"><title>dir_72d6d328f5909c70f2f32a3618983f2d</title>
<g id="a_node8"><a xlink:href="dir_72d6d328f5909c70f2f32a3618983f2d.html" target="_top" xlink:title="d69">
<polygon fill="white" stroke="black" points="870,-60 816,-60 816,-24 870,-24 870,-60"/>
<text text-anchor="middle" x="843" y="-39.5" font-family="Helvetica,sans-Serif" font-size="10.00">d69</text>
</a>
</g>
</g>
<!-- dir_46c92ce216625a65b6f185d3d916ed8a -->
<g id="node9" class="node"><title>dir_46c92ce216625a65b6f185d3d916ed8a</title>
<g id="a_node9"><a xlink:href="dir_46c92ce216625a65b6f185d3d916ed8a.html" target="_top" xlink:title="d7a">
<polygon fill="white" stroke="black" points="798,-60 744,-60 744,-24 798,-24 798,-60"/>
<text text-anchor="middle" x="771" y="-39.5" font-family="Helvetica,sans-Serif" font-size="10.00">d7a</text>
</a>
</g>
</g>
<!-- dir_8dcff7fd58869acc2ff1c97716062b5c -->
<g id="node10" class="node"><title>dir_8dcff7fd58869acc2ff1c97716062b5c</title>
<g id="a_node10"><a xlink:href="dir_8dcff7fd58869acc2ff1c97716062b5c.html" target="_top" xlink:title="d87">
<polygon fill="white" stroke="black" points="726,-60 672,-60 672,-24 726,-24 726,-60"/>
<text text-anchor="middle" x="699" y="-39.5" font-family="Helvetica,sans-Serif" font-size="10.00">d87</text>
</a>
</g>
</g>
<!-- dir_68e75e270c77a3df6d85c4bcd59d80fb -->
<g id="node11" class="node"><title>dir_68e75e270c77a3df6d85c4bcd59d80fb</title>
<g id="a_node11"><a xlink:href="dir_68e75e270c77a3df6d85c4bcd59d80fb.html" target="_top" xlink:title="d8c">
<polygon fill="white" stroke="black" points="654,-60 600,-60 600,-24 654,-24 654,-60"/>
<text text-anchor="middle" x="627" y="-39.5" font-family="Helvetica,sans-Serif" font-size="10.00">d8c</text>
</a>
</g>
</g>
<!-- dir_e6cc464ea4380e49d6a3653b38c4931b -->
<g id="node12" class="node"><title>dir_e6cc464ea4380e49d6a3653b38c4931b</title>
<g id="a_node12"><a xlink:href="dir_e6cc464ea4380e49d6a3653b38c4931b.html" target="_top" xlink:title="d9f">
<polygon fill="white" stroke="black" points="582,-60 528,-60 528,-24 582,-24 582,-60"/>
<text text-anchor="middle" x="555" y="-39.5" font-family="Helvetica,sans-Serif" font-size="10.00">d9f</text>
</a>
</g>
</g>
<!-- dir_6a525645f2ec3be095a01954f6e1a83e -->
<g id="node13" class="node"><title>dir_6a525645f2ec3be095a01954f6e1a83e</title>
<g id="a_node13"><a xlink:href="dir_6a525645f2ec3be095a01954f6e1a83e.html" target="_top" xlink:title="db7">
<polygon fill="white" stroke="black" points="510,-60 456,-60 456,-24 510,-24 510,-60"/>
<text text-anchor="middle" x="483" y="-39.5" font-family="Helvetica,sans-Serif" font-size="10.00">db7</text>
</a>
</g>
</g>
<!-- dir_e2c632d3006fce4839a71ef0cfc0b1d2 -->
<g id="node14" class="node"><title>dir_e2c632d3006fce4839a71ef0cfc0b1d2</title>
<g id="a_node14"><a xlink:href="dir_e2c632d3006fce4839a71ef0cfc0b1d2.html" target="_top" xlink:title="dbe">
<polygon fill="white" stroke="black" points="438,-60 384,-60 384,-24 438,-24 438,-60"/>
<text text-anchor="middle" x="411" y="-39.5" font-family="Helvetica,sans-Serif" font-size="10.00">dbe</text>
</a>
</g>
</g>
<!-- dir_3d2a3576dc321ed28842ca760a1aa1e6 -->
<g id="node15" class="node"><title>dir_3d2a3576dc321ed28842ca760a1aa1e6</title>
<g id="a_node15"><a xlink:href="dir_3d2a3576dc321ed28842ca760a1aa1e6.html" target="_top" xlink:title="dd1">
<polygon fill="white" stroke="black" points="366,-60 312,-60 312,-24 366,-24 366,-60"/>
<text text-anchor="middle" x="339" y="-39.5" font-family="Helvetica,sans-Serif" font-size="10.00">dd1</text>
</a>
</g>
</g>
<!-- dir_d3652e9f7826f9644778c1ec1e5aaadb -->
<g id="node16" class="node"><title>dir_d3652e9f7826f9644778c1ec1e5aaadb</title>
<g id="a_node16"><a xlink:href="dir_d3652e9f7826f9644778c1ec1e5aaadb.html" target="_top" xlink:title="dd2">
<polygon fill="white" stroke="black" points="294,-60 240,-60 240,-24 294,-24 294,-60"/>
<text text-anchor="middle" x="267" y="-39.5" font-family="Helvetica,sans-Serif" font-size="10.00">dd2</text>
</a>
</g>
</g>
<!-- dir_0fb49eee1f892db60d2cab58eb1325c0 -->
<g id="node17" class="node"><title>dir_0fb49eee1f892db60d2cab58eb1325c0</title>
<g id="a_node17"><a xlink:href="dir_0fb49eee1f892db60d2cab58eb1325c0.html" target="_top" xlink:title="dee">
<polygon fill="white" stroke="black" points="222,-60 168,-60 168,-24 222,-24 222,-60"/>
<text text-anchor="middle" x="195" y="-39.5" font-family="Helvetica,sans-Serif" font-size="10.00">dee</text>
</a>
</g>
</g>
<!-- dir_33017fbacc4cbad6e696e2c62dd82b98 -->
<g id="node18" class="node"><title>dir_33017fbacc4cbad6e696e2c62dd82b98</title>
<g id="a_node18"><a xlink:href="dir_33017fbacc4cbad6e696e2c62dd82b98.html" target="_top" xlink:title="df6">
<polygon fill="white" stroke="black" points="150,-60 96,-60 96,-24 150,-24 150,-60"/>
<text text-anchor="middle" x="123" y="-39.5" font-family="Helvetica,sans-Serif" font-size="10.00">df6</text>
</a>
</g>
</g>
<!-- dir_341a14862757fd389b7d1dbc4e4482f7 -->
<g id="node19" class="node"><title>dir_341a14862757fd389b7d1dbc4e4482f7</title>
<g id="a_node19"><a xlink:href="dir_341a14862757fd389b7d1dbc4e4482f7.html" target="_top" xlink:title="dfe">
<polygon fill="white" stroke="black" points="78,-60 24,-60 24,-24 78,-24 78,-60"/>
<text text-anchor="middle" x="51" y="-39.5" font-family="Helvetica,sans-Serif" font-size="10.00">dfe</text>
</a>
</g>
</g>
</g>
</svg>
