<?xml version="1.0" encoding="UTF-8" standalone="no"?>
<!DOCTYPE svg PUBLIC "-//W3C//DTD SVG 1.1//EN"
 "http://www.w3.org/Graphics/SVG/1.1/DTD/svg11.dtd">
<!-- Generated by graphviz version 2.34.0 (20130907.0111)
 -->
<!-- Title: D:/Projets/Final&#45;Bomber/Site web/da Pages: 1 -->
<svg width="1190pt" height="111pt"
 viewBox="0.00 0.00 1190.00 111.00" xmlns="http://www.w3.org/2000/svg" xmlns:xlink="http://www.w3.org/1999/xlink">
<g id="graph0" class="graph" transform="scale(1 1) rotate(0) translate(4 107)">
<title>D:/Projets/Final&#45;Bomber/Site web/da</title>
<polygon fill="white" stroke="white" points="-4,4 -4,-107 1186,-107 1186,4 -4,4"/>
<g id="clust1" class="cluster"><title>clusterdir_f1660b4b119ee78966fd57f74fde339b</title>
<g id="a_clust1"><a xlink:href="dir_f1660b4b119ee78966fd57f74fde339b.html" target="_top" xlink:title="Site web">
<polygon fill="#ddddee" stroke="black" points="8,-8 8,-95 1174,-95 1174,-8 8,-8"/>
<text text-anchor="middle" x="591" y="-83" font-family="Helvetica,sans-Serif" font-size="10.00">Site web</text>
</a>
</g>
</g>
<g id="clust2" class="cluster"><title>clusterdir_96d1f28221f968b37244f55741356e9f</title>
<g id="a_clust2"><a xlink:href="dir_96d1f28221f968b37244f55741356e9f.html" target="_top">
<polygon fill="#eeeeff" stroke="black" points="16,-16 16,-68 1166,-68 1166,-16 16,-16"/>
</a>
</g>
</g>
<!-- dir_96d1f28221f968b37244f55741356e9f -->
<g id="node1" class="node"><title>dir_96d1f28221f968b37244f55741356e9f</title>
<text text-anchor="middle" x="1131" y="-39.5" font-family="Helvetica,sans-Serif" font-size="10.00">da</text>
</g>
<!-- dir_0cff387bdf7dcf02adff1c29aeecf5b9 -->
<g id="node2" class="node"><title>dir_0cff387bdf7dcf02adff1c29aeecf5b9</title>
<g id="a_node2"><a xlink:href="dir_0cff387bdf7dcf02adff1c29aeecf5b9.html" target="_top" xlink:title="d0b">
<polygon fill="white" stroke="black" points="1086,-60 1032,-60 1032,-24 1086,-24 1086,-60"/>
<text text-anchor="middle" x="1059" y="-39.5" font-family="Helvetica,sans-Serif" font-size="10.00">d0b</text>
</a>
</g>
</g>
<!-- dir_fad5195485163781213f7550ee140e13 -->
<g id="node3" class="node"><title>dir_fad5195485163781213f7550ee140e13</title>
<g id="a_node3"><a xlink:href="dir_fad5195485163781213f7550ee140e13.html" target="_top" xlink:title="d10">
<polygon fill="white" stroke="black" points="1014,-60 960,-60 960,-24 1014,-24 1014,-60"/>
<text text-anchor="middle" x="987" y="-39.5" font-family="Helvetica,sans-Serif" font-size="10.00">d10</text>
</a>
</g>
</g>
<!-- dir_98ccb128b79a13d73372648ae8abf086 -->
<g id="node4" class="node"><title>dir_98ccb128b79a13d73372648ae8abf086</title>
<g id="a_node4"><a xlink:href="dir_98ccb128b79a13d73372648ae8abf086.html" target="_top" xlink:title="d3c">
<polygon fill="white" stroke="black" points="942,-60 888,-60 888,-24 942,-24 942,-60"/>
<text text-anchor="middle" x="915" y="-39.5" font-family="Helvetica,sans-Serif" font-size="10.00">d3c</text>
</a>
</g>
</g>
<!-- dir_eb84785186ada3179913d208d6facf56 -->
<g id="node5" class="node"><title>dir_eb84785186ada3179913d208d6facf56</title>
<g id="a_node5"><a xlink:href="dir_eb84785186ada3179913d208d6facf56.html" target="_top" xlink:title="d50">
<polygon fill="white" stroke="black" points="870,-60 816,-60 816,-24 870,-24 870,-60"/>
<text text-anchor="middle" x="843" y="-39.5" font-family="Helvetica,sans-Serif" font-size="10.00">d50</text>
</a>
</g>
</g>
<!-- dir_e645d86490b2a6e09ea57f83a4ce3645 -->
<g id="node6" class="node"><title>dir_e645d86490b2a6e09ea57f83a4ce3645</title>
<g id="a_node6"><a xlink:href="dir_e645d86490b2a6e09ea57f83a4ce3645.html" target="_top" xlink:title="d55">
<polygon fill="white" stroke="black" points="798,-60 744,-60 744,-24 798,-24 798,-60"/>
<text text-anchor="middle" x="771" y="-39.5" font-family="Helvetica,sans-Serif" font-size="10.00">d55</text>
</a>
</g>
</g>
<!-- dir_84d8b8e3be0b9d53b984ddb19872965a -->
<g id="node7" class="node"><title>dir_84d8b8e3be0b9d53b984ddb19872965a</title>
<g id="a_node7"><a xlink:href="dir_84d8b8e3be0b9d53b984ddb19872965a.html" target="_top" xlink:title="d58">
<polygon fill="white" stroke="black" points="726,-60 672,-60 672,-24 726,-24 726,-60"/>
<text text-anchor="middle" x="699" y="-39.5" font-family="Helvetica,sans-Serif" font-size="10.00">d58</text>
</a>
</g>
</g>
<!-- dir_486eb1a28ae74b9f44f024d7feef9574 -->
<g id="node8" class="node"><title>dir_486eb1a28ae74b9f44f024d7feef9574</title>
<g id="a_node8"><a xlink:href="dir_486eb1a28ae74b9f44f024d7feef9574.html" target="_top" xlink:title="d69">
<polygon fill="white" stroke="black" points="654,-60 600,-60 600,-24 654,-24 654,-60"/>
<text text-anchor="middle" x="627" y="-39.5" font-family="Helvetica,sans-Serif" font-size="10.00">d69</text>
</a>
</g>
</g>
<!-- dir_5434b3eece5f3a910a207631e35b3778 -->
<g id="node9" class="node"><title>dir_5434b3eece5f3a910a207631e35b3778</title>
<g id="a_node9"><a xlink:href="dir_5434b3eece5f3a910a207631e35b3778.html" target="_top" xlink:title="d75">
<polygon fill="white" stroke="black" points="582,-60 528,-60 528,-24 582,-24 582,-60"/>
<text text-anchor="middle" x="555" y="-39.5" font-family="Helvetica,sans-Serif" font-size="10.00">d75</text>
</a>
</g>
</g>
<!-- dir_207de7a04b4675741467247293975217 -->
<g id="node10" class="node"><title>dir_207de7a04b4675741467247293975217</title>
<g id="a_node10"><a xlink:href="dir_207de7a04b4675741467247293975217.html" target="_top" xlink:title="d87">
<polygon fill="white" stroke="black" points="510,-60 456,-60 456,-24 510,-24 510,-60"/>
<text text-anchor="middle" x="483" y="-39.5" font-family="Helvetica,sans-Serif" font-size="10.00">d87</text>
</a>
</g>
</g>
<!-- dir_94110efaf9d2f9e58331aab34096b62a -->
<g id="node11" class="node"><title>dir_94110efaf9d2f9e58331aab34096b62a</title>
<g id="a_node11"><a xlink:href="dir_94110efaf9d2f9e58331aab34096b62a.html" target="_top" xlink:title="d93">
<polygon fill="white" stroke="black" points="438,-60 384,-60 384,-24 438,-24 438,-60"/>
<text text-anchor="middle" x="411" y="-39.5" font-family="Helvetica,sans-Serif" font-size="10.00">d93</text>
</a>
</g>
</g>
<!-- dir_11142e133fbf221118761558889685e0 -->
<g id="node12" class="node"><title>dir_11142e133fbf221118761558889685e0</title>
<g id="a_node12"><a xlink:href="dir_11142e133fbf221118761558889685e0.html" target="_top" xlink:title="d9c">
<polygon fill="white" stroke="black" points="366,-60 312,-60 312,-24 366,-24 366,-60"/>
<text text-anchor="middle" x="339" y="-39.5" font-family="Helvetica,sans-Serif" font-size="10.00">d9c</text>
</a>
</g>
</g>
<!-- dir_5886990ca408ad222cf7ef62d051702a -->
<g id="node13" class="node"><title>dir_5886990ca408ad222cf7ef62d051702a</title>
<g id="a_node13"><a xlink:href="dir_5886990ca408ad222cf7ef62d051702a.html" target="_top" xlink:title="daf">
<polygon fill="white" stroke="black" points="294,-60 240,-60 240,-24 294,-24 294,-60"/>
<text text-anchor="middle" x="267" y="-39.5" font-family="Helvetica,sans-Serif" font-size="10.00">daf</text>
</a>
</g>
</g>
<!-- dir_adf9de02b34d1c63ee0c1e6e58d5a37c -->
<g id="node14" class="node"><title>dir_adf9de02b34d1c63ee0c1e6e58d5a37c</title>
<g id="a_node14"><a xlink:href="dir_adf9de02b34d1c63ee0c1e6e58d5a37c.html" target="_top" xlink:title="dce">
<polygon fill="white" stroke="black" points="222,-60 168,-60 168,-24 222,-24 222,-60"/>
<text text-anchor="middle" x="195" y="-39.5" font-family="Helvetica,sans-Serif" font-size="10.00">dce</text>
</a>
</g>
</g>
<!-- dir_5c3a9e881bb6599cf11e033cf5236ddd -->
<g id="node15" class="node"><title>dir_5c3a9e881bb6599cf11e033cf5236ddd</title>
<g id="a_node15"><a xlink:href="dir_5c3a9e881bb6599cf11e033cf5236ddd.html" target="_top" xlink:title="dd1">
<polygon fill="white" stroke="black" points="150,-60 96,-60 96,-24 150,-24 150,-60"/>
<text text-anchor="middle" x="123" y="-39.5" font-family="Helvetica,sans-Serif" font-size="10.00">dd1</text>
</a>
</g>
</g>
<!-- dir_ebb52259a320a8996a4490c39f6be2f8 -->
<g id="node16" class="node"><title>dir_ebb52259a320a8996a4490c39f6be2f8</title>
<g id="a_node16"><a xlink:href="dir_ebb52259a320a8996a4490c39f6be2f8.html" target="_top" xlink:title="df6">
<polygon fill="white" stroke="black" points="78,-60 24,-60 24,-24 78,-24 78,-60"/>
<text text-anchor="middle" x="51" y="-39.5" font-family="Helvetica,sans-Serif" font-size="10.00">df6</text>
</a>
</g>
</g>
</g>
</svg>
