<?xml version="1.0" encoding="UTF-8" standalone="no"?>
<!DOCTYPE svg PUBLIC "-//W3C//DTD SVG 1.1//EN"
 "http://www.w3.org/Graphics/SVG/1.1/DTD/svg11.dtd">
<!-- Generated by graphviz version 2.34.0 (20130907.0111)
 -->
<!-- Title: D:/Projets/Final&#45;Bomber/Site web/d8 Pages: 1 -->
<svg width="686pt" height="111pt"
 viewBox="0.00 0.00 686.00 111.00" xmlns="http://www.w3.org/2000/svg" xmlns:xlink="http://www.w3.org/1999/xlink">
<g id="graph0" class="graph" transform="scale(1 1) rotate(0) translate(4 107)">
<title>D:/Projets/Final&#45;Bomber/Site web/d8</title>
<polygon fill="white" stroke="white" points="-4,4 -4,-107 682,-107 682,4 -4,4"/>
<g id="clust1" class="cluster"><title>clusterdir_f1660b4b119ee78966fd57f74fde339b</title>
<g id="a_clust1"><a xlink:href="dir_f1660b4b119ee78966fd57f74fde339b.html" target="_top" xlink:title="Site web">
<polygon fill="#ddddee" stroke="black" points="8,-8 8,-95 670,-95 670,-8 8,-8"/>
<text text-anchor="middle" x="339" y="-83" font-family="Helvetica,sans-Serif" font-size="10.00">Site web</text>
</a>
</g>
</g>
<g id="clust2" class="cluster"><title>clusterdir_08121763782c1ad8755a637b222b243d</title>
<g id="a_clust2"><a xlink:href="dir_08121763782c1ad8755a637b222b243d.html" target="_top">
<polygon fill="#eeeeff" stroke="black" points="16,-16 16,-68 662,-68 662,-16 16,-16"/>
</a>
</g>
</g>
<!-- dir_08121763782c1ad8755a637b222b243d -->
<g id="node1" class="node"><title>dir_08121763782c1ad8755a637b222b243d</title>
<text text-anchor="middle" x="627" y="-39.5" font-family="Helvetica,sans-Serif" font-size="10.00">d8</text>
</g>
<!-- dir_c9fb35cbf62da2aead7ad59e401d7773 -->
<g id="node2" class="node"><title>dir_c9fb35cbf62da2aead7ad59e401d7773</title>
<g id="a_node2"><a xlink:href="dir_c9fb35cbf62da2aead7ad59e401d7773.html" target="_top" xlink:title="d77">
<polygon fill="white" stroke="black" points="582,-60 528,-60 528,-24 582,-24 582,-60"/>
<text text-anchor="middle" x="555" y="-39.5" font-family="Helvetica,sans-Serif" font-size="10.00">d77</text>
</a>
</g>
</g>
<!-- dir_feacf34ab510c88bff861ea09369e6cc -->
<g id="node3" class="node"><title>dir_feacf34ab510c88bff861ea09369e6cc</title>
<g id="a_node3"><a xlink:href="dir_feacf34ab510c88bff861ea09369e6cc.html" target="_top" xlink:title="d8b">
<polygon fill="white" stroke="black" points="510,-60 456,-60 456,-24 510,-24 510,-60"/>
<text text-anchor="middle" x="483" y="-39.5" font-family="Helvetica,sans-Serif" font-size="10.00">d8b</text>
</a>
</g>
</g>
<!-- dir_ac10763824ae03600d0cc44d0001dbb7 -->
<g id="node4" class="node"><title>dir_ac10763824ae03600d0cc44d0001dbb7</title>
<g id="a_node4"><a xlink:href="dir_ac10763824ae03600d0cc44d0001dbb7.html" target="_top" xlink:title="d9c">
<polygon fill="white" stroke="black" points="438,-60 384,-60 384,-24 438,-24 438,-60"/>
<text text-anchor="middle" x="411" y="-39.5" font-family="Helvetica,sans-Serif" font-size="10.00">d9c</text>
</a>
</g>
</g>
<!-- dir_6ec059a059c698f6a379b41c0f99481e -->
<g id="node5" class="node"><title>dir_6ec059a059c698f6a379b41c0f99481e</title>
<g id="a_node5"><a xlink:href="dir_6ec059a059c698f6a379b41c0f99481e.html" target="_top" xlink:title="da9">
<polygon fill="white" stroke="black" points="366,-60 312,-60 312,-24 366,-24 366,-60"/>
<text text-anchor="middle" x="339" y="-39.5" font-family="Helvetica,sans-Serif" font-size="10.00">da9</text>
</a>
</g>
</g>
<!-- dir_010ad4f22ee1d9b597bdb0d1f6c762c8 -->
<g id="node6" class="node"><title>dir_010ad4f22ee1d9b597bdb0d1f6c762c8</title>
<g id="a_node6"><a xlink:href="dir_010ad4f22ee1d9b597bdb0d1f6c762c8.html" target="_top" xlink:title="dc3">
<polygon fill="white" stroke="black" points="294,-60 240,-60 240,-24 294,-24 294,-60"/>
<text text-anchor="middle" x="267" y="-39.5" font-family="Helvetica,sans-Serif" font-size="10.00">dc3</text>
</a>
</g>
</g>
<!-- dir_090ddb013470d0c99566a3331ca5dd5e -->
<g id="node7" class="node"><title>dir_090ddb013470d0c99566a3331ca5dd5e</title>
<g id="a_node7"><a xlink:href="dir_090ddb013470d0c99566a3331ca5dd5e.html" target="_top" xlink:title="dc8">
<polygon fill="white" stroke="black" points="222,-60 168,-60 168,-24 222,-24 222,-60"/>
<text text-anchor="middle" x="195" y="-39.5" font-family="Helvetica,sans-Serif" font-size="10.00">dc8</text>
</a>
</g>
</g>
<!-- dir_a76ada11dacee38ee4d4fdc4d547bbca -->
<g id="node8" class="node"><title>dir_a76ada11dacee38ee4d4fdc4d547bbca</title>
<g id="a_node8"><a xlink:href="dir_a76ada11dacee38ee4d4fdc4d547bbca.html" target="_top" xlink:title="dcd">
<polygon fill="white" stroke="black" points="150,-60 96,-60 96,-24 150,-24 150,-60"/>
<text text-anchor="middle" x="123" y="-39.5" font-family="Helvetica,sans-Serif" font-size="10.00">dcd</text>
</a>
</g>
</g>
<!-- dir_4788aa7f08307e4f2577d193b1e102c1 -->
<g id="node9" class="node"><title>dir_4788aa7f08307e4f2577d193b1e102c1</title>
<g id="a_node9"><a xlink:href="dir_4788aa7f08307e4f2577d193b1e102c1.html" target="_top" xlink:title="dd5">
<polygon fill="white" stroke="black" points="78,-60 24,-60 24,-24 78,-24 78,-60"/>
<text text-anchor="middle" x="51" y="-39.5" font-family="Helvetica,sans-Serif" font-size="10.00">dd5</text>
</a>
</g>
</g>
</g>
</svg>
