<?xml version="1.0" encoding="UTF-8" standalone="no"?>
<!DOCTYPE svg PUBLIC "-//W3C//DTD SVG 1.1//EN"
 "http://www.w3.org/Graphics/SVG/1.1/DTD/svg11.dtd">
<!-- Generated by graphviz version 2.34.0 (20130907.0111)
 -->
<!-- Title: D:/Projets/Final&#45;Bomber/Final&#45;Bomber/2 &#45; Server Pages: 1 -->
<svg width="394pt" height="76pt"
 viewBox="0.00 0.00 394.00 76.00" xmlns="http://www.w3.org/2000/svg" xmlns:xlink="http://www.w3.org/1999/xlink">
<g id="graph0" class="graph" transform="scale(1 1) rotate(0) translate(4 72)">
<title>D:/Projets/Final&#45;Bomber/Final&#45;Bomber/2 &#45; Server</title>
<polygon fill="white" stroke="white" points="-4,4 -4,-72 390,-72 390,4 -4,4"/>
<g id="clust1" class="cluster"><title>clusterdir_9f5ca9439b178aee938cd6991640c733</title>
<g id="a_clust1"><a xlink:href="dir_9f5ca9439b178aee938cd6991640c733.html" target="_top">
<polygon fill="#eeeeff" stroke="black" points="8,-8 8,-60 378,-60 378,-8 8,-8"/>
</a>
</g>
</g>
<!-- dir_9f5ca9439b178aee938cd6991640c733 -->
<g id="node1" class="node"><title>dir_9f5ca9439b178aee938cd6991640c733</title>
<text text-anchor="middle" x="341" y="-31.5" font-family="Helvetica,sans-Serif" font-size="10.00">2 &#45; Server</text>
</g>
<!-- dir_40718a2f22c8cab842d90fece013bda5 -->
<g id="node2" class="node"><title>dir_40718a2f22c8cab842d90fece013bda5</title>
<g id="a_node2"><a xlink:href="dir_40718a2f22c8cab842d90fece013bda5.html" target="_top" xlink:title="Core">
<polygon fill="white" stroke="red" points="294,-52 240,-52 240,-16 294,-16 294,-52"/>
<text text-anchor="middle" x="267" y="-31.5" font-family="Helvetica,sans-Serif" font-size="10.00">Core</text>
</a>
</g>
</g>
<!-- dir_27106fd4a48a7bc58b614a4c8efcd1af -->
<g id="node3" class="node"><title>dir_27106fd4a48a7bc58b614a4c8efcd1af</title>
<g id="a_node3"><a xlink:href="dir_27106fd4a48a7bc58b614a4c8efcd1af.html" target="_top" xlink:title="Host">
<polygon fill="white" stroke="black" points="222,-52 168,-52 168,-16 222,-16 222,-52"/>
<text text-anchor="middle" x="195" y="-31.5" font-family="Helvetica,sans-Serif" font-size="10.00">Host</text>
</a>
</g>
</g>
<!-- dir_1a077ef75c1a588589043028dd085bcb -->
<g id="node4" class="node"><title>dir_1a077ef75c1a588589043028dd085bcb</title>
<g id="a_node4"><a xlink:href="dir_1a077ef75c1a588589043028dd085bcb.html" target="_top" xlink:title="obj">
<polygon fill="white" stroke="red" points="150,-52 96,-52 96,-16 150,-16 150,-52"/>
<text text-anchor="middle" x="123" y="-31.5" font-family="Helvetica,sans-Serif" font-size="10.00">obj</text>
</a>
</g>
</g>
<!-- dir_ed5070e06f3a9244b9c3e4344b602220 -->
<g id="node5" class="node"><title>dir_ed5070e06f3a9244b9c3e4344b602220</title>
<g id="a_node5"><a xlink:href="dir_ed5070e06f3a9244b9c3e4344b602220.html" target="_top" xlink:title="Properties">
<polygon fill="white" stroke="black" points="77.25,-52 16.75,-52 16.75,-16 77.25,-16 77.25,-52"/>
<text text-anchor="middle" x="47" y="-31.5" font-family="Helvetica,sans-Serif" font-size="10.00">Properties</text>
</a>
</g>
</g>
</g>
</svg>
