<?xml version="1.0" encoding="UTF-8" standalone="no"?>
<!DOCTYPE svg PUBLIC "-//W3C//DTD SVG 1.1//EN"
 "http://www.w3.org/Graphics/SVG/1.1/DTD/svg11.dtd">
<!-- Generated by graphviz version 2.34.0 (20130907.0111)
 -->
<!-- Title: D:/Projets/Final&#45;Bomber/Site web/d4 Pages: 1 -->
<svg width="830pt" height="111pt"
 viewBox="0.00 0.00 830.00 111.00" xmlns="http://www.w3.org/2000/svg" xmlns:xlink="http://www.w3.org/1999/xlink">
<g id="graph0" class="graph" transform="scale(1 1) rotate(0) translate(4 107)">
<title>D:/Projets/Final&#45;Bomber/Site web/d4</title>
<polygon fill="white" stroke="white" points="-4,4 -4,-107 826,-107 826,4 -4,4"/>
<g id="clust1" class="cluster"><title>clusterdir_f1660b4b119ee78966fd57f74fde339b</title>
<g id="a_clust1"><a xlink:href="dir_f1660b4b119ee78966fd57f74fde339b.html" target="_top" xlink:title="Site web">
<polygon fill="#ddddee" stroke="black" points="8,-8 8,-95 814,-95 814,-8 8,-8"/>
<text text-anchor="middle" x="411" y="-83" font-family="Helvetica,sans-Serif" font-size="10.00">Site web</text>
</a>
</g>
</g>
<g id="clust2" class="cluster"><title>clusterdir_20fcb128ebf6a8cf0d2ad8f488ba473c</title>
<g id="a_clust2"><a xlink:href="dir_20fcb128ebf6a8cf0d2ad8f488ba473c.html" target="_top">
<polygon fill="#eeeeff" stroke="black" points="16,-16 16,-68 806,-68 806,-16 16,-16"/>
</a>
</g>
</g>
<!-- dir_20fcb128ebf6a8cf0d2ad8f488ba473c -->
<g id="node1" class="node"><title>dir_20fcb128ebf6a8cf0d2ad8f488ba473c</title>
<text text-anchor="middle" x="771" y="-39.5" font-family="Helvetica,sans-Serif" font-size="10.00">d4</text>
</g>
<!-- dir_8c07506cc9d8b7df2d926bf2858184c5 -->
<g id="node2" class="node"><title>dir_8c07506cc9d8b7df2d926bf2858184c5</title>
<g id="a_node2"><a xlink:href="dir_8c07506cc9d8b7df2d926bf2858184c5.html" target="_top" xlink:title="d16">
<polygon fill="white" stroke="black" points="726,-60 672,-60 672,-24 726,-24 726,-60"/>
<text text-anchor="middle" x="699" y="-39.5" font-family="Helvetica,sans-Serif" font-size="10.00">d16</text>
</a>
</g>
</g>
<!-- dir_c6f97b8069916a01a51119aa89121d90 -->
<g id="node3" class="node"><title>dir_c6f97b8069916a01a51119aa89121d90</title>
<g id="a_node3"><a xlink:href="dir_c6f97b8069916a01a51119aa89121d90.html" target="_top" xlink:title="d17">
<polygon fill="white" stroke="black" points="654,-60 600,-60 600,-24 654,-24 654,-60"/>
<text text-anchor="middle" x="627" y="-39.5" font-family="Helvetica,sans-Serif" font-size="10.00">d17</text>
</a>
</g>
</g>
<!-- dir_2a5bcd88ee154b09e1747c5be190e5e4 -->
<g id="node4" class="node"><title>dir_2a5bcd88ee154b09e1747c5be190e5e4</title>
<g id="a_node4"><a xlink:href="dir_2a5bcd88ee154b09e1747c5be190e5e4.html" target="_top" xlink:title="d3a">
<polygon fill="white" stroke="black" points="582,-60 528,-60 528,-24 582,-24 582,-60"/>
<text text-anchor="middle" x="555" y="-39.5" font-family="Helvetica,sans-Serif" font-size="10.00">d3a</text>
</a>
</g>
</g>
<!-- dir_a60f1db87ee0d415a3dd733d0d08ed03 -->
<g id="node5" class="node"><title>dir_a60f1db87ee0d415a3dd733d0d08ed03</title>
<g id="a_node5"><a xlink:href="dir_a60f1db87ee0d415a3dd733d0d08ed03.html" target="_top" xlink:title="d4d">
<polygon fill="white" stroke="black" points="510,-60 456,-60 456,-24 510,-24 510,-60"/>
<text text-anchor="middle" x="483" y="-39.5" font-family="Helvetica,sans-Serif" font-size="10.00">d4d</text>
</a>
</g>
</g>
<!-- dir_eefbefe1f745fd4774bae5e906d3ee93 -->
<g id="node6" class="node"><title>dir_eefbefe1f745fd4774bae5e906d3ee93</title>
<g id="a_node6"><a xlink:href="dir_eefbefe1f745fd4774bae5e906d3ee93.html" target="_top" xlink:title="d4f">
<polygon fill="white" stroke="black" points="438,-60 384,-60 384,-24 438,-24 438,-60"/>
<text text-anchor="middle" x="411" y="-39.5" font-family="Helvetica,sans-Serif" font-size="10.00">d4f</text>
</a>
</g>
</g>
<!-- dir_2d87d973ff8f12679815a16b3c043561 -->
<g id="node7" class="node"><title>dir_2d87d973ff8f12679815a16b3c043561</title>
<g id="a_node7"><a xlink:href="dir_2d87d973ff8f12679815a16b3c043561.html" target="_top" xlink:title="d75">
<polygon fill="white" stroke="black" points="366,-60 312,-60 312,-24 366,-24 366,-60"/>
<text text-anchor="middle" x="339" y="-39.5" font-family="Helvetica,sans-Serif" font-size="10.00">d75</text>
</a>
</g>
</g>
<!-- dir_6a0f66770043046bf0315da06344f8a7 -->
<g id="node8" class="node"><title>dir_6a0f66770043046bf0315da06344f8a7</title>
<g id="a_node8"><a xlink:href="dir_6a0f66770043046bf0315da06344f8a7.html" target="_top" xlink:title="d77">
<polygon fill="white" stroke="black" points="294,-60 240,-60 240,-24 294,-24 294,-60"/>
<text text-anchor="middle" x="267" y="-39.5" font-family="Helvetica,sans-Serif" font-size="10.00">d77</text>
</a>
</g>
</g>
<!-- dir_a7c96f7a394b37b5a9d6079516d6c119 -->
<g id="node9" class="node"><title>dir_a7c96f7a394b37b5a9d6079516d6c119</title>
<g id="a_node9"><a xlink:href="dir_a7c96f7a394b37b5a9d6079516d6c119.html" target="_top" xlink:title="d90">
<polygon fill="white" stroke="black" points="222,-60 168,-60 168,-24 222,-24 222,-60"/>
<text text-anchor="middle" x="195" y="-39.5" font-family="Helvetica,sans-Serif" font-size="10.00">d90</text>
</a>
</g>
</g>
<!-- dir_e58853c1b530c8482bde4eb15d774102 -->
<g id="node10" class="node"><title>dir_e58853c1b530c8482bde4eb15d774102</title>
<g id="a_node10"><a xlink:href="dir_e58853c1b530c8482bde4eb15d774102.html" target="_top" xlink:title="d95">
<polygon fill="white" stroke="black" points="150,-60 96,-60 96,-24 150,-24 150,-60"/>
<text text-anchor="middle" x="123" y="-39.5" font-family="Helvetica,sans-Serif" font-size="10.00">d95</text>
</a>
</g>
</g>
<!-- dir_48841d24874f4a7de044e9d0e6e91a2a -->
<g id="node11" class="node"><title>dir_48841d24874f4a7de044e9d0e6e91a2a</title>
<g id="a_node11"><a xlink:href="dir_48841d24874f4a7de044e9d0e6e91a2a.html" target="_top" xlink:title="daf">
<polygon fill="white" stroke="black" points="78,-60 24,-60 24,-24 78,-24 78,-60"/>
<text text-anchor="middle" x="51" y="-39.5" font-family="Helvetica,sans-Serif" font-size="10.00">daf</text>
</a>
</g>
</g>
</g>
</svg>
