<?xml version="1.0" encoding="UTF-8" standalone="no"?>
<!DOCTYPE svg PUBLIC "-//W3C//DTD SVG 1.1//EN"
 "http://www.w3.org/Graphics/SVG/1.1/DTD/svg11.dtd">
<!-- Generated by graphviz version 2.34.0 (20130907.0111)
 -->
<!-- Title: D:/Projets/Final&#45;Bomber/Site web/d0 Pages: 1 -->
<svg width="758pt" height="111pt"
 viewBox="0.00 0.00 758.00 111.00" xmlns="http://www.w3.org/2000/svg" xmlns:xlink="http://www.w3.org/1999/xlink">
<g id="graph0" class="graph" transform="scale(1 1) rotate(0) translate(4 107)">
<title>D:/Projets/Final&#45;Bomber/Site web/d0</title>
<polygon fill="white" stroke="white" points="-4,4 -4,-107 754,-107 754,4 -4,4"/>
<g id="clust1" class="cluster"><title>clusterdir_f1660b4b119ee78966fd57f74fde339b</title>
<g id="a_clust1"><a xlink:href="dir_f1660b4b119ee78966fd57f74fde339b.html" target="_top" xlink:title="Site web">
<polygon fill="#ddddee" stroke="black" points="8,-8 8,-95 742,-95 742,-8 8,-8"/>
<text text-anchor="middle" x="375" y="-83" font-family="Helvetica,sans-Serif" font-size="10.00">Site web</text>
</a>
</g>
</g>
<g id="clust2" class="cluster"><title>clusterdir_33295a601de40707f286121d6f57feb1</title>
<g id="a_clust2"><a xlink:href="dir_33295a601de40707f286121d6f57feb1.html" target="_top">
<polygon fill="#eeeeff" stroke="black" points="16,-16 16,-68 734,-68 734,-16 16,-16"/>
</a>
</g>
</g>
<!-- dir_33295a601de40707f286121d6f57feb1 -->
<g id="node1" class="node"><title>dir_33295a601de40707f286121d6f57feb1</title>
<text text-anchor="middle" x="699" y="-39.5" font-family="Helvetica,sans-Serif" font-size="10.00">d0</text>
</g>
<!-- dir_2c1eb3e431be789ae785ca751a5834b3 -->
<g id="node2" class="node"><title>dir_2c1eb3e431be789ae785ca751a5834b3</title>
<g id="a_node2"><a xlink:href="dir_2c1eb3e431be789ae785ca751a5834b3.html" target="_top" xlink:title="d06">
<polygon fill="white" stroke="black" points="654,-60 600,-60 600,-24 654,-24 654,-60"/>
<text text-anchor="middle" x="627" y="-39.5" font-family="Helvetica,sans-Serif" font-size="10.00">d06</text>
</a>
</g>
</g>
<!-- dir_8d603fe54fb40e9b68d54efd7434cfea -->
<g id="node3" class="node"><title>dir_8d603fe54fb40e9b68d54efd7434cfea</title>
<g id="a_node3"><a xlink:href="dir_8d603fe54fb40e9b68d54efd7434cfea.html" target="_top" xlink:title="d17">
<polygon fill="white" stroke="black" points="582,-60 528,-60 528,-24 582,-24 582,-60"/>
<text text-anchor="middle" x="555" y="-39.5" font-family="Helvetica,sans-Serif" font-size="10.00">d17</text>
</a>
</g>
</g>
<!-- dir_fceb19be5c9b48e6e36c298acda7c668 -->
<g id="node4" class="node"><title>dir_fceb19be5c9b48e6e36c298acda7c668</title>
<g id="a_node4"><a xlink:href="dir_fceb19be5c9b48e6e36c298acda7c668.html" target="_top" xlink:title="d5f">
<polygon fill="white" stroke="black" points="510,-60 456,-60 456,-24 510,-24 510,-60"/>
<text text-anchor="middle" x="483" y="-39.5" font-family="Helvetica,sans-Serif" font-size="10.00">d5f</text>
</a>
</g>
</g>
<!-- dir_4ff9c189275861eba419875671349703 -->
<g id="node5" class="node"><title>dir_4ff9c189275861eba419875671349703</title>
<g id="a_node5"><a xlink:href="dir_4ff9c189275861eba419875671349703.html" target="_top" xlink:title="d65">
<polygon fill="white" stroke="black" points="438,-60 384,-60 384,-24 438,-24 438,-60"/>
<text text-anchor="middle" x="411" y="-39.5" font-family="Helvetica,sans-Serif" font-size="10.00">d65</text>
</a>
</g>
</g>
<!-- dir_6cf70e0318056fbe2078c2a9a4e2691f -->
<g id="node6" class="node"><title>dir_6cf70e0318056fbe2078c2a9a4e2691f</title>
<g id="a_node6"><a xlink:href="dir_6cf70e0318056fbe2078c2a9a4e2691f.html" target="_top" xlink:title="d88">
<polygon fill="white" stroke="black" points="366,-60 312,-60 312,-24 366,-24 366,-60"/>
<text text-anchor="middle" x="339" y="-39.5" font-family="Helvetica,sans-Serif" font-size="10.00">d88</text>
</a>
</g>
</g>
<!-- dir_f75f691f23fded792dda15f1a5c544f9 -->
<g id="node7" class="node"><title>dir_f75f691f23fded792dda15f1a5c544f9</title>
<g id="a_node7"><a xlink:href="dir_f75f691f23fded792dda15f1a5c544f9.html" target="_top" xlink:title="dab">
<polygon fill="white" stroke="black" points="294,-60 240,-60 240,-24 294,-24 294,-60"/>
<text text-anchor="middle" x="267" y="-39.5" font-family="Helvetica,sans-Serif" font-size="10.00">dab</text>
</a>
</g>
</g>
<!-- dir_07bbb6be5157085b7db2675c256501b7 -->
<g id="node8" class="node"><title>dir_07bbb6be5157085b7db2675c256501b7</title>
<g id="a_node8"><a xlink:href="dir_07bbb6be5157085b7db2675c256501b7.html" target="_top" xlink:title="dd4">
<polygon fill="white" stroke="black" points="222,-60 168,-60 168,-24 222,-24 222,-60"/>
<text text-anchor="middle" x="195" y="-39.5" font-family="Helvetica,sans-Serif" font-size="10.00">dd4</text>
</a>
</g>
</g>
<!-- dir_02e8b5a50ccfad2791787475042fd96b -->
<g id="node9" class="node"><title>dir_02e8b5a50ccfad2791787475042fd96b</title>
<g id="a_node9"><a xlink:href="dir_02e8b5a50ccfad2791787475042fd96b.html" target="_top" xlink:title="de0">
<polygon fill="white" stroke="black" points="150,-60 96,-60 96,-24 150,-24 150,-60"/>
<text text-anchor="middle" x="123" y="-39.5" font-family="Helvetica,sans-Serif" font-size="10.00">de0</text>
</a>
</g>
</g>
<!-- dir_1e6362d3fe0f9766dc57c1ee656d4e3a -->
<g id="node10" class="node"><title>dir_1e6362d3fe0f9766dc57c1ee656d4e3a</title>
<g id="a_node10"><a xlink:href="dir_1e6362d3fe0f9766dc57c1ee656d4e3a.html" target="_top" xlink:title="de2">
<polygon fill="white" stroke="black" points="78,-60 24,-60 24,-24 78,-24 78,-60"/>
<text text-anchor="middle" x="51" y="-39.5" font-family="Helvetica,sans-Serif" font-size="10.00">de2</text>
</a>
</g>
</g>
</g>
</svg>
