<?xml version="1.0" encoding="UTF-8" standalone="no"?>
<!DOCTYPE svg PUBLIC "-//W3C//DTD SVG 1.1//EN"
 "http://www.w3.org/Graphics/SVG/1.1/DTD/svg11.dtd">
<!-- Generated by graphviz version 2.34.0 (20130907.0111)
 -->
<!-- Title: D:/Projets/Final&#45;Bomber/Site web Pages: 1 -->
<!--zoomable 76 -->
<svg id="main" version="1.1" xmlns="http://www.w3.org/2000/svg" xmlns:xlink="http://www.w3.org/1999/xlink" xml:space="preserve" onload="init(evt)">
<style type="text/css"><![CDATA[
.edge:hover path { stroke: red; }
.edge:hover polygon { stroke: red; fill: red; }
]]></style>
<script type="text/javascript"><![CDATA[
var edges = document.getElementsByTagName('g');
if (edges && edges.length) {
  for (var i=0;i<edges.length;i++) {
    if (edges[i].id.substr(0,4)=='edge') {
      edges[i].setAttribute('class','edge');
    }
  }
}
]]></script>
        <defs>
                <circle id="rim" cx="0" cy="0" r="7"/>
                <circle id="rim2" cx="0" cy="0" r="3.5"/>
                <g id="zoomPlus">
                        <use xlink:href="#rim" fill="#404040">
                                <set attributeName="fill" to="#808080" begin="zoomplus.mouseover" end="zoomplus.mouseout"/>
                        </use>
                        <path d="M-4,0h8M0,-4v8" fill="none" stroke="white" stroke-width="1.5" pointer-events="none"/>
                </g>
                <g id="zoomMin">
                        <use xlink:href="#rim" fill="#404040">
                                <set attributeName="fill" to="#808080" begin="zoomminus.mouseover" end="zoomminus.mouseout"/>
                        </use>
                        <path d="M-4,0h8" fill="none" stroke="white" stroke-width="1.5" pointer-events="none"/>
                </g>
                <g id="dirArrow">
                        <path fill="none" stroke="white" stroke-width="1.5" d="M0,-3.0v7 M-2.5,-0.5L0,-3.0L2.5,-0.5"/>
                </g>
               <g id="resetDef">
                       <use xlink:href="#rim2" fill="#404040">
                               <set attributeName="fill" to="#808080" begin="reset.mouseover" end="reset.mouseout"/>
                       </use>
               </g>
        </defs>

<script type="text/javascript">
var viewWidth = 1318;
var viewHeight = 76;
var sectionId = 'dynsection-0';
</script>
<script xlink:href="svgpan.js"/>
<svg id="graph" class="graph">
<g id="viewport">
<title>D:/Projets/Final&#45;Bomber/Site web</title>
<polygon fill="white" stroke="white" points="-4,4 -4,-72 1314,-72 1314,4 -4,4"/>
<g id="clust1" class="cluster"><title>clusterdir_f1660b4b119ee78966fd57f74fde339b</title>
<g id="a_clust1"><a xlink:href="dir_f1660b4b119ee78966fd57f74fde339b.html" target="_top">
<polygon fill="#eeeeff" stroke="black" points="8,-8 8,-60 1302,-60 1302,-8 8,-8"/>
</a>
</g>
</g>
<!-- dir_f1660b4b119ee78966fd57f74fde339b -->
<g id="node1" class="node"><title>dir_f1660b4b119ee78966fd57f74fde339b</title>
<text text-anchor="middle" x="1267" y="-31.5" font-family="Helvetica,sans-Serif" font-size="10.00">Site web</text>
</g>
<!-- dir_33295a601de40707f286121d6f57feb1 -->
<g id="node2" class="node"><title>dir_33295a601de40707f286121d6f57feb1</title>
<g id="a_node2"><a xlink:href="dir_33295a601de40707f286121d6f57feb1.html" target="_top" xlink:title="d0">
<polygon fill="white" stroke="red" points="1222,-52 1168,-52 1168,-16 1222,-16 1222,-52"/>
<text text-anchor="middle" x="1195" y="-31.5" font-family="Helvetica,sans-Serif" font-size="10.00">d0</text>
</a>
</g>
</g>
<!-- dir_a94647505e255f51004bc4a3e79e2b74 -->
<g id="node3" class="node"><title>dir_a94647505e255f51004bc4a3e79e2b74</title>
<g id="a_node3"><a xlink:href="dir_a94647505e255f51004bc4a3e79e2b74.html" target="_top" xlink:title="d1">
<polygon fill="white" stroke="red" points="1150,-52 1096,-52 1096,-16 1150,-16 1150,-52"/>
<text text-anchor="middle" x="1123" y="-31.5" font-family="Helvetica,sans-Serif" font-size="10.00">d1</text>
</a>
</g>
</g>
<!-- dir_e0aa1f53e42e17396ca064fdf0eeb01d -->
<g id="node4" class="node"><title>dir_e0aa1f53e42e17396ca064fdf0eeb01d</title>
<g id="a_node4"><a xlink:href="dir_e0aa1f53e42e17396ca064fdf0eeb01d.html" target="_top" xlink:title="d2">
<polygon fill="white" stroke="red" points="1078,-52 1024,-52 1024,-16 1078,-16 1078,-52"/>
<text text-anchor="middle" x="1051" y="-31.5" font-family="Helvetica,sans-Serif" font-size="10.00">d2</text>
</a>
</g>
</g>
<!-- dir_8e112d2fcfd6eccfe50f26224250aaf2 -->
<g id="node5" class="node"><title>dir_8e112d2fcfd6eccfe50f26224250aaf2</title>
<g id="a_node5"><a xlink:href="dir_8e112d2fcfd6eccfe50f26224250aaf2.html" target="_top" xlink:title="d3">
<polygon fill="white" stroke="red" points="1006,-52 952,-52 952,-16 1006,-16 1006,-52"/>
<text text-anchor="middle" x="979" y="-31.5" font-family="Helvetica,sans-Serif" font-size="10.00">d3</text>
</a>
</g>
</g>
<!-- dir_20fcb128ebf6a8cf0d2ad8f488ba473c -->
<g id="node6" class="node"><title>dir_20fcb128ebf6a8cf0d2ad8f488ba473c</title>
<g id="a_node6"><a xlink:href="dir_20fcb128ebf6a8cf0d2ad8f488ba473c.html" target="_top" xlink:title="d4">
<polygon fill="white" stroke="red" points="934,-52 880,-52 880,-16 934,-16 934,-52"/>
<text text-anchor="middle" x="907" y="-31.5" font-family="Helvetica,sans-Serif" font-size="10.00">d4</text>
</a>
</g>
</g>
<!-- dir_9574eaac13861efce9a1c0d6934d06c2 -->
<g id="node7" class="node"><title>dir_9574eaac13861efce9a1c0d6934d06c2</title>
<g id="a_node7"><a xlink:href="dir_9574eaac13861efce9a1c0d6934d06c2.html" target="_top" xlink:title="d5">
<polygon fill="white" stroke="red" points="862,-52 808,-52 808,-16 862,-16 862,-52"/>
<text text-anchor="middle" x="835" y="-31.5" font-family="Helvetica,sans-Serif" font-size="10.00">d5</text>
</a>
</g>
</g>
<!-- dir_0d004442ea8d8d7a2ac848c229f5ec05 -->
<g id="node8" class="node"><title>dir_0d004442ea8d8d7a2ac848c229f5ec05</title>
<g id="a_node8"><a xlink:href="dir_0d004442ea8d8d7a2ac848c229f5ec05.html" target="_top" xlink:title="d6">
<polygon fill="white" stroke="red" points="790,-52 736,-52 736,-16 790,-16 790,-52"/>
<text text-anchor="middle" x="763" y="-31.5" font-family="Helvetica,sans-Serif" font-size="10.00">d6</text>
</a>
</g>
</g>
<!-- dir_ff018ebe86305d75bd6f23be5ff2ce76 -->
<g id="node9" class="node"><title>dir_ff018ebe86305d75bd6f23be5ff2ce76</title>
<g id="a_node9"><a xlink:href="dir_ff018ebe86305d75bd6f23be5ff2ce76.html" target="_top" xlink:title="d7">
<polygon fill="white" stroke="red" points="718,-52 664,-52 664,-16 718,-16 718,-52"/>
<text text-anchor="middle" x="691" y="-31.5" font-family="Helvetica,sans-Serif" font-size="10.00">d7</text>
</a>
</g>
</g>
<!-- dir_08121763782c1ad8755a637b222b243d -->
<g id="node10" class="node"><title>dir_08121763782c1ad8755a637b222b243d</title>
<g id="a_node10"><a xlink:href="dir_08121763782c1ad8755a637b222b243d.html" target="_top" xlink:title="d8">
<polygon fill="white" stroke="red" points="646,-52 592,-52 592,-16 646,-16 646,-52"/>
<text text-anchor="middle" x="619" y="-31.5" font-family="Helvetica,sans-Serif" font-size="10.00">d8</text>
</a>
</g>
</g>
<!-- dir_f14f506b9db631b6ec31186253745795 -->
<g id="node11" class="node"><title>dir_f14f506b9db631b6ec31186253745795</title>
<g id="a_node11"><a xlink:href="dir_f14f506b9db631b6ec31186253745795.html" target="_top" xlink:title="d9">
<polygon fill="white" stroke="red" points="574,-52 520,-52 520,-16 574,-16 574,-52"/>
<text text-anchor="middle" x="547" y="-31.5" font-family="Helvetica,sans-Serif" font-size="10.00">d9</text>
</a>
</g>
</g>
<!-- dir_96d1f28221f968b37244f55741356e9f -->
<g id="node12" class="node"><title>dir_96d1f28221f968b37244f55741356e9f</title>
<g id="a_node12"><a xlink:href="dir_96d1f28221f968b37244f55741356e9f.html" target="_top" xlink:title="da">
<polygon fill="white" stroke="red" points="502,-52 448,-52 448,-16 502,-16 502,-52"/>
<text text-anchor="middle" x="475" y="-31.5" font-family="Helvetica,sans-Serif" font-size="10.00">da</text>
</a>
</g>
</g>
<!-- dir_0f35d8873c138570c3c35b936679acf7 -->
<g id="node13" class="node"><title>dir_0f35d8873c138570c3c35b936679acf7</title>
<g id="a_node13"><a xlink:href="dir_0f35d8873c138570c3c35b936679acf7.html" target="_top" xlink:title="db">
<polygon fill="white" stroke="red" points="430,-52 376,-52 376,-16 430,-16 430,-52"/>
<text text-anchor="middle" x="403" y="-31.5" font-family="Helvetica,sans-Serif" font-size="10.00">db</text>
</a>
</g>
</g>
<!-- dir_f14e5aea49ba3936ae200aba87b1d9be -->
<g id="node14" class="node"><title>dir_f14e5aea49ba3936ae200aba87b1d9be</title>
<g id="a_node14"><a xlink:href="dir_f14e5aea49ba3936ae200aba87b1d9be.html" target="_top" xlink:title="dc">
<polygon fill="white" stroke="red" points="358,-52 304,-52 304,-16 358,-16 358,-52"/>
<text text-anchor="middle" x="331" y="-31.5" font-family="Helvetica,sans-Serif" font-size="10.00">dc</text>
</a>
</g>
</g>
<!-- dir_acfc3bdd052b273cbec3e1492cc571a3 -->
<g id="node15" class="node"><title>dir_acfc3bdd052b273cbec3e1492cc571a3</title>
<g id="a_node15"><a xlink:href="dir_acfc3bdd052b273cbec3e1492cc571a3.html" target="_top" xlink:title="dd">
<polygon fill="white" stroke="red" points="286,-52 232,-52 232,-16 286,-16 286,-52"/>
<text text-anchor="middle" x="259" y="-31.5" font-family="Helvetica,sans-Serif" font-size="10.00">dd</text>
</a>
</g>
</g>
<!-- dir_9f98d40b225a0aaa9a50f08af441448f -->
<g id="node16" class="node"><title>dir_9f98d40b225a0aaa9a50f08af441448f</title>
<g id="a_node16"><a xlink:href="dir_9f98d40b225a0aaa9a50f08af441448f.html" target="_top" xlink:title="de">
<polygon fill="white" stroke="red" points="214,-52 160,-52 160,-16 214,-16 214,-52"/>
<text text-anchor="middle" x="187" y="-31.5" font-family="Helvetica,sans-Serif" font-size="10.00">de</text>
</a>
</g>
</g>
<!-- dir_ce489fe0ee017e8e80ec29fe5ca797f8 -->
<g id="node17" class="node"><title>dir_ce489fe0ee017e8e80ec29fe5ca797f8</title>
<g id="a_node17"><a xlink:href="dir_ce489fe0ee017e8e80ec29fe5ca797f8.html" target="_top" xlink:title="df">
<polygon fill="white" stroke="red" points="142,-52 88,-52 88,-16 142,-16 142,-52"/>
<text text-anchor="middle" x="115" y="-31.5" font-family="Helvetica,sans-Serif" font-size="10.00">df</text>
</a>
</g>
</g>
<!-- dir_130c3886df228edd044889e5605cff3d -->
<g id="node18" class="node"><title>dir_130c3886df228edd044889e5605cff3d</title>
<g id="a_node18"><a xlink:href="dir_130c3886df228edd044889e5605cff3d.html" target="_top" xlink:title="search">
<polygon fill="white" stroke="black" points="70,-52 16,-52 16,-16 70,-16 70,-52"/>
<text text-anchor="middle" x="43" y="-31.5" font-family="Helvetica,sans-Serif" font-size="10.00">search</text>
</a>
</g>
</g>
</g>
</svg>
        <g id="navigator" transform="translate(0 0)" fill="#404254">
                <rect fill="#f2f5e9" fill-opacity="0.5" stroke="#606060" stroke-width=".5" x="0" y="0" width="60" height="60"/>
                <use id="zoomplus" xlink:href="#zoomPlus" x="17" y="9" onmousedown="handleZoom(evt,'in')"/>
                <use id="zoomminus" xlink:href="#zoomMin" x="42" y="9" onmousedown="handleZoom(evt,'out')"/>
                <use id="reset" xlink:href="#resetDef" x="30" y="36" onmousedown="handleReset()"/>
                <g id="arrowUp" xlink:href="#dirArrow" transform="translate(30 24)" onmousedown="handlePan(0,-1)">
                  <use xlink:href="#rim" fill="#404040">
                        <set attributeName="fill" to="#808080" begin="arrowUp.mouseover" end="arrowUp.mouseout"/>
                  </use>
                  <path fill="none" stroke="white" stroke-width="1.5" d="M0,-3.0v7 M-2.5,-0.5L0,-3.0L2.5,-0.5"/>
                </g>
                <g id="arrowRight" xlink:href="#dirArrow" transform="rotate(90) translate(36 -43)" onmousedown="handlePan(1,0)">
                  <use xlink:href="#rim" fill="#404040">
                        <set attributeName="fill" to="#808080" begin="arrowRight.mouseover" end="arrowRight.mouseout"/>
                  </use>
                  <path fill="none" stroke="white" stroke-width="1.5" d="M0,-3.0v7 M-2.5,-0.5L0,-3.0L2.5,-0.5"/>
                </g>
                <g id="arrowDown" xlink:href="#dirArrow" transform="rotate(180) translate(-30 -48)" onmousedown="handlePan(0,1)">
                  <use xlink:href="#rim" fill="#404040">
                        <set attributeName="fill" to="#808080" begin="arrowDown.mouseover" end="arrowDown.mouseout"/>
                  </use>
                  <path fill="none" stroke="white" stroke-width="1.5" d="M0,-3.0v7 M-2.5,-0.5L0,-3.0L2.5,-0.5"/>
                </g>
                <g id="arrowLeft" xlink:href="#dirArrow" transform="rotate(270) translate(-36 17)" onmousedown="handlePan(-1,0)">
                  <use xlink:href="#rim" fill="#404040">
                        <set attributeName="fill" to="#808080" begin="arrowLeft.mouseover" end="arrowLeft.mouseout"/>
                  </use>
                  <path fill="none" stroke="white" stroke-width="1.5" d="M0,-3.0v7 M-2.5,-0.5L0,-3.0L2.5,-0.5"/>
                </g>
        </g>
        <svg viewBox="0 0 15 15" width="100%" height="30px" preserveAspectRatio="xMaxYMin meet">
         <g id="arrow_out" transform="scale(0.3 0.3)">
          <a xlink:href="dir_f1660b4b119ee78966fd57f74fde339b_dep_org.svg" target="_base">
           <rect id="button" ry="5" rx="5" y="6" x="6" height="38" width="38"
                fill="#f2f5e9" fill-opacity="0.5" stroke="#606060" stroke-width="1.0"/>
           <path id="arrow"
             d="M 11.500037,31.436501 C 11.940474,20.09759 22.043105,11.32322 32.158766,21.979434 L 37.068811,17.246167 C 37.068811,17.246167 37.088388,32 37.088388,32 L 22.160133,31.978069 C 22.160133,31.978069 26.997745,27.140456 26.997745,27.140456 C 18.528582,18.264221 13.291696,25.230495 11.500037,31.436501 z"
             style="fill:#404040;"/>
          </a>
         </g>
        </svg>
</svg>
