<?xml version="1.0" encoding="UTF-8" standalone="no"?>
<!DOCTYPE svg PUBLIC "-//W3C//DTD SVG 1.1//EN"
 "http://www.w3.org/Graphics/SVG/1.1/DTD/svg11.dtd">
<!-- Generated by graphviz version 2.34.0 (20130907.0111)
 -->
<!-- Title: D:/Projets/Final&#45;Bomber/Final&#45;Bomber/5 &#45; Launcher/obj Pages: 1 -->
<svg width="254pt" height="111pt"
 viewBox="0.00 0.00 254.00 111.00" xmlns="http://www.w3.org/2000/svg" xmlns:xlink="http://www.w3.org/1999/xlink">
<g id="graph0" class="graph" transform="scale(1 1) rotate(0) translate(4 107)">
<title>D:/Projets/Final&#45;Bomber/Final&#45;Bomber/5 &#45; Launcher/obj</title>
<polygon fill="white" stroke="white" points="-4,4 -4,-107 250,-107 250,4 -4,4"/>
<g id="clust1" class="cluster"><title>clusterdir_7a34e621e3d403227999005e584ecb37</title>
<g id="a_clust1"><a xlink:href="dir_7a34e621e3d403227999005e584ecb37.html" target="_top" xlink:title="5 &#45; Launcher">
<polygon fill="#ddddee" stroke="black" points="8,-8 8,-95 238,-95 238,-8 8,-8"/>
<text text-anchor="middle" x="123" y="-83" font-family="Helvetica,sans-Serif" font-size="10.00">5 &#45; Launcher</text>
</a>
</g>
</g>
<g id="clust2" class="cluster"><title>clusterdir_031370e00e00855dafe7115b38af4612</title>
<g id="a_clust2"><a xlink:href="dir_031370e00e00855dafe7115b38af4612.html" target="_top">
<polygon fill="#eeeeff" stroke="black" points="16,-16 16,-68 230,-68 230,-16 16,-16"/>
</a>
</g>
</g>
<!-- dir_031370e00e00855dafe7115b38af4612 -->
<g id="node1" class="node"><title>dir_031370e00e00855dafe7115b38af4612</title>
<text text-anchor="middle" x="195" y="-39.5" font-family="Helvetica,sans-Serif" font-size="10.00">obj</text>
</g>
<!-- dir_d5e623b1e746d262c24cafbee88352c0 -->
<g id="node2" class="node"><title>dir_d5e623b1e746d262c24cafbee88352c0</title>
<g id="a_node2"><a xlink:href="dir_d5e623b1e746d262c24cafbee88352c0.html" target="_top" xlink:title="Debug">
<polygon fill="white" stroke="black" points="150,-60 96,-60 96,-24 150,-24 150,-60"/>
<text text-anchor="middle" x="123" y="-39.5" font-family="Helvetica,sans-Serif" font-size="10.00">Debug</text>
</a>
</g>
</g>
<!-- dir_6e68421e8fbc53cb59aa73f02f71a3fc -->
<g id="node3" class="node"><title>dir_6e68421e8fbc53cb59aa73f02f71a3fc</title>
<g id="a_node3"><a xlink:href="dir_6e68421e8fbc53cb59aa73f02f71a3fc.html" target="_top" xlink:title="Release">
<polygon fill="white" stroke="black" points="78,-60 24,-60 24,-24 78,-24 78,-60"/>
<text text-anchor="middle" x="51" y="-39.5" font-family="Helvetica,sans-Serif" font-size="10.00">Release</text>
</a>
</g>
</g>
</g>
</svg>
