<?xml version="1.0" encoding="UTF-8" standalone="no"?>
<!DOCTYPE svg PUBLIC "-//W3C//DTD SVG 1.1//EN"
 "http://www.w3.org/Graphics/SVG/1.1/DTD/svg11.dtd">
<!-- Generated by graphviz version 2.34.0 (20130907.0111)
 -->
<!-- Title: D:/Projets/Final&#45;Bomber/Site web/de Pages: 1 -->
<svg width="830pt" height="111pt"
 viewBox="0.00 0.00 830.00 111.00" xmlns="http://www.w3.org/2000/svg" xmlns:xlink="http://www.w3.org/1999/xlink">
<g id="graph0" class="graph" transform="scale(1 1) rotate(0) translate(4 107)">
<title>D:/Projets/Final&#45;Bomber/Site web/de</title>
<polygon fill="white" stroke="white" points="-4,4 -4,-107 826,-107 826,4 -4,4"/>
<g id="clust1" class="cluster"><title>clusterdir_f1660b4b119ee78966fd57f74fde339b</title>
<g id="a_clust1"><a xlink:href="dir_f1660b4b119ee78966fd57f74fde339b.html" target="_top" xlink:title="Site web">
<polygon fill="#ddddee" stroke="black" points="8,-8 8,-95 814,-95 814,-8 8,-8"/>
<text text-anchor="middle" x="411" y="-83" font-family="Helvetica,sans-Serif" font-size="10.00">Site web</text>
</a>
</g>
</g>
<g id="clust2" class="cluster"><title>clusterdir_9f98d40b225a0aaa9a50f08af441448f</title>
<g id="a_clust2"><a xlink:href="dir_9f98d40b225a0aaa9a50f08af441448f.html" target="_top">
<polygon fill="#eeeeff" stroke="black" points="16,-16 16,-68 806,-68 806,-16 16,-16"/>
</a>
</g>
</g>
<!-- dir_9f98d40b225a0aaa9a50f08af441448f -->
<g id="node1" class="node"><title>dir_9f98d40b225a0aaa9a50f08af441448f</title>
<text text-anchor="middle" x="771" y="-39.5" font-family="Helvetica,sans-Serif" font-size="10.00">de</text>
</g>
<!-- dir_12af729354038dcc881e5354ae096e60 -->
<g id="node2" class="node"><title>dir_12af729354038dcc881e5354ae096e60</title>
<g id="a_node2"><a xlink:href="dir_12af729354038dcc881e5354ae096e60.html" target="_top" xlink:title="d1e">
<polygon fill="white" stroke="black" points="726,-60 672,-60 672,-24 726,-24 726,-60"/>
<text text-anchor="middle" x="699" y="-39.5" font-family="Helvetica,sans-Serif" font-size="10.00">d1e</text>
</a>
</g>
</g>
<!-- dir_179d207cdbeee3446f649098c1ea806a -->
<g id="node3" class="node"><title>dir_179d207cdbeee3446f649098c1ea806a</title>
<g id="a_node3"><a xlink:href="dir_179d207cdbeee3446f649098c1ea806a.html" target="_top" xlink:title="d23">
<polygon fill="white" stroke="black" points="654,-60 600,-60 600,-24 654,-24 654,-60"/>
<text text-anchor="middle" x="627" y="-39.5" font-family="Helvetica,sans-Serif" font-size="10.00">d23</text>
</a>
</g>
</g>
<!-- dir_c0bc4e24f43651332d4b98d062e1d51d -->
<g id="node4" class="node"><title>dir_c0bc4e24f43651332d4b98d062e1d51d</title>
<g id="a_node4"><a xlink:href="dir_c0bc4e24f43651332d4b98d062e1d51d.html" target="_top" xlink:title="d38">
<polygon fill="white" stroke="black" points="582,-60 528,-60 528,-24 582,-24 582,-60"/>
<text text-anchor="middle" x="555" y="-39.5" font-family="Helvetica,sans-Serif" font-size="10.00">d38</text>
</a>
</g>
</g>
<!-- dir_ae27cb31f04cd334b62b63d408486cfa -->
<g id="node5" class="node"><title>dir_ae27cb31f04cd334b62b63d408486cfa</title>
<g id="a_node5"><a xlink:href="dir_ae27cb31f04cd334b62b63d408486cfa.html" target="_top" xlink:title="d4e">
<polygon fill="white" stroke="black" points="510,-60 456,-60 456,-24 510,-24 510,-60"/>
<text text-anchor="middle" x="483" y="-39.5" font-family="Helvetica,sans-Serif" font-size="10.00">d4e</text>
</a>
</g>
</g>
<!-- dir_31508d440622acaaeb20fe97e102e9f5 -->
<g id="node6" class="node"><title>dir_31508d440622acaaeb20fe97e102e9f5</title>
<g id="a_node6"><a xlink:href="dir_31508d440622acaaeb20fe97e102e9f5.html" target="_top" xlink:title="d5e">
<polygon fill="white" stroke="black" points="438,-60 384,-60 384,-24 438,-24 438,-60"/>
<text text-anchor="middle" x="411" y="-39.5" font-family="Helvetica,sans-Serif" font-size="10.00">d5e</text>
</a>
</g>
</g>
<!-- dir_29ab45f134feb61a4ba25019d5e0aa7b -->
<g id="node7" class="node"><title>dir_29ab45f134feb61a4ba25019d5e0aa7b</title>
<g id="a_node7"><a xlink:href="dir_29ab45f134feb61a4ba25019d5e0aa7b.html" target="_top" xlink:title="d63">
<polygon fill="white" stroke="black" points="366,-60 312,-60 312,-24 366,-24 366,-60"/>
<text text-anchor="middle" x="339" y="-39.5" font-family="Helvetica,sans-Serif" font-size="10.00">d63</text>
</a>
</g>
</g>
<!-- dir_2c496e8d12dc489fb9fe4a4063419e1b -->
<g id="node8" class="node"><title>dir_2c496e8d12dc489fb9fe4a4063419e1b</title>
<g id="a_node8"><a xlink:href="dir_2c496e8d12dc489fb9fe4a4063419e1b.html" target="_top" xlink:title="d64">
<polygon fill="white" stroke="black" points="294,-60 240,-60 240,-24 294,-24 294,-60"/>
<text text-anchor="middle" x="267" y="-39.5" font-family="Helvetica,sans-Serif" font-size="10.00">d64</text>
</a>
</g>
</g>
<!-- dir_5374ddaf491b88e73c847ae48fcb734e -->
<g id="node9" class="node"><title>dir_5374ddaf491b88e73c847ae48fcb734e</title>
<g id="a_node9"><a xlink:href="dir_5374ddaf491b88e73c847ae48fcb734e.html" target="_top" xlink:title="d8b">
<polygon fill="white" stroke="black" points="222,-60 168,-60 168,-24 222,-24 222,-60"/>
<text text-anchor="middle" x="195" y="-39.5" font-family="Helvetica,sans-Serif" font-size="10.00">d8b</text>
</a>
</g>
</g>
<!-- dir_e4866d115eba0fed086a8d35b6464ad0 -->
<g id="node10" class="node"><title>dir_e4866d115eba0fed086a8d35b6464ad0</title>
<g id="a_node10"><a xlink:href="dir_e4866d115eba0fed086a8d35b6464ad0.html" target="_top" xlink:title="d96">
<polygon fill="white" stroke="black" points="150,-60 96,-60 96,-24 150,-24 150,-60"/>
<text text-anchor="middle" x="123" y="-39.5" font-family="Helvetica,sans-Serif" font-size="10.00">d96</text>
</a>
</g>
</g>
<!-- dir_d8aaf6822d4398138ef81e2532f76b51 -->
<g id="node11" class="node"><title>dir_d8aaf6822d4398138ef81e2532f76b51</title>
<g id="a_node11"><a xlink:href="dir_d8aaf6822d4398138ef81e2532f76b51.html" target="_top" xlink:title="db9">
<polygon fill="white" stroke="black" points="78,-60 24,-60 24,-24 78,-24 78,-60"/>
<text text-anchor="middle" x="51" y="-39.5" font-family="Helvetica,sans-Serif" font-size="10.00">db9</text>
</a>
</g>
</g>
</g>
</svg>
