<?xml version="1.0" encoding="UTF-8" standalone="no"?>
<!DOCTYPE svg PUBLIC "-//W3C//DTD SVG 1.1//EN"
 "http://www.w3.org/Graphics/SVG/1.1/DTD/svg11.dtd">
<!-- Generated by graphviz version 2.34.0 (20130907.0111)
 -->
<!-- Title: D:/Projets/Final&#45;Bomber/Site web/d5 Pages: 1 -->
<svg width="1118pt" height="111pt"
 viewBox="0.00 0.00 1118.00 111.00" xmlns="http://www.w3.org/2000/svg" xmlns:xlink="http://www.w3.org/1999/xlink">
<g id="graph0" class="graph" transform="scale(1 1) rotate(0) translate(4 107)">
<title>D:/Projets/Final&#45;Bomber/Site web/d5</title>
<polygon fill="white" stroke="white" points="-4,4 -4,-107 1114,-107 1114,4 -4,4"/>
<g id="clust1" class="cluster"><title>clusterdir_f1660b4b119ee78966fd57f74fde339b</title>
<g id="a_clust1"><a xlink:href="dir_f1660b4b119ee78966fd57f74fde339b.html" target="_top" xlink:title="Site web">
<polygon fill="#ddddee" stroke="black" points="8,-8 8,-95 1102,-95 1102,-8 8,-8"/>
<text text-anchor="middle" x="555" y="-83" font-family="Helvetica,sans-Serif" font-size="10.00">Site web</text>
</a>
</g>
</g>
<g id="clust2" class="cluster"><title>clusterdir_9574eaac13861efce9a1c0d6934d06c2</title>
<g id="a_clust2"><a xlink:href="dir_9574eaac13861efce9a1c0d6934d06c2.html" target="_top">
<polygon fill="#eeeeff" stroke="black" points="16,-16 16,-68 1094,-68 1094,-16 16,-16"/>
</a>
</g>
</g>
<!-- dir_9574eaac13861efce9a1c0d6934d06c2 -->
<g id="node1" class="node"><title>dir_9574eaac13861efce9a1c0d6934d06c2</title>
<text text-anchor="middle" x="1059" y="-39.5" font-family="Helvetica,sans-Serif" font-size="10.00">d5</text>
</g>
<!-- dir_ca1ca5dbc4f627d432c5524db22f9591 -->
<g id="node2" class="node"><title>dir_ca1ca5dbc4f627d432c5524db22f9591</title>
<g id="a_node2"><a xlink:href="dir_ca1ca5dbc4f627d432c5524db22f9591.html" target="_top" xlink:title="d2c">
<polygon fill="white" stroke="black" points="1014,-60 960,-60 960,-24 1014,-24 1014,-60"/>
<text text-anchor="middle" x="987" y="-39.5" font-family="Helvetica,sans-Serif" font-size="10.00">d2c</text>
</a>
</g>
</g>
<!-- dir_c7a272f8e2e61aff408266e89a7e6bbb -->
<g id="node3" class="node"><title>dir_c7a272f8e2e61aff408266e89a7e6bbb</title>
<g id="a_node3"><a xlink:href="dir_c7a272f8e2e61aff408266e89a7e6bbb.html" target="_top" xlink:title="d2d">
<polygon fill="white" stroke="black" points="942,-60 888,-60 888,-24 942,-24 942,-60"/>
<text text-anchor="middle" x="915" y="-39.5" font-family="Helvetica,sans-Serif" font-size="10.00">d2d</text>
</a>
</g>
</g>
<!-- dir_8c5ffda29bd0837480f9cdf805e99430 -->
<g id="node4" class="node"><title>dir_8c5ffda29bd0837480f9cdf805e99430</title>
<g id="a_node4"><a xlink:href="dir_8c5ffda29bd0837480f9cdf805e99430.html" target="_top" xlink:title="d47">
<polygon fill="white" stroke="black" points="870,-60 816,-60 816,-24 870,-24 870,-60"/>
<text text-anchor="middle" x="843" y="-39.5" font-family="Helvetica,sans-Serif" font-size="10.00">d47</text>
</a>
</g>
</g>
<!-- dir_98c510d5b5f9625b13d59d4944522439 -->
<g id="node5" class="node"><title>dir_98c510d5b5f9625b13d59d4944522439</title>
<g id="a_node5"><a xlink:href="dir_98c510d5b5f9625b13d59d4944522439.html" target="_top" xlink:title="d6b">
<polygon fill="white" stroke="black" points="798,-60 744,-60 744,-24 798,-24 798,-60"/>
<text text-anchor="middle" x="771" y="-39.5" font-family="Helvetica,sans-Serif" font-size="10.00">d6b</text>
</a>
</g>
</g>
<!-- dir_bdf76b423b4737186c3a5b5d51a0b2f8 -->
<g id="node6" class="node"><title>dir_bdf76b423b4737186c3a5b5d51a0b2f8</title>
<g id="a_node6"><a xlink:href="dir_bdf76b423b4737186c3a5b5d51a0b2f8.html" target="_top" xlink:title="d78">
<polygon fill="white" stroke="black" points="726,-60 672,-60 672,-24 726,-24 726,-60"/>
<text text-anchor="middle" x="699" y="-39.5" font-family="Helvetica,sans-Serif" font-size="10.00">d78</text>
</a>
</g>
</g>
<!-- dir_09e07839fc8a67bb8d120fd187fdce6b -->
<g id="node7" class="node"><title>dir_09e07839fc8a67bb8d120fd187fdce6b</title>
<g id="a_node7"><a xlink:href="dir_09e07839fc8a67bb8d120fd187fdce6b.html" target="_top" xlink:title="d7c">
<polygon fill="white" stroke="black" points="654,-60 600,-60 600,-24 654,-24 654,-60"/>
<text text-anchor="middle" x="627" y="-39.5" font-family="Helvetica,sans-Serif" font-size="10.00">d7c</text>
</a>
</g>
</g>
<!-- dir_4b0d6a3f809448718a8a73f127d98d50 -->
<g id="node8" class="node"><title>dir_4b0d6a3f809448718a8a73f127d98d50</title>
<g id="a_node8"><a xlink:href="dir_4b0d6a3f809448718a8a73f127d98d50.html" target="_top" xlink:title="d7f">
<polygon fill="white" stroke="black" points="582,-60 528,-60 528,-24 582,-24 582,-60"/>
<text text-anchor="middle" x="555" y="-39.5" font-family="Helvetica,sans-Serif" font-size="10.00">d7f</text>
</a>
</g>
</g>
<!-- dir_f1cc618a0f54a7d7992e5fe5416c6f32 -->
<g id="node9" class="node"><title>dir_f1cc618a0f54a7d7992e5fe5416c6f32</title>
<g id="a_node9"><a xlink:href="dir_f1cc618a0f54a7d7992e5fe5416c6f32.html" target="_top" xlink:title="d87">
<polygon fill="white" stroke="black" points="510,-60 456,-60 456,-24 510,-24 510,-60"/>
<text text-anchor="middle" x="483" y="-39.5" font-family="Helvetica,sans-Serif" font-size="10.00">d87</text>
</a>
</g>
</g>
<!-- dir_6b9839732f74c10266eb930cc4a99fa0 -->
<g id="node10" class="node"><title>dir_6b9839732f74c10266eb930cc4a99fa0</title>
<g id="a_node10"><a xlink:href="dir_6b9839732f74c10266eb930cc4a99fa0.html" target="_top" xlink:title="dad">
<polygon fill="white" stroke="black" points="438,-60 384,-60 384,-24 438,-24 438,-60"/>
<text text-anchor="middle" x="411" y="-39.5" font-family="Helvetica,sans-Serif" font-size="10.00">dad</text>
</a>
</g>
</g>
<!-- dir_38af786bef884e5dd31cebafc6630b67 -->
<g id="node11" class="node"><title>dir_38af786bef884e5dd31cebafc6630b67</title>
<g id="a_node11"><a xlink:href="dir_38af786bef884e5dd31cebafc6630b67.html" target="_top" xlink:title="daf">
<polygon fill="white" stroke="black" points="366,-60 312,-60 312,-24 366,-24 366,-60"/>
<text text-anchor="middle" x="339" y="-39.5" font-family="Helvetica,sans-Serif" font-size="10.00">daf</text>
</a>
</g>
</g>
<!-- dir_3f2639ead01247ea271a333a2bea245c -->
<g id="node12" class="node"><title>dir_3f2639ead01247ea271a333a2bea245c</title>
<g id="a_node12"><a xlink:href="dir_3f2639ead01247ea271a333a2bea245c.html" target="_top" xlink:title="dc3">
<polygon fill="white" stroke="black" points="294,-60 240,-60 240,-24 294,-24 294,-60"/>
<text text-anchor="middle" x="267" y="-39.5" font-family="Helvetica,sans-Serif" font-size="10.00">dc3</text>
</a>
</g>
</g>
<!-- dir_035aeecd65fbbc0e6a4c41e518bcbd89 -->
<g id="node13" class="node"><title>dir_035aeecd65fbbc0e6a4c41e518bcbd89</title>
<g id="a_node13"><a xlink:href="dir_035aeecd65fbbc0e6a4c41e518bcbd89.html" target="_top" xlink:title="dcd">
<polygon fill="white" stroke="black" points="222,-60 168,-60 168,-24 222,-24 222,-60"/>
<text text-anchor="middle" x="195" y="-39.5" font-family="Helvetica,sans-Serif" font-size="10.00">dcd</text>
</a>
</g>
</g>
<!-- dir_4dbeefd1500ac91f9db032dad2875300 -->
<g id="node14" class="node"><title>dir_4dbeefd1500ac91f9db032dad2875300</title>
<g id="a_node14"><a xlink:href="dir_4dbeefd1500ac91f9db032dad2875300.html" target="_top" xlink:title="dee">
<polygon fill="white" stroke="black" points="150,-60 96,-60 96,-24 150,-24 150,-60"/>
<text text-anchor="middle" x="123" y="-39.5" font-family="Helvetica,sans-Serif" font-size="10.00">dee</text>
</a>
</g>
</g>
<!-- dir_8513df7099145f2bb7b2adda8c67e8e2 -->
<g id="node15" class="node"><title>dir_8513df7099145f2bb7b2adda8c67e8e2</title>
<g id="a_node15"><a xlink:href="dir_8513df7099145f2bb7b2adda8c67e8e2.html" target="_top" xlink:title="def">
<polygon fill="white" stroke="black" points="78,-60 24,-60 24,-24 78,-24 78,-60"/>
<text text-anchor="middle" x="51" y="-39.5" font-family="Helvetica,sans-Serif" font-size="10.00">def</text>
</a>
</g>
</g>
</g>
</svg>
