<?xml version="1.0" encoding="UTF-8" standalone="no"?>
<!DOCTYPE svg PUBLIC "-//W3C//DTD SVG 1.1//EN"
 "http://www.w3.org/Graphics/SVG/1.1/DTD/svg11.dtd">
<!-- Generated by graphviz version 2.34.0 (20130907.0111)
 -->
<!-- Title: D:/Projets/Final&#45;Bomber/Site web/db Pages: 1 -->
<!--zoomable 111 -->
<svg id="main" version="1.1" xmlns="http://www.w3.org/2000/svg" xmlns:xlink="http://www.w3.org/1999/xlink" xml:space="preserve" onload="init(evt)">
<style type="text/css"><![CDATA[
.edge:hover path { stroke: red; }
.edge:hover polygon { stroke: red; fill: red; }
]]></style>
<script type="text/javascript"><![CDATA[
var edges = document.getElementsByTagName('g');
if (edges && edges.length) {
  for (var i=0;i<edges.length;i++) {
    if (edges[i].id.substr(0,4)=='edge') {
      edges[i].setAttribute('class','edge');
    }
  }
}
]]></script>
        <defs>
                <circle id="rim" cx="0" cy="0" r="7"/>
                <circle id="rim2" cx="0" cy="0" r="3.5"/>
                <g id="zoomPlus">
                        <use xlink:href="#rim" fill="#404040">
                                <set attributeName="fill" to="#808080" begin="zoomplus.mouseover" end="zoomplus.mouseout"/>
                        </use>
                        <path d="M-4,0h8M0,-4v8" fill="none" stroke="white" stroke-width="1.5" pointer-events="none"/>
                </g>
                <g id="zoomMin">
                        <use xlink:href="#rim" fill="#404040">
                                <set attributeName="fill" to="#808080" begin="zoomminus.mouseover" end="zoomminus.mouseout"/>
                        </use>
                        <path d="M-4,0h8" fill="none" stroke="white" stroke-width="1.5" pointer-events="none"/>
                </g>
                <g id="dirArrow">
                        <path fill="none" stroke="white" stroke-width="1.5" d="M0,-3.0v7 M-2.5,-0.5L0,-3.0L2.5,-0.5"/>
                </g>
               <g id="resetDef">
                       <use xlink:href="#rim2" fill="#404040">
                               <set attributeName="fill" to="#808080" begin="reset.mouseover" end="reset.mouseout"/>
                       </use>
               </g>
        </defs>

<script type="text/javascript">
var viewWidth = 1118;
var viewHeight = 111;
var sectionId = 'dynsection-0';
</script>
<script xlink:href="svgpan.js"/>
<svg id="graph" class="graph">
<g id="viewport">
<title>D:/Projets/Final&#45;Bomber/Site web/db</title>
<polygon fill="white" stroke="white" points="-4,4 -4,-107 1114,-107 1114,4 -4,4"/>
<g id="clust1" class="cluster"><title>clusterdir_f1660b4b119ee78966fd57f74fde339b</title>
<g id="a_clust1"><a xlink:href="dir_f1660b4b119ee78966fd57f74fde339b.html" target="_top" xlink:title="Site web">
<polygon fill="#ddddee" stroke="black" points="8,-8 8,-95 1102,-95 1102,-8 8,-8"/>
<text text-anchor="middle" x="555" y="-83" font-family="Helvetica,sans-Serif" font-size="10.00">Site web</text>
</a>
</g>
</g>
<g id="clust2" class="cluster"><title>clusterdir_0f35d8873c138570c3c35b936679acf7</title>
<g id="a_clust2"><a xlink:href="dir_0f35d8873c138570c3c35b936679acf7.html" target="_top">
<polygon fill="#eeeeff" stroke="black" points="16,-16 16,-68 1094,-68 1094,-16 16,-16"/>
</a>
</g>
</g>
<!-- dir_0f35d8873c138570c3c35b936679acf7 -->
<g id="node1" class="node"><title>dir_0f35d8873c138570c3c35b936679acf7</title>
<text text-anchor="middle" x="1059" y="-39.5" font-family="Helvetica,sans-Serif" font-size="10.00">db</text>
</g>
<!-- dir_34a98a9ec88f0e85138367018e719c72 -->
<g id="node2" class="node"><title>dir_34a98a9ec88f0e85138367018e719c72</title>
<g id="a_node2"><a xlink:href="dir_34a98a9ec88f0e85138367018e719c72.html" target="_top" xlink:title="d46">
<polygon fill="white" stroke="black" points="1014,-60 960,-60 960,-24 1014,-24 1014,-60"/>
<text text-anchor="middle" x="987" y="-39.5" font-family="Helvetica,sans-Serif" font-size="10.00">d46</text>
</a>
</g>
</g>
<!-- dir_b08c9469e4868c1e109618c1d69bfe32 -->
<g id="node3" class="node"><title>dir_b08c9469e4868c1e109618c1d69bfe32</title>
<g id="a_node3"><a xlink:href="dir_b08c9469e4868c1e109618c1d69bfe32.html" target="_top" xlink:title="d47">
<polygon fill="white" stroke="black" points="942,-60 888,-60 888,-24 942,-24 942,-60"/>
<text text-anchor="middle" x="915" y="-39.5" font-family="Helvetica,sans-Serif" font-size="10.00">d47</text>
</a>
</g>
</g>
<!-- dir_84074546f381a4fa0d0c33acb70a6fc3 -->
<g id="node4" class="node"><title>dir_84074546f381a4fa0d0c33acb70a6fc3</title>
<g id="a_node4"><a xlink:href="dir_84074546f381a4fa0d0c33acb70a6fc3.html" target="_top" xlink:title="d4b">
<polygon fill="white" stroke="black" points="870,-60 816,-60 816,-24 870,-24 870,-60"/>
<text text-anchor="middle" x="843" y="-39.5" font-family="Helvetica,sans-Serif" font-size="10.00">d4b</text>
</a>
</g>
</g>
<!-- dir_ef39e54727704f249b4a9c8e7d8b0c34 -->
<g id="node5" class="node"><title>dir_ef39e54727704f249b4a9c8e7d8b0c34</title>
<g id="a_node5"><a xlink:href="dir_ef39e54727704f249b4a9c8e7d8b0c34.html" target="_top" xlink:title="d4f">
<polygon fill="white" stroke="black" points="798,-60 744,-60 744,-24 798,-24 798,-60"/>
<text text-anchor="middle" x="771" y="-39.5" font-family="Helvetica,sans-Serif" font-size="10.00">d4f</text>
</a>
</g>
</g>
<!-- dir_aa22d5e389f4f02c04963916427c2268 -->
<g id="node6" class="node"><title>dir_aa22d5e389f4f02c04963916427c2268</title>
<g id="a_node6"><a xlink:href="dir_aa22d5e389f4f02c04963916427c2268.html" target="_top" xlink:title="d63">
<polygon fill="white" stroke="black" points="726,-60 672,-60 672,-24 726,-24 726,-60"/>
<text text-anchor="middle" x="699" y="-39.5" font-family="Helvetica,sans-Serif" font-size="10.00">d63</text>
</a>
</g>
</g>
<!-- dir_074296abb8992a7ecc68c05f717d4066 -->
<g id="node7" class="node"><title>dir_074296abb8992a7ecc68c05f717d4066</title>
<g id="a_node7"><a xlink:href="dir_074296abb8992a7ecc68c05f717d4066.html" target="_top" xlink:title="d6e">
<polygon fill="white" stroke="black" points="654,-60 600,-60 600,-24 654,-24 654,-60"/>
<text text-anchor="middle" x="627" y="-39.5" font-family="Helvetica,sans-Serif" font-size="10.00">d6e</text>
</a>
</g>
</g>
<!-- dir_25fd3128aee9c02c428c7a30b156800b -->
<g id="node8" class="node"><title>dir_25fd3128aee9c02c428c7a30b156800b</title>
<g id="a_node8"><a xlink:href="dir_25fd3128aee9c02c428c7a30b156800b.html" target="_top" xlink:title="d78">
<polygon fill="white" stroke="black" points="582,-60 528,-60 528,-24 582,-24 582,-60"/>
<text text-anchor="middle" x="555" y="-39.5" font-family="Helvetica,sans-Serif" font-size="10.00">d78</text>
</a>
</g>
</g>
<!-- dir_5cc26c60fd72e83c45cac2ff0d2f8e9b -->
<g id="node9" class="node"><title>dir_5cc26c60fd72e83c45cac2ff0d2f8e9b</title>
<g id="a_node9"><a xlink:href="dir_5cc26c60fd72e83c45cac2ff0d2f8e9b.html" target="_top" xlink:title="d95">
<polygon fill="white" stroke="black" points="510,-60 456,-60 456,-24 510,-24 510,-60"/>
<text text-anchor="middle" x="483" y="-39.5" font-family="Helvetica,sans-Serif" font-size="10.00">d95</text>
</a>
</g>
</g>
<!-- dir_33f1dddabfc929956fc7ca076c319473 -->
<g id="node10" class="node"><title>dir_33f1dddabfc929956fc7ca076c319473</title>
<g id="a_node10"><a xlink:href="dir_33f1dddabfc929956fc7ca076c319473.html" target="_top" xlink:title="d9a">
<polygon fill="white" stroke="black" points="438,-60 384,-60 384,-24 438,-24 438,-60"/>
<text text-anchor="middle" x="411" y="-39.5" font-family="Helvetica,sans-Serif" font-size="10.00">d9a</text>
</a>
</g>
</g>
<!-- dir_50988ac05db3f242101772136624f9b7 -->
<g id="node11" class="node"><title>dir_50988ac05db3f242101772136624f9b7</title>
<g id="a_node11"><a xlink:href="dir_50988ac05db3f242101772136624f9b7.html" target="_top" xlink:title="da7">
<polygon fill="white" stroke="black" points="366,-60 312,-60 312,-24 366,-24 366,-60"/>
<text text-anchor="middle" x="339" y="-39.5" font-family="Helvetica,sans-Serif" font-size="10.00">da7</text>
</a>
</g>
</g>
<!-- dir_f0ae9f85e0c7a39a5903a4aa56cce366 -->
<g id="node12" class="node"><title>dir_f0ae9f85e0c7a39a5903a4aa56cce366</title>
<g id="a_node12"><a xlink:href="dir_f0ae9f85e0c7a39a5903a4aa56cce366.html" target="_top" xlink:title="db6">
<polygon fill="white" stroke="black" points="294,-60 240,-60 240,-24 294,-24 294,-60"/>
<text text-anchor="middle" x="267" y="-39.5" font-family="Helvetica,sans-Serif" font-size="10.00">db6</text>
</a>
</g>
</g>
<!-- dir_dd3f85f2d45852b9708de0b2c207dfd6 -->
<g id="node13" class="node"><title>dir_dd3f85f2d45852b9708de0b2c207dfd6</title>
<g id="a_node13"><a xlink:href="dir_dd3f85f2d45852b9708de0b2c207dfd6.html" target="_top" xlink:title="dd4">
<polygon fill="white" stroke="black" points="222,-60 168,-60 168,-24 222,-24 222,-60"/>
<text text-anchor="middle" x="195" y="-39.5" font-family="Helvetica,sans-Serif" font-size="10.00">dd4</text>
</a>
</g>
</g>
<!-- dir_b87a052d0fc34c178b9e040cc782ddf1 -->
<g id="node14" class="node"><title>dir_b87a052d0fc34c178b9e040cc782ddf1</title>
<g id="a_node14"><a xlink:href="dir_b87a052d0fc34c178b9e040cc782ddf1.html" target="_top" xlink:title="dde">
<polygon fill="white" stroke="black" points="150,-60 96,-60 96,-24 150,-24 150,-60"/>
<text text-anchor="middle" x="123" y="-39.5" font-family="Helvetica,sans-Serif" font-size="10.00">dde</text>
</a>
</g>
</g>
<!-- dir_71ab066fea00974def7e34f3218d44e0 -->
<g id="node15" class="node"><title>dir_71ab066fea00974def7e34f3218d44e0</title>
<g id="a_node15"><a xlink:href="dir_71ab066fea00974def7e34f3218d44e0.html" target="_top" xlink:title="dfe">
<polygon fill="white" stroke="black" points="78,-60 24,-60 24,-24 78,-24 78,-60"/>
<text text-anchor="middle" x="51" y="-39.5" font-family="Helvetica,sans-Serif" font-size="10.00">dfe</text>
</a>
</g>
</g>
</g>
</svg>
        <g id="navigator" transform="translate(0 0)" fill="#404254">
                <rect fill="#f2f5e9" fill-opacity="0.5" stroke="#606060" stroke-width=".5" x="0" y="0" width="60" height="60"/>
                <use id="zoomplus" xlink:href="#zoomPlus" x="17" y="9" onmousedown="handleZoom(evt,'in')"/>
                <use id="zoomminus" xlink:href="#zoomMin" x="42" y="9" onmousedown="handleZoom(evt,'out')"/>
                <use id="reset" xlink:href="#resetDef" x="30" y="36" onmousedown="handleReset()"/>
                <g id="arrowUp" xlink:href="#dirArrow" transform="translate(30 24)" onmousedown="handlePan(0,-1)">
                  <use xlink:href="#rim" fill="#404040">
                        <set attributeName="fill" to="#808080" begin="arrowUp.mouseover" end="arrowUp.mouseout"/>
                  </use>
                  <path fill="none" stroke="white" stroke-width="1.5" d="M0,-3.0v7 M-2.5,-0.5L0,-3.0L2.5,-0.5"/>
                </g>
                <g id="arrowRight" xlink:href="#dirArrow" transform="rotate(90) translate(36 -43)" onmousedown="handlePan(1,0)">
                  <use xlink:href="#rim" fill="#404040">
                        <set attributeName="fill" to="#808080" begin="arrowRight.mouseover" end="arrowRight.mouseout"/>
                  </use>
                  <path fill="none" stroke="white" stroke-width="1.5" d="M0,-3.0v7 M-2.5,-0.5L0,-3.0L2.5,-0.5"/>
                </g>
                <g id="arrowDown" xlink:href="#dirArrow" transform="rotate(180) translate(-30 -48)" onmousedown="handlePan(0,1)">
                  <use xlink:href="#rim" fill="#404040">
                        <set attributeName="fill" to="#808080" begin="arrowDown.mouseover" end="arrowDown.mouseout"/>
                  </use>
                  <path fill="none" stroke="white" stroke-width="1.5" d="M0,-3.0v7 M-2.5,-0.5L0,-3.0L2.5,-0.5"/>
                </g>
                <g id="arrowLeft" xlink:href="#dirArrow" transform="rotate(270) translate(-36 17)" onmousedown="handlePan(-1,0)">
                  <use xlink:href="#rim" fill="#404040">
                        <set attributeName="fill" to="#808080" begin="arrowLeft.mouseover" end="arrowLeft.mouseout"/>
                  </use>
                  <path fill="none" stroke="white" stroke-width="1.5" d="M0,-3.0v7 M-2.5,-0.5L0,-3.0L2.5,-0.5"/>
                </g>
        </g>
        <svg viewBox="0 0 15 15" width="100%" height="30px" preserveAspectRatio="xMaxYMin meet">
         <g id="arrow_out" transform="scale(0.3 0.3)">
          <a xlink:href="dir_0f35d8873c138570c3c35b936679acf7_dep_org.svg" target="_base">
           <rect id="button" ry="5" rx="5" y="6" x="6" height="38" width="38"
                fill="#f2f5e9" fill-opacity="0.5" stroke="#606060" stroke-width="1.0"/>
           <path id="arrow"
             d="M 11.500037,31.436501 C 11.940474,20.09759 22.043105,11.32322 32.158766,21.979434 L 37.068811,17.246167 C 37.068811,17.246167 37.088388,32 37.088388,32 L 22.160133,31.978069 C 22.160133,31.978069 26.997745,27.140456 26.997745,27.140456 C 18.528582,18.264221 13.291696,25.230495 11.500037,31.436501 z"
             style="fill:#404040;"/>
          </a>
         </g>
        </svg>
</svg>
