<?xml version="1.0" encoding="UTF-8" standalone="no"?>
<!DOCTYPE svg PUBLIC "-//W3C//DTD SVG 1.1//EN"
 "http://www.w3.org/Graphics/SVG/1.1/DTD/svg11.dtd">
<!-- Generated by graphviz version 2.34.0 (20130907.0111)
 -->
<!-- Title: D:/Projets/Final&#45;Bomber/Site web/d6 Pages: 1 -->
<svg width="1550pt" height="111pt"
 viewBox="0.00 0.00 1550.00 111.00" xmlns="http://www.w3.org/2000/svg" xmlns:xlink="http://www.w3.org/1999/xlink">
<g id="graph0" class="graph" transform="scale(1 1) rotate(0) translate(4 107)">
<title>D:/Projets/Final&#45;Bomber/Site web/d6</title>
<polygon fill="white" stroke="white" points="-4,4 -4,-107 1546,-107 1546,4 -4,4"/>
<g id="clust1" class="cluster"><title>clusterdir_f1660b4b119ee78966fd57f74fde339b</title>
<g id="a_clust1"><a xlink:href="dir_f1660b4b119ee78966fd57f74fde339b.html" target="_top" xlink:title="Site web">
<polygon fill="#ddddee" stroke="black" points="8,-8 8,-95 1534,-95 1534,-8 8,-8"/>
<text text-anchor="middle" x="771" y="-83" font-family="Helvetica,sans-Serif" font-size="10.00">Site web</text>
</a>
</g>
</g>
<g id="clust2" class="cluster"><title>clusterdir_0d004442ea8d8d7a2ac848c229f5ec05</title>
<g id="a_clust2"><a xlink:href="dir_0d004442ea8d8d7a2ac848c229f5ec05.html" target="_top">
<polygon fill="#eeeeff" stroke="black" points="16,-16 16,-68 1526,-68 1526,-16 16,-16"/>
</a>
</g>
</g>
<!-- dir_0d004442ea8d8d7a2ac848c229f5ec05 -->
<g id="node1" class="node"><title>dir_0d004442ea8d8d7a2ac848c229f5ec05</title>
<text text-anchor="middle" x="1491" y="-39.5" font-family="Helvetica,sans-Serif" font-size="10.00">d6</text>
</g>
<!-- dir_1b6295535dbecf8121d3f8a3edd6a3b5 -->
<g id="node2" class="node"><title>dir_1b6295535dbecf8121d3f8a3edd6a3b5</title>
<g id="a_node2"><a xlink:href="dir_1b6295535dbecf8121d3f8a3edd6a3b5.html" target="_top" xlink:title="d00">
<polygon fill="white" stroke="black" points="1446,-60 1392,-60 1392,-24 1446,-24 1446,-60"/>
<text text-anchor="middle" x="1419" y="-39.5" font-family="Helvetica,sans-Serif" font-size="10.00">d00</text>
</a>
</g>
</g>
<!-- dir_24143fcb5034e43a36d71d17f0c89ec4 -->
<g id="node3" class="node"><title>dir_24143fcb5034e43a36d71d17f0c89ec4</title>
<g id="a_node3"><a xlink:href="dir_24143fcb5034e43a36d71d17f0c89ec4.html" target="_top" xlink:title="d10">
<polygon fill="white" stroke="black" points="1374,-60 1320,-60 1320,-24 1374,-24 1374,-60"/>
<text text-anchor="middle" x="1347" y="-39.5" font-family="Helvetica,sans-Serif" font-size="10.00">d10</text>
</a>
</g>
</g>
<!-- dir_d14d3020e23e7da58ae08680c0a6648e -->
<g id="node4" class="node"><title>dir_d14d3020e23e7da58ae08680c0a6648e</title>
<g id="a_node4"><a xlink:href="dir_d14d3020e23e7da58ae08680c0a6648e.html" target="_top" xlink:title="d20">
<polygon fill="white" stroke="black" points="1302,-60 1248,-60 1248,-24 1302,-24 1302,-60"/>
<text text-anchor="middle" x="1275" y="-39.5" font-family="Helvetica,sans-Serif" font-size="10.00">d20</text>
</a>
</g>
</g>
<!-- dir_efa2515a480703fa671b6a55d39b0f0d -->
<g id="node5" class="node"><title>dir_efa2515a480703fa671b6a55d39b0f0d</title>
<g id="a_node5"><a xlink:href="dir_efa2515a480703fa671b6a55d39b0f0d.html" target="_top" xlink:title="d22">
<polygon fill="white" stroke="black" points="1230,-60 1176,-60 1176,-24 1230,-24 1230,-60"/>
<text text-anchor="middle" x="1203" y="-39.5" font-family="Helvetica,sans-Serif" font-size="10.00">d22</text>
</a>
</g>
</g>
<!-- dir_ef220c3af6a5983eff969b6f8fef2c89 -->
<g id="node6" class="node"><title>dir_ef220c3af6a5983eff969b6f8fef2c89</title>
<g id="a_node6"><a xlink:href="dir_ef220c3af6a5983eff969b6f8fef2c89.html" target="_top" xlink:title="d37">
<polygon fill="white" stroke="black" points="1158,-60 1104,-60 1104,-24 1158,-24 1158,-60"/>
<text text-anchor="middle" x="1131" y="-39.5" font-family="Helvetica,sans-Serif" font-size="10.00">d37</text>
</a>
</g>
</g>
<!-- dir_7cd9260eb13ee2f37465105cefae9e23 -->
<g id="node7" class="node"><title>dir_7cd9260eb13ee2f37465105cefae9e23</title>
<g id="a_node7"><a xlink:href="dir_7cd9260eb13ee2f37465105cefae9e23.html" target="_top" xlink:title="d38">
<polygon fill="white" stroke="black" points="1086,-60 1032,-60 1032,-24 1086,-24 1086,-60"/>
<text text-anchor="middle" x="1059" y="-39.5" font-family="Helvetica,sans-Serif" font-size="10.00">d38</text>
</a>
</g>
</g>
<!-- dir_96c0f2c8a33b87ca460996bb13cda715 -->
<g id="node8" class="node"><title>dir_96c0f2c8a33b87ca460996bb13cda715</title>
<g id="a_node8"><a xlink:href="dir_96c0f2c8a33b87ca460996bb13cda715.html" target="_top" xlink:title="d4b">
<polygon fill="white" stroke="black" points="1014,-60 960,-60 960,-24 1014,-24 1014,-60"/>
<text text-anchor="middle" x="987" y="-39.5" font-family="Helvetica,sans-Serif" font-size="10.00">d4b</text>
</a>
</g>
</g>
<!-- dir_50e8b68ffa351aebccef8f996797284b -->
<g id="node9" class="node"><title>dir_50e8b68ffa351aebccef8f996797284b</title>
<g id="a_node9"><a xlink:href="dir_50e8b68ffa351aebccef8f996797284b.html" target="_top" xlink:title="d4f">
<polygon fill="white" stroke="black" points="942,-60 888,-60 888,-24 942,-24 942,-60"/>
<text text-anchor="middle" x="915" y="-39.5" font-family="Helvetica,sans-Serif" font-size="10.00">d4f</text>
</a>
</g>
</g>
<!-- dir_848c0e8f9893e3b02042cb87ecc183ae -->
<g id="node10" class="node"><title>dir_848c0e8f9893e3b02042cb87ecc183ae</title>
<g id="a_node10"><a xlink:href="dir_848c0e8f9893e3b02042cb87ecc183ae.html" target="_top" xlink:title="d55">
<polygon fill="white" stroke="black" points="870,-60 816,-60 816,-24 870,-24 870,-60"/>
<text text-anchor="middle" x="843" y="-39.5" font-family="Helvetica,sans-Serif" font-size="10.00">d55</text>
</a>
</g>
</g>
<!-- dir_d39b81fc745ba25b1684cb411e5e664d -->
<g id="node11" class="node"><title>dir_d39b81fc745ba25b1684cb411e5e664d</title>
<g id="a_node11"><a xlink:href="dir_d39b81fc745ba25b1684cb411e5e664d.html" target="_top" xlink:title="d74">
<polygon fill="white" stroke="black" points="798,-60 744,-60 744,-24 798,-24 798,-60"/>
<text text-anchor="middle" x="771" y="-39.5" font-family="Helvetica,sans-Serif" font-size="10.00">d74</text>
</a>
</g>
</g>
<!-- dir_06f2ef73e80ea57d92341277638c0a30 -->
<g id="node12" class="node"><title>dir_06f2ef73e80ea57d92341277638c0a30</title>
<g id="a_node12"><a xlink:href="dir_06f2ef73e80ea57d92341277638c0a30.html" target="_top" xlink:title="d7c">
<polygon fill="white" stroke="black" points="726,-60 672,-60 672,-24 726,-24 726,-60"/>
<text text-anchor="middle" x="699" y="-39.5" font-family="Helvetica,sans-Serif" font-size="10.00">d7c</text>
</a>
</g>
</g>
<!-- dir_c0c8e5e4449b8d61269c585cd072059f -->
<g id="node13" class="node"><title>dir_c0c8e5e4449b8d61269c585cd072059f</title>
<g id="a_node13"><a xlink:href="dir_c0c8e5e4449b8d61269c585cd072059f.html" target="_top" xlink:title="d85">
<polygon fill="white" stroke="black" points="654,-60 600,-60 600,-24 654,-24 654,-60"/>
<text text-anchor="middle" x="627" y="-39.5" font-family="Helvetica,sans-Serif" font-size="10.00">d85</text>
</a>
</g>
</g>
<!-- dir_805806f50244e36c18cd652b8e48ec31 -->
<g id="node14" class="node"><title>dir_805806f50244e36c18cd652b8e48ec31</title>
<g id="a_node14"><a xlink:href="dir_805806f50244e36c18cd652b8e48ec31.html" target="_top" xlink:title="d95">
<polygon fill="white" stroke="black" points="582,-60 528,-60 528,-24 582,-24 582,-60"/>
<text text-anchor="middle" x="555" y="-39.5" font-family="Helvetica,sans-Serif" font-size="10.00">d95</text>
</a>
</g>
</g>
<!-- dir_f75a9e6f99bff51e73d71819513bb04b -->
<g id="node15" class="node"><title>dir_f75a9e6f99bff51e73d71819513bb04b</title>
<g id="a_node15"><a xlink:href="dir_f75a9e6f99bff51e73d71819513bb04b.html" target="_top" xlink:title="dac">
<polygon fill="white" stroke="black" points="510,-60 456,-60 456,-24 510,-24 510,-60"/>
<text text-anchor="middle" x="483" y="-39.5" font-family="Helvetica,sans-Serif" font-size="10.00">dac</text>
</a>
</g>
</g>
<!-- dir_92e2774c2280c2bc09d238e5b84f199d -->
<g id="node16" class="node"><title>dir_92e2774c2280c2bc09d238e5b84f199d</title>
<g id="a_node16"><a xlink:href="dir_92e2774c2280c2bc09d238e5b84f199d.html" target="_top" xlink:title="db2">
<polygon fill="white" stroke="black" points="438,-60 384,-60 384,-24 438,-24 438,-60"/>
<text text-anchor="middle" x="411" y="-39.5" font-family="Helvetica,sans-Serif" font-size="10.00">db2</text>
</a>
</g>
</g>
<!-- dir_875341135e55c65287178af8abcd94b8 -->
<g id="node17" class="node"><title>dir_875341135e55c65287178af8abcd94b8</title>
<g id="a_node17"><a xlink:href="dir_875341135e55c65287178af8abcd94b8.html" target="_top" xlink:title="db6">
<polygon fill="white" stroke="black" points="366,-60 312,-60 312,-24 366,-24 366,-60"/>
<text text-anchor="middle" x="339" y="-39.5" font-family="Helvetica,sans-Serif" font-size="10.00">db6</text>
</a>
</g>
</g>
<!-- dir_7fc6df31608ef29e49a63f17b5aad548 -->
<g id="node18" class="node"><title>dir_7fc6df31608ef29e49a63f17b5aad548</title>
<g id="a_node18"><a xlink:href="dir_7fc6df31608ef29e49a63f17b5aad548.html" target="_top" xlink:title="db7">
<polygon fill="white" stroke="black" points="294,-60 240,-60 240,-24 294,-24 294,-60"/>
<text text-anchor="middle" x="267" y="-39.5" font-family="Helvetica,sans-Serif" font-size="10.00">db7</text>
</a>
</g>
</g>
<!-- dir_3cc735f74f42fe181c2a6afa1522e2a9 -->
<g id="node19" class="node"><title>dir_3cc735f74f42fe181c2a6afa1522e2a9</title>
<g id="a_node19"><a xlink:href="dir_3cc735f74f42fe181c2a6afa1522e2a9.html" target="_top" xlink:title="dd0">
<polygon fill="white" stroke="black" points="222,-60 168,-60 168,-24 222,-24 222,-60"/>
<text text-anchor="middle" x="195" y="-39.5" font-family="Helvetica,sans-Serif" font-size="10.00">dd0</text>
</a>
</g>
</g>
<!-- dir_0d38ad346f61f27c8a0c8a9936ede1d7 -->
<g id="node20" class="node"><title>dir_0d38ad346f61f27c8a0c8a9936ede1d7</title>
<g id="a_node20"><a xlink:href="dir_0d38ad346f61f27c8a0c8a9936ede1d7.html" target="_top" xlink:title="dd9">
<polygon fill="white" stroke="black" points="150,-60 96,-60 96,-24 150,-24 150,-60"/>
<text text-anchor="middle" x="123" y="-39.5" font-family="Helvetica,sans-Serif" font-size="10.00">dd9</text>
</a>
</g>
</g>
<!-- dir_deeece6c0456ee1ea7141124186a05ba -->
<g id="node21" class="node"><title>dir_deeece6c0456ee1ea7141124186a05ba</title>
<g id="a_node21"><a xlink:href="dir_deeece6c0456ee1ea7141124186a05ba.html" target="_top" xlink:title="df6">
<polygon fill="white" stroke="black" points="78,-60 24,-60 24,-24 78,-24 78,-60"/>
<text text-anchor="middle" x="51" y="-39.5" font-family="Helvetica,sans-Serif" font-size="10.00">df6</text>
</a>
</g>
</g>
</g>
</svg>
