<?xml version="1.0" encoding="UTF-8" standalone="no"?>
<!DOCTYPE svg PUBLIC "-//W3C//DTD SVG 1.1//EN"
 "http://www.w3.org/Graphics/SVG/1.1/DTD/svg11.dtd">
<!-- Generated by graphviz version 2.34.0 (20130907.0111)
 -->
<!-- Title: D:/Projets/Final&#45;Bomber/Site web/df Pages: 1 -->
<svg width="830pt" height="111pt"
 viewBox="0.00 0.00 830.00 111.00" xmlns="http://www.w3.org/2000/svg" xmlns:xlink="http://www.w3.org/1999/xlink">
<g id="graph0" class="graph" transform="scale(1 1) rotate(0) translate(4 107)">
<title>D:/Projets/Final&#45;Bomber/Site web/df</title>
<polygon fill="white" stroke="white" points="-4,4 -4,-107 826,-107 826,4 -4,4"/>
<g id="clust1" class="cluster"><title>clusterdir_f1660b4b119ee78966fd57f74fde339b</title>
<g id="a_clust1"><a xlink:href="dir_f1660b4b119ee78966fd57f74fde339b.html" target="_top" xlink:title="Site web">
<polygon fill="#ddddee" stroke="black" points="8,-8 8,-95 814,-95 814,-8 8,-8"/>
<text text-anchor="middle" x="411" y="-83" font-family="Helvetica,sans-Serif" font-size="10.00">Site web</text>
</a>
</g>
</g>
<g id="clust2" class="cluster"><title>clusterdir_ce489fe0ee017e8e80ec29fe5ca797f8</title>
<g id="a_clust2"><a xlink:href="dir_ce489fe0ee017e8e80ec29fe5ca797f8.html" target="_top">
<polygon fill="#eeeeff" stroke="black" points="16,-16 16,-68 806,-68 806,-16 16,-16"/>
</a>
</g>
</g>
<!-- dir_ce489fe0ee017e8e80ec29fe5ca797f8 -->
<g id="node1" class="node"><title>dir_ce489fe0ee017e8e80ec29fe5ca797f8</title>
<text text-anchor="middle" x="771" y="-39.5" font-family="Helvetica,sans-Serif" font-size="10.00">df</text>
</g>
<!-- dir_9d9825257d60c1d26dfe06442025768f -->
<g id="node2" class="node"><title>dir_9d9825257d60c1d26dfe06442025768f</title>
<g id="a_node2"><a xlink:href="dir_9d9825257d60c1d26dfe06442025768f.html" target="_top" xlink:title="d2f">
<polygon fill="white" stroke="black" points="726,-60 672,-60 672,-24 726,-24 726,-60"/>
<text text-anchor="middle" x="699" y="-39.5" font-family="Helvetica,sans-Serif" font-size="10.00">d2f</text>
</a>
</g>
</g>
<!-- dir_9092dfcd23890d16a24cb4337b68f8b3 -->
<g id="node3" class="node"><title>dir_9092dfcd23890d16a24cb4337b68f8b3</title>
<g id="a_node3"><a xlink:href="dir_9092dfcd23890d16a24cb4337b68f8b3.html" target="_top" xlink:title="d33">
<polygon fill="white" stroke="black" points="654,-60 600,-60 600,-24 654,-24 654,-60"/>
<text text-anchor="middle" x="627" y="-39.5" font-family="Helvetica,sans-Serif" font-size="10.00">d33</text>
</a>
</g>
</g>
<!-- dir_8327f52ec0a7377ecd3c96ee38ca748d -->
<g id="node4" class="node"><title>dir_8327f52ec0a7377ecd3c96ee38ca748d</title>
<g id="a_node4"><a xlink:href="dir_8327f52ec0a7377ecd3c96ee38ca748d.html" target="_top" xlink:title="d38">
<polygon fill="white" stroke="black" points="582,-60 528,-60 528,-24 582,-24 582,-60"/>
<text text-anchor="middle" x="555" y="-39.5" font-family="Helvetica,sans-Serif" font-size="10.00">d38</text>
</a>
</g>
</g>
<!-- dir_e5216b2b8960b328d5b175cb469fd7e7 -->
<g id="node5" class="node"><title>dir_e5216b2b8960b328d5b175cb469fd7e7</title>
<g id="a_node5"><a xlink:href="dir_e5216b2b8960b328d5b175cb469fd7e7.html" target="_top" xlink:title="d3e">
<polygon fill="white" stroke="black" points="510,-60 456,-60 456,-24 510,-24 510,-60"/>
<text text-anchor="middle" x="483" y="-39.5" font-family="Helvetica,sans-Serif" font-size="10.00">d3e</text>
</a>
</g>
</g>
<!-- dir_51f138cb2bbe6bfa11423eb9f2d512fc -->
<g id="node6" class="node"><title>dir_51f138cb2bbe6bfa11423eb9f2d512fc</title>
<g id="a_node6"><a xlink:href="dir_51f138cb2bbe6bfa11423eb9f2d512fc.html" target="_top" xlink:title="d46">
<polygon fill="white" stroke="black" points="438,-60 384,-60 384,-24 438,-24 438,-60"/>
<text text-anchor="middle" x="411" y="-39.5" font-family="Helvetica,sans-Serif" font-size="10.00">d46</text>
</a>
</g>
</g>
<!-- dir_f1ba09a4a6cbe25cf5b6bda25c3b2949 -->
<g id="node7" class="node"><title>dir_f1ba09a4a6cbe25cf5b6bda25c3b2949</title>
<g id="a_node7"><a xlink:href="dir_f1ba09a4a6cbe25cf5b6bda25c3b2949.html" target="_top" xlink:title="d54">
<polygon fill="white" stroke="black" points="366,-60 312,-60 312,-24 366,-24 366,-60"/>
<text text-anchor="middle" x="339" y="-39.5" font-family="Helvetica,sans-Serif" font-size="10.00">d54</text>
</a>
</g>
</g>
<!-- dir_754115fb7ff421c5ee76e9d709839cfb -->
<g id="node8" class="node"><title>dir_754115fb7ff421c5ee76e9d709839cfb</title>
<g id="a_node8"><a xlink:href="dir_754115fb7ff421c5ee76e9d709839cfb.html" target="_top" xlink:title="d57">
<polygon fill="white" stroke="black" points="294,-60 240,-60 240,-24 294,-24 294,-60"/>
<text text-anchor="middle" x="267" y="-39.5" font-family="Helvetica,sans-Serif" font-size="10.00">d57</text>
</a>
</g>
</g>
<!-- dir_31db2f3580dc26b30a2bb3e8d5726596 -->
<g id="node9" class="node"><title>dir_31db2f3580dc26b30a2bb3e8d5726596</title>
<g id="a_node9"><a xlink:href="dir_31db2f3580dc26b30a2bb3e8d5726596.html" target="_top" xlink:title="daf">
<polygon fill="white" stroke="black" points="222,-60 168,-60 168,-24 222,-24 222,-60"/>
<text text-anchor="middle" x="195" y="-39.5" font-family="Helvetica,sans-Serif" font-size="10.00">daf</text>
</a>
</g>
</g>
<!-- dir_e06c745aa35e68d44397b90f7e146972 -->
<g id="node10" class="node"><title>dir_e06c745aa35e68d44397b90f7e146972</title>
<g id="a_node10"><a xlink:href="dir_e06c745aa35e68d44397b90f7e146972.html" target="_top" xlink:title="ddb">
<polygon fill="white" stroke="black" points="150,-60 96,-60 96,-24 150,-24 150,-60"/>
<text text-anchor="middle" x="123" y="-39.5" font-family="Helvetica,sans-Serif" font-size="10.00">ddb</text>
</a>
</g>
</g>
<!-- dir_c284171699f1e46a72c89e2e3bd2d27b -->
<g id="node11" class="node"><title>dir_c284171699f1e46a72c89e2e3bd2d27b</title>
<g id="a_node11"><a xlink:href="dir_c284171699f1e46a72c89e2e3bd2d27b.html" target="_top" xlink:title="dea">
<polygon fill="white" stroke="black" points="78,-60 24,-60 24,-24 78,-24 78,-60"/>
<text text-anchor="middle" x="51" y="-39.5" font-family="Helvetica,sans-Serif" font-size="10.00">dea</text>
</a>
</g>
</g>
</g>
</svg>
