<?xml version="1.0" encoding="UTF-8" standalone="no"?>
<!DOCTYPE svg PUBLIC "-//W3C//DTD SVG 1.1//EN"
 "http://www.w3.org/Graphics/SVG/1.1/DTD/svg11.dtd">
<!-- Generated by graphviz version 2.34.0 (20130907.0111)
 -->
<!-- Title: D:/Projets/Final&#45;Bomber/Site web/d9 Pages: 1 -->
<svg width="902pt" height="111pt"
 viewBox="0.00 0.00 902.00 111.00" xmlns="http://www.w3.org/2000/svg" xmlns:xlink="http://www.w3.org/1999/xlink">
<g id="graph0" class="graph" transform="scale(1 1) rotate(0) translate(4 107)">
<title>D:/Projets/Final&#45;Bomber/Site web/d9</title>
<polygon fill="white" stroke="white" points="-4,4 -4,-107 898,-107 898,4 -4,4"/>
<g id="clust1" class="cluster"><title>clusterdir_f1660b4b119ee78966fd57f74fde339b</title>
<g id="a_clust1"><a xlink:href="dir_f1660b4b119ee78966fd57f74fde339b.html" target="_top" xlink:title="Site web">
<polygon fill="#ddddee" stroke="black" points="8,-8 8,-95 886,-95 886,-8 8,-8"/>
<text text-anchor="middle" x="447" y="-83" font-family="Helvetica,sans-Serif" font-size="10.00">Site web</text>
</a>
</g>
</g>
<g id="clust2" class="cluster"><title>clusterdir_f14f506b9db631b6ec31186253745795</title>
<g id="a_clust2"><a xlink:href="dir_f14f506b9db631b6ec31186253745795.html" target="_top">
<polygon fill="#eeeeff" stroke="black" points="16,-16 16,-68 878,-68 878,-16 16,-16"/>
</a>
</g>
</g>
<!-- dir_f14f506b9db631b6ec31186253745795 -->
<g id="node1" class="node"><title>dir_f14f506b9db631b6ec31186253745795</title>
<text text-anchor="middle" x="843" y="-39.5" font-family="Helvetica,sans-Serif" font-size="10.00">d9</text>
</g>
<!-- dir_a576402746f8f53c86ebcb434ff28d73 -->
<g id="node2" class="node"><title>dir_a576402746f8f53c86ebcb434ff28d73</title>
<g id="a_node2"><a xlink:href="dir_a576402746f8f53c86ebcb434ff28d73.html" target="_top" xlink:title="d0c">
<polygon fill="white" stroke="black" points="798,-60 744,-60 744,-24 798,-24 798,-60"/>
<text text-anchor="middle" x="771" y="-39.5" font-family="Helvetica,sans-Serif" font-size="10.00">d0c</text>
</a>
</g>
</g>
<!-- dir_8d5395af1b584b2c6f508d44bd50151b -->
<g id="node3" class="node"><title>dir_8d5395af1b584b2c6f508d44bd50151b</title>
<g id="a_node3"><a xlink:href="dir_8d5395af1b584b2c6f508d44bd50151b.html" target="_top" xlink:title="d14">
<polygon fill="white" stroke="black" points="726,-60 672,-60 672,-24 726,-24 726,-60"/>
<text text-anchor="middle" x="699" y="-39.5" font-family="Helvetica,sans-Serif" font-size="10.00">d14</text>
</a>
</g>
</g>
<!-- dir_b62cb0d4be1600695c77e0a9c202df5f -->
<g id="node4" class="node"><title>dir_b62cb0d4be1600695c77e0a9c202df5f</title>
<g id="a_node4"><a xlink:href="dir_b62cb0d4be1600695c77e0a9c202df5f.html" target="_top" xlink:title="d36">
<polygon fill="white" stroke="black" points="654,-60 600,-60 600,-24 654,-24 654,-60"/>
<text text-anchor="middle" x="627" y="-39.5" font-family="Helvetica,sans-Serif" font-size="10.00">d36</text>
</a>
</g>
</g>
<!-- dir_96352203ae7cccdd70a94a6ca1ff6efa -->
<g id="node5" class="node"><title>dir_96352203ae7cccdd70a94a6ca1ff6efa</title>
<g id="a_node5"><a xlink:href="dir_96352203ae7cccdd70a94a6ca1ff6efa.html" target="_top" xlink:title="d58">
<polygon fill="white" stroke="black" points="582,-60 528,-60 528,-24 582,-24 582,-60"/>
<text text-anchor="middle" x="555" y="-39.5" font-family="Helvetica,sans-Serif" font-size="10.00">d58</text>
</a>
</g>
</g>
<!-- dir_19b0eb5f75b9a43ad000f71ae805790d -->
<g id="node6" class="node"><title>dir_19b0eb5f75b9a43ad000f71ae805790d</title>
<g id="a_node6"><a xlink:href="dir_19b0eb5f75b9a43ad000f71ae805790d.html" target="_top" xlink:title="d74">
<polygon fill="white" stroke="black" points="510,-60 456,-60 456,-24 510,-24 510,-60"/>
<text text-anchor="middle" x="483" y="-39.5" font-family="Helvetica,sans-Serif" font-size="10.00">d74</text>
</a>
</g>
</g>
<!-- dir_923e06743dcf4a9932a685bc31c567a4 -->
<g id="node7" class="node"><title>dir_923e06743dcf4a9932a685bc31c567a4</title>
<g id="a_node7"><a xlink:href="dir_923e06743dcf4a9932a685bc31c567a4.html" target="_top" xlink:title="d92">
<polygon fill="white" stroke="black" points="438,-60 384,-60 384,-24 438,-24 438,-60"/>
<text text-anchor="middle" x="411" y="-39.5" font-family="Helvetica,sans-Serif" font-size="10.00">d92</text>
</a>
</g>
</g>
<!-- dir_4bf0ebac3f195df13326599f33e4c096 -->
<g id="node8" class="node"><title>dir_4bf0ebac3f195df13326599f33e4c096</title>
<g id="a_node8"><a xlink:href="dir_4bf0ebac3f195df13326599f33e4c096.html" target="_top" xlink:title="da8">
<polygon fill="white" stroke="black" points="366,-60 312,-60 312,-24 366,-24 366,-60"/>
<text text-anchor="middle" x="339" y="-39.5" font-family="Helvetica,sans-Serif" font-size="10.00">da8</text>
</a>
</g>
</g>
<!-- dir_d9a9dbaadf1d6b197608d5a0f0919d91 -->
<g id="node9" class="node"><title>dir_d9a9dbaadf1d6b197608d5a0f0919d91</title>
<g id="a_node9"><a xlink:href="dir_d9a9dbaadf1d6b197608d5a0f0919d91.html" target="_top" xlink:title="dd2">
<polygon fill="white" stroke="black" points="294,-60 240,-60 240,-24 294,-24 294,-60"/>
<text text-anchor="middle" x="267" y="-39.5" font-family="Helvetica,sans-Serif" font-size="10.00">dd2</text>
</a>
</g>
</g>
<!-- dir_e9ef3801fedb8b489b4f86b11688ce14 -->
<g id="node10" class="node"><title>dir_e9ef3801fedb8b489b4f86b11688ce14</title>
<g id="a_node10"><a xlink:href="dir_e9ef3801fedb8b489b4f86b11688ce14.html" target="_top" xlink:title="dd9">
<polygon fill="white" stroke="black" points="222,-60 168,-60 168,-24 222,-24 222,-60"/>
<text text-anchor="middle" x="195" y="-39.5" font-family="Helvetica,sans-Serif" font-size="10.00">dd9</text>
</a>
</g>
</g>
<!-- dir_65dd0c199b4c16d0ac288205d2168b19 -->
<g id="node11" class="node"><title>dir_65dd0c199b4c16d0ac288205d2168b19</title>
<g id="a_node11"><a xlink:href="dir_65dd0c199b4c16d0ac288205d2168b19.html" target="_top" xlink:title="de4">
<polygon fill="white" stroke="black" points="150,-60 96,-60 96,-24 150,-24 150,-60"/>
<text text-anchor="middle" x="123" y="-39.5" font-family="Helvetica,sans-Serif" font-size="10.00">de4</text>
</a>
</g>
</g>
<!-- dir_493d069ec26ff689784bf8eb93771f31 -->
<g id="node12" class="node"><title>dir_493d069ec26ff689784bf8eb93771f31</title>
<g id="a_node12"><a xlink:href="dir_493d069ec26ff689784bf8eb93771f31.html" target="_top" xlink:title="deb">
<polygon fill="white" stroke="black" points="78,-60 24,-60 24,-24 78,-24 78,-60"/>
<text text-anchor="middle" x="51" y="-39.5" font-family="Helvetica,sans-Serif" font-size="10.00">deb</text>
</a>
</g>
</g>
</g>
</svg>
