<?xml version="1.0" encoding="UTF-8" standalone="no"?>
<!DOCTYPE svg PUBLIC "-//W3C//DTD SVG 1.1//EN"
 "http://www.w3.org/Graphics/SVG/1.1/DTD/svg11.dtd">
<!-- Generated by graphviz version 2.34.0 (20130907.0111)
 -->
<!-- Title: D:/Projets/Final&#45;Bomber/Site web/dc Pages: 1 -->
<svg width="1118pt" height="111pt"
 viewBox="0.00 0.00 1118.00 111.00" xmlns="http://www.w3.org/2000/svg" xmlns:xlink="http://www.w3.org/1999/xlink">
<g id="graph0" class="graph" transform="scale(1 1) rotate(0) translate(4 107)">
<title>D:/Projets/Final&#45;Bomber/Site web/dc</title>
<polygon fill="white" stroke="white" points="-4,4 -4,-107 1114,-107 1114,4 -4,4"/>
<g id="clust1" class="cluster"><title>clusterdir_f1660b4b119ee78966fd57f74fde339b</title>
<g id="a_clust1"><a xlink:href="dir_f1660b4b119ee78966fd57f74fde339b.html" target="_top" xlink:title="Site web">
<polygon fill="#ddddee" stroke="black" points="8,-8 8,-95 1102,-95 1102,-8 8,-8"/>
<text text-anchor="middle" x="555" y="-83" font-family="Helvetica,sans-Serif" font-size="10.00">Site web</text>
</a>
</g>
</g>
<g id="clust2" class="cluster"><title>clusterdir_f14e5aea49ba3936ae200aba87b1d9be</title>
<g id="a_clust2"><a xlink:href="dir_f14e5aea49ba3936ae200aba87b1d9be.html" target="_top">
<polygon fill="#eeeeff" stroke="black" points="16,-16 16,-68 1094,-68 1094,-16 16,-16"/>
</a>
</g>
</g>
<!-- dir_f14e5aea49ba3936ae200aba87b1d9be -->
<g id="node1" class="node"><title>dir_f14e5aea49ba3936ae200aba87b1d9be</title>
<text text-anchor="middle" x="1059" y="-39.5" font-family="Helvetica,sans-Serif" font-size="10.00">dc</text>
</g>
<!-- dir_516071f34158a48541ba0476ca3867dd -->
<g id="node2" class="node"><title>dir_516071f34158a48541ba0476ca3867dd</title>
<g id="a_node2"><a xlink:href="dir_516071f34158a48541ba0476ca3867dd.html" target="_top" xlink:title="d3d">
<polygon fill="white" stroke="black" points="1014,-60 960,-60 960,-24 1014,-24 1014,-60"/>
<text text-anchor="middle" x="987" y="-39.5" font-family="Helvetica,sans-Serif" font-size="10.00">d3d</text>
</a>
</g>
</g>
<!-- dir_5b46e91900d49ec3e0073a8e39de5f09 -->
<g id="node3" class="node"><title>dir_5b46e91900d49ec3e0073a8e39de5f09</title>
<g id="a_node3"><a xlink:href="dir_5b46e91900d49ec3e0073a8e39de5f09.html" target="_top" xlink:title="d42">
<polygon fill="white" stroke="black" points="942,-60 888,-60 888,-24 942,-24 942,-60"/>
<text text-anchor="middle" x="915" y="-39.5" font-family="Helvetica,sans-Serif" font-size="10.00">d42</text>
</a>
</g>
</g>
<!-- dir_d9d91cbbe341d088f1c4b63887481b2d -->
<g id="node4" class="node"><title>dir_d9d91cbbe341d088f1c4b63887481b2d</title>
<g id="a_node4"><a xlink:href="dir_d9d91cbbe341d088f1c4b63887481b2d.html" target="_top" xlink:title="d56">
<polygon fill="white" stroke="black" points="870,-60 816,-60 816,-24 870,-24 870,-60"/>
<text text-anchor="middle" x="843" y="-39.5" font-family="Helvetica,sans-Serif" font-size="10.00">d56</text>
</a>
</g>
</g>
<!-- dir_1f98237fd26667f5cb98ce773711842c -->
<g id="node5" class="node"><title>dir_1f98237fd26667f5cb98ce773711842c</title>
<g id="a_node5"><a xlink:href="dir_1f98237fd26667f5cb98ce773711842c.html" target="_top" xlink:title="d66">
<polygon fill="white" stroke="black" points="798,-60 744,-60 744,-24 798,-24 798,-60"/>
<text text-anchor="middle" x="771" y="-39.5" font-family="Helvetica,sans-Serif" font-size="10.00">d66</text>
</a>
</g>
</g>
<!-- dir_d529f2e2afaee7e5c822524e14625ccb -->
<g id="node6" class="node"><title>dir_d529f2e2afaee7e5c822524e14625ccb</title>
<g id="a_node6"><a xlink:href="dir_d529f2e2afaee7e5c822524e14625ccb.html" target="_top" xlink:title="d89">
<polygon fill="white" stroke="black" points="726,-60 672,-60 672,-24 726,-24 726,-60"/>
<text text-anchor="middle" x="699" y="-39.5" font-family="Helvetica,sans-Serif" font-size="10.00">d89</text>
</a>
</g>
</g>
<!-- dir_baa8ec68d21a0dbd7aac5098bc6128a3 -->
<g id="node7" class="node"><title>dir_baa8ec68d21a0dbd7aac5098bc6128a3</title>
<g id="a_node7"><a xlink:href="dir_baa8ec68d21a0dbd7aac5098bc6128a3.html" target="_top" xlink:title="d8d">
<polygon fill="white" stroke="black" points="654,-60 600,-60 600,-24 654,-24 654,-60"/>
<text text-anchor="middle" x="627" y="-39.5" font-family="Helvetica,sans-Serif" font-size="10.00">d8d</text>
</a>
</g>
</g>
<!-- dir_178eea85d2c0dda79edaae5d3da8dacd -->
<g id="node8" class="node"><title>dir_178eea85d2c0dda79edaae5d3da8dacd</title>
<g id="a_node8"><a xlink:href="dir_178eea85d2c0dda79edaae5d3da8dacd.html" target="_top" xlink:title="d91">
<polygon fill="white" stroke="black" points="582,-60 528,-60 528,-24 582,-24 582,-60"/>
<text text-anchor="middle" x="555" y="-39.5" font-family="Helvetica,sans-Serif" font-size="10.00">d91</text>
</a>
</g>
</g>
<!-- dir_5795000c7c6e88f316c83f4f3668ec16 -->
<g id="node9" class="node"><title>dir_5795000c7c6e88f316c83f4f3668ec16</title>
<g id="a_node9"><a xlink:href="dir_5795000c7c6e88f316c83f4f3668ec16.html" target="_top" xlink:title="da0">
<polygon fill="white" stroke="black" points="510,-60 456,-60 456,-24 510,-24 510,-60"/>
<text text-anchor="middle" x="483" y="-39.5" font-family="Helvetica,sans-Serif" font-size="10.00">da0</text>
</a>
</g>
</g>
<!-- dir_2038c7e5ece40d46ee2a5af8def57f39 -->
<g id="node10" class="node"><title>dir_2038c7e5ece40d46ee2a5af8def57f39</title>
<g id="a_node10"><a xlink:href="dir_2038c7e5ece40d46ee2a5af8def57f39.html" target="_top" xlink:title="da1">
<polygon fill="white" stroke="black" points="438,-60 384,-60 384,-24 438,-24 438,-60"/>
<text text-anchor="middle" x="411" y="-39.5" font-family="Helvetica,sans-Serif" font-size="10.00">da1</text>
</a>
</g>
</g>
<!-- dir_75f5a0d1368a8ed3e1395109aa8a1475 -->
<g id="node11" class="node"><title>dir_75f5a0d1368a8ed3e1395109aa8a1475</title>
<g id="a_node11"><a xlink:href="dir_75f5a0d1368a8ed3e1395109aa8a1475.html" target="_top" xlink:title="daa">
<polygon fill="white" stroke="black" points="366,-60 312,-60 312,-24 366,-24 366,-60"/>
<text text-anchor="middle" x="339" y="-39.5" font-family="Helvetica,sans-Serif" font-size="10.00">daa</text>
</a>
</g>
</g>
<!-- dir_465a54d09d9a9a04ea11fd7204574e5b -->
<g id="node12" class="node"><title>dir_465a54d09d9a9a04ea11fd7204574e5b</title>
<g id="a_node12"><a xlink:href="dir_465a54d09d9a9a04ea11fd7204574e5b.html" target="_top" xlink:title="dd0">
<polygon fill="white" stroke="black" points="294,-60 240,-60 240,-24 294,-24 294,-60"/>
<text text-anchor="middle" x="267" y="-39.5" font-family="Helvetica,sans-Serif" font-size="10.00">dd0</text>
</a>
</g>
</g>
<!-- dir_8f60a02531c165d5376084c3ee7cf39c -->
<g id="node13" class="node"><title>dir_8f60a02531c165d5376084c3ee7cf39c</title>
<g id="a_node13"><a xlink:href="dir_8f60a02531c165d5376084c3ee7cf39c.html" target="_top" xlink:title="dd1">
<polygon fill="white" stroke="black" points="222,-60 168,-60 168,-24 222,-24 222,-60"/>
<text text-anchor="middle" x="195" y="-39.5" font-family="Helvetica,sans-Serif" font-size="10.00">dd1</text>
</a>
</g>
</g>
<!-- dir_3a1442a7869393a1a54c12bdb8c059f5 -->
<g id="node14" class="node"><title>dir_3a1442a7869393a1a54c12bdb8c059f5</title>
<g id="a_node14"><a xlink:href="dir_3a1442a7869393a1a54c12bdb8c059f5.html" target="_top" xlink:title="dd8">
<polygon fill="white" stroke="black" points="150,-60 96,-60 96,-24 150,-24 150,-60"/>
<text text-anchor="middle" x="123" y="-39.5" font-family="Helvetica,sans-Serif" font-size="10.00">dd8</text>
</a>
</g>
</g>
<!-- dir_3e45206aa664ce156010f66976f4f502 -->
<g id="node15" class="node"><title>dir_3e45206aa664ce156010f66976f4f502</title>
<g id="a_node15"><a xlink:href="dir_3e45206aa664ce156010f66976f4f502.html" target="_top" xlink:title="df8">
<polygon fill="white" stroke="black" points="78,-60 24,-60 24,-24 78,-24 78,-60"/>
<text text-anchor="middle" x="51" y="-39.5" font-family="Helvetica,sans-Serif" font-size="10.00">df8</text>
</a>
</g>
</g>
</g>
</svg>
