<?xml version="1.0" encoding="UTF-8" standalone="no"?>
<!DOCTYPE svg PUBLIC "-//W3C//DTD SVG 1.1//EN"
 "http://www.w3.org/Graphics/SVG/1.1/DTD/svg11.dtd">
<!-- Generated by graphviz version 2.34.0 (20130907.0111)
 -->
<!-- Title: D:/Projets/Final&#45;Bomber/Site web/dd Pages: 1 -->
<!--zoomable 111 -->
<svg id="main" version="1.1" xmlns="http://www.w3.org/2000/svg" xmlns:xlink="http://www.w3.org/1999/xlink" xml:space="preserve" onload="init(evt)">
<style type="text/css"><![CDATA[
.edge:hover path { stroke: red; }
.edge:hover polygon { stroke: red; fill: red; }
]]></style>
<script type="text/javascript"><![CDATA[
var edges = document.getElementsByTagName('g');
if (edges && edges.length) {
  for (var i=0;i<edges.length;i++) {
    if (edges[i].id.substr(0,4)=='edge') {
      edges[i].setAttribute('class','edge');
    }
  }
}
]]></script>
        <defs>
                <circle id="rim" cx="0" cy="0" r="7"/>
                <circle id="rim2" cx="0" cy="0" r="3.5"/>
                <g id="zoomPlus">
                        <use xlink:href="#rim" fill="#404040">
                                <set attributeName="fill" to="#808080" begin="zoomplus.mouseover" end="zoomplus.mouseout"/>
                        </use>
                        <path d="M-4,0h8M0,-4v8" fill="none" stroke="white" stroke-width="1.5" pointer-events="none"/>
                </g>
                <g id="zoomMin">
                        <use xlink:href="#rim" fill="#404040">
                                <set attributeName="fill" to="#808080" begin="zoomminus.mouseover" end="zoomminus.mouseout"/>
                        </use>
                        <path d="M-4,0h8" fill="none" stroke="white" stroke-width="1.5" pointer-events="none"/>
                </g>
                <g id="dirArrow">
                        <path fill="none" stroke="white" stroke-width="1.5" d="M0,-3.0v7 M-2.5,-0.5L0,-3.0L2.5,-0.5"/>
                </g>
               <g id="resetDef">
                       <use xlink:href="#rim2" fill="#404040">
                               <set attributeName="fill" to="#808080" begin="reset.mouseover" end="reset.mouseout"/>
                       </use>
               </g>
        </defs>

<script type="text/javascript">
var viewWidth = 1478;
var viewHeight = 111;
var sectionId = 'dynsection-0';
</script>
<script xlink:href="svgpan.js"/>
<svg id="graph" class="graph">
<g id="viewport">
<title>D:/Projets/Final&#45;Bomber/Site web/dd</title>
<polygon fill="white" stroke="white" points="-4,4 -4,-107 1474,-107 1474,4 -4,4"/>
<g id="clust1" class="cluster"><title>clusterdir_f1660b4b119ee78966fd57f74fde339b</title>
<g id="a_clust1"><a xlink:href="dir_f1660b4b119ee78966fd57f74fde339b.html" target="_top" xlink:title="Site web">
<polygon fill="#ddddee" stroke="black" points="8,-8 8,-95 1462,-95 1462,-8 8,-8"/>
<text text-anchor="middle" x="735" y="-83" font-family="Helvetica,sans-Serif" font-size="10.00">Site web</text>
</a>
</g>
</g>
<g id="clust2" class="cluster"><title>clusterdir_acfc3bdd052b273cbec3e1492cc571a3</title>
<g id="a_clust2"><a xlink:href="dir_acfc3bdd052b273cbec3e1492cc571a3.html" target="_top">
<polygon fill="#eeeeff" stroke="black" points="16,-16 16,-68 1454,-68 1454,-16 16,-16"/>
</a>
</g>
</g>
<!-- dir_acfc3bdd052b273cbec3e1492cc571a3 -->
<g id="node1" class="node"><title>dir_acfc3bdd052b273cbec3e1492cc571a3</title>
<text text-anchor="middle" x="1419" y="-39.5" font-family="Helvetica,sans-Serif" font-size="10.00">dd</text>
</g>
<!-- dir_bc7fe16afd1862d07fabb400bc92f51c -->
<g id="node2" class="node"><title>dir_bc7fe16afd1862d07fabb400bc92f51c</title>
<g id="a_node2"><a xlink:href="dir_bc7fe16afd1862d07fabb400bc92f51c.html" target="_top" xlink:title="d01">
<polygon fill="white" stroke="black" points="1374,-60 1320,-60 1320,-24 1374,-24 1374,-60"/>
<text text-anchor="middle" x="1347" y="-39.5" font-family="Helvetica,sans-Serif" font-size="10.00">d01</text>
</a>
</g>
</g>
<!-- dir_48b99b43f857d0b78a95eefed13124ec -->
<g id="node3" class="node"><title>dir_48b99b43f857d0b78a95eefed13124ec</title>
<g id="a_node3"><a xlink:href="dir_48b99b43f857d0b78a95eefed13124ec.html" target="_top" xlink:title="d03">
<polygon fill="white" stroke="black" points="1302,-60 1248,-60 1248,-24 1302,-24 1302,-60"/>
<text text-anchor="middle" x="1275" y="-39.5" font-family="Helvetica,sans-Serif" font-size="10.00">d03</text>
</a>
</g>
</g>
<!-- dir_f031e123666305cba6a99449148fdc66 -->
<g id="node4" class="node"><title>dir_f031e123666305cba6a99449148fdc66</title>
<g id="a_node4"><a xlink:href="dir_f031e123666305cba6a99449148fdc66.html" target="_top" xlink:title="d08">
<polygon fill="white" stroke="black" points="1230,-60 1176,-60 1176,-24 1230,-24 1230,-60"/>
<text text-anchor="middle" x="1203" y="-39.5" font-family="Helvetica,sans-Serif" font-size="10.00">d08</text>
</a>
</g>
</g>
<!-- dir_b6df24ba5f4de36a0933985790f1b7ec -->
<g id="node5" class="node"><title>dir_b6df24ba5f4de36a0933985790f1b7ec</title>
<g id="a_node5"><a xlink:href="dir_b6df24ba5f4de36a0933985790f1b7ec.html" target="_top" xlink:title="d18">
<polygon fill="white" stroke="black" points="1158,-60 1104,-60 1104,-24 1158,-24 1158,-60"/>
<text text-anchor="middle" x="1131" y="-39.5" font-family="Helvetica,sans-Serif" font-size="10.00">d18</text>
</a>
</g>
</g>
<!-- dir_ed7c7dd8945ad6db280a218e6ac68c4d -->
<g id="node6" class="node"><title>dir_ed7c7dd8945ad6db280a218e6ac68c4d</title>
<g id="a_node6"><a xlink:href="dir_ed7c7dd8945ad6db280a218e6ac68c4d.html" target="_top" xlink:title="d2b">
<polygon fill="white" stroke="black" points="1086,-60 1032,-60 1032,-24 1086,-24 1086,-60"/>
<text text-anchor="middle" x="1059" y="-39.5" font-family="Helvetica,sans-Serif" font-size="10.00">d2b</text>
</a>
</g>
</g>
<!-- dir_d0b2aef98f76b95155d864d1d1623053 -->
<g id="node7" class="node"><title>dir_d0b2aef98f76b95155d864d1d1623053</title>
<g id="a_node7"><a xlink:href="dir_d0b2aef98f76b95155d864d1d1623053.html" target="_top" xlink:title="d39">
<polygon fill="white" stroke="black" points="1014,-60 960,-60 960,-24 1014,-24 1014,-60"/>
<text text-anchor="middle" x="987" y="-39.5" font-family="Helvetica,sans-Serif" font-size="10.00">d39</text>
</a>
</g>
</g>
<!-- dir_543c02aaef68e5a2fc09b470ef52f9ad -->
<g id="node8" class="node"><title>dir_543c02aaef68e5a2fc09b470ef52f9ad</title>
<g id="a_node8"><a xlink:href="dir_543c02aaef68e5a2fc09b470ef52f9ad.html" target="_top" xlink:title="d50">
<polygon fill="white" stroke="black" points="942,-60 888,-60 888,-24 942,-24 942,-60"/>
<text text-anchor="middle" x="915" y="-39.5" font-family="Helvetica,sans-Serif" font-size="10.00">d50</text>
</a>
</g>
</g>
<!-- dir_8e52985f169b3a318ba5142b57323406 -->
<g id="node9" class="node"><title>dir_8e52985f169b3a318ba5142b57323406</title>
<g id="a_node9"><a xlink:href="dir_8e52985f169b3a318ba5142b57323406.html" target="_top" xlink:title="d60">
<polygon fill="white" stroke="black" points="870,-60 816,-60 816,-24 870,-24 870,-60"/>
<text text-anchor="middle" x="843" y="-39.5" font-family="Helvetica,sans-Serif" font-size="10.00">d60</text>
</a>
</g>
</g>
<!-- dir_dc3ec5c3e163370fd697ac289d3c8fbf -->
<g id="node10" class="node"><title>dir_dc3ec5c3e163370fd697ac289d3c8fbf</title>
<g id="a_node10"><a xlink:href="dir_dc3ec5c3e163370fd697ac289d3c8fbf.html" target="_top" xlink:title="d6e">
<polygon fill="white" stroke="black" points="798,-60 744,-60 744,-24 798,-24 798,-60"/>
<text text-anchor="middle" x="771" y="-39.5" font-family="Helvetica,sans-Serif" font-size="10.00">d6e</text>
</a>
</g>
</g>
<!-- dir_26c71b8132399e37bd820b9df419137c -->
<g id="node11" class="node"><title>dir_26c71b8132399e37bd820b9df419137c</title>
<g id="a_node11"><a xlink:href="dir_26c71b8132399e37bd820b9df419137c.html" target="_top" xlink:title="d70">
<polygon fill="white" stroke="black" points="726,-60 672,-60 672,-24 726,-24 726,-60"/>
<text text-anchor="middle" x="699" y="-39.5" font-family="Helvetica,sans-Serif" font-size="10.00">d70</text>
</a>
</g>
</g>
<!-- dir_2ca34138d45f20598061fb08d4f6281d -->
<g id="node12" class="node"><title>dir_2ca34138d45f20598061fb08d4f6281d</title>
<g id="a_node12"><a xlink:href="dir_2ca34138d45f20598061fb08d4f6281d.html" target="_top" xlink:title="d7b">
<polygon fill="white" stroke="black" points="654,-60 600,-60 600,-24 654,-24 654,-60"/>
<text text-anchor="middle" x="627" y="-39.5" font-family="Helvetica,sans-Serif" font-size="10.00">d7b</text>
</a>
</g>
</g>
<!-- dir_846c58f9fa765069bd7543b82f17b5db -->
<g id="node13" class="node"><title>dir_846c58f9fa765069bd7543b82f17b5db</title>
<g id="a_node13"><a xlink:href="dir_846c58f9fa765069bd7543b82f17b5db.html" target="_top" xlink:title="d91">
<polygon fill="white" stroke="black" points="582,-60 528,-60 528,-24 582,-24 582,-60"/>
<text text-anchor="middle" x="555" y="-39.5" font-family="Helvetica,sans-Serif" font-size="10.00">d91</text>
</a>
</g>
</g>
<!-- dir_5748074a1047b2c967c10ba6b0a37f4a -->
<g id="node14" class="node"><title>dir_5748074a1047b2c967c10ba6b0a37f4a</title>
<g id="a_node14"><a xlink:href="dir_5748074a1047b2c967c10ba6b0a37f4a.html" target="_top" xlink:title="d9b">
<polygon fill="white" stroke="black" points="510,-60 456,-60 456,-24 510,-24 510,-60"/>
<text text-anchor="middle" x="483" y="-39.5" font-family="Helvetica,sans-Serif" font-size="10.00">d9b</text>
</a>
</g>
</g>
<!-- dir_cf7e0341ed2cf65f961788c5575819ec -->
<g id="node15" class="node"><title>dir_cf7e0341ed2cf65f961788c5575819ec</title>
<g id="a_node15"><a xlink:href="dir_cf7e0341ed2cf65f961788c5575819ec.html" target="_top" xlink:title="dab">
<polygon fill="white" stroke="black" points="438,-60 384,-60 384,-24 438,-24 438,-60"/>
<text text-anchor="middle" x="411" y="-39.5" font-family="Helvetica,sans-Serif" font-size="10.00">dab</text>
</a>
</g>
</g>
<!-- dir_b60f4f7807a370103cbee6f6f720d39a -->
<g id="node16" class="node"><title>dir_b60f4f7807a370103cbee6f6f720d39a</title>
<g id="a_node16"><a xlink:href="dir_b60f4f7807a370103cbee6f6f720d39a.html" target="_top" xlink:title="db1">
<polygon fill="white" stroke="black" points="366,-60 312,-60 312,-24 366,-24 366,-60"/>
<text text-anchor="middle" x="339" y="-39.5" font-family="Helvetica,sans-Serif" font-size="10.00">db1</text>
</a>
</g>
</g>
<!-- dir_087745f64c5740dd626429ba58aa4f31 -->
<g id="node17" class="node"><title>dir_087745f64c5740dd626429ba58aa4f31</title>
<g id="a_node17"><a xlink:href="dir_087745f64c5740dd626429ba58aa4f31.html" target="_top" xlink:title="dbb">
<polygon fill="white" stroke="black" points="294,-60 240,-60 240,-24 294,-24 294,-60"/>
<text text-anchor="middle" x="267" y="-39.5" font-family="Helvetica,sans-Serif" font-size="10.00">dbb</text>
</a>
</g>
</g>
<!-- dir_2428dac8a5c3f6518c21e174692e8e66 -->
<g id="node18" class="node"><title>dir_2428dac8a5c3f6518c21e174692e8e66</title>
<g id="a_node18"><a xlink:href="dir_2428dac8a5c3f6518c21e174692e8e66.html" target="_top" xlink:title="dc9">
<polygon fill="white" stroke="black" points="222,-60 168,-60 168,-24 222,-24 222,-60"/>
<text text-anchor="middle" x="195" y="-39.5" font-family="Helvetica,sans-Serif" font-size="10.00">dc9</text>
</a>
</g>
</g>
<!-- dir_2e8d21cfc07c1109c0a615f3f6966e4a -->
<g id="node19" class="node"><title>dir_2e8d21cfc07c1109c0a615f3f6966e4a</title>
<g id="a_node19"><a xlink:href="dir_2e8d21cfc07c1109c0a615f3f6966e4a.html" target="_top" xlink:title="de5">
<polygon fill="white" stroke="black" points="150,-60 96,-60 96,-24 150,-24 150,-60"/>
<text text-anchor="middle" x="123" y="-39.5" font-family="Helvetica,sans-Serif" font-size="10.00">de5</text>
</a>
</g>
</g>
<!-- dir_b5a682592b3e3fb3034c389be61b8c6b -->
<g id="node20" class="node"><title>dir_b5a682592b3e3fb3034c389be61b8c6b</title>
<g id="a_node20"><a xlink:href="dir_b5a682592b3e3fb3034c389be61b8c6b.html" target="_top" xlink:title="df2">
<polygon fill="white" stroke="black" points="78,-60 24,-60 24,-24 78,-24 78,-60"/>
<text text-anchor="middle" x="51" y="-39.5" font-family="Helvetica,sans-Serif" font-size="10.00">df2</text>
</a>
</g>
</g>
</g>
</svg>
        <g id="navigator" transform="translate(0 0)" fill="#404254">
                <rect fill="#f2f5e9" fill-opacity="0.5" stroke="#606060" stroke-width=".5" x="0" y="0" width="60" height="60"/>
                <use id="zoomplus" xlink:href="#zoomPlus" x="17" y="9" onmousedown="handleZoom(evt,'in')"/>
                <use id="zoomminus" xlink:href="#zoomMin" x="42" y="9" onmousedown="handleZoom(evt,'out')"/>
                <use id="reset" xlink:href="#resetDef" x="30" y="36" onmousedown="handleReset()"/>
                <g id="arrowUp" xlink:href="#dirArrow" transform="translate(30 24)" onmousedown="handlePan(0,-1)">
                  <use xlink:href="#rim" fill="#404040">
                        <set attributeName="fill" to="#808080" begin="arrowUp.mouseover" end="arrowUp.mouseout"/>
                  </use>
                  <path fill="none" stroke="white" stroke-width="1.5" d="M0,-3.0v7 M-2.5,-0.5L0,-3.0L2.5,-0.5"/>
                </g>
                <g id="arrowRight" xlink:href="#dirArrow" transform="rotate(90) translate(36 -43)" onmousedown="handlePan(1,0)">
                  <use xlink:href="#rim" fill="#404040">
                        <set attributeName="fill" to="#808080" begin="arrowRight.mouseover" end="arrowRight.mouseout"/>
                  </use>
                  <path fill="none" stroke="white" stroke-width="1.5" d="M0,-3.0v7 M-2.5,-0.5L0,-3.0L2.5,-0.5"/>
                </g>
                <g id="arrowDown" xlink:href="#dirArrow" transform="rotate(180) translate(-30 -48)" onmousedown="handlePan(0,1)">
                  <use xlink:href="#rim" fill="#404040">
                        <set attributeName="fill" to="#808080" begin="arrowDown.mouseover" end="arrowDown.mouseout"/>
                  </use>
                  <path fill="none" stroke="white" stroke-width="1.5" d="M0,-3.0v7 M-2.5,-0.5L0,-3.0L2.5,-0.5"/>
                </g>
                <g id="arrowLeft" xlink:href="#dirArrow" transform="rotate(270) translate(-36 17)" onmousedown="handlePan(-1,0)">
                  <use xlink:href="#rim" fill="#404040">
                        <set attributeName="fill" to="#808080" begin="arrowLeft.mouseover" end="arrowLeft.mouseout"/>
                  </use>
                  <path fill="none" stroke="white" stroke-width="1.5" d="M0,-3.0v7 M-2.5,-0.5L0,-3.0L2.5,-0.5"/>
                </g>
        </g>
        <svg viewBox="0 0 15 15" width="100%" height="30px" preserveAspectRatio="xMaxYMin meet">
         <g id="arrow_out" transform="scale(0.3 0.3)">
          <a xlink:href="dir_acfc3bdd052b273cbec3e1492cc571a3_dep_org.svg" target="_base">
           <rect id="button" ry="5" rx="5" y="6" x="6" height="38" width="38"
                fill="#f2f5e9" fill-opacity="0.5" stroke="#606060" stroke-width="1.0"/>
           <path id="arrow"
             d="M 11.500037,31.436501 C 11.940474,20.09759 22.043105,11.32322 32.158766,21.979434 L 37.068811,17.246167 C 37.068811,17.246167 37.088388,32 37.088388,32 L 22.160133,31.978069 C 22.160133,31.978069 26.997745,27.140456 26.997745,27.140456 C 18.528582,18.264221 13.291696,25.230495 11.500037,31.436501 z"
             style="fill:#404040;"/>
          </a>
         </g>
        </svg>
</svg>
