<?xml version="1.0" encoding="UTF-8" standalone="no"?>
<!DOCTYPE svg PUBLIC "-//W3C//DTD SVG 1.1//EN"
 "http://www.w3.org/Graphics/SVG/1.1/DTD/svg11.dtd">
<!-- Generated by graphviz version 2.34.0 (20130907.0111)
 -->
<!-- Title: D:/Projets/Final&#45;Bomber/Site web/d1 Pages: 1 -->
<!--zoomable 111 -->
<svg id="main" version="1.1" xmlns="http://www.w3.org/2000/svg" xmlns:xlink="http://www.w3.org/1999/xlink" xml:space="preserve" onload="init(evt)">
<style type="text/css"><![CDATA[
.edge:hover path { stroke: red; }
.edge:hover polygon { stroke: red; fill: red; }
]]></style>
<script type="text/javascript"><![CDATA[
var edges = document.getElementsByTagName('g');
if (edges && edges.length) {
  for (var i=0;i<edges.length;i++) {
    if (edges[i].id.substr(0,4)=='edge') {
      edges[i].setAttribute('class','edge');
    }
  }
}
]]></script>
        <defs>
                <circle id="rim" cx="0" cy="0" r="7"/>
                <circle id="rim2" cx="0" cy="0" r="3.5"/>
                <g id="zoomPlus">
                        <use xlink:href="#rim" fill="#404040">
                                <set attributeName="fill" to="#808080" begin="zoomplus.mouseover" end="zoomplus.mouseout"/>
                        </use>
                        <path d="M-4,0h8M0,-4v8" fill="none" stroke="white" stroke-width="1.5" pointer-events="none"/>
                </g>
                <g id="zoomMin">
                        <use xlink:href="#rim" fill="#404040">
                                <set attributeName="fill" to="#808080" begin="zoomminus.mouseover" end="zoomminus.mouseout"/>
                        </use>
                        <path d="M-4,0h8" fill="none" stroke="white" stroke-width="1.5" pointer-events="none"/>
                </g>
                <g id="dirArrow">
                        <path fill="none" stroke="white" stroke-width="1.5" d="M0,-3.0v7 M-2.5,-0.5L0,-3.0L2.5,-0.5"/>
                </g>
               <g id="resetDef">
                       <use xlink:href="#rim2" fill="#404040">
                               <set attributeName="fill" to="#808080" begin="reset.mouseover" end="reset.mouseout"/>
                       </use>
               </g>
        </defs>

<script type="text/javascript">
var viewWidth = 1190;
var viewHeight = 111;
var sectionId = 'dynsection-0';
</script>
<script xlink:href="svgpan.js"/>
<svg id="graph" class="graph">
<g id="viewport">
<title>D:/Projets/Final&#45;Bomber/Site web/d1</title>
<polygon fill="white" stroke="white" points="-4,4 -4,-107 1186,-107 1186,4 -4,4"/>
<g id="clust1" class="cluster"><title>clusterdir_f1660b4b119ee78966fd57f74fde339b</title>
<g id="a_clust1"><a xlink:href="dir_f1660b4b119ee78966fd57f74fde339b.html" target="_top" xlink:title="Site web">
<polygon fill="#ddddee" stroke="black" points="8,-8 8,-95 1174,-95 1174,-8 8,-8"/>
<text text-anchor="middle" x="591" y="-83" font-family="Helvetica,sans-Serif" font-size="10.00">Site web</text>
</a>
</g>
</g>
<g id="clust2" class="cluster"><title>clusterdir_a94647505e255f51004bc4a3e79e2b74</title>
<g id="a_clust2"><a xlink:href="dir_a94647505e255f51004bc4a3e79e2b74.html" target="_top">
<polygon fill="#eeeeff" stroke="black" points="16,-16 16,-68 1166,-68 1166,-16 16,-16"/>
</a>
</g>
</g>
<!-- dir_a94647505e255f51004bc4a3e79e2b74 -->
<g id="node1" class="node"><title>dir_a94647505e255f51004bc4a3e79e2b74</title>
<text text-anchor="middle" x="1131" y="-39.5" font-family="Helvetica,sans-Serif" font-size="10.00">d1</text>
</g>
<!-- dir_77b0f88b4cdbcda57e230ae1e31776a0 -->
<g id="node2" class="node"><title>dir_77b0f88b4cdbcda57e230ae1e31776a0</title>
<g id="a_node2"><a xlink:href="dir_77b0f88b4cdbcda57e230ae1e31776a0.html" target="_top" xlink:title="d4e">
<polygon fill="white" stroke="black" points="1086,-60 1032,-60 1032,-24 1086,-24 1086,-60"/>
<text text-anchor="middle" x="1059" y="-39.5" font-family="Helvetica,sans-Serif" font-size="10.00">d4e</text>
</a>
</g>
</g>
<!-- dir_8113c18c8d76c8e1e6b9755f92a9f007 -->
<g id="node3" class="node"><title>dir_8113c18c8d76c8e1e6b9755f92a9f007</title>
<g id="a_node3"><a xlink:href="dir_8113c18c8d76c8e1e6b9755f92a9f007.html" target="_top" xlink:title="d50">
<polygon fill="white" stroke="black" points="1014,-60 960,-60 960,-24 1014,-24 1014,-60"/>
<text text-anchor="middle" x="987" y="-39.5" font-family="Helvetica,sans-Serif" font-size="10.00">d50</text>
</a>
</g>
</g>
<!-- dir_46f48a3d647b1d5e3dcdd9503aebd59c -->
<g id="node4" class="node"><title>dir_46f48a3d647b1d5e3dcdd9503aebd59c</title>
<g id="a_node4"><a xlink:href="dir_46f48a3d647b1d5e3dcdd9503aebd59c.html" target="_top" xlink:title="d6f">
<polygon fill="white" stroke="black" points="942,-60 888,-60 888,-24 942,-24 942,-60"/>
<text text-anchor="middle" x="915" y="-39.5" font-family="Helvetica,sans-Serif" font-size="10.00">d6f</text>
</a>
</g>
</g>
<!-- dir_894ce8d7053f93fc52a4dbd63212221a -->
<g id="node5" class="node"><title>dir_894ce8d7053f93fc52a4dbd63212221a</title>
<g id="a_node5"><a xlink:href="dir_894ce8d7053f93fc52a4dbd63212221a.html" target="_top" xlink:title="d79">
<polygon fill="white" stroke="black" points="870,-60 816,-60 816,-24 870,-24 870,-60"/>
<text text-anchor="middle" x="843" y="-39.5" font-family="Helvetica,sans-Serif" font-size="10.00">d79</text>
</a>
</g>
</g>
<!-- dir_577582187a68b5bc9efdd34983e0accb -->
<g id="node6" class="node"><title>dir_577582187a68b5bc9efdd34983e0accb</title>
<g id="a_node6"><a xlink:href="dir_577582187a68b5bc9efdd34983e0accb.html" target="_top" xlink:title="d7e">
<polygon fill="white" stroke="black" points="798,-60 744,-60 744,-24 798,-24 798,-60"/>
<text text-anchor="middle" x="771" y="-39.5" font-family="Helvetica,sans-Serif" font-size="10.00">d7e</text>
</a>
</g>
</g>
<!-- dir_d34920aeecb8e4a3d84efc1569da3c54 -->
<g id="node7" class="node"><title>dir_d34920aeecb8e4a3d84efc1569da3c54</title>
<g id="a_node7"><a xlink:href="dir_d34920aeecb8e4a3d84efc1569da3c54.html" target="_top" xlink:title="d85">
<polygon fill="white" stroke="black" points="726,-60 672,-60 672,-24 726,-24 726,-60"/>
<text text-anchor="middle" x="699" y="-39.5" font-family="Helvetica,sans-Serif" font-size="10.00">d85</text>
</a>
</g>
</g>
<!-- dir_24dc632f3d63b64e73df2fbc18809d43 -->
<g id="node8" class="node"><title>dir_24dc632f3d63b64e73df2fbc18809d43</title>
<g id="a_node8"><a xlink:href="dir_24dc632f3d63b64e73df2fbc18809d43.html" target="_top" xlink:title="d86">
<polygon fill="white" stroke="black" points="654,-60 600,-60 600,-24 654,-24 654,-60"/>
<text text-anchor="middle" x="627" y="-39.5" font-family="Helvetica,sans-Serif" font-size="10.00">d86</text>
</a>
</g>
</g>
<!-- dir_b60b6bc485c3da7607180ece8e9e34e5 -->
<g id="node9" class="node"><title>dir_b60b6bc485c3da7607180ece8e9e34e5</title>
<g id="a_node9"><a xlink:href="dir_b60b6bc485c3da7607180ece8e9e34e5.html" target="_top" xlink:title="d9e">
<polygon fill="white" stroke="black" points="582,-60 528,-60 528,-24 582,-24 582,-60"/>
<text text-anchor="middle" x="555" y="-39.5" font-family="Helvetica,sans-Serif" font-size="10.00">d9e</text>
</a>
</g>
</g>
<!-- dir_3e18dc8c34e1df859d56a55957dea4a0 -->
<g id="node10" class="node"><title>dir_3e18dc8c34e1df859d56a55957dea4a0</title>
<g id="a_node10"><a xlink:href="dir_3e18dc8c34e1df859d56a55957dea4a0.html" target="_top" xlink:title="da1">
<polygon fill="white" stroke="black" points="510,-60 456,-60 456,-24 510,-24 510,-60"/>
<text text-anchor="middle" x="483" y="-39.5" font-family="Helvetica,sans-Serif" font-size="10.00">da1</text>
</a>
</g>
</g>
<!-- dir_2e2054200863af2884529567eccec8cb -->
<g id="node11" class="node"><title>dir_2e2054200863af2884529567eccec8cb</title>
<g id="a_node11"><a xlink:href="dir_2e2054200863af2884529567eccec8cb.html" target="_top" xlink:title="da3">
<polygon fill="white" stroke="black" points="438,-60 384,-60 384,-24 438,-24 438,-60"/>
<text text-anchor="middle" x="411" y="-39.5" font-family="Helvetica,sans-Serif" font-size="10.00">da3</text>
</a>
</g>
</g>
<!-- dir_322ae73f1b5e78ce53646fdc76039b34 -->
<g id="node12" class="node"><title>dir_322ae73f1b5e78ce53646fdc76039b34</title>
<g id="a_node12"><a xlink:href="dir_322ae73f1b5e78ce53646fdc76039b34.html" target="_top" xlink:title="da6">
<polygon fill="white" stroke="black" points="366,-60 312,-60 312,-24 366,-24 366,-60"/>
<text text-anchor="middle" x="339" y="-39.5" font-family="Helvetica,sans-Serif" font-size="10.00">da6</text>
</a>
</g>
</g>
<!-- dir_88514af73e4749fc0b56d1300729d376 -->
<g id="node13" class="node"><title>dir_88514af73e4749fc0b56d1300729d376</title>
<g id="a_node13"><a xlink:href="dir_88514af73e4749fc0b56d1300729d376.html" target="_top" xlink:title="da8">
<polygon fill="white" stroke="black" points="294,-60 240,-60 240,-24 294,-24 294,-60"/>
<text text-anchor="middle" x="267" y="-39.5" font-family="Helvetica,sans-Serif" font-size="10.00">da8</text>
</a>
</g>
</g>
<!-- dir_17fad51360acce20f6b4618989a27e70 -->
<g id="node14" class="node"><title>dir_17fad51360acce20f6b4618989a27e70</title>
<g id="a_node14"><a xlink:href="dir_17fad51360acce20f6b4618989a27e70.html" target="_top" xlink:title="dbb">
<polygon fill="white" stroke="black" points="222,-60 168,-60 168,-24 222,-24 222,-60"/>
<text text-anchor="middle" x="195" y="-39.5" font-family="Helvetica,sans-Serif" font-size="10.00">dbb</text>
</a>
</g>
</g>
<!-- dir_19004b1bd53406370ab13879281df7a9 -->
<g id="node15" class="node"><title>dir_19004b1bd53406370ab13879281df7a9</title>
<g id="a_node15"><a xlink:href="dir_19004b1bd53406370ab13879281df7a9.html" target="_top" xlink:title="dc1">
<polygon fill="white" stroke="black" points="150,-60 96,-60 96,-24 150,-24 150,-60"/>
<text text-anchor="middle" x="123" y="-39.5" font-family="Helvetica,sans-Serif" font-size="10.00">dc1</text>
</a>
</g>
</g>
<!-- dir_8c48f1ffafd343f33565830fad2debe0 -->
<g id="node16" class="node"><title>dir_8c48f1ffafd343f33565830fad2debe0</title>
<g id="a_node16"><a xlink:href="dir_8c48f1ffafd343f33565830fad2debe0.html" target="_top" xlink:title="de8">
<polygon fill="white" stroke="black" points="78,-60 24,-60 24,-24 78,-24 78,-60"/>
<text text-anchor="middle" x="51" y="-39.5" font-family="Helvetica,sans-Serif" font-size="10.00">de8</text>
</a>
</g>
</g>
</g>
</svg>
        <g id="navigator" transform="translate(0 0)" fill="#404254">
                <rect fill="#f2f5e9" fill-opacity="0.5" stroke="#606060" stroke-width=".5" x="0" y="0" width="60" height="60"/>
                <use id="zoomplus" xlink:href="#zoomPlus" x="17" y="9" onmousedown="handleZoom(evt,'in')"/>
                <use id="zoomminus" xlink:href="#zoomMin" x="42" y="9" onmousedown="handleZoom(evt,'out')"/>
                <use id="reset" xlink:href="#resetDef" x="30" y="36" onmousedown="handleReset()"/>
                <g id="arrowUp" xlink:href="#dirArrow" transform="translate(30 24)" onmousedown="handlePan(0,-1)">
                  <use xlink:href="#rim" fill="#404040">
                        <set attributeName="fill" to="#808080" begin="arrowUp.mouseover" end="arrowUp.mouseout"/>
                  </use>
                  <path fill="none" stroke="white" stroke-width="1.5" d="M0,-3.0v7 M-2.5,-0.5L0,-3.0L2.5,-0.5"/>
                </g>
                <g id="arrowRight" xlink:href="#dirArrow" transform="rotate(90) translate(36 -43)" onmousedown="handlePan(1,0)">
                  <use xlink:href="#rim" fill="#404040">
                        <set attributeName="fill" to="#808080" begin="arrowRight.mouseover" end="arrowRight.mouseout"/>
                  </use>
                  <path fill="none" stroke="white" stroke-width="1.5" d="M0,-3.0v7 M-2.5,-0.5L0,-3.0L2.5,-0.5"/>
                </g>
                <g id="arrowDown" xlink:href="#dirArrow" transform="rotate(180) translate(-30 -48)" onmousedown="handlePan(0,1)">
                  <use xlink:href="#rim" fill="#404040">
                        <set attributeName="fill" to="#808080" begin="arrowDown.mouseover" end="arrowDown.mouseout"/>
                  </use>
                  <path fill="none" stroke="white" stroke-width="1.5" d="M0,-3.0v7 M-2.5,-0.5L0,-3.0L2.5,-0.5"/>
                </g>
                <g id="arrowLeft" xlink:href="#dirArrow" transform="rotate(270) translate(-36 17)" onmousedown="handlePan(-1,0)">
                  <use xlink:href="#rim" fill="#404040">
                        <set attributeName="fill" to="#808080" begin="arrowLeft.mouseover" end="arrowLeft.mouseout"/>
                  </use>
                  <path fill="none" stroke="white" stroke-width="1.5" d="M0,-3.0v7 M-2.5,-0.5L0,-3.0L2.5,-0.5"/>
                </g>
        </g>
        <svg viewBox="0 0 15 15" width="100%" height="30px" preserveAspectRatio="xMaxYMin meet">
         <g id="arrow_out" transform="scale(0.3 0.3)">
          <a xlink:href="dir_a94647505e255f51004bc4a3e79e2b74_dep_org.svg" target="_base">
           <rect id="button" ry="5" rx="5" y="6" x="6" height="38" width="38"
                fill="#f2f5e9" fill-opacity="0.5" stroke="#606060" stroke-width="1.0"/>
           <path id="arrow"
             d="M 11.500037,31.436501 C 11.940474,20.09759 22.043105,11.32322 32.158766,21.979434 L 37.068811,17.246167 C 37.068811,17.246167 37.088388,32 37.088388,32 L 22.160133,31.978069 C 22.160133,31.978069 26.997745,27.140456 26.997745,27.140456 C 18.528582,18.264221 13.291696,25.230495 11.500037,31.436501 z"
             style="fill:#404040;"/>
          </a>
         </g>
        </svg>
</svg>
