<?xml version="1.0" encoding="UTF-8" standalone="no"?>
<!DOCTYPE svg PUBLIC "-//W3C//DTD SVG 1.1//EN"
 "http://www.w3.org/Graphics/SVG/1.1/DTD/svg11.dtd">
<!-- Generated by graphviz version 2.34.0 (20130907.0111)
 -->
<!-- Title: D:/Projets/Final&#45;Bomber/Site web/d2 Pages: 1 -->
<svg width="1118pt" height="111pt"
 viewBox="0.00 0.00 1118.00 111.00" xmlns="http://www.w3.org/2000/svg" xmlns:xlink="http://www.w3.org/1999/xlink">
<g id="graph0" class="graph" transform="scale(1 1) rotate(0) translate(4 107)">
<title>D:/Projets/Final&#45;Bomber/Site web/d2</title>
<polygon fill="white" stroke="white" points="-4,4 -4,-107 1114,-107 1114,4 -4,4"/>
<g id="clust1" class="cluster"><title>clusterdir_f1660b4b119ee78966fd57f74fde339b</title>
<g id="a_clust1"><a xlink:href="dir_f1660b4b119ee78966fd57f74fde339b.html" target="_top" xlink:title="Site web">
<polygon fill="#ddddee" stroke="black" points="8,-8 8,-95 1102,-95 1102,-8 8,-8"/>
<text text-anchor="middle" x="555" y="-83" font-family="Helvetica,sans-Serif" font-size="10.00">Site web</text>
</a>
</g>
</g>
<g id="clust2" class="cluster"><title>clusterdir_e0aa1f53e42e17396ca064fdf0eeb01d</title>
<g id="a_clust2"><a xlink:href="dir_e0aa1f53e42e17396ca064fdf0eeb01d.html" target="_top">
<polygon fill="#eeeeff" stroke="black" points="16,-16 16,-68 1094,-68 1094,-16 16,-16"/>
</a>
</g>
</g>
<!-- dir_e0aa1f53e42e17396ca064fdf0eeb01d -->
<g id="node1" class="node"><title>dir_e0aa1f53e42e17396ca064fdf0eeb01d</title>
<text text-anchor="middle" x="1059" y="-39.5" font-family="Helvetica,sans-Serif" font-size="10.00">d2</text>
</g>
<!-- dir_dd9a23a0da9b616d5b3b3704d3af3d04 -->
<g id="node2" class="node"><title>dir_dd9a23a0da9b616d5b3b3704d3af3d04</title>
<g id="a_node2"><a xlink:href="dir_dd9a23a0da9b616d5b3b3704d3af3d04.html" target="_top" xlink:title="d0d">
<polygon fill="white" stroke="black" points="1014,-60 960,-60 960,-24 1014,-24 1014,-60"/>
<text text-anchor="middle" x="987" y="-39.5" font-family="Helvetica,sans-Serif" font-size="10.00">d0d</text>
</a>
</g>
</g>
<!-- dir_15d187a4a57f9078cc328e91d785a858 -->
<g id="node3" class="node"><title>dir_15d187a4a57f9078cc328e91d785a858</title>
<g id="a_node3"><a xlink:href="dir_15d187a4a57f9078cc328e91d785a858.html" target="_top" xlink:title="d11">
<polygon fill="white" stroke="black" points="942,-60 888,-60 888,-24 942,-24 942,-60"/>
<text text-anchor="middle" x="915" y="-39.5" font-family="Helvetica,sans-Serif" font-size="10.00">d11</text>
</a>
</g>
</g>
<!-- dir_c7fbdd1427f75b6a2758b08bb31c3dc6 -->
<g id="node4" class="node"><title>dir_c7fbdd1427f75b6a2758b08bb31c3dc6</title>
<g id="a_node4"><a xlink:href="dir_c7fbdd1427f75b6a2758b08bb31c3dc6.html" target="_top" xlink:title="d1b">
<polygon fill="white" stroke="black" points="870,-60 816,-60 816,-24 870,-24 870,-60"/>
<text text-anchor="middle" x="843" y="-39.5" font-family="Helvetica,sans-Serif" font-size="10.00">d1b</text>
</a>
</g>
</g>
<!-- dir_0b8bb19b3221b74e93cb5dea91ff8c6a -->
<g id="node5" class="node"><title>dir_0b8bb19b3221b74e93cb5dea91ff8c6a</title>
<g id="a_node5"><a xlink:href="dir_0b8bb19b3221b74e93cb5dea91ff8c6a.html" target="_top" xlink:title="d3c">
<polygon fill="white" stroke="black" points="798,-60 744,-60 744,-24 798,-24 798,-60"/>
<text text-anchor="middle" x="771" y="-39.5" font-family="Helvetica,sans-Serif" font-size="10.00">d3c</text>
</a>
</g>
</g>
<!-- dir_e7da551ad7d61b39974858adf0555a62 -->
<g id="node6" class="node"><title>dir_e7da551ad7d61b39974858adf0555a62</title>
<g id="a_node6"><a xlink:href="dir_e7da551ad7d61b39974858adf0555a62.html" target="_top" xlink:title="d3f">
<polygon fill="white" stroke="black" points="726,-60 672,-60 672,-24 726,-24 726,-60"/>
<text text-anchor="middle" x="699" y="-39.5" font-family="Helvetica,sans-Serif" font-size="10.00">d3f</text>
</a>
</g>
</g>
<!-- dir_06ff39689aea63f915a28ac669e6af4d -->
<g id="node7" class="node"><title>dir_06ff39689aea63f915a28ac669e6af4d</title>
<g id="a_node7"><a xlink:href="dir_06ff39689aea63f915a28ac669e6af4d.html" target="_top" xlink:title="d6a">
<polygon fill="white" stroke="black" points="654,-60 600,-60 600,-24 654,-24 654,-60"/>
<text text-anchor="middle" x="627" y="-39.5" font-family="Helvetica,sans-Serif" font-size="10.00">d6a</text>
</a>
</g>
</g>
<!-- dir_2e0e7da3e8eebe62866bea551b893d03 -->
<g id="node8" class="node"><title>dir_2e0e7da3e8eebe62866bea551b893d03</title>
<g id="a_node8"><a xlink:href="dir_2e0e7da3e8eebe62866bea551b893d03.html" target="_top" xlink:title="d71">
<polygon fill="white" stroke="black" points="582,-60 528,-60 528,-24 582,-24 582,-60"/>
<text text-anchor="middle" x="555" y="-39.5" font-family="Helvetica,sans-Serif" font-size="10.00">d71</text>
</a>
</g>
</g>
<!-- dir_aa6423b5c0630ea5048fb73637ba7fee -->
<g id="node9" class="node"><title>dir_aa6423b5c0630ea5048fb73637ba7fee</title>
<g id="a_node9"><a xlink:href="dir_aa6423b5c0630ea5048fb73637ba7fee.html" target="_top" xlink:title="d80">
<polygon fill="white" stroke="black" points="510,-60 456,-60 456,-24 510,-24 510,-60"/>
<text text-anchor="middle" x="483" y="-39.5" font-family="Helvetica,sans-Serif" font-size="10.00">d80</text>
</a>
</g>
</g>
<!-- dir_8c67c3c37c3d2732a316ee7f7c05ad08 -->
<g id="node10" class="node"><title>dir_8c67c3c37c3d2732a316ee7f7c05ad08</title>
<g id="a_node10"><a xlink:href="dir_8c67c3c37c3d2732a316ee7f7c05ad08.html" target="_top" xlink:title="d97">
<polygon fill="white" stroke="black" points="438,-60 384,-60 384,-24 438,-24 438,-60"/>
<text text-anchor="middle" x="411" y="-39.5" font-family="Helvetica,sans-Serif" font-size="10.00">d97</text>
</a>
</g>
</g>
<!-- dir_1725c4e51868ca760e445505ecfce8f1 -->
<g id="node11" class="node"><title>dir_1725c4e51868ca760e445505ecfce8f1</title>
<g id="a_node11"><a xlink:href="dir_1725c4e51868ca760e445505ecfce8f1.html" target="_top" xlink:title="dc5">
<polygon fill="white" stroke="black" points="366,-60 312,-60 312,-24 366,-24 366,-60"/>
<text text-anchor="middle" x="339" y="-39.5" font-family="Helvetica,sans-Serif" font-size="10.00">dc5</text>
</a>
</g>
</g>
<!-- dir_5ab120b7d59ba54c1664ca368d8d3240 -->
<g id="node12" class="node"><title>dir_5ab120b7d59ba54c1664ca368d8d3240</title>
<g id="a_node12"><a xlink:href="dir_5ab120b7d59ba54c1664ca368d8d3240.html" target="_top" xlink:title="dd7">
<polygon fill="white" stroke="black" points="294,-60 240,-60 240,-24 294,-24 294,-60"/>
<text text-anchor="middle" x="267" y="-39.5" font-family="Helvetica,sans-Serif" font-size="10.00">dd7</text>
</a>
</g>
</g>
<!-- dir_87c3eb0d902dfb666b9901b6ee64a6c2 -->
<g id="node13" class="node"><title>dir_87c3eb0d902dfb666b9901b6ee64a6c2</title>
<g id="a_node13"><a xlink:href="dir_87c3eb0d902dfb666b9901b6ee64a6c2.html" target="_top" xlink:title="de3">
<polygon fill="white" stroke="black" points="222,-60 168,-60 168,-24 222,-24 222,-60"/>
<text text-anchor="middle" x="195" y="-39.5" font-family="Helvetica,sans-Serif" font-size="10.00">de3</text>
</a>
</g>
</g>
<!-- dir_85d984254355bf3db75be563ac44cfc8 -->
<g id="node14" class="node"><title>dir_85d984254355bf3db75be563ac44cfc8</title>
<g id="a_node14"><a xlink:href="dir_85d984254355bf3db75be563ac44cfc8.html" target="_top" xlink:title="df3">
<polygon fill="white" stroke="black" points="150,-60 96,-60 96,-24 150,-24 150,-60"/>
<text text-anchor="middle" x="123" y="-39.5" font-family="Helvetica,sans-Serif" font-size="10.00">df3</text>
</a>
</g>
</g>
<!-- dir_5a52b9eb105df1096da2a06df16d4b5d -->
<g id="node15" class="node"><title>dir_5a52b9eb105df1096da2a06df16d4b5d</title>
<g id="a_node15"><a xlink:href="dir_5a52b9eb105df1096da2a06df16d4b5d.html" target="_top" xlink:title="dfb">
<polygon fill="white" stroke="black" points="78,-60 24,-60 24,-24 78,-24 78,-60"/>
<text text-anchor="middle" x="51" y="-39.5" font-family="Helvetica,sans-Serif" font-size="10.00">dfb</text>
</a>
</g>
</g>
</g>
</svg>
