<?xml version="1.0" encoding="UTF-8" standalone="no"?>
<!DOCTYPE svg PUBLIC "-//W3C//DTD SVG 1.1//EN"
 "http://www.w3.org/Graphics/SVG/1.1/DTD/svg11.dtd">
<!-- Generated by graphviz version 2.34.0 (20130907.0111)
 -->
<!-- Title: D:/Projets/Final&#45;Bomber/Final&#45;Bomber/2 &#45; Server/Core Pages: 1 -->
<svg width="272pt" height="111pt"
 viewBox="0.00 0.00 272.00 111.00" xmlns="http://www.w3.org/2000/svg" xmlns:xlink="http://www.w3.org/1999/xlink">
<g id="graph0" class="graph" transform="scale(1 1) rotate(0) translate(4 107)">
<title>D:/Projets/Final&#45;Bomber/Final&#45;Bomber/2 &#45; Server/Core</title>
<polygon fill="white" stroke="white" points="-4,4 -4,-107 268,-107 268,4 -4,4"/>
<g id="clust1" class="cluster"><title>clusterdir_9f5ca9439b178aee938cd6991640c733</title>
<g id="a_clust1"><a xlink:href="dir_9f5ca9439b178aee938cd6991640c733.html" target="_top" xlink:title="2 &#45; Server">
<polygon fill="#ddddee" stroke="black" points="8,-8 8,-95 256,-95 256,-8 8,-8"/>
<text text-anchor="middle" x="132" y="-83" font-family="Helvetica,sans-Serif" font-size="10.00">2 &#45; Server</text>
</a>
</g>
</g>
<g id="clust2" class="cluster"><title>clusterdir_40718a2f22c8cab842d90fece013bda5</title>
<g id="a_clust2"><a xlink:href="dir_40718a2f22c8cab842d90fece013bda5.html" target="_top">
<polygon fill="#eeeeff" stroke="black" points="16,-16 16,-68 248,-68 248,-16 16,-16"/>
</a>
</g>
</g>
<!-- dir_40718a2f22c8cab842d90fece013bda5 -->
<g id="node1" class="node"><title>dir_40718a2f22c8cab842d90fece013bda5</title>
<text text-anchor="middle" x="213" y="-39.5" font-family="Helvetica,sans-Serif" font-size="10.00">Core</text>
</g>
<!-- dir_feeb35ddfdd1684ef3364cea63a396d2 -->
<g id="node2" class="node"><title>dir_feeb35ddfdd1684ef3364cea63a396d2</title>
<g id="a_node2"><a xlink:href="dir_feeb35ddfdd1684ef3364cea63a396d2.html" target="_top" xlink:title="Entities">
<polygon fill="white" stroke="black" points="168,-60 114,-60 114,-24 168,-24 168,-60"/>
<text text-anchor="middle" x="141" y="-39.5" font-family="Helvetica,sans-Serif" font-size="10.00">Entities</text>
</a>
</g>
</g>
<!-- dir_dc7bc593f0ce170d223f92cff3c23802 -->
<g id="node3" class="node"><title>dir_dc7bc593f0ce170d223f92cff3c23802</title>
<g id="a_node3"><a xlink:href="dir_dc7bc593f0ce170d223f92cff3c23802.html" target="_top" xlink:title="WorldEngine">
<polygon fill="white" stroke="black" points="96,-60 24,-60 24,-24 96,-24 96,-60"/>
<text text-anchor="middle" x="60" y="-39.5" font-family="Helvetica,sans-Serif" font-size="10.00">WorldEngine</text>
</a>
</g>
</g>
</g>
</svg>
