<?xml version="1.0" encoding="UTF-8" standalone="no"?>
<!DOCTYPE svg PUBLIC "-//W3C//DTD SVG 1.1//EN"
 "http://www.w3.org/Graphics/SVG/1.1/DTD/svg11.dtd">
<!-- Generated by graphviz version 2.34.0 (20130907.0111)
 -->
<!-- Title: Graph Legend Pages: 1 -->
<svg width="506pt" height="164pt"
 viewBox="0.00 0.00 506.00 164.00" xmlns="http://www.w3.org/2000/svg" xmlns:xlink="http://www.w3.org/1999/xlink">
<g id="graph0" class="graph" transform="scale(1 1) rotate(0) translate(4 160)">
<title>Graph Legend</title>
<polygon fill="white" stroke="white" points="-4,4 -4,-160 502,-160 502,4 -4,4"/>
<!-- Node9 -->
<g id="node1" class="node"><title>Node9</title>
<polygon fill="#bfbfbf" stroke="black" points="290.25,-19.5 237.75,-19.5 237.75,-0.5 290.25,-0.5 290.25,-19.5"/>
<text text-anchor="middle" x="264" y="-7.5" font-family="Helvetica,sans-Serif" font-size="10.00">Inherited</text>
</g>
<!-- Node10 -->
<g id="node2" class="node"><title>Node10</title>
<g id="a_node2"><a xlink:href="$classPublicBase.html" xlink:title="PublicBase">
<polygon fill="none" stroke="black" points="66,-87.5 0,-87.5 0,-68.5 66,-68.5 66,-87.5"/>
<text text-anchor="middle" x="33" y="-75.5" font-family="Helvetica,sans-Serif" font-size="10.00">PublicBase</text>
</a>
</g>
</g>
<!-- Node10&#45;&gt;Node9 -->
<g id="edge1" class="edge"><title>Node10&#45;&gt;Node9</title>
<path fill="none" stroke="midnightblue" d="M73.09,-65.5457C120.337,-52.0467 197.491,-30.0025 237.723,-18.5078"/>
<polygon fill="midnightblue" stroke="midnightblue" points="71.8529,-62.259 63.1992,-68.3717 73.776,-68.9897 71.8529,-62.259"/>
</g>
<!-- Node11 -->
<g id="node3" class="node"><title>Node11</title>
<g id="a_node3"><a xlink:href="$classTruncated.html" xlink:title="Truncated">
<polygon fill="none" stroke="red" points="62.25,-155.5 3.75,-155.5 3.75,-136.5 62.25,-136.5 62.25,-155.5"/>
<text text-anchor="middle" x="33" y="-143.5" font-family="Helvetica,sans-Serif" font-size="10.00">Truncated</text>
</a>
</g>
</g>
<!-- Node11&#45;&gt;Node10 -->
<g id="edge2" class="edge"><title>Node11&#45;&gt;Node10</title>
<path fill="none" stroke="midnightblue" d="M33,-126.041C33,-113.472 33,-97.5631 33,-87.8411"/>
<polygon fill="midnightblue" stroke="midnightblue" points="29.5001,-126.372 33,-136.372 36.5001,-126.372 29.5001,-126.372"/>
</g>
<!-- Node13 -->
<g id="node4" class="node"><title>Node13</title>
<g id="a_node4"><a xlink:href="$classProtectedBase.html" xlink:title="ProtectedBase">
<polygon fill="none" stroke="black" points="165.25,-87.5 84.75,-87.5 84.75,-68.5 165.25,-68.5 165.25,-87.5"/>
<text text-anchor="middle" x="125" y="-75.5" font-family="Helvetica,sans-Serif" font-size="10.00">ProtectedBase</text>
</a>
</g>
</g>
<!-- Node13&#45;&gt;Node9 -->
<g id="edge3" class="edge"><title>Node13&#45;&gt;Node9</title>
<path fill="none" stroke="darkgreen" d="M152.306,-64.0346C179.972,-50.898 221.992,-30.9463 245.824,-19.6305"/>
<polygon fill="darkgreen" stroke="darkgreen" points="150.704,-60.9207 143.172,-68.3717 153.706,-67.244 150.704,-60.9207"/>
</g>
<!-- Node14 -->
<g id="node5" class="node"><title>Node14</title>
<g id="a_node5"><a xlink:href="$classPrivateBase.html" xlink:title="PrivateBase">
<polygon fill="none" stroke="black" points="252,-87.5 184,-87.5 184,-68.5 252,-68.5 252,-87.5"/>
<text text-anchor="middle" x="218" y="-75.5" font-family="Helvetica,sans-Serif" font-size="10.00">PrivateBase</text>
</a>
</g>
</g>
<!-- Node14&#45;&gt;Node9 -->
<g id="edge4" class="edge"><title>Node14&#45;&gt;Node9</title>
<path fill="none" stroke="#8b1a1a" d="M229.892,-59.9377C238.831,-47.112 250.716,-30.0591 257.838,-19.8411"/>
<polygon fill="#8b1a1a" stroke="#8b1a1a" points="226.86,-58.1664 224.014,-68.3717 232.603,-62.1689 226.86,-58.1664"/>
</g>
<!-- Node15 -->
<g id="node6" class="node"><title>Node15</title>
<polygon fill="none" stroke="#bfbfbf" points="352,-87.5 270,-87.5 270,-68.5 352,-68.5 352,-87.5"/>
<text text-anchor="middle" x="311" y="-75.5" font-family="Helvetica,sans-Serif" font-size="10.00">Undocumented</text>
</g>
<!-- Node15&#45;&gt;Node9 -->
<g id="edge5" class="edge"><title>Node15&#45;&gt;Node9</title>
<path fill="none" stroke="midnightblue" d="M298.85,-59.9377C289.716,-47.112 277.572,-30.0591 270.296,-19.8411"/>
<polygon fill="midnightblue" stroke="midnightblue" points="296.204,-62.2562 304.856,-68.3717 301.906,-58.1957 296.204,-62.2562"/>
</g>
<!-- Node16 -->
<g id="node7" class="node"><title>Node16</title>
<g id="a_node7"><a xlink:href="$classTempl.html" xlink:title="Templ&lt; int &gt;">
<polygon fill="none" stroke="black" points="441.25,-87.5 370.75,-87.5 370.75,-68.5 441.25,-68.5 441.25,-87.5"/>
<text text-anchor="middle" x="406" y="-75.5" font-family="Helvetica,sans-Serif" font-size="10.00">Templ&lt; int &gt;</text>
</a>
</g>
</g>
<!-- Node16&#45;&gt;Node9 -->
<g id="edge6" class="edge"><title>Node16&#45;&gt;Node9</title>
<path fill="none" stroke="midnightblue" d="M378.105,-64.0346C349.841,-50.898 306.915,-30.9463 282.569,-19.6305"/>
<polygon fill="midnightblue" stroke="midnightblue" points="376.892,-67.3307 387.436,-68.3717 379.843,-60.9828 376.892,-67.3307"/>
</g>
<!-- Node17 -->
<g id="node8" class="node"><title>Node17</title>
<g id="a_node8"><a xlink:href="$classTempl.html" xlink:title="Templ&lt; T &gt;">
<polygon fill="none" stroke="black" points="439,-155.5 373,-155.5 373,-136.5 439,-136.5 439,-155.5"/>
<text text-anchor="middle" x="406" y="-143.5" font-family="Helvetica,sans-Serif" font-size="10.00">Templ&lt; T &gt;</text>
</a>
</g>
</g>
<!-- Node17&#45;&gt;Node16 -->
<g id="edge7" class="edge"><title>Node17&#45;&gt;Node16</title>
<path fill="none" stroke="orange" stroke-dasharray="5,2" d="M406,-126.041C406,-113.472 406,-97.5631 406,-87.8411"/>
<polygon fill="orange" stroke="orange" points="402.5,-126.372 406,-136.372 409.5,-126.372 402.5,-126.372"/>
<text text-anchor="middle" x="420.5" y="-109.5" font-family="Helvetica,sans-Serif" font-size="10.00">&lt; int &gt;</text>
</g>
<!-- Node18 -->
<g id="node9" class="node"><title>Node18</title>
<g id="a_node9"><a xlink:href="$classUsed.html" xlink:title="Used">
<polygon fill="none" stroke="black" points="498.25,-87.5 459.75,-87.5 459.75,-68.5 498.25,-68.5 498.25,-87.5"/>
<text text-anchor="middle" x="479" y="-75.5" font-family="Helvetica,sans-Serif" font-size="10.00">Used</text>
</a>
</g>
</g>
<!-- Node18&#45;&gt;Node9 -->
<g id="edge8" class="edge"><title>Node18&#45;&gt;Node9</title>
<path fill="none" stroke="#9a32cd" stroke-dasharray="5,2" d="M450.293,-68.0905C450.195,-68.0603 450.098,-68.0301 450,-68 393.198,-50.4823 326.585,-30.1101 290.498,-19.0881"/>
<polygon fill="#9a32cd" stroke="#9a32cd" points="449.072,-71.3763 459.66,-70.9874 451.141,-64.6889 449.072,-71.3763"/>
<text text-anchor="middle" x="419" y="-41.5" font-family="Helvetica,sans-Serif" font-size="10.00">m_usedClass</text>
</g>
</g>
</svg>
