<?xml version="1.0" encoding="UTF-8" standalone="no"?>
<!DOCTYPE svg PUBLIC "-//W3C//DTD SVG 1.1//EN"
 "http://www.w3.org/Graphics/SVG/1.1/DTD/svg11.dtd">
<!-- Generated by graphviz version 2.34.0 (20130907.0111)
 -->
<!-- Title: Graphical Class Hierarchy Pages: 1 -->
<svg width="1256pt" height="528pt"
 viewBox="0.00 0.00 1256.00 528.00" xmlns="http://www.w3.org/2000/svg" xmlns:xlink="http://www.w3.org/1999/xlink">
<g id="graph0" class="graph" transform="scale(1 1) rotate(0) translate(4 524)">
<title>Graphical Class Hierarchy</title>
<polygon fill="white" stroke="white" points="-4,4 -4,-524 1252,-524 1252,4 -4,4"/>
<!-- Node1 -->
<g id="node1" class="node"><title>Node1</title>
<g id="a_node1"><a xlink:href="interface_f_b_library_1_1_core_1_1_i_entity.html" target="_top" xlink:title="FBLibrary.Core.IEntity">
<polygon fill="white" stroke="black" points="0.5,-431.5 0.5,-450.5 113.5,-450.5 113.5,-431.5 0.5,-431.5"/>
<text text-anchor="middle" x="57" y="-438.5" font-family="Helvetica,sans-Serif" font-size="10.00">FBLibrary.Core.IEntity</text>
</a>
</g>
</g>
<!-- Node2 -->
<g id="node2" class="node"><title>Node2</title>
<g id="a_node2"><a xlink:href="class_f_b_library_1_1_core_1_1_base_entity.html" target="_top" xlink:title="FBLibrary.Core.BaseEntity">
<polygon fill="white" stroke="black" points="150.5,-431.5 150.5,-450.5 283.5,-450.5 283.5,-431.5 150.5,-431.5"/>
<text text-anchor="middle" x="217" y="-438.5" font-family="Helvetica,sans-Serif" font-size="10.00">FBLibrary.Core.BaseEntity</text>
</a>
</g>
</g>
<!-- Node1&#45;&gt;Node2 -->
<g id="edge1" class="edge"><title>Node1&#45;&gt;Node2</title>
<path fill="none" stroke="midnightblue" d="M123.83,-441C132.564,-441 141.519,-441 150.251,-441"/>
<polygon fill="midnightblue" stroke="midnightblue" points="123.705,-437.5 113.705,-441 123.705,-444.5 123.705,-437.5"/>
</g>
<!-- Node3 -->
<g id="node3" class="node"><title>Node3</title>
<g id="a_node3"><a xlink:href="class_f_b_client_1_1_core_1_1_entities_1_1_teleporter.html" target="_top" xlink:title="FBClient.Core.Entities.Teleporter">
<polygon fill="white" stroke="black" points="320.5,-469.5 320.5,-488.5 479.5,-488.5 479.5,-469.5 320.5,-469.5"/>
<text text-anchor="middle" x="400" y="-476.5" font-family="Helvetica,sans-Serif" font-size="10.00">FBClient.Core.Entities.Teleporter</text>
</a>
</g>
</g>
<!-- Node2&#45;&gt;Node3 -->
<g id="edge2" class="edge"><title>Node2&#45;&gt;Node3</title>
<path fill="none" stroke="midnightblue" d="M273.638,-452.681C299.307,-458.07 329.391,-464.386 353.654,-469.48"/>
<polygon fill="midnightblue" stroke="midnightblue" points="274.18,-449.218 263.674,-450.589 272.741,-456.069 274.18,-449.218"/>
</g>
<!-- Node4 -->
<g id="node4" class="node"><title>Node4</title>
<g id="a_node4"><a xlink:href="class_f_b_library_1_1_core_1_1_dynamic_entity.html" target="_top" xlink:title="FBLibrary.Core.DynamicEntity">
<polygon fill="white" stroke="black" points="325.5,-431.5 325.5,-450.5 474.5,-450.5 474.5,-431.5 325.5,-431.5"/>
<text text-anchor="middle" x="400" y="-438.5" font-family="Helvetica,sans-Serif" font-size="10.00">FBLibrary.Core.DynamicEntity</text>
</a>
</g>
</g>
<!-- Node2&#45;&gt;Node4 -->
<g id="edge3" class="edge"><title>Node2&#45;&gt;Node4</title>
<path fill="none" stroke="midnightblue" d="M293.899,-441C304.306,-441 314.978,-441 325.345,-441"/>
<polygon fill="midnightblue" stroke="midnightblue" points="293.601,-437.5 283.601,-441 293.601,-444.5 293.601,-437.5"/>
</g>
<!-- Node15 -->
<g id="node15" class="node"><title>Node15</title>
<g id="a_node15"><a xlink:href="class_f_b_library_1_1_core_1_1_static_entity.html" target="_top" xlink:title="FBLibrary.Core.StaticEntity">
<polygon fill="white" stroke="black" points="332,-216.5 332,-235.5 468,-235.5 468,-216.5 332,-216.5"/>
<text text-anchor="middle" x="400" y="-223.5" font-family="Helvetica,sans-Serif" font-size="10.00">FBLibrary.Core.StaticEntity</text>
</a>
</g>
</g>
<!-- Node2&#45;&gt;Node15 -->
<g id="edge14" class="edge"><title>Node2&#45;&gt;Node15</title>
<path fill="none" stroke="midnightblue" d="M232.669,-423.575C268.999,-380.421 362.268,-269.632 390.669,-235.896"/>
<polygon fill="midnightblue" stroke="midnightblue" points="229.774,-421.58 226.011,-431.484 235.129,-426.088 229.774,-421.58"/>
</g>
<!-- Node5 -->
<g id="node5" class="node"><title>Node5</title>
<g id="a_node5"><a xlink:href="class_f_b_client_1_1_core_1_1_entities_1_1_arrow.html" target="_top" xlink:title="FBClient.Core.Entities.Arrow">
<polygon fill="white" stroke="black" points="517.5,-500.5 517.5,-519.5 658.5,-519.5 658.5,-500.5 517.5,-500.5"/>
<text text-anchor="middle" x="588" y="-507.5" font-family="Helvetica,sans-Serif" font-size="10.00">FBClient.Core.Entities.Arrow</text>
</a>
</g>
</g>
<!-- Node4&#45;&gt;Node5 -->
<g id="edge4" class="edge"><title>Node4&#45;&gt;Node5</title>
<path fill="none" stroke="midnightblue" d="M464.822,-453.617C470.067,-455.471 475.194,-457.587 480,-460 498.612,-469.347 497.571,-480.296 516,-490 524.045,-494.236 533.089,-497.661 541.959,-500.399"/>
<polygon fill="midnightblue" stroke="midnightblue" points="465.887,-450.283 455.296,-450.556 463.746,-456.947 465.887,-450.283"/>
</g>
<!-- Node6 -->
<g id="node6" class="node"><title>Node6</title>
<g id="a_node6"><a xlink:href="class_f_b_library_1_1_core_1_1_base_entities_1_1_base_bomb.html" target="_top" xlink:title="FBLibrary.Core.BaseEntities.\lBaseBomb">
<polygon fill="white" stroke="black" points="516.5,-451 516.5,-481 659.5,-481 659.5,-451 516.5,-451"/>
<text text-anchor="start" x="524.5" y="-469" font-family="Helvetica,sans-Serif" font-size="10.00">FBLibrary.Core.BaseEntities.</text>
<text text-anchor="middle" x="588" y="-458" font-family="Helvetica,sans-Serif" font-size="10.00">BaseBomb</text>
</a>
</g>
</g>
<!-- Node4&#45;&gt;Node6 -->
<g id="edge5" class="edge"><title>Node4&#45;&gt;Node6</title>
<path fill="none" stroke="midnightblue" d="M481.859,-451.868C493.343,-453.412 505.078,-454.989 516.348,-456.504"/>
<polygon fill="midnightblue" stroke="midnightblue" points="482.226,-448.386 471.849,-450.523 481.294,-455.324 482.226,-448.386"/>
</g>
<!-- Node9 -->
<g id="node9" class="node"><title>Node9</title>
<g id="a_node9"><a xlink:href="class_f_b_library_1_1_core_1_1_base_entities_1_1_base_player.html" target="_top" xlink:title="FBLibrary.Core.BaseEntities.\lBasePlayer">
<polygon fill="white" stroke="black" points="516.5,-402 516.5,-432 659.5,-432 659.5,-402 516.5,-402"/>
<text text-anchor="start" x="524.5" y="-420" font-family="Helvetica,sans-Serif" font-size="10.00">FBLibrary.Core.BaseEntities.</text>
<text text-anchor="middle" x="588" y="-409" font-family="Helvetica,sans-Serif" font-size="10.00">BasePlayer</text>
</a>
</g>
</g>
<!-- Node4&#45;&gt;Node9 -->
<g id="edge8" class="edge"><title>Node4&#45;&gt;Node9</title>
<path fill="none" stroke="midnightblue" d="M484.633,-430.209C495.261,-428.837 506.054,-427.445 516.449,-426.103"/>
<polygon fill="midnightblue" stroke="midnightblue" points="483.982,-426.764 474.512,-431.515 484.878,-433.706 483.982,-426.764"/>
</g>
<!-- Node7 -->
<g id="node7" class="node"><title>Node7</title>
<g id="a_node7"><a xlink:href="class_f_b_client_1_1_core_1_1_entities_1_1_bomb.html" target="_top" xlink:title="FBClient.Core.Entities.Bomb">
<polygon fill="white" stroke="black" points="721,-494.5 721,-513.5 863,-513.5 863,-494.5 721,-494.5"/>
<text text-anchor="middle" x="792" y="-501.5" font-family="Helvetica,sans-Serif" font-size="10.00">FBClient.Core.Entities.Bomb</text>
</a>
</g>
</g>
<!-- Node6&#45;&gt;Node7 -->
<g id="edge6" class="edge"><title>Node6&#45;&gt;Node7</title>
<path fill="none" stroke="midnightblue" d="M669.762,-481.193C693.621,-485.681 719.05,-490.465 740.426,-494.486"/>
<polygon fill="midnightblue" stroke="midnightblue" points="670.125,-477.7 659.65,-479.291 668.83,-484.579 670.125,-477.7"/>
</g>
<!-- Node8 -->
<g id="node8" class="node"><title>Node8</title>
<g id="a_node8"><a xlink:href="class_f_b_server_1_1_core_1_1_entities_1_1_bomb.html" target="_top" xlink:title="FBServer.Core.Entities.Bomb">
<polygon fill="white" stroke="black" points="720,-456.5 720,-475.5 864,-475.5 864,-456.5 720,-456.5"/>
<text text-anchor="middle" x="792" y="-463.5" font-family="Helvetica,sans-Serif" font-size="10.00">FBServer.Core.Entities.Bomb</text>
</a>
</g>
</g>
<!-- Node6&#45;&gt;Node8 -->
<g id="edge7" class="edge"><title>Node6&#45;&gt;Node8</title>
<path fill="none" stroke="midnightblue" d="M669.811,-466C686.314,-466 703.566,-466 719.707,-466"/>
<polygon fill="midnightblue" stroke="midnightblue" points="669.65,-462.5 659.65,-466 669.65,-469.5 669.65,-462.5"/>
</g>
<!-- Node10 -->
<g id="node10" class="node"><title>Node10</title>
<g id="a_node10"><a xlink:href="class_f_b_client_1_1_entities_1_1_player.html" target="_top" xlink:title="FBClient.Entities.Player">
<polygon fill="white" stroke="black" points="731.5,-418.5 731.5,-437.5 852.5,-437.5 852.5,-418.5 731.5,-418.5"/>
<text text-anchor="middle" x="792" y="-425.5" font-family="Helvetica,sans-Serif" font-size="10.00">FBClient.Entities.Player</text>
</a>
</g>
</g>
<!-- Node9&#45;&gt;Node10 -->
<g id="edge9" class="edge"><title>Node9&#45;&gt;Node10</title>
<path fill="none" stroke="midnightblue" d="M669.664,-421.393C690.289,-422.516 712.094,-423.703 731.443,-424.757"/>
<polygon fill="midnightblue" stroke="midnightblue" points="669.825,-417.896 659.65,-420.847 669.445,-424.886 669.825,-417.896"/>
</g>
<!-- Node14 -->
<g id="node14" class="node"><title>Node14</title>
<g id="a_node14"><a xlink:href="class_f_b_server_1_1_core_1_1_player.html" target="_top" xlink:title="FBServer.Core.Player">
<polygon fill="white" stroke="black" points="737,-380.5 737,-399.5 847,-399.5 847,-380.5 737,-380.5"/>
<text text-anchor="middle" x="792" y="-387.5" font-family="Helvetica,sans-Serif" font-size="10.00">FBServer.Core.Player</text>
</a>
</g>
</g>
<!-- Node9&#45;&gt;Node14 -->
<g id="edge13" class="edge"><title>Node9&#45;&gt;Node14</title>
<path fill="none" stroke="midnightblue" d="M669.586,-406.229C692.214,-403.204 716.269,-399.989 736.947,-397.225"/>
<polygon fill="midnightblue" stroke="midnightblue" points="669.098,-402.763 659.65,-407.557 670.025,-409.701 669.098,-402.763"/>
</g>
<!-- Node11 -->
<g id="node11" class="node"><title>Node11</title>
<g id="a_node11"><a xlink:href="class_f_b_client_1_1_core_1_1_players_1_1_base_human_player.html" target="_top" xlink:title="FBClient.Core.Players.Base\lHumanPlayer">
<polygon fill="white" stroke="black" points="924.5,-413 924.5,-443 1063.5,-443 1063.5,-413 924.5,-413"/>
<text text-anchor="start" x="932.5" y="-431" font-family="Helvetica,sans-Serif" font-size="10.00">FBClient.Core.Players.Base</text>
<text text-anchor="middle" x="994" y="-420" font-family="Helvetica,sans-Serif" font-size="10.00">HumanPlayer</text>
</a>
</g>
</g>
<!-- Node10&#45;&gt;Node11 -->
<g id="edge10" class="edge"><title>Node10&#45;&gt;Node11</title>
<path fill="none" stroke="midnightblue" d="M862.98,-428C882.912,-428 904.598,-428 924.445,-428"/>
<polygon fill="midnightblue" stroke="midnightblue" points="862.736,-424.5 852.736,-428 862.736,-431.5 862.736,-424.5"/>
</g>
<!-- Node12 -->
<g id="node12" class="node"><title>Node12</title>
<g id="a_node12"><a xlink:href="class_f_b_client_1_1_core_1_1_players_1_1_human_player.html" target="_top" xlink:title="FBClient.Core.Players.Human\lPlayer">
<polygon fill="white" stroke="black" points="1100.5,-438 1100.5,-468 1247.5,-468 1247.5,-438 1100.5,-438"/>
<text text-anchor="start" x="1108.5" y="-456" font-family="Helvetica,sans-Serif" font-size="10.00">FBClient.Core.Players.Human</text>
<text text-anchor="middle" x="1174" y="-445" font-family="Helvetica,sans-Serif" font-size="10.00">Player</text>
</a>
</g>
</g>
<!-- Node11&#45;&gt;Node12 -->
<g id="edge11" class="edge"><title>Node11&#45;&gt;Node12</title>
<path fill="none" stroke="midnightblue" d="M1073.55,-439.032C1082.46,-440.283 1091.51,-441.555 1100.34,-442.795"/>
<polygon fill="midnightblue" stroke="midnightblue" points="1073.95,-435.555 1063.56,-437.63 1072.98,-442.487 1073.95,-435.555"/>
</g>
<!-- Node13 -->
<g id="node13" class="node"><title>Node13</title>
<g id="a_node13"><a xlink:href="class_f_b_client_1_1_core_1_1_players_1_1_online_human_player.html" target="_top" xlink:title="FBClient.Core.Players.Online\lHumanPlayer">
<polygon fill="white" stroke="black" points="1102,-389 1102,-419 1246,-419 1246,-389 1102,-389"/>
<text text-anchor="start" x="1110" y="-407" font-family="Helvetica,sans-Serif" font-size="10.00">FBClient.Core.Players.Online</text>
<text text-anchor="middle" x="1174" y="-396" font-family="Helvetica,sans-Serif" font-size="10.00">HumanPlayer</text>
</a>
</g>
</g>
<!-- Node11&#45;&gt;Node13 -->
<g id="edge12" class="edge"><title>Node11&#45;&gt;Node13</title>
<path fill="none" stroke="midnightblue" d="M1073.66,-417.395C1083.03,-416.131 1092.56,-414.846 1101.82,-413.598"/>
<polygon fill="midnightblue" stroke="midnightblue" points="1073.01,-413.95 1063.56,-418.755 1073.94,-420.888 1073.01,-413.95"/>
</g>
<!-- Node16 -->
<g id="node16" class="node"><title>Node16</title>
<g id="a_node16"><a xlink:href="class_f_b_library_1_1_core_1_1_base_entities_1_1_base_arrow.html" target="_top" xlink:title="FBLibrary.Core.BaseEntities.\lBaseArrow">
<polygon fill="white" stroke="black" points="516.5,-324 516.5,-354 659.5,-354 659.5,-324 516.5,-324"/>
<text text-anchor="start" x="524.5" y="-342" font-family="Helvetica,sans-Serif" font-size="10.00">FBLibrary.Core.BaseEntities.</text>
<text text-anchor="middle" x="588" y="-331" font-family="Helvetica,sans-Serif" font-size="10.00">BaseArrow</text>
</a>
</g>
</g>
<!-- Node15&#45;&gt;Node16 -->
<g id="edge15" class="edge"><title>Node15&#45;&gt;Node16</title>
<path fill="none" stroke="midnightblue" d="M423.708,-241.276C446.696,-256.582 483.404,-280.592 516,-300 529.776,-308.202 545.362,-316.833 558.414,-323.884"/>
<polygon fill="midnightblue" stroke="midnightblue" points="425.58,-238.317 415.321,-235.672 421.691,-244.138 425.58,-238.317"/>
</g>
<!-- Node18 -->
<g id="node18" class="node"><title>Node18</title>
<g id="a_node18"><a xlink:href="class_f_b_library_1_1_core_1_1_base_entities_1_1_base_edge_wall.html" target="_top" xlink:title="FBLibrary.Core.BaseEntities.\lBaseEdgeWall">
<polygon fill="white" stroke="black" points="516.5,-261 516.5,-291 659.5,-291 659.5,-261 516.5,-261"/>
<text text-anchor="start" x="524.5" y="-279" font-family="Helvetica,sans-Serif" font-size="10.00">FBLibrary.Core.BaseEntities.</text>
<text text-anchor="middle" x="588" y="-268" font-family="Helvetica,sans-Serif" font-size="10.00">BaseEdgeWall</text>
</a>
</g>
</g>
<!-- Node15&#45;&gt;Node18 -->
<g id="edge17" class="edge"><title>Node15&#45;&gt;Node18</title>
<path fill="none" stroke="midnightblue" d="M446.2,-238.151C471.693,-245.003 503.766,-253.625 530.86,-260.909"/>
<polygon fill="midnightblue" stroke="midnightblue" points="446.989,-234.738 436.423,-235.522 445.172,-241.498 446.989,-234.738"/>
</g>
<!-- Node21 -->
<g id="node21" class="node"><title>Node21</title>
<g id="a_node21"><a xlink:href="class_f_b_library_1_1_core_1_1_base_entities_1_1_base_power_up.html" target="_top" xlink:title="FBLibrary.Core.BaseEntities.\lBasePowerUp">
<polygon fill="white" stroke="black" points="516.5,-211 516.5,-241 659.5,-241 659.5,-211 516.5,-211"/>
<text text-anchor="start" x="524.5" y="-229" font-family="Helvetica,sans-Serif" font-size="10.00">FBLibrary.Core.BaseEntities.</text>
<text text-anchor="middle" x="588" y="-218" font-family="Helvetica,sans-Serif" font-size="10.00">BasePowerUp</text>
</a>
</g>
</g>
<!-- Node15&#45;&gt;Node21 -->
<g id="edge20" class="edge"><title>Node15&#45;&gt;Node21</title>
<path fill="none" stroke="midnightblue" d="M478.217,-226C490.902,-226 503.989,-226 516.499,-226"/>
<polygon fill="midnightblue" stroke="midnightblue" points="478.15,-222.5 468.15,-226 478.15,-229.5 478.15,-222.5"/>
</g>
<!-- Node24 -->
<g id="node24" class="node"><title>Node24</title>
<g id="a_node24"><a xlink:href="class_f_b_library_1_1_core_1_1_base_entities_1_1_base_teleporter.html" target="_top" xlink:title="FBLibrary.Core.BaseEntities.\lBaseTeleporter">
<polygon fill="white" stroke="black" points="516.5,-160 516.5,-190 659.5,-190 659.5,-160 516.5,-160"/>
<text text-anchor="start" x="524.5" y="-178" font-family="Helvetica,sans-Serif" font-size="10.00">FBLibrary.Core.BaseEntities.</text>
<text text-anchor="middle" x="588" y="-167" font-family="Helvetica,sans-Serif" font-size="10.00">BaseTeleporter</text>
</a>
</g>
</g>
<!-- Node15&#45;&gt;Node24 -->
<g id="edge23" class="edge"><title>Node15&#45;&gt;Node24</title>
<path fill="none" stroke="midnightblue" d="M445.914,-213.685C471.829,-206.579 504.617,-197.589 532.061,-190.064"/>
<polygon fill="midnightblue" stroke="midnightblue" points="444.704,-210.387 435.985,-216.407 446.555,-217.138 444.704,-210.387"/>
</g>
<!-- Node26 -->
<g id="node26" class="node"><title>Node26</title>
<g id="a_node26"><a xlink:href="class_f_b_library_1_1_core_1_1_base_entities_1_1_base_unbreakable_wall.html" target="_top" xlink:title="FBLibrary.Core.BaseEntities.\lBaseUnbreakableWall">
<polygon fill="white" stroke="black" points="516.5,-109 516.5,-139 659.5,-139 659.5,-109 516.5,-109"/>
<text text-anchor="start" x="524.5" y="-127" font-family="Helvetica,sans-Serif" font-size="10.00">FBLibrary.Core.BaseEntities.</text>
<text text-anchor="middle" x="588" y="-116" font-family="Helvetica,sans-Serif" font-size="10.00">BaseUnbreakableWall</text>
</a>
</g>
</g>
<!-- Node15&#45;&gt;Node26 -->
<g id="edge25" class="edge"><title>Node15&#45;&gt;Node26</title>
<path fill="none" stroke="midnightblue" d="M421.585,-210.255C443.931,-193.686 481.109,-167.614 516,-150 523.851,-146.036 532.456,-142.367 540.882,-139.108"/>
<polygon fill="midnightblue" stroke="midnightblue" points="419.412,-207.51 413.511,-216.309 423.611,-213.111 419.412,-207.51"/>
</g>
<!-- Node29 -->
<g id="node29" class="node"><title>Node29</title>
<g id="a_node29"><a xlink:href="class_f_b_library_1_1_core_1_1_base_entities_1_1_base_wall.html" target="_top" xlink:title="FBLibrary.Core.BaseEntities.\lBaseWall">
<polygon fill="white" stroke="black" points="516.5,-33 516.5,-63 659.5,-63 659.5,-33 516.5,-33"/>
<text text-anchor="start" x="524.5" y="-51" font-family="Helvetica,sans-Serif" font-size="10.00">FBLibrary.Core.BaseEntities.</text>
<text text-anchor="middle" x="588" y="-40" font-family="Helvetica,sans-Serif" font-size="10.00">BaseWall</text>
</a>
</g>
</g>
<!-- Node15&#45;&gt;Node29 -->
<g id="edge28" class="edge"><title>Node15&#45;&gt;Node29</title>
<path fill="none" stroke="midnightblue" d="M414.898,-208.411C435.524,-182.854 476.109,-134.622 516,-99 530.83,-85.7574 549.074,-72.7132 563.355,-63.1319"/>
<polygon fill="midnightblue" stroke="midnightblue" points="411.983,-206.452 408.468,-216.447 417.449,-210.825 411.983,-206.452"/>
</g>
<!-- Node17 -->
<g id="node17" class="node"><title>Node17</title>
<g id="a_node17"><a xlink:href="class_f_b_server_1_1_core_1_1_entities_1_1_arrow.html" target="_top" xlink:title="FBServer.Core.Entities.Arrow">
<polygon fill="white" stroke="black" points="720.5,-342.5 720.5,-361.5 863.5,-361.5 863.5,-342.5 720.5,-342.5"/>
<text text-anchor="middle" x="792" y="-349.5" font-family="Helvetica,sans-Serif" font-size="10.00">FBServer.Core.Entities.Arrow</text>
</a>
</g>
</g>
<!-- Node16&#45;&gt;Node17 -->
<g id="edge16" class="edge"><title>Node16&#45;&gt;Node17</title>
<path fill="none" stroke="midnightblue" d="M669.932,-344.208C686.631,-345.283 704.092,-346.407 720.39,-347.456"/>
<polygon fill="midnightblue" stroke="midnightblue" points="669.854,-340.696 659.65,-343.547 669.404,-347.682 669.854,-340.696"/>
</g>
<!-- Node19 -->
<g id="node19" class="node"><title>Node19</title>
<g id="a_node19"><a xlink:href="class_f_b_client_1_1_core_1_1_entities_1_1_edge_wall.html" target="_top" xlink:title="FBClient.Core.Entities.EdgeWall">
<polygon fill="white" stroke="black" points="713,-304.5 713,-323.5 871,-323.5 871,-304.5 713,-304.5"/>
<text text-anchor="middle" x="792" y="-311.5" font-family="Helvetica,sans-Serif" font-size="10.00">FBClient.Core.Entities.EdgeWall</text>
</a>
</g>
</g>
<!-- Node18&#45;&gt;Node19 -->
<g id="edge18" class="edge"><title>Node18&#45;&gt;Node19</title>
<path fill="none" stroke="midnightblue" d="M669.762,-291.193C693.621,-295.681 719.05,-300.465 740.426,-304.486"/>
<polygon fill="midnightblue" stroke="midnightblue" points="670.125,-287.7 659.65,-289.291 668.83,-294.579 670.125,-287.7"/>
</g>
<!-- Node20 -->
<g id="node20" class="node"><title>Node20</title>
<g id="a_node20"><a xlink:href="class_f_b_server_1_1_core_1_1_entities_1_1_edge_wall.html" target="_top" xlink:title="FBServer.Core.Entities.EdgeWall">
<polygon fill="white" stroke="black" points="711.5,-266.5 711.5,-285.5 872.5,-285.5 872.5,-266.5 711.5,-266.5"/>
<text text-anchor="middle" x="792" y="-273.5" font-family="Helvetica,sans-Serif" font-size="10.00">FBServer.Core.Entities.EdgeWall</text>
</a>
</g>
</g>
<!-- Node18&#45;&gt;Node20 -->
<g id="edge19" class="edge"><title>Node18&#45;&gt;Node20</title>
<path fill="none" stroke="midnightblue" d="M669.975,-276C683.63,-276 697.794,-276 711.413,-276"/>
<polygon fill="midnightblue" stroke="midnightblue" points="669.65,-272.5 659.65,-276 669.65,-279.5 669.65,-272.5"/>
</g>
<!-- Node22 -->
<g id="node22" class="node"><title>Node22</title>
<g id="a_node22"><a xlink:href="class_f_b_client_1_1_core_1_1_entities_1_1_power_up.html" target="_top" xlink:title="FBClient.Core.Entities.PowerUp">
<polygon fill="white" stroke="black" points="714.5,-228.5 714.5,-247.5 869.5,-247.5 869.5,-228.5 714.5,-228.5"/>
<text text-anchor="middle" x="792" y="-235.5" font-family="Helvetica,sans-Serif" font-size="10.00">FBClient.Core.Entities.PowerUp</text>
</a>
</g>
</g>
<!-- Node21&#45;&gt;Node22 -->
<g id="edge21" class="edge"><title>Node21&#45;&gt;Node22</title>
<path fill="none" stroke="midnightblue" d="M669.697,-230.794C684.37,-231.666 699.639,-232.573 714.196,-233.437"/>
<polygon fill="midnightblue" stroke="midnightblue" points="669.84,-227.296 659.65,-230.197 669.425,-234.284 669.84,-227.296"/>
</g>
<!-- Node23 -->
<g id="node23" class="node"><title>Node23</title>
<g id="a_node23"><a xlink:href="class_f_b_server_1_1_core_1_1_entities_1_1_power_up.html" target="_top" xlink:title="FBServer.Core.Entities.PowerUp">
<polygon fill="white" stroke="black" points="713,-190.5 713,-209.5 871,-209.5 871,-190.5 713,-190.5"/>
<text text-anchor="middle" x="792" y="-197.5" font-family="Helvetica,sans-Serif" font-size="10.00">FBServer.Core.Entities.PowerUp</text>
</a>
</g>
</g>
<!-- Node21&#45;&gt;Node23 -->
<g id="edge22" class="edge"><title>Node21&#45;&gt;Node23</title>
<path fill="none" stroke="midnightblue" d="M669.776,-215.603C685.357,-213.598 701.607,-211.506 716.961,-209.53"/>
<polygon fill="midnightblue" stroke="midnightblue" points="669.121,-212.158 659.65,-216.906 670.015,-219.101 669.121,-212.158"/>
</g>
<!-- Node25 -->
<g id="node25" class="node"><title>Node25</title>
<g id="a_node25"><a xlink:href="class_f_b_server_1_1_core_1_1_entities_1_1_teleporter.html" target="_top" xlink:title="FBServer.Core.Entities.Teleporter">
<polygon fill="white" stroke="black" points="711.5,-152.5 711.5,-171.5 872.5,-171.5 872.5,-152.5 711.5,-152.5"/>
<text text-anchor="middle" x="792" y="-159.5" font-family="Helvetica,sans-Serif" font-size="10.00">FBServer.Core.Entities.Teleporter</text>
</a>
</g>
</g>
<!-- Node24&#45;&gt;Node25 -->
<g id="edge24" class="edge"><title>Node24&#45;&gt;Node25</title>
<path fill="none" stroke="midnightblue" d="M669.975,-169.789C683.63,-168.91 697.794,-167.998 711.413,-167.122"/>
<polygon fill="midnightblue" stroke="midnightblue" points="669.404,-166.318 659.65,-170.453 669.854,-173.304 669.404,-166.318"/>
</g>
<!-- Node27 -->
<g id="node27" class="node"><title>Node27</title>
<g id="a_node27"><a xlink:href="class_f_b_client_1_1_core_1_1_entities_1_1_unbreakable_wall.html" target="_top" xlink:title="FBClient.Core.Entities.UnbreakableWall">
<polygon fill="white" stroke="black" points="697,-114.5 697,-133.5 887,-133.5 887,-114.5 697,-114.5"/>
<text text-anchor="middle" x="792" y="-121.5" font-family="Helvetica,sans-Serif" font-size="10.00">FBClient.Core.Entities.UnbreakableWall</text>
</a>
</g>
</g>
<!-- Node26&#45;&gt;Node27 -->
<g id="edge26" class="edge"><title>Node26&#45;&gt;Node27</title>
<path fill="none" stroke="midnightblue" d="M669.669,-124C678.642,-124 687.838,-124 696.958,-124"/>
<polygon fill="midnightblue" stroke="midnightblue" points="669.65,-120.5 659.65,-124 669.65,-127.5 669.65,-120.5"/>
</g>
<!-- Node28 -->
<g id="node28" class="node"><title>Node28</title>
<g id="a_node28"><a xlink:href="class_f_b_server_1_1_core_1_1_entities_1_1_unbreakable_wall.html" target="_top" xlink:title="FBServer.Core.Entities.UnbreakableWall">
<polygon fill="white" stroke="black" points="696,-76.5 696,-95.5 888,-95.5 888,-76.5 696,-76.5"/>
<text text-anchor="middle" x="792" y="-83.5" font-family="Helvetica,sans-Serif" font-size="10.00">FBServer.Core.Entities.UnbreakableWall</text>
</a>
</g>
</g>
<!-- Node26&#45;&gt;Node28 -->
<g id="edge27" class="edge"><title>Node26&#45;&gt;Node28</title>
<path fill="none" stroke="midnightblue" d="M669.762,-108.807C693.621,-104.319 719.05,-99.5351 740.426,-95.5139"/>
<polygon fill="midnightblue" stroke="midnightblue" points="668.83,-105.421 659.65,-110.709 670.125,-112.3 668.83,-105.421"/>
</g>
<!-- Node30 -->
<g id="node30" class="node"><title>Node30</title>
<g id="a_node30"><a xlink:href="class_f_b_client_1_1_core_1_1_entities_1_1_wall.html" target="_top" xlink:title="FBClient.Core.Entities.Wall">
<polygon fill="white" stroke="black" points="724,-38.5 724,-57.5 860,-57.5 860,-38.5 724,-38.5"/>
<text text-anchor="middle" x="792" y="-45.5" font-family="Helvetica,sans-Serif" font-size="10.00">FBClient.Core.Entities.Wall</text>
</a>
</g>
</g>
<!-- Node29&#45;&gt;Node30 -->
<g id="edge29" class="edge"><title>Node29&#45;&gt;Node30</title>
<path fill="none" stroke="midnightblue" d="M669.783,-48C687.692,-48 706.486,-48 723.785,-48"/>
<polygon fill="midnightblue" stroke="midnightblue" points="669.65,-44.5001 659.65,-48 669.65,-51.5001 669.65,-44.5001"/>
</g>
<!-- Node31 -->
<g id="node31" class="node"><title>Node31</title>
<g id="a_node31"><a xlink:href="class_f_b_server_1_1_core_1_1_entities_1_1_wall.html" target="_top" xlink:title="FBServer.Core.Entities.Wall">
<polygon fill="white" stroke="black" points="723,-0.5 723,-19.5 861,-19.5 861,-0.5 723,-0.5"/>
<text text-anchor="middle" x="792" y="-7.5" font-family="Helvetica,sans-Serif" font-size="10.00">FBServer.Core.Entities.Wall</text>
</a>
</g>
</g>
<!-- Node29&#45;&gt;Node31 -->
<g id="edge30" class="edge"><title>Node29&#45;&gt;Node31</title>
<path fill="none" stroke="midnightblue" d="M669.762,-32.8071C693.621,-28.3189 719.05,-23.5351 740.426,-19.5139"/>
<polygon fill="midnightblue" stroke="midnightblue" points="668.83,-29.4209 659.65,-34.7094 670.125,-36.3003 668.83,-29.4209"/>
</g>
</g>
</svg>
