<?xml version="1.0" encoding="UTF-8" standalone="no"?>
<!DOCTYPE svg PUBLIC "-//W3C//DTD SVG 1.1//EN"
 "http://www.w3.org/Graphics/SVG/1.1/DTD/svg11.dtd">
<!-- Generated by graphviz version 2.34.0 (20130907.0111)
 -->
<!-- Title: Graphical Class Hierarchy Pages: 1 -->
<svg width="914pt" height="920pt"
 viewBox="0.00 0.00 914.00 920.00" xmlns="http://www.w3.org/2000/svg" xmlns:xlink="http://www.w3.org/1999/xlink">
<g id="graph0" class="graph" transform="scale(1 1) rotate(0) translate(4 916)">
<title>Graphical Class Hierarchy</title>
<polygon fill="white" stroke="white" points="-4,4 -4,-916 910,-916 910,4 -4,4"/>
<!-- Node1 -->
<g id="node1" class="node"><title>Node1</title>
<polygon fill="white" stroke="#bfbfbf" points="0,-132.5 0,-151.5 132,-151.5 132,-132.5 0,-132.5"/>
<text text-anchor="middle" x="66" y="-139.5" font-family="Helvetica,sans-Serif" font-size="10.00">DrawableGameComponent</text>
</g>
<!-- Node2 -->
<g id="node2" class="node"><title>Node2</title>
<g id="a_node2"><a xlink:href="class_f_b_client_1_1_controls_1_1_game_state.html" target="_top" xlink:title="FBClient.Controls.GameState">
<polygon fill="white" stroke="black" points="168,-176.5 168,-195.5 314,-195.5 314,-176.5 168,-176.5"/>
<text text-anchor="middle" x="241" y="-183.5" font-family="Helvetica,sans-Serif" font-size="10.00">FBClient.Controls.GameState</text>
</a>
</g>
</g>
<!-- Node1&#45;&gt;Node2 -->
<g id="edge1" class="edge"><title>Node1&#45;&gt;Node2</title>
<path fill="none" stroke="midnightblue" d="M114.425,-154.062C142.17,-161.118 176.707,-169.902 202.535,-176.471"/>
<polygon fill="midnightblue" stroke="midnightblue" points="115.093,-150.62 104.538,-151.547 113.367,-157.404 115.093,-150.62"/>
</g>
<!-- Node26 -->
<g id="node26" class="node"><title>Node26</title>
<g id="a_node26"><a xlink:href="class_f_b_client_1_1_utils_1_1_frame_rate_counter.html" target="_top" xlink:title="FBClient.Utils.FrameRate\lCounter">
<polygon fill="white" stroke="black" points="177,-127 177,-157 305,-157 305,-127 177,-127"/>
<text text-anchor="start" x="185" y="-145" font-family="Helvetica,sans-Serif" font-size="10.00">FBClient.Utils.FrameRate</text>
<text text-anchor="middle" x="241" y="-134" font-family="Helvetica,sans-Serif" font-size="10.00">Counter</text>
</a>
</g>
</g>
<!-- Node1&#45;&gt;Node26 -->
<g id="edge25" class="edge"><title>Node1&#45;&gt;Node26</title>
<path fill="none" stroke="midnightblue" d="M142.747,-142C154.111,-142 165.727,-142 176.793,-142"/>
<polygon fill="midnightblue" stroke="midnightblue" points="142.404,-138.5 132.404,-142 142.404,-145.5 142.404,-138.5"/>
</g>
<!-- Node27 -->
<g id="node27" class="node"><title>Node27</title>
<g id="a_node27"><a xlink:href="class_f_b_client_1_1_world_engine_1_1_world.html" target="_top" xlink:title="FBClient.WorldEngine.World">
<polygon fill="white" stroke="black" points="170.5,-88.5 170.5,-107.5 311.5,-107.5 311.5,-88.5 170.5,-88.5"/>
<text text-anchor="middle" x="241" y="-95.5" font-family="Helvetica,sans-Serif" font-size="10.00">FBClient.WorldEngine.World</text>
</a>
</g>
</g>
<!-- Node1&#45;&gt;Node27 -->
<g id="edge26" class="edge"><title>Node1&#45;&gt;Node27</title>
<path fill="none" stroke="midnightblue" d="M114.425,-129.938C142.17,-122.882 176.707,-114.098 202.535,-107.529"/>
<polygon fill="midnightblue" stroke="midnightblue" points="113.367,-126.596 104.538,-132.453 115.093,-133.38 113.367,-126.596"/>
</g>
<!-- Node3 -->
<g id="node3" class="node"><title>Node3</title>
<g id="a_node3"><a xlink:href="class_f_b_client_1_1_screens_1_1_base_game_state.html" target="_top" xlink:title="FBClient.Screens.BaseGame\lState">
<polygon fill="white" stroke="black" points="350.5,-171 350.5,-201 495.5,-201 495.5,-171 350.5,-171"/>
<text text-anchor="start" x="358.5" y="-189" font-family="Helvetica,sans-Serif" font-size="10.00">FBClient.Screens.BaseGame</text>
<text text-anchor="middle" x="423" y="-178" font-family="Helvetica,sans-Serif" font-size="10.00">State</text>
</a>
</g>
</g>
<!-- Node2&#45;&gt;Node3 -->
<g id="edge2" class="edge"><title>Node2&#45;&gt;Node3</title>
<path fill="none" stroke="midnightblue" d="M324.327,-186C333.03,-186 341.828,-186 350.395,-186"/>
<polygon fill="midnightblue" stroke="midnightblue" points="324.176,-182.5 314.176,-186 324.176,-189.5 324.176,-182.5"/>
</g>
<!-- Node4 -->
<g id="node4" class="node"><title>Node4</title>
<g id="a_node4"><a xlink:href="class_f_b_client_1_1_screens_1_1_base_menu_screen.html" target="_top" xlink:title="FBClient.Screens.BaseMenu\lScreen">
<polygon fill="white" stroke="black" points="541.5,-588 541.5,-618 684.5,-618 684.5,-588 541.5,-588"/>
<text text-anchor="start" x="549.5" y="-606" font-family="Helvetica,sans-Serif" font-size="10.00">FBClient.Screens.BaseMenu</text>
<text text-anchor="middle" x="613" y="-595" font-family="Helvetica,sans-Serif" font-size="10.00">Screen</text>
</a>
</g>
</g>
<!-- Node3&#45;&gt;Node4 -->
<g id="edge3" class="edge"><title>Node3&#45;&gt;Node4</title>
<path fill="none" stroke="midnightblue" d="M435.185,-210.809C470.224,-288.53 577.198,-525.807 605.221,-587.965"/>
<polygon fill="midnightblue" stroke="midnightblue" points="438.215,-209.014 430.914,-201.336 431.833,-211.891 438.215,-209.014"/>
</g>
<!-- Node17 -->
<g id="node17" class="node"><title>Node17</title>
<g id="a_node17"><a xlink:href="class_f_b_client_1_1_screens_1_1_game_screens_1_1_base_game_play_screen.html" target="_top" xlink:title="FBClient.Screens.GameScreens.\lBaseGamePlayScreen">
<polygon fill="white" stroke="black" points="532.5,-294 532.5,-324 693.5,-324 693.5,-294 532.5,-294"/>
<text text-anchor="start" x="540.5" y="-312" font-family="Helvetica,sans-Serif" font-size="10.00">FBClient.Screens.GameScreens.</text>
<text text-anchor="middle" x="613" y="-301" font-family="Helvetica,sans-Serif" font-size="10.00">BaseGamePlayScreen</text>
</a>
</g>
</g>
<!-- Node3&#45;&gt;Node17 -->
<g id="edge16" class="edge"><title>Node3&#45;&gt;Node17</title>
<path fill="none" stroke="midnightblue" d="M443.558,-208.758C463.686,-230.865 496.97,-263.948 532,-284 538.693,-287.831 546.044,-291.148 553.493,-293.998"/>
<polygon fill="midnightblue" stroke="midnightblue" points="446.034,-206.276 436.759,-201.154 440.816,-210.941 446.034,-206.276"/>
</g>
<!-- Node20 -->
<g id="node20" class="node"><title>Node20</title>
<g id="a_node20"><a xlink:href="class_f_b_client_1_1_screens_1_1_game_screens_1_1_game_play_screen.html" target="_top" xlink:title="FBClient.Screens.GameScreens.\lGamePlayScreen">
<polygon fill="white" stroke="black" points="532.5,-245 532.5,-275 693.5,-275 693.5,-245 532.5,-245"/>
<text text-anchor="start" x="540.5" y="-263" font-family="Helvetica,sans-Serif" font-size="10.00">FBClient.Screens.GameScreens.</text>
<text text-anchor="middle" x="613" y="-252" font-family="Helvetica,sans-Serif" font-size="10.00">GamePlayScreen</text>
</a>
</g>
</g>
<!-- Node3&#45;&gt;Node20 -->
<g id="edge19" class="edge"><title>Node3&#45;&gt;Node20</title>
<path fill="none" stroke="midnightblue" d="M463.95,-205.545C484.105,-215.041 509.082,-226.258 532,-235 541.109,-238.475 550.93,-241.843 560.466,-244.923"/>
<polygon fill="midnightblue" stroke="midnightblue" points="465.298,-202.311 454.763,-201.18 462.293,-208.633 465.298,-202.311"/>
</g>
<!-- Node21 -->
<g id="node21" class="node"><title>Node21</title>
<g id="a_node21"><a xlink:href="class_f_b_client_1_1_screens_1_1_menu_screens_1_1_credit_menu_screen.html" target="_top" xlink:title="FBClient.Screens.MenuScreens.\lCreditMenuScreen">
<polygon fill="white" stroke="black" points="533.5,-196 533.5,-226 692.5,-226 692.5,-196 533.5,-196"/>
<text text-anchor="start" x="541.5" y="-214" font-family="Helvetica,sans-Serif" font-size="10.00">FBClient.Screens.MenuScreens.</text>
<text text-anchor="middle" x="613" y="-203" font-family="Helvetica,sans-Serif" font-size="10.00">CreditMenuScreen</text>
</a>
</g>
</g>
<!-- Node3&#45;&gt;Node21 -->
<g id="edge20" class="edge"><title>Node3&#45;&gt;Node21</title>
<path fill="none" stroke="midnightblue" d="M505.55,-196.844C514.784,-198.072 524.181,-199.322 533.376,-200.545"/>
<polygon fill="midnightblue" stroke="midnightblue" points="505.985,-193.372 495.611,-195.523 505.062,-200.31 505.985,-193.372"/>
</g>
<!-- Node22 -->
<g id="node22" class="node"><title>Node22</title>
<g id="a_node22"><a xlink:href="class_f_b_client_1_1_screens_1_1_menu_screens_1_1_item_menu_screen.html" target="_top" xlink:title="FBClient.Screens.MenuScreens.\lItemMenuScreen">
<polygon fill="white" stroke="black" points="533.5,-147 533.5,-177 692.5,-177 692.5,-147 533.5,-147"/>
<text text-anchor="start" x="541.5" y="-165" font-family="Helvetica,sans-Serif" font-size="10.00">FBClient.Screens.MenuScreens.</text>
<text text-anchor="middle" x="613" y="-154" font-family="Helvetica,sans-Serif" font-size="10.00">ItemMenuScreen</text>
</a>
</g>
</g>
<!-- Node3&#45;&gt;Node22 -->
<g id="edge21" class="edge"><title>Node3&#45;&gt;Node22</title>
<path fill="none" stroke="midnightblue" d="M505.55,-175.589C514.784,-174.411 524.181,-173.211 533.376,-172.037"/>
<polygon fill="midnightblue" stroke="midnightblue" points="505.087,-172.12 495.611,-176.858 505.974,-179.064 505.087,-172.12"/>
</g>
<!-- Node23 -->
<g id="node23" class="node"><title>Node23</title>
<g id="a_node23"><a xlink:href="class_f_b_client_1_1_screens_1_1_menu_screens_1_1_lobby_menu_screen.html" target="_top" xlink:title="FBClient.Screens.MenuScreens.\lLobbyMenuScreen">
<polygon fill="white" stroke="black" points="533.5,-98 533.5,-128 692.5,-128 692.5,-98 533.5,-98"/>
<text text-anchor="start" x="541.5" y="-116" font-family="Helvetica,sans-Serif" font-size="10.00">FBClient.Screens.MenuScreens.</text>
<text text-anchor="middle" x="613" y="-105" font-family="Helvetica,sans-Serif" font-size="10.00">LobbyMenuScreen</text>
</a>
</g>
</g>
<!-- Node3&#45;&gt;Node23 -->
<g id="edge22" class="edge"><title>Node3&#45;&gt;Node23</title>
<path fill="none" stroke="midnightblue" d="M463.47,-166.549C483.69,-156.982 508.866,-145.673 532,-137 540.418,-133.844 549.451,-130.809 558.307,-128.021"/>
<polygon fill="midnightblue" stroke="midnightblue" points="461.779,-163.478 454.264,-170.946 464.796,-169.794 461.779,-163.478"/>
</g>
<!-- Node24 -->
<g id="node24" class="node"><title>Node24</title>
<g id="a_node24"><a xlink:href="class_f_b_client_1_1_screens_1_1_menu_screens_1_1_user_login_menu_screen.html" target="_top" xlink:title="FBClient.Screens.MenuScreens.\lUserLoginMenuScreen">
<polygon fill="white" stroke="black" points="533.5,-49 533.5,-79 692.5,-79 692.5,-49 533.5,-49"/>
<text text-anchor="start" x="541.5" y="-67" font-family="Helvetica,sans-Serif" font-size="10.00">FBClient.Screens.MenuScreens.</text>
<text text-anchor="middle" x="613" y="-56" font-family="Helvetica,sans-Serif" font-size="10.00">UserLoginMenuScreen</text>
</a>
</g>
</g>
<!-- Node3&#45;&gt;Node24 -->
<g id="edge23" class="edge"><title>Node3&#45;&gt;Node24</title>
<path fill="none" stroke="midnightblue" d="M443.51,-163.157C463.6,-140.983 496.856,-107.851 532,-88 538.06,-84.5769 544.66,-81.5936 551.385,-79.0057"/>
<polygon fill="midnightblue" stroke="midnightblue" points="440.755,-160.987 436.725,-170.785 445.986,-165.639 440.755,-160.987"/>
</g>
<!-- Node25 -->
<g id="node25" class="node"><title>Node25</title>
<g id="a_node25"><a xlink:href="class_f_b_client_1_1_screens_1_1_menu_screens_1_1_user_registration_menu_screen.html" target="_top" xlink:title="FBClient.Screens.MenuScreens.\lUserRegistrationMenuScreen">
<polygon fill="white" stroke="black" points="533.5,-0 533.5,-30 692.5,-30 692.5,-0 533.5,-0"/>
<text text-anchor="start" x="541.5" y="-18" font-family="Helvetica,sans-Serif" font-size="10.00">FBClient.Screens.MenuScreens.</text>
<text text-anchor="middle" x="613" y="-7" font-family="Helvetica,sans-Serif" font-size="10.00">UserRegistrationMenuScreen</text>
</a>
</g>
</g>
<!-- Node3&#45;&gt;Node25 -->
<g id="edge24" class="edge"><title>Node3&#45;&gt;Node25</title>
<path fill="none" stroke="midnightblue" d="M435.759,-161.213C452.559,-128.437 486.503,-71.0917 532,-39 536.858,-35.5732 542.212,-32.6285 547.779,-30.0993"/>
<polygon fill="midnightblue" stroke="midnightblue" points="432.437,-160.031 431.102,-170.541 438.7,-163.157 432.437,-160.031"/>
</g>
<!-- Node5 -->
<g id="node5" class="node"><title>Node5</title>
<g id="a_node5"><a xlink:href="class_f_b_client_1_1_screens_1_1_menu_screens_1_1_battle_menu_screen.html" target="_top" xlink:title="FBClient.Screens.MenuScreens.\lBattleMenuScreen">
<polygon fill="white" stroke="black" points="738.5,-882 738.5,-912 897.5,-912 897.5,-882 738.5,-882"/>
<text text-anchor="start" x="746.5" y="-900" font-family="Helvetica,sans-Serif" font-size="10.00">FBClient.Screens.MenuScreens.</text>
<text text-anchor="middle" x="818" y="-889" font-family="Helvetica,sans-Serif" font-size="10.00">BattleMenuScreen</text>
</a>
</g>
</g>
<!-- Node4&#45;&gt;Node5 -->
<g id="edge4" class="edge"><title>Node4&#45;&gt;Node5</title>
<path fill="none" stroke="midnightblue" d="M617.542,-628.028C626.393,-681.101 654.459,-805.513 730,-872 734.365,-875.842 739.285,-879.095 744.51,-881.85"/>
<polygon fill="midnightblue" stroke="midnightblue" points="620.994,-627.448 615.977,-618.116 614.08,-628.54 620.994,-627.448"/>
</g>
<!-- Node6 -->
<g id="node6" class="node"><title>Node6</title>
<g id="a_node6"><a xlink:href="class_f_b_client_1_1_screens_1_1_menu_screens_1_1_create_server_menu_screen.html" target="_top" xlink:title="FBClient.Screens.MenuScreens.\lCreateServerMenuScreen">
<polygon fill="white" stroke="black" points="738.5,-833 738.5,-863 897.5,-863 897.5,-833 738.5,-833"/>
<text text-anchor="start" x="746.5" y="-851" font-family="Helvetica,sans-Serif" font-size="10.00">FBClient.Screens.MenuScreens.</text>
<text text-anchor="middle" x="818" y="-840" font-family="Helvetica,sans-Serif" font-size="10.00">CreateServerMenuScreen</text>
</a>
</g>
</g>
<!-- Node4&#45;&gt;Node6 -->
<g id="edge5" class="edge"><title>Node4&#45;&gt;Node6</title>
<path fill="none" stroke="midnightblue" d="M620.148,-627.87C632.735,-673.529 665.819,-770.813 730,-823 734.755,-826.867 740.081,-830.135 745.693,-832.899"/>
<polygon fill="midnightblue" stroke="midnightblue" points="623.525,-626.951 617.574,-618.186 616.76,-628.749 623.525,-626.951"/>
</g>
<!-- Node7 -->
<g id="node7" class="node"><title>Node7</title>
<g id="a_node7"><a xlink:href="class_f_b_client_1_1_screens_1_1_menu_screens_1_1_join_server_menu_screen.html" target="_top" xlink:title="FBClient.Screens.MenuScreens.\lJoinServerMenuScreen">
<polygon fill="white" stroke="black" points="738.5,-784 738.5,-814 897.5,-814 897.5,-784 738.5,-784"/>
<text text-anchor="start" x="746.5" y="-802" font-family="Helvetica,sans-Serif" font-size="10.00">FBClient.Screens.MenuScreens.</text>
<text text-anchor="middle" x="818" y="-791" font-family="Helvetica,sans-Serif" font-size="10.00">JoinServerMenuScreen</text>
</a>
</g>
</g>
<!-- Node4&#45;&gt;Node7 -->
<g id="edge6" class="edge"><title>Node4&#45;&gt;Node7</title>
<path fill="none" stroke="midnightblue" d="M624.127,-627.779C640.668,-665.142 677.036,-735.604 730,-774 735.344,-777.874 741.276,-781.15 747.46,-783.92"/>
<polygon fill="midnightblue" stroke="midnightblue" points="627.16,-625.973 619.99,-618.173 620.731,-628.742 627.16,-625.973"/>
</g>
<!-- Node8 -->
<g id="node8" class="node"><title>Node8</title>
<g id="a_node8"><a xlink:href="class_f_b_client_1_1_screens_1_1_menu_screens_1_1_keys_menu_screen.html" target="_top" xlink:title="FBClient.Screens.MenuScreens.\lKeysMenuScreen">
<polygon fill="white" stroke="black" points="738.5,-735 738.5,-765 897.5,-765 897.5,-735 738.5,-735"/>
<text text-anchor="start" x="746.5" y="-753" font-family="Helvetica,sans-Serif" font-size="10.00">FBClient.Screens.MenuScreens.</text>
<text text-anchor="middle" x="818" y="-742" font-family="Helvetica,sans-Serif" font-size="10.00">KeysMenuScreen</text>
</a>
</g>
</g>
<!-- Node4&#45;&gt;Node8 -->
<g id="edge7" class="edge"><title>Node4&#45;&gt;Node8</title>
<path fill="none" stroke="midnightblue" d="M630.223,-626.505C650.461,-654.08 687.608,-699.288 730,-725 736.315,-728.83 743.244,-732.097 750.349,-734.878"/>
<polygon fill="midnightblue" stroke="midnightblue" points="632.943,-624.292 624.261,-618.219 627.261,-628.381 632.943,-624.292"/>
</g>
<!-- Node9 -->
<g id="node9" class="node"><title>Node9</title>
<g id="a_node9"><a xlink:href="class_f_b_client_1_1_screens_1_1_menu_screens_1_1_multiplayer_game_mode_menu_screen.html" target="_top" xlink:title="FBClient.Screens.MenuScreens.\lMultiplayerGameModeMenuScreen">
<polygon fill="white" stroke="black" points="733.5,-686 733.5,-716 902.5,-716 902.5,-686 733.5,-686"/>
<text text-anchor="start" x="741.5" y="-704" font-family="Helvetica,sans-Serif" font-size="10.00">FBClient.Screens.MenuScreens.</text>
<text text-anchor="middle" x="818" y="-693" font-family="Helvetica,sans-Serif" font-size="10.00">MultiplayerGameModeMenuScreen</text>
</a>
</g>
</g>
<!-- Node4&#45;&gt;Node9 -->
<g id="edge8" class="edge"><title>Node4&#45;&gt;Node9</title>
<path fill="none" stroke="midnightblue" d="M642.138,-623.89C664.878,-639.97 698.223,-661.78 730,-676 738.32,-679.723 747.336,-683.042 756.305,-685.95"/>
<polygon fill="midnightblue" stroke="midnightblue" points="644.134,-621.015 633.967,-618.036 640.057,-626.705 644.134,-621.015"/>
</g>
<!-- Node10 -->
<g id="node10" class="node"><title>Node10</title>
<g id="a_node10"><a xlink:href="class_f_b_client_1_1_screens_1_1_menu_screens_1_1_network_menu_screen.html" target="_top" xlink:title="FBClient.Screens.MenuScreens.\lNetworkMenuScreen">
<polygon fill="white" stroke="black" points="738.5,-637 738.5,-667 897.5,-667 897.5,-637 738.5,-637"/>
<text text-anchor="start" x="746.5" y="-655" font-family="Helvetica,sans-Serif" font-size="10.00">FBClient.Screens.MenuScreens.</text>
<text text-anchor="middle" x="818" y="-644" font-family="Helvetica,sans-Serif" font-size="10.00">NetworkMenuScreen</text>
</a>
</g>
</g>
<!-- Node4&#45;&gt;Node10 -->
<g id="edge9" class="edge"><title>Node4&#45;&gt;Node10</title>
<path fill="none" stroke="midnightblue" d="M686.102,-620.404C708.558,-625.824 733.116,-631.752 754.832,-636.994"/>
<polygon fill="midnightblue" stroke="midnightblue" points="686.828,-616.979 676.286,-618.035 685.186,-623.783 686.828,-616.979"/>
</g>
<!-- Node11 -->
<g id="node11" class="node"><title>Node11</title>
<g id="a_node11"><a xlink:href="class_f_b_client_1_1_screens_1_1_menu_screens_1_1_online_game_menu_screen.html" target="_top" xlink:title="FBClient.Screens.MenuScreens.\lOnlineGameMenuScreen">
<polygon fill="white" stroke="black" points="738.5,-588 738.5,-618 897.5,-618 897.5,-588 738.5,-588"/>
<text text-anchor="start" x="746.5" y="-606" font-family="Helvetica,sans-Serif" font-size="10.00">FBClient.Screens.MenuScreens.</text>
<text text-anchor="middle" x="818" y="-595" font-family="Helvetica,sans-Serif" font-size="10.00">OnlineGameMenuScreen</text>
</a>
</g>
</g>
<!-- Node4&#45;&gt;Node11 -->
<g id="edge10" class="edge"><title>Node4&#45;&gt;Node11</title>
<path fill="none" stroke="midnightblue" d="M694.972,-603C709.219,-603 724.029,-603 738.215,-603"/>
<polygon fill="midnightblue" stroke="midnightblue" points="694.715,-599.5 684.715,-603 694.715,-606.5 694.715,-599.5"/>
</g>
<!-- Node12 -->
<g id="node12" class="node"><title>Node12</title>
<g id="a_node12"><a xlink:href="class_f_b_client_1_1_screens_1_1_menu_screens_1_1_option_menu_screen.html" target="_top" xlink:title="FBClient.Screens.MenuScreens.\lOptionMenuScreen">
<polygon fill="white" stroke="black" points="738.5,-539 738.5,-569 897.5,-569 897.5,-539 738.5,-539"/>
<text text-anchor="start" x="746.5" y="-557" font-family="Helvetica,sans-Serif" font-size="10.00">FBClient.Screens.MenuScreens.</text>
<text text-anchor="middle" x="818" y="-546" font-family="Helvetica,sans-Serif" font-size="10.00">OptionMenuScreen</text>
</a>
</g>
</g>
<!-- Node4&#45;&gt;Node12 -->
<g id="edge11" class="edge"><title>Node4&#45;&gt;Node12</title>
<path fill="none" stroke="midnightblue" d="M686.102,-585.596C708.558,-580.176 733.116,-574.248 754.832,-569.006"/>
<polygon fill="midnightblue" stroke="midnightblue" points="685.186,-582.217 676.286,-587.965 686.828,-589.021 685.186,-582.217"/>
</g>
<!-- Node13 -->
<g id="node13" class="node"><title>Node13</title>
<g id="a_node13"><a xlink:href="class_f_b_client_1_1_screens_1_1_menu_screens_1_1_single_player_game_mode_menu_screen.html" target="_top" xlink:title="FBClient.Screens.MenuScreens.\lSinglePlayerGameModeMenuScreen">
<polygon fill="white" stroke="black" points="730,-490 730,-520 906,-520 906,-490 730,-490"/>
<text text-anchor="start" x="738" y="-508" font-family="Helvetica,sans-Serif" font-size="10.00">FBClient.Screens.MenuScreens.</text>
<text text-anchor="middle" x="818" y="-497" font-family="Helvetica,sans-Serif" font-size="10.00">SinglePlayerGameModeMenuScreen</text>
</a>
</g>
</g>
<!-- Node4&#45;&gt;Node13 -->
<g id="edge12" class="edge"><title>Node4&#45;&gt;Node13</title>
<path fill="none" stroke="midnightblue" d="M642.138,-582.11C664.878,-566.03 698.223,-544.22 730,-530 738.32,-526.277 747.336,-522.958 756.305,-520.05"/>
<polygon fill="midnightblue" stroke="midnightblue" points="640.057,-579.295 633.967,-587.964 644.134,-584.985 640.057,-579.295"/>
</g>
<!-- Node14 -->
<g id="node14" class="node"><title>Node14</title>
<g id="a_node14"><a xlink:href="class_f_b_client_1_1_screens_1_1_menu_screens_1_1_sudden_death_menu_screen.html" target="_top" xlink:title="FBClient.Screens.MenuScreens.\lSuddenDeathMenuScreen">
<polygon fill="white" stroke="black" points="738.5,-441 738.5,-471 897.5,-471 897.5,-441 738.5,-441"/>
<text text-anchor="start" x="746.5" y="-459" font-family="Helvetica,sans-Serif" font-size="10.00">FBClient.Screens.MenuScreens.</text>
<text text-anchor="middle" x="818" y="-448" font-family="Helvetica,sans-Serif" font-size="10.00">SuddenDeathMenuScreen</text>
</a>
</g>
</g>
<!-- Node4&#45;&gt;Node14 -->
<g id="edge13" class="edge"><title>Node4&#45;&gt;Node14</title>
<path fill="none" stroke="midnightblue" d="M630.223,-579.495C650.461,-551.92 687.608,-506.712 730,-481 736.315,-477.17 743.244,-473.903 750.349,-471.122"/>
<polygon fill="midnightblue" stroke="midnightblue" points="627.261,-577.619 624.261,-587.781 632.943,-581.708 627.261,-577.619"/>
</g>
<!-- Node15 -->
<g id="node15" class="node"><title>Node15</title>
<g id="a_node15"><a xlink:href="class_f_b_client_1_1_screens_1_1_menu_screens_1_1_title_screen.html" target="_top" xlink:title="FBClient.Screens.MenuScreens.\lTitleScreen">
<polygon fill="white" stroke="black" points="738.5,-392 738.5,-422 897.5,-422 897.5,-392 738.5,-392"/>
<text text-anchor="start" x="746.5" y="-410" font-family="Helvetica,sans-Serif" font-size="10.00">FBClient.Screens.MenuScreens.</text>
<text text-anchor="middle" x="818" y="-399" font-family="Helvetica,sans-Serif" font-size="10.00">TitleScreen</text>
</a>
</g>
</g>
<!-- Node4&#45;&gt;Node15 -->
<g id="edge14" class="edge"><title>Node4&#45;&gt;Node15</title>
<path fill="none" stroke="midnightblue" d="M623.913,-578.288C640.277,-540.689 676.537,-469.435 730,-431 734.834,-427.525 740.15,-424.552 745.699,-422.01"/>
<polygon fill="midnightblue" stroke="midnightblue" points="620.5,-577.372 619.828,-587.946 626.947,-580.1 620.5,-577.372"/>
</g>
<!-- Node16 -->
<g id="node16" class="node"><title>Node16</title>
<g id="a_node16"><a xlink:href="class_f_b_client_1_1_screens_1_1_menu_screens_1_1_user_menu_screen.html" target="_top" xlink:title="FBClient.Screens.MenuScreens.\lUserMenuScreen">
<polygon fill="white" stroke="black" points="738.5,-343 738.5,-373 897.5,-373 897.5,-343 738.5,-343"/>
<text text-anchor="start" x="746.5" y="-361" font-family="Helvetica,sans-Serif" font-size="10.00">FBClient.Screens.MenuScreens.</text>
<text text-anchor="middle" x="818" y="-350" font-family="Helvetica,sans-Serif" font-size="10.00">UserMenuScreen</text>
</a>
</g>
</g>
<!-- Node4&#45;&gt;Node16 -->
<g id="edge15" class="edge"><title>Node4&#45;&gt;Node16</title>
<path fill="none" stroke="midnightblue" d="M619.971,-578.286C632.345,-532.457 665.205,-434.216 730,-382 734.27,-378.559 738.999,-375.61 743.981,-373.084"/>
<polygon fill="midnightblue" stroke="midnightblue" points="616.575,-577.437 617.446,-587.996 623.35,-579.198 616.575,-577.437"/>
</g>
<!-- Node18 -->
<g id="node18" class="node"><title>Node18</title>
<g id="a_node18"><a xlink:href="class_f_b_client_1_1_screens_1_1_game_screens_1_1_network_test_screen.html" target="_top" xlink:title="FBClient.Screens.GameScreens.\lNetworkTestScreen">
<polygon fill="white" stroke="black" points="737.5,-294 737.5,-324 898.5,-324 898.5,-294 737.5,-294"/>
<text text-anchor="start" x="745.5" y="-312" font-family="Helvetica,sans-Serif" font-size="10.00">FBClient.Screens.GameScreens.</text>
<text text-anchor="middle" x="818" y="-301" font-family="Helvetica,sans-Serif" font-size="10.00">NetworkTestScreen</text>
</a>
</g>
</g>
<!-- Node17&#45;&gt;Node18 -->
<g id="edge17" class="edge"><title>Node17&#45;&gt;Node18</title>
<path fill="none" stroke="midnightblue" d="M703.808,-309C714.947,-309 726.275,-309 737.248,-309"/>
<polygon fill="midnightblue" stroke="midnightblue" points="703.648,-305.5 693.648,-309 703.648,-312.5 703.648,-305.5"/>
</g>
<!-- Node19 -->
<g id="node19" class="node"><title>Node19</title>
<g id="a_node19"><a xlink:href="class_f_b_client_1_1_screens_1_1_game_screens_1_1_single_player_game_play_screen.html" target="_top" xlink:title="FBClient.Screens.GameScreens.\lSinglePlayerGamePlayScreen">
<polygon fill="white" stroke="black" points="737.5,-245 737.5,-275 898.5,-275 898.5,-245 737.5,-245"/>
<text text-anchor="start" x="745.5" y="-263" font-family="Helvetica,sans-Serif" font-size="10.00">FBClient.Screens.GameScreens.</text>
<text text-anchor="middle" x="818" y="-252" font-family="Helvetica,sans-Serif" font-size="10.00">SinglePlayerGamePlayScreen</text>
</a>
</g>
</g>
<!-- Node17&#45;&gt;Node19 -->
<g id="edge18" class="edge"><title>Node17&#45;&gt;Node19</title>
<path fill="none" stroke="midnightblue" d="M686.102,-291.596C708.558,-286.176 733.116,-280.248 754.832,-275.006"/>
<polygon fill="midnightblue" stroke="midnightblue" points="685.186,-288.217 676.286,-293.965 686.828,-295.021 685.186,-288.217"/>
</g>
</g>
</svg>
