<?xml version="1.0" encoding="UTF-8" standalone="no"?>
<!DOCTYPE svg PUBLIC "-//W3C//DTD SVG 1.1//EN"
 "http://www.w3.org/Graphics/SVG/1.1/DTD/svg11.dtd">
<!-- Generated by graphviz version 2.34.0 (20130907.0111)
 -->
<!-- Title: Graphical Class Hierarchy Pages: 1 -->
<svg width="348pt" height="66pt"
 viewBox="0.00 0.00 348.00 66.00" xmlns="http://www.w3.org/2000/svg" xmlns:xlink="http://www.w3.org/1999/xlink">
<g id="graph0" class="graph" transform="scale(1 1) rotate(0) translate(4 62)">
<title>Graphical Class Hierarchy</title>
<polygon fill="white" stroke="white" points="-4,4 -4,-62 344,-62 344,4 -4,4"/>
<!-- Node1 -->
<g id="node1" class="node"><title>Node1</title>
<g id="a_node1"><a xlink:href="class_f_b_library_1_1_core_1_1_base_entities_1_1_base_map.html" target="_top" xlink:title="FBLibrary.Core.BaseEntities.\lBaseMap">
<polygon fill="white" stroke="black" points="0.5,-14 0.5,-44 143.5,-44 143.5,-14 0.5,-14"/>
<text text-anchor="start" x="8.5" y="-32" font-family="Helvetica,sans-Serif" font-size="10.00">FBLibrary.Core.BaseEntities.</text>
<text text-anchor="middle" x="72" y="-21" font-family="Helvetica,sans-Serif" font-size="10.00">BaseMap</text>
</a>
</g>
</g>
<!-- Node2 -->
<g id="node2" class="node"><title>Node2</title>
<g id="a_node2"><a xlink:href="class_f_b_client_1_1_world_engine_1_1_map.html" target="_top" xlink:title="FBClient.WorldEngine.Map">
<polygon fill="white" stroke="black" points="193,-38.5 193,-57.5 327,-57.5 327,-38.5 193,-38.5"/>
<text text-anchor="middle" x="260" y="-45.5" font-family="Helvetica,sans-Serif" font-size="10.00">FBClient.WorldEngine.Map</text>
</a>
</g>
</g>
<!-- Node1&#45;&gt;Node2 -->
<g id="edge1" class="edge"><title>Node1&#45;&gt;Node2</title>
<path fill="none" stroke="midnightblue" d="M153.902,-37.2642C166.878,-38.5897 180.174,-39.9479 192.756,-41.2331"/>
<polygon fill="midnightblue" stroke="midnightblue" points="153.888,-33.7446 143.584,-36.2102 153.176,-40.7084 153.888,-33.7446"/>
</g>
<!-- Node3 -->
<g id="node3" class="node"><title>Node3</title>
<g id="a_node3"><a xlink:href="class_f_b_server_1_1_core_1_1_world_engine_1_1_map.html" target="_top" xlink:title="FBServer.Core.WorldEngine.Map">
<polygon fill="white" stroke="black" points="180,-0.5 180,-19.5 340,-19.5 340,-0.5 180,-0.5"/>
<text text-anchor="middle" x="260" y="-7.5" font-family="Helvetica,sans-Serif" font-size="10.00">FBServer.Core.WorldEngine.Map</text>
</a>
</g>
</g>
<!-- Node1&#45;&gt;Node3 -->
<g id="edge2" class="edge"><title>Node1&#45;&gt;Node3</title>
<path fill="none" stroke="midnightblue" d="M153.659,-20.7606C162.314,-19.8765 171.115,-18.9775 179.753,-18.0951"/>
<polygon fill="midnightblue" stroke="midnightblue" points="153.176,-17.2916 143.584,-21.7898 153.888,-24.2554 153.176,-17.2916"/>
</g>
</g>
</svg>
