<?xml version="1.0" encoding="UTF-8" standalone="no"?>
<!DOCTYPE svg PUBLIC "-//W3C//DTD SVG 1.1//EN"
 "http://www.w3.org/Graphics/SVG/1.1/DTD/svg11.dtd">
<!-- Generated by graphviz version 2.34.0 (20130907.0111)
 -->
<!-- Title: Graphical Class Hierarchy Pages: 1 -->
<svg width="290pt" height="142pt"
 viewBox="0.00 0.00 290.00 142.00" xmlns="http://www.w3.org/2000/svg" xmlns:xlink="http://www.w3.org/1999/xlink">
<g id="graph0" class="graph" transform="scale(1 1) rotate(0) translate(4 138)">
<title>Graphical Class Hierarchy</title>
<polygon fill="white" stroke="white" points="-4,4 -4,-138 286,-138 286,4 -4,4"/>
<!-- Node1 -->
<g id="node1" class="node"><title>Node1</title>
<polygon fill="white" stroke="#bfbfbf" points="14.5,-114.5 14.5,-133.5 81.5,-133.5 81.5,-114.5 14.5,-114.5"/>
<text text-anchor="middle" x="48" y="-121.5" font-family="Helvetica,sans-Serif" font-size="10.00">IDisposable</text>
</g>
<!-- Node2 -->
<g id="node2" class="node"><title>Node2</title>
<g id="a_node2"><a xlink:href="interface_f_b_client_1_1_core_1_1_i_drawable_game_component.html" target="_top" xlink:title="FBClient.Core.IDrawableGame\lComponent">
<polygon fill="white" stroke="black" points="132.5,-52 132.5,-82 281.5,-82 281.5,-52 132.5,-52"/>
<text text-anchor="start" x="140.5" y="-70" font-family="Helvetica,sans-Serif" font-size="10.00">FBClient.Core.IDrawableGame</text>
<text text-anchor="middle" x="207" y="-59" font-family="Helvetica,sans-Serif" font-size="10.00">Component</text>
</a>
</g>
</g>
<!-- Node1&#45;&gt;Node2 -->
<g id="edge1" class="edge"><title>Node1&#45;&gt;Node2</title>
<path fill="none" stroke="midnightblue" d="M84.9464,-110.949C108.66,-102.34 139.798,-91.0351 164.555,-82.0468"/>
<polygon fill="midnightblue" stroke="midnightblue" points="83.4835,-107.757 75.2783,-114.459 85.8724,-114.337 83.4835,-107.757"/>
</g>
<!-- Node3 -->
<g id="node3" class="node"><title>Node3</title>
<polygon fill="white" stroke="#bfbfbf" points="18.5,-76.5 18.5,-95.5 77.5,-95.5 77.5,-76.5 18.5,-76.5"/>
<text text-anchor="middle" x="48" y="-83.5" font-family="Helvetica,sans-Serif" font-size="10.00">IDrawable</text>
</g>
<!-- Node3&#45;&gt;Node2 -->
<g id="edge2" class="edge"><title>Node3&#45;&gt;Node2</title>
<path fill="none" stroke="midnightblue" d="M88.0782,-81.2708C101.51,-79.6453 117.022,-77.768 132.291,-75.9202"/>
<polygon fill="midnightblue" stroke="midnightblue" points="87.3033,-77.8389 77.7962,-82.5151 88.1443,-84.7882 87.3033,-77.8389"/>
</g>
<!-- Node4 -->
<g id="node4" class="node"><title>Node4</title>
<polygon fill="white" stroke="#bfbfbf" points="0.5,-38.5 0.5,-57.5 95.5,-57.5 95.5,-38.5 0.5,-38.5"/>
<text text-anchor="middle" x="48" y="-45.5" font-family="Helvetica,sans-Serif" font-size="10.00">IGameComponent</text>
</g>
<!-- Node4&#45;&gt;Node2 -->
<g id="edge3" class="edge"><title>Node4&#45;&gt;Node2</title>
<path fill="none" stroke="midnightblue" d="M105.677,-54.859C114.369,-55.9109 123.449,-57.0097 132.442,-58.098"/>
<polygon fill="midnightblue" stroke="midnightblue" points="106.028,-51.376 95.6801,-53.6492 105.187,-58.3253 106.028,-51.376"/>
</g>
<!-- Node5 -->
<g id="node5" class="node"><title>Node5</title>
<polygon fill="white" stroke="#bfbfbf" points="14,-0.5 14,-19.5 82,-19.5 82,-0.5 14,-0.5"/>
<text text-anchor="middle" x="48" y="-7.5" font-family="Helvetica,sans-Serif" font-size="10.00">IUpdateable</text>
</g>
<!-- Node5&#45;&gt;Node2 -->
<g id="edge4" class="edge"><title>Node5&#45;&gt;Node2</title>
<path fill="none" stroke="midnightblue" d="M84.9464,-23.0506C108.66,-31.66 139.798,-42.9649 164.555,-51.9532"/>
<polygon fill="midnightblue" stroke="midnightblue" points="85.8724,-19.6633 75.2783,-19.5405 83.4835,-26.2431 85.8724,-19.6633"/>
</g>
</g>
</svg>
