<?xml version="1.0" encoding="UTF-8" standalone="no"?>
<!DOCTYPE svg PUBLIC "-//W3C//DTD SVG 1.1//EN"
 "http://www.w3.org/Graphics/SVG/1.1/DTD/svg11.dtd">
<!-- Generated by graphviz version 2.34.0 (20130907.0111)
 -->
<!-- Title: Graphical Class Hierarchy Pages: 1 -->
<svg width="286pt" height="104pt"
 viewBox="0.00 0.00 286.00 104.00" xmlns="http://www.w3.org/2000/svg" xmlns:xlink="http://www.w3.org/1999/xlink">
<g id="graph0" class="graph" transform="scale(1 1) rotate(0) translate(4 100)">
<title>Graphical Class Hierarchy</title>
<polygon fill="white" stroke="white" points="-4,4 -4,-100 282,-100 282,4 -4,4"/>
<!-- Node1 -->
<g id="node1" class="node"><title>Node1</title>
<polygon fill="white" stroke="#bfbfbf" points="0.5,-76.5 0.5,-95.5 113.5,-95.5 113.5,-76.5 0.5,-76.5"/>
<text text-anchor="middle" x="57" y="-83.5" font-family="Helvetica,sans-Serif" font-size="10.00">IComponentConnector</text>
</g>
<!-- Node2 -->
<g id="node2" class="node"><title>Node2</title>
<g id="a_node2"><a xlink:href="class_f_b_launcher_1_1_main_window.html" target="_top" xlink:title="Logique d&#39;interaction pour MainWindow.xaml ">
<polygon fill="white" stroke="black" points="150,-38.5 150,-57.5 278,-57.5 278,-38.5 150,-38.5"/>
<text text-anchor="middle" x="214" y="-45.5" font-family="Helvetica,sans-Serif" font-size="10.00">FBLauncher.MainWindow</text>
</a>
</g>
</g>
<!-- Node1&#45;&gt;Node2 -->
<g id="edge1" class="edge"><title>Node1&#45;&gt;Node2</title>
<path fill="none" stroke="midnightblue" d="M107.111,-73.96C128.765,-68.6512 153.85,-62.5012 174.168,-57.5201"/>
<polygon fill="midnightblue" stroke="midnightblue" points="105.992,-70.6305 97.113,-76.411 107.659,-77.4292 105.992,-70.6305"/>
</g>
<!-- Node3 -->
<g id="node3" class="node"><title>Node3</title>
<polygon fill="white" stroke="#bfbfbf" points="26,-38.5 26,-57.5 88,-57.5 88,-38.5 26,-38.5"/>
<text text-anchor="middle" x="57" y="-45.5" font-family="Helvetica,sans-Serif" font-size="10.00">IUpdatable</text>
</g>
<!-- Node3&#45;&gt;Node2 -->
<g id="edge2" class="edge"><title>Node3&#45;&gt;Node2</title>
<path fill="none" stroke="midnightblue" d="M98.6213,-48C114.264,-48 132.521,-48 149.796,-48"/>
<polygon fill="midnightblue" stroke="midnightblue" points="98.2536,-44.5001 88.2535,-48 98.2535,-51.5001 98.2536,-44.5001"/>
</g>
<!-- Node4 -->
<g id="node4" class="node"><title>Node4</title>
<polygon fill="white" stroke="#bfbfbf" points="31.5,-0.5 31.5,-19.5 82.5,-19.5 82.5,-0.5 31.5,-0.5"/>
<text text-anchor="middle" x="57" y="-7.5" font-family="Helvetica,sans-Serif" font-size="10.00">Window</text>
</g>
<!-- Node4&#45;&gt;Node2 -->
<g id="edge3" class="edge"><title>Node4&#45;&gt;Node2</title>
<path fill="none" stroke="midnightblue" d="M92.3725,-18.4268C116.546,-24.3533 148.933,-32.2934 174.062,-38.4539"/>
<polygon fill="midnightblue" stroke="midnightblue" points="93.106,-15.0031 82.5602,-16.0212 91.4392,-21.8017 93.106,-15.0031"/>
</g>
</g>
</svg>
