<?xml version="1.0" encoding="UTF-8" standalone="no"?>
<!DOCTYPE svg PUBLIC "-//W3C//DTD SVG 1.1//EN"
 "http://www.w3.org/Graphics/SVG/1.1/DTD/svg11.dtd">
<!-- Generated by graphviz version 2.34.0 (20130907.0111)
 -->
<!-- Title: Graphical Class Hierarchy Pages: 1 -->
<svg width="362pt" height="66pt"
 viewBox="0.00 0.00 362.00 66.00" xmlns="http://www.w3.org/2000/svg" xmlns:xlink="http://www.w3.org/1999/xlink">
<g id="graph0" class="graph" transform="scale(1 1) rotate(0) translate(4 62)">
<title>Graphical Class Hierarchy</title>
<polygon fill="white" stroke="white" points="-4,4 -4,-62 358,-62 358,4 -4,4"/>
<!-- Node1 -->
<g id="node1" class="node"><title>Node1</title>
<g id="a_node1"><a xlink:href="class_f_b_library_1_1_core_1_1_base_game_manager.html" target="_top" xlink:title="FBLibrary.Core.BaseGameManager">
<polygon fill="white" stroke="black" points="0.5,-19.5 0.5,-38.5 171.5,-38.5 171.5,-19.5 0.5,-19.5"/>
<text text-anchor="middle" x="86" y="-26.5" font-family="Helvetica,sans-Serif" font-size="10.00">FBLibrary.Core.BaseGameManager</text>
</a>
</g>
</g>
<!-- Node2 -->
<g id="node2" class="node"><title>Node2</title>
<g id="a_node2"><a xlink:href="class_f_b_client_1_1_core_1_1_game_manager.html" target="_top" xlink:title="FBClient.Core.GameManager">
<polygon fill="white" stroke="black" points="209,-38.5 209,-57.5 353,-57.5 353,-38.5 209,-38.5"/>
<text text-anchor="middle" x="281" y="-45.5" font-family="Helvetica,sans-Serif" font-size="10.00">FBClient.Core.GameManager</text>
</a>
</g>
</g>
<!-- Node1&#45;&gt;Node2 -->
<g id="edge1" class="edge"><title>Node1&#45;&gt;Node2</title>
<path fill="none" stroke="midnightblue" d="M181.621,-38.315C190.83,-39.2216 200.062,-40.1304 208.981,-41.0085"/>
<polygon fill="midnightblue" stroke="midnightblue" points="181.947,-34.8303 171.653,-37.3337 181.262,-41.7966 181.947,-34.8303"/>
</g>
<!-- Node3 -->
<g id="node3" class="node"><title>Node3</title>
<g id="a_node3"><a xlink:href="class_f_b_server_1_1_core_1_1_game_manager.html" target="_top" xlink:title="FBServer.Core.GameManager">
<polygon fill="white" stroke="black" points="208,-0.5 208,-19.5 354,-19.5 354,-0.5 208,-0.5"/>
<text text-anchor="middle" x="281" y="-7.5" font-family="Helvetica,sans-Serif" font-size="10.00">FBServer.Core.GameManager</text>
</a>
</g>
</g>
<!-- Node1&#45;&gt;Node3 -->
<g id="edge2" class="edge"><title>Node1&#45;&gt;Node3</title>
<path fill="none" stroke="midnightblue" d="M181.864,-19.661C190.585,-18.8025 199.323,-17.9423 207.794,-17.1084"/>
<polygon fill="midnightblue" stroke="midnightblue" points="181.262,-16.2034 171.653,-20.6663 181.947,-23.1697 181.262,-16.2034"/>
</g>
</g>
</svg>
