<?xml version="1.0" encoding="UTF-8" standalone="no"?>
<!DOCTYPE svg PUBLIC "-//W3C//DTD SVG 1.1//EN"
 "http://www.w3.org/Graphics/SVG/1.1/DTD/svg11.dtd">
<!-- Generated by graphviz version 2.34.0 (20130907.0111)
 -->
<!-- Title: Graphical Class Hierarchy Pages: 1 -->
<svg width="300pt" height="136pt"
 viewBox="0.00 0.00 300.00 136.00" xmlns="http://www.w3.org/2000/svg" xmlns:xlink="http://www.w3.org/1999/xlink">
<g id="graph0" class="graph" transform="scale(1 1) rotate(0) translate(4 132)">
<title>Graphical Class Hierarchy</title>
<polygon fill="white" stroke="white" points="-4,4 -4,-132 296,-132 296,4 -4,4"/>
<!-- Node1 -->
<g id="node1" class="node"><title>Node1</title>
<polygon fill="white" stroke="#bfbfbf" points="0.5,-54.5 0.5,-73.5 89.5,-73.5 89.5,-54.5 0.5,-54.5"/>
<text text-anchor="middle" x="45" y="-61.5" font-family="Helvetica,sans-Serif" font-size="10.00">BaseGameState</text>
</g>
<!-- Node2 -->
<g id="node2" class="node"><title>Node2</title>
<g id="a_node2"><a xlink:href="class_final___bomber_1_1_screens_1_1_multiplayer_game_mode_menu_screen.html" target="_top" xlink:title="Final_Bomber.Screens.Multiplayer\lGameModeMenuScreen">
<polygon fill="white" stroke="black" points="126,-98 126,-128 292,-128 292,-98 126,-98"/>
<text text-anchor="start" x="134" y="-116" font-family="Helvetica,sans-Serif" font-size="10.00">Final_Bomber.Screens.Multiplayer</text>
<text text-anchor="middle" x="209" y="-105" font-family="Helvetica,sans-Serif" font-size="10.00">GameModeMenuScreen</text>
</a>
</g>
</g>
<!-- Node1&#45;&gt;Node2 -->
<g id="edge1" class="edge"><title>Node1&#45;&gt;Node2</title>
<path fill="none" stroke="midnightblue" d="M87.4674,-76.5426C109.054,-83.0719 135.604,-91.1024 158.286,-97.963"/>
<polygon fill="midnightblue" stroke="midnightblue" points="88.2049,-73.1091 77.6198,-73.564 86.1782,-79.8093 88.2049,-73.1091"/>
</g>
<!-- Node3 -->
<g id="node3" class="node"><title>Node3</title>
<g id="a_node3"><a xlink:href="class_final___bomber_1_1_screens_1_1_online_game_menu_screen.html" target="_top" xlink:title="Final_Bomber.Screens.Online\lGameMenuScreen">
<polygon fill="white" stroke="black" points="136,-49 136,-79 282,-79 282,-49 136,-49"/>
<text text-anchor="start" x="144" y="-67" font-family="Helvetica,sans-Serif" font-size="10.00">Final_Bomber.Screens.Online</text>
<text text-anchor="middle" x="209" y="-56" font-family="Helvetica,sans-Serif" font-size="10.00">GameMenuScreen</text>
</a>
</g>
</g>
<!-- Node1&#45;&gt;Node3 -->
<g id="edge2" class="edge"><title>Node1&#45;&gt;Node3</title>
<path fill="none" stroke="midnightblue" d="M100.076,-64C111.503,-64 123.736,-64 135.712,-64"/>
<polygon fill="midnightblue" stroke="midnightblue" points="99.8396,-60.5001 89.8395,-64 99.8395,-67.5001 99.8396,-60.5001"/>
</g>
<!-- Node4 -->
<g id="node4" class="node"><title>Node4</title>
<g id="a_node4"><a xlink:href="class_final___bomber_1_1_screens_1_1_single_player_game_mode_menu_screen.html" target="_top" xlink:title="Final_Bomber.Screens.Single\lPlayerGameModeMenuScreen">
<polygon fill="white" stroke="black" points="134.5,-0 134.5,-30 283.5,-30 283.5,-0 134.5,-0"/>
<text text-anchor="start" x="142.5" y="-18" font-family="Helvetica,sans-Serif" font-size="10.00">Final_Bomber.Screens.Single</text>
<text text-anchor="middle" x="209" y="-7" font-family="Helvetica,sans-Serif" font-size="10.00">PlayerGameModeMenuScreen</text>
</a>
</g>
</g>
<!-- Node1&#45;&gt;Node4 -->
<g id="edge3" class="edge"><title>Node1&#45;&gt;Node4</title>
<path fill="none" stroke="midnightblue" d="M87.4674,-51.4574C109.054,-44.9281 135.604,-36.8976 158.286,-30.037"/>
<polygon fill="midnightblue" stroke="midnightblue" points="86.1782,-48.1907 77.6198,-54.436 88.2049,-54.8909 86.1782,-48.1907"/>
</g>
</g>
</svg>
