<?xml version="1.0" encoding="UTF-8" standalone="no"?>
<!DOCTYPE svg PUBLIC "-//W3C//DTD SVG 1.1//EN"
 "http://www.w3.org/Graphics/SVG/1.1/DTD/svg11.dtd">
<!-- Generated by graphviz version 2.34.0 (20130907.0111)
 -->
<!-- Title: FBClient.Core.IDrawableGameComponent Pages: 1 -->
<svg width="351pt" height="96pt"
 viewBox="0.00 0.00 351.00 96.00" xmlns="http://www.w3.org/2000/svg" xmlns:xlink="http://www.w3.org/1999/xlink">
<g id="graph0" class="graph" transform="scale(1 1) rotate(0) translate(4 92)">
<title>FBClient.Core.IDrawableGameComponent</title>
<polygon fill="white" stroke="white" points="-4,4 -4,-92 347,-92 347,4 -4,4"/>
<!-- Node1 -->
<g id="node1" class="node"><title>Node1</title>
<polygon fill="#bfbfbf" stroke="black" points="115.5,-1 115.5,-31 264.5,-31 264.5,-1 115.5,-1"/>
<text text-anchor="start" x="123.5" y="-19" font-family="Helvetica,sans-Serif" font-size="10.00">FBClient.Core.IDrawableGame</text>
<text text-anchor="middle" x="190" y="-8" font-family="Helvetica,sans-Serif" font-size="10.00">Component</text>
</g>
<!-- Node2 -->
<g id="node2" class="node"><title>Node2</title>
<polygon fill="white" stroke="#bfbfbf" points="-0.5,-68.5 -0.5,-87.5 94.5,-87.5 94.5,-68.5 -0.5,-68.5"/>
<text text-anchor="middle" x="47" y="-75.5" font-family="Helvetica,sans-Serif" font-size="10.00">IGameComponent</text>
</g>
<!-- Node2&#45;&gt;Node1 -->
<g id="edge1" class="edge"><title>Node2&#45;&gt;Node1</title>
<path fill="none" stroke="midnightblue" d="M76.859,-64.4718C100.131,-54.7072 132.438,-41.152 156.573,-31.0253"/>
<polygon fill="midnightblue" stroke="midnightblue" points="75.3554,-61.3069 67.4884,-68.4035 78.0638,-67.7618 75.3554,-61.3069"/>
</g>
<!-- Node3 -->
<g id="node3" class="node"><title>Node3</title>
<polygon fill="white" stroke="#bfbfbf" points="113,-68.5 113,-87.5 181,-87.5 181,-68.5 113,-68.5"/>
<text text-anchor="middle" x="147" y="-75.5" font-family="Helvetica,sans-Serif" font-size="10.00">IUpdateable</text>
</g>
<!-- Node3&#45;&gt;Node1 -->
<g id="edge2" class="edge"><title>Node3&#45;&gt;Node1</title>
<path fill="none" stroke="midnightblue" d="M159.107,-60.1064C165.655,-50.9697 173.65,-39.8142 179.866,-31.1408"/>
<polygon fill="midnightblue" stroke="midnightblue" points="156.141,-58.2364 153.161,-68.4035 161.831,-62.3141 156.141,-58.2364"/>
</g>
<!-- Node4 -->
<g id="node4" class="node"><title>Node4</title>
<polygon fill="white" stroke="#bfbfbf" points="199.5,-68.5 199.5,-87.5 266.5,-87.5 266.5,-68.5 199.5,-68.5"/>
<text text-anchor="middle" x="233" y="-75.5" font-family="Helvetica,sans-Serif" font-size="10.00">IDisposable</text>
</g>
<!-- Node4&#45;&gt;Node1 -->
<g id="edge3" class="edge"><title>Node4&#45;&gt;Node1</title>
<path fill="none" stroke="midnightblue" d="M220.893,-60.1064C214.345,-50.9697 206.35,-39.8142 200.134,-31.1408"/>
<polygon fill="midnightblue" stroke="midnightblue" points="218.169,-62.3141 226.839,-68.4035 223.859,-58.2364 218.169,-62.3141"/>
</g>
<!-- Node5 -->
<g id="node5" class="node"><title>Node5</title>
<polygon fill="white" stroke="#bfbfbf" points="284.5,-68.5 284.5,-87.5 343.5,-87.5 343.5,-68.5 284.5,-68.5"/>
<text text-anchor="middle" x="314" y="-75.5" font-family="Helvetica,sans-Serif" font-size="10.00">IDrawable</text>
</g>
<!-- Node5&#45;&gt;Node1 -->
<g id="edge4" class="edge"><title>Node5&#45;&gt;Node1</title>
<path fill="none" stroke="midnightblue" d="M287.053,-63.9609C267.037,-54.2761 239.763,-41.079 219.224,-31.1408"/>
<polygon fill="midnightblue" stroke="midnightblue" points="285.708,-67.1984 296.234,-68.4035 288.757,-60.8972 285.708,-67.1984"/>
</g>
</g>
</svg>
